<?xml version="1.0" encoding="UTF-8" standalone="no"?>
<!DOCTYPE svg PUBLIC "-//W3C//DTD SVG 1.1//EN"
"http://www.w3.org/Graphics/SVG/1.1/DTD/svg11.dtd">
<svg viewBox="0 0 935 1210" version="1.1" xmlns="http://www.w3.org/2000/svg" xmlns:xlink="http://www.w3.org/1999/xlink">
<defs>
<style type="text/css"><![CDATA[
.g0_34{
fill: #FFFFFF;
}
.g1_34{
fill: #ED7D31;
}
.g2_34{
}
]]></style>
</defs>
<path fill-rule="evenodd" d="M52.8,97.9H442.3V75.6H52.8V97.9Z" class="g0_34" />
<g fill="#000000" >
<use xlink:href="#f0_1c" transform="matrix(12,0,0,12,55,93.2)" />
<use xlink:href="#f0_af" transform="matrix(12,0,0,12,59.8,93.2)" />
<use xlink:href="#f0_7l" transform="matrix(12,0,0,12,73.4,93.2)" />
<use xlink:href="#f0_77" transform="matrix(12,0,0,12,81.1,93.2)" />
<use xlink:href="#f0_b5" transform="matrix(12,0,0,12,89.8,93.2)" />
<use xlink:href="#f0_7z" transform="matrix(12,0,0,12,97.2,93.2)" />
<use xlink:href="#f0_am" transform="matrix(12,0,0,12,110.4,93.2)" />
<use xlink:href="#f0_89" transform="matrix(12,0,0,12,119.9,93.2)" />
<use xlink:href="#f0_ae" transform="matrix(12,0,0,12,129.4,93.2)" />
<use xlink:href="#f0_c6" transform="matrix(12,0,0,12,144.1,93.2)" />
<use xlink:href="#f0_a8" transform="matrix(12,0,0,12,154,93.2)" />
<use xlink:href="#f0_bf" transform="matrix(12,0,0,12,158,93.2)" />
<use xlink:href="#f0_9q" transform="matrix(12,0,0,12,164.2,93.2)" />
<use xlink:href="#f0_ay" transform="matrix(12,0,0,12,168.3,93.2)" />
<use xlink:href="#f0_a8" transform="matrix(12,0,0,12,178.1,93.2)" />
<use xlink:href="#f0_7z" transform="matrix(12,0,0,12,182.2,93.2)" />
<use xlink:href="#f0_a8" transform="matrix(12,0,0,12,195.4,93.2)" />
<use xlink:href="#f0_9q" transform="matrix(12,0,0,12,199.8,93.2)" />
<use xlink:href="#f0_af" transform="matrix(12,0,0,12,203.8,93.2)" />
<use xlink:href="#f0_7z" transform="matrix(12,0,0,12,213.3,93.2)" />
<use xlink:href="#f0_77" transform="matrix(12,0,0,12,222.5,93.2)" />
<use xlink:href="#f0_b1" transform="matrix(12,0,0,12,231.3,93.2)" />
<use xlink:href="#f0_9q" transform="matrix(12,0,0,12,241.9,93.2)" />
<use xlink:href="#f0_af" transform="matrix(12,0,0,12,245.9,93.2)" />
<use xlink:href="#f0_7z" transform="matrix(12,0,0,12,255.5,93.2)" />
<use xlink:href="#f0_b0" transform="matrix(12,0,0,12,264.6,93.2)" />
<use xlink:href="#f0_c6" transform="matrix(12,0,0,12,274.5,93.2)" />
<use xlink:href="#f0_77" transform="matrix(12,0,0,12,284,93.2)" />
<use xlink:href="#f0_a8" transform="matrix(12,0,0,12,292.8,93.2)" />
<use xlink:href="#f0_9q" transform="matrix(12,0,0,12,297.2,93.2)" />
<use xlink:href="#f0_bf" transform="matrix(12,0,0,12,301.3,93.2)" />
<use xlink:href="#f0_9q" transform="matrix(12,0,0,12,307.5,93.2)" />
<use xlink:href="#f0_7z" transform="matrix(12,0,0,12,311.5,93.2)" />
<use xlink:href="#f0_b5" transform="matrix(12,0,0,12,320.6,93.2)" />
<use xlink:href="#f0_nq" transform="matrix(12,0,0,12,328,93.2)" />
<use xlink:href="#f0_bf" transform="matrix(12,0,0,12,336.4,93.2)" />
<use xlink:href="#f0_9n" transform="matrix(12,0,0,12,342.6,93.2)" />
<use xlink:href="#f0_7z" transform="matrix(12,0,0,12,352.2,93.2)" />
<use xlink:href="#f0_b1" transform="matrix(12,0,0,12,365.7,93.2)" />
<use xlink:href="#f0_7z" transform="matrix(12,0,0,12,371.9,93.2)" />
<use xlink:href="#f0_9d" transform="matrix(12,0,0,12,381.1,93.2)" />
<use xlink:href="#f0_9q" transform="matrix(12,0,0,12,389.9,93.2)" />
<use xlink:href="#f0_am" transform="matrix(12,0,0,12,393.9,93.2)" />
<use xlink:href="#f0_af" transform="matrix(12,0,0,12,403.5,93.2)" />
</g>
<path fill-rule="evenodd" d="M52.8,120.3H442.3V97.9H52.8v22.4Z" class="g0_34" />
<g fill="#000000" >
<use xlink:href="#f0_7l" transform="matrix(12,0,0,12,55,115.5)" />
<use xlink:href="#f0_am" transform="matrix(12,0,0,12,62.7,115.5)" />
<use xlink:href="#f0_ae" transform="matrix(12,0,0,12,72.3,115.5)" />
<use xlink:href="#f0_ae" transform="matrix(12,0,0,12,86.9,115.5)" />
<use xlink:href="#f0_am" transform="matrix(12,0,0,12,101.6,115.5)" />
<use xlink:href="#f0_af" transform="matrix(12,0,0,12,111.1,115.5)" />
<use xlink:href="#f0_bf" transform="matrix(12,0,0,12,124.7,115.5)" />
<use xlink:href="#f0_am" transform="matrix(12,0,0,12,130.9,115.5)" />
<use xlink:href="#f0_77" transform="matrix(12,0,0,12,144.8,115.5)" />
<use xlink:href="#f0_a8" transform="matrix(12,0,0,12,153.6,115.5)" />
<use xlink:href="#f0_a8" transform="matrix(12,0,0,12,158,115.5)" />
<use xlink:href="#f0_bf" transform="matrix(12,0,0,12,166.1,115.5)" />
<use xlink:href="#f0_9n" transform="matrix(12,0,0,12,172.3,115.5)" />
<use xlink:href="#f0_7z" transform="matrix(12,0,0,12,181.8,115.5)" />
<use xlink:href="#f0_9q" transform="matrix(12,0,0,12,195.4,115.5)" />
<use xlink:href="#f0_af" transform="matrix(12,0,0,12,199.4,115.5)" />
<use xlink:href="#f0_7z" transform="matrix(12,0,0,12,208.9,115.5)" />
<use xlink:href="#f0_b0" transform="matrix(12,0,0,12,218.1,115.5)" />
<use xlink:href="#f0_c6" transform="matrix(12,0,0,12,227.6,115.5)" />
<use xlink:href="#f0_77" transform="matrix(12,0,0,12,237.2,115.5)" />
<use xlink:href="#f0_a8" transform="matrix(12,0,0,12,246.3,115.5)" />
<use xlink:href="#f0_9q" transform="matrix(12,0,0,12,250.4,115.5)" />
<use xlink:href="#f0_bf" transform="matrix(12,0,0,12,254.4,115.5)" />
<use xlink:href="#f0_9q" transform="matrix(12,0,0,12,260.6,115.5)" />
<use xlink:href="#f0_7z" transform="matrix(12,0,0,12,264.6,115.5)" />
<use xlink:href="#f0_b5" transform="matrix(12,0,0,12,273.8,115.5)" />
<use xlink:href="#f0_9q" transform="matrix(12,0,0,12,285.5,115.5)" />
<use xlink:href="#f0_b5" transform="matrix(12,0,0,12,289.5,115.5)" />
<use xlink:href="#f0_bf" transform="matrix(12,0,0,12,300.9,115.5)" />
<use xlink:href="#f0_9n" transform="matrix(12,0,0,12,307.1,115.5)" />
<use xlink:href="#f0_7z" transform="matrix(12,0,0,12,316.6,115.5)" />
<use xlink:href="#f0_b5" transform="matrix(12,0,0,12,329.8,115.5)" />
<use xlink:href="#f0_am" transform="matrix(12,0,0,12,337.1,115.5)" />
<use xlink:href="#f0_a8" transform="matrix(12,0,0,12,346.7,115.5)" />
<use xlink:href="#f0_c6" transform="matrix(12,0,0,12,350.7,115.5)" />
<use xlink:href="#f0_bf" transform="matrix(12,0,0,12,360.2,115.5)" />
<use xlink:href="#f0_9q" transform="matrix(12,0,0,12,366.5,115.5)" />
<use xlink:href="#f0_am" transform="matrix(12,0,0,12,370.8,115.5)" />
<use xlink:href="#f0_af" transform="matrix(12,0,0,12,380.4,115.5)" />
</g>
<path fill-rule="evenodd" d="M52.8,142.7H442.3V120.3H52.8v22.4Z" class="g0_34" />
<g fill="#000000" >
<use xlink:href="#f0_b1" transform="matrix(12,0,0,12,55,137.9)" />
<use xlink:href="#f0_7z" transform="matrix(12,0,0,12,61.3,137.9)" />
<use xlink:href="#f0_9d" transform="matrix(12,0,0,12,70.4,137.9)" />
<use xlink:href="#f0_9q" transform="matrix(12,0,0,12,79.2,137.9)" />
<use xlink:href="#f0_am" transform="matrix(12,0,0,12,83.3,137.9)" />
<use xlink:href="#f0_af" transform="matrix(12,0,0,12,92.8,137.9)" />
<use xlink:href="#f0_nt" transform="matrix(12,0,0,12,102.3,137.9)" />
</g>
<path fill-rule="evenodd" d="M52.8,165H442.3V142.7H52.8V165Z" class="g0_34" />
<g fill="#000000" >
<use xlink:href="#f1_s7" transform="matrix(12,0,0,12,55,160.3)" />
<use xlink:href="#f1_c6" transform="matrix(12,0,0,12,67.5,160.3)" />
<use xlink:href="#f1_7z" transform="matrix(12,0,0,12,77.4,160.3)" />
<use xlink:href="#f1_b5" transform="matrix(12,0,0,12,86.6,160.3)" />
<use xlink:href="#f1_bf" transform="matrix(12,0,0,12,93.9,160.3)" />
<use xlink:href="#f1_9q" transform="matrix(12,0,0,12,100.1,160.3)" />
<use xlink:href="#f1_am" transform="matrix(12,0,0,12,104.5,160.3)" />
<use xlink:href="#f1_af" transform="matrix(12,0,0,12,114.4,160.3)" />
<use xlink:href="#f0_ns" transform="matrix(12,0,0,12,124.3,160.3)" />
<use xlink:href="#f0_2n" transform="matrix(12,0,0,12,133.1,160.3)" />
<use xlink:href="#f0_am" transform="matrix(12,0,0,12,141.9,160.3)" />
<use xlink:href="#f0_a8" transform="matrix(12,0,0,12,151.5,160.3)" />
<use xlink:href="#f0_ch" transform="matrix(12,0,0,12,155.5,160.3)" />
<use xlink:href="#f0_7z" transform="matrix(12,0,0,12,163.9,160.3)" />
<use xlink:href="#f0_bf" transform="matrix(12,0,0,12,177.1,160.3)" />
<use xlink:href="#f0_9n" transform="matrix(12,0,0,12,183.3,160.3)" />
<use xlink:href="#f0_7z" transform="matrix(12,0,0,12,192.8,160.3)" />
<use xlink:href="#f0_89" transform="matrix(12,0,0,12,206,160.3)" />
<use xlink:href="#f0_am" transform="matrix(12,0,0,12,211.9,160.3)" />
<use xlink:href="#f0_a8" transform="matrix(12,0,0,12,221.4,160.3)" />
<use xlink:href="#f0_a8" transform="matrix(12,0,0,12,225.8,160.3)" />
<use xlink:href="#f0_am" transform="matrix(12,0,0,12,229.8,160.3)" />
<use xlink:href="#f0_ci" transform="matrix(12,0,0,12,239.4,160.3)" />
<use xlink:href="#f0_9q" transform="matrix(12,0,0,12,252.6,160.3)" />
<use xlink:href="#f0_af" transform="matrix(12,0,0,12,256.6,160.3)" />
<use xlink:href="#f0_9d" transform="matrix(12,0,0,12,266.1,160.3)" />
<use xlink:href="#f0_b5" transform="matrix(12,0,0,12,278.9,160.3)" />
<use xlink:href="#f0_co" transform="matrix(12,0,0,12,286.3,160.3)" />
<use xlink:href="#f0_b5" transform="matrix(12,0,0,12,294.7,160.3)" />
<use xlink:href="#f0_bf" transform="matrix(12,0,0,12,302,160.3)" />
<use xlink:href="#f0_7z" transform="matrix(12,0,0,12,308.2,160.3)" />
<use xlink:href="#f0_ae" transform="matrix(12,0,0,12,317.3,160.3)" />
<use xlink:href="#f0_am" transform="matrix(12,0,0,12,336.1,160.3)" />
<use xlink:href="#f0_89" transform="matrix(12,0,0,12,345.6,160.3)" />
</g>
<path fill-rule="evenodd" d="M52.8,187.4H442.3V165H52.8v22.4Z" class="g0_34" />
<g fill="#000000" >
<use xlink:href="#f0_9q" transform="matrix(12,0,0,12,55,182.6)" />
<use xlink:href="#f0_af" transform="matrix(12,0,0,12,59.1,182.6)" />
<use xlink:href="#f0_7z" transform="matrix(12,0,0,12,68.6,182.6)" />
<use xlink:href="#f0_b0" transform="matrix(12,0,0,12,77.7,182.6)" />
<use xlink:href="#f0_c6" transform="matrix(12,0,0,12,87.3,182.6)" />
<use xlink:href="#f0_77" transform="matrix(12,0,0,12,96.8,182.6)" />
<use xlink:href="#f0_a8" transform="matrix(12,0,0,12,106,182.6)" />
<use xlink:href="#f0_9q" transform="matrix(12,0,0,12,110,182.6)" />
<use xlink:href="#f0_bf" transform="matrix(12,0,0,12,114.1,182.6)" />
<use xlink:href="#f2_9q" transform="matrix(12,0,0,12,120.3,182.6)" />
<use xlink:href="#f2_7z" transform="matrix(12,0,0,12,124.3,182.6)" />
<use xlink:href="#f2_b5" transform="matrix(12,0,0,12,133.5,182.6)" />
<use xlink:href="#f2_9d" transform="matrix(12,0,0,12,144.9,182.6)" />
<use xlink:href="#f2_b1" transform="matrix(12,0,0,12,153.6,182.6)" />
<use xlink:href="#f2_77" transform="matrix(12,0,0,12,159.9,182.6)" />
<use xlink:href="#f2_ay" transform="matrix(12,0,0,12,168.6,182.6)" />
<use xlink:href="#f2_9n" transform="matrix(12,0,0,12,178.2,182.6)" />
<use xlink:href="#f2_9q" transform="matrix(12,0,0,12,188.1,182.6)" />
<use xlink:href="#f2_7l" transform="matrix(12,0,0,12,192.1,182.6)" />
<use xlink:href="#f2_77" transform="matrix(12,0,0,12,199.8,182.6)" />
<use xlink:href="#f2_a8" transform="matrix(12,0,0,12,208.6,182.6)" />
<use xlink:href="#f2_a8" transform="matrix(12,0,0,12,213,182.6)" />
<use xlink:href="#f2_co" transform="matrix(12,0,0,12,217,182.6)" />
<use xlink:href="#f2_s2" transform="matrix(12,0,0,12,229.5,182.6)" />
<use xlink:href="#f2_cn" transform="matrix(12,0,0,12,238.6,182.6)" />
<use xlink:href="#f2_u6" transform="matrix(12,0,0,12,250.7,182.6)" />
<use xlink:href="#f2_s1" transform="matrix(12,0,0,12,264.3,182.6)" />
<use xlink:href="#f2_co" transform="matrix(12,0,0,12,273.4,182.6)" />
<use xlink:href="#f2_ug" transform="matrix(12,0,0,12,285.9,182.6)" />
<use xlink:href="#f2_s1" transform="matrix(12,0,0,12,299.1,182.6)" />
<use xlink:href="#f2_rx" transform="matrix(12,0,0,12,308.3,182.6)" />
<use xlink:href="#f2_nq" transform="matrix(12,0,0,12,317.8,182.6)" />
<use xlink:href="#f2_cn" transform="matrix(12,0,0,12,326.2,182.6)" />
<use xlink:href="#f2_ue" transform="matrix(12,0,0,12,338.3,182.6)" />
<use xlink:href="#f2_rz" transform="matrix(12,0,0,12,351.8,182.6)" />
<use xlink:href="#f0_pl" transform="matrix(12,0,0,12,365.4,182.6)" />
<use xlink:href="#f2_co" transform="matrix(12,0,0,12,390.3,182.6)" />
<use xlink:href="#f2_uh" transform="matrix(12,0,0,12,402.7,182.6)" />
<use xlink:href="#f2_s0" transform="matrix(12,0,0,12,416.3,182.6)" />
</g>
<path fill-rule="evenodd" d="M52.8,209.8H442.3V187.4H52.8v22.4Z" class="g0_34" />
<g fill="#000000" >
<use xlink:href="#f1_2n" transform="matrix(12,0,0,12,55,205)" />
<use xlink:href="#f1_am" transform="matrix(12,0,0,12,63.8,205)" />
<use xlink:href="#f1_a8" transform="matrix(12,0,0,12,73.7,205)" />
<use xlink:href="#f1_c6" transform="matrix(12,0,0,12,78.1,205)" />
<use xlink:href="#f1_bf" transform="matrix(12,0,0,12,88,205)" />
<use xlink:href="#f1_9q" transform="matrix(12,0,0,12,94.2,205)" />
<use xlink:href="#f1_am" transform="matrix(12,0,0,12,98.6,205)" />
<use xlink:href="#f1_af" transform="matrix(12,0,0,12,108.5,205)" />
<use xlink:href="#f0_ns" transform="matrix(12,0,0,12,118.5,205)" />
<use xlink:href="#f0_2n" transform="matrix(12,0,0,12,127.3,205)" />
<use xlink:href="#f0_bf" transform="matrix(12,0,0,12,135.7,205)" />
<use xlink:href="#f0_7z" transform="matrix(12,0,0,12,141.9,205)" />
<use xlink:href="#f0_ay" transform="matrix(12,0,0,12,151,205)" />
<use xlink:href="#f0_b5" transform="matrix(12,0,0,12,160.6,205)" />
</g>
<path fill-rule="evenodd" d="M45.8,232.2H442.4V209.8H45.8v22.4Z" class="g0_34" />
<g fill="#000000" >
<use xlink:href="#f0_ry" transform="matrix(12,0,0,12,48,227.4)" />
<use xlink:href="#f0_nt" transform="matrix(12,0,0,12,57.2,227.4)" />
<use xlink:href="#f0_ur" transform="matrix(12,0,0,12,75.6,227.4)" />
<use xlink:href="#f0_b1" transform="matrix(12,0,0,12,86.9,227.4)" />
<use xlink:href="#f0_77" transform="matrix(12,0,0,12,93.2,227.4)" />
<use xlink:href="#f0_ci" transform="matrix(12,0,0,12,101.9,227.4)" />
<use xlink:href="#f0_a8" transform="matrix(12,0,0,12,119.2,227.4)" />
<use xlink:href="#f0_9q" transform="matrix(12,0,0,12,123.2,227.4)" />
<use xlink:href="#f0_af" transform="matrix(12,0,0,12,127.2,227.4)" />
<use xlink:href="#f0_7z" transform="matrix(12,0,0,12,136.8,227.4)" />
<use xlink:href="#f0_b5" transform="matrix(12,0,0,12,145.9,227.4)" />
<use xlink:href="#f0_89" transform="matrix(12,0,0,12,157.3,227.4)" />
<use xlink:href="#f0_am" transform="matrix(12,0,0,12,163.1,227.4)" />
<use xlink:href="#f0_b1" transform="matrix(12,0,0,12,172.7,227.4)" />
<use xlink:href="#f0_uh" transform="matrix(12,0,0,12,183.3,227.4)" />
<use xlink:href="#f0_cn" transform="matrix(12,0,0,12,192.4,227.4)" />
<use xlink:href="#f0_u6" transform="matrix(12,0,0,12,204.5,227.4)" />
<use xlink:href="#f0_s1" transform="matrix(12,0,0,12,217.7,227.4)" />
<use xlink:href="#f0_co" transform="matrix(12,0,0,12,226.9,227.4)" />
<use xlink:href="#f0_ua" transform="matrix(12,0,0,12,239.3,227.4)" />
<use xlink:href="#f0_s1" transform="matrix(12,0,0,12,252.9,227.4)" />
<use xlink:href="#f0_ug" transform="matrix(12,0,0,12,262.1,227.4)" />
<use xlink:href="#f0_pl" transform="matrix(12,0,0,12,287.9,227.4)" />
<use xlink:href="#f0_cn" transform="matrix(12,0,0,12,312.9,227.4)" />
<use xlink:href="#f0_ua" transform="matrix(12,0,0,12,320.9,227.4)" />
<use xlink:href="#f0_rz" transform="matrix(12,0,0,12,334.5,227.4)" />
<use xlink:href="#f0_pl" transform="matrix(12,0,0,12,364.3,227.4)" />
<use xlink:href="#f0_co" transform="matrix(12,0,0,12,389.2,227.4)" />
<use xlink:href="#f0_ua" transform="matrix(12,0,0,12,401.6,227.4)" />
<use xlink:href="#f0_s0" transform="matrix(12,0,0,12,414.8,227.4)" />
</g>
<path fill-rule="evenodd" d="M45.8,254.5H442.4V232.2H45.8v22.3Z" class="g0_34" />
<g fill="#000000" >
<use xlink:href="#f0_rz" transform="matrix(12,0,0,12,48,249.8)" />
<use xlink:href="#f0_nt" transform="matrix(12,0,0,12,57.2,249.8)" />
<use xlink:href="#f0_us" transform="matrix(12,0,0,12,75.6,249.8)" />
<use xlink:href="#f0_9q" transform="matrix(12,0,0,12,84,249.8)" />
<use xlink:href="#f0_af" transform="matrix(12,0,0,12,88,249.8)" />
<use xlink:href="#f0_7v" transform="matrix(12,0,0,12,97.6,249.8)" />
<use xlink:href="#f0_bf" transform="matrix(12,0,0,12,111.1,249.8)" />
<use xlink:href="#f0_9n" transform="matrix(12,0,0,12,117.4,249.8)" />
<use xlink:href="#f0_7z" transform="matrix(12,0,0,12,126.9,249.8)" />
<use xlink:href="#f0_b5" transform="matrix(12,0,0,12,140.1,249.8)" />
<use xlink:href="#f0_am" transform="matrix(12,0,0,12,147.4,249.8)" />
<use xlink:href="#f0_a8" transform="matrix(12,0,0,12,157.3,249.8)" />
<use xlink:href="#f0_c6" transform="matrix(12,0,0,12,161.3,249.8)" />
<use xlink:href="#f0_bf" transform="matrix(12,0,0,12,170.8,249.8)" />
<use xlink:href="#f0_9q" transform="matrix(12,0,0,12,177.1,249.8)" />
<use xlink:href="#f0_am" transform="matrix(12,0,0,12,181.4,249.8)" />
<use xlink:href="#f0_af" transform="matrix(12,0,0,12,191,249.8)" />
<use xlink:href="#f0_b1" transform="matrix(12,0,0,12,204.9,249.8)" />
<use xlink:href="#f0_7z" transform="matrix(12,0,0,12,211.1,249.8)" />
<use xlink:href="#f0_9d" transform="matrix(12,0,0,12,220.3,249.8)" />
<use xlink:href="#f0_9q" transform="matrix(12,0,0,12,229.1,249.8)" />
<use xlink:href="#f0_am" transform="matrix(12,0,0,12,233.1,249.8)" />
<use xlink:href="#f0_af" transform="matrix(12,0,0,12,242.6,249.8)" />
<use xlink:href="#f0_89" transform="matrix(12,0,0,12,256.6,249.8)" />
<use xlink:href="#f0_am" transform="matrix(12,0,0,12,262.1,249.8)" />
<use xlink:href="#f0_b1" transform="matrix(12,0,0,12,271.9,249.8)" />
<use xlink:href="#f0_7z" transform="matrix(12,0,0,12,282.2,249.8)" />
<use xlink:href="#f0_77" transform="matrix(12,0,0,12,291.3,249.8)" />
<use xlink:href="#f0_7l" transform="matrix(12,0,0,12,300.2,249.8)" />
<use xlink:href="#f0_9n" transform="matrix(12,0,0,12,307.9,249.8)" />
<use xlink:href="#f0_am" transform="matrix(12,0,0,12,321.8,249.8)" />
<use xlink:href="#f0_89" transform="matrix(12,0,0,12,331.3,249.8)" />
<use xlink:href="#f0_bf" transform="matrix(12,0,0,12,340.8,249.8)" />
<use xlink:href="#f0_9n" transform="matrix(12,0,0,12,347.1,249.8)" />
<use xlink:href="#f0_7z" transform="matrix(12,0,0,12,356.6,249.8)" />
<use xlink:href="#f0_b5" transform="matrix(12,0,0,12,365.7,249.8)" />
<use xlink:href="#f0_7z" transform="matrix(12,0,0,12,373.1,249.8)" />
<use xlink:href="#f0_a8" transform="matrix(12,0,0,12,386.3,249.8)" />
<use xlink:href="#f0_9q" transform="matrix(12,0,0,12,390.6,249.8)" />
<use xlink:href="#f0_af" transform="matrix(12,0,0,12,394.7,249.8)" />
<use xlink:href="#f0_7z" transform="matrix(12,0,0,12,404.2,249.8)" />
<use xlink:href="#f0_77" transform="matrix(12,0,0,12,413.3,249.8)" />
<use xlink:href="#f0_b1" transform="matrix(12,0,0,12,422.2,249.8)" />
</g>
<path fill-rule="evenodd" d="M45.8,276.9H442.4V254.5H45.8v22.4Z" class="g0_34" />
<g fill="#000000" >
<use xlink:href="#f0_9q" transform="matrix(12,0,0,12,75.6,272.1)" />
<use xlink:href="#f0_af" transform="matrix(12,0,0,12,79.6,272.1)" />
<use xlink:href="#f0_7z" transform="matrix(12,0,0,12,89.1,272.1)" />
<use xlink:href="#f0_b0" transform="matrix(12,0,0,12,98.3,272.1)" />
<use xlink:href="#f0_c6" transform="matrix(12,0,0,12,107.8,272.1)" />
<use xlink:href="#f0_77" transform="matrix(12,0,0,12,117.4,272.1)" />
<use xlink:href="#f0_a8" transform="matrix(12,0,0,12,126.5,272.1)" />
<use xlink:href="#f0_9q" transform="matrix(12,0,0,12,130.6,272.1)" />
<use xlink:href="#f0_bf" transform="matrix(12,0,0,12,134.6,272.1)" />
<use xlink:href="#f0_9q" transform="matrix(12,0,0,12,140.8,272.1)" />
<use xlink:href="#f0_7z" transform="matrix(12,0,0,12,144.8,272.1)" />
<use xlink:href="#f0_b5" transform="matrix(12,0,0,12,154,272.1)" />
</g>
<path fill-rule="evenodd" d="M45.8,299.3H442.4V276.9H45.8v22.4Z" class="g0_34" />
<g fill="#000000" >
<use xlink:href="#f0_s0" transform="matrix(12,0,0,12,48,294.5)" />
<use xlink:href="#f0_nt" transform="matrix(12,0,0,12,57.2,294.5)" />
<use xlink:href="#f0_us" transform="matrix(12,0,0,12,75.6,294.5)" />
<use xlink:href="#f0_9q" transform="matrix(12,0,0,12,84,294.5)" />
<use xlink:href="#f0_af" transform="matrix(12,0,0,12,88,294.5)" />
<use xlink:href="#f0_7v" transform="matrix(12,0,0,12,97.6,294.5)" />
<use xlink:href="#f0_7l" transform="matrix(12,0,0,12,111.1,294.5)" />
<use xlink:href="#f0_am" transform="matrix(12,0,0,12,119.2,294.5)" />
<use xlink:href="#f0_ae" transform="matrix(12,0,0,12,128.7,294.5)" />
<use xlink:href="#f0_ae" transform="matrix(12,0,0,12,143.4,294.5)" />
<use xlink:href="#f0_am" transform="matrix(12,0,0,12,158,294.5)" />
<use xlink:href="#f0_af" transform="matrix(12,0,0,12,167.6,294.5)" />
<use xlink:href="#f0_b1" transform="matrix(12,0,0,12,181.5,294.5)" />
<use xlink:href="#f0_7z" transform="matrix(12,0,0,12,187.7,294.5)" />
<use xlink:href="#f0_9d" transform="matrix(12,0,0,12,196.9,294.5)" />
<use xlink:href="#f0_9q" transform="matrix(12,0,0,12,205.7,294.5)" />
<use xlink:href="#f0_am" transform="matrix(12,0,0,12,209.7,294.5)" />
<use xlink:href="#f0_af" transform="matrix(12,0,0,12,219.6,294.5)" />
<use xlink:href="#f0_nt" transform="matrix(12,0,0,12,229.1,294.5)" />
<use xlink:href="#f0_uq" transform="matrix(12,0,0,12,237.9,294.5)" />
<use xlink:href="#f0_am" transform="matrix(12,0,0,12,247.8,294.5)" />
<use xlink:href="#f0_ae" transform="matrix(12,0,0,12,257.3,294.5)" />
<use xlink:href="#f0_ae" transform="matrix(12,0,0,12,272,294.5)" />
<use xlink:href="#f0_am" transform="matrix(12,0,0,12,286.6,294.5)" />
<use xlink:href="#f0_af" transform="matrix(12,0,0,12,296.2,294.5)" />
<use xlink:href="#f0_b1" transform="matrix(12,0,0,12,310.1,294.5)" />
<use xlink:href="#f0_7z" transform="matrix(12,0,0,12,316.3,294.5)" />
<use xlink:href="#f0_9d" transform="matrix(12,0,0,12,325.5,294.5)" />
<use xlink:href="#f0_9q" transform="matrix(12,0,0,12,334.3,294.5)" />
<use xlink:href="#f0_am" transform="matrix(12,0,0,12,338.3,294.5)" />
<use xlink:href="#f0_af" transform="matrix(12,0,0,12,347.9,294.5)" />
<use xlink:href="#f0_9q" transform="matrix(12,0,0,12,361.8,294.5)" />
<use xlink:href="#f0_b5" transform="matrix(12,0,0,12,365.8,294.5)" />
<use xlink:href="#f0_bf" transform="matrix(12,0,0,12,377.2,294.5)" />
<use xlink:href="#f0_9n" transform="matrix(12,0,0,12,383.4,294.5)" />
<use xlink:href="#f0_7z" transform="matrix(12,0,0,12,392.9,294.5)" />
</g>
<path fill-rule="evenodd" d="M45.8,321.7H442.4V299.3H45.8v22.4Z" class="g0_34" />
<g fill="#000000" >
<use xlink:href="#f0_b5" transform="matrix(12,0,0,12,75.6,316.9)" />
<use xlink:href="#f0_am" transform="matrix(12,0,0,12,82.9,316.9)" />
<use xlink:href="#f0_a8" transform="matrix(12,0,0,12,92.4,316.9)" />
<use xlink:href="#f0_c6" transform="matrix(12,0,0,12,96.5,316.9)" />
<use xlink:href="#f0_bf" transform="matrix(12,0,0,12,106,316.9)" />
<use xlink:href="#f0_9q" transform="matrix(12,0,0,12,112.2,316.9)" />
<use xlink:href="#f0_am" transform="matrix(12,0,0,12,116.2,316.9)" />
<use xlink:href="#f0_af" transform="matrix(12,0,0,12,126.1,316.9)" />
<use xlink:href="#f0_b1" transform="matrix(12,0,0,12,139.7,316.9)" />
<use xlink:href="#f0_7z" transform="matrix(12,0,0,12,145.9,316.9)" />
<use xlink:href="#f0_9d" transform="matrix(12,0,0,12,155,316.9)" />
<use xlink:href="#f0_9q" transform="matrix(12,0,0,12,163.9,316.9)" />
<use xlink:href="#f0_am" transform="matrix(12,0,0,12,167.9,316.9)" />
<use xlink:href="#f0_af" transform="matrix(12,0,0,12,177.8,316.9)" />
<use xlink:href="#f0_nt" transform="matrix(12,0,0,12,187.3,316.9)" />
</g>
<path fill-rule="evenodd" d="M73.4,344H442.3V321.7H73.4V344Z" class="g0_34" />
<path fill-rule="evenodd" d="M52.8,366.4H442.3V344H52.8v22.4Z" class="g0_34" />
<path fill-rule="evenodd" d="M52.8,671.6H442.3V366.4H52.8V671.6Z" class="g0_34" />
<path fill-rule="evenodd" d="M52.8,693.9H442.3V671.6H52.8v22.3Z" class="g0_34" />
<image preserveAspectRatio="none" x="55" y="366" width="410" height="305" xlink:href="img/1.png" />
<path fill-rule="evenodd" d="M37.4,38.1h.7v-.7h-.7v.7Z" class="g1_34" />
<path fill-rule="evenodd" d="M37.4,38.1h.7v-.7h-.7v.7Z" class="g1_34" />
<path fill-rule="evenodd" d="M897.2,38.1h.7v-.7h-.7v.7Z" class="g1_34" />
<path fill-rule="evenodd" d="M897.2,38.1h.7v-.7h-.7v.7Z" class="g1_34" />
<path fill-rule="evenodd" d="M897.9,1172.2h.8V38.1h-.8V1172.2Z" class="g2_34" />
<path fill-rule="evenodd" d="M37.4,1172.9h.7v-.7h-.7v.7Z" class="g1_34" />
<path fill-rule="evenodd" d="M37.4,1172.9h.7v-.7h-.7v.7Z" class="g1_34" />
<path fill-rule="evenodd" d="M38.1,1173.7H897.2v-.8H38.1v.8Z" class="g2_34" />
<path fill-rule="evenodd" d="M897.9,1173.7h.8v-1.5h-.8v1.5Z" class="g2_34" />
<path fill-rule="evenodd" d="M897.2,1173.7h1.5v-.8h-1.5v.8Z" class="g2_34" />
<path fill-rule="evenodd" d="M897.2,1172.9h.7v-.7h-.7v.7Z" class="g1_34" />
<path fill-rule="evenodd" d="M897.2,1172.9h.7v-.7h-.7v.7Z" class="g1_34" />
<g fill="#000000" >
<use xlink:href="#f3_n" transform="matrix(8,0,0,8,818.2,1149.4)" />
</g>
<defs>
<path d="M192,-4c0,0,-18,0,-30,2c0,0,-13,2,-20,3c0,0,-8,3,-11,8c0,0,-3,4,-3,10V946c0,0,0,6,3,11c0,0,4,4,12,7c0,0,7,2,20,4c0,0,12,2,29,2c0,0,19,0,31,-2c0,0,13,-2,20,-4c0,0,7,-3,10,-7c0,0,3,-5,3,-11V19c0,0,0,-6,-3,-10c0,0,-3,-5,-10,-8c0,0,-7,-1,-20,-3c0,0,-12,-2,-31,-2Z" 
id="f0_1c"
transform="scale(0.001,-0.001)" />

<path d="M176,-4c0,0,-18,0,-30,2c0,0,-12,1,-19,3c0,0,-7,3,-10,7c0,0,-3,4,-3,10V690c0,0,0,6,3,10c0,0,2,4,9,7c0,0,6,4,17,5c0,0,10,1,27,1c0,0,17,0,28,-1c0,0,10,-1,16,-5c0,0,6,-3,9,-7c0,0,3,-4,3,-10V601c0,0,56,64,112,94c0,0,57,30,114,30c0,0,67,0,113,-23c0,0,46,-23,74,-61c0,0,29,-38,41,-89c0,0,12,-52,12,-123V18c0,0,0,-6,-3,-10c0,0,-3,-4,-9,-7c0,0,-7,-2,-19,-3c0,0,-12,-2,-30,-2c0,0,-19,0,-30,2c0,0,-12,1,-19,3c0,0,-7,3,-10,7c0,0,-3,4,-3,10V412c0,0,0,58,-9,93c0,0,-9,35,-26,61c0,0,-17,25,-44,38c0,0,-27,14,-63,14c0,0,-46,0,-93,-33c0,0,-46,-33,-97,-96V18c0,0,0,-6,-3,-10c0,0,-2,-4,-9,-7c0,0,-7,-2,-19,-3c0,0,-12,-2,-30,-2Z" 
id="f0_af"
transform="scale(0.001,-0.001)" />

<path d="M367,-13c0,0,-73,0,-129,23c0,0,-56,24,-93,70c0,0,-38,46,-58,112c0,0,-20,67,-20,154c0,0,0,99,25,171c0,0,24,71,66,116c0,0,42,46,99,68c0,0,58,22,124,22c0,0,32,0,62,-6c0,0,31,-6,56,-16c0,0,25,-10,45,-22c0,0,20,-13,29,-22c0,0,9,-9,12,-14c0,0,3,-5,6,-13c0,0,2,-7,3,-16c0,0,0,-9,0,-22c0,0,0,-29,-6,-41c0,0,-7,-11,-17,-11c0,0,-11,0,-25,12c0,0,-15,12,-37,27c0,0,-23,15,-55,28c0,0,-31,12,-75,12c0,0,-88,0,-136,-68c0,0,-47,-68,-47,-198c0,0,0,-65,12,-114c0,0,12,-49,36,-81c0,0,24,-33,59,-49c0,0,35,-16,79,-16c0,0,43,0,75,13c0,0,32,14,56,30c0,0,23,16,39,29c0,0,16,13,25,13c0,0,5,0,9,-3c0,0,4,-3,7,-10c0,0,2,-7,3,-18c0,0,1,-11,1,-26c0,0,0,-12,0,-22c0,0,-1,-9,-3,-15c0,0,-2,-7,-4,-12c0,0,-3,-4,-12,-14c0,0,-10,-9,-32,-23c0,0,-22,-14,-50,-24C496,11,468,0,435,-6c0,0,-33,-7,-68,-7Z" 
id="f0_7l"
transform="scale(0.001,-0.001)" />

<path d="M321,82c0,0,48,0,90,25c0,0,41,24,87,75V325H392c0,0,-50,0,-88,-9c0,0,-37,-9,-62,-25c0,0,-24,-17,-36,-41c0,0,-11,-23,-11,-54c0,0,0,-52,33,-83c0,0,33,-31,93,-31ZM301,-13c0,0,-53,0,-96,13c0,0,-43,14,-73,40c0,0,-30,26,-47,64c0,0,-17,38,-17,87c0,0,0,56,24,98c0,0,23,42,66,69c0,0,43,28,106,42c0,0,63,14,141,14h93v52c0,0,0,39,-9,69c0,0,-8,30,-26,50c0,0,-18,20,-47,30c0,0,-30,10,-72,10c0,0,-46,0,-82,-11c0,0,-36,-11,-63,-24c0,0,-27,-13,-46,-24c0,0,-18,-11,-27,-11c0,0,-6,0,-10,3c0,0,-5,3,-8,9c0,0,-3,6,-5,16c0,0,-1,9,-1,20c0,0,0,19,2,30c0,0,3,11,13,20c0,0,10,10,35,23c0,0,24,13,56,24c0,0,32,10,70,17c0,0,38,8,77,8c0,0,73,0,123,-17c0,0,51,-16,82,-48c0,0,32,-32,46,-79c0,0,14,-47,14,-110V18c0,0,0,-9,-6,-14c0,0,-6,-4,-16,-6c0,0,-11,-2,-31,-2c0,0,-19,0,-31,2c0,0,-12,2,-17,6c0,0,-5,5,-5,13V85c0,0,-44,-47,-98,-73c0,0,-54,-25,-115,-25Z" 
id="f0_77"
transform="scale(0.001,-0.001)" />

<path d="M272,-13c0,0,-35,0,-68,6c0,0,-32,6,-58,13c0,0,-26,9,-44,18c0,0,-17,10,-26,17c0,0,-8,8,-12,21c0,0,-3,14,-3,37c0,0,0,14,1,24c0,0,2,9,4,15c0,0,2,6,6,9c0,0,4,3,10,3c0,0,8,0,24,-11c0,0,16,-10,39,-22c0,0,24,-12,56,-22c0,0,32,-10,74,-10c0,0,31,0,56,7c0,0,26,6,44,19c0,0,19,14,29,34c0,0,10,20,10,47c0,0,0,29,-14,48c0,0,-15,19,-39,34c0,0,-24,15,-53,27c0,0,-30,11,-62,24c0,0,-32,13,-62,29c0,0,-30,16,-54,39c0,0,-24,23,-38,55c0,0,-15,32,-15,77c0,0,0,40,16,76c0,0,15,36,45,63c0,0,31,28,77,44c0,0,46,17,107,17c0,0,27,0,54,-5c0,0,26,-5,48,-11c0,0,22,-7,37,-15c0,0,15,-8,23,-14c0,0,8,-6,11,-11c0,0,2,-4,3,-10c0,0,1,-5,2,-14c0,0,2,-8,2,-20c0,0,0,-12,-2,-22c0,0,-1,-9,-3,-15c0,0,-3,-6,-7,-8c0,0,-3,-3,-8,-3c0,0,-7,0,-19,8c0,0,-13,8,-33,18c0,0,-20,9,-47,17c0,0,-28,9,-63,9c0,0,-31,0,-55,-7c0,0,-24,-7,-39,-20c0,0,-15,-13,-23,-31c0,0,-8,-18,-8,-39c0,0,0,-29,15,-49c0,0,15,-20,39,-35c0,0,24,-15,54,-27c0,0,31,-11,62,-24c0,0,32,-13,63,-29c0,0,31,-15,55,-38c0,0,24,-22,38,-53c0,0,15,-32,15,-75c0,0,0,-51,-19,-92c0,0,-19,-40,-54,-68C463,42,428,15,379,1c0,0,-48,-14,-107,-14Z" 
id="f0_b5"
transform="scale(0.001,-0.001)" />

<path d="M564,420c0,0,2,98,-43,153c0,0,-46,56,-134,56c0,0,-46,0,-80,-18c0,0,-35,-17,-58,-45c0,0,-23,-29,-36,-67c0,0,-12,-37,-14,-79ZM405,-13c0,0,-83,0,-145,22c0,0,-62,24,-105,69c0,0,-42,46,-64,114c0,0,-22,69,-22,160c0,0,0,87,23,156c0,0,22,69,64,117c0,0,43,48,102,74c0,0,60,26,134,26c0,0,79,0,135,-26c0,0,55,-25,91,-68c0,0,36,-43,53,-101c0,0,16,-58,16,-123V384c0,0,0,-29,-14,-41c0,0,-15,-13,-33,-13H199c0,0,0,-56,11,-100c0,0,12,-45,38,-77c0,0,26,-33,68,-50c0,0,41,-17,102,-17c0,0,48,0,85,8c0,0,37,8,65,17c0,0,27,10,44,18c0,0,18,8,27,8c0,0,5,0,9,-3c0,0,4,-2,7,-8c0,0,2,-5,3,-14c0,0,1,-9,1,-23c0,0,0,-9,-1,-16c0,0,0,-8,-2,-13c0,0,-1,-6,-3,-10c0,0,-3,-5,-7,-9c0,0,-4,-4,-24,-13c0,0,-20,-10,-53,-18c0,0,-32,-9,-74,-16c0,0,-42,-7,-90,-7Z" 
id="f0_7z"
transform="scale(0.001,-0.001)" />

<path d="M401,90c0,0,54,0,93,19c0,0,40,20,65,55c0,0,26,35,37,84c0,0,12,48,12,106c0,0,0,55,-10,104c0,0,-10,48,-33,85c0,0,-23,36,-62,58c0,0,-40,21,-99,21c0,0,-54,0,-93,-20c0,0,-39,-19,-65,-54c0,0,-25,-36,-37,-85c0,0,-12,-48,-12,-106c0,0,0,-55,10,-103c0,0,10,-49,33,-85c0,0,24,-36,63,-58c0,0,39,-21,98,-21ZM395,-13c0,0,-82,0,-144,24c0,0,-61,25,-102,72c0,0,-41,47,-61,114c0,0,-21,67,-21,152c0,0,0,82,22,151c0,0,21,69,64,119c0,0,43,50,107,78c0,0,64,28,150,28c0,0,82,0,144,-25c0,0,61,-25,102,-72c0,0,41,-47,62,-114c0,0,20,-67,20,-151c0,0,0,-83,-21,-152c0,0,-22,-69,-65,-119C652,92,609,42,545,14c0,0,-65,-27,-150,-27Z" 
id="f0_am"
transform="scale(0.001,-0.001)" />

<path d="M209,-4c0,0,-18,0,-30,2c0,0,-12,1,-19,3c0,0,-7,3,-10,7c0,0,-3,4,-3,10V607H52c0,0,-12,0,-18,12c0,0,-6,12,-6,39c0,0,0,14,2,24c0,0,1,10,4,16c0,0,3,7,8,9c0,0,4,3,10,3h95v69c0,0,0,71,13,121c0,0,13,50,40,82c0,0,27,33,67,48c0,0,41,15,96,15c0,0,26,0,51,-5c0,0,25,-4,38,-10c0,0,13,-6,18,-10c0,0,4,-5,7,-12c0,0,3,-7,5,-17c0,0,1,-10,1,-24c0,0,0,-15,-2,-23c0,0,-1,-9,-3,-14c0,0,-2,-5,-5,-7c0,0,-3,-2,-8,-2c0,0,-5,0,-13,3c0,0,-7,4,-19,8c0,0,-11,4,-26,7c0,0,-15,4,-36,4c0,0,-27,0,-47,-9c0,0,-19,-9,-31,-28c0,0,-12,-19,-17,-50c0,0,-5,-30,-5,-73V710H421c0,0,6,0,10,-3c0,0,4,-2,7,-9c0,0,4,-6,6,-16c0,0,2,-10,2,-24c0,0,0,-27,-7,-39c0,0,-7,-12,-18,-12H271V18c0,0,0,-6,-3,-10c0,0,-3,-4,-11,-7c0,0,-7,-2,-19,-3c0,0,-12,-2,-29,-2Z" 
id="f0_89"
transform="scale(0.001,-0.001)" />

<path d="M176,-4c0,0,-18,0,-30,2c0,0,-12,1,-19,3c0,0,-7,3,-10,7c0,0,-3,4,-3,10V690c0,0,0,6,3,10c0,0,2,4,9,7c0,0,6,4,17,5c0,0,10,1,27,1c0,0,17,0,28,-1c0,0,10,-1,16,-5c0,0,6,-3,9,-7c0,0,3,-4,3,-10V601c0,0,56,64,110,94c0,0,53,30,108,30c0,0,42,0,75,-10c0,0,33,-10,58,-28c0,0,26,-17,44,-42c0,0,18,-24,30,-55c0,0,33,37,63,63c0,0,31,26,59,41c0,0,28,16,54,23c0,0,27,8,53,8c0,0,65,0,109,-23c0,0,44,-23,71,-61c0,0,28,-38,39,-89c0,0,12,-52,12,-108V18c0,0,0,-6,-3,-10c0,0,-3,-4,-10,-7c0,0,-7,-2,-19,-3c0,0,-12,-2,-29,-2c0,0,-19,0,-31,2c0,0,-12,1,-19,3c0,0,-7,3,-10,7c0,0,-3,4,-3,10V427c0,0,0,43,-8,78c0,0,-7,35,-23,61c0,0,-17,25,-42,38c0,0,-25,14,-60,14c0,0,-42,0,-85,-33c0,0,-43,-33,-94,-96V18c0,0,0,-6,-3,-10c0,0,-3,-4,-11,-7c0,0,-7,-2,-19,-3c0,0,-11,-2,-29,-2c0,0,-18,0,-30,2c0,0,-12,1,-19,3c0,0,-7,3,-10,7c0,0,-3,4,-3,10V427c0,0,0,43,-8,78c0,0,-8,35,-24,61c0,0,-17,25,-42,38c0,0,-25,14,-59,14c0,0,-43,0,-86,-33c0,0,-44,-33,-95,-96V18c0,0,0,-6,-3,-10c0,0,-2,-4,-9,-7c0,0,-7,-2,-19,-3c0,0,-12,-2,-30,-2Z" 
id="f0_ae"
transform="scale(0.001,-0.001)" />

<path d="M351,-13c0,0,-67,0,-113,22c0,0,-46,22,-75,60c0,0,-28,39,-40,90c0,0,-13,51,-13,124V690c0,0,0,6,3,10c0,0,3,4,10,7c0,0,8,4,20,5c0,0,11,1,29,1c0,0,18,0,30,-1c0,0,12,-1,19,-5c0,0,7,-3,10,-7c0,0,3,-4,3,-10V299c0,0,0,-59,9,-94c0,0,8,-36,26,-61c0,0,18,-24,44,-38c0,0,27,-14,63,-14c0,0,46,0,92,33c0,0,46,32,98,95V690c0,0,0,6,2,10c0,0,3,4,10,7c0,0,8,4,19,5c0,0,12,1,30,1c0,0,18,0,30,-1c0,0,12,-1,19,-5c0,0,7,-3,10,-7c0,0,3,-4,3,-10V18c0,0,0,-6,-2,-10c0,0,-3,-4,-10,-7c0,0,-6,-2,-17,-3c0,0,-11,-2,-27,-2c0,0,-17,0,-28,2c0,0,-10,1,-17,3c0,0,-6,3,-8,7c0,0,-3,4,-3,10v89c0,0,-57,-63,-113,-92c0,0,-56,-28,-113,-28Z" 
id="f0_c6"
transform="scale(0.001,-0.001)" />

<path d="M176,-4c0,0,-18,0,-30,2c0,0,-12,1,-19,3c0,0,-7,3,-10,7c0,0,-3,4,-3,10v997c0,0,0,6,3,11c0,0,3,4,10,7c0,0,7,3,19,5c0,0,12,1,30,1c0,0,18,0,30,-1c0,0,12,-2,19,-5c0,0,7,-3,9,-7c0,0,3,-5,3,-11V18c0,0,0,-6,-3,-10c0,0,-2,-4,-9,-7c0,0,-7,-2,-19,-3c0,0,-12,-2,-30,-2Z" 
id="f0_a8"
transform="scale(0.001,-0.001)" />

<path d="M339,-13c0,0,-52,0,-90,13c0,0,-37,14,-61,42c0,0,-24,28,-34,71c0,0,-11,43,-11,101V607H49c0,0,-11,0,-18,12c0,0,-7,12,-7,39c0,0,0,14,2,24c0,0,2,10,5,16c0,0,3,7,8,9c0,0,5,3,11,3h93V870c0,0,0,5,2,9c0,0,3,5,10,8c0,0,7,4,19,5c0,0,12,2,30,2c0,0,19,0,31,-2c0,0,11,-1,18,-5c0,0,7,-3,10,-8c0,0,3,-4,3,-9V710H438c0,0,6,0,10,-3c0,0,5,-2,8,-9c0,0,4,-6,5,-16c0,0,1,-10,1,-24c0,0,0,-27,-6,-39c0,0,-7,-12,-18,-12H266V232c0,0,0,-69,20,-105c0,0,21,-35,74,-35c0,0,17,0,30,3c0,0,14,4,24,7c0,0,10,4,18,7c0,0,7,4,13,4c0,0,4,0,7,-2c0,0,4,-2,6,-7c0,0,2,-5,3,-14c0,0,1,-9,1,-23c0,0,0,-22,-2,-34c0,0,-3,-13,-9,-19c0,0,-6,-6,-18,-11c0,0,-12,-4,-28,-8c0,0,-15,-3,-32,-5c0,0,-17,-3,-34,-3Z" 
id="f0_bf"
transform="scale(0.001,-0.001)" />

<path d="M176,-4c0,0,-18,0,-30,2c0,0,-12,1,-19,3c0,0,-7,3,-10,7c0,0,-3,4,-3,10V690c0,0,0,5,3,9c0,0,3,5,10,8c0,0,7,3,19,4c0,0,12,2,30,2c0,0,18,0,30,-2c0,0,12,-1,19,-4c0,0,7,-3,9,-8c0,0,3,-4,3,-9V18c0,0,0,-6,-3,-10c0,0,-2,-4,-9,-7c0,0,-7,-2,-19,-3c0,0,-12,-2,-30,-2Zm-1,846c0,0,-43,0,-59,15c0,0,-16,15,-16,58c0,0,0,43,16,59c0,0,17,16,61,16c0,0,43,0,59,-16c0,0,16,-15,16,-58c0,0,0,-43,-16,-58c0,0,-17,-16,-61,-16Z" 
id="f0_9q"
transform="scale(0.001,-0.001)" />

<path d="M429,92c0,0,47,0,80,22c0,0,33,23,54,60c0,0,20,38,30,84c0,0,10,46,10,93c0,0,0,52,-8,100c0,0,-8,48,-27,86c0,0,-19,37,-51,60c0,0,-32,22,-80,22c0,0,-24,0,-47,-7c0,0,-23,-7,-47,-23c0,0,-24,-15,-50,-40c0,0,-26,-25,-56,-62V220c0,0,51,-62,97,-95c0,0,45,-33,95,-33ZM176,-271c0,0,-18,0,-30,2c0,0,-12,1,-19,4c0,0,-7,3,-10,8c0,0,-3,4,-3,10V690c0,0,0,6,3,10c0,0,2,5,9,8c0,0,6,3,17,4c0,0,10,1,25,1c0,0,16,0,26,-1c0,0,10,-1,17,-4c0,0,6,-3,9,-7c0,0,3,-4,3,-11V601c0,0,30,31,59,54c0,0,28,23,57,39c0,0,28,15,59,23c0,0,30,8,63,8c0,0,74,0,125,-29c0,0,52,-28,84,-77c0,0,32,-50,47,-115c0,0,15,-65,15,-139c0,0,0,-88,-19,-158c0,0,-19,-70,-56,-119c0,0,-37,-49,-91,-75c0,0,-55,-26,-125,-26c0,0,-30,0,-55,6c0,0,-25,6,-50,18c0,0,-24,13,-48,32c0,0,-24,19,-51,46V-247c0,0,0,-6,-3,-10c0,0,-2,-5,-9,-8c0,0,-7,-3,-19,-4c0,0,-12,-2,-30,-2Z" 
id="f0_ay"
transform="scale(0.001,-0.001)" />

<path d="M176,-4c0,0,-18,0,-30,2c0,0,-12,1,-19,3c0,0,-7,3,-10,7c0,0,-3,4,-3,10V690c0,0,0,6,3,10c0,0,2,4,9,7c0,0,6,4,17,5c0,0,10,1,27,1c0,0,17,0,28,-1c0,0,10,-1,16,-5c0,0,6,-3,9,-7c0,0,3,-4,3,-10V592c0,0,27,41,51,66c0,0,25,26,46,41c0,0,22,14,43,20c0,0,21,6,43,6c0,0,10,0,22,-2c0,0,12,-1,26,-4c0,0,13,-3,24,-6c0,0,11,-4,15,-8c0,0,5,-4,6,-7c0,0,2,-3,3,-9c0,0,1,-5,1,-15c0,0,0,-10,0,-27c0,0,0,-16,0,-28c0,0,-1,-11,-3,-17c0,0,-2,-6,-6,-10c0,0,-3,-3,-9,-3c0,0,-6,0,-15,3c0,0,-8,4,-19,7c0,0,-11,3,-24,6c0,0,-14,3,-29,3c0,0,-19,0,-37,-7c0,0,-18,-8,-37,-25c0,0,-20,-18,-42,-46c0,0,-21,-29,-48,-70V18c0,0,0,-6,-3,-10c0,0,-2,-4,-9,-7c0,0,-7,-2,-19,-3c0,0,-12,-2,-30,-2Z" 
id="f0_b1"
transform="scale(0.001,-0.001)" />

<path d="M366,92c0,0,25,0,48,7c0,0,22,6,46,22c0,0,24,16,50,41c0,0,26,24,56,61V492c0,0,-51,62,-97,94c0,0,-47,33,-98,33c0,0,-47,0,-79,-22c0,0,-33,-23,-54,-59c0,0,-20,-37,-30,-83c0,0,-9,-47,-9,-94c0,0,0,-52,8,-100c0,0,8,-49,27,-86c0,0,19,-38,52,-60c0,0,32,-23,80,-23ZM627,-271c0,0,-18,0,-30,2c0,0,-11,1,-19,4c0,0,-7,3,-10,8c0,0,-2,4,-2,10V97c0,0,-31,-31,-59,-52c0,0,-27,-21,-54,-34c0,0,-27,-12,-54,-18c0,0,-28,-6,-57,-6c0,0,-73,0,-124,28c0,0,-52,29,-84,78c0,0,-33,49,-48,115c0,0,-15,66,-15,139c0,0,0,86,19,156c0,0,19,70,56,119c0,0,37,50,91,76c0,0,54,27,125,27c0,0,30,0,56,-7c0,0,26,-6,52,-20c0,0,25,-14,52,-36c0,0,26,-22,58,-52v80c0,0,0,7,3,11c0,0,3,4,9,7c0,0,7,3,18,4c0,0,10,1,26,1c0,0,15,0,25,-1c0,0,10,-1,17,-4c0,0,6,-3,9,-8c0,0,2,-4,2,-10V-247c0,0,0,-6,-3,-10c0,0,-3,-5,-10,-8c0,0,-7,-3,-19,-4c0,0,-12,-2,-30,-2Z" 
id="f0_b0"
transform="scale(0.001,-0.001)" />

<path d="M69,-215c0,0,-12,0,-21,1c0,0,-8,1,-12,4c0,0,-4,2,-4,7c0,0,-1,4,2,10L134,11v96c0,0,0,20,4,32c0,0,4,12,13,18c0,0,9,6,22,8c0,0,13,2,33,2c0,0,19,0,32,-2c0,0,13,-2,22,-8c0,0,9,-6,13,-18c0,0,4,-12,4,-32c0,0,0,-23,-2,-43c0,0,-3,-19,-8,-36c0,0,-5,-17,-14,-33c0,0,-8,-17,-21,-36L130,-194c0,0,-4,-5,-9,-9c0,0,-5,-4,-12,-7c0,0,-7,-3,-16,-4c0,0,-9,-1,-24,-1Z" 
id="f0_nq"
transform="scale(0.001,-0.001)" />

<path d="M176,-4c0,0,-18,0,-30,2c0,0,-12,1,-19,3c0,0,-7,3,-10,7c0,0,-3,4,-3,10v997c0,0,0,6,3,11c0,0,3,4,10,7c0,0,7,3,19,5c0,0,12,1,30,1c0,0,18,0,30,-1c0,0,12,-2,19,-5c0,0,7,-3,9,-7c0,0,3,-5,3,-10V614c0,0,53,56,107,83c0,0,54,28,108,28c0,0,67,0,113,-23c0,0,46,-23,74,-61c0,0,29,-38,41,-89c0,0,12,-52,12,-124V18c0,0,0,-6,-3,-10c0,0,-3,-4,-9,-7c0,0,-7,-2,-19,-3c0,0,-12,-2,-30,-2c0,0,-19,0,-30,2c0,0,-12,1,-19,3c0,0,-7,3,-10,7c0,0,-3,4,-3,10V412c0,0,0,58,-9,93c0,0,-9,35,-26,61c0,0,-17,25,-44,38c0,0,-27,14,-63,14c0,0,-46,0,-93,-33c0,0,-46,-33,-97,-96V18c0,0,0,-6,-3,-10c0,0,-2,-4,-9,-7c0,0,-7,-2,-19,-3c0,0,-12,-2,-30,-2Z" 
id="f0_9n"
transform="scale(0.001,-0.001)" />

<path d="M346,-177c0,0,56,0,94,11c0,0,37,11,60,28c0,0,24,18,34,41c0,0,10,23,10,49c0,0,0,43,-36,65c0,0,-35,23,-95,25L239,48c0,0,-24,-19,-39,-35c0,0,-15,-16,-24,-31c0,0,-9,-16,-12,-30c0,0,-4,-15,-4,-31c0,0,0,-48,49,-73c0,0,50,-25,137,-25Zm-6,512c0,0,36,0,63,12c0,0,27,12,44,32c0,0,18,21,26,48c0,0,9,27,9,56c0,0,0,69,-38,107c0,0,-37,39,-107,39c0,0,-35,0,-62,-12c0,0,-26,-12,-44,-33c0,0,-17,-21,-26,-48c0,0,-8,-28,-8,-58c0,0,0,-66,37,-104c0,0,38,-39,106,-39Zm0,-606c0,0,-81,0,-138,14c0,0,-57,14,-94,38c0,0,-36,24,-52,57c0,0,-17,33,-17,72c0,0,0,24,6,47c0,0,6,24,18,43c0,0,13,21,31,40c0,0,18,19,42,38c0,0,-36,19,-54,47c0,0,-17,28,-17,61c0,0,0,45,18,81c0,0,19,36,46,64c0,0,-23,28,-36,62c0,0,-14,35,-14,84c0,0,0,58,20,104c0,0,19,45,53,77c0,0,35,31,83,48c0,0,48,17,105,17c0,0,30,0,57,-4c0,0,26,-3,49,-9H649c0,0,13,0,19,-12c0,0,7,-13,7,-38c0,0,0,-26,-7,-37c0,0,-7,-12,-19,-12H553c0,0,26,-27,37,-60c0,0,10,-32,10,-68c0,0,0,-58,-18,-103c0,0,-19,-45,-54,-76c0,0,-34,-31,-82,-47c0,0,-48,-16,-106,-16c0,0,-41,0,-78,10c0,0,-37,11,-57,28c0,0,-14,-14,-22,-31c0,0,-9,-17,-9,-39c0,0,0,-27,24,-44c0,0,25,-17,65,-18l175,-8c0,0,50,-1,92,-14c0,0,41,-12,72,-35c0,0,31,-22,48,-55c0,0,17,-34,17,-76c0,0,0,-47,-20,-88c0,0,-19,-42,-59,-74c0,0,-40,-31,-102,-50c0,0,-61,-18,-146,-18Z" 
id="f0_9d"
transform="scale(0.001,-0.001)" />

<path d="M192,-6c0,0,-45,0,-62,16c0,0,-18,18,-18,69c0,0,0,53,18,71c0,0,18,17,64,17c0,0,45,0,62,-17c0,0,17,-17,17,-69c0,0,0,-53,-18,-70c0,0,-17,-17,-63,-17Z" 
id="f0_nt"
transform="scale(0.001,-0.001)" />

<path d="M514,145c0,0,72,0,121,27c0,0,48,26,78,73c0,0,30,46,42,108c0,0,13,62,13,132c0,0,0,75,-12,137c0,0,-12,62,-41,106c0,0,-29,45,-76,69c0,0,-48,24,-120,24c0,0,-72,0,-120,-27c0,0,-49,-26,-79,-72c0,0,-29,-45,-42,-106c0,0,-12,-61,-12,-128c0,0,0,-80,12,-143c0,0,12,-64,40,-109c0,0,28,-44,76,-68c0,0,48,-23,120,-23Zm520,-319c0,0,-24,0,-64,13c0,0,-40,14,-87,39c0,0,-46,25,-94,61c0,0,-48,36,-89,82C700,21,666,6,617,-5c0,0,-49,-12,-109,-12c0,0,-113,0,-196,28c0,0,-84,29,-140,89c0,0,-56,61,-84,154c0,0,-28,94,-28,223c0,0,0,117,29,211c0,0,30,94,89,159c0,0,59,65,146,101c0,0,87,35,202,35c0,0,108,0,192,-29c0,0,83,-30,140,-90c0,0,57,-60,86,-152c0,0,30,-91,30,-217c0,0,0,-65,-9,-122c0,0,-8,-57,-25,-105c0,0,-16,-49,-40,-89c0,0,-24,-41,-55,-71c0,0,47,-41,83,-61c0,0,35,-21,60,-32c0,0,24,-10,38,-15c0,0,15,-4,23,-12c0,0,8,-8,12,-27c0,0,4,-19,4,-52c0,0,0,-27,-3,-43c0,0,-2,-17,-7,-26c0,0,-4,-9,-10,-11c0,0,-5,-3,-11,-3Z" 
id="f1_s7"
transform="scale(0.001,-0.001)" />

<path d="M334,-17c0,0,-69,0,-115,22c0,0,-47,22,-76,61c0,0,-28,39,-41,90c0,0,-12,51,-12,127V691c0,0,0,7,4,13c0,0,4,5,15,9c0,0,11,4,29,6c0,0,19,2,45,2c0,0,28,0,46,-2c0,0,18,-2,29,-6c0,0,11,-4,15,-9c0,0,5,-6,5,-13V314c0,0,0,-52,6,-79c0,0,7,-28,21,-48c0,0,14,-20,35,-30c0,0,21,-11,49,-11c0,0,36,0,72,26c0,0,36,26,77,76V691c0,0,0,7,4,13c0,0,4,5,15,9c0,0,11,4,29,6c0,0,18,2,45,2c0,0,28,0,46,-2c0,0,18,-2,28,-6c0,0,11,-4,15,-9c0,0,5,-6,5,-13V25c0,0,0,-8,-4,-13c0,0,-4,-6,-13,-9c0,0,-10,-3,-25,-5c0,0,-15,-2,-38,-2c0,0,-25,0,-40,2c0,0,-16,2,-25,5c0,0,-9,3,-12,9c0,0,-4,5,-4,13v77c0,0,-55,-60,-112,-90c0,0,-57,-29,-118,-29Z" 
id="f1_c6"
transform="scale(0.001,-0.001)" />

<path d="M526,431c0,0,2,79,-32,124c0,0,-34,45,-105,45c0,0,-35,0,-62,-13c0,0,-26,-13,-44,-36c0,0,-17,-23,-27,-54c0,0,-9,-31,-11,-66ZM410,-17c0,0,-88,0,-155,22c0,0,-67,22,-112,68c0,0,-44,45,-66,115c0,0,-22,69,-22,162c0,0,0,89,23,161c0,0,23,71,67,120c0,0,44,50,107,76c0,0,63,26,142,26c0,0,84,0,143,-24c0,0,59,-25,97,-69c0,0,38,-43,56,-103c0,0,18,-60,18,-130V377c0,0,0,-34,-15,-51c0,0,-16,-16,-43,-16H245c0,0,0,-43,10,-77c0,0,11,-35,33,-59c0,0,22,-24,56,-37c0,0,35,-13,83,-13c0,0,50,0,87,7c0,0,37,8,65,16c0,0,27,9,45,16c0,0,18,7,29,7c0,0,6,0,11,-2c0,0,4,-3,7,-10c0,0,3,-7,4,-19c0,0,2,-12,2,-31c0,0,0,-16,-1,-28c0,0,-1,-12,-2,-20c0,0,-2,-8,-5,-14c0,0,-3,-5,-8,-10c0,0,-5,-6,-26,-15c0,0,-22,-9,-55,-17c0,0,-34,-8,-77,-14c0,0,-43,-7,-93,-7Z" 
id="f1_7z"
transform="scale(0.001,-0.001)" />

<path d="M275,-17c0,0,-37,0,-71,6c0,0,-34,6,-61,13c0,0,-27,9,-45,18c0,0,-18,9,-26,17c0,0,-8,8,-13,25c0,0,-4,17,-4,49c0,0,0,22,1,35c0,0,2,13,5,21c0,0,3,8,7,10c0,0,5,3,11,3c0,0,9,0,25,-9c0,0,16,-10,40,-21c0,0,24,-11,55,-21c0,0,32,-10,72,-10c0,0,26,0,46,5c0,0,19,6,34,15c0,0,14,10,22,25c0,0,7,15,7,34c0,0,0,23,-13,39c0,0,-14,16,-37,28c0,0,-23,11,-52,22c0,0,-28,10,-58,23c0,0,-31,13,-59,29c0,0,-29,17,-52,41c0,0,-23,23,-37,57c0,0,-13,34,-13,81c0,0,0,47,18,87c0,0,19,40,54,69c0,0,35,28,86,44c0,0,50,15,113,15c0,0,31,0,61,-4c0,0,29,-5,53,-11c0,0,24,-7,40,-15c0,0,17,-7,24,-13c0,0,7,-6,10,-11c0,0,3,-6,4,-14c0,0,2,-7,3,-19c0,0,1,-12,1,-29c0,0,0,-20,-1,-33c0,0,-1,-12,-4,-20c0,0,-2,-7,-7,-10c0,0,-4,-3,-10,-3c0,0,-7,0,-21,8c0,0,-14,8,-36,17c0,0,-21,9,-49,17c0,0,-28,7,-64,7c0,0,-25,0,-44,-5c0,0,-19,-5,-30,-15c0,0,-12,-9,-18,-22c0,0,-6,-14,-6,-28c0,0,0,-24,14,-39c0,0,14,-16,37,-28c0,0,23,-12,53,-22c0,0,29,-11,59,-23c0,0,31,-12,60,-29c0,0,30,-16,53,-40c0,0,23,-24,37,-57c0,0,14,-33,14,-79c0,0,0,-57,-21,-100c0,0,-21,-43,-60,-72c0,0,-39,-29,-92,-43c0,0,-53,-15,-115,-15Z" 
id="f1_b5"
transform="scale(0.001,-0.001)" />

<path d="M344,-14c0,0,-56,0,-97,14c0,0,-42,14,-69,43c0,0,-26,29,-39,74c0,0,-13,45,-13,106V563H47c0,0,-15,0,-22,18c0,0,-7,17,-7,58c0,0,0,22,1,37c0,0,2,15,6,24c0,0,4,8,9,12c0,0,6,4,13,4h79V864c0,0,0,8,4,14c0,0,4,6,15,10c0,0,11,4,29,6c0,0,19,2,46,2c0,0,27,0,46,-2c0,0,18,-2,28,-6c0,0,11,-4,15,-10c0,0,5,-6,5,-14V716H459c0,0,7,0,13,-4c0,0,6,-4,9,-12c0,0,4,-9,6,-24c0,0,2,-15,2,-37c0,0,0,-41,-8,-58c0,0,-7,-18,-21,-18H314V251c0,0,0,-54,17,-81c0,0,17,-27,61,-27c0,0,15,0,27,2c0,0,12,3,22,6c0,0,9,4,15,6c0,0,7,3,12,3c0,0,4,0,9,-3c0,0,4,-2,6,-10c0,0,2,-8,4,-21c0,0,2,-14,2,-35c0,0,0,-33,-4,-50c0,0,-4,-18,-11,-25c0,0,-7,-7,-20,-12c0,0,-13,-5,-31,-9c0,0,-17,-4,-38,-6c0,0,-20,-3,-41,-3Z" 
id="f1_bf"
transform="scale(0.001,-0.001)" />

<path d="M188,-4c0,0,-28,0,-46,2c0,0,-18,2,-28,5c0,0,-11,3,-16,9c0,0,-4,5,-4,13V689c0,0,0,8,4,13c0,0,5,6,16,10c0,0,10,4,28,6c0,0,18,3,46,3c0,0,27,0,45,-3c0,0,18,-2,29,-6c0,0,11,-4,15,-10c0,0,5,-5,5,-13V25c0,0,0,-8,-5,-13c0,0,-4,-6,-15,-9c0,0,-11,-3,-29,-5c0,0,-18,-2,-45,-2Zm-1,820c0,0,-63,0,-85,21c0,0,-22,21,-22,75c0,0,0,57,23,79c0,0,23,22,86,22c0,0,63,0,85,-21c0,0,22,-21,22,-76c0,0,0,-56,-23,-78c0,0,-23,-22,-86,-22Z" 
id="f1_9q"
transform="scale(0.001,-0.001)" />

<path d="M409,132c0,0,42,0,73,15c0,0,32,16,52,45c0,0,20,29,29,70c0,0,10,42,10,95c0,0,0,49,-8,91c0,0,-8,41,-26,72c0,0,-19,30,-50,48c0,0,-30,17,-77,17c0,0,-42,0,-73,-16c0,0,-31,-15,-51,-44c0,0,-21,-30,-31,-71c0,0,-10,-42,-10,-95c0,0,0,-49,9,-91c0,0,8,-41,26,-72c0,0,18,-30,49,-47c0,0,32,-17,78,-17ZM402,-17c0,0,-89,0,-154,24c0,0,-66,25,-109,72c0,0,-43,47,-64,115c0,0,-21,69,-21,157c0,0,0,85,23,156c0,0,22,70,68,121c0,0,45,50,113,78c0,0,69,27,160,27c0,0,90,0,155,-24c0,0,66,-24,109,-71c0,0,43,-47,64,-116c0,0,21,-69,21,-157c0,0,0,-86,-23,-156c0,0,-22,-70,-68,-121C676,88,631,38,562,10c0,0,-68,-27,-160,-27Z" 
id="f1_am"
transform="scale(0.001,-0.001)" />

<path d="M188,-4c0,0,-28,0,-46,2c0,0,-18,2,-28,5c0,0,-11,3,-16,9c0,0,-4,5,-4,13V691c0,0,0,7,4,13c0,0,3,5,13,9c0,0,10,4,25,6c0,0,15,2,38,2c0,0,24,0,40,-2c0,0,15,-2,24,-6c0,0,9,-4,12,-9c0,0,4,-6,4,-13V614c0,0,55,60,112,89c0,0,57,30,119,30c0,0,68,0,115,-22c0,0,47,-22,75,-61c0,0,29,-38,42,-90c0,0,12,-51,12,-124V25c0,0,0,-8,-4,-13c0,0,-5,-6,-15,-9c0,0,-10,-3,-29,-5c0,0,-18,-2,-45,-2c0,0,-28,0,-46,2c0,0,-18,2,-29,5c0,0,-10,3,-15,9c0,0,-4,6,-4,13V405c0,0,0,49,-7,76c0,0,-7,28,-21,48c0,0,-13,19,-35,30c0,0,-21,11,-49,11c0,0,-36,0,-72,-26c0,0,-37,-26,-76,-76V25c0,0,0,-7,-5,-13c0,0,-4,-6,-15,-9c0,0,-11,-3,-29,-5c0,0,-18,-2,-45,-2Z" 
id="f1_af"
transform="scale(0.001,-0.001)" />

<path d="M218,-6c0,0,-24,0,-39,4c0,0,-15,3,-24,13c0,0,-8,10,-12,27c0,0,-3,16,-3,41c0,0,0,24,3,41c0,0,4,17,12,27c0,0,9,9,24,14c0,0,15,4,39,4c0,0,23,0,38,-4c0,0,15,-5,24,-14c0,0,10,-10,13,-27c0,0,3,-17,3,-41c0,0,0,-25,-3,-41c0,0,-3,-17,-13,-27c0,0,-9,-10,-24,-13c0,0,-15,-4,-38,-4Zm0,518c0,0,-24,0,-39,4c0,0,-15,5,-24,15c0,0,-8,10,-12,26c0,0,-3,16,-3,40c0,0,0,26,3,42c0,0,4,17,12,27c0,0,9,10,24,14c0,0,15,4,39,4c0,0,23,0,38,-4c0,0,15,-4,24,-14c0,0,10,-10,13,-27c0,0,3,-16,3,-42c0,0,0,-24,-3,-40c0,0,-3,-16,-13,-26c0,0,-9,-10,-24,-15c0,0,-15,-4,-38,-4Z" 
id="f0_ns"
transform="scale(0.001,-0.001)" />

<path d="M318,-13c0,0,-48,0,-90,8c0,0,-41,8,-73,19c0,0,-33,12,-55,25c0,0,-22,13,-30,22c0,0,-9,8,-13,22c0,0,-4,14,-4,37c0,0,0,17,1,27c0,0,2,11,5,18c0,0,3,7,7,9c0,0,5,3,11,3c0,0,10,0,29,-13c0,0,19,-12,49,-27c0,0,30,-15,72,-28c0,0,42,-13,97,-13c0,0,42,0,77,11c0,0,34,11,59,32c0,0,25,20,39,50c0,0,13,30,13,68c0,0,0,41,-19,70c0,0,-18,29,-49,51c0,0,-30,22,-70,41c0,0,-39,18,-80,37c0,0,-41,19,-80,42c0,0,-39,23,-69,54c0,0,-31,32,-50,74c0,0,-19,42,-19,101c0,0,0,60,22,108c0,0,22,47,61,79c0,0,40,32,94,49c0,0,54,17,116,17c0,0,32,0,65,-6c0,0,32,-5,61,-15c0,0,29,-9,51,-20c0,0,22,-12,30,-19c0,0,7,-7,9,-11c0,0,2,-4,4,-10c0,0,1,-7,2,-16c0,0,1,-9,1,-23c0,0,0,-13,-2,-24c0,0,-1,-10,-3,-17c0,0,-2,-8,-6,-11c0,0,-4,-3,-10,-3c0,0,-8,0,-25,10c0,0,-18,11,-43,24c0,0,-26,13,-60,23c0,0,-35,11,-78,11c0,0,-40,0,-70,-11c0,0,-30,-10,-49,-28c0,0,-20,-18,-29,-43c0,0,-10,-25,-10,-52c0,0,0,-40,18,-70c0,0,19,-29,50,-51c0,0,31,-22,71,-41c0,0,39,-19,80,-38c0,0,41,-19,81,-41c0,0,39,-23,70,-54c0,0,31,-31,50,-73c0,0,19,-42,19,-100c0,0,0,-68,-25,-121c0,0,-25,-53,-69,-89C552,61,508,24,448,5c0,0,-60,-18,-130,-18Z" 
id="f0_2n"
transform="scale(0.001,-0.001)" />

<path d="M346,-4c0,0,-23,0,-38,2c0,0,-15,1,-24,3c0,0,-9,3,-15,8c0,0,-5,6,-8,13L33,660c0,0,-3,9,-5,15c0,0,-2,7,-2,11c0,0,0,3,0,5c0,0,0,6,3,11c0,0,3,4,10,7c0,0,7,2,18,3c0,0,12,1,29,1c0,0,22,0,35,-1c0,0,13,-1,20,-4c0,0,7,-3,10,-8c0,0,4,-4,7,-11L347,135l3,-9l2,9L540,689c0,0,1,7,5,11c0,0,3,5,11,8c0,0,7,3,19,4c0,0,12,1,32,1c0,0,18,0,29,-1c0,0,11,-1,17,-4c0,0,7,-3,9,-7c0,0,3,-4,3,-10c0,0,0,-3,-1,-6c0,0,0,-4,-1,-7c0,0,0,-4,-2,-8c0,0,-1,-5,-2,-10L430,22c0,0,-3,-8,-8,-13c0,0,-5,-6,-15,-9c0,0,-9,-2,-24,-3c0,0,-15,-1,-37,-1Z" 
id="f0_ch"
transform="scale(0.001,-0.001)" />

<path d="M324,-4c0,0,-23,0,-37,2c0,0,-15,1,-24,3c0,0,-9,3,-14,8c0,0,-4,6,-7,13L46,660c0,0,-4,11,-5,18c0,0,-2,8,-2,13c0,0,0,7,3,11c0,0,3,4,10,7c0,0,8,2,19,3c0,0,12,1,30,1c0,0,20,0,33,-1c0,0,13,-1,20,-4c0,0,6,-3,9,-8c0,0,3,-4,5,-11L330,136l2,-7l1,7L482,689c0,0,1,7,5,11c0,0,3,5,10,8c0,0,6,3,18,4c0,0,12,1,31,1c0,0,18,0,29,-1c0,0,12,-1,18,-4c0,0,7,-3,10,-7c0,0,3,-5,5,-11L768,136l1,-7l1,7L930,689c0,0,1,7,5,11c0,0,3,5,10,8c0,0,7,3,20,4c0,0,12,1,31,1c0,0,18,0,29,-1c0,0,11,-1,17,-4c0,0,6,-3,9,-6c0,0,3,-4,3,-11c0,0,0,-5,-2,-13c0,0,-1,-7,-5,-18L849,22c0,0,-2,-8,-7,-13c0,0,-5,-6,-13,-9c0,0,-9,-2,-24,-3c0,0,-15,-1,-37,-1c0,0,-23,0,-39,2c0,0,-15,1,-25,3c0,0,-9,3,-14,8c0,0,-4,6,-6,13L543,510l-2,6l-2,-6L409,22c0,0,-3,-8,-7,-13c0,0,-5,-6,-15,-9c0,0,-10,-2,-25,-3c0,0,-15,-1,-38,-1Z" 
id="f0_ci"
transform="scale(0.001,-0.001)" />

<path d="M252,-271c0,0,-19,0,-31,2c0,0,-12,2,-18,6c0,0,-7,5,-8,12c0,0,0,8,4,18L292,0c0,0,-7,3,-13,10c0,0,-6,6,-8,14L31,665c0,0,-6,16,-6,25c0,0,0,9,6,14c0,0,6,5,20,7c0,0,13,2,36,2c0,0,22,0,35,-1c0,0,12,-1,20,-4c0,0,7,-3,11,-9c0,0,3,-6,7,-15L351,145h3L539,687c0,0,4,14,10,18c0,0,7,4,19,6c0,0,13,2,37,2c0,0,21,0,34,-2c0,0,14,-2,20,-7c0,0,6,-5,6,-14c0,0,0,-9,-4,-23L420,0L330,-246c0,0,-4,-12,-22,-18c0,0,-19,-7,-56,-7Z" 
id="f0_co"
transform="scale(0.001,-0.001)" />

<path d="M176,-4c0,0,-18,0,-30,2c0,0,-12,1,-19,3c0,0,-7,3,-10,7c0,0,-3,4,-3,10V690c0,0,0,5,3,9c0,0,3,5,10,8c0,0,7,3,19,4c0,0,12,2,30,2c0,0,18,0,30,-2c0,0,12,-1,19,-4c0,0,7,-3,9,-8c0,0,3,-4,3,-9V18c0,0,0,-6,-3,-10c0,0,-2,-4,-9,-7c0,0,-7,-2,-19,-3c0,0,-12,-2,-30,-2Zm-1,846c0,0,-43,0,-59,15c0,0,-16,15,-16,58c0,0,0,43,16,59c0,0,17,16,61,16c0,0,43,0,59,-16c0,0,16,-15,16,-58c0,0,0,-43,-16,-58c0,0,-17,-16,-61,-16Z" 
id="f2_9q"
transform="scale(0.001,-0.001)" />

<path d="M564,420c0,0,2,98,-43,153c0,0,-46,56,-134,56c0,0,-46,0,-80,-18c0,0,-35,-17,-58,-45c0,0,-23,-29,-36,-67c0,0,-12,-37,-14,-79ZM405,-13c0,0,-83,0,-145,22c0,0,-62,24,-105,69c0,0,-42,46,-64,114c0,0,-22,69,-22,160c0,0,0,87,23,156c0,0,22,69,64,117c0,0,43,48,102,74c0,0,60,26,134,26c0,0,79,0,135,-26c0,0,55,-25,91,-68c0,0,36,-43,53,-101c0,0,16,-58,16,-123V384c0,0,0,-29,-14,-41c0,0,-15,-13,-33,-13H199c0,0,0,-56,11,-100c0,0,12,-45,38,-77c0,0,26,-33,68,-50c0,0,41,-17,102,-17c0,0,48,0,85,8c0,0,37,8,65,17c0,0,27,10,44,18c0,0,18,8,27,8c0,0,5,0,9,-3c0,0,4,-2,7,-8c0,0,2,-5,3,-14c0,0,1,-9,1,-23c0,0,0,-9,-1,-16c0,0,0,-8,-2,-13c0,0,-1,-6,-3,-10c0,0,-3,-5,-7,-9c0,0,-4,-4,-24,-13c0,0,-20,-10,-53,-18c0,0,-32,-9,-74,-16c0,0,-42,-7,-90,-7Z" 
id="f2_7z"
transform="scale(0.001,-0.001)" />

<path d="M272,-13c0,0,-35,0,-68,6c0,0,-32,6,-58,13c0,0,-26,9,-44,18c0,0,-17,10,-26,17c0,0,-8,8,-12,21c0,0,-3,14,-3,37c0,0,0,14,1,24c0,0,2,9,4,15c0,0,2,6,6,9c0,0,4,3,10,3c0,0,8,0,24,-11c0,0,16,-10,39,-22c0,0,24,-12,56,-22c0,0,32,-10,74,-10c0,0,31,0,56,7c0,0,26,6,44,19c0,0,19,14,29,34c0,0,10,20,10,47c0,0,0,29,-14,48c0,0,-15,19,-39,34c0,0,-24,15,-53,27c0,0,-30,11,-62,24c0,0,-32,13,-62,29c0,0,-30,16,-54,39c0,0,-24,23,-38,55c0,0,-15,32,-15,77c0,0,0,40,16,76c0,0,15,36,45,63c0,0,31,28,77,44c0,0,46,17,107,17c0,0,27,0,54,-5c0,0,26,-5,48,-11c0,0,22,-7,37,-15c0,0,15,-8,23,-14c0,0,8,-6,11,-11c0,0,2,-4,3,-10c0,0,1,-5,2,-14c0,0,2,-8,2,-20c0,0,0,-12,-2,-22c0,0,-1,-9,-3,-15c0,0,-3,-6,-7,-8c0,0,-3,-3,-8,-3c0,0,-7,0,-19,8c0,0,-13,8,-33,18c0,0,-20,9,-47,17c0,0,-28,9,-63,9c0,0,-31,0,-55,-7c0,0,-24,-7,-39,-20c0,0,-15,-13,-23,-31c0,0,-8,-18,-8,-39c0,0,0,-29,15,-49c0,0,15,-20,39,-35c0,0,24,-15,54,-27c0,0,31,-11,62,-24c0,0,32,-13,63,-29c0,0,31,-15,55,-38c0,0,24,-22,38,-53c0,0,15,-32,15,-75c0,0,0,-51,-19,-92c0,0,-19,-40,-54,-68C463,42,428,15,379,1c0,0,-48,-14,-107,-14Z" 
id="f2_b5"
transform="scale(0.001,-0.001)" />

<path d="M346,-177c0,0,56,0,94,11c0,0,37,11,60,28c0,0,24,18,34,41c0,0,10,23,10,49c0,0,0,43,-36,65c0,0,-35,23,-95,25L239,48c0,0,-24,-19,-39,-35c0,0,-15,-16,-24,-31c0,0,-9,-16,-12,-30c0,0,-4,-15,-4,-31c0,0,0,-48,49,-73c0,0,50,-25,137,-25Zm-6,512c0,0,36,0,63,12c0,0,27,12,44,32c0,0,18,21,26,48c0,0,9,27,9,56c0,0,0,69,-38,107c0,0,-37,39,-107,39c0,0,-35,0,-62,-12c0,0,-26,-12,-44,-33c0,0,-17,-21,-26,-48c0,0,-8,-28,-8,-58c0,0,0,-66,37,-104c0,0,38,-39,106,-39Zm0,-606c0,0,-81,0,-138,14c0,0,-57,14,-94,38c0,0,-36,24,-52,57c0,0,-17,33,-17,72c0,0,0,24,6,47c0,0,6,24,18,43c0,0,13,21,31,40c0,0,18,19,42,38c0,0,-36,19,-54,47c0,0,-17,28,-17,61c0,0,0,45,18,81c0,0,19,36,46,64c0,0,-23,28,-36,62c0,0,-14,35,-14,84c0,0,0,58,20,104c0,0,19,45,53,77c0,0,35,31,83,48c0,0,48,17,105,17c0,0,30,0,57,-4c0,0,26,-3,49,-9H649c0,0,13,0,19,-12c0,0,7,-13,7,-38c0,0,0,-26,-7,-37c0,0,-7,-12,-19,-12H553c0,0,26,-27,37,-60c0,0,10,-32,10,-68c0,0,0,-58,-18,-103c0,0,-19,-45,-54,-76c0,0,-34,-31,-82,-47c0,0,-48,-16,-106,-16c0,0,-41,0,-78,10c0,0,-37,11,-57,28c0,0,-14,-14,-22,-31c0,0,-9,-17,-9,-39c0,0,0,-27,24,-44c0,0,25,-17,65,-18l175,-8c0,0,50,-1,92,-14c0,0,41,-12,72,-35c0,0,31,-22,48,-55c0,0,17,-34,17,-76c0,0,0,-47,-20,-88c0,0,-19,-42,-59,-74c0,0,-40,-31,-102,-50c0,0,-61,-18,-146,-18Z" 
id="f2_9d"
transform="scale(0.001,-0.001)" />

<path d="M176,-4c0,0,-18,0,-30,2c0,0,-12,1,-19,3c0,0,-7,3,-10,7c0,0,-3,4,-3,10V690c0,0,0,6,3,10c0,0,2,4,9,7c0,0,6,4,17,5c0,0,10,1,27,1c0,0,17,0,28,-1c0,0,10,-1,16,-5c0,0,6,-3,9,-7c0,0,3,-4,3,-10V592c0,0,27,41,51,66c0,0,25,26,46,41c0,0,22,14,43,20c0,0,21,6,43,6c0,0,10,0,22,-2c0,0,12,-1,26,-4c0,0,13,-3,24,-6c0,0,11,-4,15,-8c0,0,5,-4,6,-7c0,0,2,-3,3,-9c0,0,1,-5,1,-15c0,0,0,-10,0,-27c0,0,0,-16,0,-28c0,0,-1,-11,-3,-17c0,0,-2,-6,-6,-10c0,0,-3,-3,-9,-3c0,0,-6,0,-15,3c0,0,-8,4,-19,7c0,0,-11,3,-24,6c0,0,-14,3,-29,3c0,0,-19,0,-37,-7c0,0,-18,-8,-37,-25c0,0,-20,-18,-42,-46c0,0,-21,-29,-48,-70V18c0,0,0,-6,-3,-10c0,0,-2,-4,-9,-7c0,0,-7,-2,-19,-3c0,0,-12,-2,-30,-2Z" 
id="f2_b1"
transform="scale(0.001,-0.001)" />

<path d="M321,82c0,0,48,0,90,25c0,0,41,24,87,75V325H392c0,0,-50,0,-88,-9c0,0,-37,-9,-62,-25c0,0,-24,-17,-36,-41c0,0,-11,-23,-11,-54c0,0,0,-52,33,-83c0,0,33,-31,93,-31ZM301,-13c0,0,-53,0,-96,13c0,0,-43,14,-73,40c0,0,-30,26,-47,64c0,0,-17,38,-17,87c0,0,0,56,24,98c0,0,23,42,66,69c0,0,43,28,106,42c0,0,63,14,141,14h93v52c0,0,0,39,-9,69c0,0,-8,30,-26,50c0,0,-18,20,-47,30c0,0,-30,10,-72,10c0,0,-46,0,-82,-11c0,0,-36,-11,-63,-24c0,0,-27,-13,-46,-24c0,0,-18,-11,-27,-11c0,0,-6,0,-10,3c0,0,-5,3,-8,9c0,0,-3,6,-5,16c0,0,-1,9,-1,20c0,0,0,19,2,30c0,0,3,11,13,20c0,0,10,10,35,23c0,0,24,13,56,24c0,0,32,10,70,17c0,0,38,8,77,8c0,0,73,0,123,-17c0,0,51,-16,82,-48c0,0,32,-32,46,-79c0,0,14,-47,14,-110V18c0,0,0,-9,-6,-14c0,0,-6,-4,-16,-6c0,0,-11,-2,-31,-2c0,0,-19,0,-31,2c0,0,-12,2,-17,6c0,0,-5,5,-5,13V85c0,0,-44,-47,-98,-73c0,0,-54,-25,-115,-25Z" 
id="f2_77"
transform="scale(0.001,-0.001)" />

<path d="M429,92c0,0,47,0,80,22c0,0,33,23,54,60c0,0,20,38,30,84c0,0,10,46,10,93c0,0,0,52,-8,100c0,0,-8,48,-27,86c0,0,-19,37,-51,60c0,0,-32,22,-80,22c0,0,-24,0,-47,-7c0,0,-23,-7,-47,-23c0,0,-24,-15,-50,-40c0,0,-26,-25,-56,-62V220c0,0,51,-62,97,-95c0,0,45,-33,95,-33ZM176,-271c0,0,-18,0,-30,2c0,0,-12,1,-19,4c0,0,-7,3,-10,8c0,0,-3,4,-3,10V690c0,0,0,6,3,10c0,0,2,5,9,8c0,0,6,3,17,4c0,0,10,1,25,1c0,0,16,0,26,-1c0,0,10,-1,17,-4c0,0,6,-3,9,-7c0,0,3,-4,3,-11V601c0,0,30,31,59,54c0,0,28,23,57,39c0,0,28,15,59,23c0,0,30,8,63,8c0,0,74,0,125,-29c0,0,52,-28,84,-77c0,0,32,-50,47,-115c0,0,15,-65,15,-139c0,0,0,-88,-19,-158c0,0,-19,-70,-56,-119c0,0,-37,-49,-91,-75c0,0,-55,-26,-125,-26c0,0,-30,0,-55,6c0,0,-25,6,-50,18c0,0,-24,13,-48,32c0,0,-24,19,-51,46V-247c0,0,0,-6,-3,-10c0,0,-2,-5,-9,-8c0,0,-7,-3,-19,-4c0,0,-12,-2,-30,-2Z" 
id="f2_ay"
transform="scale(0.001,-0.001)" />

<path d="M176,-4c0,0,-18,0,-30,2c0,0,-12,1,-19,3c0,0,-7,3,-10,7c0,0,-3,4,-3,10v997c0,0,0,6,3,11c0,0,3,4,10,7c0,0,7,3,19,5c0,0,12,1,30,1c0,0,18,0,30,-1c0,0,12,-2,19,-5c0,0,7,-3,9,-7c0,0,3,-5,3,-10V614c0,0,53,56,107,83c0,0,54,28,108,28c0,0,67,0,113,-23c0,0,46,-23,74,-61c0,0,29,-38,41,-89c0,0,12,-52,12,-124V18c0,0,0,-6,-3,-10c0,0,-3,-4,-9,-7c0,0,-7,-2,-19,-3c0,0,-12,-2,-30,-2c0,0,-19,0,-30,2c0,0,-12,1,-19,3c0,0,-7,3,-10,7c0,0,-3,4,-3,10V412c0,0,0,58,-9,93c0,0,-9,35,-26,61c0,0,-17,25,-44,38c0,0,-27,14,-63,14c0,0,-46,0,-93,-33c0,0,-46,-33,-97,-96V18c0,0,0,-6,-3,-10c0,0,-2,-4,-9,-7c0,0,-7,-2,-19,-3c0,0,-12,-2,-30,-2Z" 
id="f2_9n"
transform="scale(0.001,-0.001)" />

<path d="M367,-13c0,0,-73,0,-129,23c0,0,-56,24,-93,70c0,0,-38,46,-58,112c0,0,-20,67,-20,154c0,0,0,99,25,171c0,0,24,71,66,116c0,0,42,46,99,68c0,0,58,22,124,22c0,0,32,0,62,-6c0,0,31,-6,56,-16c0,0,25,-10,45,-22c0,0,20,-13,29,-22c0,0,9,-9,12,-14c0,0,3,-5,6,-13c0,0,2,-7,3,-16c0,0,0,-9,0,-22c0,0,0,-29,-6,-41c0,0,-7,-11,-17,-11c0,0,-11,0,-25,12c0,0,-15,12,-37,27c0,0,-23,15,-55,28c0,0,-31,12,-75,12c0,0,-88,0,-136,-68c0,0,-47,-68,-47,-198c0,0,0,-65,12,-114c0,0,12,-49,36,-81c0,0,24,-33,59,-49c0,0,35,-16,79,-16c0,0,43,0,75,13c0,0,32,14,56,30c0,0,23,16,39,29c0,0,16,13,25,13c0,0,5,0,9,-3c0,0,4,-3,7,-10c0,0,2,-7,3,-18c0,0,1,-11,1,-26c0,0,0,-12,0,-22c0,0,-1,-9,-3,-15c0,0,-2,-7,-4,-12c0,0,-3,-4,-12,-14c0,0,-10,-9,-32,-23c0,0,-22,-14,-50,-24C496,11,468,0,435,-6c0,0,-33,-7,-68,-7Z" 
id="f2_7l"
transform="scale(0.001,-0.001)" />

<path d="M176,-4c0,0,-18,0,-30,2c0,0,-12,1,-19,3c0,0,-7,3,-10,7c0,0,-3,4,-3,10v997c0,0,0,6,3,11c0,0,3,4,10,7c0,0,7,3,19,5c0,0,12,1,30,1c0,0,18,0,30,-1c0,0,12,-2,19,-5c0,0,7,-3,9,-7c0,0,3,-5,3,-11V18c0,0,0,-6,-3,-10c0,0,-2,-4,-9,-7c0,0,-7,-2,-19,-3c0,0,-12,-2,-30,-2Z" 
id="f2_a8"
transform="scale(0.001,-0.001)" />

<path d="M252,-271c0,0,-19,0,-31,2c0,0,-12,2,-18,6c0,0,-7,5,-8,12c0,0,0,8,4,18L292,0c0,0,-7,3,-13,10c0,0,-6,6,-8,14L31,665c0,0,-6,16,-6,25c0,0,0,9,6,14c0,0,6,5,20,7c0,0,13,2,36,2c0,0,22,0,35,-1c0,0,12,-1,20,-4c0,0,7,-3,11,-9c0,0,3,-6,7,-15L351,145h3L539,687c0,0,4,14,10,18c0,0,7,4,19,6c0,0,13,2,37,2c0,0,21,0,34,-2c0,0,14,-2,20,-7c0,0,6,-5,6,-14c0,0,0,-9,-4,-23L420,0L330,-246c0,0,-4,-12,-22,-18c0,0,-19,-7,-56,-7Z" 
id="f2_co"
transform="scale(0.001,-0.001)" />

<path d="M324,-13c0,0,-44,0,-85,7c0,0,-40,6,-71,14c0,0,-32,10,-52,18c0,0,-20,9,-25,15c0,0,-6,5,-8,9c0,0,-3,5,-4,11c0,0,-2,6,-3,16c0,0,-1,10,-1,23c0,0,0,13,1,23c0,0,1,10,4,16c0,0,3,7,8,10c0,0,4,3,9,3c0,0,7,0,23,-10c0,0,16,-9,42,-20c0,0,27,-11,66,-20c0,0,39,-10,93,-10c0,0,49,0,91,12c0,0,42,12,72,37c0,0,30,26,47,64c0,0,18,38,18,94c0,0,0,46,-15,81c0,0,-14,36,-45,59c0,0,-30,24,-76,35c0,0,-46,12,-111,12c0,0,-45,0,-78,-5c0,0,-33,-4,-61,-4c0,0,-21,0,-30,10c0,0,-9,9,-9,37V917c0,0,0,24,12,36c0,0,11,12,33,12H596c0,0,6,0,12,-3c0,0,6,-4,9,-10c0,0,4,-7,6,-17c0,0,2,-11,2,-25c0,0,0,-27,-8,-42c0,0,-7,-14,-21,-14H236V583c0,0,26,4,53,5c0,0,28,1,63,1c0,0,83,0,145,-20c0,0,62,-20,103,-56c0,0,42,-36,63,-88c0,0,21,-51,21,-114c0,0,0,-78,-26,-138c0,0,-26,-61,-74,-102C584,71,537,30,471,8c0,0,-66,-21,-147,-21Z" 
id="f2_s2"
transform="scale(0.001,-0.001)" />

<path d="M92,-4c0,0,-22,0,-35,2C57,-2,43,0,37,3c0,0,-7,5,-6,12c0,0,0,7,7,17L247,360L49,675c0,0,-6,11,-6,18c0,0,-1,7,6,12c0,0,7,5,22,6c0,0,14,2,38,2c0,0,22,0,35,-1c0,0,13,-1,20,-4c0,0,8,-2,12,-6c0,0,3,-3,6,-9L335,443L490,693c0,0,3,5,7,9c0,0,4,3,10,6c0,0,7,3,18,4c0,0,12,1,32,1c0,0,21,0,35,-2c0,0,14,-1,21,-5c0,0,7,-4,6,-12c0,0,-1,-7,-8,-19L415,364L622,32c0,0,6,-10,6,-17c0,0,0,-7,-7,-12c0,0,-7,-3,-21,-5c0,0,-15,-2,-38,-2c0,0,-22,0,-35,1c0,0,-13,1,-21,3c0,0,-8,3,-12,7c0,0,-4,4,-7,9L326,282L165,16c0,0,-3,-5,-7,-9c0,0,-4,-4,-12,-7c0,0,-8,-2,-20,-3c0,0,-13,-1,-34,-1Z" 
id="f2_cn"
transform="scale(0.001,-0.001)" />

<path d="M380,81c0,0,-14,0,-25,2c0,0,-11,2,-17,5c0,0,-7,3,-10,7c0,0,-3,4,-3,10V376H81c0,0,-7,0,-12,3c0,0,-5,3,-9,10c0,0,-3,7,-6,17c0,0,-2,10,-2,24c0,0,0,14,2,24c0,0,3,10,6,16c0,0,4,7,9,10c0,0,5,3,11,3H325V754c0,0,0,6,3,11c0,0,3,5,10,8c0,0,6,4,17,5c0,0,11,2,25,2c0,0,16,0,27,-2c0,0,10,-1,16,-5c0,0,7,-3,10,-8c0,0,3,-5,3,-11V483H681c0,0,6,0,11,-3c0,0,5,-3,9,-10c0,0,4,-6,6,-16c0,0,2,-10,2,-24c0,0,0,-14,-3,-24c0,0,-2,-10,-6,-17c0,0,-3,-7,-8,-10c0,0,-6,-3,-12,-3H436V105c0,0,0,-6,-3,-10c0,0,-3,-4,-10,-7c0,0,-6,-3,-16,-5c0,0,-11,-2,-27,-2Z" 
id="f2_u6"
transform="scale(0.001,-0.001)" />

<path d="M469,327V857h-2L153,327ZM530,-4c0,0,-18,0,-30,2c0,0,-12,1,-19,3c0,0,-7,3,-9,7c0,0,-3,4,-3,10V221H71c0,0,-9,0,-15,2c0,0,-6,2,-11,8c0,0,-5,6,-7,17c0,0,-2,12,-2,30c0,0,0,14,1,25c0,0,1,11,3,20c0,0,2,10,6,18c0,0,4,9,9,18L403,947c0,0,3,6,10,10c0,0,7,5,19,8c0,0,11,3,27,4c0,0,17,1,39,1c0,0,25,0,43,-2c0,0,18,-2,29,-5c0,0,12,-3,18,-8c0,0,6,-4,6,-11V327H702c0,0,13,0,21,-13c0,0,8,-13,8,-40c0,0,0,-25,-8,-39c0,0,-7,-14,-21,-14H594V18c0,0,0,-6,-3,-10c0,0,-3,-4,-11,-7c0,0,-7,-2,-19,-3c0,0,-12,-2,-31,-2Z" 
id="f2_s1"
transform="scale(0.001,-0.001)" />

<path d="M90,0C90,0,81,0,73,11c0,0,-9,11,-9,42c0,0,0,14,2,24c0,0,2,10,6,16c0,0,4,7,8,10c0,0,5,3,10,3H670c0,0,6,0,11,-3c0,0,6,-3,9,-10c0,0,3,-6,5,-16c0,0,2,-10,2,-24c0,0,0,-31,-8,-42C689,11,681,0,670,0ZM681,177c-3,0,-7,1,-11,3L81,473c0,0,-8,4,-13,18c0,0,-4,14,-4,41c0,0,0,12,1,22c0,0,2,11,4,17c0,0,2,7,6,12c0,0,3,5,8,6L670,882c0,0,6,3,12,3c4,0,7,-1,10,-4c0,0,5,-10,5,-45c0,0,0,-21,-1,-34c0,0,0,-12,-3,-20c0,0,-3,-8,-7,-12c0,0,-5,-4,-13,-9L193,529L673,301c0,0,8,-4,13,-8c0,0,4,-5,7,-12c0,0,3,-8,3,-21c0,0,1,-13,1,-34c0,0,0,-36,-5,-45c0,0,-3,-4,-11,-4Z" 
id="f2_ug"
transform="scale(0.001,-0.001)" />

<path d="M385,92c0,0,42,0,74,13c0,0,31,14,54,39c0,0,23,25,38,60c0,0,15,35,24,77c0,0,9,43,12,92c0,0,3,50,3,103c0,0,0,73,-5,130c0,0,-5,57,-15,101c0,0,-10,44,-26,76c0,0,-16,32,-39,52c0,0,-22,21,-51,30c0,0,-29,9,-64,9c0,0,-64,0,-103,-30c0,0,-40,-29,-63,-82c0,0,-23,-52,-31,-122c0,0,-8,-70,-8,-150c0,0,0,-108,11,-184c0,0,11,-76,36,-123c0,0,24,-48,62,-69c0,0,37,-22,91,-22ZM378,-13c0,0,-91,0,-154,32c0,0,-62,32,-100,95c0,0,-38,63,-54,155c0,0,-16,92,-16,212c0,0,0,110,18,202c0,0,18,92,58,158c0,0,40,66,106,103c0,0,66,36,161,36c0,0,92,0,154,-33c0,0,62,-32,100,-95c0,0,39,-63,55,-155c0,0,16,-92,16,-212c0,0,0,-111,-18,-203c0,0,-17,-91,-58,-157C646,125,605,59,540,22c0,0,-66,-35,-162,-35Z" 
id="f2_rx"
transform="scale(0.001,-0.001)" />

<path d="M69,-215c0,0,-12,0,-21,1c0,0,-8,1,-12,4c0,0,-4,2,-4,7c0,0,-1,4,2,10L134,11v96c0,0,0,20,4,32c0,0,4,12,13,18c0,0,9,6,22,8c0,0,13,2,33,2c0,0,19,0,32,-2c0,0,13,-2,22,-8c0,0,9,-6,13,-18c0,0,4,-12,4,-32c0,0,0,-23,-2,-43c0,0,-3,-19,-8,-36c0,0,-5,-17,-14,-33c0,0,-8,-17,-21,-36L130,-194c0,0,-4,-5,-9,-9c0,0,-5,-4,-12,-7c0,0,-7,-3,-16,-4c0,0,-9,-1,-24,-1Z" 
id="f2_nq"
transform="scale(0.001,-0.001)" />

<path d="M91,70c-1,0,-6,1,-9,5c0,0,-4,5,-5,16c0,0,-2,11,-2,28c0,0,0,21,1,34c0,0,1,12,3,20c0,0,3,8,8,12c0,0,6,5,14,9L582,430L104,661c0,0,-10,4,-16,9c0,0,-5,4,-8,12c0,0,-3,8,-4,21c0,0,-1,13,-1,35c0,0,0,19,2,30c0,0,1,10,5,15c0,0,3,5,8,5c0,0,1,-1,1,-1c0,0,6,0,14,-5L693,486c0,0,7,-4,12,-18c0,0,5,-15,5,-40c0,0,0,-13,-1,-23c0,0,-2,-10,-4,-17c0,0,-2,-8,-6,-12c0,0,-4,-4,-8,-6L105,74c0,0,-8,-3,-14,-4Z" 
id="f2_ue"
transform="scale(0.001,-0.001)" />

<path d="M128,0c0,0,-11,0,-19,3c0,0,-8,2,-13,8c0,0,-6,6,-8,17c0,0,-3,11,-3,28c0,0,0,15,1,26c0,0,1,11,5,20c0,0,4,8,9,17c0,0,6,8,15,18L302,336c0,0,65,68,104,123c0,0,39,54,61,99c0,0,21,45,28,81c0,0,6,37,6,69c0,0,0,32,-10,61c0,0,-11,29,-30,50c0,0,-20,22,-50,35c0,0,-30,12,-69,12c0,0,-45,0,-81,-12c0,0,-37,-13,-64,-28c0,0,-27,-15,-45,-27c0,0,-19,-13,-28,-13c0,0,-5,0,-9,3c0,0,-4,3,-7,10c0,0,-2,6,-4,18c0,0,-1,11,-1,26c0,0,0,12,0,20c0,0,1,8,3,14c0,0,2,6,5,11c0,0,3,5,12,13c0,0,9,8,31,21c0,0,22,14,55,27c0,0,33,13,73,22c0,0,40,9,84,9c0,0,70,0,123,-20c0,0,53,-20,87,-54c0,0,35,-34,52,-80c0,0,17,-46,17,-97c0,0,0,-46,-8,-92c0,0,-8,-46,-35,-99c0,0,-26,-54,-76,-119c0,0,-50,-65,-133,-151L240,109H660c0,0,6,0,12,-4c0,0,5,-3,9,-10c0,0,5,-7,6,-17c0,0,2,-10,2,-23c0,0,0,-13,-2,-24c0,0,-1,-10,-5,-17c0,0,-3,-7,-9,-11c0,0,-5,-3,-12,-3Z" 
id="f2_rz"
transform="scale(0.001,-0.001)" />

<path d="M417,91c0,0,31,0,60,6c0,0,29,7,55,17c0,0,27,11,51,26c0,0,23,16,44,33c0,0,-39,33,-78,70c0,0,-38,36,-74,72c0,0,-36,37,-69,73c0,0,-33,36,-61,71c0,0,-37,-24,-62,-48c0,0,-25,-23,-40,-47c0,0,-15,-23,-22,-47c0,0,-7,-24,-7,-50c0,0,0,-39,13,-71c0,0,13,-32,39,-55c0,0,25,-24,63,-37c0,0,38,-13,88,-13ZM392,594c0,0,54,31,91,57c0,0,37,25,59,49c0,0,23,24,33,48c0,0,10,24,10,51c0,0,0,21,-8,41c0,0,-8,20,-25,35c0,0,-17,15,-43,24c0,0,-26,9,-63,9c0,0,-39,0,-67,-10c0,0,-27,-10,-44,-27c0,0,-18,-16,-26,-39c0,0,-8,-22,-8,-46c0,0,0,-20,5,-41c0,0,6,-21,17,-44c0,0,12,-22,29,-48c0,0,17,-26,40,-59Zm9,-607c0,0,-47,0,-89,9c0,0,-42,7,-78,22c0,0,-36,15,-64,38c0,0,-28,24,-48,53c0,0,-20,30,-31,66c0,0,-10,37,-10,79c0,0,0,41,11,78c0,0,11,37,35,72c0,0,24,34,62,67c0,0,39,32,93,65c0,0,-30,41,-51,73c0,0,-21,33,-35,62c0,0,-14,28,-20,54c0,0,-6,25,-6,51c0,0,0,47,16,89c0,0,15,42,50,75c0,0,35,32,89,51c0,0,55,19,132,19c0,0,66,0,114,-14c0,0,48,-14,80,-40c0,0,32,-27,48,-63c0,0,16,-37,16,-83c0,0,0,-44,-15,-81c0,0,-14,-36,-45,-70c0,0,-31,-35,-80,-69c0,0,-49,-34,-118,-71c0,0,25,-31,55,-64c0,0,30,-33,62,-67c0,0,32,-33,66,-66c0,0,34,-32,67,-62c0,0,15,20,27,46c0,0,12,26,21,54c0,0,9,29,13,59c0,0,5,30,5,60v27c0,0,0,8,2,12c0,0,3,5,9,9c0,0,6,3,18,4c0,0,11,2,30,2c0,0,16,0,28,-1c0,0,11,-1,19,-3c0,0,7,-3,11,-8c0,0,3,-6,3,-16V487c0,0,0,-42,-7,-82c0,0,-7,-41,-20,-79c0,0,-12,-38,-30,-73c0,0,-18,-35,-41,-65c0,0,34,-27,59,-45c0,0,25,-18,42,-30c0,0,18,-11,29,-16c0,0,12,-4,19,-4c0,0,8,0,15,1h1c3,0,7,-1,9,-3c0,0,5,-3,7,-12c0,0,2,-8,2,-27c0,0,0,-19,-1,-30c0,0,-1,-11,-2,-17c0,0,-2,-5,-7,-8c0,0,-4,-4,-16,-7c0,0,-12,-3,-31,-3c0,0,-15,0,-33,6c0,0,-18,5,-42,17c0,0,-24,13,-56,36c0,0,-31,22,-74,57c0,0,-31,-26,-66,-47c0,0,-35,-22,-74,-37C576,19,537,3,494,-4c0,0,-43,-9,-93,-9Z" 
id="f0_pl"
transform="scale(0.001,-0.001)" />

<path d="M91,0C91,0,82,0,73,11c0,0,-8,11,-8,42c0,0,0,14,2,24c0,0,2,10,6,16c0,0,3,7,8,10c0,0,5,3,10,3H671c0,0,6,0,11,-3c0,0,6,-3,9,-10c0,0,3,-6,5,-16c0,0,2,-10,2,-24c0,0,0,-31,-8,-42C690,11,682,0,671,0ZM79,173c-3,0,-7,1,-9,4c0,0,-5,9,-5,45c0,0,0,20,0,33c0,0,1,13,4,21c0,0,2,8,7,12c0,0,5,5,12,8L570,528L88,757c0,0,-7,4,-12,9c0,0,-5,4,-7,12c0,0,-3,8,-4,21c0,0,0,13,0,33c0,0,0,35,5,45c0,0,3,4,11,4c3,0,6,0,11,-2L681,585c0,0,8,-4,13,-18c0,0,4,-14,4,-40c0,0,0,-13,-1,-23c0,0,-2,-10,-4,-17c0,0,-2,-7,-6,-12c0,0,-4,-5,-8,-6L92,176c0,0,-7,-3,-13,-3Z" 
id="f2_uh"
transform="scale(0.001,-0.001)" />

<path d="M343,-13c0,0,-49,0,-91,8c0,0,-42,7,-75,18c0,0,-33,11,-54,22c0,0,-22,12,-27,17c0,0,-6,5,-9,10c0,0,-3,5,-5,13c0,0,-3,7,-4,18c0,0,-1,11,-1,27c0,0,0,26,5,37c0,0,6,10,15,10c0,0,7,0,27,-12c0,0,20,-12,51,-25c0,0,31,-14,72,-26c0,0,41,-12,92,-12c0,0,49,0,87,13c0,0,37,12,62,35c0,0,26,24,39,55c0,0,12,32,12,69c0,0,0,41,-16,74c0,0,-16,33,-47,57c0,0,-31,24,-76,36c0,0,-45,13,-103,13H206c0,0,-6,0,-12,3c0,0,-6,2,-10,8c0,0,-4,6,-6,16c0,0,-3,10,-3,25c0,0,0,14,2,24c0,0,2,9,7,15c0,0,4,5,9,8c0,0,5,3,12,3h84c0,0,49,0,89,12c0,0,39,13,66,37c0,0,27,24,42,57c0,0,14,33,14,74c0,0,0,30,-9,57c0,0,-10,28,-30,48c0,0,-19,20,-49,32c0,0,-31,11,-70,11c0,0,-43,0,-80,-13c0,0,-36,-13,-64,-28c0,0,-29,-15,-47,-28c0,0,-19,-13,-26,-13c0,0,-6,0,-10,2c0,0,-4,2,-6,7c0,0,-3,6,-4,16c0,0,-1,10,-1,26c0,0,0,12,0,20c0,0,1,9,3,15c0,0,3,6,6,12c0,0,3,5,10,12c0,0,7,7,28,20c0,0,22,14,54,27c0,0,32,13,73,22c0,0,41,9,89,9c0,0,67,0,118,-17c0,0,51,-18,85,-49c0,0,34,-31,51,-75c0,0,17,-44,17,-97c0,0,0,-45,-12,-84c0,0,-12,-39,-35,-70c0,0,-24,-30,-57,-51c0,0,-34,-21,-78,-30v-1c0,0,50,-5,92,-25c0,0,41,-20,71,-50c0,0,30,-29,47,-69c0,0,16,-40,16,-86c0,0,0,-66,-23,-119c0,0,-23,-54,-66,-92C593,65,550,27,486,7c0,0,-63,-20,-143,-20Z" 
id="f2_s0"
transform="scale(0.001,-0.001)" />

<path d="M320,-17c0,0,-50,0,-93,9c0,0,-43,8,-76,19c0,0,-32,11,-54,24C97,35,75,48,65,58c0,0,-10,9,-14,28c0,0,-4,18,-4,52c0,0,0,23,1,39c0,0,2,15,5,25c0,0,4,10,9,14c0,0,6,4,13,4c0,0,11,0,30,-12c0,0,19,-13,49,-28c0,0,30,-15,71,-27c0,0,42,-12,96,-12c0,0,36,0,64,8c0,0,29,9,49,25c0,0,19,15,30,38c0,0,10,23,10,52c0,0,0,33,-18,56c0,0,-18,24,-46,42c0,0,-29,18,-66,34c0,0,-36,16,-75,34c0,0,-39,18,-76,41c0,0,-36,23,-65,54c0,0,-29,32,-47,75c0,0,-17,44,-17,104c0,0,0,70,25,122c0,0,26,53,70,88c0,0,43,34,103,51c0,0,59,18,125,18c0,0,35,0,69,-6c0,0,34,-5,64,-14c0,0,30,-9,53,-20c0,0,23,-11,31,-18c0,0,7,-8,10,-13c0,0,3,-5,4,-14c0,0,2,-8,3,-21c0,0,1,-13,1,-33c0,0,0,-21,-1,-36c0,0,-1,-15,-4,-25c0,0,-3,-9,-7,-14c0,0,-5,-4,-14,-4c0,0,-8,0,-26,10c0,0,-18,10,-44,23c0,0,-26,12,-60,22c0,0,-34,10,-75,10c0,0,-32,0,-56,-8c0,0,-24,-8,-40,-21c0,0,-16,-14,-24,-34c0,0,-8,-19,-8,-41c0,0,0,-32,18,-56c0,0,17,-23,46,-42c0,0,30,-18,67,-34c0,0,38,-16,76,-34c0,0,39,-18,76,-41c0,0,38,-22,67,-54c0,0,29,-32,47,-75c0,0,18,-43,18,-101c0,0,0,-76,-29,-133c0,0,-28,-58,-77,-96C572,60,524,21,459,2c0,0,-65,-19,-139,-19Z" 
id="f1_2n"
transform="scale(0.001,-0.001)" />

<path d="M188,-4c0,0,-28,0,-46,2c0,0,-18,2,-28,5c0,0,-11,3,-16,9c0,0,-4,5,-4,13v981c0,0,0,8,4,14c0,0,5,6,16,10c0,0,10,4,28,6c0,0,18,2,46,2c0,0,27,0,45,-2c0,0,18,-2,29,-6c0,0,11,-4,15,-10c0,0,5,-6,5,-14V25c0,0,0,-8,-5,-13c0,0,-4,-6,-15,-9c0,0,-11,-3,-29,-5c0,0,-18,-2,-45,-2Z" 
id="f1_a8"
transform="scale(0.001,-0.001)" />

<path d="M161,0c0,0,-5,0,-10,3c0,0,-4,2,-8,8c0,0,-5,6,-7,16c0,0,-2,9,-2,24c0,0,0,13,2,23c0,0,2,9,6,16c0,0,3,6,8,9c0,0,5,4,11,4H362V837L176,726c0,0,-15,-8,-23,-9c0,0,-1,-1,-3,-1c-3,0,-8,1,-11,4c0,0,-5,5,-7,16c0,0,-2,11,-2,28c0,0,0,13,1,22c0,0,1,9,4,15c0,0,2,6,6,10c0,0,4,5,11,9L374,963c0,0,3,2,7,4c0,0,5,1,11,3c0,0,7,1,16,2c0,0,9,0,22,0c0,0,18,0,30,-2c0,0,12,-1,19,-4c0,0,7,-2,9,-6c0,0,2,-5,2,-9V103H665c0,0,6,0,11,-4c0,0,5,-3,8,-9c0,0,4,-7,6,-16c0,0,2,-10,2,-23c0,0,0,-15,-3,-24c0,0,-2,-10,-6,-16c0,0,-3,-6,-8,-8c0,0,-5,-3,-10,-3Z" 
id="f0_ry"
transform="scale(0.001,-0.001)" />

<path d="M388,108c0,0,93,0,156,23c0,0,64,23,106,71c0,0,43,47,64,119c0,0,21,72,21,171c0,0,0,78,-19,145c0,0,-20,68,-61,117c0,0,-41,49,-105,77c0,0,-63,28,-163,28H256V108ZM176,0c0,0,-17,0,-33,12c0,0,-15,11,-15,40V913c0,0,0,29,15,41c0,0,16,11,33,11H394c0,0,126,0,212,-32c0,0,87,-33,145,-94c0,0,59,-60,89,-147c0,0,30,-86,30,-195c0,0,0,-126,-32,-219c0,0,-32,-94,-93,-155c0,0,-62,-62,-151,-92C594,31,504,0,380,0Z" 
id="f0_ur"
transform="scale(0.001,-0.001)" />

<path d="M324,-13c0,0,-44,0,-85,7c0,0,-40,6,-71,14c0,0,-32,10,-52,18c0,0,-20,9,-25,15c0,0,-6,5,-8,9c0,0,-3,5,-4,11c0,0,-2,6,-3,16c0,0,-1,10,-1,23c0,0,0,13,1,23c0,0,1,10,4,16c0,0,3,7,8,10c0,0,4,3,9,3c0,0,7,0,23,-10c0,0,16,-9,42,-20c0,0,27,-11,66,-20c0,0,39,-10,93,-10c0,0,49,0,91,12c0,0,42,12,72,37c0,0,30,26,47,64c0,0,18,38,18,94c0,0,0,46,-15,81c0,0,-14,36,-45,59c0,0,-30,24,-76,35c0,0,-46,12,-111,12c0,0,-45,0,-78,-5c0,0,-33,-4,-61,-4c0,0,-21,0,-30,10c0,0,-9,9,-9,37V917c0,0,0,24,12,36c0,0,11,12,33,12H596c0,0,6,0,12,-3c0,0,6,-4,9,-10c0,0,4,-7,6,-17c0,0,2,-11,2,-25c0,0,0,-27,-8,-42c0,0,-7,-14,-21,-14H236V583c0,0,26,4,53,5c0,0,28,1,63,1c0,0,83,0,145,-20c0,0,62,-20,103,-56c0,0,42,-36,63,-88c0,0,21,-51,21,-114c0,0,0,-78,-26,-138c0,0,-26,-61,-74,-102C584,71,537,30,471,8c0,0,-66,-21,-147,-21Z" 
id="f0_uh"
transform="scale(0.001,-0.001)" />

<path d="M92,-4c0,0,-22,0,-35,2C57,-2,43,0,37,3c0,0,-7,5,-6,12c0,0,0,7,7,17L247,360L49,675c0,0,-6,11,-6,18c0,0,-1,7,6,12c0,0,7,5,22,6c0,0,14,2,38,2c0,0,22,0,35,-1c0,0,13,-1,20,-4c0,0,8,-2,12,-6c0,0,3,-3,6,-9L335,443L490,693c0,0,3,5,7,9c0,0,4,3,10,6c0,0,7,3,18,4c0,0,12,1,32,1c0,0,21,0,35,-2c0,0,14,-1,21,-5c0,0,7,-4,6,-12c0,0,-1,-7,-8,-19L415,364L622,32c0,0,6,-10,6,-17c0,0,0,-7,-7,-12c0,0,-7,-3,-21,-5c0,0,-15,-2,-38,-2c0,0,-22,0,-35,1c0,0,-13,1,-21,3c0,0,-8,3,-12,7c0,0,-4,4,-7,9L326,282L165,16c0,0,-3,-5,-7,-9c0,0,-4,-4,-12,-7c0,0,-8,-2,-20,-3c0,0,-13,-1,-34,-1Z" 
id="f0_cn"
transform="scale(0.001,-0.001)" />

<path d="M380,81c0,0,-14,0,-25,2c0,0,-11,2,-17,5c0,0,-7,3,-10,7c0,0,-3,4,-3,10V376H81c0,0,-7,0,-12,3c0,0,-5,3,-9,10c0,0,-3,7,-6,17c0,0,-2,10,-2,24c0,0,0,14,2,24c0,0,3,10,6,16c0,0,4,7,9,10c0,0,5,3,11,3H325V754c0,0,0,6,3,11c0,0,3,5,10,8c0,0,6,4,17,5c0,0,11,2,25,2c0,0,16,0,27,-2c0,0,10,-1,16,-5c0,0,7,-3,10,-8c0,0,3,-5,3,-11V483H681c0,0,6,0,11,-3c0,0,5,-3,9,-10c0,0,4,-6,6,-16c0,0,2,-10,2,-24c0,0,0,-14,-3,-24c0,0,-2,-10,-6,-17c0,0,-3,-7,-8,-10c0,0,-6,-3,-12,-3H436V105c0,0,0,-6,-3,-10c0,0,-3,-4,-10,-7c0,0,-6,-3,-16,-5c0,0,-11,-2,-27,-2Z" 
id="f0_u6"
transform="scale(0.001,-0.001)" />

<path d="M469,327V857h-2L153,327ZM530,-4c0,0,-18,0,-30,2c0,0,-12,1,-19,3c0,0,-7,3,-9,7c0,0,-3,4,-3,10V221H71c0,0,-9,0,-15,2c0,0,-6,2,-11,8c0,0,-5,6,-7,17c0,0,-2,12,-2,30c0,0,0,14,1,25c0,0,1,11,3,20c0,0,2,10,6,18c0,0,4,9,9,18L403,947c0,0,3,6,10,10c0,0,7,5,19,8c0,0,11,3,27,4c0,0,17,1,39,1c0,0,25,0,43,-2c0,0,18,-2,29,-5c0,0,12,-3,18,-8c0,0,6,-4,6,-11V327H702c0,0,13,0,21,-13c0,0,8,-13,8,-40c0,0,0,-25,-8,-39c0,0,-7,-14,-21,-14H594V18c0,0,0,-6,-3,-10c0,0,-3,-4,-11,-7c0,0,-7,-2,-19,-3c0,0,-12,-2,-31,-2Z" 
id="f0_s1"
transform="scale(0.001,-0.001)" />

<path d="M98,233c0,0,-11,0,-19,11c0,0,-9,11,-9,41c0,0,0,28,8,41c0,0,7,12,20,12H662c0,0,13,0,21,-12c0,0,7,-13,7,-41c0,0,0,-30,-8,-41c0,0,-9,-11,-20,-11Zm0,289c0,0,-11,0,-19,12c0,0,-9,11,-9,41c0,0,0,27,8,40c0,0,7,13,20,13H662c0,0,13,0,21,-13c0,0,7,-13,7,-40c0,0,0,-30,-8,-41c0,0,-9,-12,-20,-12Z" 
id="f0_ua"
transform="scale(0.001,-0.001)" />

<path d="M385,92c0,0,42,0,74,13c0,0,31,14,54,39c0,0,23,25,38,60c0,0,15,35,24,77c0,0,9,43,12,92c0,0,3,50,3,103c0,0,0,73,-5,130c0,0,-5,57,-15,101c0,0,-10,44,-26,76c0,0,-16,32,-39,52c0,0,-22,21,-51,30c0,0,-29,9,-64,9c0,0,-64,0,-103,-30c0,0,-40,-29,-63,-82c0,0,-23,-52,-31,-122c0,0,-8,-70,-8,-150c0,0,0,-108,11,-184c0,0,11,-76,36,-123c0,0,24,-48,62,-69c0,0,37,-22,91,-22ZM378,-13c0,0,-91,0,-154,32c0,0,-62,32,-100,95c0,0,-38,63,-54,155c0,0,-16,92,-16,212c0,0,0,110,18,202c0,0,18,92,58,158c0,0,40,66,106,103c0,0,66,36,161,36c0,0,92,0,154,-33c0,0,62,-32,100,-95c0,0,39,-63,55,-155c0,0,16,-92,16,-212c0,0,0,-111,-18,-203c0,0,-17,-91,-58,-157C646,125,605,59,540,22c0,0,-66,-35,-162,-35Z" 
id="f0_ug"
transform="scale(0.001,-0.001)" />

<path d="M128,0c0,0,-11,0,-19,3c0,0,-8,2,-13,8c0,0,-6,6,-8,17c0,0,-3,11,-3,28c0,0,0,15,1,26c0,0,1,11,5,20c0,0,4,8,9,17c0,0,6,8,15,18L302,336c0,0,65,68,104,123c0,0,39,54,61,99c0,0,21,45,28,81c0,0,6,37,6,69c0,0,0,32,-10,61c0,0,-11,29,-30,50c0,0,-20,22,-50,35c0,0,-30,12,-69,12c0,0,-45,0,-81,-12c0,0,-37,-13,-64,-28c0,0,-27,-15,-45,-27c0,0,-19,-13,-28,-13c0,0,-5,0,-9,3c0,0,-4,3,-7,10c0,0,-2,6,-4,18c0,0,-1,11,-1,26c0,0,0,12,0,20c0,0,1,8,3,14c0,0,2,6,5,11c0,0,3,5,12,13c0,0,9,8,31,21c0,0,22,14,55,27c0,0,33,13,73,22c0,0,40,9,84,9c0,0,70,0,123,-20c0,0,53,-20,87,-54c0,0,35,-34,52,-80c0,0,17,-46,17,-97c0,0,0,-46,-8,-92c0,0,-8,-46,-35,-99c0,0,-26,-54,-76,-119c0,0,-50,-65,-133,-151L240,109H660c0,0,6,0,12,-4c0,0,5,-3,9,-10c0,0,5,-7,6,-17c0,0,2,-10,2,-23c0,0,0,-13,-2,-24c0,0,-1,-10,-5,-17c0,0,-3,-7,-9,-11c0,0,-5,-3,-12,-3Z" 
id="f0_rz"
transform="scale(0.001,-0.001)" />

<path d="M343,-13c0,0,-49,0,-91,8c0,0,-42,7,-75,18c0,0,-33,11,-54,22c0,0,-22,12,-27,17c0,0,-6,5,-9,10c0,0,-3,5,-5,13c0,0,-3,7,-4,18c0,0,-1,11,-1,27c0,0,0,26,5,37c0,0,6,10,15,10c0,0,7,0,27,-12c0,0,20,-12,51,-25c0,0,31,-14,72,-26c0,0,41,-12,92,-12c0,0,49,0,87,13c0,0,37,12,62,35c0,0,26,24,39,55c0,0,12,32,12,69c0,0,0,41,-16,74c0,0,-16,33,-47,57c0,0,-31,24,-76,36c0,0,-45,13,-103,13H206c0,0,-6,0,-12,3c0,0,-6,2,-10,8c0,0,-4,6,-6,16c0,0,-3,10,-3,25c0,0,0,14,2,24c0,0,2,9,7,15c0,0,4,5,9,8c0,0,5,3,12,3h84c0,0,49,0,89,12c0,0,39,13,66,37c0,0,27,24,42,57c0,0,14,33,14,74c0,0,0,30,-9,57c0,0,-10,28,-30,48c0,0,-19,20,-49,32c0,0,-31,11,-70,11c0,0,-43,0,-80,-13c0,0,-36,-13,-64,-28c0,0,-29,-15,-47,-28c0,0,-19,-13,-26,-13c0,0,-6,0,-10,2c0,0,-4,2,-6,7c0,0,-3,6,-4,16c0,0,-1,10,-1,26c0,0,0,12,0,20c0,0,1,9,3,15c0,0,3,6,6,12c0,0,3,5,10,12c0,0,7,7,28,20c0,0,22,14,54,27c0,0,32,13,73,22c0,0,41,9,89,9c0,0,67,0,118,-17c0,0,51,-18,85,-49c0,0,34,-31,51,-75c0,0,17,-44,17,-97c0,0,0,-45,-12,-84c0,0,-12,-39,-35,-70c0,0,-24,-30,-57,-51c0,0,-34,-21,-78,-30v-1c0,0,50,-5,92,-25c0,0,41,-20,71,-50c0,0,30,-29,47,-69c0,0,16,-40,16,-86c0,0,0,-66,-23,-119c0,0,-23,-54,-66,-92C593,65,550,27,486,7c0,0,-63,-20,-143,-20Z" 
id="f0_s0"
transform="scale(0.001,-0.001)" />

<path d="M192,-4c0,0,-18,0,-30,2c0,0,-13,2,-20,3c0,0,-8,3,-11,8c0,0,-3,5,-3,10V913c0,0,0,29,15,40c0,0,16,12,33,12H610c0,0,5,0,10,-3c0,0,5,-3,9,-10c0,0,4,-6,5,-17c0,0,2,-11,2,-25c0,0,0,-14,-2,-24c0,0,-1,-11,-5,-17c0,0,-4,-7,-9,-9c0,0,-5,-3,-10,-3H256V528H591c0,0,5,0,10,-3c0,0,5,-2,8,-8c0,0,4,-6,6,-16c0,0,1,-10,1,-26c0,0,0,-14,-1,-24c0,0,-2,-10,-6,-17c0,0,-3,-6,-8,-9c0,0,-5,-4,-10,-4H256V19c0,0,0,-5,-3,-10c0,0,-3,-5,-10,-8c0,0,-7,-1,-19,-3c0,0,-12,-2,-32,-2Z" 
id="f0_us"
transform="scale(0.001,-0.001)" />

<path d="M366,92c0,0,25,0,48,7c0,0,22,6,46,22c0,0,24,16,50,41c0,0,26,24,56,61V492c0,0,-51,62,-97,94c0,0,-47,33,-98,33c0,0,-47,0,-79,-22c0,0,-33,-23,-54,-59c0,0,-20,-37,-30,-83c0,0,-9,-47,-9,-94c0,0,0,-51,8,-100c0,0,8,-48,27,-86c0,0,19,-38,52,-60c0,0,32,-23,80,-23ZM345,-13c0,0,-74,0,-127,28c0,0,-52,29,-84,78c0,0,-33,49,-48,115c0,0,-15,66,-15,139c0,0,0,86,19,156c0,0,19,70,55,119c0,0,37,50,91,76c0,0,54,27,125,27c0,0,59,0,108,-26c0,0,49,-26,97,-76v390c0,0,0,5,2,10c0,0,3,4,10,7c0,0,8,3,19,5c0,0,12,1,30,1c0,0,18,0,30,-1c0,0,12,-2,19,-5c0,0,7,-3,10,-7c0,0,3,-5,3,-10V18c0,0,0,-6,-2,-10c0,0,-3,-5,-9,-7c0,0,-7,-2,-17,-3c0,0,-10,-2,-25,-2c0,0,-16,0,-26,2c0,0,-11,1,-18,3c0,0,-6,2,-9,7c0,0,-3,4,-3,10v90c0,0,-53,-58,-110,-90c0,0,-58,-31,-125,-31Z" 
id="f0_7v"
transform="scale(0.001,-0.001)" />

<path d="M482,-11c0,0,-94,0,-170,31c0,0,-76,31,-129,92c0,0,-53,61,-82,151c0,0,-29,90,-29,207c0,0,0,120,31,214c0,0,31,94,87,159c0,0,56,65,134,100c0,0,78,34,173,34c0,0,41,0,81,-8c0,0,39,-8,73,-19c0,0,33,-12,60,-28c0,0,26,-15,36,-25c0,0,10,-10,13,-15c0,0,3,-6,5,-13c0,0,1,-7,3,-17c0,0,1,-9,1,-23c0,0,0,-15,-2,-25c0,0,-1,-11,-4,-18c0,0,-3,-7,-7,-10c0,0,-4,-4,-10,-4c0,0,-11,0,-30,15c0,0,-18,14,-48,32c0,0,-29,17,-71,32c0,0,-42,14,-101,14c0,0,-64,0,-117,-25c0,0,-52,-26,-90,-76c0,0,-37,-50,-57,-122c0,0,-21,-72,-21,-164c0,0,0,-92,20,-163c0,0,20,-70,57,-117c0,0,36,-48,90,-72c0,0,54,-24,122,-24c0,0,57,0,100,14c0,0,43,14,73,32c0,0,30,17,50,31c0,0,19,15,30,15c0,0,5,0,9,-3c0,0,4,-2,6,-8c0,0,2,-7,3,-18c0,0,2,-11,2,-28c0,0,0,-12,-1,-21c0,0,-1,-9,-3,-16c0,0,-2,-6,-5,-12c0,0,-3,-5,-10,-12c0,0,-8,-8,-31,-23c0,0,-24,-15,-60,-30C663,23,628,8,582,-1c0,0,-46,-10,-100,-10Z" 
id="f0_uq"
transform="scale(0.001,-0.001)" />

<path d="M412,-18c0,0,-144,0,-239,85c0,0,-95,86,-108,222l133,18c0,0,24,-114,79,-164c0,0,55,-50,135,-50c0,0,96,0,161,65c0,0,65,66,65,163c0,0,0,92,-61,152c0,0,-60,60,-153,60c0,0,-38,0,-95,-15l15,119c0,0,13,-2,21,-2c0,0,86,0,155,45c0,0,69,44,69,137c0,0,0,74,-50,122c0,0,-50,49,-129,49c0,0,-79,0,-131,-50c0,0,-52,-49,-67,-147L78,815c0,0,25,135,112,209c0,0,87,74,217,74c0,0,89,0,164,-38c0,0,76,-39,116,-105c0,0,40,-66,40,-141c0,0,0,-70,-39,-129c0,0,-38,-58,-112,-92c0,0,97,-22,151,-93c0,0,53,-70,53,-176c0,0,0,-143,-104,-243c0,0,-105,-99,-264,-99Z" 
id="f3_n"
transform="scale(0.001,-0.001)" />


</defs>
</svg>