<?xml version="1.0" encoding="UTF-8" standalone="no"?>
<!DOCTYPE svg PUBLIC "-//W3C//DTD SVG 1.1//EN"
"http://www.w3.org/Graphics/SVG/1.1/DTD/svg11.dtd">
<svg viewBox="0 0 909 1286" version="1.1" xmlns="http://www.w3.org/2000/svg" xmlns:xlink="http://www.w3.org/1999/xlink">
<defs>
<style type="text/css"><![CDATA[
.g0_67{
fill: #ED7D31;
}
.g1_67{
}
]]></style>
</defs>
<g fill="#000000" >
<use xlink:href="#f0_1k" transform="matrix(11,0,0,11,55,375.9)" />
<use xlink:href="#f0_2b" transform="matrix(11,0,0,11,66.8,375.9)" />
<use xlink:href="#f0_1g" transform="matrix(11,0,0,11,83.3,375.9)" />
<use xlink:href="#f0_2e" transform="matrix(11,0,0,11,94.3,375.9)" />
<use xlink:href="#f0_2b" transform="matrix(11,0,0,11,102,375.9)" />
<use xlink:href="#f0_33" transform="matrix(11,0,0,11,112.2,375.9)" />
<use xlink:href="#f0_21" transform="matrix(11,0,0,11,122.5,375.9)" />
<use xlink:href="#f0_2u" transform="matrix(11,0,0,11,132,375.9)" />
<use xlink:href="#f0_1g" transform="matrix(11,0,0,11,55,473.8)" />
<use xlink:href="#f0_2e" transform="matrix(11,0,0,11,66,473.8)" />
<use xlink:href="#f0_2b" transform="matrix(11,0,0,11,73.7,473.8)" />
<use xlink:href="#f0_2b" transform="matrix(11,0,0,11,84.4,473.8)" />
<use xlink:href="#f0_22" transform="matrix(11,0,0,11,95,473.8)" />
<use xlink:href="#f0_2u" transform="matrix(11,0,0,11,101.2,473.8)" />
<use xlink:href="#f1_35" transform="matrix(11,0,0,11,55,507.3)" />
<use xlink:href="#f1_21" transform="matrix(11,0,0,11,71.2,507.3)" />
<use xlink:href="#f1_27" transform="matrix(11,0,0,11,85.5,507.3)" />
<use xlink:href="#f1_2a" transform="matrix(11,0,0,11,96.1,507.3)" />
<use xlink:href="#f1_2b" transform="matrix(11,0,0,11,107.1,507.3)" />
<use xlink:href="#f1_2j" transform="matrix(11,0,0,11,116.6,507.3)" />
<use xlink:href="#f1_2g" transform="matrix(11,0,0,11,134.9,507.3)" />
<use xlink:href="#f1_24" transform="matrix(11,0,0,11,141.1,507.3)" />
<use xlink:href="#f1_1x" transform="matrix(11,0,0,11,152.1,507.3)" />
<use xlink:href="#f1_2g" transform="matrix(11,0,0,11,162,507.3)" />
<use xlink:href="#f1_2f" transform="matrix(11,0,0,11,173.7,507.3)" />
<use xlink:href="#f1_25" transform="matrix(11,0,0,11,182.5,507.3)" />
<use xlink:href="#f1_2a" transform="matrix(11,0,0,11,187.7,507.3)" />
<use xlink:href="#f1_2n" transform="matrix(11,0,0,11,204.1,507.3)" />
<use xlink:href="#f2_4z" transform="matrix(11,0,0,11,209.4,507.3)" />
<use xlink:href="#f1_2k" transform="matrix(11,0,0,11,223,507.3)" />
<use xlink:href="#f1_2o" transform="matrix(11,0,0,11,232.5,507.3)" />
<use xlink:href="#f1_2s" transform="matrix(11,0,0,11,242.8,507.3)" />
<use xlink:href="#f2_4z" transform="matrix(11,0,0,11,258.2,507.3)" />
<use xlink:href="#f1_2f" transform="matrix(11,0,0,11,272.2,507.3)" />
<use xlink:href="#f1_25" transform="matrix(11,0,0,11,280.9,507.3)" />
<use xlink:href="#f1_2a" transform="matrix(11,0,0,11,286.1,507.3)" />
<use xlink:href="#f1_2k" transform="matrix(11,0,0,11,302.2,507.3)" />
<use xlink:href="#f1_1x" transform="matrix(11,0,0,11,316.9,507.3)" />
<use xlink:href="#f1_2a" transform="matrix(11,0,0,11,326.7,507.3)" />
<use xlink:href="#f1_20" transform="matrix(11,0,0,11,337.7,507.3)" />
<use xlink:href="#f1_1z" transform="matrix(11,0,0,11,354,507.3)" />
<use xlink:href="#f1_2b" transform="matrix(11,0,0,11,362.4,507.3)" />
<use xlink:href="#f1_2f" transform="matrix(11,0,0,11,371.9,507.3)" />
<use xlink:href="#f1_2n" transform="matrix(11,0,0,11,386.2,507.3)" />
<use xlink:href="#f2_4z" transform="matrix(11,0,0,11,391,507.3)" />
<use xlink:href="#f1_2k" transform="matrix(11,0,0,11,405,507.3)" />
<use xlink:href="#f1_2o" transform="matrix(11,0,0,11,414.1,507.3)" />
<use xlink:href="#f1_2s" transform="matrix(11,0,0,11,424.3,507.3)" />
<use xlink:href="#f1_1z" transform="matrix(11,0,0,11,440.1,507.3)" />
<use xlink:href="#f1_2b" transform="matrix(11,0,0,11,448.9,507.3)" />
<use xlink:href="#f1_2f" transform="matrix(11,0,0,11,458,507.3)" />
<use xlink:href="#f1_2k" transform="matrix(11,0,0,11,472.5,507.3)" />
<use xlink:href="#f1_i" transform="matrix(11,0,0,11,481.6,507.3)" />
<use xlink:href="#f1_2w" transform="matrix(11,0,0,11,492.6,507.3)" />
<use xlink:href="#f1_21" transform="matrix(11,0,0,11,506.1,507.3)" />
<use xlink:href="#f1_2a" transform="matrix(11,0,0,11,514.9,507.3)" />
<use xlink:href="#f1_1z" transform="matrix(11,0,0,11,525.9,507.3)" />
<use xlink:href="#f1_21" transform="matrix(11,0,0,11,534.7,507.3)" />
<use xlink:href="#f1_g" transform="matrix(11,0,0,11,543.2,507.3)" />
<use xlink:href="#f1_25" transform="matrix(11,0,0,11,554.1,507.3)" />
<use xlink:href="#f1_2g" transform="matrix(11,0,0,11,559.2,507.3)" />
<use xlink:href="#f1_25" transform="matrix(11,0,0,11,570.6,507.3)" />
<use xlink:href="#f1_2f" transform="matrix(11,0,0,11,575.7,507.3)" />
<use xlink:href="#f1_2f" transform="matrix(11,0,0,11,590,507.3)" />
<use xlink:href="#f1_2h" transform="matrix(11,0,0,11,598.8,507.3)" />
<use xlink:href="#f1_22" transform="matrix(11,0,0,11,610.2,507.3)" />
<use xlink:href="#f1_22" transform="matrix(11,0,0,11,615.3,507.3)" />
<use xlink:href="#f1_25" transform="matrix(11,0,0,11,620.8,507.3)" />
<use xlink:href="#f1_1z" transform="matrix(11,0,0,11,625.9,507.3)" />
<use xlink:href="#f1_25" transform="matrix(11,0,0,11,634.3,507.3)" />
<use xlink:href="#f1_21" transform="matrix(11,0,0,11,639.4,507.3)" />
<use xlink:href="#f1_2a" transform="matrix(11,0,0,11,648.2,507.3)" />
<use xlink:href="#f1_2g" transform="matrix(11,0,0,11,659.5,507.3)" />
<use xlink:href="#f1_2g" transform="matrix(11,0,0,11,671.3,507.3)" />
<use xlink:href="#f1_2b" transform="matrix(11,0,0,11,677.5,507.3)" />
<use xlink:href="#f1_2c" transform="matrix(11,0,0,11,692.5,507.3)" />
<use xlink:href="#f1_2e" transform="matrix(11,0,0,11,703.1,507.3)" />
<use xlink:href="#f1_2b" transform="matrix(11,0,0,11,710.4,507.3)" />
<use xlink:href="#f1_2i" transform="matrix(11,0,0,11,719.6,507.3)" />
<use xlink:href="#f1_21" transform="matrix(11,0,0,11,728.4,507.3)" />
<use xlink:href="#f1_2g" transform="matrix(11,0,0,11,742.7,507.3)" />
<use xlink:href="#f1_24" transform="matrix(11,0,0,11,748.9,507.3)" />
<use xlink:href="#f1_21" transform="matrix(11,0,0,11,759.9,507.3)" />
<use xlink:href="#f1_25" transform="matrix(11,0,0,11,55,554.2)" />
<use xlink:href="#f1_2a" transform="matrix(11,0,0,11,60.1,554.2)" />
<use xlink:href="#f1_21" transform="matrix(11,0,0,11,71.1,554.2)" />
<use xlink:href="#f1_2d" transform="matrix(11,0,0,11,79.9,554.2)" />
<use xlink:href="#f1_2h" transform="matrix(11,0,0,11,89.8,554.2)" />
<use xlink:href="#f1_1x" transform="matrix(11,0,0,11,101.2,554.2)" />
<use xlink:href="#f1_28" transform="matrix(11,0,0,11,111.1,554.2)" />
<use xlink:href="#f1_25" transform="matrix(11,0,0,11,116.2,554.2)" />
<use xlink:href="#f1_2g" transform="matrix(11,0,0,11,121.3,554.2)" />
<use xlink:href="#f1_2l" transform="matrix(11,0,0,11,127.5,554.2)" />
<use xlink:href="#f1_22" transform="matrix(11,0,0,11,141.8,554.2)" />
<use xlink:href="#f1_2b" transform="matrix(11,0,0,11,147.3,554.2)" />
<use xlink:href="#f1_2e" transform="matrix(11,0,0,11,156.8,554.2)" />
<use xlink:href="#f3_3d" transform="matrix(11,0,0,11,55,792.2)" />
<use xlink:href="#f1_25" transform="matrix(11,0,0,11,82.5,792.2)" />
<use xlink:href="#f1_2f" transform="matrix(11,0,0,11,87.6,792.2)" />
<use xlink:href="#f1_2g" transform="matrix(11,0,0,11,101.9,792.2)" />
<use xlink:href="#f1_24" transform="matrix(11,0,0,11,108.2,792.2)" />
<use xlink:href="#f1_21" transform="matrix(11,0,0,11,119.2,792.2)" />
<use xlink:href="#f1_1z" transform="matrix(11,0,0,11,133.5,792.2)" />
<use xlink:href="#f1_21" transform="matrix(11,0,0,11,142.2,792.2)" />
<use xlink:href="#f1_2a" transform="matrix(11,0,0,11,151,792.2)" />
<use xlink:href="#f1_2g" transform="matrix(11,0,0,11,162,792.2)" />
<use xlink:href="#f1_2e" transform="matrix(11,0,0,11,168.3,792.2)" />
<use xlink:href="#f1_21" transform="matrix(11,0,0,11,175.6,792.2)" />
<use xlink:href="#f1_2b" transform="matrix(11,0,0,11,189.9,792.2)" />
<use xlink:href="#f1_22" transform="matrix(11,0,0,11,199.4,792.2)" />
<use xlink:href="#f1_2g" transform="matrix(11,0,0,11,210,792.2)" />
<use xlink:href="#f1_24" transform="matrix(11,0,0,11,216.3,792.2)" />
<use xlink:href="#f1_21" transform="matrix(11,0,0,11,227.3,792.2)" />
<use xlink:href="#f1_2h" transform="matrix(11,0,0,11,241.5,792.2)" />
<use xlink:href="#f1_2a" transform="matrix(11,0,0,11,252.9,792.2)" />
<use xlink:href="#f1_25" transform="matrix(11,0,0,11,263.9,792.2)" />
<use xlink:href="#f1_2g" transform="matrix(11,0,0,11,269,792.2)" />
<use xlink:href="#f1_1z" transform="matrix(11,0,0,11,280.7,792.2)" />
<use xlink:href="#f1_25" transform="matrix(11,0,0,11,289.5,792.2)" />
<use xlink:href="#f1_2e" transform="matrix(11,0,0,11,294.7,792.2)" />
<use xlink:href="#f1_1z" transform="matrix(11,0,0,11,302,792.2)" />
<use xlink:href="#f1_28" transform="matrix(11,0,0,11,310.8,792.2)" />
<use xlink:href="#f1_21" transform="matrix(11,0,0,11,315.9,792.2)" />
<use xlink:href="#f1_2f" transform="matrix(11,0,0,11,329.8,792.2)" />
<use xlink:href="#f1_2h" transform="matrix(11,0,0,11,338.6,792.2)" />
<use xlink:href="#f1_1z" transform="matrix(11,0,0,11,350,792.2)" />
<use xlink:href="#f1_24" transform="matrix(11,0,0,11,358.8,792.2)" />
<use xlink:href="#f1_2g" transform="matrix(11,0,0,11,375.3,792.2)" />
<use xlink:href="#f1_24" transform="matrix(11,0,0,11,381.5,792.2)" />
<use xlink:href="#f1_1x" transform="matrix(11,0,0,11,392.5,792.2)" />
<use xlink:href="#f1_2g" transform="matrix(11,0,0,11,402.4,792.2)" />
<use xlink:href="#f1_2g" transform="matrix(11,0,0,11,414.1,792.2)" />
<use xlink:href="#f1_24" transform="matrix(11,0,0,11,420.4,792.2)" />
<use xlink:href="#f1_21" transform="matrix(11,0,0,11,431.4,792.2)" />
<use xlink:href="#f1_1x" transform="matrix(11,0,0,11,445.6,792.2)" />
<use xlink:href="#f1_2a" transform="matrix(11,0,0,11,455.2,792.2)" />
<use xlink:href="#f1_23" transform="matrix(11,0,0,11,466.2,792.2)" />
<use xlink:href="#f1_28" transform="matrix(11,0,0,11,475.3,792.2)" />
<use xlink:href="#f1_21" transform="matrix(11,0,0,11,480.4,792.2)" />
<use xlink:href="#f1_11" transform="matrix(11,0,0,11,494.7,792.2)" />
<use xlink:href="#f1_2z" transform="matrix(11,0,0,11,506.1,792.2)" />
<use xlink:href="#f1_13" transform="matrix(11,0,0,11,519.6,792.2)" />
<use xlink:href="#f1_25" transform="matrix(11,0,0,11,537.2,792.2)" />
<use xlink:href="#f1_2f" transform="matrix(11,0,0,11,542.3,792.2)" />
<use xlink:href="#f1_2k" transform="matrix(11,0,0,11,556.3,792.2)" />
<use xlink:href="#f1_2e" transform="matrix(11,0,0,11,571.2,792.2)" />
<use xlink:href="#f1_1x" transform="matrix(11,0,0,11,578.6,792.2)" />
<use xlink:href="#f1_20" transform="matrix(11,0,0,11,588.1,792.2)" />
<use xlink:href="#f1_25" transform="matrix(11,0,0,11,598.7,792.2)" />
<use xlink:href="#f1_1x" transform="matrix(11,0,0,11,603.8,792.2)" />
<use xlink:href="#f1_2a" transform="matrix(11,0,0,11,613.7,792.2)" />
<use xlink:href="#f1_2f" transform="matrix(11,0,0,11,624.7,792.2)" />
<use xlink:href="#f1_1x" transform="matrix(11,0,0,11,638.6,792.2)" />
<use xlink:href="#f1_2a" transform="matrix(11,0,0,11,648.5,792.2)" />
<use xlink:href="#f1_20" transform="matrix(11,0,0,11,659.5,792.2)" />
<use xlink:href="#f3_3d" transform="matrix(11,0,0,11,55,814.2)" />
<use xlink:href="#f1_2y" transform="matrix(11,0,0,11,82.5,814.2)" />
<use xlink:href="#f1_25" transform="matrix(11,0,0,11,92.8,814.2)" />
<use xlink:href="#f1_2a" transform="matrix(11,0,0,11,97.9,814.2)" />
<use xlink:href="#f1_21" transform="matrix(11,0,0,11,108.9,814.2)" />
<use xlink:href="#f1_2f" transform="matrix(11,0,0,11,123.2,814.2)" />
<use xlink:href="#f1_21" transform="matrix(11,0,0,11,132,814.2)" />
<use xlink:href="#f1_23" transform="matrix(11,0,0,11,140.4,814.2)" />
<use xlink:href="#f1_29" transform="matrix(11,0,0,11,149.6,814.2)" />
<use xlink:href="#f1_21" transform="matrix(11,0,0,11,165.3,814.2)" />
<use xlink:href="#f1_2a" transform="matrix(11,0,0,11,174.1,814.2)" />
<use xlink:href="#f1_2g" transform="matrix(11,0,0,11,185.1,814.2)" />
<use xlink:href="#f1_2f" transform="matrix(11,0,0,11,191.4,814.2)" />
<use xlink:href="#f1_2t" transform="matrix(11,0,0,11,205.7,814.2)" />
<use xlink:href="#f1_11" transform="matrix(11,0,0,11,223.6,814.2)" />
<use xlink:href="#f1_1x" transform="matrix(11,0,0,11,240.1,814.2)" />
<use xlink:href="#f1_2a" transform="matrix(11,0,0,11,250,814.2)" />
<use xlink:href="#f1_20" transform="matrix(11,0,0,11,261,814.2)" />
<use xlink:href="#f1_13" transform="matrix(11,0,0,11,277.3,814.2)" />
<use xlink:href="#f1_2u" transform="matrix(11,0,0,11,289.4,814.2)" />
<use xlink:href="#f1_1x" transform="matrix(11,0,0,11,308.4,814.2)" />
<use xlink:href="#f1_2e" transform="matrix(11,0,0,11,318.3,814.2)" />
<use xlink:href="#f1_21" transform="matrix(11,0,0,11,325.6,814.2)" />
<use xlink:href="#f1_2c" transform="matrix(11,0,0,11,339.6,814.2)" />
<use xlink:href="#f1_21" transform="matrix(11,0,0,11,349.8,814.2)" />
<use xlink:href="#f1_2e" transform="matrix(11,0,0,11,358.6,814.2)" />
<use xlink:href="#f1_2c" transform="matrix(11,0,0,11,366,814.2)" />
<use xlink:href="#f1_21" transform="matrix(11,0,0,11,376.6,814.2)" />
<use xlink:href="#f1_2a" transform="matrix(11,0,0,11,385.4,814.2)" />
<use xlink:href="#f1_20" transform="matrix(11,0,0,11,396,814.2)" />
<use xlink:href="#f1_25" transform="matrix(11,0,0,11,406.6,814.2)" />
<use xlink:href="#f1_1z" transform="matrix(11,0,0,11,411.7,814.2)" />
<use xlink:href="#f1_2h" transform="matrix(11,0,0,11,420.5,814.2)" />
<use xlink:href="#f1_28" transform="matrix(11,0,0,11,431.9,814.2)" />
<use xlink:href="#f1_1x" transform="matrix(11,0,0,11,437,814.2)" />
<use xlink:href="#f1_2e" transform="matrix(11,0,0,11,446.9,814.2)" />
<use xlink:href="#f1_2f" transform="matrix(11,0,0,11,453.9,814.2)" />
<use xlink:href="#f1_2g" transform="matrix(11,0,0,11,468.2,814.2)" />
<use xlink:href="#f1_2b" transform="matrix(11,0,0,11,474.4,814.2)" />
<use xlink:href="#f1_2z" transform="matrix(11,0,0,11,489.4,814.2)" />
<use xlink:href="#f1_11" transform="matrix(11,0,0,11,502.9,814.2)" />
<use xlink:href="#f1_i" transform="matrix(11,0,0,11,514.3,814.2)" />
<use xlink:href="#f1_2v" transform="matrix(11,0,0,11,524.9,814.2)" />
<use xlink:href="#f1_2h" transform="matrix(11,0,0,11,535.5,814.2)" />
<use xlink:href="#f1_2e" transform="matrix(11,0,0,11,546.9,814.2)" />
<use xlink:href="#f1_2g" transform="matrix(11,0,0,11,554.2,814.2)" />
<use xlink:href="#f1_24" transform="matrix(11,0,0,11,560.5,814.2)" />
<use xlink:href="#f1_21" transform="matrix(11,0,0,11,571.5,814.2)" />
<use xlink:href="#f1_2e" transform="matrix(11,0,0,11,580.2,814.2)" />
<use xlink:href="#f1_g" transform="matrix(11,0,0,11,587.6,814.2)" />
<use xlink:href="#f1_36" transform="matrix(11,0,0,11,598.6,814.2)" />
<use xlink:href="#f1_2b" transform="matrix(11,0,0,11,603.7,814.2)" />
<use xlink:href="#f1_25" transform="matrix(11,0,0,11,613.2,814.2)" />
<use xlink:href="#f1_2a" transform="matrix(11,0,0,11,618.3,814.2)" />
<use xlink:href="#f1_11" transform="matrix(11,0,0,11,634.8,814.2)" />
<use xlink:href="#f1_13" transform="matrix(11,0,0,11,646.2,814.2)" />
<use xlink:href="#f1_i" transform="matrix(11,0,0,11,658.6,814.2)" />
<use xlink:href="#f1_1k" transform="matrix(11,0,0,11,669.2,814.2)" />
<use xlink:href="#f1_24" transform="matrix(11,0,0,11,679.1,814.2)" />
<use xlink:href="#f1_21" transform="matrix(11,0,0,11,690.1,814.2)" />
<use xlink:href="#f1_2a" transform="matrix(11,0,0,11,698.9,814.2)" />
<use xlink:href="#f3_3d" transform="matrix(11,0,0,11,55,836.6)" />
<use xlink:href="#f2_11" transform="matrix(11,0,0,11,82.5,836.6)" />
<use xlink:href="#f2_2e" transform="matrix(11,0,0,11,93.9,836.6)" />
<use xlink:href="#f2_21" transform="matrix(11,0,0,11,101.2,836.6)" />
<use xlink:href="#f2_1x" transform="matrix(11,0,0,11,110,836.6)" />
<use xlink:href="#f2_2b" transform="matrix(11,0,0,11,125.4,836.6)" />
<use xlink:href="#f2_22" transform="matrix(11,0,0,11,134.9,836.6)" />
<use xlink:href="#f2_4p" transform="matrix(11,0,0,11,145.5,836.6)" />
<use xlink:href="#f2_1f" transform="matrix(11,0,0,11,155.8,836.6)" />
<use xlink:href="#f2_11" transform="matrix(11,0,0,11,169.3,836.6)" />
<use xlink:href="#f2_13" transform="matrix(11,0,0,11,180.7,836.6)" />
<use xlink:href="#f2_w" transform="matrix(11,0,0,11,198.3,836.6)" />
<use xlink:href="#f2_11" transform="matrix(11,0,0,11,214,836.6)" />
<use xlink:href="#f2_2e" transform="matrix(11,0,0,11,225.4,836.6)" />
<use xlink:href="#f2_21" transform="matrix(11,0,0,11,232.8,836.6)" />
<use xlink:href="#f2_1x" transform="matrix(11,0,0,11,241.5,836.6)" />
<use xlink:href="#f2_2b" transform="matrix(11,0,0,11,256.6,836.6)" />
<use xlink:href="#f2_22" transform="matrix(11,0,0,11,266.1,836.6)" />
<use xlink:href="#f2_2f" transform="matrix(11,0,0,11,276.7,836.6)" />
<use xlink:href="#f2_21" transform="matrix(11,0,0,11,285.5,836.6)" />
<use xlink:href="#f2_1z" transform="matrix(11,0,0,11,294.3,836.6)" />
<use xlink:href="#f2_2g" transform="matrix(11,0,0,11,303,836.6)" />
<use xlink:href="#f2_2b" transform="matrix(11,0,0,11,309.3,836.6)" />
<use xlink:href="#f2_2e" transform="matrix(11,0,0,11,318.8,836.6)" />
<use xlink:href="#f2_1f" transform="matrix(11,0,0,11,331.3,836.6)" />
<use xlink:href="#f2_11" transform="matrix(11,0,0,11,344.8,836.6)" />
<use xlink:href="#f2_13" transform="matrix(11,0,0,11,356.2,836.6)" />
<use xlink:href="#f2_w" transform="matrix(11,0,0,11,374.1,836.6)" />
<use xlink:href="#f2_11" transform="matrix(11,0,0,11,389.5,836.6)" />
<use xlink:href="#f2_2e" transform="matrix(11,0,0,11,400.9,836.6)" />
<use xlink:href="#f2_21" transform="matrix(11,0,0,11,408.2,836.6)" />
<use xlink:href="#f2_1x" transform="matrix(11,0,0,11,417,836.6)" />
<use xlink:href="#f2_2b" transform="matrix(11,0,0,11,432,836.6)" />
<use xlink:href="#f2_22" transform="matrix(11,0,0,11,441.5,836.6)" />
<use xlink:href="#f2_4p" transform="matrix(11,0,0,11,452.2,836.6)" />
<use xlink:href="#f1_2z" transform="matrix(11,0,0,11,468.4,836.6)" />
<use xlink:href="#f1_11" transform="matrix(11,0,0,11,482,836.6)" />
<use xlink:href="#f1_2t" transform="matrix(11,0,0,11,493.3,836.6)" />
</g>
<image preserveAspectRatio="none" x="55" y="95" width="290" height="184" xlink:href="img/1.png" />
<image preserveAspectRatio="none" x="55" y="394" width="269" height="49" xlink:href="img/2.png" />
<image preserveAspectRatio="none" x="169" y="513" width="74" height="40" xlink:href="img/3.png" />
<image preserveAspectRatio="none" x="55" y="572" width="147" height="165" xlink:href="img/4.png" />
<image preserveAspectRatio="none" x="676" y="750" width="71" height="42" xlink:href="img/5.png" />
<path fill-rule="evenodd" d="M37.4,38.1h.7v-.7h-.7v.7Z" class="g0_67" />
<path fill-rule="evenodd" d="M37.4,38.1h.7v-.7h-.7v.7Z" class="g0_67" />
<path fill-rule="evenodd" d="M871.5,38.1h.8v-.7h-.8v.7Z" class="g0_67" />
<path fill-rule="evenodd" d="M871.5,38.1h.8v-.7h-.8v.7Z" class="g0_67" />
<path fill-rule="evenodd" d="M872.3,1248.5h.7V38.1h-.7V1248.5Z" class="g1_67" />
<path fill-rule="evenodd" d="M37.4,1249.2h.7v-.7h-.7v.7Z" class="g0_67" />
<path fill-rule="evenodd" d="M37.4,1249.2h.7v-.7h-.7v.7Z" class="g0_67" />
<path fill-rule="evenodd" d="M38.1,1249.9H871.5v-.7H38.1v.7Z" class="g1_67" />
<path fill-rule="evenodd" d="M872.3,1249.9h.7v-1.4h-.7v1.4Z" class="g1_67" />
<path fill-rule="evenodd" d="M871.5,1249.9H873v-.7h-1.5v.7Z" class="g1_67" />
<path fill-rule="evenodd" d="M871.5,1249.2h.8v-.7h-.8v.7Z" class="g0_67" />
<path fill-rule="evenodd" d="M871.5,1249.2h.8v-.7h-.8v.7Z" class="g0_67" />
<g fill="#000000" >
<use xlink:href="#f4_o" transform="matrix(8,0,0,8,792.5,1225.6)" />
</g>
<defs>
<path d="M280,0V144h30c0,0,51,0,66,6c0,0,14,6,21,22c0,0,8,17,8,67V851c0,0,0,26,-6,33c0,0,-6,7,-26,7c0,0,-38,0,-86,-29c0,0,-48,-29,-85,-82c0,0,-15,-21,-63,-118L2,711l128,365h99l10,-36H826l13,36h99L1067,711L928,662c0,0,-46,91,-66,119c0,0,-40,55,-92,86c0,0,-38,24,-77,24c0,0,-18,0,-24,-9c0,0,-7,-8,-7,-39V244c0,0,0,-53,4,-66c0,0,3,-13,12,-21c0,0,9,-8,25,-11c0,0,16,-2,84,-2V0Z" 
id="f0_1k"
transform="scale(0.001,-0.001)" />

<path d="M469,144c0,0,66,0,113,55c0,0,47,56,47,172c0,0,0,114,-44,170c0,0,-43,57,-111,57c0,0,-43,0,-80,-25c0,0,-37,-25,-58,-74c0,0,-20,-49,-20,-125c0,0,0,-78,20,-130c0,0,20,-51,55,-76c0,0,36,-24,78,-24Zm5,-161c0,0,-193,0,-307,109C167,92,57,196,57,374c0,0,0,117,50,201c0,0,50,85,146,136c0,0,95,51,218,51c0,0,127,0,222,-50c0,0,95,-50,146,-136c0,0,51,-86,51,-202c0,0,0,-174,-113,-283C777,91,663,-17,474,-17Z" 
id="f0_2b"
transform="scale(0.001,-0.001)" />

<path d="M532,575c0,0,81,0,119,17c0,0,38,16,61,51c0,0,23,35,23,83c0,0,0,71,-55,113c0,0,-41,31,-121,31H443V575ZM61,0V144H96c0,0,46,0,61,6c0,0,15,7,22,22c0,0,7,14,7,60V804c0,0,0,48,-6,63c0,0,-6,15,-19,23c0,0,-13,7,-50,7H61v143H611c0,0,104,0,173,-21c0,0,69,-21,119,-64c0,0,49,-44,76,-103c0,0,27,-59,27,-126c0,0,0,-133,-102,-223c0,0,-103,-90,-284,-90H443V218c0,0,0,-37,5,-47c0,0,7,-14,21,-21c0,0,13,-6,46,-6h53V0Z" 
id="f0_1g"
transform="scale(0.001,-0.001)" />

<path d="M65,0V144h38c0,0,41,0,51,4c0,0,10,5,16,16c0,0,5,11,5,50V556H65L64,699c0,0,122,8,253,63h70V654c0,0,60,62,104,85c0,0,44,23,84,23c0,0,37,0,66,-17c0,0,28,-17,45,-48c0,0,17,-32,17,-67c0,0,0,-47,-31,-85c0,0,-31,-38,-87,-38c0,0,-15,0,-27,2c0,0,-11,2,-49,15c0,0,-19,6,-32,6c0,0,-19,0,-64,-25V214c0,0,0,-37,5,-49c0,0,6,-11,18,-16c0,0,13,-5,55,-5h33V0Z" 
id="f0_2e"
transform="scale(0.001,-0.001)" />

<path d="M359,0L104,552c0,0,-9,18,-23,32c0,0,-11,10,-25,13c0,0,-9,3,-54,3V744H460V600H436c0,0,-45,0,-55,-6c0,0,-14,-9,-14,-23c0,0,0,-12,9,-36L493,246L613,535c0,0,10,25,10,37c0,0,0,15,-16,22c0,0,-12,6,-53,6H519V744H915V600c0,0,-50,0,-58,-3c0,0,-13,-3,-26,-18c0,0,-14,-14,-28,-44L559,0Z" 
id="f0_33"
transform="scale(0.001,-0.001)" />

<path d="M583,491c0,0,-5,45,-22,71c0,0,-16,25,-43,41c0,0,-27,15,-57,15c0,0,-32,0,-61,-16c0,0,-29,-15,-47,-42c0,0,-17,-27,-23,-69ZM457,-17c0,0,-170,0,-286,115C171,98,55,213,55,376c0,0,0,107,52,196c0,0,52,89,145,139c0,0,92,51,209,51c0,0,75,0,136,-22c0,0,61,-22,107,-62c0,0,46,-40,73,-97c0,0,28,-57,39,-118c0,0,4,-31,4,-97H319c0,0,1,-95,55,-153c0,0,54,-58,133,-58c0,0,50,0,109,30c0,0,58,30,116,91L834,173C834,173,746,73,655,27c0,0,-92,-44,-198,-44Z" 
id="f0_21"
transform="scale(0.001,-0.001)" />

<path d="M261,-11c0,0,-58,0,-99,40c0,0,-41,41,-41,98c0,0,0,58,41,98c0,0,41,41,99,41c0,0,57,0,98,-41c0,0,41,-40,41,-98c0,0,0,-57,-41,-98c0,0,-41,-40,-98,-40Zm-1,493c0,0,-57,0,-98,41c0,0,-41,41,-41,99c0,0,0,57,42,98c0,0,41,42,98,42c0,0,57,0,98,-41c0,0,41,-41,41,-99c0,0,0,-58,-41,-99c0,0,-41,-41,-99,-41Z" 
id="f0_2u"
transform="scale(0.001,-0.001)" />

<path d="M61,0V144H97c0,0,45,0,55,4c0,0,9,5,14,16c0,0,5,12,5,57V587H61V744H171v78c0,0,0,83,29,133c0,0,35,62,111,101c0,0,76,39,182,39c0,0,112,0,175,-47c0,0,63,-48,63,-105c0,0,0,-46,-28,-74c0,0,-29,-29,-76,-29c0,0,-19,0,-36,6c0,0,-18,5,-33,16c0,0,-12,8,-39,38c0,0,-25,28,-34,33c0,0,-11,7,-21,7c0,0,-26,0,-41,-24c0,0,-14,-24,-14,-94V744H530V587H409V221c0,0,0,-44,3,-53c0,0,6,-12,18,-18c0,0,11,-6,49,-6h41V0Z" 
id="f0_22"
transform="scale(0.001,-0.001)" />

<path d="M423,0L141,879c0,0,-21,64,-51,84c0,0,-22,15,-71,15v62H393V978H353c0,0,-38,0,-53,-8c0,0,-21,-12,-21,-36c0,0,0,-17,12,-55L504,186L690,757L646,893c0,0,-16,50,-48,72c0,0,-19,13,-68,13v62H900V978H865c0,0,-45,0,-61,-11c0,0,-16,-12,-16,-31c0,0,0,-17,12,-57L1014,181l216,698c0,0,11,37,11,56c0,0,0,22,-15,32c0,0,-15,11,-59,11h-37v62h318V978c0,0,-1,0,-3,0c-9,0,-41,-1,-57,-8c0,0,-20,-9,-33,-25c0,0,-12,-16,-27,-66L1041,0H932L732,623L530,0Z" 
id="f1_35"
transform="scale(0.001,-0.001)" />

<path d="M598,494c0,0,-11,68,-31,101c0,0,-21,33,-58,52c0,0,-38,20,-85,20c0,0,-47,0,-88,-20c0,0,-41,-19,-68,-53c0,0,-27,-35,-47,-100ZM433,-17c0,0,-110,0,-187,44c0,0,-88,52,-135,134c0,0,-46,83,-46,195c0,0,0,118,45,202c0,0,45,83,127,131c0,0,82,48,189,48c0,0,80,0,139,-25c0,0,59,-25,100,-75c0,0,41,-50,59,-115c0,0,11,-37,12,-98H210c0,0,-3,-36,-3,-54c0,0,0,-94,33,-168c0,0,33,-73,87,-108c0,0,54,-34,122,-34c0,0,58,0,113,27c0,0,54,27,131,106l48,-39C741,154,687,89,636,51c0,0,-51,-38,-97,-52c0,0,-45,-16,-106,-16Z" 
id="f1_21"
transform="scale(0.001,-0.001)" />

<path d="M45,0V63c0,0,65,0,80,5c0,0,26,8,37,29c0,0,12,21,12,81V970H45v62c0,0,95,7,197,62h57V350L573,568c0,0,66,52,66,69c0,0,0,10,-14,16c0,0,-9,4,-44,4H541v63H920V657c0,0,-64,0,-102,-13c0,0,-38,-13,-88,-51L515,427L769,149c0,0,36,-40,60,-57c0,0,23,-16,46,-22c0,0,23,-7,72,-7V0H551V63h30c0,0,46,0,58,7c0,0,12,7,12,19c0,0,0,12,-23,34c0,0,-3,4,-8,10L421,359L299,267V169c0,0,0,-54,8,-71c0,0,9,-18,26,-26c0,0,18,-9,68,-9h27V0Z" 
id="f1_27"
transform="scale(0.001,-0.001)" />

<path d="M56,0V63H74c0,0,56,0,76,9c0,0,20,9,28,33c0,0,5,12,5,83V613H56v62c0,0,66,7,99,18c0,0,33,10,94,44h54V595c0,0,98,83,168,113c0,0,70,29,141,29c0,0,61,0,108,-20c0,0,47,-21,77,-56c0,0,29,-35,39,-80c0,0,6,-27,6,-83V170c0,0,0,-59,8,-76c0,0,9,-16,28,-24c0,0,18,-7,91,-7V0H586V63h21c0,0,54,0,73,9c0,0,19,10,28,29c0,0,9,18,9,76V451c0,0,0,85,-14,118c0,0,-14,32,-47,53c0,0,-33,20,-84,20c0,0,-61,0,-129,-31c0,0,-69,-30,-133,-91V177c0,0,0,-58,9,-78c0,0,8,-19,28,-29c0,0,13,-7,71,-7h22V0Z" 
id="f1_2a"
transform="scale(0.001,-0.001)" />

<path d="M427,50c0,0,63,0,113,33c0,0,49,34,80,107c0,0,30,74,30,173c0,0,0,96,-32,173c0,0,-26,61,-77,95c0,0,-51,34,-115,34c0,0,-85,0,-143,-67c0,0,-75,-84,-75,-243c0,0,0,-153,64,-234c0,0,57,-71,155,-71Zm-4,-67c0,0,-180,0,-271,112c0,0,-90,112,-90,264c0,0,0,111,47,198c0,0,46,86,131,133c0,0,85,47,192,47c0,0,109,0,190,-45c0,0,80,-46,126,-133c0,0,46,-87,46,-199c0,0,0,-112,-47,-199C747,161,699,74,618,28c0,0,-82,-45,-195,-45Z" 
id="f1_2b"
transform="scale(0.001,-0.001)" />

<path d="M336,0L116,550c0,0,-20,53,-34,71c0,0,-13,17,-33,26c0,0,-20,10,-49,10v63H342V657H318c0,0,-44,0,-58,-7c0,0,-22,-10,-22,-32c0,0,0,-21,17,-68L409,142L560,522l-13,34c0,0,-24,61,-54,84c0,0,-20,15,-60,17v63H775V657H746c0,0,-41,0,-53,-7c0,0,-21,-12,-21,-38c0,0,0,-22,16,-62L842,142L993,556c0,0,12,34,13,38c0,0,2,9,2,18c0,0,0,20,-16,33c0,0,-17,12,-61,12H903v63h291V657c0,0,-32,-1,-53,-11c0,0,-20,-10,-32,-25c0,0,-12,-16,-34,-71L858,0H767L596,429L425,0Z" 
id="f1_2j"
transform="scale(0.001,-0.001)" />

<path d="M362,-17c0,0,-57,0,-103,25c0,0,-45,25,-62,59c0,0,-17,35,-17,120V645H49v63c0,0,63,14,102,44c0,0,38,29,62,77c0,0,24,48,39,144h53V720H527V645H305V196c0,0,0,-58,10,-82c0,0,10,-25,34,-41c0,0,25,-15,55,-15c0,0,70,0,156,63V49c0,0,-98,-66,-198,-66Z" 
id="f1_2g"
transform="scale(0.001,-0.001)" />

<path d="M56,0V63H79c0,0,54,0,79,13c0,0,13,7,19,26c0,0,6,19,6,107V967H56v65c0,0,72,9,112,22c0,0,40,13,84,40h58V601c0,0,84,71,160,103c0,0,75,33,144,33c0,0,100,0,166,-59c0,0,64,-60,64,-146V166c0,0,0,-54,8,-71c0,0,9,-17,29,-25c0,0,20,-7,90,-7V0H586V63h28c0,0,55,0,72,8c0,0,17,9,25,28c0,0,8,20,8,82V435c0,0,0,85,-6,110c0,0,-12,43,-47,69c0,0,-35,26,-89,26c0,0,-62,0,-128,-30c0,0,-67,-30,-139,-90V147c0,0,0,-42,7,-57c0,0,8,-14,25,-21c0,0,17,-6,68,-6h31V0Z" 
id="f1_24"
transform="scale(0.001,-0.001)" />

<path d="M326,73c0,0,48,0,109,23c0,0,62,24,157,91l1,180c0,0,-173,-26,-215,-35c0,0,-81,-19,-116,-41c0,0,-36,-23,-51,-48c0,0,-14,-26,-14,-55c0,0,0,-29,16,-56c0,0,17,-27,48,-43c0,0,30,-16,65,-16ZM291,-12c0,0,-103,0,-167,55c0,0,-64,56,-64,131c0,0,0,46,23,87c0,0,24,41,72,72c0,0,48,31,151,55c0,0,104,24,287,43v82c0,0,0,83,-47,118c0,0,-46,36,-131,36c0,0,-42,0,-73,-10c0,0,-31,-10,-51,-28c0,0,-19,-18,-28,-40c0,0,-3,-8,-18,-64c0,0,-17,-67,-69,-67c0,0,-30,0,-48,19c0,0,-18,20,-18,54c0,0,0,49,36,97c0,0,37,47,112,78c0,0,75,31,177,31c0,0,95,0,163,-29c0,0,68,-30,100,-85c0,0,23,-38,23,-138V198c0,0,0,-61,3,-79c0,0,9,-32,29,-48c0,0,21,-16,54,-16c0,0,34,0,82,15V5c0,0,-62,-17,-111,-17c0,0,-53,0,-89,14c0,0,-37,15,-60,44c0,0,-23,29,-30,68c0,0,-89,-70,-162,-98c0,0,-72,-28,-146,-28Z" 
id="f1_1x"
transform="scale(0.001,-0.001)" />

<path d="M450,-17c0,0,-126,0,-215,71L219,0H166L73,244l68,27c0,0,68,-107,128,-152c0,0,84,-63,182,-63c0,0,65,0,107,34c0,0,41,35,41,77c0,0,0,35,-26,64c0,0,-27,29,-103,56L298,349c0,0,-111,40,-154,88c0,0,-43,48,-43,110c0,0,0,75,70,133c0,0,71,57,180,57c0,0,56,0,101,-14c0,0,45,-15,88,-48l20,45h53L680,492L612,469c0,0,-40,92,-113,144c0,0,-73,53,-147,53c0,0,-58,0,-93,-28c0,0,-36,-28,-36,-65c0,0,0,-34,26,-58c0,0,25,-26,114,-58L509,406c0,0,123,-44,168,-94c0,0,44,-51,44,-115c0,0,0,-54,-33,-105c0,0,-33,-50,-95,-80c0,0,-63,-29,-143,-29Z" 
id="f1_2f"
transform="scale(0.001,-0.001)" />

<path d="M49,0V63H79c0,0,50,0,68,9c0,0,17,9,24,25c0,0,7,16,7,77V613H49v62c0,0,62,7,104,20c0,0,42,14,96,42h54V140c0,0,0,-32,9,-47c0,0,9,-16,25,-23c0,0,16,-7,58,-7h35V0ZM238,903c0,0,-36,0,-61,25c0,0,-25,25,-25,61c0,0,0,36,25,61c0,0,25,25,61,25c0,0,36,0,61,-25c0,0,26,-25,26,-61c0,0,0,-36,-26,-61c0,0,-25,-25,-61,-25Z" 
id="f1_25"
transform="scale(0.001,-0.001)" />

<path d="M369,-352c0,0,-73,64,-127,162c0,0,-55,98,-81,225c0,0,-27,128,-27,343c0,0,0,214,30,342c0,0,29,129,96,241c0,0,50,84,109,126l46,-46c0,0,-41,-42,-68,-104c0,0,-39,-94,-57,-219c0,0,-17,-126,-17,-355c0,0,0,-236,16,-354c0,0,17,-117,56,-209c0,0,27,-64,70,-110l-46,-42Z" 
id="f1_2n"
transform="scale(0.001,-0.001)" />

<path d="M-9,354v87H773V354Z" 
id="f2_4z"
transform="scale(0.001,-0.001)" />

<path d="M0,0V62c0,0,36,0,56,8c0,0,21,7,41,22c0,0,33,27,48,43L365,360L178,573c0,0,-35,40,-56,56c0,0,-20,16,-40,23c0,0,-19,6,-54,6v62H403V658H377c0,0,-22,0,-41,-5c0,0,-11,-3,-18,-12c0,0,-7,-8,-7,-16c0,0,0,-17,28,-52L446,439L570,573c0,0,34,37,34,56c0,0,0,14,-12,21c0,0,-12,8,-51,8H513v62H831V658c0,0,-47,-2,-81,-20c0,0,-34,-17,-80,-66L499,396L711,153l9,-11c0,0,31,-40,70,-65c0,0,21,-15,67,-15V0H491V62h31c0,0,36,0,46,4c0,0,16,8,16,26c0,0,0,16,-36,61L413,318L262,153L247,135l-9,-9c0,0,-18,-21,-18,-37c0,0,0,-14,11,-21c0,0,12,-6,52,-6h29V0Z" 
id="f1_2k"
transform="scale(0.001,-0.001)" />

<path d="M89,-352l-46,47c0,0,41,42,67,104c0,0,40,93,57,218c0,0,18,125,18,355c0,0,0,235,-17,353c0,0,-16,118,-55,210c0,0,-27,64,-70,109l46,43c0,0,73,-63,127,-161c0,0,54,-98,81,-226c0,0,27,-128,27,-343c0,0,0,-214,-30,-343c0,0,-29,-127,-96,-239c0,0,-51,-85,-109,-127Z" 
id="f1_2o"
transform="scale(0.001,-0.001)" />

<path d="M95,357v92H822V357Zm0,235v91H822V592Z" 
id="f1_2s"
transform="scale(0.001,-0.001)" />

<path d="M410,69c0,0,50,0,114,29c0,0,63,29,121,83V462c0,0,0,61,-22,99c0,0,-23,38,-75,67c0,0,-52,28,-106,28c0,0,-65,0,-120,-35c0,0,-55,-36,-86,-102c0,0,-31,-67,-31,-162c0,0,0,-89,29,-155c0,0,29,-65,77,-99c0,0,49,-34,99,-34ZM375,-17c0,0,-135,0,-224,108c0,0,-89,108,-89,261c0,0,0,109,47,199c0,0,47,91,125,139c0,0,77,47,170,47c0,0,71,0,131,-24c0,0,60,-25,110,-74V968H520v64c0,0,51,4,93,17c0,0,42,13,105,45h56V190c0,0,0,-63,3,-77c0,0,8,-28,26,-39c0,0,18,-11,69,-11h32V0L645,-11V107c0,0,-74,-68,-139,-96c0,0,-66,-28,-131,-28Z" 
id="f1_20"
transform="scale(0.001,-0.001)" />

<path d="M426,-17c0,0,-153,0,-258,108C168,91,63,200,63,362c0,0,0,108,48,194c0,0,49,86,136,134c0,0,87,47,200,47c0,0,128,0,214,-63c0,0,86,-63,86,-127c0,0,0,-34,-20,-53c0,0,-20,-19,-46,-19c0,0,-13,0,-26,7c0,0,-12,7,-26,22c0,0,-6,6,-22,41c0,0,-20,44,-31,59c0,0,-23,29,-57,47c0,0,-34,17,-76,17c0,0,-63,0,-117,-35c0,0,-54,-35,-86,-103c0,0,-32,-68,-32,-163c0,0,0,-147,79,-233c0,0,67,-74,161,-74c0,0,44,0,88,14c0,0,44,15,84,43c0,0,29,20,95,91l48,-38C763,170,622,-17,426,-17Z" 
id="f1_1z"
transform="scale(0.001,-0.001)" />

<path d="M244,-12c0,0,-38,0,-66,27c0,0,-27,27,-27,66c0,0,0,39,27,66c0,0,27,27,66,27c0,0,40,0,67,-27c0,0,27,-27,27,-66c0,0,0,-39,-27,-66c0,0,-28,-27,-67,-27Z" 
id="f1_i"
transform="scale(0.001,-0.001)" />

<path d="M72,0V63H98c0,0,58,0,73,6c0,0,14,6,23,24c0,0,8,18,8,63V873c0,0,0,49,-7,68c0,0,-8,19,-25,28c0,0,-17,9,-56,9H72v62H473V978H446c0,0,-48,0,-68,-9c0,0,-21,-9,-29,-32c0,0,-7,-16,-7,-70V577H882V859c0,0,0,59,-4,71c0,0,-6,24,-26,36c0,0,-20,12,-60,12H751v62h399V978h-36c0,0,-42,0,-60,-10c0,0,-17,-9,-24,-25c0,0,-8,-16,-8,-70V165c0,0,0,-59,8,-75c0,0,7,-16,30,-23c0,0,13,-4,90,-4V0H751V63h29c0,0,55,0,74,7c0,0,18,7,23,24c0,0,5,12,5,79V497H342V165c0,0,0,-59,8,-75c0,0,8,-17,30,-23c0,0,17,-4,93,-4V0Z" 
id="f1_2w"
transform="scale(0.001,-0.001)" />

<path d="M166,-269l-41,49c0,0,154,125,154,208c0,0,0,10,-2,23c0,0,-13,-5,-25,-8C252,3,240,0,230,0c0,0,-36,0,-58,23c0,0,-21,23,-21,59c0,0,0,35,26,61c0,0,26,26,62,26c0,0,51,0,88,-40c0,0,36,-41,36,-105c0,0,0,-41,-17,-87c0,0,-18,-46,-50,-85c0,0,-33,-39,-130,-121Z" 
id="f1_g"
transform="scale(0.001,-0.001)" />

<path d="M414,-17c0,0,-58,0,-101,16c0,0,-43,15,-75,46c0,0,-33,31,-50,76c0,0,-17,44,-17,94V554c0,0,0,46,-8,64c0,0,-8,18,-27,29c0,0,-19,11,-52,11H16v63l282,10V251c0,0,0,-63,18,-100c0,0,17,-38,53,-58c0,0,37,-21,85,-21c0,0,60,0,135,32c0,0,76,32,151,96V548c0,0,0,55,-8,72c0,0,-8,17,-29,28c0,0,-21,10,-66,10H583v63l282,10V175c0,0,0,-54,9,-75c0,0,9,-20,27,-29c0,0,17,-8,70,-8h23V0L747,-12V126C747,126,645,44,569,13c0,0,-76,-30,-155,-30Z" 
id="f1_2h"
transform="scale(0.001,-0.001)" />

<path d="M51,0V63H74c0,0,59,0,75,7c0,0,16,8,23,24c0,0,7,17,6,77V643H51v77H178V832c0,0,0,115,76,189c0,0,77,73,200,73c0,0,82,0,128,-34c0,0,46,-34,46,-75c0,0,0,-26,-19,-45c0,0,-18,-18,-45,-18c0,0,-25,0,-43,9c0,0,-18,9,-55,45c0,0,-39,37,-75,37c0,0,-25,0,-45,-15c0,0,-19,-16,-30,-45c0,0,-11,-30,-11,-91V720H445V643H305V159c0,0,0,-50,8,-66c0,0,7,-17,22,-24c0,0,15,-6,69,-6h31V0Z" 
id="f1_22"
transform="scale(0.001,-0.001)" />

<path d="M504,63c0,0,97,0,168,73c0,0,71,73,71,221c0,0,0,138,-59,214c0,0,-59,75,-139,75c0,0,-52,0,-114,-27c0,0,-61,-28,-131,-83V280c0,0,0,-51,6,-75c0,0,9,-38,35,-69c0,0,26,-30,70,-52c0,0,44,-21,93,-21ZM48,-331v62H81c0,0,52,0,67,8c0,0,15,8,23,24c0,0,4,13,4,78V613H48v62c0,0,56,0,99,14c0,0,43,14,94,48h59V613c0,0,93,74,155,99c0,0,62,25,124,25c0,0,128,0,218,-100c0,0,90,-99,90,-260c0,0,0,-177,-102,-290C785,87,691,-17,544,-17c0,0,-73,0,-137,27c0,0,-46,20,-107,70V-165c0,0,0,-55,3,-65c0,0,4,-14,15,-24c0,0,11,-10,28,-13c0,0,13,-2,85,-2v-62Z" 
id="f1_2c"
transform="scale(0.001,-0.001)" />

<path d="M54,0V63H86c0,0,45,0,60,8c0,0,19,11,28,31c0,0,10,20,10,71V613H55v62c0,0,54,4,97,18c0,0,42,13,96,44h56V596c0,0,53,65,123,103c0,0,70,38,126,38c0,0,56,0,88,-26c0,0,32,-26,32,-63c0,0,0,-27,-22,-48c0,0,-21,-20,-51,-20c0,0,-13,0,-23,4c0,0,-10,3,-28,16c0,0,-41,27,-69,27c0,0,-37,0,-82,-32c0,0,-57,-40,-89,-79V173c0,0,0,-45,5,-61c0,0,5,-16,16,-27c0,0,11,-12,28,-17c0,0,16,-5,57,-5h25V0Z" 
id="f1_2e"
transform="scale(0.001,-0.001)" />

<path d="M350,0L112,569c0,0,-15,35,-33,58c0,0,-12,14,-31,22c0,0,-20,8,-46,8v63H342V657H322c0,0,-43,0,-53,-3c0,0,-15,-4,-23,-14c0,0,-7,-10,-7,-23c0,0,0,-19,16,-60L425,132L590,557c0,0,15,40,15,59c0,0,0,19,-15,30c0,0,-15,11,-53,11H501v63H795V657c0,0,-30,-1,-51,-10c0,0,-20,-9,-32,-23c0,0,-11,-14,-34,-67L441,0Z" 
id="f1_2i"
transform="scale(0.001,-0.001)" />

<path d="M414,67c0,0,47,0,101,22c0,0,54,21,123,73V443c0,0,0,77,-22,116c0,0,-21,40,-74,68c0,0,-52,29,-109,29c0,0,-63,0,-118,-35c0,0,-55,-36,-87,-103c0,0,-31,-67,-31,-160c0,0,0,-131,64,-211c0,0,65,-80,153,-80Zm97,-398v62h33c0,0,44,0,60,8c0,0,16,8,25,25c0,0,9,17,9,60V89c0,0,-32,-30,-80,-55C558,34,511,9,459,-5c0,0,-39,-12,-83,-12c0,0,-87,0,-161,45c0,0,-73,45,-118,133c0,0,-44,87,-44,195c0,0,0,150,89,259c0,0,100,122,260,122c0,0,70,0,124,-23c0,0,55,-23,126,-89l32,95h81V-159c0,0,0,-55,6,-71c0,0,10,-21,28,-30c0,0,18,-9,65,-9h33v-62Z" 
id="f1_2d"
transform="scale(0.001,-0.001)" />

<path d="M48,0V63H87c0,0,36,0,54,11c0,0,18,11,26,30c0,0,8,19,8,77V970H48v62c0,0,101,7,197,62h55V176c0,0,0,-58,8,-73c0,0,9,-21,28,-31c0,0,19,-9,71,-9h24V0Z" 
id="f1_28"
transform="scale(0.001,-0.001)" />

<path d="M137,-342c0,0,-77,0,-123,35c0,0,-38,30,-38,75c0,0,0,27,17,46c0,0,16,18,39,18c0,0,18,0,33,-8c0,0,10,-3,41,-31c0,0,37,-33,52,-41c0,0,15,-7,30,-7c0,0,31,0,61,21c0,0,29,21,50,59c0,0,30,54,49,102L379,0L133,551c0,0,-26,58,-44,78c0,0,-18,21,-36,25c0,0,-10,3,-60,3v63H354V657H324c0,0,-43,0,-51,-2c0,0,-10,-3,-16,-13c0,0,-7,-9,-7,-23c0,0,0,-20,20,-68L444,145L604,533c0,0,29,69,29,91c0,0,0,17,-13,25c0,0,-13,8,-58,8H527v63H832V657H815c0,0,-45,0,-59,-6c0,0,-13,-6,-26,-24c0,0,-12,-18,-40,-83L416,-92c0,0,-30,-69,-66,-128c0,0,-36,-58,-92,-90c0,0,-55,-32,-121,-32Z" 
id="f1_2l"
transform="scale(0.001,-0.001)" />

<path d="M273,157c0,0,-114,0,-193,80C80,237,0,317,0,431c0,0,0,112,80,192c0,0,79,80,193,80c0,0,113,0,192,-80c0,0,80,-80,80,-192c0,0,0,-114,-80,-194c0,0,-79,-80,-192,-80Z" 
id="f3_3d"
transform="scale(0.001,-0.001)" />

<path d="M413,-272c0,0,102,0,175,22c0,0,73,22,104,56c0,0,24,27,24,64c0,0,0,31,-20,53c0,0,-19,21,-71,37c0,0,-53,16,-99,24L285,21c0,0,-72,-60,-95,-98c0,0,-24,-38,-24,-73c0,0,0,-30,24,-58c0,0,23,-28,80,-46c0,0,57,-18,143,-18Zm-7,571c0,0,47,0,89,25c0,0,42,24,65,66c0,0,23,42,23,94c0,0,0,82,-50,133c0,0,-50,51,-128,51c0,0,-74,0,-124,-53c0,0,-51,-53,-51,-131c0,0,0,-52,23,-94c0,0,23,-42,65,-67c0,0,42,-24,88,-24ZM391,-342c0,0,-120,0,-194,25c0,0,-75,25,-116,72c0,0,-30,33,-30,69c0,0,0,46,30,90c0,0,30,44,140,124c0,0,-71,18,-101,42c0,0,-39,30,-39,69c0,0,0,20,7,36c0,0,7,17,23,34c0,0,17,17,59,47c0,0,27,18,38,27c0,0,-54,39,-82,87c0,0,-27,48,-27,105c0,0,0,95,73,166c0,0,89,86,240,86c0,0,67,0,117,-17c0,0,50,-16,103,-60c0,0,34,40,68,59c0,0,35,18,64,18c0,0,27,0,46,-16c0,0,18,-16,18,-39c0,0,0,-24,-16,-40c0,0,-17,-16,-42,-16c0,0,-11,0,-29,3c0,0,-21,6,-35,6c0,0,-19,0,-39,-18c0,0,47,-56,47,-131c0,0,0,-103,-87,-179c0,0,-87,-75,-219,-75c0,0,-74,0,-148,31c0,0,-49,-35,-56,-43c0,0,-10,-13,-10,-27c0,0,0,-22,22,-36c0,0,28,-18,112,-31L544,94c0,0,72,-11,144,-37c0,0,73,-26,106,-67c0,0,32,-42,32,-100c0,0,0,-98,-91,-157c0,0,-116,-75,-344,-75Z" 
id="f1_23"
transform="scale(0.001,-0.001)" />

<path d="M649,459L489,906L328,459ZM2,0V63c0,0,43,0,62,8c0,0,19,9,34,28c0,0,14,19,37,80l324,861H583L905,170c0,0,24,-65,48,-86c0,0,24,-21,65,-21h17V0H665V63c0,0,18,1,35,1c0,0,36,0,47,8c0,0,21,14,21,35c0,0,0,16,-20,77L679,385H302L221,160c0,0,-13,-35,-13,-48c0,0,0,-15,8,-26c0,0,8,-12,21,-17c0,0,14,-6,43,-6c0,0,20,0,33,0V0Z" 
id="f1_11"
transform="scale(0.001,-0.001)" />

<path d="M612,57c0,0,104,0,184,52c0,0,80,53,132,166c0,0,52,113,52,251c0,0,0,140,-52,256c0,0,-45,100,-119,148c0,0,-74,48,-184,48c0,0,-116,0,-200,-54c0,0,-84,-53,-134,-157c0,0,-50,-103,-50,-255c0,0,0,-146,49,-247c0,0,50,-101,134,-155c0,0,83,-53,188,-53Zm0,-74c0,0,-259,0,-410,181C202,164,79,313,79,519c0,0,0,154,70,275c0,0,69,122,197,193c0,0,127,71,280,71c0,0,142,0,257,-69c0,0,125,-73,192,-191c0,0,67,-118,67,-273c0,0,0,-240,-150,-391C992,134,843,-17,612,-17Z" 
id="f1_2z"
transform="scale(0.001,-0.001)" />

<path d="M602,-17c0,0,-242,0,-394,179C208,162,83,311,83,517c0,0,0,151,70,274c0,0,69,122,191,195c0,0,122,72,263,72c0,0,75,0,140,-21c0,0,64,-20,131,-66l24,69h54l94,-347L981,674c0,0,-56,120,-85,161c0,0,-48,66,-119,105c0,0,-72,39,-157,39c0,0,-101,0,-186,-54c0,0,-84,-54,-137,-159c0,0,-53,-104,-53,-235c0,0,0,-134,54,-239c0,0,53,-105,144,-162c0,0,91,-57,196,-57c0,0,99,0,203,57c0,0,104,57,180,159l59,-41c0,0,-46,-68,-100,-116C980,132,895,55,804,19c0,0,-92,-36,-202,-36Z" 
id="f1_13"
transform="scale(0.001,-0.001)" />

<path d="M70,0V63h33c0,0,48,0,64,8c0,0,17,8,25,27c0,0,9,19,9,65V871c0,0,0,54,-8,73c0,0,-8,18,-24,26c0,0,-15,8,-66,8H70v62H474V978H437c0,0,-43,0,-61,-9c0,0,-18,-8,-27,-24c0,0,-8,-15,-8,-56V164c0,0,0,-50,4,-60c0,0,4,-13,19,-19c0,0,11,-5,61,-5h56c0,0,96,0,167,28c0,0,70,28,122,81c0,0,51,54,99,159l66,-22L819,0Z" 
id="f1_2y"
transform="scale(0.001,-0.001)" />

<path d="M55,0V63H75c0,0,51,0,67,8c0,0,24,11,34,36c0,0,6,13,6,69V611H53v64c0,0,56,5,98,18c0,0,42,13,96,44h55V612c0,0,85,67,133,90c0,0,73,35,139,35c0,0,46,0,90,-16c0,0,43,-17,70,-42c0,0,26,-24,45,-67c0,0,78,70,145,97c0,0,67,28,135,28c0,0,66,0,116,-27c0,0,51,-27,73,-68c0,0,23,-41,23,-120V176c0,0,0,-54,2,-63c0,0,4,-15,16,-27c0,0,12,-13,28,-18c0,0,15,-5,58,-5h23V0H1025V63c0,0,64,0,83,9c0,0,19,8,29,28c0,0,9,19,9,76V505c0,0,0,62,-11,86c0,0,-11,24,-40,40c0,0,-29,16,-72,16c0,0,-53,0,-111,-28c0,0,-78,-39,-123,-87V176c0,0,0,-52,5,-68c0,0,5,-16,16,-26c0,0,12,-11,27,-15c0,0,15,-4,74,-4V0H545V63h21c0,0,44,0,62,10c0,0,18,10,28,32c0,0,8,17,8,71V494c0,0,0,70,-11,94c0,0,-11,25,-41,42c0,0,-31,17,-72,17c0,0,-49,0,-98,-24c0,0,-74,-35,-135,-91V149c0,0,0,-35,9,-51c0,0,10,-16,30,-26c0,0,20,-9,55,-9h27V0Z" 
id="f1_29"
transform="scale(0.001,-0.001)" />

<path d="M535,80c0,0,150,0,215,17c0,0,64,17,110,71c0,0,45,54,45,130c0,0,0,64,-37,113c0,0,-37,50,-102,72c0,0,-65,22,-231,22H333V164c0,0,0,-52,5,-62c0,0,6,-13,24,-18c0,0,12,-4,71,-4ZM524,576c0,0,134,0,183,13c0,0,77,20,118,68c0,0,40,49,40,125c0,0,0,64,-37,107c0,0,-37,43,-99,59c0,0,-40,9,-167,9H333V576ZM63,0V63H98c0,0,50,0,69,15c0,0,27,22,27,72V872c0,0,0,51,-9,70c0,0,-8,19,-24,27c0,0,-17,9,-63,9H63v62H557c0,0,182,0,249,-16c0,0,99,-24,157,-87c0,0,58,-62,58,-150c0,0,0,-64,-31,-114c0,0,-30,-51,-88,-86c0,0,-38,-24,-102,-40c0,0,81,-15,124,-36c0,0,63,-31,101,-89c0,0,37,-58,37,-131c0,0,0,-71,-37,-131c0,0,-36,-61,-103,-100C922,60,855,22,766,11C766,11,678,0,584,0Z" 
id="f1_2t"
transform="scale(0.001,-0.001)" />

<path d="M569,80c0,0,33,0,111,12c0,0,78,12,112,29c0,0,49,26,95,82c0,0,46,56,71,135c0,0,25,79,25,180c0,0,0,101,-25,175c0,0,-25,74,-75,132c0,0,-50,59,-112,90c0,0,-61,31,-138,39c0,0,-41,4,-137,4H343V80ZM72,0V63h44l14,-1c0,0,28,0,45,11c0,0,18,11,25,30c0,0,5,14,5,65V864c0,0,0,60,-7,77c0,0,-11,23,-34,32c0,0,-13,5,-92,5v62H444c0,0,255,0,356,-32c0,0,148,-47,241,-175c0,0,102,-142,102,-326c0,0,0,-125,-51,-233c0,0,-50,-108,-132,-173c0,0,-68,-56,-163,-78C797,23,701,0,604,0Z" 
id="f1_2u"
transform="scale(0.001,-0.001)" />

<path d="M81,0V63h26c0,0,47,0,66,8c0,0,18,9,27,28c0,0,8,19,8,69V875c0,0,0,47,-8,66c0,0,-8,19,-25,28c0,0,-17,9,-59,9H81v62H877L973,768L909,743c0,0,-41,95,-81,137c0,0,-39,42,-92,59c0,0,-52,18,-164,18H348V558H450c0,0,80,0,115,16c0,0,35,16,54,50c0,0,19,34,19,96v28h73V291H638v41c0,0,0,58,-18,91c0,0,-18,33,-49,47c0,0,-31,15,-110,15H348V161c0,0,0,-45,9,-62c0,0,10,-18,28,-27c0,0,18,-9,65,-9h28V0Z" 
id="f1_2v"
transform="scale(0.001,-0.001)" />

<path d="M41,-351c0,0,-79,0,-127,33c0,0,-48,34,-48,70c0,0,0,29,19,49c0,0,19,19,50,19c0,0,18,0,31,-7c0,0,13,-6,36,-30c0,0,36,-36,57,-48c0,0,16,-9,35,-9c0,0,47,0,74,45c0,0,20,33,20,106V611H59v62c0,0,55,5,96,18c0,0,40,12,104,46h54V-74c0,0,0,-88,-34,-147c0,0,-33,-60,-94,-95c0,0,-60,-35,-144,-35ZM247,903c0,0,-35,0,-61,25c0,0,-25,25,-25,61c0,0,0,36,25,61c0,0,26,25,61,25c0,0,36,0,62,-25c0,0,25,-25,25,-61c0,0,0,-36,-25,-61c0,0,-26,-25,-62,-25Z" 
id="f1_36"
transform="scale(0.001,-0.001)" />

<path d="M274,0V63c0,0,66,0,81,4c0,0,26,8,38,29c0,0,11,21,11,77V910c0,0,0,34,-4,41c0,0,-3,8,-12,12c0,0,-9,4,-39,4c0,0,-81,0,-130,-21c0,0,-48,-21,-91,-70c0,0,-44,-50,-74,-130l-67,24L94,1076h52l7,-36H792l6,36h55L962,770L895,746c0,0,-49,122,-115,172c0,0,-66,49,-170,49c0,0,-43,0,-51,-3c0,0,-9,-4,-12,-12c0,0,-3,-8,-3,-52V178c0,0,0,-51,5,-69c0,0,6,-18,16,-28c0,0,11,-9,29,-14c0,0,18,-4,82,-4V0Z" 
id="f1_1k"
transform="scale(0.001,-0.001)" />

<path d="M649,459L489,906L328,459ZM2,0V63c0,0,43,0,62,8c0,0,19,9,34,28c0,0,14,19,37,80l324,861H583L905,170c0,0,24,-65,48,-86c0,0,24,-21,65,-21h17V0H665V63c0,0,18,1,35,1c0,0,36,0,47,8c0,0,21,14,21,35c0,0,0,16,-20,77L679,385H302L221,160c0,0,-13,-35,-13,-48c0,0,0,-15,8,-26c0,0,8,-12,21,-17c0,0,14,-6,43,-6c0,0,20,0,33,0V0Z" 
id="f2_11"
transform="scale(0.001,-0.001)" />

<path d="M54,0V63H86c0,0,45,0,60,8c0,0,19,11,28,31c0,0,10,20,10,71V613H55v62c0,0,54,4,97,18c0,0,42,13,96,44h56V596c0,0,53,65,123,103c0,0,70,38,126,38c0,0,56,0,88,-26c0,0,32,-26,32,-63c0,0,0,-27,-22,-48c0,0,-21,-20,-51,-20c0,0,-13,0,-23,4c0,0,-10,3,-28,16c0,0,-41,27,-69,27c0,0,-37,0,-82,-32c0,0,-57,-40,-89,-79V173c0,0,0,-45,5,-61c0,0,5,-16,16,-27c0,0,11,-12,28,-17c0,0,16,-5,57,-5h25V0Z" 
id="f2_2e"
transform="scale(0.001,-0.001)" />

<path d="M598,494c0,0,-11,68,-31,101c0,0,-21,33,-58,52c0,0,-38,20,-85,20c0,0,-47,0,-88,-20c0,0,-41,-19,-68,-53c0,0,-27,-35,-47,-100ZM433,-17c0,0,-110,0,-187,44c0,0,-88,52,-135,134c0,0,-46,83,-46,195c0,0,0,118,45,202c0,0,45,83,127,131c0,0,82,48,189,48c0,0,80,0,139,-25c0,0,59,-25,100,-75c0,0,41,-50,59,-115c0,0,11,-37,12,-98H210c0,0,-3,-36,-3,-54c0,0,0,-94,33,-168c0,0,33,-73,87,-108c0,0,54,-34,122,-34c0,0,58,0,113,27c0,0,54,27,131,106l48,-39C741,154,687,89,636,51c0,0,-51,-38,-97,-52c0,0,-45,-16,-106,-16Z" 
id="f2_21"
transform="scale(0.001,-0.001)" />

<path d="M326,73c0,0,48,0,109,23c0,0,62,24,157,91l1,180c0,0,-173,-26,-215,-35c0,0,-81,-19,-116,-41c0,0,-36,-23,-51,-48c0,0,-14,-26,-14,-55c0,0,0,-29,16,-56c0,0,17,-27,48,-43c0,0,30,-16,65,-16ZM291,-12c0,0,-103,0,-167,55c0,0,-64,56,-64,131c0,0,0,46,23,87c0,0,24,41,72,72c0,0,48,31,151,55c0,0,104,24,287,43v82c0,0,0,83,-47,118c0,0,-46,36,-131,36c0,0,-42,0,-73,-10c0,0,-31,-10,-51,-28c0,0,-19,-18,-28,-40c0,0,-3,-8,-18,-64c0,0,-17,-67,-69,-67c0,0,-30,0,-48,19c0,0,-18,20,-18,54c0,0,0,49,36,97c0,0,37,47,112,78c0,0,75,31,177,31c0,0,95,0,163,-29c0,0,68,-30,100,-85c0,0,23,-38,23,-138V198c0,0,0,-61,3,-79c0,0,9,-32,29,-48c0,0,21,-16,54,-16c0,0,34,0,82,15V5c0,0,-62,-17,-111,-17c0,0,-53,0,-89,14c0,0,-37,15,-60,44c0,0,-23,29,-30,68c0,0,-89,-70,-162,-98c0,0,-72,-28,-146,-28Z" 
id="f2_1x"
transform="scale(0.001,-0.001)" />

<path d="M427,50c0,0,63,0,113,33c0,0,49,34,80,107c0,0,30,74,30,173c0,0,0,96,-32,173c0,0,-26,61,-77,95c0,0,-51,34,-115,34c0,0,-85,0,-143,-67c0,0,-75,-84,-75,-243c0,0,0,-153,64,-234c0,0,57,-71,155,-71Zm-4,-67c0,0,-180,0,-271,112c0,0,-90,112,-90,264c0,0,0,111,47,198c0,0,46,86,131,133c0,0,85,47,192,47c0,0,109,0,190,-45c0,0,80,-46,126,-133c0,0,46,-87,46,-199c0,0,0,-112,-47,-199C747,161,699,74,618,28c0,0,-82,-45,-195,-45Z" 
id="f2_2b"
transform="scale(0.001,-0.001)" />

<path d="M51,0V63H74c0,0,59,0,75,7c0,0,16,8,23,24c0,0,7,17,6,77V643H51v77H178V832c0,0,0,115,76,189c0,0,77,73,200,73c0,0,82,0,128,-34c0,0,46,-34,46,-75c0,0,0,-26,-19,-45c0,0,-18,-18,-45,-18c0,0,-25,0,-43,9c0,0,-18,9,-55,45c0,0,-39,37,-75,37c0,0,-25,0,-45,-15c0,0,-19,-16,-30,-45c0,0,-11,-30,-11,-91V720H445V643H305V159c0,0,0,-50,8,-66c0,0,7,-17,22,-24c0,0,15,-6,69,-6h31V0Z" 
id="f2_22"
transform="scale(0.001,-0.001)" />

<path d="M738,62L440,783L113,62ZM20,0L488,1035L914,0Z" 
id="f2_4p"
transform="scale(0.001,-0.001)" />

<path d="M612,57c0,0,104,0,184,52c0,0,80,53,132,166c0,0,52,113,52,251c0,0,0,140,-52,256c0,0,-45,100,-119,148c0,0,-74,48,-184,48c0,0,-116,0,-200,-54c0,0,-84,-53,-134,-157c0,0,-50,-103,-50,-255c0,0,0,-146,49,-247c0,0,50,-101,134,-155c0,0,83,-53,188,-53Zm0,-74c0,0,-259,0,-410,181C202,164,79,313,79,519c0,0,0,154,70,275c0,0,69,122,197,193c0,0,127,71,280,71c0,0,142,0,257,-69c0,0,125,-73,192,-191c0,0,67,-118,67,-273c0,0,0,-240,-150,-391C992,134,843,-17,612,-17Z" 
id="f2_1f"
transform="scale(0.001,-0.001)" />

<path d="M602,-17c0,0,-242,0,-394,179C208,162,83,311,83,517c0,0,0,151,70,274c0,0,69,122,191,195c0,0,122,72,263,72c0,0,75,0,140,-21c0,0,64,-20,131,-66l24,69h54l94,-347L981,674c0,0,-56,120,-85,161c0,0,-48,66,-119,105c0,0,-72,39,-157,39c0,0,-101,0,-186,-54c0,0,-84,-54,-137,-159c0,0,-53,-104,-53,-235c0,0,0,-134,54,-239c0,0,53,-105,144,-162c0,0,91,-57,196,-57c0,0,99,0,203,57c0,0,104,57,180,159l59,-41c0,0,-46,-68,-100,-116C980,132,895,55,804,19c0,0,-92,-36,-202,-36Z" 
id="f2_13"
transform="scale(0.001,-0.001)" />

<path d="M782,135L109,433v76L782,807V699L245,471L782,242V135Z" 
id="f2_w"
transform="scale(0.001,-0.001)" />

<path d="M450,-17c0,0,-126,0,-215,71L219,0H166L73,244l68,27c0,0,68,-107,128,-152c0,0,84,-63,182,-63c0,0,65,0,107,34c0,0,41,35,41,77c0,0,0,35,-26,64c0,0,-27,29,-103,56L298,349c0,0,-111,40,-154,88c0,0,-43,48,-43,110c0,0,0,75,70,133c0,0,71,57,180,57c0,0,56,0,101,-14c0,0,45,-15,88,-48l20,45h53L680,492L612,469c0,0,-40,92,-113,144c0,0,-73,53,-147,53c0,0,-58,0,-93,-28c0,0,-36,-28,-36,-65c0,0,0,-34,26,-58c0,0,25,-26,114,-58L509,406c0,0,123,-44,168,-94c0,0,44,-51,44,-115c0,0,0,-54,-33,-105c0,0,-33,-50,-95,-80c0,0,-63,-29,-143,-29Z" 
id="f2_2f"
transform="scale(0.001,-0.001)" />

<path d="M426,-17c0,0,-153,0,-258,108C168,91,63,200,63,362c0,0,0,108,48,194c0,0,49,86,136,134c0,0,87,47,200,47c0,0,128,0,214,-63c0,0,86,-63,86,-127c0,0,0,-34,-20,-53c0,0,-20,-19,-46,-19c0,0,-13,0,-26,7c0,0,-12,7,-26,22c0,0,-6,6,-22,41c0,0,-20,44,-31,59c0,0,-23,29,-57,47c0,0,-34,17,-76,17c0,0,-63,0,-117,-35c0,0,-54,-35,-86,-103c0,0,-32,-68,-32,-163c0,0,0,-147,79,-233c0,0,67,-74,161,-74c0,0,44,0,88,14c0,0,44,15,84,43c0,0,29,20,95,91l48,-38C763,170,622,-17,426,-17Z" 
id="f2_1z"
transform="scale(0.001,-0.001)" />

<path d="M362,-17c0,0,-57,0,-103,25c0,0,-45,25,-62,59c0,0,-17,35,-17,120V645H49v63c0,0,63,14,102,44c0,0,38,29,62,77c0,0,24,48,39,144h53V720H527V645H305V196c0,0,0,-58,10,-82c0,0,10,-25,34,-41c0,0,25,-15,55,-15c0,0,70,0,156,63V49c0,0,-98,-66,-198,-66Z" 
id="f2_2g"
transform="scale(0.001,-0.001)" />

<path d="M494,385V878L152,385ZM494,0V262H20V385l498,708H628V385H775V262H628V0Z" 
id="f4_o"
transform="scale(0.001,-0.001)" />


</defs>
</svg>