<?xml version="1.0" encoding="UTF-8" standalone="no"?>
<!DOCTYPE svg PUBLIC "-//W3C//DTD SVG 1.1//EN"
"http://www.w3.org/Graphics/SVG/1.1/DTD/svg11.dtd">
<svg viewBox="0 0 909 1286" version="1.1" xmlns="http://www.w3.org/2000/svg" xmlns:xlink="http://www.w3.org/1999/xlink">
<defs>
<clipPath id="c0_19"><path d="M557.5,741.2V722.5H670.3v18.7Z" /></clipPath>
<clipPath id="c1_19"><path d="M557.5,752.4V733.7H673.2v18.7Z" /></clipPath>
<clipPath id="c2_19"><path d="M164.1,812V793.5H348.9V812Z" /></clipPath>
<style type="text/css"><![CDATA[
.g0_19{
fill: #FFFFFF;
}
.g1_19{
}
.g2_19{
fill: none;
stroke: #1A1A1A;
stroke-width: 1.1;
stroke-linecap: round;
stroke-linejoin: round;
}
.g3_19{
fill: #414141;
}
.g4_19{
fill: none;
stroke: #414141;
stroke-width: 1.1;
stroke-linecap: round;
stroke-linejoin: round;
}
.g5_19{
fill: #1A1A1A;
}
.g6_19{
fill: none;
stroke: #000000;
stroke-width: 0.73333335;
stroke-linecap: round;
stroke-linejoin: round;
}
.g7_19{
fill: #009900;
fill-opacity: 0.4;
}
]]></style>
</defs>
<path fill-rule="evenodd" d="M53.9,69.5H856.2V97.9H53.9V69.5l1.5,26.8H854.5V71H55.4V96.3L53.9,69.5Z" class="g0_19" />
<g fill="#000000" >
<use xlink:href="#f0_1k" transform="matrix(10,0,0,10,715.2,87.6)" />
<use xlink:href="#f0_1i" transform="matrix(10,0,0,10,725.6,87.6)" />
<use xlink:href="#f0_19" transform="matrix(10,0,0,10,737.6,87.6)" />
<use xlink:href="#f0_17" transform="matrix(10,0,0,10,743.4,87.6)" />
<use xlink:href="#f0_1f" transform="matrix(10,0,0,10,755.2,87.6)" />
<use xlink:href="#f0_1e" transform="matrix(10,0,0,10,767.1,87.6)" />
<use xlink:href="#f0_1f" transform="matrix(10,0,0,10,778.4,87.6)" />
<use xlink:href="#f0_1d" transform="matrix(10,0,0,10,790.2,87.6)" />
<use xlink:href="#f0_15" transform="matrix(10,0,0,10,804.3,87.6)" />
<use xlink:href="#f0_1k" transform="matrix(10,0,0,10,815.1,87.6)" />
<use xlink:href="#f0_1i" transform="matrix(10,0,0,10,825.9,87.6)" />
<use xlink:href="#f0_1p" transform="matrix(10,0,0,10,837.5,87.6)" />
</g>
<path fill-rule="evenodd" d="M55.2,94.6H854.7v3.1H55.2V94.6Z" class="g1_19" />
<path fill-rule="evenodd" d="M55.2,69.7H854.7v3.1H55.2V69.7Z" class="g1_19" />
<path fill-rule="evenodd" d="M54.5,1177.4H854.8v2.4H54.5v-2.4Z" class="g1_19" />
<path fill-rule="evenodd" d="M453.8,1177.5V109.8h1.6V1177.5h-1.6Z" class="g1_19" />
<g fill="#000000" >
<use xlink:href="#f1_c" transform="matrix(10,0,0,10,506.6,123)" />
<use xlink:href="#f1_20" transform="matrix(10,0,0,10,511.9,123)" />
<use xlink:href="#f1_d" transform="matrix(10,0,0,10,520.1,123)" />
<use xlink:href="#f2_2l" transform="matrix(10,0,0,10,561.6,123)" />
<use xlink:href="#f2_x" transform="matrix(10,0,0,10,573.1,123)" />
<use xlink:href="#f2_1z" transform="matrix(10,0,0,10,585.4,123)" />
<use xlink:href="#f2_2b" transform="matrix(10,0,0,10,592.4,123)" />
<use xlink:href="#f2_2g" transform="matrix(10,0,0,10,599.9,123)" />
<use xlink:href="#f2_2k" transform="matrix(10,0,0,10,608.3,123)" />
<use xlink:href="#f2_g" transform="matrix(10,0,0,10,615.6,123)" />
<use xlink:href="#f2_2k" transform="matrix(10,0,0,10,561.6,142.6)" />
<use xlink:href="#f3_40" transform="matrix(10,0,0,10,573.3,142.6)" />
<use xlink:href="#f2_1i" transform="matrix(10,0,0,10,588.3,142.6)" />
<use xlink:href="#f2_4y" transform="matrix(10,0,0,10,602.3,142.6)" />
<use xlink:href="#f2_2n" transform="matrix(10,0,0,10,614.4,142.6)" />
<use xlink:href="#f2_2a" transform="matrix(10,0,0,10,621.7,142.6)" />
<use xlink:href="#f3_2c" transform="matrix(10,0,0,10,629,142.6)" />
<use xlink:href="#f2_v" transform="matrix(10,0,0,10,637.1,142.6)" />
<use xlink:href="#f2_2a" transform="matrix(10,0,0,10,645.3,142.6)" />
<use xlink:href="#f3_40" transform="matrix(10,0,0,10,657.1,142.6)" />
<use xlink:href="#f2_2m" transform="matrix(10,0,0,10,672.1,142.6)" />
<use xlink:href="#f2_2p" transform="matrix(10,0,0,10,678.9,142.6)" />
<use xlink:href="#f2_v" transform="matrix(10,0,0,10,686.2,142.6)" />
<use xlink:href="#f2_2l" transform="matrix(10,0,0,10,694.7,142.6)" />
<use xlink:href="#f3_40" transform="matrix(10,0,0,10,705.8,142.6)" />
<use xlink:href="#f2_1i" transform="matrix(10,0,0,10,721,142.6)" />
</g>
<path d="M498.7,216V346.5M546.7,216V346.1M640.7,216V346.1M692.4,216V346.1M744,216V346.1M791.3,216V346.1" class="g2_19" />
<path d="M593.6,212.7l4.8,10.6H598l-.3,-.4h-.8v-.3h-1.1l-.3,-.4h-3.3l-.4,.4h-1.1l-.4,.3h-.7v.4h-.4l4.4,-10.6Zm-.7,133.4l.4,-127.9h1.1L594,346.1h-1.1Z" class="g3_19" />
<path d="M834.9,282.5H476.3V281H834.9v1.5Zm5.5,-.7l-11,4.7v-.3h.4v-.8h.3v-1.1l.4,-.3v-4.4l-.4,-.4v-.7l-.3,-.4v-.7h-.4V277l11,4.8Z" class="g3_19" />
<path d="M505.3,218.2v5.1l.7,5.1l.4,4.8l1.1,4.8l1.1,4.2l1.4,4.4l1.9,4l1.8,4.4l2.6,3.7l2.9,3.6l3.3,3.7l4,3.7l4.1,3.3l4.7,2.9l5.5,3l5.9,2.9l7.7,4l7.3,4.8l3.7,2.9l3.7,2.9l3.3,3.4l3.3,3.2l2.9,4.1l2.6,4.4l2.2,4.8l2.2,4.9l1.4,5.5l1.1,6.2l.8,6.6v7.4M599.7,217.4l.3,5.2l.4,4.7l.7,5.2l.8,4.4l1.1,4.5l1.4,4.4l1.9,4.1l2.2,4l2.2,4.1l2.9,3.6l3.3,3.7l4.1,3.3l4.3,3.3l4.8,3.3l5.1,2.9l5.9,2.6l7.7,4.4l7.7,4.8l3.7,2.5l3.3,3l3.3,3.2l3.3,3.7l2.9,4.1l2.6,4l2.6,4.8l1.8,4.9l1.4,5.9l1.5,5.8l.4,7l.3,7m18,-129.5l.4,5.2l.4,5.1l.7,4.8l.7,4.7l1.5,4.2l1.1,4.4l1.8,4.4l2.2,4.1l2.6,3.6l2.9,3.7l3.3,3.7l3.5,3.7l4.4,3.2l4.8,3l5.5,2.9l5.8,2.9l7.4,4.1l7.7,4.8l3.6,2.9l3.7,2.9l3.3,3.3l2.9,3.3l3,4l2.9,4.4l2.2,4.8l1.8,5.1l1.9,5.4l1.1,6.2l.7,6.6V345" class="g4_19" />
<path d="M585.9,207.2h2.4v.1c-.2,0,-.4,0,-.4,.2c-.1,0,-.1,.2,-.1,.2c0,.2,0,.4,.1,.8l1.3,2.7l1.1,-3.1c.2,0,.2,-.2,.2,-.4c0,0,0,-.2,0,-.2c0,0,-.2,0,-.2,-.2c0,0,-.1,0,-.3,0v-.1h1.8v.1c-.2,0,-.4,.2,-.4,.2c-.1,0,-.1,.2,-.3,.2q0,.2,-.2,.6l-2.2,5.3c-.2,.5,-.4,.9,-.8,1.3c-.3,.1,-.7,.3,-.9,.3c-.3,0,-.5,-.2,-.5,-.2c-.2,-.1,-.4,-.3,-.4,-.5c0,-.2,.2,-.4,.2,-.4c.2,-.2,.4,-.2,.5,-.2c0,0,.2,0,.4,.2c.2,0,.4,0,.4,0q.2,0,.3,-.2c.2,0,.4,-.3,.4,-.7l.4,-.9l-1.9,-4c0,-.2,-.1,-.2,-.1,-.4c-.2,-.2,-.2,-.4,-.4,-.4c0,0,-.2,0,-.4,-.2Z" class="g5_19" />
<path d="M585.6,288c0,-.9,.1,-1.6,.3,-2.4c.4,-.5,.6,-1.1,1.1,-1.4c.4,-.2,.8,-.4,1.1,-.4c.6,0,1.1,.4,1.7,.9c.5,.8,.9,1.8,.9,3.1c0,1,-.2,1.9,-.5,2.4c-.2,.8,-.6,1.1,-1,1.5c-.3,.2,-.7,.4,-1.1,.4c-.9,0,-1.4,-.4,-2,-1.3c-.4,-.8,-.5,-1.7,-.5,-2.8Zm1.1,.2c0,1.1,.1,2,.3,2.6c.2,.7,.6,.9,1.1,.9c.2,0,.4,0,.6,-.2c.2,-.2,.4,-.5,.5,-1.1c.2,-.5,.2,-1.5,.2,-2.7c0,-1,0,-1.7,-.2,-2.4c-.1,-.4,-.3,-.8,-.5,-1c-.2,-.1,-.4,-.1,-.6,-.1c-.3,0,-.5,.1,-.7,.3c-.4,.4,-.6,1,-.6,1.5c-.1,.7,-.1,1.5,-.1,2.2Z" class="g5_19" />
<path d="M489.9,287.3h-6.3v-.4h6.3v.4Zm6.2,-2.6v.7h-1.5l-.3,1.5v1.9l.3,.3h1.1v-.7h.4l-.4,1.1v.3l-.3,.4h-1.1l-.4,-.4v-4.4h-1.5l-.3,2.6v1.5l-.4,.3l-.4,.4H491v-1.1l.3,-.7l.4,-.4v-1.1l.4,-1.5h-.8l-.3,.4h-.4v.4h-.4l.4,-.8l.4,-.3l.3,-.4h4.8Z" class="g5_19" />
<path d="M528,290.6h-6.2v-.4H528v.4Zm6.2,-2.6v.8h-1.4l-.4,1.1v1.8l.4,.4v.3h.7v-.3h.4v-.4h.3l-.3,.7l-.4,.8h-.4l-.3,.3l-.4,-.3l-.4,-.4v-.4l-.3,-1.1l.3,-1.1v-1.4h-1.4l-.4,2.5v1.1l-.4,.8l-.3,.3h-.4v-1.4l.4,-.4l.3,-.4v-1.1l.4,-1.4h-1.1l-.4,.3l-.3,.4l.3,-.7l.4,-.8h5.1Zm3.7,-2.9l-2.9,8.4h-.4l2.9,-8.4h.4Zm5.5,6.6l-.7,1.5h-4.4l1.4,-1.9l1.5,-1.4l.4,-1.1l.3,-1.1l-.3,-.8v-.4l-.8,-.3h-1.4l-.4,.7l-.4,.4h-.3l.3,-.8l.4,-.7l.7,-.3l.8,-.4l1.1,.4l.7,.3l.4,.7l.3,.8l-.3,.4v.7l-.8,1.1l-.7,.7l-1.1,1.5l-.7,.7h2.9l.4,-.3h.3v-.4h.4Z" class="g5_19" />
<path d="M629,287.3v1.1h-1.4v3.3l.3,.3h.4l.4,-.3v-.4h.3l-.3,.7v.4l-.4,.4l-.4,.4l-.7,-.4v-.4l-.4,-.4v-3.6h-1.4V291l-.4,1l-.4,.8l-.3,.4v-.4h-.4V292l.4,-.3v-.4l.3,-.3l.4,-1.2v-1.4h-1.1v.4l-.4,.3h-.3l.3,-.7l.4,-.8h.4l.7,-.3h4Zm3.7,-3l-2.9,8.5h-.4l2.9,-8.5h.4Zm5.5,7l-.4,1.5h-4.7v-.4l1.8,-1.4l1.1,-1.5l.3,-1.1l.4,-1.1v-.8l-.4,-.3l-.7,-.4l-.4,-.4l-.7,.4h-.4l-.3,.7l-.4,.4h-.3l.3,-.7l.7,-.8l.4,-.7h1.8l.8,.7l.3,.8l.4,.7v.4l-.4,.7l-.7,1.1l-.7,.7l-1.1,1.5l-.8,.7h2.6l.4,-.3h.7v-.4h.4Z" class="g5_19" />
<path d="M688.8,286.2v.7h-1.5v3.3l.4,.4h.7v-.7h.4v.7l-.4,.7H688l-.3,.4l-.4,-.4h-.4l-.3,-.7v-3.7h-1.5v2.6l-.4,1.5l-.3,.3l-.4,.4l-.3,-.4v-.7h.3v-.7l.4,-.4l.3,-1.1v-1.5h-1v.4l-.4,.4h-.4l.4,-.8l.4,-.7h5.1Z" class="g5_19" />
<path d="M721,286.9l.4,-.4l.4,-.7l.3,-.4H724l.3,.8l.4,.3V288l-1.1,.8l.7,.3l.4,.4l.4,.7v1.5l-.4,1.1l-1.1,.7H721l-.3,-.3v-.4h.3v-.4h.4v.4h.4l.3,.4h1.5l.4,-.4l.3,-.8v-1.4l-.3,-.4l-.4,-.4h-.4l-.3,-.3h-.8l.4,-.4h.4l.3,-.3l.4,-.4l.4,-.4v-.4l-.4,-.7v-.4l-.4,-.3h-.7l-.7,.3l-.8,.8v-.4Zm11.2,1.1v1.1h-1.4v1.1l-.4,1.5l.4,.3v.4l.3,.4h.4l.4,-.4V292h.3l-.3,.8v.4l-.4,.3h-1.1l-.4,-.3v-4.1h-1.4v2.2l-.4,1.5l-.4,.7h-.5v-.7l.4,-.4V292l.1,-.7v-.7l.4,-1.5h-.9l-.4,.4v.3h-.3l.3,-.7l.4,-.7h.4l.5,-.4h4Zm3.7,-2.9l-2.9,8.4h-.4l2.9,-8.4h.4Zm5.5,6.9l-.7,1.5h-4.4v-.3l1.8,-1.5l1.1,-1.5l.4,-1.1l.3,-1.1v-.7l-.3,-.4l-.8,-.4l-.3,-.3l-.8,.3h-.3l-.4,.4l-.4,.7h-.3l.3,-1.1l.4,-.7l.7,-.4h1.9l.7,.8l.4,.3l.3,1.1l-.3,.4v.8l-.8,.7l-.7,1.1l-1.1,1.4l-.7,.8h2.2l.3,-.4h.8l.3,-.4h.4Z" class="g5_19" />
<path d="M799.3,291l-.3,1.4h-4.8V292l1.8,-1.4l1.1,-1.5l.8,-1.1v-1.8l-.4,-.4l-.4,-.3l-.7,-.4H796l-.7,.4l-.4,.3l-.3,.7l.3,-1l.4,-.8l.7,-.4h1.5l.7,.4l.8,.8v1.4l-.4,.8l-.4,.7l-.7,1.1L796,291l-.3,.3H799V291h.3Zm6.6,-4.1V288h-1.1l-.3,1.1V291l.3,.3l.4,.4l.4,-.4h.3V291v.7l-.3,.3l-.4,.4h-.7l-.4,-.4l-.4,-.3v-2.2l.4,-1.5h-1.5l-.3,2.2v1.5l-.4,.7h-.7l-.4,-.4v-.3h.4v-.4l.3,-.3l.4,-.8V288h-.7l-.4,.4l-.4,.4l.4,-.8l.4,-.7l.3,-.4h4.4Z" class="g5_19" />
<path d="M841.5,278.1h2.6v.2q-.2,0,-.4,.2v.2c0,0,0,.1,.2,.3q0,.2,.2,.4l.3,.5l.4,-.5c.4,-.4,.4,-.7,.4,-.7q0,-.2,0,-.2c0,-.2,-.2,-.2,-.4,-.2v-.2h1.8v.2c-.2,0,-.3,.2,-.5,.2c-.2,.2,-.4,.3,-.7,.9l-.8,.9l1.3,2c.4,.4,.5,.8,.7,.8c.2,.1,.4,.1,.6,.1v.4h-2.6v-.4c.2,0,.4,0,.6,0q0,-.1,0,-.1c0,-.2,0,-.4,-.4,-.8l-.7,-1.3l-.9,1.3c-.2,.4,-.4,.6,-.4,.6q0,.2,.2,.3c0,0,.2,0,.3,0v.4h-1.6v-.4c0,0,.2,0,.3,0c0,-.1,.4,-.5,.8,-.9l1.1,-1.4l-1.1,-1.7c-.2,-.4,-.6,-.5,-.6,-.7c-.2,0,-.3,-.2,-.7,-.2Z" class="g5_19" />
<path d="M851.4,395.6l-1.5,1.5H468.4v-2.6H849.9l1.5,1.1Zm0,0v1.5h-1.5l1.5,-1.5ZM849.9,157.1l1.5,1.3V395.6h-2.9V158.4l1.4,-1.3Zm0,0h1.5v1.3l-1.5,-1.3ZM467,158.4l1.4,-1.3H849.9v2.4H468.4L467,158.4Zm0,0v-1.3h1.4l-1.4,1.3Zm1.4,238.7L467,395.6V158.4h2.7V395.6l-1.3,1.5Zm0,0H467v-1.5l1.4,1.5Z" class="g3_19" />
<g fill="#000000" >
<use xlink:href="#f1_c" transform="matrix(10,0,0,10,506.6,414.7)" />
<use xlink:href="#f1_21" transform="matrix(10,0,0,10,511.9,414.7)" />
<use xlink:href="#f1_d" transform="matrix(10,0,0,10,518.8,414.7)" />
<use xlink:href="#f2_2l" transform="matrix(10,0,0,10,561.6,414.7)" />
<use xlink:href="#f2_x" transform="matrix(10,0,0,10,572.7,414.7)" />
<use xlink:href="#f2_1z" transform="matrix(10,0,0,10,585,414.7)" />
<use xlink:href="#f2_2b" transform="matrix(10,0,0,10,592,414.7)" />
<use xlink:href="#f2_2f" transform="matrix(10,0,0,10,599.5,414.7)" />
<use xlink:href="#f2_21" transform="matrix(10,0,0,10,605.4,414.7)" />
<use xlink:href="#f2_1z" transform="matrix(10,0,0,10,612.3,414.7)" />
<use xlink:href="#f2_2k" transform="matrix(10,0,0,10,622.8,414.7)" />
<use xlink:href="#f2_g" transform="matrix(10,0,0,10,630.3,414.7)" />
<use xlink:href="#f2_2k" transform="matrix(10,0,0,10,561.6,434.5)" />
<use xlink:href="#f3_40" transform="matrix(10,0,0,10,573.3,434.5)" />
<use xlink:href="#f2_1i" transform="matrix(10,0,0,10,588.1,434.5)" />
<use xlink:href="#f2_4y" transform="matrix(10,0,0,10,602.3,434.5)" />
<use xlink:href="#f2_2n" transform="matrix(10,0,0,10,614,434.5)" />
<use xlink:href="#f2_2a" transform="matrix(10,0,0,10,621.3,434.5)" />
<use xlink:href="#f3_2c" transform="matrix(10,0,0,10,629,434.5)" />
<use xlink:href="#f2_v" transform="matrix(10,0,0,10,637.1,434.5)" />
<use xlink:href="#f2_2a" transform="matrix(10,0,0,10,645.2,434.5)" />
<use xlink:href="#f3_40" transform="matrix(10,0,0,10,657.1,434.5)" />
<use xlink:href="#f2_1q" transform="matrix(10,0,0,10,671.9,434.5)" />
<use xlink:href="#f2_2p" transform="matrix(10,0,0,10,680.9,434.5)" />
<use xlink:href="#f2_v" transform="matrix(10,0,0,10,688.2,434.5)" />
<use xlink:href="#f2_2l" transform="matrix(10,0,0,10,700.9,434.5)" />
<use xlink:href="#f3_40" transform="matrix(10,0,0,10,712.4,434.5)" />
<use xlink:href="#f3_c" transform="matrix(10,0,0,10,727.1,434.5)" />
<use xlink:href="#f2_4y" transform="matrix(10,0,0,10,732.4,434.5)" />
<use xlink:href="#f3_2v" transform="matrix(10,0,0,10,739.9,434.5)" />
<use xlink:href="#f3_g" transform="matrix(10,0,0,10,750.9,434.5)" />
<use xlink:href="#f2_4y" transform="matrix(10,0,0,10,759,434.5)" />
<use xlink:href="#f3_l" transform="matrix(10,0,0,10,766.5,434.5)" />
<use xlink:href="#f2_1t" transform="matrix(10,0,0,10,774.4,434.5)" />
<use xlink:href="#f3_3u" transform="matrix(10,0,0,10,783.6,434.5)" />
<use xlink:href="#f2_1r" transform="matrix(10,0,0,10,799.5,434.5)" />
<use xlink:href="#f2_l" transform="matrix(10,0,0,10,804.6,434.5)" />
<use xlink:href="#f2_g" transform="matrix(10,0,0,10,812.2,434.5)" />
<use xlink:href="#f3_2v" transform="matrix(10,0,0,10,820.4,434.5)" />
<use xlink:href="#f2_d" transform="matrix(10,0,0,10,831.2,434.5)" />
</g>
<image preserveAspectRatio="none" x="467" y="449" width="385" height="240" xlink:href="img/1.png" />
<g fill="#000000" >
<use xlink:href="#f1_c" transform="matrix(10,0,0,10,465.3,706.6)" />
<use xlink:href="#f1_22" transform="matrix(10,0,0,10,470.6,706.6)" />
<use xlink:href="#f1_d" transform="matrix(10,0,0,10,475.6,706.6)" />
<use xlink:href="#f2_2l" transform="matrix(10,0,0,10,506.6,706.6)" />
<use xlink:href="#f2_x" transform="matrix(10,0,0,10,518.1,706.6)" />
<use xlink:href="#f2_2f" transform="matrix(10,0,0,10,530.4,706.6)" />
<use xlink:href="#f2_21" transform="matrix(10,0,0,10,536.4,706.6)" />
<use xlink:href="#f2_1z" transform="matrix(10,0,0,10,543,706.6)" />
<use xlink:href="#f2_2k" transform="matrix(10,0,0,10,553.9,706.6)" />
<use xlink:href="#f2_g" transform="matrix(10,0,0,10,561.6,706.6)" />
</g>
<path d="M569.6,751.5v.3c-1.3,-.7,-2.2,-2,-2.9,-3.6c-.7,-1.7,-1.1,-3.5,-1.1,-5.5c0,-2,.4,-3.9,1.1,-5.5c.7,-1.7,1.6,-2.9,2.9,-3.7v.6c-.5,.3,-1.1,.9,-1.4,1.8c-.4,.7,-.8,1.7,-1,2.9c-.1,1.1,-.1,2.4,-.1,3.7c0,1.5,0,2.8,.1,3.9c.2,1.2,.4,2.1,.8,2.9c.3,.9,.9,1.4,1.6,2.2ZM607,734.1v-.6c1.3,.9,2.4,2.2,3.1,3.9c.6,1.6,.9,3.5,.9,5.3c0,2,-.3,3.8,-1.1,5.7c-.7,1.6,-1.6,2.7,-2.9,3.4v-.3c.7,-.6,1.1,-1.1,1.5,-1.9c.5,-.7,.7,-1.8,.9,-2.9c.2,-1.3,.4,-2.4,.4,-3.6c0,-1.5,-.2,-3,-.4,-4.1c-.2,-1.1,-.4,-2.2,-.7,-2.9c-.4,-.7,-1,-1.5,-1.7,-2Z" class="g1_19" />
<path d="M613.6,742.5h9.9" class="g6_19" />
<g fill="#000000" >
<use xlink:href="#f2_2k" transform="matrix(10.1,0,0,10.1,509.7,746.2)" />
<use xlink:href="#f2_1i" transform="matrix(10.1,0,0,10.1,532.6,746.2)" />
<use xlink:href="#f2_m" transform="matrix(10.1,0,0,10.1,571.3,746.2)" />
<use xlink:href="#f2_2a" transform="matrix(10.1,0,0,10.1,579,746.2)" />
<use xlink:href="#f2_l" transform="matrix(10.1,0,0,10.1,599.7,746.2)" />
<use xlink:href="#f2_v" transform="matrix(10.1,0,0,10.1,625.2,746.2)" />
<use xlink:href="#f2_2a" transform="matrix(10.1,0,0,10.1,633.2,746.2)" />
<use xlink:href="#f2_1q" transform="matrix(10.1,0,0,10.1,656.5,746.2)" />
<use xlink:href="#f2_m" transform="matrix(10.1,0,0,10.1,614.9,758.3)" />
<use xlink:href="#f3_2c" transform="matrix(10.1,0,0,10.1,614.5,736.6)" />
<use xlink:href="#f3_4u" transform="matrix(10.1,0,0,10.1,557.3,737.9)" />
</g>
<g clip-path="url(#c0_19)">
<g fill="#000000" >
<use xlink:href="#f3_5a" transform="matrix(10.1,0,0,10.1,666.4,737.9)" />
</g>
</g>
<g fill="#000000" >
<use xlink:href="#f3_40" transform="matrix(10.1,0,0,10.1,519.8,746.2)" />
<use xlink:href="#f3_h" transform="matrix(10.1,0,0,10.1,546.2,746.2)" />
<use xlink:href="#f3_f" transform="matrix(10.1,0,0,10.1,589.8,746.2)" />
<use xlink:href="#f3_40" transform="matrix(10.1,0,0,10.1,643.5,746.2)" />
<use xlink:href="#f3_4v" transform="matrix(10.1,0,0,10.1,557.3,749.1)" />
</g>
<g clip-path="url(#c1_19)">
<g fill="#000000" >
<use xlink:href="#f3_5b" transform="matrix(10.1,0,0,10.1,666.4,749.1)" />
</g>
</g>
<g fill="#000000" >
<use xlink:href="#f3_4w" transform="matrix(10.1,0,0,10.1,557.3,759.9)" />
<use xlink:href="#f2_v" transform="matrix(10,0,0,10,675.8,749.8)" />
<use xlink:href="#f2_2l" transform="matrix(10,0,0,10,686.6,749.8)" />
<use xlink:href="#f3_40" transform="matrix(10,0,0,10,696.7,749.8)" />
<use xlink:href="#f3_c" transform="matrix(10,0,0,10,710.8,749.8)" />
<use xlink:href="#f2_4y" transform="matrix(10,0,0,10,715.7,749.8)" />
<use xlink:href="#f3_2v" transform="matrix(10,0,0,10,722.9,749.8)" />
<use xlink:href="#f3_g" transform="matrix(10,0,0,10,733.5,749.8)" />
<use xlink:href="#f2_4y" transform="matrix(10,0,0,10,740.3,749.8)" />
<use xlink:href="#f3_l" transform="matrix(10,0,0,10,747.8,749.8)" />
<use xlink:href="#f2_1t" transform="matrix(10,0,0,10,755,749.8)" />
<use xlink:href="#f3_3u" transform="matrix(10,0,0,10,763.4,749.8)" />
<use xlink:href="#f2_1r" transform="matrix(10,0,0,10,777.9,749.8)" />
<use xlink:href="#f2_l" transform="matrix(10,0,0,10,782.5,749.8)" />
<use xlink:href="#f2_g" transform="matrix(10,0,0,10,789.8,749.8)" />
<use xlink:href="#f3_2v" transform="matrix(10,0,0,10,796.9,749.8)" />
<use xlink:href="#f2_d" transform="matrix(10,0,0,10,807.4,749.8)" />
</g>
<image preserveAspectRatio="none" x="467" y="794" width="386" height="240" xlink:href="img/2.png" />
<path fill-rule="evenodd" d="M56.1,110.9H364.8v33H56.1v-33Z" class="g1_19" />
<path fill-rule="evenodd" d="M54.8,109.8h311V145H54.8V109.8l1.7,33.8h308V111.3H56.5v32.3L54.8,109.8Z" class="g1_19" />
<g fill="#FFFFFF" >
<use xlink:href="#f4_ry" transform="matrix(12,0,0,12,62.9,132.2)" />
<use xlink:href="#f4_rz" transform="matrix(12,0,0,12,72.1,132.2)" />
<use xlink:href="#f4_nt" transform="matrix(12,0,0,12,81.4,132.2)" />
<use xlink:href="#f4_14" transform="matrix(12,0,0,12,90.4,132.2)" />
<use xlink:href="#f4_b1" transform="matrix(12,0,0,12,102.1,132.2)" />
<use xlink:href="#f4_77" transform="matrix(12,0,0,12,108.3,132.2)" />
<use xlink:href="#f4_ay" transform="matrix(12,0,0,12,117.3,132.2)" />
<use xlink:href="#f4_9n" transform="matrix(12,0,0,12,127.2,132.2)" />
<use xlink:href="#f4_b5" transform="matrix(12,0,0,12,137,132.2)" />
<use xlink:href="#f4_am" transform="matrix(12,0,0,12,148.3,132.2)" />
<use xlink:href="#f4_89" transform="matrix(12,0,0,12,158.2,132.2)" />
<use xlink:href="#f4_2t" transform="matrix(12,0,0,12,168.1,132.2)" />
<use xlink:href="#f4_b1" transform="matrix(12,0,0,12,176.4,132.2)" />
<use xlink:href="#f4_9q" transform="matrix(12,0,0,12,183,132.2)" />
<use xlink:href="#f4_9d" transform="matrix(12,0,0,12,187.4,132.2)" />
<use xlink:href="#f4_am" transform="matrix(12,0,0,12,195.8,132.2)" />
<use xlink:href="#f4_af" transform="matrix(12,0,0,12,205.7,132.2)" />
<use xlink:href="#f4_am" transform="matrix(12,0,0,12,215.8,132.2)" />
<use xlink:href="#f4_ae" transform="matrix(12,0,0,12,225.7,132.2)" />
<use xlink:href="#f4_7z" transform="matrix(12,0,0,12,240.6,132.2)" />
<use xlink:href="#f4_bf" transform="matrix(12,0,0,12,249.5,132.2)" />
<use xlink:href="#f4_b1" transform="matrix(12,0,0,12,255.9,132.2)" />
<use xlink:href="#f4_9q" transform="matrix(12,0,0,12,262.4,132.2)" />
<use xlink:href="#f4_7l" transform="matrix(12,0,0,12,266.9,132.2)" />
<use xlink:href="#f4_13" transform="matrix(12,0,0,12,278.9,132.2)" />
<use xlink:href="#f4_c6" transform="matrix(12,0,0,12,287.3,132.2)" />
<use xlink:href="#f4_af" transform="matrix(12,0,0,12,297,132.2)" />
<use xlink:href="#f4_7l" transform="matrix(12,0,0,12,306.9,132.2)" />
<use xlink:href="#f4_bf" transform="matrix(12,0,0,12,314.8,132.2)" />
<use xlink:href="#f4_9q" transform="matrix(12,0,0,12,321.2,132.2)" />
<use xlink:href="#f4_am" transform="matrix(12,0,0,12,325.6,132.2)" />
<use xlink:href="#f4_af" transform="matrix(12,0,0,12,335.5,132.2)" />
<use xlink:href="#f4_b5" transform="matrix(12,0,0,12,345.6,132.2)" />
</g>
<g fill="#000000" >
<use xlink:href="#f1_c" transform="matrix(10,0,0,10,95.9,169.9)" />
<use xlink:href="#f1_1x" transform="matrix(10,0,0,10,101.2,169.9)" />
<use xlink:href="#f1_d" transform="matrix(10,0,0,10,108.7,169.9)" />
<use xlink:href="#f2_2l" transform="matrix(10,0,0,10,150.9,169.9)" />
<use xlink:href="#f2_x" transform="matrix(10,0,0,10,162.6,169.9)" />
<use xlink:href="#f2_2f" transform="matrix(10,0,0,10,175.8,169.9)" />
<use xlink:href="#f2_25" transform="matrix(10,0,0,10,181.5,169.9)" />
<use xlink:href="#f2_2a" transform="matrix(10,0,0,10,185.7,169.9)" />
<use xlink:href="#f2_2k" transform="matrix(10,0,0,10,197.6,169.9)" />
<use xlink:href="#f2_g" transform="matrix(10,0,0,10,205.3,169.9)" />
<use xlink:href="#f2_2k" transform="matrix(10,0,0,10,150.9,195.1)" />
<use xlink:href="#f3_40" transform="matrix(10,0,0,10,162.2,195.1)" />
<use xlink:href="#f2_1i" transform="matrix(10,0,0,10,177.3,195.1)" />
<use xlink:href="#f2_v" transform="matrix(10,0,0,10,191.2,195.1)" />
<use xlink:href="#f2_2l" transform="matrix(10,0,0,10,199.7,195.1)" />
<use xlink:href="#f3_40" transform="matrix(10,0,0,10,211,195.1)" />
<use xlink:href="#f2_1r" transform="matrix(10,0,0,10,225.9,195.1)" />
<use xlink:href="#f2_4y" transform="matrix(10,0,0,10,231,195.1)" />
<use xlink:href="#f2_l" transform="matrix(10,0,0,10,238.7,195.1)" />
<use xlink:href="#f2_g" transform="matrix(10,0,0,10,246.2,195.1)" />
<use xlink:href="#f2_l" transform="matrix(10,0,0,10,254.3,195.1)" />
<use xlink:href="#f2_1t" transform="matrix(10,0,0,10,262,195.1)" />
</g>
<image preserveAspectRatio="none" x="56" y="205" width="385" height="239" xlink:href="img/3.png" />
<g fill="#000000" >
<use xlink:href="#f1_c" transform="matrix(10,0,0,10,95.9,462.9)" />
<use xlink:href="#f1_1y" transform="matrix(10,0,0,10,101.2,462.9)" />
<use xlink:href="#f1_d" transform="matrix(10,0,0,10,109.4,462.9)" />
<use xlink:href="#f2_2l" transform="matrix(10,0,0,10,150.9,462.9)" />
<use xlink:href="#f2_x" transform="matrix(10,0,0,10,162.1,462.9)" />
<use xlink:href="#f2_1z" transform="matrix(10,0,0,10,174.9,462.9)" />
<use xlink:href="#f2_2b" transform="matrix(10,0,0,10,181.7,462.9)" />
<use xlink:href="#f2_2f" transform="matrix(10,0,0,10,189.2,462.9)" />
<use xlink:href="#f2_2k" transform="matrix(10,0,0,10,198.9,462.9)" />
<use xlink:href="#f2_g" transform="matrix(10,0,0,10,206.6,462.9)" />
<use xlink:href="#f2_2k" transform="matrix(10,0,0,10,150.9,488.2)" />
<use xlink:href="#f3_40" transform="matrix(10,0,0,10,162.2,488.2)" />
<use xlink:href="#f2_1i" transform="matrix(10,0,0,10,177.3,488.2)" />
<use xlink:href="#f2_v" transform="matrix(10,0,0,10,191.2,488.2)" />
<use xlink:href="#f2_2l" transform="matrix(10,0,0,10,199.7,488.2)" />
<use xlink:href="#f3_40" transform="matrix(10,0,0,10,211,488.2)" />
<use xlink:href="#f2_1r" transform="matrix(10,0,0,10,225.9,488.2)" />
<use xlink:href="#f2_4y" transform="matrix(10,0,0,10,231,488.2)" />
<use xlink:href="#f2_l" transform="matrix(10,0,0,10,238.7,488.2)" />
<use xlink:href="#f2_g" transform="matrix(10,0,0,10,246.2,488.2)" />
<use xlink:href="#f2_l" transform="matrix(10,0,0,10,254.3,488.2)" />
<use xlink:href="#f2_1t" transform="matrix(10,0,0,10,262,488.2)" />
</g>
<image preserveAspectRatio="none" x="56" y="503" width="385" height="240" xlink:href="img/4.png" />
<g fill="#000000" >
<use xlink:href="#f1_c" transform="matrix(10,0,0,10,95.9,763.6)" />
<use xlink:href="#f1_1z" transform="matrix(10,0,0,10,101.2,763.6)" />
<use xlink:href="#f1_d" transform="matrix(10,0,0,10,108.2,763.6)" />
<use xlink:href="#f2_2l" transform="matrix(10,0,0,10,150.9,763.6)" />
<use xlink:href="#f2_x" transform="matrix(10,0,0,10,162.6,763.6)" />
<use xlink:href="#f2_2g" transform="matrix(10,0,0,10,176,763.6)" />
<use xlink:href="#f2_1x" transform="matrix(10,0,0,10,180.2,763.6)" />
<use xlink:href="#f2_2a" transform="matrix(10,0,0,10,187,763.6)" />
<use xlink:href="#f2_2k" transform="matrix(10,0,0,10,198.7,763.6)" />
<use xlink:href="#f2_g" transform="matrix(10,0,0,10,206.4,763.6)" />
</g>
<path d="M213.9,814v.4c-1.2,-.8,-2.2,-2,-2.9,-3.7c-.7,-1.6,-1.1,-3.5,-1.1,-5.5c0,-2,.4,-3.9,1.1,-5.5c.7,-1.7,1.7,-2.9,2.9,-3.7v.6c-.5,.3,-1.1,.9,-1.4,1.8c-.4,.7,-.8,1.7,-.9,2.9c-.2,1.1,-.2,2.4,-.2,3.7c0,1.5,0,2.8,.2,3.9c.1,1.3,.3,2.2,.7,2.9c.4,.9,.9,1.5,1.6,2.2Zm37.4,-17.4V796c1.3,.9,2.4,2.2,3.2,3.9c.5,1.6,.9,3.5,.9,5.3c0,2,-.4,3.9,-1.1,5.7c-.8,1.6,-1.7,2.7,-3,3.5V814c.8,-.5,1.1,-1.1,1.5,-1.8c.6,-.8,.7,-1.9,.9,-3c.2,-1.2,.4,-2.4,.4,-3.6c0,-1.5,-.2,-3,-.4,-4.1c-.2,-1.1,-.3,-2.2,-.7,-2.9c-.4,-.7,-.9,-1.5,-1.7,-2Z" class="g1_19" />
<path d="M257.9,805h9.9" class="g6_19" />
<g fill="#000000" >
<use xlink:href="#f2_2k" transform="matrix(10.1,0,0,10.1,154,808.7)" />
<use xlink:href="#f2_1i" transform="matrix(10.1,0,0,10.1,176.9,808.7)" />
<use xlink:href="#f2_m" transform="matrix(10.1,0,0,10.1,215.6,808.7)" />
<use xlink:href="#f2_2a" transform="matrix(10.1,0,0,10.1,223.3,808.7)" />
<use xlink:href="#f2_l" transform="matrix(10.1,0,0,10.1,244,808.7)" />
<use xlink:href="#f2_v" transform="matrix(10.1,0,0,10.1,269.5,808.7)" />
<use xlink:href="#f2_2a" transform="matrix(10.1,0,0,10.1,277.6,808.7)" />
<use xlink:href="#f2_1q" transform="matrix(10.1,0,0,10.1,300.9,808.7)" />
<use xlink:href="#f2_v" transform="matrix(10.1,0,0,10.1,319,808.7)" />
<use xlink:href="#f2_2l" transform="matrix(10.1,0,0,10.1,330.4,808.7)" />
<use xlink:href="#f2_1i" transform="matrix(10.1,0,0,10.1,352.9,808.7)" />
<use xlink:href="#f2_m" transform="matrix(10.1,0,0,10.1,259.2,820.8)" />
<use xlink:href="#f3_2c" transform="matrix(10.1,0,0,10.1,259.1,799.1)" />
<use xlink:href="#f3_4u" transform="matrix(10.1,0,0,10.1,201.8,800.2)" />
<use xlink:href="#f3_5a" transform="matrix(10.1,0,0,10.1,310.7,800.2)" />
</g>
<g clip-path="url(#c2_19)">
<g fill="#000000" >
<use xlink:href="#f3_40" transform="matrix(10.1,0,0,10.1,163.9,808.7)" />
<use xlink:href="#f3_h" transform="matrix(10.1,0,0,10.1,190.5,808.7)" />
<use xlink:href="#f3_f" transform="matrix(10.1,0,0,10.1,234.1,808.7)" />
<use xlink:href="#f3_40" transform="matrix(10.1,0,0,10.1,287.8,808.7)" />
<use xlink:href="#f3_40" transform="matrix(10.1,0,0,10.1,340.1,808.7)" />
</g>
</g>
<g fill="#000000" >
<use xlink:href="#f3_4v" transform="matrix(10.1,0,0,10.1,201.8,811.6)" />
<use xlink:href="#f3_5b" transform="matrix(10.1,0,0,10.1,310.7,811.6)" />
<use xlink:href="#f3_4w" transform="matrix(10.1,0,0,10.1,201.8,822.4)" />
</g>
<image preserveAspectRatio="none" x="83" y="848" width="332" height="207" xlink:href="img/5.png" />
<path d="M55.2,95.1H854.1V72.8H55.2V95.1Z" class="g7_19" />
<defs>
<path d="M280,0V144h30c0,0,51,0,66,6c0,0,14,6,21,22c0,0,8,17,8,67V851c0,0,0,26,-6,33c0,0,-6,7,-26,7c0,0,-38,0,-86,-29c0,0,-48,-29,-85,-82c0,0,-15,-21,-63,-118L2,711l128,365h99l10,-36H826l13,36h99L1067,711L928,662c0,0,-46,91,-66,119c0,0,-40,55,-92,86c0,0,-38,24,-77,24c0,0,-18,0,-24,-9c0,0,-7,-8,-7,-39V244c0,0,0,-53,4,-66c0,0,3,-13,12,-21c0,0,9,-8,25,-11c0,0,16,-2,84,-2V0Z" 
id="f0_1k"
transform="scale(0.001,-0.001)" />

<path d="M593,600c0,0,92,0,137,17c0,0,45,17,68,48c0,0,22,31,22,76c0,0,0,41,-21,71c0,0,-21,29,-60,43c0,0,-40,14,-128,14H439V600ZM55,0V144h46c0,0,37,0,52,8c0,0,16,7,23,23c0,0,4,9,4,56V816c0,0,0,35,-6,49c0,0,-5,15,-18,19c0,0,-18,8,-41,8H55v148H697c0,0,62,0,135,-11c0,0,74,-11,133,-49c0,0,60,-38,92,-96c0,0,33,-59,33,-132c0,0,0,-118,-84,-192c0,0,-85,-73,-201,-96L1019,215l9,-11c0,0,21,-25,38,-38c0,0,17,-12,34,-17c0,0,18,-5,48,-5h45V0H859L526,448H439V241c0,0,0,-54,6,-69c0,0,6,-14,19,-21c0,0,13,-7,52,-7h48V0Z" 
id="f0_1i"
transform="scale(0.001,-0.001)" />

<path d="M52,0V144H93c0,0,44,0,58,6c0,0,13,6,20,20c0,0,6,14,6,55V803c0,0,0,49,-6,64c0,0,-7,15,-22,24c0,0,-10,6,-51,6H52v143H559V897H513c0,0,-40,0,-53,-7c0,0,-13,-8,-20,-23c0,0,-6,-15,-6,-58V233c0,0,0,-47,5,-61c0,0,6,-13,18,-19c0,0,16,-9,47,-9h55V0Z" 
id="f0_19"
transform="scale(0.001,-0.001)" />

<path d="M568,-17c0,0,-143,0,-260,69c0,0,-117,69,-185,193c0,0,-68,125,-68,279c0,0,0,153,67,274c0,0,68,121,189,190c0,0,121,70,263,70c0,0,68,0,136,-17c0,0,69,-18,117,-47l28,46H959l94,-344L916,651c0,0,-71,113,-111,154c0,0,-41,41,-94,65c0,0,-52,23,-102,23c0,0,-71,0,-133,-41c0,0,-61,-41,-97,-120c0,0,-36,-79,-36,-191c0,0,0,-123,39,-213c0,0,40,-90,103,-134c0,0,64,-43,140,-43c0,0,53,0,102,21c0,0,48,22,66,49c0,0,18,26,18,72v38c0,0,0,39,-6,49c0,0,-8,15,-22,22c0,0,-13,7,-53,7H671V554h507V409h-38c0,0,-37,0,-51,-7c0,0,-14,-7,-20,-21c0,0,-7,-15,-7,-56V0H909L870,75C870,75,799,28,724,5c0,0,-75,-22,-156,-22Z" 
id="f0_17"
transform="scale(0.001,-0.001)" />

<path d="M611,148c0,0,117,0,187,88c0,0,83,105,83,281c0,0,0,124,-35,208c0,0,-36,84,-96,126c0,0,-61,42,-132,42c0,0,-118,0,-189,-89c0,0,-88,-112,-88,-289c0,0,0,-176,82,-279c0,0,71,-88,188,-88ZM608,-17c0,0,-231,0,-378,126C230,109,53,262,53,518c0,0,0,237,155,389c0,0,156,151,407,151c0,0,248,0,401,-151c0,0,153,-150,153,-386c0,0,0,-159,-70,-282c0,0,-70,-123,-193,-190c0,0,-124,-66,-298,-66Z" 
id="f0_1f"
transform="scale(0.001,-0.001)" />

<path d="M59,0V144h44c0,0,37,0,51,6c0,0,14,6,22,22c0,0,8,16,8,47V816c0,0,0,34,-8,50c0,0,-7,16,-20,24c0,0,-12,7,-42,7H59v143H480L786,433V805c0,0,0,48,-5,60c0,0,-8,17,-20,25c0,0,-13,7,-49,7H661v143h428V897h-47c0,0,-36,0,-51,-9c0,0,-15,-8,-21,-22c0,0,-6,-14,-6,-61V0H750L364,767V230c0,0,0,-46,5,-59c0,0,6,-12,20,-20c0,0,15,-7,50,-7h50V0Z" 
id="f0_1e"
transform="scale(0.001,-0.001)" />

<path d="M59,0V144h42c0,0,39,0,54,7c0,0,15,7,22,22c0,0,7,15,7,57V813c0,0,0,40,-5,52c0,0,-7,17,-21,24c0,0,-13,8,-42,8H59v143H530L711,408l185,632h481V897h-52c0,0,-41,0,-57,-18c0,0,-16,-17,-16,-66V222c0,0,0,-39,4,-48c0,0,7,-15,19,-21c0,0,16,-9,43,-9h59V0H876V144h39c0,0,42,0,57,6c0,0,15,7,22,21c0,0,7,14,7,51V862L748,0H604L359,835V202c0,0,0,-22,8,-34c0,0,8,-12,22,-18c0,0,15,-6,47,-6h50V0Z" 
id="f0_1d"
transform="scale(0.001,-0.001)" />

<path d="M59,0V144H85c0,0,52,0,70,7c0,0,18,8,25,26c0,0,4,11,4,64V808c0,0,0,46,-7,60c0,0,-6,14,-19,22c0,0,-14,7,-53,7H59v143H928L1046,712L911,663c0,0,-34,81,-80,130c0,0,-46,49,-102,65c0,0,-55,16,-129,16H441V615h52c0,0,59,0,80,9c0,0,20,8,29,26c0,0,9,19,9,73v40H744V322H611v45c0,0,0,45,-11,66c0,0,-11,21,-29,29c0,0,-19,7,-83,7H441V230c0,0,0,-38,4,-47c0,0,3,-8,14,-12c0,0,11,-5,47,-5h87c0,0,98,0,165,28c0,0,67,28,120,91c0,0,53,63,81,149l136,-47L959,0Z" 
id="f0_15"
transform="scale(0.001,-0.001)" />

<path d="M280,0V144h27c0,0,54,0,69,7c0,0,15,7,23,24c0,0,8,16,8,67V405L129,827c0,0,-33,49,-57,61c0,0,-18,9,-71,9v143H518V897H479c0,0,-41,0,-51,-7c0,0,-11,-6,-11,-20c0,0,0,-20,24,-59L579,586L730,821c0,0,20,31,22,34c0,0,3,9,3,17c0,0,0,13,-8,19c0,0,-9,6,-40,6H653v143h416V897c0,0,-55,-1,-77,-13c0,0,-22,-12,-52,-57L663,422V236c0,0,0,-49,6,-64c0,0,7,-14,22,-21c0,0,15,-7,60,-7h37V0Z" 
id="f0_1p"
transform="scale(0.001,-0.001)" />

<path d="M491,-305c0,0,-180,60,-305,247C186,-58,61,127,61,368c0,0,0,239,124,423c0,0,125,184,306,243v-34c0,0,-78,-50,-115,-99c0,0,-50,-67,-79,-172c0,0,-36,-131,-36,-365c0,0,0,-221,33,-343c0,0,32,-122,88,-197c0,0,39,-52,109,-92v-37Z" 
id="f1_c"
transform="scale(0.001,-0.001)" />

<path d="M397,69c0,0,65,0,123,103V539c0,0,-55,105,-134,105c0,0,-28,0,-46,-15c0,0,-27,-23,-45,-81c0,0,-17,-58,-17,-178c0,0,0,-132,19,-195c0,0,19,-63,53,-91c0,0,17,-15,47,-15ZM332,-20c0,0,-133,0,-211,119c0,0,-62,97,-62,238c0,0,0,112,38,202c0,0,39,89,107,134c0,0,67,46,145,46c0,0,50,0,88,-20c0,0,39,-19,83,-67V842c0,0,0,80,-7,96c0,0,-8,22,-26,32c0,0,-18,11,-68,11v31H729V209c0,0,0,-81,5,-96c0,0,6,-25,22,-36c0,0,17,-12,58,-15V37L520,-20V90C520,90,467,26,426,3c0,0,-42,-23,-94,-23Z" 
id="f1_20"
transform="scale(0.001,-0.001)" />

<path d="M19,-305v34c0,0,77,52,114,100c0,0,50,67,79,171c0,0,36,131,36,365c0,0,0,221,-33,343c0,0,-32,122,-88,198c0,0,-39,52,-108,91v37c0,0,179,-60,304,-246c0,0,125,-186,125,-428c0,0,0,-238,-125,-421c0,0,-125,-184,-304,-244Z" 
id="f1_d"
transform="scale(0.001,-0.001)" />

<path d="M145,-328c0,0,-44,0,-73,25c0,0,-28,25,-28,58c0,0,0,31,21,50c0,0,20,19,56,19c0,0,25,0,67,-16c0,0,30,-11,38,-11c0,0,22,0,49,23c0,0,26,23,53,89L376,28L131,542c0,0,-11,24,-36,58c0,0,-19,27,-30,36c0,0,-18,12,-56,21v26H328V657H312c0,0,-33,0,-50,-15c0,0,-17,-14,-17,-36c0,0,0,-30,25,-81L437,179L589,557c0,0,12,31,12,62c0,0,0,13,-5,20c0,0,-6,8,-19,13c0,0,-12,5,-44,5v26H754V657c0,0,-27,-3,-42,-12c0,0,-15,-9,-33,-34c0,0,-7,-10,-25,-58L376,-128c0,0,-40,-99,-105,-150c0,0,-66,-50,-126,-50Z" 
id="f2_2l"
transform="scale(0.001,-0.001)" />

<path d="M27,354v62H831V354Zm0,243v62H831V597Z" 
id="f2_x"
transform="scale(0.001,-0.001)" />

<path d="M342,-20c0,0,-116,0,-203,97c0,0,-86,98,-86,264c0,0,0,161,96,261c0,0,95,101,230,101c0,0,100,0,165,-53c0,0,65,-54,65,-111c0,0,0,-29,-18,-46c0,0,-18,-18,-51,-18c0,0,-44,0,-66,29c0,0,-13,15,-17,59c0,0,-4,45,-30,68c0,0,-26,22,-73,22c0,0,-74,0,-120,-55c0,0,-60,-73,-60,-193c0,0,0,-122,60,-216c0,0,60,-93,162,-93c0,0,73,0,131,49c0,0,41,35,80,126l22,-10C629,261,601,125,521,52c0,0,-81,-72,-179,-72Z" 
id="f2_1z"
transform="scale(0.001,-0.001)" />

<path d="M406,32c0,0,72,0,119,60c0,0,47,59,47,205c0,0,0,181,-78,286c0,0,-53,71,-135,71c0,0,-40,0,-79,-23c0,0,-40,-24,-65,-83c0,0,-24,-58,-24,-151c0,0,0,-149,59,-257c0,0,59,-108,156,-108ZM374,-20c0,0,-154,0,-245,122c0,0,-77,104,-77,233c0,0,0,94,46,187c0,0,47,92,123,137c0,0,76,44,161,44c0,0,155,0,249,-118c0,0,80,-100,80,-231c0,0,0,-91,-44,-185C667,169,623,75,546,27c0,0,-77,-47,-172,-47Z" 
id="f2_2b"
transform="scale(0.001,-0.001)" />

<path d="M255,-10c0,0,-35,0,-68,18c0,0,-32,19,-48,55c0,0,-16,35,-16,109V632H15v24c0,0,41,16,84,56c0,0,43,39,77,92c0,0,17,29,48,104h23V683H407V632H247V188c0,0,0,-66,19,-90c0,0,19,-23,49,-23c0,0,24,0,47,16c0,0,23,15,36,45h29c0,0,-26,-73,-74,-110c0,0,-47,-36,-98,-36Z" 
id="f2_2g"
transform="scale(0.001,-0.001)" />

<path d="M25,0V26c0,0,27,4,47,19c0,0,29,22,96,111L311,346L182,535c0,0,-55,81,-86,102c0,0,-30,20,-75,20v26H341V657c0,0,-30,0,-42,-10c0,0,-13,-11,-13,-28c0,0,0,-19,27,-56c0,0,8,-12,25,-37l48,-78l56,77c0,0,55,74,55,94c0,0,0,16,0,27c0,0,0,11,0,11v26H674V657c0,0,-37,-2,-64,-20c0,0,-37,-26,-100,-111L416,402L587,156c0,0,63,-91,89,-109c0,0,27,-18,70,-21V0H423V26c0,0,34,0,53,15c0,0,14,11,14,28c0,0,0,17,-48,87L341,302L232,157c0,0,-50,-69,-50,-82c0,0,0,-18,17,-32c0,0,17,-15,50,-17V0Z" 
id="f2_2k"
transform="scale(0.001,-0.001)" />

<path d="M82,-253v33c0,0,77,25,119,78c0,0,42,54,42,114c0,0,0,14,-7,23c0,0,-5,6,-11,6c0,0,-8,0,-35,-14c0,0,-14,-7,-28,-7c0,0,-37,0,-58,21C104,1,82,23,82,61c0,0,0,36,28,62c0,0,28,27,68,27c0,0,49,0,88,-43c0,0,38,-43,38,-113c0,0,0,-77,-53,-143c0,0,-53,-66,-169,-104Z" 
id="f2_g"
transform="scale(0.001,-0.001)" />

<path d="M398,0C398,0,266,0,185,39c0,0,-82,39,-133,124C52,163,0,248,0,342c0,0,0,144,103,243c0,0,103,98,292,98H694V611H387c0,0,-99,0,-166,-32c0,0,-68,-32,-105,-88c0,0,-26,-40,-41,-113H694V304H75c0,0,30,-120,103,-176c0,0,73,-56,210,-56H694V0Z" 
id="f3_40"
transform="scale(0.001,-0.001)" />

<path d="M356,519c0,0,145,0,218,63c0,0,74,63,74,160c0,0,0,95,-60,154c0,0,-59,59,-157,59c0,0,-43,0,-117,-13V520c0,0,14,0,25,0c0,0,10,-1,17,-1ZM26,0V27H64c0,0,64,0,92,42c0,0,15,23,15,110V833c0,0,0,96,-21,119c0,0,-29,33,-86,33H26v27H395c0,0,161,0,238,-24c0,0,76,-23,129,-86c0,0,54,-63,54,-151c0,0,0,-93,-61,-162c0,0,-61,-68,-189,-97L775,202c0,0,72,-100,123,-133c0,0,52,-33,134,-42V0H762L419,473c0,0,-38,-1,-61,-1c0,0,-10,0,-21,0c0,0,-11,0,-23,1V179c0,0,0,-96,21,-119c0,0,28,-33,84,-33h40V0Z" 
id="f2_1i"
transform="scale(0.001,-0.001)" />

<path d="M-12,338v55H777V338Z" 
id="f2_4y"
transform="scale(0.001,-0.001)" />

<path d="M628,-328c0,0,-124,17,-202,101c0,0,-78,84,-78,186c0,0,0,52,17,124c0,0,16,71,16,111c0,0,0,53,-44,100c0,0,-45,47,-124,57v30c0,0,79,11,124,57c0,0,44,46,44,100c0,0,0,40,-16,111c0,0,-17,70,-17,125c0,0,0,101,78,185c0,0,78,85,202,101v-26c0,0,-87,-21,-128,-69c0,0,-40,-47,-40,-103c0,0,0,-44,16,-116c0,0,17,-72,17,-123c0,0,0,-75,-55,-146c0,0,-55,-70,-163,-109c0,0,106,-40,162,-112c0,0,56,-72,56,-147c0,0,0,-51,-17,-122c0,0,-16,-72,-16,-116c0,0,0,-57,40,-104c0,0,41,-47,128,-69v-26Z" 
id="f2_2n"
transform="scale(0.001,-0.001)" />

<path d="M21,0V26H35c0,0,53,0,71,27c0,0,18,27,18,101V408c0,0,0,123,-5,150c0,0,-6,27,-17,37c0,0,-12,10,-31,10c0,0,-21,0,-50,-11L10,620l206,83h32V558c0,0,120,145,229,145c0,0,56,0,96,-28c0,0,40,-28,64,-92c0,0,16,-45,16,-137V154c0,0,0,-65,11,-88c0,0,8,-19,26,-29c0,0,18,-11,68,-11V0H419V26h14c0,0,47,0,66,15c0,0,20,15,27,43c0,0,3,11,3,70V434c0,0,0,93,-24,135c0,0,-24,42,-81,42c0,0,-88,0,-176,-97V154c0,0,0,-69,9,-86c0,0,10,-21,28,-31c0,0,19,-11,75,-11V0Z" 
id="f2_2a"
transform="scale(0.001,-0.001)" />

<path d="M140,-21c0,0,-26,0,-44,17C96,-4,79,13,79,40c0,0,0,19,6,33c0,0,8,20,34,55c0,0,46,60,64,126c0,0,32,114,41,321H190c0,0,-55,0,-81,-18c0,0,-44,-26,-80,-89H0c0,0,42,129,98,178c0,0,43,37,120,37H743V575H562c0,0,-27,-171,-27,-327c0,0,0,-77,27,-110c0,0,27,-33,67,-33c0,0,33,0,56,22c0,0,24,22,31,65h27C743,192,730,74,686,26c0,0,-44,-47,-98,-47c0,0,-58,0,-97,51c0,0,-39,53,-39,198c0,0,0,91,28,347H286c0,0,-23,-390,-56,-494c0,0,-33,-102,-90,-102Z" 
id="f3_2c"
transform="scale(0.001,-0.001)" />

<path d="M106,-253v33c0,0,76,25,118,78c0,0,42,54,42,113c0,0,0,15,-7,24c0,0,-5,6,-10,6c0,0,-8,0,-36,-14c0,0,-13,-7,-28,-7c0,0,-36,0,-58,21c0,0,-21,22,-21,60c0,0,0,36,28,62c0,0,27,27,68,27c0,0,49,0,87,-43c0,0,39,-43,39,-113c0,0,0,-77,-54,-143c0,0,-53,-66,-168,-104ZM210,540c0,0,-35,0,-59,24c0,0,-24,24,-24,59c0,0,0,34,24,58c0,0,24,24,59,24c0,0,34,0,58,-24c0,0,24,-24,24,-58c0,0,0,-35,-24,-59c0,0,-24,-24,-58,-24Z" 
id="f2_v"
transform="scale(0.001,-0.001)" />

<path d="M30,0V27L485,632H260c0,0,-72,0,-94,-10c0,0,-22,-9,-36,-35c0,0,-20,-37,-23,-92H76l5,188H654V656L196,51H445c0,0,79,0,106,13c0,0,28,13,45,46c0,0,12,23,21,100h25L634,0Z" 
id="f2_2m"
transform="scale(0.001,-0.001)" />

<path d="M132,-328v26c0,0,87,21,128,68c0,0,40,47,40,105c0,0,0,44,-17,115c0,0,-17,71,-17,121c0,0,0,76,55,147c0,0,55,71,164,109c0,0,-107,40,-163,112c0,0,-56,72,-56,148c0,0,0,50,17,122c0,0,17,72,17,116c0,0,0,57,-40,104c0,0,-41,48,-128,69v26c0,0,124,-17,202,-100c0,0,78,-84,78,-187c0,0,0,-54,-17,-125c0,0,-18,-71,-18,-110c0,0,0,-54,45,-101c0,0,45,-46,125,-57V350c0,0,-80,-10,-125,-57c0,0,-45,-47,-45,-100c0,0,0,-40,18,-111c0,0,17,-71,17,-124c0,0,0,-101,-78,-185c0,0,-78,-84,-202,-101Z" 
id="f2_2p"
transform="scale(0.001,-0.001)" />

<path d="M458,424c0,0,0,120,-13,165c0,0,-13,44,-40,67c0,0,-16,14,-42,14c0,0,-39,0,-63,-38c0,0,-44,-66,-44,-182V424ZM358,-20c0,0,-155,0,-235,119c0,0,-64,96,-64,239c0,0,0,174,94,277c0,0,94,104,221,104c0,0,106,0,184,-87c0,0,78,-87,84,-257H259c0,0,7,-139,74,-220c0,0,51,-62,124,-62c0,0,45,0,81,25c0,0,37,25,79,90l25,-16C642,192,585,76,517,28c0,0,-69,-48,-159,-48Z" 
id="f1_21"
transform="scale(0.001,-0.001)" />

<path d="M312,-20c0,0,-62,0,-143,22c0,0,-25,8,-40,8c0,0,-18,0,-27,-19H77V234h25c0,0,21,-105,80,-158c0,0,59,-53,132,-53c0,0,51,0,84,31c0,0,32,30,32,72c0,0,0,52,-36,87c0,0,-36,35,-144,88c0,0,-109,54,-142,97c0,0,-34,43,-34,107c0,0,0,85,58,141c0,0,58,57,150,57c0,0,40,0,97,-17c0,0,38,-11,51,-11c0,0,12,0,19,5c0,0,7,5,15,23h25V470H464c0,0,-28,110,-72,149c0,0,-45,40,-113,40c0,0,-53,0,-85,-28c0,0,-32,-27,-32,-61c0,0,0,-41,24,-71c0,0,23,-31,94,-65L389,381c0,0,152,-74,152,-194c0,0,0,-94,-71,-151c0,0,-70,-56,-158,-56Z" 
id="f2_2f"
transform="scale(0.001,-0.001)" />

<path d="M479,469c0,0,-4,66,-16,93c0,0,-18,42,-55,65c0,0,-37,24,-78,24c0,0,-62,0,-111,-48c0,0,-48,-48,-57,-134ZM355,-20c0,0,-123,0,-211,95c0,0,-87,96,-87,258c0,0,0,175,90,273c0,0,89,98,225,98c0,0,115,0,189,-76c0,0,74,-75,74,-202H162c0,0,0,-152,74,-239c0,0,75,-86,175,-86c0,0,67,0,117,36c0,0,50,37,83,127l24,-15c0,0,-16,-102,-91,-186c0,0,-76,-83,-189,-83Z" 
id="f2_21"
transform="scale(0.001,-0.001)" />

<path d="M20,0V28L669,951H345c0,0,-81,0,-117,-17c0,0,-36,-18,-55,-51c0,0,-19,-33,-35,-124H110l20,253H880L215,62H629c0,0,96,0,147,41c0,0,51,42,91,170l24,-5L843,0Z" 
id="f2_1q"
transform="scale(0.001,-0.001)" />

<path d="M412,-328c0,0,-195,96,-303,284C109,-44,0,142,0,365c0,0,0,232,114,422c0,0,114,191,298,273v-31c0,0,-92,-51,-151,-139c0,0,-59,-88,-88,-223c0,0,-29,-136,-29,-282c0,0,0,-167,27,-301c0,0,26,-133,82,-221c0,0,55,-89,159,-159v-32Z" 
id="f3_c"
transform="scale(0.001,-0.001)" />

<path d="M213,177c0,0,71,0,125,63c0,0,35,42,88,200c0,0,-37,82,-84,121c0,0,-47,38,-115,38c0,0,-79,0,-133,-55C94,544,41,488,41,395c0,0,0,-99,53,-159c0,0,52,-59,119,-59ZM752,150c0,0,92,0,153,66c0,0,62,66,62,177c0,0,0,109,-65,181c0,0,-65,71,-145,71c0,0,-52,0,-90,-26c0,0,-39,-26,-70,-83c0,0,-18,-34,-78,-190c0,0,56,-117,111,-156c0,0,54,-40,122,-40ZM749,79c0,0,-74,0,-137,54c0,0,-42,36,-114,159c0,0,-48,-92,-105,-133c0,0,-57,-41,-137,-41c0,0,-108,0,-182,77C74,195,0,272,0,394c0,0,0,123,69,198c0,0,68,76,160,76c0,0,64,0,113,-33c0,0,50,-34,106,-138c0,0,50,116,111,162c0,0,60,45,164,45c0,0,121,0,203,-87c0,0,83,-86,83,-224c0,0,0,-137,-81,-225c0,0,-80,-89,-179,-89Z" 
id="f3_2v"
transform="scale(0.001,-0.001)" />

<path d="M0,-253v33c0,0,76,25,118,78c0,0,42,53,42,112c0,0,0,16,-6,24c0,0,-5,6,-14,6c0,0,-5,0,-32,-13c0,0,-14,-7,-30,-7c0,0,-35,0,-56,21C22,1,0,23,0,61c0,0,0,36,28,62c0,0,28,27,68,27c0,0,49,0,88,-43c0,0,38,-43,38,-113c0,0,0,-77,-53,-143c0,0,-54,-66,-169,-104Z" 
id="f3_g"
transform="scale(0.001,-0.001)" />

<path d="M18,0V27c0,0,70,2,92,13c0,0,23,11,32,34c0,0,6,16,6,105V725c0,0,0,110,-8,142c0,0,-5,23,-19,34c0,0,-14,11,-34,11c0,0,-27,0,-76,-23L0,912l246,121h25V178c0,0,0,-85,7,-106c0,0,7,-21,29,-32c0,0,23,-11,91,-13V0Z" 
id="f3_l"
transform="scale(0.001,-0.001)" />

<path d="M56,-302v60H272V975H56v59H383V-302Z" 
id="f2_1t"
transform="scale(0.001,-0.001)" />

<path d="M585,0C585,0,458,0,354,54c0,0,-105,55,-171,131c0,0,-66,75,-95,170c0,0,-30,94,-30,187V763h70V563c0,0,0,-71,17,-149c0,0,17,-77,50,-127c0,0,47,-72,111,-120c0,0,64,-49,135,-73c0,0,70,-24,145,-24c0,0,190,0,333,145c0,0,124,125,124,346V763h72V543c0,0,0,-111,-39,-208c0,0,-38,-98,-109,-171C967,164,896,91,801,46C801,46,705,0,585,0Z" 
id="f3_3u"
transform="scale(0.001,-0.001)" />

<path d="M125,-302V1034H453V975H237V-243H453v-59Z" 
id="f2_1r"
transform="scale(0.001,-0.001)" />

<path d="M197,0V27c0,0,71,2,92,13c0,0,21,10,29,29c0,0,9,18,9,109V725c0,0,0,110,-8,141c0,0,-5,24,-19,35c0,0,-14,11,-33,11c0,0,-28,0,-77,-23l-11,23l246,121h25V178c0,0,0,-85,7,-106c0,0,7,-21,29,-32c0,0,23,-11,91,-13V0Z" 
id="f2_l"
transform="scale(0.001,-0.001)" />

<path d="M35,-326v29c0,0,92,51,151,139c0,0,60,87,89,221c0,0,28,136,28,282c0,0,0,159,-24,290c0,0,-19,103,-47,165c0,0,-28,62,-75,119c0,0,-46,57,-122,110v31c0,0,113,-56,188,-132c0,0,107,-109,165,-255c0,0,58,-147,58,-306c0,0,0,-231,-114,-420c0,0,-113,-191,-297,-273Z" 
id="f2_d"
transform="scale(0.001,-0.001)" />

<path d="M49,0V26c0,0,47,1,67,11c0,0,20,10,28,28c0,0,7,18,7,75l-1,484H49v73H150v87c0,0,0,107,79,179c0,0,78,71,212,71c0,0,92,0,136,-34c0,0,45,-34,45,-76c0,0,0,-34,-28,-58c0,0,-28,-25,-73,-25c0,0,-39,0,-62,20c0,0,-22,20,-22,45c0,0,0,6,4,27c0,0,3,13,3,24c0,0,0,16,-9,23c0,0,-12,11,-29,11c0,0,-21,0,-36,-17c0,0,-15,-18,-15,-58l1,-130V697H460V624H356l1,-484c0,0,0,-70,15,-88c0,0,22,-26,81,-26c2,0,5,0,7,0V0Z" 
id="f1_22"
transform="scale(0.001,-0.001)" />

<path d="M33,0V27c0,0,264,241,371,393c0,0,108,152,108,278c0,0,0,96,-59,158c0,0,-59,62,-141,62c0,0,-75,0,-134,-43c0,0,-59,-44,-88,-128H63c0,0,18,138,95,212c0,0,77,74,193,74c0,0,123,0,205,-80c0,0,83,-79,83,-186c0,0,0,-77,-36,-154c0,0,-55,-121,-179,-256C424,357,238,154,191,112H455c0,0,81,0,114,6c0,0,32,6,58,25c0,0,27,18,46,52h27L630,0Z" 
id="f2_m"
transform="scale(0.001,-0.001)" />

<path d="M0,-123V985c0,0,0,202,88,304c0,0,88,101,278,126v-33c0,0,-112,-27,-179,-86c0,0,-67,-59,-91,-136c0,0,-24,-76,-24,-252V-123Z" 
id="f3_4u"
transform="scale(0.001,-0.001)" />

<path d="M313,-123V908c0,0,0,111,-11,190c0,0,-11,80,-46,133c0,0,-35,54,-94,93c0,0,-59,39,-141,58v33c0,0,189,-25,276,-126c0,0,88,-101,88,-304V-123Z" 
id="f3_5a"
transform="scale(0.001,-0.001)" />

<path d="M0,356v74H784V356Z" 
id="f3_h"
transform="scale(0.001,-0.001)" />

<path d="M355,0V355H0v72H355V784h72V427H782V355H427V0Z" 
id="f3_f"
transform="scale(0.001,-0.001)" />

<path d="M293,-123V191c0,0,0,200,-67,292c0,0,-67,92,-226,135v57c0,0,159,44,226,135c0,0,67,92,67,292v313h73V1088c0,0,0,-108,-23,-189c0,0,-22,-80,-61,-127c0,0,-39,-46,-95,-75c0,0,-56,-28,-153,-51c0,0,97,-21,157,-52c0,0,61,-31,99,-82c0,0,39,-51,57,-125c0,0,19,-74,19,-180V-123Z" 
id="f3_4v"
transform="scale(0.001,-0.001)" />

<path d="M313,-123V203c0,0,0,108,22,188c0,0,23,81,62,127c0,0,39,47,95,76c0,0,56,29,153,50c0,0,-98,22,-158,53c0,0,-60,32,-99,82c0,0,-39,50,-57,124c0,0,-18,74,-18,181v331h72V1099c0,0,0,-200,67,-291c0,0,68,-92,227,-135V616c0,0,-159,-44,-227,-136c0,0,-67,-92,-67,-292V-123Z" 
id="f3_5b"
transform="scale(0.001,-0.001)" />

<path d="M679,-123c0,0,-190,24,-278,124c0,0,-88,101,-88,305V1415h72V383c0,0,0,-111,12,-191c0,0,11,-79,46,-133c0,0,35,-53,94,-91c0,0,59,-39,142,-58v-33Z" 
id="f3_4w"
transform="scale(0.001,-0.001)" />

<path d="M142,0c0,0,-6,0,-12,4c0,0,-5,3,-9,12c0,0,-4,9,-6,23c0,0,-3,15,-3,36c0,0,0,21,2,36c0,0,2,14,6,23c0,0,4,9,10,13c0,0,5,5,12,5H322V779L166,693c0,0,-17,-8,-28,-10c0,0,-1,0,-3,0c-4,0,-10,1,-14,5c0,0,-6,6,-8,22c0,0,-2,15,-2,44c0,0,0,18,0,29c0,0,1,12,4,20c0,0,3,8,8,14c0,0,5,5,14,11L345,962c0,0,4,3,9,5c0,0,6,2,15,3c0,0,9,1,23,2c0,0,15,0,38,0c0,0,28,0,46,-1c0,0,17,-1,26,-4c0,0,9,-3,12,-7c0,0,3,-4,3,-11V152H675c0,0,7,0,12,-5c0,0,6,-4,10,-13c0,0,4,-9,6,-23c0,0,2,-15,2,-36c0,0,0,-21,-2,-36c0,0,-3,-14,-7,-23c0,0,-4,-9,-9,-12c0,0,-5,-4,-12,-4Z" 
id="f4_ry"
transform="scale(0.001,-0.001)" />

<path d="M127,0c0,0,-16,0,-28,3C99,3,87,6,80,15c0,0,-8,8,-11,25c0,0,-3,16,-3,42c0,0,0,25,2,42c0,0,2,18,8,32c0,0,6,14,15,27c0,0,9,13,24,29L282,390c0,0,50,53,81,95c0,0,30,43,47,79c0,0,17,35,24,65c0,0,6,30,6,57c0,0,0,24,-8,46c0,0,-8,22,-23,39c0,0,-15,16,-38,25c0,0,-23,10,-55,10c0,0,-44,0,-78,-12c0,0,-33,-11,-59,-25c0,0,-26,-13,-43,-25c0,0,-17,-12,-27,-12c0,0,-7,0,-11,5c0,0,-5,4,-8,15c0,0,-3,10,-5,28c0,0,-2,17,-2,42c0,0,0,18,1,29c0,0,1,12,4,20c0,0,2,9,6,15c0,0,3,6,13,15c0,0,9,9,34,23c0,0,25,14,61,27c0,0,37,14,81,23c0,0,44,9,92,9c0,0,75,0,131,-19c0,0,57,-19,94,-53c0,0,37,-34,55,-81c0,0,19,-47,19,-100c0,0,0,-47,-9,-93c0,0,-9,-45,-37,-98c0,0,-29,-52,-80,-116c0,0,-52,-64,-136,-148L299,159H679c0,0,8,0,14,-4c0,0,6,-5,11,-14c0,0,4,-9,7,-25c0,0,2,-15,2,-36c0,0,0,-22,-2,-37c0,0,-2,-15,-6,-25c0,0,-3,-10,-9,-14c0,0,-6,-4,-14,-4Z" 
id="f4_rz"
transform="scale(0.001,-0.001)" />

<path d="M204,-9c0,0,-63,0,-87,23c0,0,-24,23,-24,89c0,0,0,70,24,94c0,0,25,24,88,24c0,0,62,0,86,-24c0,0,24,-23,24,-90c0,0,0,-69,-24,-93c0,0,-25,-23,-87,-23Z" 
id="f4_nt"
transform="scale(0.001,-0.001)" />

<path d="M547,-16c0,0,-115,0,-207,33c0,0,-91,33,-155,96c0,0,-63,63,-97,154c0,0,-33,91,-33,206c0,0,0,118,36,213c0,0,35,94,101,160c0,0,66,66,159,102c0,0,92,35,207,35c0,0,62,0,114,-9c0,0,51,-8,90,-21c0,0,38,-12,64,-26c0,0,25,-14,35,-25c0,0,10,-10,15,-29c0,0,4,-19,4,-57c0,0,0,-21,-2,-37c0,0,-2,-16,-5,-25c0,0,-3,-9,-8,-13c0,0,-5,-4,-12,-4c0,0,-10,0,-31,14c0,0,-22,13,-58,29c0,0,-35,15,-85,29c0,0,-50,13,-115,13c0,0,-71,0,-127,-24c0,0,-57,-24,-97,-69c0,0,-41,-44,-62,-107c0,0,-22,-62,-22,-138c0,0,0,-82,22,-146c0,0,22,-63,62,-105c0,0,39,-43,95,-65c0,0,56,-21,123,-21c0,0,33,0,65,7c0,0,32,8,60,23V401H500c0,0,-14,0,-21,17c0,0,-8,17,-8,57c0,0,0,21,2,35c0,0,2,14,6,23c0,0,3,8,9,12c0,0,5,5,12,5H826c0,0,12,0,21,-5c0,0,9,-4,16,-12c0,0,8,-8,11,-20c0,0,4,-11,4,-26V102c0,0,0,-22,-8,-39c0,0,-8,-17,-32,-27c0,0,-24,-9,-60,-20C778,16,742,6,704,-1c0,0,-39,-7,-78,-11c0,0,-39,-4,-79,-4Z" 
id="f4_14"
transform="scale(0.001,-0.001)" />

<path d="M188,-4c0,0,-28,0,-46,2c0,0,-18,2,-28,5c0,0,-11,3,-16,9c0,0,-4,5,-4,13V691c0,0,0,7,4,13c0,0,3,5,13,9c0,0,10,4,25,6c0,0,15,2,38,2c0,0,24,0,40,-2c0,0,15,-2,24,-6c0,0,9,-4,12,-9c0,0,4,-6,4,-13V608c0,0,26,37,49,61c0,0,23,25,44,39c0,0,21,14,42,20c0,0,21,5,42,5c0,0,10,0,21,-1c0,0,11,-1,23,-4c0,0,12,-2,21,-5c0,0,9,-4,13,-8c0,0,4,-3,6,-8c0,0,2,-4,3,-12c0,0,2,-8,2,-24c0,0,1,-15,1,-42c0,0,0,-27,-1,-44c0,0,-2,-17,-5,-27c0,0,-3,-10,-8,-13c0,0,-5,-4,-12,-4c0,0,-6,0,-13,3c0,0,-8,2,-17,5c0,0,-10,3,-21,6c0,0,-11,2,-24,2c0,0,-16,0,-32,-6c0,0,-15,-6,-32,-20c0,0,-17,-13,-35,-36c0,0,-19,-22,-39,-55V25c0,0,0,-8,-5,-13c0,0,-4,-6,-15,-9c0,0,-11,-3,-29,-5c0,0,-18,-2,-45,-2Z" 
id="f4_b1"
transform="scale(0.001,-0.001)" />

<path d="M337,115c0,0,39,0,73,21c0,0,33,20,67,59V308H405c0,0,-45,0,-77,-7c0,0,-32,-6,-53,-20c0,0,-20,-13,-29,-32c0,0,-9,-19,-9,-44c0,0,0,-42,26,-66c0,0,27,-24,74,-24ZM296,-17c0,0,-53,0,-98,14c0,0,-44,13,-77,40c0,0,-32,28,-50,68c0,0,-18,40,-18,94c0,0,0,58,23,101c0,0,22,43,68,71c0,0,45,28,112,42c0,0,67,13,156,13h65v40c0,0,0,32,-6,55c0,0,-7,24,-21,39c0,0,-15,16,-39,23c0,0,-24,8,-60,8c0,0,-47,0,-84,-11c0,0,-37,-10,-66,-23c0,0,-28,-13,-47,-23c0,0,-19,-11,-31,-11c0,0,-9,0,-15,5c0,0,-6,6,-10,15c0,0,-5,10,-7,24c0,0,-2,14,-2,31c0,0,0,23,4,37c0,0,3,13,14,24c0,0,10,11,36,24c0,0,27,13,62,25c0,0,35,11,76,18c0,0,42,7,86,7c0,0,78,0,134,-15c0,0,55,-15,91,-47c0,0,36,-32,53,-82c0,0,16,-50,16,-118V23c0,0,0,-11,-7,-17c0,0,-8,-6,-24,-7c0,0,-16,-3,-47,-3c0,0,-34,0,-49,3c0,0,-15,1,-21,7c0,0,-7,6,-7,17V76C506,76,465,32,412,7c0,0,-52,-24,-116,-24Z" 
id="f4_77"
transform="scale(0.001,-0.001)" />

<path d="M432,142c0,0,36,0,62,18c0,0,26,19,42,49c0,0,16,31,24,69c0,0,8,38,8,76c0,0,0,43,-6,82c0,0,-7,39,-22,70c0,0,-15,30,-40,49c0,0,-25,18,-62,18c0,0,-19,0,-37,-6c0,0,-19,-5,-38,-18c0,0,-19,-13,-39,-33c0,0,-20,-20,-42,-50V247c0,0,39,-51,75,-78c0,0,36,-27,75,-27ZM188,-270c0,0,-28,0,-46,2c0,0,-18,3,-28,7c0,0,-11,4,-16,10c0,0,-4,6,-4,13V691c0,0,0,7,4,13c0,0,3,5,13,9c0,0,9,4,24,6c0,0,15,2,39,2c0,0,22,0,37,-2c0,0,15,-2,25,-6c0,0,9,-4,13,-9c0,0,4,-6,4,-13V612c0,0,29,30,57,53c0,0,28,23,57,38c0,0,29,15,60,23c0,0,31,7,66,7c0,0,73,0,124,-28c0,0,52,-29,84,-79c0,0,33,-50,48,-117c0,0,15,-66,15,-141c0,0,0,-89,-19,-161c0,0,-19,-71,-56,-121C689,86,652,36,598,9c0,0,-54,-26,-125,-26c0,0,-29,0,-53,6c0,0,-24,6,-47,16c0,0,-23,12,-45,29c0,0,-23,17,-46,40V-238c0,0,0,-7,-5,-13c0,0,-4,-6,-15,-10c0,0,-11,-4,-29,-7c0,0,-18,-2,-45,-2Z" 
id="f4_ay"
transform="scale(0.001,-0.001)" />

<path d="M188,-4c0,0,-28,0,-46,2c0,0,-18,2,-28,5c0,0,-11,3,-16,9c0,0,-4,5,-4,13v981c0,0,0,8,4,14c0,0,5,6,16,10c0,0,10,4,28,6c0,0,18,2,46,2c0,0,27,0,45,-2c0,0,18,-2,29,-6c0,0,11,-4,15,-10c0,0,5,-6,5,-14V639c0,0,48,47,98,71c0,0,51,23,105,23c0,0,68,0,115,-22c0,0,47,-22,75,-61c0,0,29,-39,42,-91c0,0,12,-52,12,-126V25c0,0,0,-8,-4,-13c0,0,-5,-6,-15,-9c0,0,-10,-3,-29,-5c0,0,-18,-2,-45,-2c0,0,-28,0,-46,2c0,0,-18,2,-29,5c0,0,-10,3,-15,9c0,0,-4,6,-4,13V405c0,0,0,49,-7,76c0,0,-7,28,-21,48c0,0,-13,19,-35,30c0,0,-21,11,-49,11c0,0,-36,0,-72,-26c0,0,-37,-26,-76,-76V25c0,0,0,-7,-5,-13c0,0,-4,-6,-15,-9c0,0,-11,-3,-29,-5c0,0,-18,-2,-45,-2Z" 
id="f4_9n"
transform="scale(0.001,-0.001)" />

<path d="M275,-17c0,0,-37,0,-71,6c0,0,-34,6,-61,13c0,0,-27,9,-45,18c0,0,-18,9,-26,17c0,0,-8,8,-13,25c0,0,-4,17,-4,49c0,0,0,22,1,35c0,0,2,13,5,21c0,0,3,8,7,10c0,0,5,3,11,3c0,0,9,0,25,-9c0,0,16,-10,40,-21c0,0,24,-11,55,-21c0,0,32,-10,72,-10c0,0,26,0,46,5c0,0,19,6,34,15c0,0,14,10,22,25c0,0,7,15,7,34c0,0,0,23,-13,39c0,0,-14,16,-37,28c0,0,-23,11,-52,22c0,0,-28,10,-58,23c0,0,-31,13,-59,29c0,0,-29,17,-52,41c0,0,-23,23,-37,57c0,0,-13,34,-13,81c0,0,0,47,18,87c0,0,19,40,54,69c0,0,35,28,86,44c0,0,50,15,113,15c0,0,31,0,61,-4c0,0,29,-5,53,-11c0,0,24,-7,40,-15c0,0,17,-7,24,-13c0,0,7,-6,10,-11c0,0,3,-6,4,-14c0,0,2,-7,3,-19c0,0,1,-12,1,-29c0,0,0,-20,-1,-33c0,0,-1,-12,-4,-20c0,0,-2,-7,-7,-10c0,0,-4,-3,-10,-3c0,0,-7,0,-21,8c0,0,-14,8,-36,17c0,0,-21,9,-49,17c0,0,-28,7,-64,7c0,0,-25,0,-44,-5c0,0,-19,-5,-30,-15c0,0,-12,-9,-18,-22c0,0,-6,-14,-6,-28c0,0,0,-24,14,-39c0,0,14,-16,37,-28c0,0,23,-12,53,-22c0,0,29,-11,59,-23c0,0,31,-12,60,-29c0,0,30,-16,53,-40c0,0,23,-24,37,-57c0,0,14,-33,14,-79c0,0,0,-57,-21,-100c0,0,-21,-43,-60,-72c0,0,-39,-29,-92,-43c0,0,-53,-15,-115,-15Z" 
id="f4_b5"
transform="scale(0.001,-0.001)" />

<path d="M409,132c0,0,42,0,73,15c0,0,32,16,52,45c0,0,20,29,29,70c0,0,10,42,10,95c0,0,0,49,-8,91c0,0,-8,41,-26,72c0,0,-19,30,-50,48c0,0,-30,17,-77,17c0,0,-42,0,-73,-16c0,0,-31,-15,-51,-44c0,0,-21,-30,-31,-71c0,0,-10,-42,-10,-95c0,0,0,-49,9,-91c0,0,8,-41,26,-72c0,0,18,-30,49,-47c0,0,32,-17,78,-17ZM402,-17c0,0,-89,0,-154,24c0,0,-66,25,-109,72c0,0,-43,47,-64,115c0,0,-21,69,-21,157c0,0,0,85,23,156c0,0,22,70,68,121c0,0,45,50,113,78c0,0,69,27,160,27c0,0,90,0,155,-24c0,0,66,-24,109,-71c0,0,43,-47,64,-116c0,0,21,-69,21,-157c0,0,0,-86,-23,-156c0,0,-22,-70,-68,-121C676,88,631,38,562,10c0,0,-68,-27,-160,-27Z" 
id="f4_am"
transform="scale(0.001,-0.001)" />

<path d="M224,-4c0,0,-26,0,-45,2c0,0,-18,2,-29,5c0,0,-11,3,-15,9c0,0,-4,5,-4,13V563H48c0,0,-14,0,-21,18c0,0,-7,17,-7,58c0,0,0,22,1,37c0,0,2,15,6,24c0,0,3,8,9,12c0,0,5,4,13,4h82v56c0,0,0,68,13,119c0,0,14,51,43,85c0,0,29,34,73,51c0,0,45,17,105,17c0,0,29,0,55,-5c0,0,27,-4,42,-10c0,0,15,-6,20,-10c0,0,5,-5,8,-15c0,0,4,-9,5,-23c0,0,2,-15,2,-37c0,0,0,-21,-2,-34c0,0,-1,-13,-4,-20c0,0,-3,-7,-7,-10c0,0,-4,-3,-8,-3c0,0,-5,0,-12,3c0,0,-6,3,-16,6c0,0,-9,2,-22,5c0,0,-12,3,-29,3c0,0,-21,0,-35,-7c0,0,-15,-6,-25,-20c0,0,-9,-14,-14,-36c0,0,-4,-22,-4,-54V716H440c0,0,7,0,13,-4c0,0,5,-4,9,-12c0,0,4,-9,5,-24c0,0,2,-15,2,-37c0,0,0,-41,-7,-58c0,0,-8,-18,-22,-18H319V25c0,0,0,-8,-5,-13c0,0,-4,-6,-15,-9c0,0,-10,-3,-29,-5c0,0,-19,-2,-46,-2Z" 
id="f4_89"
transform="scale(0.001,-0.001)" />

<path d="M378,-4c0,0,-28,0,-47,2c0,0,-19,2,-31,5c0,0,-11,4,-16,10c0,0,-4,6,-4,13V805H38c0,0,-8,0,-13,4c0,0,-5,5,-9,14c0,0,-3,9,-5,25c0,0,-2,15,-2,37c0,0,0,22,2,38c0,0,2,15,5,25c0,0,4,9,9,13c0,0,5,4,13,4H718c0,0,7,0,12,-4c0,0,6,-4,10,-13c0,0,3,-10,5,-25c0,0,2,-16,2,-38c0,0,0,-22,-2,-37c0,0,-2,-16,-5,-25c0,0,-4,-9,-10,-14c0,0,-5,-4,-12,-4H476V26c0,0,0,-7,-5,-13c0,0,-5,-6,-16,-10c0,0,-11,-3,-30,-5c0,0,-19,-2,-47,-2Z" 
id="f4_2t"
transform="scale(0.001,-0.001)" />

<path d="M188,-4c0,0,-28,0,-46,2c0,0,-18,2,-28,5c0,0,-11,3,-16,9c0,0,-4,5,-4,13V689c0,0,0,8,4,13c0,0,5,6,16,10c0,0,10,4,28,6c0,0,18,3,46,3c0,0,27,0,45,-3c0,0,18,-2,29,-6c0,0,11,-4,15,-10c0,0,5,-5,5,-13V25c0,0,0,-8,-5,-13c0,0,-4,-6,-15,-9c0,0,-11,-3,-29,-5c0,0,-18,-2,-45,-2Zm-1,820c0,0,-63,0,-85,21c0,0,-22,21,-22,75c0,0,0,57,23,79c0,0,23,22,86,22c0,0,63,0,85,-21c0,0,22,-21,22,-76c0,0,0,-56,-23,-78c0,0,-23,-22,-86,-22Z" 
id="f4_9q"
transform="scale(0.001,-0.001)" />

<path d="M345,-143c0,0,43,0,72,9c0,0,29,8,47,23c0,0,18,14,25,31c0,0,8,18,8,37c0,0,0,33,-27,50c0,0,-27,18,-74,20L263,30C263,30,243,16,232,3c0,0,-12,-12,-19,-24c0,0,-7,-12,-9,-23c0,0,-3,-11,-3,-23c0,0,0,-37,38,-56c0,0,38,-20,106,-20Zm-4,517c0,0,28,0,49,9c0,0,21,9,35,25c0,0,14,16,21,36c0,0,7,21,7,43c0,0,0,54,-30,84c0,0,-30,29,-84,29c0,0,-28,0,-49,-9c0,0,-21,-9,-34,-25c0,0,-14,-16,-21,-38c0,0,-7,-21,-7,-44c0,0,0,-51,30,-80c0,0,30,-30,83,-30Zm-4,-645c0,0,-85,0,-145,14c0,0,-60,13,-98,37c0,0,-39,24,-56,57c0,0,-18,33,-18,73c0,0,0,24,6,47c0,0,7,22,19,42c0,0,12,20,30,39c0,0,18,18,41,35c0,0,-32,18,-49,47c0,0,-18,29,-18,64c0,0,0,44,20,80c0,0,21,36,53,65c0,0,-27,26,-42,63c0,0,-16,37,-16,91c0,0,0,58,21,104c0,0,20,46,57,78c0,0,36,32,87,49c0,0,51,16,112,16c0,0,31,0,60,-3c0,0,29,-4,53,-11H665c0,0,13,0,21,-17c0,0,8,-16,8,-55c0,0,0,-36,-8,-53c0,0,-9,-17,-21,-17H587c0,0,17,-18,24,-41c0,0,7,-22,7,-47c0,0,0,-58,-20,-103c0,0,-19,-45,-55,-76c0,0,-36,-31,-88,-47c0,0,-51,-17,-113,-17c0,0,-32,0,-61,8c0,0,-30,8,-45,19c0,0,-9,-10,-16,-23c0,0,-7,-14,-7,-30c0,0,0,-22,19,-36c0,0,19,-13,53,-15l162,-6c0,0,57,-2,101,-16c0,0,44,-14,75,-39c0,0,30,-24,46,-59c0,0,16,-35,16,-79c0,0,0,-49,-22,-93c0,0,-21,-44,-65,-76c0,0,-43,-32,-108,-50c0,0,-66,-19,-153,-19Z" 
id="f4_9d"
transform="scale(0.001,-0.001)" />

<path d="M188,-4c0,0,-28,0,-46,2c0,0,-18,2,-28,5c0,0,-11,3,-16,9c0,0,-4,5,-4,13V691c0,0,0,7,4,13c0,0,3,5,13,9c0,0,10,4,25,6c0,0,15,2,38,2c0,0,24,0,40,-2c0,0,15,-2,24,-6c0,0,9,-4,12,-9c0,0,4,-6,4,-13V614c0,0,55,60,112,89c0,0,57,30,119,30c0,0,68,0,115,-22c0,0,47,-22,75,-61c0,0,29,-38,42,-90c0,0,12,-51,12,-124V25c0,0,0,-8,-4,-13c0,0,-5,-6,-15,-9c0,0,-10,-3,-29,-5c0,0,-18,-2,-45,-2c0,0,-28,0,-46,2c0,0,-18,2,-29,5c0,0,-10,3,-15,9c0,0,-4,6,-4,13V405c0,0,0,49,-7,76c0,0,-7,28,-21,48c0,0,-13,19,-35,30c0,0,-21,11,-49,11c0,0,-36,0,-72,-26c0,0,-37,-26,-76,-76V25c0,0,0,-7,-5,-13c0,0,-4,-6,-15,-9c0,0,-11,-3,-29,-5c0,0,-18,-2,-45,-2Z" 
id="f4_af"
transform="scale(0.001,-0.001)" />

<path d="M188,-4c0,0,-28,0,-46,2c0,0,-18,2,-28,5c0,0,-11,3,-16,9c0,0,-4,5,-4,13V691c0,0,0,7,4,13c0,0,3,5,13,9c0,0,10,4,25,6c0,0,15,2,38,2c0,0,24,0,40,-2c0,0,15,-2,24,-6c0,0,9,-4,12,-9c0,0,4,-6,4,-13V614c0,0,55,60,110,89c0,0,55,30,115,30c0,0,41,0,74,-8c0,0,33,-9,59,-25c0,0,26,-16,44,-38c0,0,19,-23,32,-50c0,0,30,32,58,55c0,0,29,23,57,38c0,0,28,14,56,21c0,0,28,7,57,7c0,0,66,0,112,-22c0,0,45,-22,73,-61c0,0,28,-38,40,-90c0,0,12,-51,12,-109V25c0,0,0,-8,-5,-13c0,0,-4,-6,-15,-9c0,0,-10,-3,-28,-5c0,0,-18,-2,-46,-2c0,0,-28,0,-46,2c0,0,-18,2,-29,5c0,0,-11,3,-15,9c0,0,-4,6,-4,13V420c0,0,0,34,-6,61c0,0,-7,28,-20,48c0,0,-13,19,-32,30c0,0,-20,11,-47,11c0,0,-34,0,-68,-26c0,0,-34,-26,-74,-76V25c0,0,0,-7,-5,-13c0,0,-4,-6,-15,-9c0,0,-11,-3,-29,-5c0,0,-18,-2,-45,-2c0,0,-27,0,-45,2c0,0,-18,2,-29,5c0,0,-11,3,-16,9c0,0,-4,6,-4,13V420c0,0,0,34,-6,61c0,0,-7,28,-19,48c0,0,-13,19,-33,30c0,0,-21,11,-48,11c0,0,-34,0,-68,-26c0,0,-35,-26,-74,-76V25c0,0,0,-7,-5,-13c0,0,-4,-6,-15,-9c0,0,-11,-3,-29,-5c0,0,-18,-2,-45,-2Z" 
id="f4_ae"
transform="scale(0.001,-0.001)" />

<path d="M526,431c0,0,2,79,-32,124c0,0,-34,45,-105,45c0,0,-35,0,-62,-13c0,0,-26,-13,-44,-36c0,0,-17,-23,-27,-54c0,0,-9,-31,-11,-66ZM410,-17c0,0,-88,0,-155,22c0,0,-67,22,-112,68c0,0,-44,45,-66,115c0,0,-22,69,-22,162c0,0,0,89,23,161c0,0,23,71,67,120c0,0,44,50,107,76c0,0,63,26,142,26c0,0,84,0,143,-24c0,0,59,-25,97,-69c0,0,38,-43,56,-103c0,0,18,-60,18,-130V377c0,0,0,-34,-15,-51c0,0,-16,-16,-43,-16H245c0,0,0,-43,10,-77c0,0,11,-35,33,-59c0,0,22,-24,56,-37c0,0,35,-13,83,-13c0,0,50,0,87,7c0,0,37,8,65,16c0,0,27,9,45,16c0,0,18,7,29,7c0,0,6,0,11,-2c0,0,4,-3,7,-10c0,0,3,-7,4,-19c0,0,2,-12,2,-31c0,0,0,-16,-1,-28c0,0,-1,-12,-2,-20c0,0,-2,-8,-5,-14c0,0,-3,-5,-8,-10c0,0,-5,-6,-26,-15c0,0,-22,-9,-55,-17c0,0,-34,-8,-77,-14c0,0,-43,-7,-93,-7Z" 
id="f4_7z"
transform="scale(0.001,-0.001)" />

<path d="M344,-14c0,0,-56,0,-97,14c0,0,-42,14,-69,43c0,0,-26,29,-39,74c0,0,-13,45,-13,106V563H47c0,0,-15,0,-22,18c0,0,-7,17,-7,58c0,0,0,22,1,37c0,0,2,15,6,24c0,0,4,8,9,12c0,0,6,4,13,4h79V864c0,0,0,8,4,14c0,0,4,6,15,10c0,0,11,4,29,6c0,0,19,2,46,2c0,0,27,0,46,-2c0,0,18,-2,28,-6c0,0,11,-4,15,-10c0,0,5,-6,5,-14V716H459c0,0,7,0,13,-4c0,0,6,-4,9,-12c0,0,4,-9,6,-24c0,0,2,-15,2,-37c0,0,0,-41,-8,-58c0,0,-7,-18,-21,-18H314V251c0,0,0,-54,17,-81c0,0,17,-27,61,-27c0,0,15,0,27,2c0,0,12,3,22,6c0,0,9,4,15,6c0,0,7,3,12,3c0,0,4,0,9,-3c0,0,4,-2,6,-10c0,0,2,-8,4,-21c0,0,2,-14,2,-35c0,0,0,-33,-4,-50c0,0,-4,-18,-11,-25c0,0,-7,-7,-20,-12c0,0,-13,-5,-31,-9c0,0,-17,-4,-38,-6c0,0,-20,-3,-41,-3Z" 
id="f4_bf"
transform="scale(0.001,-0.001)" />

<path d="M371,-16c0,0,-77,0,-136,23c0,0,-60,24,-100,71c0,0,-40,47,-61,114c0,0,-20,67,-20,154c0,0,0,100,25,173c0,0,25,72,69,120c0,0,45,48,106,71c0,0,62,23,135,23c0,0,29,0,58,-5c0,0,29,-5,54,-14c0,0,25,-9,45,-20c0,0,19,-12,28,-20c0,0,8,-8,11,-14c0,0,3,-5,5,-14c0,0,2,-9,3,-22c0,0,1,-13,1,-32c0,0,0,-43,-7,-61c0,0,-7,-18,-19,-18c0,0,-13,0,-27,11c0,0,-14,10,-34,23c0,0,-19,13,-46,23c0,0,-27,11,-64,11c0,0,-73,0,-112,-57c0,0,-39,-56,-39,-165c0,0,0,-54,10,-95c0,0,10,-41,29,-69c0,0,19,-28,47,-41c0,0,29,-14,67,-14c0,0,39,0,67,11c0,0,28,12,49,26c0,0,21,14,35,26c0,0,14,11,24,11c0,0,6,0,11,-4c0,0,4,-3,7,-13c0,0,2,-11,4,-26c0,0,1,-16,1,-41c0,0,0,-19,-1,-32c0,0,-1,-13,-3,-22c0,0,-2,-9,-4,-15c0,0,-3,-5,-12,-14c0,0,-9,-8,-30,-20C547,27,525,14,497,5c0,0,-27,-9,-60,-15c0,0,-32,-6,-66,-6Z" 
id="f4_7l"
transform="scale(0.001,-0.001)" />

<path d="M204,-4c0,0,-28,0,-47,2c0,0,-19,2,-31,6c0,0,-11,4,-16,10c0,0,-4,6,-4,14V903c0,0,0,33,16,48c0,0,17,14,42,14H618c0,0,7,0,12,-4c0,0,5,-4,9,-13c0,0,5,-10,6,-25c0,0,2,-16,2,-38c0,0,0,-23,-2,-38c0,0,-1,-15,-6,-24c0,0,-4,-9,-9,-14c0,0,-5,-4,-12,-4H302V545H599c0,0,6,0,12,-4c0,0,5,-4,9,-13c0,0,4,-9,6,-24c0,0,2,-15,2,-37c0,0,0,-22,-2,-37c0,0,-2,-15,-6,-25c0,0,-4,-10,-9,-14c0,0,-6,-4,-12,-4H302V28c0,0,0,-8,-4,-14c0,0,-5,-6,-16,-10c0,0,-12,-4,-30,-6c0,0,-19,-2,-48,-2Z" 
id="f4_13"
transform="scale(0.001,-0.001)" />

<path d="M334,-17c0,0,-69,0,-115,22c0,0,-47,22,-76,61c0,0,-28,39,-41,90c0,0,-12,51,-12,127V691c0,0,0,7,4,13c0,0,4,5,15,9c0,0,11,4,29,6c0,0,19,2,45,2c0,0,28,0,46,-2c0,0,18,-2,29,-6c0,0,11,-4,15,-9c0,0,5,-6,5,-13V314c0,0,0,-52,6,-79c0,0,7,-28,21,-48c0,0,14,-20,35,-30c0,0,21,-11,49,-11c0,0,36,0,72,26c0,0,36,26,77,76V691c0,0,0,7,4,13c0,0,4,5,15,9c0,0,11,4,29,6c0,0,18,2,45,2c0,0,28,0,46,-2c0,0,18,-2,28,-6c0,0,11,-4,15,-9c0,0,5,-6,5,-13V25c0,0,0,-8,-4,-13c0,0,-4,-6,-13,-9c0,0,-10,-3,-25,-5c0,0,-15,-2,-38,-2c0,0,-25,0,-40,2c0,0,-16,2,-25,5c0,0,-9,3,-12,9c0,0,-4,5,-4,13v77c0,0,-55,-60,-112,-90c0,0,-57,-29,-118,-29Z" 
id="f4_c6"
transform="scale(0.001,-0.001)" />

<path d="M350,115c0,0,37,0,86,42V391c0,0,-90,-53,-134,-113c0,0,-29,-41,-29,-82c0,0,0,-34,24,-60c0,0,19,-21,53,-21ZM207,-9c0,0,-59,0,-99,38c0,0,-40,40,-40,99c0,0,0,80,69,143c0,0,69,64,299,170v70c0,0,0,79,-8,100c0,0,-9,20,-33,36c0,0,-23,15,-53,15c0,0,-49,0,-80,-22c0,0,-19,-13,-19,-31c0,0,0,-16,21,-39c0,0,28,-32,28,-62c0,0,0,-36,-27,-62c0,0,-27,-26,-71,-26c0,0,-47,0,-79,29c0,0,-32,28,-32,66c0,0,0,54,43,103c0,0,42,48,118,75c0,0,76,26,158,26c0,0,99,0,157,-42c0,0,58,-43,75,-92c0,0,11,-31,11,-144V170c0,0,0,-47,3,-60c0,0,4,-12,11,-18c0,0,8,-6,18,-6c0,0,19,0,39,28L738,96c0,0,-37,-56,-77,-81c0,0,-40,-24,-90,-24c0,0,-60,0,-94,27c0,0,-33,28,-41,85C436,103,309,-9,207,-9Z" 
id="f1_1x"
transform="scale(0.001,-0.001)" />

<path d="M55,0V26c0,0,50,0,67,10c0,0,17,10,27,32c0,0,10,23,10,86V418c0,0,0,111,-6,144c0,0,-6,24,-17,33c0,0,-11,10,-30,10c0,0,-21,0,-51,-11L45,620l206,83h33V154c0,0,0,-64,9,-85c0,0,9,-22,27,-32c0,0,19,-11,67,-11V0ZM222,909c0,0,-32,0,-54,23c0,0,-22,22,-22,53c0,0,0,32,22,54c0,0,22,22,54,22c0,0,31,0,53,-22c0,0,22,-22,22,-54c0,0,0,-31,-22,-53c0,0,-22,-23,-53,-23Z" 
id="f2_25"
transform="scale(0.001,-0.001)" />

<path d="M434,31c0,0,38,0,65,22c0,0,28,22,46,86c0,0,18,64,18,231c0,0,0,161,-40,220c0,0,-29,44,-78,44c0,0,-64,0,-123,-73V251c0,0,0,-95,4,-121c0,0,8,-44,36,-71c0,0,28,-28,72,-28ZM115,-20V867c0,0,0,61,-5,75c0,0,-7,21,-23,31c0,0,-17,10,-55,12v27H322V628c0,0,88,91,192,91c0,0,72,0,135,-42c0,0,64,-43,99,-120c0,0,36,-78,36,-179c0,0,0,-114,-45,-208C739,170,693,77,617,28c0,0,-76,-48,-174,-48c0,0,-56,0,-100,18c0,0,-44,17,-87,57L141,-20Z" 
id="f1_1y"
transform="scale(0.001,-0.001)" />

<path d="M365,-20c0,0,-139,0,-223,105c0,0,-83,105,-83,253c0,0,0,142,76,250c0,0,92,131,253,131c0,0,108,0,172,-55c0,0,63,-54,63,-121c0,0,0,-43,-25,-68c0,0,-26,-25,-68,-25c0,0,-44,0,-73,29c0,0,-28,29,-35,104c0,0,-5,47,-22,65c0,0,-17,19,-40,19c0,0,-36,0,-61,-38c0,0,-39,-58,-39,-176c0,0,0,-99,31,-188c0,0,32,-90,86,-134c0,0,41,-32,97,-32c0,0,36,0,69,17c0,0,33,17,78,65l23,-18C644,163,595,70,521,25c0,0,-73,-45,-156,-45Z" 
id="f1_1z"
transform="scale(0.001,-0.001)" />

<path d="M286,72c0,0,57,0,149,75V407c0,0,-113,-45,-145,-64c0,0,-59,-32,-85,-68c0,0,-25,-36,-25,-78c0,0,0,-54,32,-89c0,0,32,-36,74,-36ZM217,-13c0,0,-71,0,-116,48c0,0,-46,48,-46,127c0,0,0,50,22,87c0,0,31,50,106,95c0,0,76,45,252,109v26c0,0,0,102,-32,140c0,0,-32,38,-94,38c0,0,-47,0,-74,-25c0,0,-28,-25,-28,-58l1,-43c0,0,0,-34,-17,-53c0,0,-18,-18,-47,-18c0,0,-28,0,-45,19c0,0,-18,19,-18,53c0,0,0,64,66,117c0,0,65,54,184,54c0,0,91,0,149,-31c0,0,44,-23,65,-72c0,0,13,-32,13,-131V238c0,0,0,-98,4,-120c0,0,4,-22,12,-29c0,0,9,-8,20,-8c0,0,12,0,21,5c0,0,16,10,61,55V99C676,99,592,-12,516,-12c0,0,-37,0,-58,24c0,0,-22,26,-23,86C435,98,330,17,303,5c0,0,-40,-18,-86,-18Z" 
id="f2_1x"
transform="scale(0.001,-0.001)" />


</defs>
</svg>