<?xml version="1.0" encoding="UTF-8" standalone="no"?>
<!DOCTYPE svg PUBLIC "-//W3C//DTD SVG 1.1//EN"
"http://www.w3.org/Graphics/SVG/1.1/DTD/svg11.dtd">
<svg viewBox="0 0 909 1286" version="1.1" xmlns="http://www.w3.org/2000/svg" xmlns:xlink="http://www.w3.org/1999/xlink">
<defs>
<style type="text/css"><![CDATA[
.g0_68{
fill: #ED7D31;
}
.g1_68{
}
]]></style>
</defs>
<g fill="#000000" >
<use xlink:href="#f0_2w" transform="matrix(11,0,0,11,82.5,686.2)" />
<use xlink:href="#f0_21" transform="matrix(11,0,0,11,96.1,686.2)" />
<use xlink:href="#f0_2a" transform="matrix(11,0,0,11,104.9,686.2)" />
<use xlink:href="#f0_1z" transform="matrix(11,0,0,11,115.9,686.2)" />
<use xlink:href="#f0_21" transform="matrix(11,0,0,11,124.7,686.2)" />
<use xlink:href="#f0_30" transform="matrix(11,0,0,11,138.6,686.2)" />
<use xlink:href="#f0_2e" transform="matrix(11,0,0,11,149.2,686.2)" />
<use xlink:href="#f0_2b" transform="matrix(11,0,0,11,156.5,686.2)" />
<use xlink:href="#f0_2i" transform="matrix(11,0,0,11,166,686.2)" />
<use xlink:href="#f0_21" transform="matrix(11,0,0,11,174.8,686.2)" />
<use xlink:href="#f0_20" transform="matrix(11,0,0,11,183.3,686.2)" />
<use xlink:href="#f0_1k" transform="matrix(11,0,0,11,82.5,728.7)" />
<use xlink:href="#f0_24" transform="matrix(11,0,0,11,92.8,728.7)" />
<use xlink:href="#f0_21" transform="matrix(11,0,0,11,103.8,728.7)" />
<use xlink:href="#f0_22" transform="matrix(11,0,0,11,118.1,728.7)" />
<use xlink:href="#f0_2b" transform="matrix(11,0,0,11,123.6,728.7)" />
<use xlink:href="#f0_28" transform="matrix(11,0,0,11,133.1,728.7)" />
<use xlink:href="#f0_28" transform="matrix(11,0,0,11,138.2,728.7)" />
<use xlink:href="#f0_2b" transform="matrix(11,0,0,11,143.3,728.7)" />
<use xlink:href="#f0_2j" transform="matrix(11,0,0,11,152.5,728.7)" />
<use xlink:href="#f0_25" transform="matrix(11,0,0,11,165.6,728.7)" />
<use xlink:href="#f0_2a" transform="matrix(11,0,0,11,170.8,728.7)" />
<use xlink:href="#f0_23" transform="matrix(11,0,0,11,181.8,728.7)" />
<use xlink:href="#f0_1x" transform="matrix(11,0,0,11,196,728.7)" />
<use xlink:href="#f0_2e" transform="matrix(11,0,0,11,205.9,728.7)" />
<use xlink:href="#f0_21" transform="matrix(11,0,0,11,213.3,728.7)" />
<use xlink:href="#f0_2g" transform="matrix(11,0,0,11,227.6,728.7)" />
<use xlink:href="#f0_2j" transform="matrix(11,0,0,11,233.8,728.7)" />
<use xlink:href="#f0_2b" transform="matrix(11,0,0,11,247,728.7)" />
<use xlink:href="#f0_25" transform="matrix(11,0,0,11,261.6,728.7)" />
<use xlink:href="#f0_29" transform="matrix(11,0,0,11,266.8,728.7)" />
<use xlink:href="#f0_2c" transform="matrix(11,0,0,11,282.5,728.7)" />
<use xlink:href="#f0_2b" transform="matrix(11,0,0,11,292.8,728.7)" />
<use xlink:href="#f0_2e" transform="matrix(11,0,0,11,302.3,728.7)" />
<use xlink:href="#f0_2g" transform="matrix(11,0,0,11,309.6,728.7)" />
<use xlink:href="#f0_1x" transform="matrix(11,0,0,11,315.9,728.7)" />
<use xlink:href="#f0_2a" transform="matrix(11,0,0,11,325.8,728.7)" />
<use xlink:href="#f0_2g" transform="matrix(11,0,0,11,336.8,728.7)" />
<use xlink:href="#f0_28" transform="matrix(11,0,0,11,348.5,728.7)" />
<use xlink:href="#f0_25" transform="matrix(11,0,0,11,353.6,728.7)" />
<use xlink:href="#f0_29" transform="matrix(11,0,0,11,358.7,728.7)" />
<use xlink:href="#f0_25" transform="matrix(11,0,0,11,374.5,728.7)" />
<use xlink:href="#f0_2g" transform="matrix(11,0,0,11,379.6,728.7)" />
<use xlink:href="#f0_2f" transform="matrix(11,0,0,11,385.8,728.7)" />
<use xlink:href="#f1_1g" transform="matrix(11,0,0,11,82.5,825.9)" />
<use xlink:href="#f1_2e" transform="matrix(11,0,0,11,93.5,825.9)" />
<use xlink:href="#f1_2b" transform="matrix(11,0,0,11,101.2,825.9)" />
<use xlink:href="#f1_2b" transform="matrix(11,0,0,11,111.9,825.9)" />
<use xlink:href="#f1_22" transform="matrix(11,0,0,11,122.5,825.9)" />
<use xlink:href="#f1_2u" transform="matrix(11,0,0,11,128.7,825.9)" />
<use xlink:href="#f0_1k" transform="matrix(11,0,0,11,82.5,872.9)" />
<use xlink:href="#f0_24" transform="matrix(11,0,0,11,92.8,872.9)" />
<use xlink:href="#f0_21" transform="matrix(11,0,0,11,103.8,872.9)" />
<use xlink:href="#f0_22" transform="matrix(11,0,0,11,118.1,872.9)" />
<use xlink:href="#f0_2h" transform="matrix(11,0,0,11,123.6,872.9)" />
<use xlink:href="#f0_2a" transform="matrix(11,0,0,11,134.9,872.9)" />
<use xlink:href="#f0_1z" transform="matrix(11,0,0,11,145.9,872.9)" />
<use xlink:href="#f0_2g" transform="matrix(11,0,0,11,154.7,872.9)" />
<use xlink:href="#f0_25" transform="matrix(11,0,0,11,161,872.9)" />
<use xlink:href="#f0_2b" transform="matrix(11,0,0,11,166.1,872.9)" />
<use xlink:href="#f0_2a" transform="matrix(11,0,0,11,175.6,872.9)" />
<use xlink:href="#f0_25" transform="matrix(11,0,0,11,227,872.9)" />
<use xlink:href="#f0_2f" transform="matrix(11,0,0,11,232.2,872.9)" />
<use xlink:href="#f0_2f" transform="matrix(11,0,0,11,246.4,872.9)" />
<use xlink:href="#f0_1x" transform="matrix(11,0,0,11,254.9,872.9)" />
<use xlink:href="#f0_2a" transform="matrix(11,0,0,11,264.8,872.9)" />
<use xlink:href="#f0_20" transform="matrix(11,0,0,11,275.8,872.9)" />
<use xlink:href="#f0_2j" transform="matrix(11,0,0,11,286.4,872.9)" />
<use xlink:href="#f0_25" transform="matrix(11,0,0,11,299.2,872.9)" />
<use xlink:href="#f0_1z" transform="matrix(11,0,0,11,304.3,872.9)" />
<use xlink:href="#f0_24" transform="matrix(11,0,0,11,313.1,872.9)" />
<use xlink:href="#f0_21" transform="matrix(11,0,0,11,324.1,872.9)" />
<use xlink:href="#f0_20" transform="matrix(11,0,0,11,332.9,872.9)" />
<use xlink:href="#f0_1y" transform="matrix(11,0,0,11,348.7,872.9)" />
<use xlink:href="#f0_21" transform="matrix(11,0,0,11,359.3,872.9)" />
<use xlink:href="#f0_2g" transform="matrix(11,0,0,11,368,872.9)" />
<use xlink:href="#f0_2j" transform="matrix(11,0,0,11,374.3,872.9)" />
<use xlink:href="#f0_21" transform="matrix(11,0,0,11,387.4,872.9)" />
<use xlink:href="#f0_21" transform="matrix(11,0,0,11,396.3,872.9)" />
<use xlink:href="#f0_2a" transform="matrix(11,0,0,11,405,872.9)" />
<use xlink:href="#f0_2g" transform="matrix(11,0,0,11,421.2,872.9)" />
<use xlink:href="#f0_24" transform="matrix(11,0,0,11,427.4,872.9)" />
<use xlink:href="#f0_21" transform="matrix(11,0,0,11,438.4,872.9)" />
<use xlink:href="#f0_22" transform="matrix(11,0,0,11,453,872.9)" />
<use xlink:href="#f0_2h" transform="matrix(11,0,0,11,458.5,872.9)" />
<use xlink:href="#f0_2a" transform="matrix(11,0,0,11,469.9,872.9)" />
<use xlink:href="#f0_1z" transform="matrix(11,0,0,11,480.9,872.9)" />
<use xlink:href="#f0_2g" transform="matrix(11,0,0,11,489.3,872.9)" />
<use xlink:href="#f0_25" transform="matrix(11,0,0,11,495.5,872.9)" />
<use xlink:href="#f0_2b" transform="matrix(11,0,0,11,500.6,872.9)" />
<use xlink:href="#f0_2a" transform="matrix(11,0,0,11,510.2,872.9)" />
<use xlink:href="#f0_1z" transform="matrix(11,0,0,11,526.6,872.9)" />
<use xlink:href="#f0_2b" transform="matrix(11,0,0,11,535.4,872.9)" />
<use xlink:href="#f0_2f" transform="matrix(11,0,0,11,545,872.9)" />
<use xlink:href="#f0_2k" transform="matrix(11,0,0,11,558.9,872.9)" />
<use xlink:href="#f0_1x" transform="matrix(11,0,0,11,573.9,872.9)" />
<use xlink:href="#f0_2a" transform="matrix(11,0,0,11,583.8,872.9)" />
<use xlink:href="#f0_20" transform="matrix(11,0,0,11,594.4,872.9)" />
<use xlink:href="#f0_2g" transform="matrix(11,0,0,11,610.5,872.9)" />
<use xlink:href="#f0_24" transform="matrix(11,0,0,11,616.7,872.9)" />
<use xlink:href="#f0_21" transform="matrix(11,0,0,11,627.7,872.9)" />
<use xlink:href="#f0_1z" transform="matrix(11,0,0,11,642,872.9)" />
<use xlink:href="#f0_2b" transform="matrix(11,0,0,11,650.8,872.9)" />
<use xlink:href="#f0_2a" transform="matrix(11,0,0,11,660.3,872.9)" />
<use xlink:href="#f0_2f" transform="matrix(11,0,0,11,671.3,872.9)" />
<use xlink:href="#f0_2g" transform="matrix(11,0,0,11,680.1,872.9)" />
<use xlink:href="#f0_1x" transform="matrix(11,0,0,11,686.4,872.9)" />
<use xlink:href="#f0_2a" transform="matrix(11,0,0,11,696.2,872.9)" />
<use xlink:href="#f0_2g" transform="matrix(11,0,0,11,707.2,872.9)" />
<use xlink:href="#f0_22" transform="matrix(11,0,0,11,719,872.9)" />
<use xlink:href="#f0_2h" transform="matrix(11,0,0,11,724.4,872.9)" />
<use xlink:href="#f0_2a" transform="matrix(11,0,0,11,735.8,872.9)" />
<use xlink:href="#f0_1z" transform="matrix(11,0,0,11,746.8,872.9)" />
<use xlink:href="#f0_2g" transform="matrix(11,0,0,11,755.6,872.9)" />
<use xlink:href="#f0_25" transform="matrix(11,0,0,11,761.8,872.9)" />
<use xlink:href="#f0_2b" transform="matrix(11,0,0,11,766.9,872.9)" />
<use xlink:href="#f0_2a" transform="matrix(11,0,0,11,776.5,872.9)" />
<use xlink:href="#f0_2j" transform="matrix(11,0,0,11,792.6,872.9)" />
<use xlink:href="#f0_24" transform="matrix(11,0,0,11,805.7,872.9)" />
<use xlink:href="#f0_25" transform="matrix(11,0,0,11,816.8,872.9)" />
<use xlink:href="#f0_1z" transform="matrix(11,0,0,11,821.9,872.9)" />
<use xlink:href="#f0_24" transform="matrix(11,0,0,11,830.7,872.9)" />
<use xlink:href="#f0_2g" transform="matrix(11,0,0,11,82.5,893.8)" />
<use xlink:href="#f0_1x" transform="matrix(11,0,0,11,88.8,893.8)" />
<use xlink:href="#f0_27" transform="matrix(11,0,0,11,98.7,893.8)" />
<use xlink:href="#f0_21" transform="matrix(11,0,0,11,109.3,893.8)" />
<use xlink:href="#f0_2f" transform="matrix(11,0,0,11,118,893.8)" />
<use xlink:href="#f0_2i" transform="matrix(11,0,0,11,132.3,893.8)" />
<use xlink:href="#f0_1x" transform="matrix(11,0,0,11,140.8,893.8)" />
<use xlink:href="#f0_28" transform="matrix(11,0,0,11,150.6,893.8)" />
<use xlink:href="#f0_2h" transform="matrix(11,0,0,11,155.8,893.8)" />
<use xlink:href="#f0_21" transform="matrix(11,0,0,11,167.1,893.8)" />
<use xlink:href="#f0_l" transform="matrix(11,0,0,11,181.1,893.8)" />
<use xlink:href="#f0_i" transform="matrix(11,0,0,11,191.7,893.8)" />
<use xlink:href="#f0_32" transform="matrix(11,0,0,11,82.5,968.6)" />
<use xlink:href="#f0_25" transform="matrix(11,0,0,11,93.5,968.6)" />
<use xlink:href="#f0_2a" transform="matrix(11,0,0,11,98.6,968.6)" />
<use xlink:href="#f0_1z" transform="matrix(11,0,0,11,109.6,968.6)" />
<use xlink:href="#f0_21" transform="matrix(11,0,0,11,118.4,968.6)" />
<use xlink:href="#f0_g" transform="matrix(11,0,0,11,230.3,968.6)" />
<use xlink:href="#f0_1x" transform="matrix(11,0,0,11,241.3,968.6)" />
<use xlink:href="#f0_28" transform="matrix(11,0,0,11,251.2,968.6)" />
<use xlink:href="#f0_2f" transform="matrix(11,0,0,11,256,968.6)" />
<use xlink:href="#f0_2b" transform="matrix(11,0,0,11,264.7,968.6)" />
<use xlink:href="#f0_2j" transform="matrix(11,0,0,11,279.4,968.6)" />
<use xlink:href="#f0_21" transform="matrix(11,0,0,11,292.6,968.6)" />
<use xlink:href="#f0_27" transform="matrix(11,0,0,11,306.5,968.6)" />
<use xlink:href="#f0_2a" transform="matrix(11,0,0,11,317.1,968.6)" />
<use xlink:href="#f0_2b" transform="matrix(11,0,0,11,328.1,968.6)" />
<use xlink:href="#f0_2j" transform="matrix(11,0,0,11,337.6,968.6)" />
<use xlink:href="#f0_2g" transform="matrix(11,0,0,11,356.3,968.6)" />
<use xlink:href="#f0_24" transform="matrix(11,0,0,11,362.6,968.6)" />
<use xlink:href="#f0_1x" transform="matrix(11,0,0,11,373.6,968.6)" />
<use xlink:href="#f0_2g" transform="matrix(11,0,0,11,383.4,968.6)" />
</g>
<image preserveAspectRatio="none" x="83" y="95" width="611" height="368" xlink:href="img/1.png" />
<image preserveAspectRatio="none" x="83" y="464" width="600" height="205" xlink:href="img/2.png" />
<image preserveAspectRatio="none" x="83" y="734" width="376" height="53" xlink:href="img/3.png" />
<image preserveAspectRatio="none" x="192" y="831" width="35" height="41" xlink:href="img/4.png" />
<image preserveAspectRatio="none" x="127" y="937" width="103" height="32" xlink:href="img/5.png" />
<image preserveAspectRatio="none" x="395" y="920" width="137" height="49" xlink:href="img/6.png" />
<image preserveAspectRatio="none" x="83" y="995" width="351" height="207" xlink:href="img/7.png" />
<path fill-rule="evenodd" d="M37.4,38.1h.7v-.7h-.7v.7Z" class="g0_68" />
<path fill-rule="evenodd" d="M37.4,38.1h.7v-.7h-.7v.7Z" class="g0_68" />
<path fill-rule="evenodd" d="M871.5,38.1h.8v-.7h-.8v.7Z" class="g0_68" />
<path fill-rule="evenodd" d="M871.5,38.1h.8v-.7h-.8v.7Z" class="g0_68" />
<path fill-rule="evenodd" d="M872.3,1248.5h.7V38.1h-.7V1248.5Z" class="g1_68" />
<path fill-rule="evenodd" d="M37.4,1249.2h.7v-.7h-.7v.7Z" class="g0_68" />
<path fill-rule="evenodd" d="M37.4,1249.2h.7v-.7h-.7v.7Z" class="g0_68" />
<path fill-rule="evenodd" d="M38.1,1249.9H871.5v-.7H38.1v.7Z" class="g1_68" />
<path fill-rule="evenodd" d="M872.3,1249.9h.7v-1.4h-.7v1.4Z" class="g1_68" />
<path fill-rule="evenodd" d="M871.5,1249.9H873v-.7h-1.5v.7Z" class="g1_68" />
<path fill-rule="evenodd" d="M871.5,1249.2h.8v-.7h-.8v.7Z" class="g0_68" />
<path fill-rule="evenodd" d="M871.5,1249.2h.8v-.7h-.8v.7Z" class="g0_68" />
<g fill="#000000" >
<use xlink:href="#f2_p" transform="matrix(8,0,0,8,792.5,1225.6)" />
</g>
<defs>
<path d="M72,0V63H98c0,0,58,0,73,6c0,0,14,6,23,24c0,0,8,18,8,63V873c0,0,0,49,-7,68c0,0,-8,19,-25,28c0,0,-17,9,-56,9H72v62H473V978H446c0,0,-48,0,-68,-9c0,0,-21,-9,-29,-32c0,0,-7,-16,-7,-70V577H882V859c0,0,0,59,-4,71c0,0,-6,24,-26,36c0,0,-20,12,-60,12H751v62h399V978h-36c0,0,-42,0,-60,-10c0,0,-17,-9,-24,-25c0,0,-8,-16,-8,-70V165c0,0,0,-59,8,-75c0,0,7,-16,30,-23c0,0,13,-4,90,-4V0H751V63h29c0,0,55,0,74,7c0,0,18,7,23,24c0,0,5,12,5,79V497H342V165c0,0,0,-59,8,-75c0,0,8,-17,30,-23c0,0,17,-4,93,-4V0Z" 
id="f0_2w"
transform="scale(0.001,-0.001)" />

<path d="M598,494c0,0,-11,68,-31,101c0,0,-21,33,-58,52c0,0,-38,20,-85,20c0,0,-47,0,-88,-20c0,0,-41,-19,-68,-53c0,0,-27,-35,-47,-100ZM433,-17c0,0,-110,0,-187,44c0,0,-88,52,-135,134c0,0,-46,83,-46,195c0,0,0,118,45,202c0,0,45,83,127,131c0,0,82,48,189,48c0,0,80,0,139,-25c0,0,59,-25,100,-75c0,0,41,-50,59,-115c0,0,11,-37,12,-98H210c0,0,-3,-36,-3,-54c0,0,0,-94,33,-168c0,0,33,-73,87,-108c0,0,54,-34,122,-34c0,0,58,0,113,27c0,0,54,27,131,106l48,-39C741,154,687,89,636,51c0,0,-51,-38,-97,-52c0,0,-45,-16,-106,-16Z" 
id="f0_21"
transform="scale(0.001,-0.001)" />

<path d="M56,0V63H74c0,0,56,0,76,9c0,0,20,9,28,33c0,0,5,12,5,83V613H56v62c0,0,66,7,99,18c0,0,33,10,94,44h54V595c0,0,98,83,168,113c0,0,70,29,141,29c0,0,61,0,108,-20c0,0,47,-21,77,-56c0,0,29,-35,39,-80c0,0,6,-27,6,-83V170c0,0,0,-59,8,-76c0,0,9,-16,28,-24c0,0,18,-7,91,-7V0H586V63h21c0,0,54,0,73,9c0,0,19,10,28,29c0,0,9,18,9,76V451c0,0,0,85,-14,118c0,0,-14,32,-47,53c0,0,-33,20,-84,20c0,0,-61,0,-129,-31c0,0,-69,-30,-133,-91V177c0,0,0,-58,9,-78c0,0,8,-19,28,-29c0,0,13,-7,71,-7h22V0Z" 
id="f0_2a"
transform="scale(0.001,-0.001)" />

<path d="M426,-17c0,0,-153,0,-258,108C168,91,63,200,63,362c0,0,0,108,48,194c0,0,49,86,136,134c0,0,87,47,200,47c0,0,128,0,214,-63c0,0,86,-63,86,-127c0,0,0,-34,-20,-53c0,0,-20,-19,-46,-19c0,0,-13,0,-26,7c0,0,-12,7,-26,22c0,0,-6,6,-22,41c0,0,-20,44,-31,59c0,0,-23,29,-57,47c0,0,-34,17,-76,17c0,0,-63,0,-117,-35c0,0,-54,-35,-86,-103c0,0,-32,-68,-32,-163c0,0,0,-147,79,-233c0,0,67,-74,161,-74c0,0,44,0,88,14c0,0,44,15,84,43c0,0,29,20,95,91l48,-38C763,170,622,-17,426,-17Z" 
id="f0_1z"
transform="scale(0.001,-0.001)" />

<path d="M501,523c0,0,122,0,171,22c0,0,49,21,81,75c0,0,32,53,32,125c0,0,0,78,-37,130c0,0,-38,53,-102,72c0,0,-45,12,-175,12H340V523ZM67,0V63H92c0,0,52,0,71,8c0,0,18,9,27,27c0,0,8,18,8,69V878c0,0,0,50,-7,67c0,0,-8,17,-27,25c0,0,-18,8,-72,8H67v62H479c0,0,188,0,259,-24c0,0,89,-28,147,-96c0,0,58,-69,58,-175c0,0,0,-90,-45,-156c0,0,-53,-79,-128,-112c0,0,-76,-33,-239,-33H340V177c0,0,0,-60,7,-76c0,0,9,-21,25,-30c0,0,15,-8,63,-8h36V0Z" 
id="f0_30"
transform="scale(0.001,-0.001)" />

<path d="M54,0V63H86c0,0,45,0,60,8c0,0,19,11,28,31c0,0,10,20,10,71V613H55v62c0,0,54,4,97,18c0,0,42,13,96,44h56V596c0,0,53,65,123,103c0,0,70,38,126,38c0,0,56,0,88,-26c0,0,32,-26,32,-63c0,0,0,-27,-22,-48c0,0,-21,-20,-51,-20c0,0,-13,0,-23,4c0,0,-10,3,-28,16c0,0,-41,27,-69,27c0,0,-37,0,-82,-32c0,0,-57,-40,-89,-79V173c0,0,0,-45,5,-61c0,0,5,-16,16,-27c0,0,11,-12,28,-17c0,0,16,-5,57,-5h25V0Z" 
id="f0_2e"
transform="scale(0.001,-0.001)" />

<path d="M427,50c0,0,63,0,113,33c0,0,49,34,80,107c0,0,30,74,30,173c0,0,0,96,-32,173c0,0,-26,61,-77,95c0,0,-51,34,-115,34c0,0,-85,0,-143,-67c0,0,-75,-84,-75,-243c0,0,0,-153,64,-234c0,0,57,-71,155,-71Zm-4,-67c0,0,-180,0,-271,112c0,0,-90,112,-90,264c0,0,0,111,47,198c0,0,46,86,131,133c0,0,85,47,192,47c0,0,109,0,190,-45c0,0,80,-46,126,-133c0,0,46,-87,46,-199c0,0,0,-112,-47,-199C747,161,699,74,618,28c0,0,-82,-45,-195,-45Z" 
id="f0_2b"
transform="scale(0.001,-0.001)" />

<path d="M350,0L112,569c0,0,-15,35,-33,58c0,0,-12,14,-31,22c0,0,-20,8,-46,8v63H342V657H322c0,0,-43,0,-53,-3c0,0,-15,-4,-23,-14c0,0,-7,-10,-7,-23c0,0,0,-19,16,-60L425,132L590,557c0,0,15,40,15,59c0,0,0,19,-15,30c0,0,-15,11,-53,11H501v63H795V657c0,0,-30,-1,-51,-10c0,0,-20,-9,-32,-23c0,0,-11,-14,-34,-67L441,0Z" 
id="f0_2i"
transform="scale(0.001,-0.001)" />

<path d="M410,69c0,0,50,0,114,29c0,0,63,29,121,83V462c0,0,0,61,-22,99c0,0,-23,38,-75,67c0,0,-52,28,-106,28c0,0,-65,0,-120,-35c0,0,-55,-36,-86,-102c0,0,-31,-67,-31,-162c0,0,0,-89,29,-155c0,0,29,-65,77,-99c0,0,49,-34,99,-34ZM375,-17c0,0,-135,0,-224,108c0,0,-89,108,-89,261c0,0,0,109,47,199c0,0,47,91,125,139c0,0,77,47,170,47c0,0,71,0,131,-24c0,0,60,-25,110,-74V968H520v64c0,0,51,4,93,17c0,0,42,13,105,45h56V190c0,0,0,-63,3,-77c0,0,8,-28,26,-39c0,0,18,-11,69,-11h32V0L645,-11V107c0,0,-74,-68,-139,-96c0,0,-66,-28,-131,-28Z" 
id="f0_20"
transform="scale(0.001,-0.001)" />

<path d="M274,0V63c0,0,66,0,81,4c0,0,26,8,38,29c0,0,11,21,11,77V910c0,0,0,34,-4,41c0,0,-3,8,-12,12c0,0,-9,4,-39,4c0,0,-81,0,-130,-21c0,0,-48,-21,-91,-70c0,0,-44,-50,-74,-130l-67,24L94,1076h52l7,-36H792l6,36h55L962,770L895,746c0,0,-49,122,-115,172c0,0,-66,49,-170,49c0,0,-43,0,-51,-3c0,0,-9,-4,-12,-12c0,0,-3,-8,-3,-52V178c0,0,0,-51,5,-69c0,0,6,-18,16,-28c0,0,11,-9,29,-14c0,0,18,-4,82,-4V0Z" 
id="f0_1k"
transform="scale(0.001,-0.001)" />

<path d="M56,0V63H79c0,0,54,0,79,13c0,0,13,7,19,26c0,0,6,19,6,107V967H56v65c0,0,72,9,112,22c0,0,40,13,84,40h58V601c0,0,84,71,160,103c0,0,75,33,144,33c0,0,100,0,166,-59c0,0,64,-60,64,-146V166c0,0,0,-54,8,-71c0,0,9,-17,29,-25c0,0,20,-7,90,-7V0H586V63h28c0,0,55,0,72,8c0,0,17,9,25,28c0,0,8,20,8,82V435c0,0,0,85,-6,110c0,0,-12,43,-47,69c0,0,-35,26,-89,26c0,0,-62,0,-128,-30c0,0,-67,-30,-139,-90V147c0,0,0,-42,7,-57c0,0,8,-14,25,-21c0,0,17,-6,68,-6h31V0Z" 
id="f0_24"
transform="scale(0.001,-0.001)" />

<path d="M51,0V63H74c0,0,59,0,75,7c0,0,16,8,23,24c0,0,7,17,6,77V643H51v77H178V832c0,0,0,115,76,189c0,0,77,73,200,73c0,0,82,0,128,-34c0,0,46,-34,46,-75c0,0,0,-26,-19,-45c0,0,-18,-18,-45,-18c0,0,-25,0,-43,9c0,0,-18,9,-55,45c0,0,-39,37,-75,37c0,0,-25,0,-45,-15c0,0,-19,-16,-30,-45c0,0,-11,-30,-11,-91V720H445V643H305V159c0,0,0,-50,8,-66c0,0,7,-17,22,-24c0,0,15,-6,69,-6h31V0Z" 
id="f0_22"
transform="scale(0.001,-0.001)" />

<path d="M48,0V63H87c0,0,36,0,54,11c0,0,18,11,26,30c0,0,8,19,8,77V970H48v62c0,0,101,7,197,62h55V176c0,0,0,-58,8,-73c0,0,9,-21,28,-31c0,0,19,-9,71,-9h24V0Z" 
id="f0_28"
transform="scale(0.001,-0.001)" />

<path d="M336,0L116,550c0,0,-20,53,-34,71c0,0,-13,17,-33,26c0,0,-20,10,-49,10v63H342V657H318c0,0,-44,0,-58,-7c0,0,-22,-10,-22,-32c0,0,0,-21,17,-68L409,142L560,522l-13,34c0,0,-24,61,-54,84c0,0,-20,15,-60,17v63H775V657H746c0,0,-41,0,-53,-7c0,0,-21,-12,-21,-38c0,0,0,-22,16,-62L842,142L993,556c0,0,12,34,13,38c0,0,2,9,2,18c0,0,0,20,-16,33c0,0,-17,12,-61,12H903v63h291V657c0,0,-32,-1,-53,-11c0,0,-20,-10,-32,-25c0,0,-12,-16,-34,-71L858,0H767L596,429L425,0Z" 
id="f0_2j"
transform="scale(0.001,-0.001)" />

<path d="M49,0V63H79c0,0,50,0,68,9c0,0,17,9,24,25c0,0,7,16,7,77V613H49v62c0,0,62,7,104,20c0,0,42,14,96,42h54V140c0,0,0,-32,9,-47c0,0,9,-16,25,-23c0,0,16,-7,58,-7h35V0ZM238,903c0,0,-36,0,-61,25c0,0,-25,25,-25,61c0,0,0,36,25,61c0,0,25,25,61,25c0,0,36,0,61,-25c0,0,26,-25,26,-61c0,0,0,-36,-26,-61c0,0,-25,-25,-61,-25Z" 
id="f0_25"
transform="scale(0.001,-0.001)" />

<path d="M413,-272c0,0,102,0,175,22c0,0,73,22,104,56c0,0,24,27,24,64c0,0,0,31,-20,53c0,0,-19,21,-71,37c0,0,-53,16,-99,24L285,21c0,0,-72,-60,-95,-98c0,0,-24,-38,-24,-73c0,0,0,-30,24,-58c0,0,23,-28,80,-46c0,0,57,-18,143,-18Zm-7,571c0,0,47,0,89,25c0,0,42,24,65,66c0,0,23,42,23,94c0,0,0,82,-50,133c0,0,-50,51,-128,51c0,0,-74,0,-124,-53c0,0,-51,-53,-51,-131c0,0,0,-52,23,-94c0,0,23,-42,65,-67c0,0,42,-24,88,-24ZM391,-342c0,0,-120,0,-194,25c0,0,-75,25,-116,72c0,0,-30,33,-30,69c0,0,0,46,30,90c0,0,30,44,140,124c0,0,-71,18,-101,42c0,0,-39,30,-39,69c0,0,0,20,7,36c0,0,7,17,23,34c0,0,17,17,59,47c0,0,27,18,38,27c0,0,-54,39,-82,87c0,0,-27,48,-27,105c0,0,0,95,73,166c0,0,89,86,240,86c0,0,67,0,117,-17c0,0,50,-16,103,-60c0,0,34,40,68,59c0,0,35,18,64,18c0,0,27,0,46,-16c0,0,18,-16,18,-39c0,0,0,-24,-16,-40c0,0,-17,-16,-42,-16c0,0,-11,0,-29,3c0,0,-21,6,-35,6c0,0,-19,0,-39,-18c0,0,47,-56,47,-131c0,0,0,-103,-87,-179c0,0,-87,-75,-219,-75c0,0,-74,0,-148,31c0,0,-49,-35,-56,-43c0,0,-10,-13,-10,-27c0,0,0,-22,22,-36c0,0,28,-18,112,-31L544,94c0,0,72,-11,144,-37c0,0,73,-26,106,-67c0,0,32,-42,32,-100c0,0,0,-98,-91,-157c0,0,-116,-75,-344,-75Z" 
id="f0_23"
transform="scale(0.001,-0.001)" />

<path d="M326,73c0,0,48,0,109,23c0,0,62,24,157,91l1,180c0,0,-173,-26,-215,-35c0,0,-81,-19,-116,-41c0,0,-36,-23,-51,-48c0,0,-14,-26,-14,-55c0,0,0,-29,16,-56c0,0,17,-27,48,-43c0,0,30,-16,65,-16ZM291,-12c0,0,-103,0,-167,55c0,0,-64,56,-64,131c0,0,0,46,23,87c0,0,24,41,72,72c0,0,48,31,151,55c0,0,104,24,287,43v82c0,0,0,83,-47,118c0,0,-46,36,-131,36c0,0,-42,0,-73,-10c0,0,-31,-10,-51,-28c0,0,-19,-18,-28,-40c0,0,-3,-8,-18,-64c0,0,-17,-67,-69,-67c0,0,-30,0,-48,19c0,0,-18,20,-18,54c0,0,0,49,36,97c0,0,37,47,112,78c0,0,75,31,177,31c0,0,95,0,163,-29c0,0,68,-30,100,-85c0,0,23,-38,23,-138V198c0,0,0,-61,3,-79c0,0,9,-32,29,-48c0,0,21,-16,54,-16c0,0,34,0,82,15V5c0,0,-62,-17,-111,-17c0,0,-53,0,-89,14c0,0,-37,15,-60,44c0,0,-23,29,-30,68c0,0,-89,-70,-162,-98c0,0,-72,-28,-146,-28Z" 
id="f0_1x"
transform="scale(0.001,-0.001)" />

<path d="M362,-17c0,0,-57,0,-103,25c0,0,-45,25,-62,59c0,0,-17,35,-17,120V645H49v63c0,0,63,14,102,44c0,0,38,29,62,77c0,0,24,48,39,144h53V720H527V645H305V196c0,0,0,-58,10,-82c0,0,10,-25,34,-41c0,0,25,-15,55,-15c0,0,70,0,156,63V49c0,0,-98,-66,-198,-66Z" 
id="f0_2g"
transform="scale(0.001,-0.001)" />

<path d="M55,0V63H75c0,0,51,0,67,8c0,0,24,11,34,36c0,0,6,13,6,69V611H53v64c0,0,56,5,98,18c0,0,42,13,96,44h55V612c0,0,85,67,133,90c0,0,73,35,139,35c0,0,46,0,90,-16c0,0,43,-17,70,-42c0,0,26,-24,45,-67c0,0,78,70,145,97c0,0,67,28,135,28c0,0,66,0,116,-27c0,0,51,-27,73,-68c0,0,23,-41,23,-120V176c0,0,0,-54,2,-63c0,0,4,-15,16,-27c0,0,12,-13,28,-18c0,0,15,-5,58,-5h23V0H1025V63c0,0,64,0,83,9c0,0,19,8,29,28c0,0,9,19,9,76V505c0,0,0,62,-11,86c0,0,-11,24,-40,40c0,0,-29,16,-72,16c0,0,-53,0,-111,-28c0,0,-78,-39,-123,-87V176c0,0,0,-52,5,-68c0,0,5,-16,16,-26c0,0,12,-11,27,-15c0,0,15,-4,74,-4V0H545V63h21c0,0,44,0,62,10c0,0,18,10,28,32c0,0,8,17,8,71V494c0,0,0,70,-11,94c0,0,-11,25,-41,42c0,0,-31,17,-72,17c0,0,-49,0,-98,-24c0,0,-74,-35,-135,-91V149c0,0,0,-35,9,-51c0,0,10,-16,30,-26c0,0,20,-9,55,-9h27V0Z" 
id="f0_29"
transform="scale(0.001,-0.001)" />

<path d="M504,63c0,0,97,0,168,73c0,0,71,73,71,221c0,0,0,138,-59,214c0,0,-59,75,-139,75c0,0,-52,0,-114,-27c0,0,-61,-28,-131,-83V280c0,0,0,-51,6,-75c0,0,9,-38,35,-69c0,0,26,-30,70,-52c0,0,44,-21,93,-21ZM48,-331v62H81c0,0,52,0,67,8c0,0,15,8,23,24c0,0,4,13,4,78V613H48v62c0,0,56,0,99,14c0,0,43,14,94,48h59V613c0,0,93,74,155,99c0,0,62,25,124,25c0,0,128,0,218,-100c0,0,90,-99,90,-260c0,0,0,-177,-102,-290C785,87,691,-17,544,-17c0,0,-73,0,-137,27c0,0,-46,20,-107,70V-165c0,0,0,-55,3,-65c0,0,4,-14,15,-24c0,0,11,-10,28,-13c0,0,13,-2,85,-2v-62Z" 
id="f0_2c"
transform="scale(0.001,-0.001)" />

<path d="M450,-17c0,0,-126,0,-215,71L219,0H166L73,244l68,27c0,0,68,-107,128,-152c0,0,84,-63,182,-63c0,0,65,0,107,34c0,0,41,35,41,77c0,0,0,35,-26,64c0,0,-27,29,-103,56L298,349c0,0,-111,40,-154,88c0,0,-43,48,-43,110c0,0,0,75,70,133c0,0,71,57,180,57c0,0,56,0,101,-14c0,0,45,-15,88,-48l20,45h53L680,492L612,469c0,0,-40,92,-113,144c0,0,-73,53,-147,53c0,0,-58,0,-93,-28c0,0,-36,-28,-36,-65c0,0,0,-34,26,-58c0,0,25,-26,114,-58L509,406c0,0,123,-44,168,-94c0,0,44,-51,44,-115c0,0,0,-54,-33,-105c0,0,-33,-50,-95,-80c0,0,-63,-29,-143,-29Z" 
id="f0_2f"
transform="scale(0.001,-0.001)" />

<path d="M532,575c0,0,81,0,119,17c0,0,38,16,61,51c0,0,23,35,23,83c0,0,0,71,-55,113c0,0,-41,31,-121,31H443V575ZM61,0V144H96c0,0,46,0,61,6c0,0,15,7,22,22c0,0,7,14,7,60V804c0,0,0,48,-6,63c0,0,-6,15,-19,23c0,0,-13,7,-50,7H61v143H611c0,0,104,0,173,-21c0,0,69,-21,119,-64c0,0,49,-44,76,-103c0,0,27,-59,27,-126c0,0,0,-133,-102,-223c0,0,-103,-90,-284,-90H443V218c0,0,0,-37,5,-47c0,0,7,-14,21,-21c0,0,13,-6,46,-6h53V0Z" 
id="f1_1g"
transform="scale(0.001,-0.001)" />

<path d="M65,0V144h38c0,0,41,0,51,4c0,0,10,5,16,16c0,0,5,11,5,50V556H65L64,699c0,0,122,8,253,63h70V654c0,0,60,62,104,85c0,0,44,23,84,23c0,0,37,0,66,-17c0,0,28,-17,45,-48c0,0,17,-32,17,-67c0,0,0,-47,-31,-85c0,0,-31,-38,-87,-38c0,0,-15,0,-27,2c0,0,-11,2,-49,15c0,0,-19,6,-32,6c0,0,-19,0,-64,-25V214c0,0,0,-37,5,-49c0,0,6,-11,18,-16c0,0,13,-5,55,-5h33V0Z" 
id="f1_2e"
transform="scale(0.001,-0.001)" />

<path d="M469,144c0,0,66,0,113,55c0,0,47,56,47,172c0,0,0,114,-44,170c0,0,-43,57,-111,57c0,0,-43,0,-80,-25c0,0,-37,-25,-58,-74c0,0,-20,-49,-20,-125c0,0,0,-78,20,-130c0,0,20,-51,55,-76c0,0,36,-24,78,-24Zm5,-161c0,0,-193,0,-307,109C167,92,57,196,57,374c0,0,0,117,50,201c0,0,50,85,146,136c0,0,95,51,218,51c0,0,127,0,222,-50c0,0,95,-50,146,-136c0,0,51,-86,51,-202c0,0,0,-174,-113,-283C777,91,663,-17,474,-17Z" 
id="f1_2b"
transform="scale(0.001,-0.001)" />

<path d="M61,0V144H97c0,0,45,0,55,4c0,0,9,5,14,16c0,0,5,12,5,57V587H61V744H171v78c0,0,0,83,29,133c0,0,35,62,111,101c0,0,76,39,182,39c0,0,112,0,175,-47c0,0,63,-48,63,-105c0,0,0,-46,-28,-74c0,0,-29,-29,-76,-29c0,0,-19,0,-36,6c0,0,-18,5,-33,16c0,0,-12,8,-39,38c0,0,-25,28,-34,33c0,0,-11,7,-21,7c0,0,-26,0,-41,-24c0,0,-14,-24,-14,-94V744H530V587H409V221c0,0,0,-44,3,-53c0,0,6,-12,18,-18c0,0,11,-6,49,-6h41V0Z" 
id="f1_22"
transform="scale(0.001,-0.001)" />

<path d="M261,-11c0,0,-58,0,-99,40c0,0,-41,41,-41,98c0,0,0,58,41,98c0,0,41,41,99,41c0,0,57,0,98,-41c0,0,41,-40,41,-98c0,0,0,-57,-41,-98c0,0,-41,-40,-98,-40Zm-1,493c0,0,-57,0,-98,41c0,0,-41,41,-41,99c0,0,0,57,42,98c0,0,41,42,98,42c0,0,57,0,98,-41c0,0,41,-41,41,-99c0,0,0,-58,-41,-99c0,0,-41,-41,-99,-41Z" 
id="f1_2u"
transform="scale(0.001,-0.001)" />

<path d="M414,-17c0,0,-58,0,-101,16c0,0,-43,15,-75,46c0,0,-33,31,-50,76c0,0,-17,44,-17,94V554c0,0,0,46,-8,64c0,0,-8,18,-27,29c0,0,-19,11,-52,11H16v63l282,10V251c0,0,0,-63,18,-100c0,0,17,-38,53,-58c0,0,37,-21,85,-21c0,0,60,0,135,32c0,0,76,32,151,96V548c0,0,0,55,-8,72c0,0,-8,17,-29,28c0,0,-21,10,-66,10H583v63l282,10V175c0,0,0,-54,9,-75c0,0,9,-20,27,-29c0,0,17,-8,70,-8h23V0L747,-12V126C747,126,645,44,569,13c0,0,-76,-30,-155,-30Z" 
id="f0_2h"
transform="scale(0.001,-0.001)" />

<path d="M499,66c0,0,67,0,121,34c0,0,55,35,86,104c0,0,31,68,31,164c0,0,0,135,-66,216c0,0,-53,67,-148,67c0,0,-50,0,-100,-18c0,0,-51,-18,-128,-68V278c0,0,0,-67,10,-95c0,0,10,-27,40,-55c0,0,30,-29,71,-46c0,0,40,-16,83,-16Zm37,-83c0,0,-87,0,-156,36c0,0,-51,27,-98,83L241,0H171V970H42v62c0,0,49,3,96,17c0,0,46,15,103,45h54V639c0,0,66,49,135,74c0,0,69,24,142,24c0,0,83,0,154,-44c0,0,71,-45,111,-127c0,0,41,-81,41,-192c0,0,0,-175,-102,-287C776,87,681,-17,536,-17Z" 
id="f0_1y"
transform="scale(0.001,-0.001)" />

<path d="M0,0V62c0,0,36,0,56,8c0,0,21,7,41,22c0,0,33,27,48,43L365,360L178,573c0,0,-35,40,-56,56c0,0,-20,16,-40,23c0,0,-19,6,-54,6v62H403V658H377c0,0,-22,0,-41,-5c0,0,-11,-3,-18,-12c0,0,-7,-8,-7,-16c0,0,0,-17,28,-52L446,439L570,573c0,0,34,37,34,56c0,0,0,14,-12,21c0,0,-12,8,-51,8H513v62H831V658c0,0,-47,-2,-81,-20c0,0,-34,-17,-80,-66L499,396L711,153l9,-11c0,0,31,-40,70,-65c0,0,21,-15,67,-15V0H491V62h31c0,0,36,0,46,4c0,0,16,8,16,26c0,0,0,16,-36,61L413,318L262,153L247,135l-9,-9c0,0,-18,-21,-18,-37c0,0,0,-14,11,-21c0,0,12,-6,52,-6h29V0Z" 
id="f0_2k"
transform="scale(0.001,-0.001)" />

<path d="M45,0V63c0,0,65,0,80,5c0,0,26,8,37,29c0,0,12,21,12,81V970H45v62c0,0,95,7,197,62h57V350L573,568c0,0,66,52,66,69c0,0,0,10,-14,16c0,0,-9,4,-44,4H541v63H920V657c0,0,-64,0,-102,-13c0,0,-38,-13,-88,-51L515,427L769,149c0,0,36,-40,60,-57c0,0,23,-16,46,-22c0,0,23,-7,72,-7V0H551V63h30c0,0,46,0,58,7c0,0,12,7,12,19c0,0,0,12,-23,34c0,0,-3,4,-8,10L421,359L299,267V169c0,0,0,-54,8,-71c0,0,9,-18,26,-26c0,0,18,-9,68,-9h27V0Z" 
id="f0_27"
transform="scale(0.001,-0.001)" />

<path d="M255,0V63h81c0,0,53,0,71,9c0,0,18,9,27,30c0,0,10,20,10,75V886H255v64c0,0,155,22,258,90h56V177c0,0,0,-61,8,-79c0,0,8,-18,26,-26c0,0,18,-9,71,-9h73V0Z" 
id="f0_l"
transform="scale(0.001,-0.001)" />

<path d="M244,-12c0,0,-38,0,-66,27c0,0,-27,27,-27,66c0,0,0,39,27,66c0,0,27,27,66,27c0,0,40,0,67,-27c0,0,27,-27,27,-66c0,0,0,-39,-27,-66c0,0,-28,-27,-67,-27Z" 
id="f0_i"
transform="scale(0.001,-0.001)" />

<path d="M555,-17c0,0,-89,0,-159,25c0,0,-70,26,-151,91L211,0H158L89,374l69,14c0,0,38,-104,101,-176c0,0,63,-73,140,-110c0,0,76,-36,155,-36c0,0,108,0,188,64c0,0,68,55,68,129c0,0,0,67,-49,111c0,0,-49,43,-176,80L398,504c0,0,-156,45,-220,116c0,0,-65,71,-65,163c0,0,0,71,42,132c0,0,42,61,129,102c0,0,86,41,189,41c0,0,87,0,166,-30c0,0,56,-21,103,-60l31,72h54L906,720L837,699c0,0,-66,135,-174,212c0,0,-90,65,-199,65c0,0,-65,0,-117,-24c0,0,-52,-23,-78,-60c0,0,-27,-38,-27,-77c0,0,0,-35,21,-67c0,0,20,-33,61,-58c0,0,41,-25,134,-53L653,580c0,0,36,-10,104,-40c0,0,68,-30,106,-63c0,0,38,-33,60,-81c0,0,22,-48,22,-104c0,0,0,-124,-109,-217c0,0,-109,-92,-281,-92Z" 
id="f0_32"
transform="scale(0.001,-0.001)" />

<path d="M166,-269l-41,49c0,0,154,125,154,208c0,0,0,10,-2,23c0,0,-13,-5,-25,-8C252,3,240,0,230,0c0,0,-36,0,-58,23c0,0,-21,23,-21,59c0,0,0,35,26,61c0,0,26,26,62,26c0,0,51,0,88,-40c0,0,36,-41,36,-105c0,0,0,-41,-17,-87c0,0,-18,-46,-50,-85c0,0,-33,-39,-130,-121Z" 
id="f0_g"
transform="scale(0.001,-0.001)" />

<path d="M415,-18c0,0,-149,0,-244,83c0,0,-94,84,-107,222l140,11c0,0,16,-103,73,-154c0,0,56,-52,137,-52c0,0,98,0,165,73c0,0,66,73,66,194c0,0,0,115,-64,182c0,0,-64,66,-169,66c0,0,-65,0,-117,-29c0,0,-52,-30,-82,-77L87,517l106,562H736V951H300L241,657c0,0,99,69,207,69c0,0,143,0,242,-100c0,0,98,-99,98,-255c0,0,0,-149,-86,-257C702,114,597,-18,415,-18Z" 
id="f2_p"
transform="scale(0.001,-0.001)" />


</defs>
</svg>