<?xml version="1.0" encoding="UTF-8" standalone="no"?>
<!DOCTYPE svg PUBLIC "-//W3C//DTD SVG 1.1//EN"
"http://www.w3.org/Graphics/SVG/1.1/DTD/svg11.dtd">
<svg viewBox="0 0 909 1286" version="1.1" xmlns="http://www.w3.org/2000/svg" xmlns:xlink="http://www.w3.org/1999/xlink">
<defs>
<style type="text/css"><![CDATA[
.g0_66{
fill: #ED7D31;
}
.g1_66{
}
]]></style>
</defs>
<g fill="#2D3639" >
<use xlink:href="#f0_1g" transform="matrix(11,0,0,11,55,224.8)" />
<use xlink:href="#f0_2e" transform="matrix(11,0,0,11,66,224.8)" />
<use xlink:href="#f0_2b" transform="matrix(11,0,0,11,73.7,224.8)" />
<use xlink:href="#f0_2b" transform="matrix(11,0,0,11,84.4,224.8)" />
<use xlink:href="#f0_22" transform="matrix(11,0,0,11,95,224.8)" />
<use xlink:href="#f0_2y" transform="matrix(11,0,0,11,55,508)" />
<use xlink:href="#f0_2b" transform="matrix(11,0,0,11,67.5,508)" />
<use xlink:href="#f0_2g" transform="matrix(11,0,0,11,78.1,508)" />
<use xlink:href="#f0_21" transform="matrix(11,0,0,11,85.8,508)" />
<use xlink:href="#f0_2u" transform="matrix(11,0,0,11,95.7,508)" />
<use xlink:href="#f1_1k" transform="matrix(11,0,0,11,55,541.7)" />
<use xlink:href="#f1_24" transform="matrix(11,0,0,11,65.3,541.7)" />
<use xlink:href="#f1_21" transform="matrix(11,0,0,11,76.3,541.7)" />
<use xlink:href="#f1_21" transform="matrix(11,0,0,11,104.5,541.7)" />
<use xlink:href="#f1_2k" transform="matrix(11,0,0,11,113.3,541.7)" />
<use xlink:href="#f1_2c" transform="matrix(11,0,0,11,122.8,541.7)" />
<use xlink:href="#f1_2e" transform="matrix(11,0,0,11,133.4,541.7)" />
<use xlink:href="#f1_21" transform="matrix(11,0,0,11,140.8,541.7)" />
<use xlink:href="#f1_2f" transform="matrix(11,0,0,11,149.6,541.7)" />
<use xlink:href="#f1_2f" transform="matrix(11,0,0,11,158.4,541.7)" />
<use xlink:href="#f1_25" transform="matrix(11,0,0,11,166.8,541.7)" />
<use xlink:href="#f1_2b" transform="matrix(11,0,0,11,171.9,541.7)" />
<use xlink:href="#f1_2a" transform="matrix(11,0,0,11,181.4,541.7)" />
<use xlink:href="#f1_25" transform="matrix(11,0,0,11,211.5,541.7)" />
<use xlink:href="#f1_2a" transform="matrix(11,0,0,11,216.6,541.7)" />
<use xlink:href="#f1_2g" transform="matrix(11,0,0,11,247,541.7)" />
<use xlink:href="#f1_24" transform="matrix(11,0,0,11,253.2,541.7)" />
<use xlink:href="#f1_21" transform="matrix(11,0,0,11,264.2,541.7)" />
<use xlink:href="#f1_1x" transform="matrix(11,0,0,11,292.4,541.7)" />
<use xlink:href="#f1_1y" transform="matrix(11,0,0,11,302,541.7)" />
<use xlink:href="#f1_2b" transform="matrix(11,0,0,11,312.6,541.7)" />
<use xlink:href="#f1_2i" transform="matrix(11,0,0,11,322.1,541.7)" />
<use xlink:href="#f1_21" transform="matrix(11,0,0,11,330.5,541.7)" />
<use xlink:href="#f1_2g" transform="matrix(11,0,0,11,358.7,541.7)" />
<use xlink:href="#f1_24" transform="matrix(11,0,0,11,365,541.7)" />
<use xlink:href="#f1_21" transform="matrix(11,0,0,11,376,541.7)" />
<use xlink:href="#f1_2b" transform="matrix(11,0,0,11,384.7,541.7)" />
<use xlink:href="#f1_2e" transform="matrix(11,0,0,11,394.3,541.7)" />
<use xlink:href="#f1_21" transform="matrix(11,0,0,11,401.6,541.7)" />
<use xlink:href="#f1_29" transform="matrix(11,0,0,11,410.4,541.7)" />
<use xlink:href="#f1_22" transform="matrix(11,0,0,11,445.2,541.7)" />
<use xlink:href="#f1_2b" transform="matrix(11,0,0,11,450.7,541.7)" />
<use xlink:href="#f1_2e" transform="matrix(11,0,0,11,460.2,541.7)" />
<use xlink:href="#f1_2g" transform="matrix(11,0,0,11,486.6,541.7)" />
<use xlink:href="#f1_24" transform="matrix(11,0,0,11,492.9,541.7)" />
<use xlink:href="#f1_21" transform="matrix(11,0,0,11,503.9,541.7)" />
<use xlink:href="#f1_28" transform="matrix(11,0,0,11,532.1,541.7)" />
<use xlink:href="#f1_25" transform="matrix(11,0,0,11,537.2,541.7)" />
<use xlink:href="#f1_29" transform="matrix(11,0,0,11,542.3,541.7)" />
<use xlink:href="#f1_25" transform="matrix(11,0,0,11,558.1,541.7)" />
<use xlink:href="#f1_2g" transform="matrix(11,0,0,11,563.2,541.7)" />
<use xlink:href="#f1_25" transform="matrix(11,0,0,11,589.1,541.7)" />
<use xlink:href="#f1_2f" transform="matrix(11,0,0,11,594.2,541.7)" />
<use xlink:href="#f1_2g" transform="matrix(11,0,0,11,622.4,541.7)" />
<use xlink:href="#f1_2e" transform="matrix(11,0,0,11,628.6,541.7)" />
<use xlink:href="#f1_2h" transform="matrix(11,0,0,11,636,541.7)" />
<use xlink:href="#f1_21" transform="matrix(11,0,0,11,647.4,541.7)" />
<use xlink:href="#f1_21" transform="matrix(11,0,0,11,675.2,541.7)" />
<use xlink:href="#f1_2i" transform="matrix(11,0,0,11,684,541.7)" />
<use xlink:href="#f1_21" transform="matrix(11,0,0,11,692.8,541.7)" />
<use xlink:href="#f1_2a" transform="matrix(11,0,0,11,701.5,541.7)" />
<use xlink:href="#f1_25" transform="matrix(11,0,0,11,732,541.7)" />
<use xlink:href="#f1_22" transform="matrix(11,0,0,11,736.8,541.7)" />
<use xlink:href="#f1_2a" transform="matrix(11,0,0,11,761.7,541.7)" />
<use xlink:href="#f1_25" transform="matrix(11,0,0,11,791.7,541.7)" />
<use xlink:href="#f1_2f" transform="matrix(11,0,0,11,796.5,541.7)" />
<use xlink:href="#f1_1x" transform="matrix(11,0,0,11,824.7,541.7)" />
<use xlink:href="#f1_2a" transform="matrix(11,0,0,11,834.6,541.7)" />
<use xlink:href="#f1_2l" transform="matrix(11,0,0,11,845.6,541.7)" />
<use xlink:href="#f1_2e" transform="matrix(11,0,0,11,55,563)" />
<use xlink:href="#f1_1x" transform="matrix(11,0,0,11,62.4,563)" />
<use xlink:href="#f1_2g" transform="matrix(11,0,0,11,72.3,563)" />
<use xlink:href="#f1_25" transform="matrix(11,0,0,11,78.5,563)" />
<use xlink:href="#f1_2b" transform="matrix(11,0,0,11,83.6,563)" />
<use xlink:href="#f1_2a" transform="matrix(11,0,0,11,93.1,563)" />
<use xlink:href="#f1_1x" transform="matrix(11,0,0,11,104.1,563)" />
<use xlink:href="#f1_28" transform="matrix(11,0,0,11,114,563)" />
<use xlink:href="#f1_2a" transform="matrix(11,0,0,11,124.6,563)" />
<use xlink:href="#f1_2h" transform="matrix(11,0,0,11,135.6,563)" />
<use xlink:href="#f1_29" transform="matrix(11,0,0,11,147,563)" />
<use xlink:href="#f1_1y" transform="matrix(11,0,0,11,162.7,563)" />
<use xlink:href="#f1_21" transform="matrix(11,0,0,11,173.3,563)" />
<use xlink:href="#f1_2e" transform="matrix(11,0,0,11,182.1,563)" />
<use xlink:href="#f1_1x" transform="matrix(11,0,0,11,194.6,563)" />
<use xlink:href="#f1_2a" transform="matrix(11,0,0,11,204.5,563)" />
<use xlink:href="#f1_20" transform="matrix(11,0,0,11,215.5,563)" />
<use xlink:href="#f1_1x" transform="matrix(11,0,0,11,231.2,563)" />
<use xlink:href="#f1_25" transform="matrix(11,0,0,11,246.2,563)" />
<use xlink:href="#f1_2f" transform="matrix(11,0,0,11,251.3,563)" />
<use xlink:href="#f1_2c" transform="matrix(11,0,0,11,265.3,563)" />
<use xlink:href="#f1_2b" transform="matrix(11,0,0,11,275.9,563)" />
<use xlink:href="#f1_2f" transform="matrix(11,0,0,11,285.4,563)" />
<use xlink:href="#f1_25" transform="matrix(11,0,0,11,293.8,563)" />
<use xlink:href="#f1_2g" transform="matrix(11,0,0,11,298.9,563)" />
<use xlink:href="#f1_25" transform="matrix(11,0,0,11,305.2,563)" />
<use xlink:href="#f1_2i" transform="matrix(11,0,0,11,310.3,563)" />
<use xlink:href="#f1_21" transform="matrix(11,0,0,11,319.1,563)" />
<use xlink:href="#f1_i" transform="matrix(11,0,0,11,327.9,563)" />
</g>
<g fill="#C00000" >
<use xlink:href="#f0_2x" transform="matrix(11,0,0,11,55,596.4)" />
<use xlink:href="#f0_25" transform="matrix(11,0,0,11,65.7,596.4)" />
<use xlink:href="#f0_29" transform="matrix(11,0,0,11,71.9,596.4)" />
<use xlink:href="#f0_25" transform="matrix(11,0,0,11,88.8,596.4)" />
<use xlink:href="#f0_2g" transform="matrix(11,0,0,11,95,596.4)" />
<use xlink:href="#f0_2f" transform="matrix(11,0,0,11,102.7,596.4)" />
<use xlink:href="#f0_2b" transform="matrix(11,0,0,11,117,596.4)" />
<use xlink:href="#f0_22" transform="matrix(11,0,0,11,127.6,596.4)" />
<use xlink:href="#f0_1k" transform="matrix(11,0,0,11,139.7,596.4)" />
<use xlink:href="#f0_2e" transform="matrix(11,0,0,11,151.4,596.4)" />
<use xlink:href="#f0_25" transform="matrix(11,0,0,11,159.1,596.4)" />
<use xlink:href="#f0_30" transform="matrix(11,0,0,11,165,596.4)" />
<use xlink:href="#f0_2b" transform="matrix(11,0,0,11,174.9,596.4)" />
<use xlink:href="#f0_2a" transform="matrix(11,0,0,11,185.5,596.4)" />
<use xlink:href="#f0_2b" transform="matrix(11,0,0,11,196.5,596.4)" />
<use xlink:href="#f0_29" transform="matrix(11,0,0,11,207.1,596.4)" />
<use xlink:href="#f0_21" transform="matrix(11,0,0,11,224,596.4)" />
<use xlink:href="#f0_2g" transform="matrix(11,0,0,11,233.9,596.4)" />
<use xlink:href="#f0_2e" transform="matrix(11,0,0,11,241.6,596.4)" />
<use xlink:href="#f0_25" transform="matrix(11,0,0,11,248.9,596.4)" />
<use xlink:href="#f0_1z" transform="matrix(11,0,0,11,255.1,596.4)" />
<use xlink:href="#f0_2w" transform="matrix(11,0,0,11,270.5,596.4)" />
<use xlink:href="#f0_2h" transform="matrix(11,0,0,11,281.9,596.4)" />
<use xlink:href="#f0_2a" transform="matrix(11,0,0,11,292.9,596.4)" />
<use xlink:href="#f0_1z" transform="matrix(11,0,0,11,304.2,596.4)" />
<use xlink:href="#f0_2g" transform="matrix(11,0,0,11,314.1,596.4)" />
<use xlink:href="#f0_25" transform="matrix(11,0,0,11,321.8,596.4)" />
<use xlink:href="#f0_2b" transform="matrix(11,0,0,11,328.1,596.4)" />
<use xlink:href="#f0_2a" transform="matrix(11,0,0,11,338.7,596.4)" />
<use xlink:href="#f0_2f" transform="matrix(11,0,0,11,350,596.4)" />
</g>
<g fill="#000000" >
<use xlink:href="#f0_1k" transform="matrix(11,0,0,11,55,630.1)" />
<use xlink:href="#f0_31" transform="matrix(11,0,0,11,66.8,630.1)" />
<use xlink:href="#f0_21" transform="matrix(11,0,0,11,78.1,630.1)" />
<use xlink:href="#f0_2b" transform="matrix(11,0,0,11,88,630.1)" />
<use xlink:href="#f0_2e" transform="matrix(11,0,0,11,98.6,630.1)" />
<use xlink:href="#f0_21" transform="matrix(11,0,0,11,106.3,630.1)" />
<use xlink:href="#f0_29" transform="matrix(11,0,0,11,116.2,630.1)" />
<use xlink:href="#f0_2p" transform="matrix(11,0,0,11,138.6,630.1)" />
<use xlink:href="#f1_2y" transform="matrix(11,0,0,11,55,663.5)" />
<use xlink:href="#f1_21" transform="matrix(11,0,0,11,65.3,663.5)" />
<use xlink:href="#f1_2g" transform="matrix(11,0,0,11,74.1,663.5)" />
<use xlink:href="#f1_22" transform="matrix(11,0,0,11,85.8,663.5)" />
<use xlink:href="#f1_1x" transform="matrix(11,0,0,11,96.8,663.5)" />
<use xlink:href="#f1_2a" transform="matrix(11,0,0,11,106.6,663.5)" />
<use xlink:href="#f1_20" transform="matrix(11,0,0,11,117.6,663.5)" />
<use xlink:href="#f1_23" transform="matrix(11,0,0,11,133.7,663.5)" />
<use xlink:href="#f1_1y" transform="matrix(11,0,0,11,148,663.5)" />
<use xlink:href="#f1_21" transform="matrix(11,0,0,11,158.6,663.5)" />
<use xlink:href="#f1_2g" transform="matrix(11,0,0,11,172.9,663.5)" />
<use xlink:href="#f1_2j" transform="matrix(11,0,0,11,179.1,663.5)" />
<use xlink:href="#f1_2b" transform="matrix(11,0,0,11,192.3,663.5)" />
<use xlink:href="#f1_2e" transform="matrix(11,0,0,11,207.3,663.5)" />
<use xlink:href="#f1_21" transform="matrix(11,0,0,11,214.7,663.5)" />
<use xlink:href="#f1_1x" transform="matrix(11,0,0,11,223.5,663.5)" />
<use xlink:href="#f1_28" transform="matrix(11,0,0,11,233,663.5)" />
<use xlink:href="#f1_2i" transform="matrix(11,0,0,11,243.6,663.5)" />
<use xlink:href="#f1_1x" transform="matrix(11,0,0,11,252.4,663.5)" />
<use xlink:href="#f1_28" transform="matrix(11,0,0,11,262.3,663.5)" />
<use xlink:href="#f1_2h" transform="matrix(11,0,0,11,267.4,663.5)" />
<use xlink:href="#f1_21" transform="matrix(11,0,0,11,278.8,663.5)" />
<use xlink:href="#f1_20" transform="matrix(11,0,0,11,287.2,663.5)" />
<use xlink:href="#f1_22" transform="matrix(11,0,0,11,303.3,663.5)" />
<use xlink:href="#f1_2h" transform="matrix(11,0,0,11,308.8,663.5)" />
<use xlink:href="#f1_2a" transform="matrix(11,0,0,11,320.1,663.5)" />
<use xlink:href="#f1_1z" transform="matrix(11,0,0,11,331.1,663.5)" />
<use xlink:href="#f1_2g" transform="matrix(11,0,0,11,339.9,663.5)" />
<use xlink:href="#f1_25" transform="matrix(11,0,0,11,346.2,663.5)" />
<use xlink:href="#f1_2b" transform="matrix(11,0,0,11,351.3,663.5)" />
<use xlink:href="#f1_2a" transform="matrix(11,0,0,11,360.8,663.5)" />
<use xlink:href="#f1_2f" transform="matrix(11,0,0,11,371.8,663.5)" />
<use xlink:href="#f1_2j" transform="matrix(11,0,0,11,386.6,663.5)" />
<use xlink:href="#f1_25" transform="matrix(11,0,0,11,399.5,663.5)" />
<use xlink:href="#f1_2g" transform="matrix(11,0,0,11,404.6,663.5)" />
<use xlink:href="#f1_24" transform="matrix(11,0,0,11,410.8,663.5)" />
<use xlink:href="#f1_2g" transform="matrix(11,0,0,11,427.3,663.5)" />
<use xlink:href="#f1_24" transform="matrix(11,0,0,11,433.5,663.5)" />
<use xlink:href="#f1_21" transform="matrix(11,0,0,11,444.5,663.5)" />
<use xlink:href="#f1_2f" transform="matrix(11,0,0,11,458.8,663.5)" />
<use xlink:href="#f1_1x" transform="matrix(11,0,0,11,467.6,663.5)" />
<use xlink:href="#f1_29" transform="matrix(11,0,0,11,477.5,663.5)" />
<use xlink:href="#f1_21" transform="matrix(11,0,0,11,493.3,663.5)" />
<use xlink:href="#f1_20" transform="matrix(11,0,0,11,507.6,663.5)" />
<use xlink:href="#f1_2b" transform="matrix(11,0,0,11,518.2,663.5)" />
<use xlink:href="#f1_29" transform="matrix(11,0,0,11,527.7,663.5)" />
<use xlink:href="#f1_1x" transform="matrix(11,0,0,11,543.4,663.5)" />
<use xlink:href="#f1_25" transform="matrix(11,0,0,11,553,663.5)" />
<use xlink:href="#f1_2a" transform="matrix(11,0,0,11,558.1,663.5)" />
<use xlink:href="#f1_2f" transform="matrix(11,0,0,11,574.6,663.5)" />
<use xlink:href="#f1_2h" transform="matrix(11,0,0,11,583.3,663.5)" />
<use xlink:href="#f1_1z" transform="matrix(11,0,0,11,594.7,663.5)" />
<use xlink:href="#f1_24" transform="matrix(11,0,0,11,603.5,663.5)" />
<use xlink:href="#f1_2g" transform="matrix(11,0,0,11,620,663.5)" />
<use xlink:href="#f1_24" transform="matrix(11,0,0,11,626.3,663.5)" />
<use xlink:href="#f1_1x" transform="matrix(11,0,0,11,637.3,663.5)" />
<use xlink:href="#f1_2g" transform="matrix(11,0,0,11,647.1,663.5)" />
<use xlink:href="#f2_22" transform="matrix(11,0,0,11,659.2,663.5)" />
<use xlink:href="#f2_c" transform="matrix(11,0,0,11,664.6,663.5)" />
<use xlink:href="#f2_2k" transform="matrix(11,0,0,11,669.8,663.5)" />
<use xlink:href="#f2_d" transform="matrix(11,0,0,11,679.3,663.5)" />
<use xlink:href="#f2_45" transform="matrix(11,0,0,11,689.9,663.5)" />
<use xlink:href="#f2_23" transform="matrix(11,0,0,11,704.5,663.5)" />
<use xlink:href="#f1_2n" transform="matrix(11,0,0,11,713.8,663.5)" />
<use xlink:href="#f1_2k" transform="matrix(11,0,0,11,718.9,663.5)" />
<use xlink:href="#f1_2o" transform="matrix(11,0,0,11,728.5,663.5)" />
<use xlink:href="#f1_22" transform="matrix(11,0,0,11,738.7,663.5)" />
<use xlink:href="#f1_2b" transform="matrix(11,0,0,11,744.2,663.5)" />
<use xlink:href="#f1_2e" transform="matrix(11,0,0,11,753.7,663.5)" />
<use xlink:href="#f1_1x" transform="matrix(11,0,0,11,766.5,663.5)" />
<use xlink:href="#f1_28" transform="matrix(11,0,0,11,776.4,663.5)" />
<use xlink:href="#f1_28" transform="matrix(11,0,0,11,781.2,663.5)" />
<use xlink:href="#f1_2k" transform="matrix(11,0,0,11,791.8,663.5)" />
<use xlink:href="#f1_25" transform="matrix(11,0,0,11,806.4,663.5)" />
<use xlink:href="#f1_2a" transform="matrix(11,0,0,11,811.5,663.5)" />
<use xlink:href="#f1_2g" transform="matrix(11,0,0,11,828,663.5)" />
<use xlink:href="#f1_24" transform="matrix(11,0,0,11,834.3,663.5)" />
<use xlink:href="#f1_21" transform="matrix(11,0,0,11,845.3,663.5)" />
<use xlink:href="#f1_20" transform="matrix(11,0,0,11,55,684.8)" />
<use xlink:href="#f1_2b" transform="matrix(11,0,0,11,65.6,684.8)" />
<use xlink:href="#f1_29" transform="matrix(11,0,0,11,75.2,684.8)" />
<use xlink:href="#f1_1x" transform="matrix(11,0,0,11,90.9,684.8)" />
<use xlink:href="#f1_25" transform="matrix(11,0,0,11,100.5,684.8)" />
<use xlink:href="#f1_2a" transform="matrix(11,0,0,11,105.6,684.8)" />
<use xlink:href="#f1_2b" transform="matrix(11,0,0,11,122,684.8)" />
<use xlink:href="#f1_22" transform="matrix(11,0,0,11,131.6,684.8)" />
<use xlink:href="#f1_20" transform="matrix(11,0,0,11,142.2,684.8)" />
<use xlink:href="#f1_21" transform="matrix(11,0,0,11,152.8,684.8)" />
<use xlink:href="#f1_22" transform="matrix(11,0,0,11,161.2,684.8)" />
<use xlink:href="#f1_25" transform="matrix(11,0,0,11,166.7,684.8)" />
<use xlink:href="#f1_2a" transform="matrix(11,0,0,11,171.8,684.8)" />
<use xlink:href="#f1_25" transform="matrix(11,0,0,11,182.8,684.8)" />
<use xlink:href="#f1_2g" transform="matrix(11,0,0,11,187.9,684.8)" />
<use xlink:href="#f1_25" transform="matrix(11,0,0,11,194.2,684.8)" />
<use xlink:href="#f1_2b" transform="matrix(11,0,0,11,199.3,684.8)" />
<use xlink:href="#f1_2a" transform="matrix(11,0,0,11,208.8,684.8)" />
<use xlink:href="#f1_g" transform="matrix(11,0,0,11,219.8,684.8)" />
<use xlink:href="#f1_2v" transform="matrix(11,0,0,11,55,750.4)" />
<use xlink:href="#f1_2b" transform="matrix(11,0,0,11,65.7,750.4)" />
<use xlink:href="#f1_2e" transform="matrix(11,0,0,11,75.2,750.4)" />
<use xlink:href="#f1_2f" transform="matrix(11,0,0,11,88,750.4)" />
<use xlink:href="#f1_2b" transform="matrix(11,0,0,11,96.8,750.4)" />
<use xlink:href="#f1_29" transform="matrix(11,0,0,11,106.3,750.4)" />
<use xlink:href="#f1_21" transform="matrix(11,0,0,11,122.1,750.4)" />
<use xlink:href="#f1_1x" transform="matrix(11,0,0,11,136,750.4)" />
<use xlink:href="#f1_g" transform="matrix(11,0,0,11,145.9,750.4)" />
<use xlink:href="#f1_25" transform="matrix(11,0,0,11,156.9,750.4)" />
<use xlink:href="#f1_22" transform="matrix(11,0,0,11,161.6,750.4)" />
<use xlink:href="#f1_1y" transform="matrix(11,0,0,11,172.2,750.4)" />
<use xlink:href="#f1_2b" transform="matrix(11,0,0,11,182.9,750.4)" />
<use xlink:href="#f1_2g" transform="matrix(11,0,0,11,192.4,750.4)" />
<use xlink:href="#f1_24" transform="matrix(11,0,0,11,198.6,750.4)" />
<use xlink:href="#f0_1k" transform="matrix(11,0,0,11,55,988.8)" />
<use xlink:href="#f0_31" transform="matrix(11,0,0,11,66.8,988.8)" />
<use xlink:href="#f0_21" transform="matrix(11,0,0,11,78.1,988.8)" />
<use xlink:href="#f0_2b" transform="matrix(11,0,0,11,88,988.8)" />
<use xlink:href="#f0_2e" transform="matrix(11,0,0,11,98.6,988.8)" />
<use xlink:href="#f0_21" transform="matrix(11,0,0,11,106.3,988.8)" />
<use xlink:href="#f0_29" transform="matrix(11,0,0,11,116.2,988.8)" />
<use xlink:href="#f0_2q" transform="matrix(11,0,0,11,138.6,988.8)" />
<use xlink:href="#f0_c" transform="matrix(11,0,0,11,155.4,988.8)" />
<use xlink:href="#f0_1j" transform="matrix(11,0,0,11,160.9,988.8)" />
<use xlink:href="#f0_1x" transform="matrix(11,0,0,11,171.9,988.8)" />
<use xlink:href="#f0_2a" transform="matrix(11,0,0,11,181.8,988.8)" />
<use xlink:href="#f0_20" transform="matrix(11,0,0,11,193.2,988.8)" />
<use xlink:href="#f0_2j" transform="matrix(11,0,0,11,203.8,988.8)" />
<use xlink:href="#f0_25" transform="matrix(11,0,0,11,217,988.8)" />
<use xlink:href="#f0_1z" transform="matrix(11,0,0,11,223.2,988.8)" />
<use xlink:href="#f0_31" transform="matrix(11,0,0,11,233.1,988.8)" />
<use xlink:href="#f0_1k" transform="matrix(11,0,0,11,250.3,988.8)" />
<use xlink:href="#f0_31" transform="matrix(11,0,0,11,262.1,988.8)" />
<use xlink:href="#f0_21" transform="matrix(11,0,0,11,273.1,988.8)" />
<use xlink:href="#f0_2b" transform="matrix(11,0,0,11,282.9,988.8)" />
<use xlink:href="#f0_2e" transform="matrix(11,0,0,11,293.5,988.8)" />
<use xlink:href="#f0_21" transform="matrix(11,0,0,11,301.3,988.8)" />
<use xlink:href="#f0_29" transform="matrix(11,0,0,11,310.8,988.8)" />
<use xlink:href="#f0_d" transform="matrix(11,0,0,11,327.7,988.8)" />
<use xlink:href="#f1_2y" transform="matrix(11,0,0,11,55,1022.6)" />
<use xlink:href="#f1_21" transform="matrix(11,0,0,11,65.3,1022.6)" />
<use xlink:href="#f1_2g" transform="matrix(11,0,0,11,74.1,1022.6)" />
<use xlink:href="#f1_22" transform="matrix(11,0,0,11,88,1022.6)" />
<use xlink:href="#f1_g" transform="matrix(11,0,0,11,93.5,1022.6)" />
<use xlink:href="#f1_23" transform="matrix(11,0,0,11,106.7,1022.6)" />
<use xlink:href="#f1_1x" transform="matrix(11,0,0,11,123.2,1022.6)" />
<use xlink:href="#f1_2a" transform="matrix(11,0,0,11,133,1022.6)" />
<use xlink:href="#f1_20" transform="matrix(11,0,0,11,144.1,1022.6)" />
<use xlink:href="#f1_24" transform="matrix(11,0,0,11,162.4,1022.6)" />
<use xlink:href="#f1_1y" transform="matrix(11,0,0,11,180.8,1022.6)" />
<use xlink:href="#f1_21" transform="matrix(11,0,0,11,191.4,1022.6)" />
<use xlink:href="#f1_2e" transform="matrix(11,0,0,11,207.8,1022.6)" />
<use xlink:href="#f1_21" transform="matrix(11,0,0,11,215.2,1022.6)" />
<use xlink:href="#f1_1x" transform="matrix(11,0,0,11,223.6,1022.6)" />
<use xlink:href="#f1_28" transform="matrix(11,0,0,11,233.5,1022.6)" />
<use xlink:href="#f1_22" transform="matrix(11,0,0,11,246.3,1022.6)" />
<use xlink:href="#f1_2h" transform="matrix(11,0,0,11,251.8,1022.6)" />
<use xlink:href="#f1_2a" transform="matrix(11,0,0,11,263.1,1022.6)" />
<use xlink:href="#f1_1z" transform="matrix(11,0,0,11,274.1,1022.6)" />
<use xlink:href="#f1_2g" transform="matrix(11,0,0,11,282.9,1022.6)" />
<use xlink:href="#f1_25" transform="matrix(11,0,0,11,289.2,1022.6)" />
<use xlink:href="#f1_2b" transform="matrix(11,0,0,11,294.3,1022.6)" />
<use xlink:href="#f1_2a" transform="matrix(11,0,0,11,303.8,1022.6)" />
<use xlink:href="#f1_2f" transform="matrix(11,0,0,11,314.8,1022.6)" />
<use xlink:href="#f1_2f" transform="matrix(11,0,0,11,330.9,1022.6)" />
<use xlink:href="#f1_2h" transform="matrix(11,0,0,11,339.7,1022.6)" />
<use xlink:href="#f1_1z" transform="matrix(11,0,0,11,351.1,1022.6)" />
<use xlink:href="#f1_24" transform="matrix(11,0,0,11,359.9,1022.6)" />
<use xlink:href="#f1_2g" transform="matrix(11,0,0,11,378.6,1022.6)" />
<use xlink:href="#f1_24" transform="matrix(11,0,0,11,384.8,1022.6)" />
<use xlink:href="#f1_1x" transform="matrix(11,0,0,11,395.8,1022.6)" />
<use xlink:href="#f1_2g" transform="matrix(11,0,0,11,405.7,1022.6)" />
<use xlink:href="#f2_22" transform="matrix(11,0,0,11,420,1022.6)" />
<use xlink:href="#f2_c" transform="matrix(11,0,0,11,425.5,1022.6)" />
<use xlink:href="#f2_2k" transform="matrix(11,0,0,11,430.2,1022.6)" />
<use xlink:href="#f2_d" transform="matrix(11,0,0,11,439.8,1022.6)" />
<use xlink:href="#f2_45" transform="matrix(11,0,0,11,452.6,1022.6)" />
<use xlink:href="#f2_23" transform="matrix(11,0,0,11,469.4,1022.6)" />
<use xlink:href="#f1_2n" transform="matrix(11,0,0,11,478.7,1022.6)" />
<use xlink:href="#f1_2k" transform="matrix(11,0,0,11,483.5,1022.6)" />
<use xlink:href="#f2_d" transform="matrix(11,0,0,11,493,1022.6)" />
<use xlink:href="#f2_45" transform="matrix(11,0,0,11,505.8,1022.6)" />
<use xlink:href="#f2_24" transform="matrix(11,0,0,11,522.6,1022.6)" />
<use xlink:href="#f2_c" transform="matrix(11,0,0,11,533.6,1022.6)" />
<use xlink:href="#f2_2k" transform="matrix(11,0,0,11,538.7,1022.6)" />
<use xlink:href="#f2_d" transform="matrix(11,0,0,11,547.9,1022.6)" />
<use xlink:href="#f2_22" transform="matrix(11,0,0,11,560.7,1022.6)" />
<use xlink:href="#f2_2b" transform="matrix(11,0,0,11,566.2,1022.6)" />
<use xlink:href="#f2_2e" transform="matrix(11,0,0,11,575.7,1022.6)" />
<use xlink:href="#f2_1x" transform="matrix(11,0,0,11,590.4,1022.6)" />
<use xlink:href="#f2_28" transform="matrix(11,0,0,11,600.2,1022.6)" />
<use xlink:href="#f2_28" transform="matrix(11,0,0,11,605.3,1022.6)" />
<use xlink:href="#f2_2k" transform="matrix(11,0,0,11,617.8,1022.6)" />
<use xlink:href="#f2_25" transform="matrix(11,0,0,11,635,1022.6)" />
<use xlink:href="#f2_2a" transform="matrix(11,0,0,11,640.1,1022.6)" />
<use xlink:href="#f2_2g" transform="matrix(11,0,0,11,658.8,1022.6)" />
<use xlink:href="#f2_24" transform="matrix(11,0,0,11,665,1022.6)" />
<use xlink:href="#f2_21" transform="matrix(11,0,0,11,676,1022.6)" />
<use xlink:href="#f2_1z" transform="matrix(11,0,0,11,692.5,1022.6)" />
<use xlink:href="#f2_2b" transform="matrix(11,0,0,11,701.3,1022.6)" />
<use xlink:href="#f2_29" transform="matrix(11,0,0,11,710.8,1022.6)" />
<use xlink:href="#f2_29" transform="matrix(11,0,0,11,726.6,1022.6)" />
<use xlink:href="#f2_2b" transform="matrix(11,0,0,11,742.4,1022.6)" />
<use xlink:href="#f2_2a" transform="matrix(11,0,0,11,751.9,1022.6)" />
<use xlink:href="#f2_20" transform="matrix(11,0,0,11,770.2,1022.6)" />
<use xlink:href="#f2_2b" transform="matrix(11,0,0,11,780.8,1022.6)" />
<use xlink:href="#f2_29" transform="matrix(11,0,0,11,790,1022.6)" />
<use xlink:href="#f2_1x" transform="matrix(11,0,0,11,805.7,1022.6)" />
<use xlink:href="#f2_25" transform="matrix(11,0,0,11,815.6,1022.6)" />
<use xlink:href="#f2_2a" transform="matrix(11,0,0,11,820.7,1022.6)" />
<use xlink:href="#f2_2b" transform="matrix(11,0,0,11,839.4,1022.6)" />
<use xlink:href="#f2_22" transform="matrix(11,0,0,11,848.9,1022.6)" />
<use xlink:href="#f1_20" transform="matrix(11,0,0,11,55,1043.8)" />
<use xlink:href="#f1_21" transform="matrix(11,0,0,11,65.6,1043.8)" />
<use xlink:href="#f1_22" transform="matrix(11,0,0,11,74.4,1043.8)" />
<use xlink:href="#f1_25" transform="matrix(11,0,0,11,79.9,1043.8)" />
<use xlink:href="#f1_2a" transform="matrix(11,0,0,11,85,1043.8)" />
<use xlink:href="#f1_25" transform="matrix(11,0,0,11,96,1043.8)" />
<use xlink:href="#f1_2g" transform="matrix(11,0,0,11,101.2,1043.8)" />
<use xlink:href="#f1_25" transform="matrix(11,0,0,11,107.4,1043.8)" />
<use xlink:href="#f1_2b" transform="matrix(11,0,0,11,112.2,1043.8)" />
<use xlink:href="#f1_2a" transform="matrix(11,0,0,11,121.7,1043.8)" />
<use xlink:href="#f1_i" transform="matrix(11,0,0,11,132.7,1043.8)" />
<use xlink:href="#f1_2v" transform="matrix(11,0,0,11,55,1099.2)" />
<use xlink:href="#f1_2b" transform="matrix(11,0,0,11,65.7,1099.2)" />
<use xlink:href="#f1_2e" transform="matrix(11,0,0,11,75.2,1099.2)" />
<use xlink:href="#f1_2f" transform="matrix(11,0,0,11,88,1099.2)" />
<use xlink:href="#f1_2b" transform="matrix(11,0,0,11,96.8,1099.2)" />
<use xlink:href="#f1_29" transform="matrix(11,0,0,11,106.3,1099.2)" />
<use xlink:href="#f1_21" transform="matrix(11,0,0,11,122.1,1099.2)" />
<use xlink:href="#f1_2e" transform="matrix(11,0,0,11,136.4,1099.2)" />
<use xlink:href="#f1_21" transform="matrix(11,0,0,11,143.7,1099.2)" />
<use xlink:href="#f1_1x" transform="matrix(11,0,0,11,152.1,1099.2)" />
<use xlink:href="#f1_28" transform="matrix(11,0,0,11,162,1099.2)" />
<use xlink:href="#f1_2a" transform="matrix(11,0,0,11,172.6,1099.2)" />
<use xlink:href="#f1_2h" transform="matrix(11,0,0,11,183.6,1099.2)" />
<use xlink:href="#f1_29" transform="matrix(11,0,0,11,195,1099.2)" />
<use xlink:href="#f1_1y" transform="matrix(11,0,0,11,210.7,1099.2)" />
<use xlink:href="#f1_21" transform="matrix(11,0,0,11,221.4,1099.2)" />
<use xlink:href="#f1_2e" transform="matrix(11,0,0,11,230.1,1099.2)" />
</g>
<image preserveAspectRatio="none" x="55" y="95" width="179" height="66" xlink:href="img/1.png" />
<image preserveAspectRatio="none" x="55" y="242" width="460" height="235" xlink:href="img/2.png" />
<image preserveAspectRatio="none" x="215" y="707" width="122" height="43" xlink:href="img/3.png" />
<image preserveAspectRatio="none" x="343" y="702" width="351" height="48" xlink:href="img/4.png" />
<image preserveAspectRatio="none" x="55" y="768" width="260" height="191" xlink:href="img/5.png" />
<image preserveAspectRatio="none" x="243" y="1061" width="351" height="38" xlink:href="img/6.png" />
<path fill-rule="evenodd" d="M37.4,38.1h.7v-.7h-.7v.7Z" class="g0_66" />
<path fill-rule="evenodd" d="M37.4,38.1h.7v-.7h-.7v.7Z" class="g0_66" />
<path fill-rule="evenodd" d="M871.5,38.1h.8v-.7h-.8v.7Z" class="g0_66" />
<path fill-rule="evenodd" d="M871.5,38.1h.8v-.7h-.8v.7Z" class="g0_66" />
<path fill-rule="evenodd" d="M872.3,1248.5h.7V38.1h-.7V1248.5Z" class="g1_66" />
<path fill-rule="evenodd" d="M37.4,1249.2h.7v-.7h-.7v.7Z" class="g0_66" />
<path fill-rule="evenodd" d="M37.4,1249.2h.7v-.7h-.7v.7Z" class="g0_66" />
<path fill-rule="evenodd" d="M38.1,1249.9H871.5v-.7H38.1v.7Z" class="g1_66" />
<path fill-rule="evenodd" d="M872.3,1249.9h.7v-1.4h-.7v1.4Z" class="g1_66" />
<path fill-rule="evenodd" d="M871.5,1249.9H873v-.7h-1.5v.7Z" class="g1_66" />
<path fill-rule="evenodd" d="M871.5,1249.2h.8v-.7h-.8v.7Z" class="g0_66" />
<path fill-rule="evenodd" d="M871.5,1249.2h.8v-.7h-.8v.7Z" class="g0_66" />
<g fill="#000000" >
<use xlink:href="#f3_n" transform="matrix(8,0,0,8,792.5,1225.6)" />
</g>
<defs>
<path d="M532,575c0,0,81,0,119,17c0,0,38,16,61,51c0,0,23,35,23,83c0,0,0,71,-55,113c0,0,-41,31,-121,31H443V575ZM61,0V144H96c0,0,46,0,61,6c0,0,15,7,22,22c0,0,7,14,7,60V804c0,0,0,48,-6,63c0,0,-6,15,-19,23c0,0,-13,7,-50,7H61v143H611c0,0,104,0,173,-21c0,0,69,-21,119,-64c0,0,49,-44,76,-103c0,0,27,-59,27,-126c0,0,0,-133,-102,-223c0,0,-103,-90,-284,-90H443V218c0,0,0,-37,5,-47c0,0,7,-14,21,-21c0,0,13,-6,46,-6h53V0Z" 
id="f0_1g"
transform="scale(0.001,-0.001)" />

<path d="M65,0V144h38c0,0,41,0,51,4c0,0,10,5,16,16c0,0,5,11,5,50V556H65L64,699c0,0,122,8,253,63h70V654c0,0,60,62,104,85c0,0,44,23,84,23c0,0,37,0,66,-17c0,0,28,-17,45,-48c0,0,17,-32,17,-67c0,0,0,-47,-31,-85c0,0,-31,-38,-87,-38c0,0,-15,0,-27,2c0,0,-11,2,-49,15c0,0,-19,6,-32,6c0,0,-19,0,-64,-25V214c0,0,0,-37,5,-49c0,0,6,-11,18,-16c0,0,13,-5,55,-5h33V0Z" 
id="f0_2e"
transform="scale(0.001,-0.001)" />

<path d="M469,144c0,0,66,0,113,55c0,0,47,56,47,172c0,0,0,114,-44,170c0,0,-43,57,-111,57c0,0,-43,0,-80,-25c0,0,-37,-25,-58,-74c0,0,-20,-49,-20,-125c0,0,0,-78,20,-130c0,0,20,-51,55,-76c0,0,36,-24,78,-24Zm5,-161c0,0,-193,0,-307,109C167,92,57,196,57,374c0,0,0,117,50,201c0,0,50,85,146,136c0,0,95,51,218,51c0,0,127,0,222,-50c0,0,95,-50,146,-136c0,0,51,-86,51,-202c0,0,0,-174,-113,-283C777,91,663,-17,474,-17Z" 
id="f0_2b"
transform="scale(0.001,-0.001)" />

<path d="M61,0V144H97c0,0,45,0,55,4c0,0,9,5,14,16c0,0,5,12,5,57V587H61V744H171v78c0,0,0,83,29,133c0,0,35,62,111,101c0,0,76,39,182,39c0,0,112,0,175,-47c0,0,63,-48,63,-105c0,0,0,-46,-28,-74c0,0,-29,-29,-76,-29c0,0,-19,0,-36,6c0,0,-18,5,-33,16c0,0,-12,8,-39,38c0,0,-25,28,-34,33c0,0,-11,7,-21,7c0,0,-26,0,-41,-24c0,0,-14,-24,-14,-94V744H530V587H409V221c0,0,0,-44,3,-53c0,0,6,-12,18,-18c0,0,11,-6,49,-6h41V0Z" 
id="f0_22"
transform="scale(0.001,-0.001)" />

<path d="M59,0V144h44c0,0,37,0,51,6c0,0,14,6,22,22c0,0,8,16,8,47V816c0,0,0,34,-8,50c0,0,-7,16,-20,24c0,0,-12,7,-42,7H59v143H480L786,433V805c0,0,0,48,-5,60c0,0,-8,17,-20,25c0,0,-13,7,-49,7H661v143h428V897h-47c0,0,-36,0,-51,-9c0,0,-15,-8,-21,-22c0,0,-6,-14,-6,-61V0H750L364,767V230c0,0,0,-46,5,-59c0,0,6,-12,20,-20c0,0,15,-7,50,-7h50V0Z" 
id="f0_2y"
transform="scale(0.001,-0.001)" />

<path d="M435,-11c0,0,-70,0,-123,17c0,0,-53,17,-91,50c0,0,-37,32,-52,69c0,0,-15,36,-15,105V585H43V728c0,0,60,20,102,56c0,0,42,36,68,87c0,0,26,51,35,129H392V744H633V585H392V326c0,0,0,-88,9,-113c0,0,10,-25,35,-39c0,0,34,-20,77,-20c0,0,77,0,153,49V44C666,44,601,13,548,1c0,0,-52,-12,-113,-12Z" 
id="f0_2g"
transform="scale(0.001,-0.001)" />

<path d="M583,491c0,0,-5,45,-22,71c0,0,-16,25,-43,41c0,0,-27,15,-57,15c0,0,-32,0,-61,-16c0,0,-29,-15,-47,-42c0,0,-17,-27,-23,-69ZM457,-17c0,0,-170,0,-286,115C171,98,55,213,55,376c0,0,0,107,52,196c0,0,52,89,145,139c0,0,92,51,209,51c0,0,75,0,136,-22c0,0,61,-22,107,-62c0,0,46,-40,73,-97c0,0,28,-57,39,-118c0,0,4,-31,4,-97H319c0,0,1,-95,55,-153c0,0,54,-58,133,-58c0,0,50,0,109,30c0,0,58,30,116,91L834,173C834,173,746,73,655,27c0,0,-92,-44,-198,-44Z" 
id="f0_21"
transform="scale(0.001,-0.001)" />

<path d="M261,-11c0,0,-58,0,-99,40c0,0,-41,41,-41,98c0,0,0,58,41,98c0,0,41,41,99,41c0,0,57,0,98,-41c0,0,41,-40,41,-98c0,0,0,-57,-41,-98c0,0,-41,-40,-98,-40Zm-1,493c0,0,-57,0,-98,41c0,0,-41,41,-41,99c0,0,0,57,42,98c0,0,41,42,98,42c0,0,57,0,98,-41c0,0,41,-41,41,-99c0,0,0,-58,-41,-99c0,0,-41,-41,-99,-41Z" 
id="f0_2u"
transform="scale(0.001,-0.001)" />

<path d="M274,0V63c0,0,66,0,81,4c0,0,26,8,38,29c0,0,11,21,11,77V910c0,0,0,34,-4,41c0,0,-3,8,-12,12c0,0,-9,4,-39,4c0,0,-81,0,-130,-21c0,0,-48,-21,-91,-70c0,0,-44,-50,-74,-130l-67,24L94,1076h52l7,-36H792l6,36h55L962,770L895,746c0,0,-49,122,-115,172c0,0,-66,49,-170,49c0,0,-43,0,-51,-3c0,0,-9,-4,-12,-12c0,0,-3,-8,-3,-52V178c0,0,0,-51,5,-69c0,0,6,-18,16,-28c0,0,11,-9,29,-14c0,0,18,-4,82,-4V0Z" 
id="f1_1k"
transform="scale(0.001,-0.001)" />

<path d="M56,0V63H79c0,0,54,0,79,13c0,0,13,7,19,26c0,0,6,19,6,107V967H56v65c0,0,72,9,112,22c0,0,40,13,84,40h58V601c0,0,84,71,160,103c0,0,75,33,144,33c0,0,100,0,166,-59c0,0,64,-60,64,-146V166c0,0,0,-54,8,-71c0,0,9,-17,29,-25c0,0,20,-7,90,-7V0H586V63h28c0,0,55,0,72,8c0,0,17,9,25,28c0,0,8,20,8,82V435c0,0,0,85,-6,110c0,0,-12,43,-47,69c0,0,-35,26,-89,26c0,0,-62,0,-128,-30c0,0,-67,-30,-139,-90V147c0,0,0,-42,7,-57c0,0,8,-14,25,-21c0,0,17,-6,68,-6h31V0Z" 
id="f1_24"
transform="scale(0.001,-0.001)" />

<path d="M598,494c0,0,-11,68,-31,101c0,0,-21,33,-58,52c0,0,-38,20,-85,20c0,0,-47,0,-88,-20c0,0,-41,-19,-68,-53c0,0,-27,-35,-47,-100ZM433,-17c0,0,-110,0,-187,44c0,0,-88,52,-135,134c0,0,-46,83,-46,195c0,0,0,118,45,202c0,0,45,83,127,131c0,0,82,48,189,48c0,0,80,0,139,-25c0,0,59,-25,100,-75c0,0,41,-50,59,-115c0,0,11,-37,12,-98H210c0,0,-3,-36,-3,-54c0,0,0,-94,33,-168c0,0,33,-73,87,-108c0,0,54,-34,122,-34c0,0,58,0,113,27c0,0,54,27,131,106l48,-39C741,154,687,89,636,51c0,0,-51,-38,-97,-52c0,0,-45,-16,-106,-16Z" 
id="f1_21"
transform="scale(0.001,-0.001)" />

<path d="M0,0V62c0,0,36,0,56,8c0,0,21,7,41,22c0,0,33,27,48,43L365,360L178,573c0,0,-35,40,-56,56c0,0,-20,16,-40,23c0,0,-19,6,-54,6v62H403V658H377c0,0,-22,0,-41,-5c0,0,-11,-3,-18,-12c0,0,-7,-8,-7,-16c0,0,0,-17,28,-52L446,439L570,573c0,0,34,37,34,56c0,0,0,14,-12,21c0,0,-12,8,-51,8H513v62H831V658c0,0,-47,-2,-81,-20c0,0,-34,-17,-80,-66L499,396L711,153l9,-11c0,0,31,-40,70,-65c0,0,21,-15,67,-15V0H491V62h31c0,0,36,0,46,4c0,0,16,8,16,26c0,0,0,16,-36,61L413,318L262,153L247,135l-9,-9c0,0,-18,-21,-18,-37c0,0,0,-14,11,-21c0,0,12,-6,52,-6h29V0Z" 
id="f1_2k"
transform="scale(0.001,-0.001)" />

<path d="M504,63c0,0,97,0,168,73c0,0,71,73,71,221c0,0,0,138,-59,214c0,0,-59,75,-139,75c0,0,-52,0,-114,-27c0,0,-61,-28,-131,-83V280c0,0,0,-51,6,-75c0,0,9,-38,35,-69c0,0,26,-30,70,-52c0,0,44,-21,93,-21ZM48,-331v62H81c0,0,52,0,67,8c0,0,15,8,23,24c0,0,4,13,4,78V613H48v62c0,0,56,0,99,14c0,0,43,14,94,48h59V613c0,0,93,74,155,99c0,0,62,25,124,25c0,0,128,0,218,-100c0,0,90,-99,90,-260c0,0,0,-177,-102,-290C785,87,691,-17,544,-17c0,0,-73,0,-137,27c0,0,-46,20,-107,70V-165c0,0,0,-55,3,-65c0,0,4,-14,15,-24c0,0,11,-10,28,-13c0,0,13,-2,85,-2v-62Z" 
id="f1_2c"
transform="scale(0.001,-0.001)" />

<path d="M54,0V63H86c0,0,45,0,60,8c0,0,19,11,28,31c0,0,10,20,10,71V613H55v62c0,0,54,4,97,18c0,0,42,13,96,44h56V596c0,0,53,65,123,103c0,0,70,38,126,38c0,0,56,0,88,-26c0,0,32,-26,32,-63c0,0,0,-27,-22,-48c0,0,-21,-20,-51,-20c0,0,-13,0,-23,4c0,0,-10,3,-28,16c0,0,-41,27,-69,27c0,0,-37,0,-82,-32c0,0,-57,-40,-89,-79V173c0,0,0,-45,5,-61c0,0,5,-16,16,-27c0,0,11,-12,28,-17c0,0,16,-5,57,-5h25V0Z" 
id="f1_2e"
transform="scale(0.001,-0.001)" />

<path d="M450,-17c0,0,-126,0,-215,71L219,0H166L73,244l68,27c0,0,68,-107,128,-152c0,0,84,-63,182,-63c0,0,65,0,107,34c0,0,41,35,41,77c0,0,0,35,-26,64c0,0,-27,29,-103,56L298,349c0,0,-111,40,-154,88c0,0,-43,48,-43,110c0,0,0,75,70,133c0,0,71,57,180,57c0,0,56,0,101,-14c0,0,45,-15,88,-48l20,45h53L680,492L612,469c0,0,-40,92,-113,144c0,0,-73,53,-147,53c0,0,-58,0,-93,-28c0,0,-36,-28,-36,-65c0,0,0,-34,26,-58c0,0,25,-26,114,-58L509,406c0,0,123,-44,168,-94c0,0,44,-51,44,-115c0,0,0,-54,-33,-105c0,0,-33,-50,-95,-80c0,0,-63,-29,-143,-29Z" 
id="f1_2f"
transform="scale(0.001,-0.001)" />

<path d="M49,0V63H79c0,0,50,0,68,9c0,0,17,9,24,25c0,0,7,16,7,77V613H49v62c0,0,62,7,104,20c0,0,42,14,96,42h54V140c0,0,0,-32,9,-47c0,0,9,-16,25,-23c0,0,16,-7,58,-7h35V0ZM238,903c0,0,-36,0,-61,25c0,0,-25,25,-25,61c0,0,0,36,25,61c0,0,25,25,61,25c0,0,36,0,61,-25c0,0,26,-25,26,-61c0,0,0,-36,-26,-61c0,0,-25,-25,-61,-25Z" 
id="f1_25"
transform="scale(0.001,-0.001)" />

<path d="M427,50c0,0,63,0,113,33c0,0,49,34,80,107c0,0,30,74,30,173c0,0,0,96,-32,173c0,0,-26,61,-77,95c0,0,-51,34,-115,34c0,0,-85,0,-143,-67c0,0,-75,-84,-75,-243c0,0,0,-153,64,-234c0,0,57,-71,155,-71Zm-4,-67c0,0,-180,0,-271,112c0,0,-90,112,-90,264c0,0,0,111,47,198c0,0,46,86,131,133c0,0,85,47,192,47c0,0,109,0,190,-45c0,0,80,-46,126,-133c0,0,46,-87,46,-199c0,0,0,-112,-47,-199C747,161,699,74,618,28c0,0,-82,-45,-195,-45Z" 
id="f1_2b"
transform="scale(0.001,-0.001)" />

<path d="M56,0V63H74c0,0,56,0,76,9c0,0,20,9,28,33c0,0,5,12,5,83V613H56v62c0,0,66,7,99,18c0,0,33,10,94,44h54V595c0,0,98,83,168,113c0,0,70,29,141,29c0,0,61,0,108,-20c0,0,47,-21,77,-56c0,0,29,-35,39,-80c0,0,6,-27,6,-83V170c0,0,0,-59,8,-76c0,0,9,-16,28,-24c0,0,18,-7,91,-7V0H586V63h21c0,0,54,0,73,9c0,0,19,10,28,29c0,0,9,18,9,76V451c0,0,0,85,-14,118c0,0,-14,32,-47,53c0,0,-33,20,-84,20c0,0,-61,0,-129,-31c0,0,-69,-30,-133,-91V177c0,0,0,-58,9,-78c0,0,8,-19,28,-29c0,0,13,-7,71,-7h22V0Z" 
id="f1_2a"
transform="scale(0.001,-0.001)" />

<path d="M362,-17c0,0,-57,0,-103,25c0,0,-45,25,-62,59c0,0,-17,35,-17,120V645H49v63c0,0,63,14,102,44c0,0,38,29,62,77c0,0,24,48,39,144h53V720H527V645H305V196c0,0,0,-58,10,-82c0,0,10,-25,34,-41c0,0,25,-15,55,-15c0,0,70,0,156,63V49c0,0,-98,-66,-198,-66Z" 
id="f1_2g"
transform="scale(0.001,-0.001)" />

<path d="M326,73c0,0,48,0,109,23c0,0,62,24,157,91l1,180c0,0,-173,-26,-215,-35c0,0,-81,-19,-116,-41c0,0,-36,-23,-51,-48c0,0,-14,-26,-14,-55c0,0,0,-29,16,-56c0,0,17,-27,48,-43c0,0,30,-16,65,-16ZM291,-12c0,0,-103,0,-167,55c0,0,-64,56,-64,131c0,0,0,46,23,87c0,0,24,41,72,72c0,0,48,31,151,55c0,0,104,24,287,43v82c0,0,0,83,-47,118c0,0,-46,36,-131,36c0,0,-42,0,-73,-10c0,0,-31,-10,-51,-28c0,0,-19,-18,-28,-40c0,0,-3,-8,-18,-64c0,0,-17,-67,-69,-67c0,0,-30,0,-48,19c0,0,-18,20,-18,54c0,0,0,49,36,97c0,0,37,47,112,78c0,0,75,31,177,31c0,0,95,0,163,-29c0,0,68,-30,100,-85c0,0,23,-38,23,-138V198c0,0,0,-61,3,-79c0,0,9,-32,29,-48c0,0,21,-16,54,-16c0,0,34,0,82,15V5c0,0,-62,-17,-111,-17c0,0,-53,0,-89,14c0,0,-37,15,-60,44c0,0,-23,29,-30,68c0,0,-89,-70,-162,-98c0,0,-72,-28,-146,-28Z" 
id="f1_1x"
transform="scale(0.001,-0.001)" />

<path d="M499,66c0,0,67,0,121,34c0,0,55,35,86,104c0,0,31,68,31,164c0,0,0,135,-66,216c0,0,-53,67,-148,67c0,0,-50,0,-100,-18c0,0,-51,-18,-128,-68V278c0,0,0,-67,10,-95c0,0,10,-27,40,-55c0,0,30,-29,71,-46c0,0,40,-16,83,-16Zm37,-83c0,0,-87,0,-156,36c0,0,-51,27,-98,83L241,0H171V970H42v62c0,0,49,3,96,17c0,0,46,15,103,45h54V639c0,0,66,49,135,74c0,0,69,24,142,24c0,0,83,0,154,-44c0,0,71,-45,111,-127c0,0,41,-81,41,-192c0,0,0,-175,-102,-287C776,87,681,-17,536,-17Z" 
id="f1_1y"
transform="scale(0.001,-0.001)" />

<path d="M350,0L112,569c0,0,-15,35,-33,58c0,0,-12,14,-31,22c0,0,-20,8,-46,8v63H342V657H322c0,0,-43,0,-53,-3c0,0,-15,-4,-23,-14c0,0,-7,-10,-7,-23c0,0,0,-19,16,-60L425,132L590,557c0,0,15,40,15,59c0,0,0,19,-15,30c0,0,-15,11,-53,11H501v63H795V657c0,0,-30,-1,-51,-10c0,0,-20,-9,-32,-23c0,0,-11,-14,-34,-67L441,0Z" 
id="f1_2i"
transform="scale(0.001,-0.001)" />

<path d="M55,0V63H75c0,0,51,0,67,8c0,0,24,11,34,36c0,0,6,13,6,69V611H53v64c0,0,56,5,98,18c0,0,42,13,96,44h55V612c0,0,85,67,133,90c0,0,73,35,139,35c0,0,46,0,90,-16c0,0,43,-17,70,-42c0,0,26,-24,45,-67c0,0,78,70,145,97c0,0,67,28,135,28c0,0,66,0,116,-27c0,0,51,-27,73,-68c0,0,23,-41,23,-120V176c0,0,0,-54,2,-63c0,0,4,-15,16,-27c0,0,12,-13,28,-18c0,0,15,-5,58,-5h23V0H1025V63c0,0,64,0,83,9c0,0,19,8,29,28c0,0,9,19,9,76V505c0,0,0,62,-11,86c0,0,-11,24,-40,40c0,0,-29,16,-72,16c0,0,-53,0,-111,-28c0,0,-78,-39,-123,-87V176c0,0,0,-52,5,-68c0,0,5,-16,16,-26c0,0,12,-11,27,-15c0,0,15,-4,74,-4V0H545V63h21c0,0,44,0,62,10c0,0,18,10,28,32c0,0,8,17,8,71V494c0,0,0,70,-11,94c0,0,-11,25,-41,42c0,0,-31,17,-72,17c0,0,-49,0,-98,-24c0,0,-74,-35,-135,-91V149c0,0,0,-35,9,-51c0,0,10,-16,30,-26c0,0,20,-9,55,-9h27V0Z" 
id="f1_29"
transform="scale(0.001,-0.001)" />

<path d="M51,0V63H74c0,0,59,0,75,7c0,0,16,8,23,24c0,0,7,17,6,77V643H51v77H178V832c0,0,0,115,76,189c0,0,77,73,200,73c0,0,82,0,128,-34c0,0,46,-34,46,-75c0,0,0,-26,-19,-45c0,0,-18,-18,-45,-18c0,0,-25,0,-43,9c0,0,-18,9,-55,45c0,0,-39,37,-75,37c0,0,-25,0,-45,-15c0,0,-19,-16,-30,-45c0,0,-11,-30,-11,-91V720H445V643H305V159c0,0,0,-50,8,-66c0,0,7,-17,22,-24c0,0,15,-6,69,-6h31V0Z" 
id="f1_22"
transform="scale(0.001,-0.001)" />

<path d="M48,0V63H87c0,0,36,0,54,11c0,0,18,11,26,30c0,0,8,19,8,77V970H48v62c0,0,101,7,197,62h55V176c0,0,0,-58,8,-73c0,0,9,-21,28,-31c0,0,19,-9,71,-9h24V0Z" 
id="f1_28"
transform="scale(0.001,-0.001)" />

<path d="M414,-17c0,0,-58,0,-101,16c0,0,-43,15,-75,46c0,0,-33,31,-50,76c0,0,-17,44,-17,94V554c0,0,0,46,-8,64c0,0,-8,18,-27,29c0,0,-19,11,-52,11H16v63l282,10V251c0,0,0,-63,18,-100c0,0,17,-38,53,-58c0,0,37,-21,85,-21c0,0,60,0,135,32c0,0,76,32,151,96V548c0,0,0,55,-8,72c0,0,-8,17,-29,28c0,0,-21,10,-66,10H583v63l282,10V175c0,0,0,-54,9,-75c0,0,9,-20,27,-29c0,0,17,-8,70,-8h23V0L747,-12V126C747,126,645,44,569,13c0,0,-76,-30,-155,-30Z" 
id="f1_2h"
transform="scale(0.001,-0.001)" />

<path d="M137,-342c0,0,-77,0,-123,35c0,0,-38,30,-38,75c0,0,0,27,17,46c0,0,16,18,39,18c0,0,18,0,33,-8c0,0,10,-3,41,-31c0,0,37,-33,52,-41c0,0,15,-7,30,-7c0,0,31,0,61,21c0,0,29,21,50,59c0,0,30,54,49,102L379,0L133,551c0,0,-26,58,-44,78c0,0,-18,21,-36,25c0,0,-10,3,-60,3v63H354V657H324c0,0,-43,0,-51,-2c0,0,-10,-3,-16,-13c0,0,-7,-9,-7,-23c0,0,0,-20,20,-68L444,145L604,533c0,0,29,69,29,91c0,0,0,17,-13,25c0,0,-13,8,-58,8H527v63H832V657H815c0,0,-45,0,-59,-6c0,0,-13,-6,-26,-24c0,0,-12,-18,-40,-83L416,-92c0,0,-30,-69,-66,-128c0,0,-36,-58,-92,-90c0,0,-55,-32,-121,-32Z" 
id="f1_2l"
transform="scale(0.001,-0.001)" />

<path d="M410,69c0,0,50,0,114,29c0,0,63,29,121,83V462c0,0,0,61,-22,99c0,0,-23,38,-75,67c0,0,-52,28,-106,28c0,0,-65,0,-120,-35c0,0,-55,-36,-86,-102c0,0,-31,-67,-31,-162c0,0,0,-89,29,-155c0,0,29,-65,77,-99c0,0,49,-34,99,-34ZM375,-17c0,0,-135,0,-224,108c0,0,-89,108,-89,261c0,0,0,109,47,199c0,0,47,91,125,139c0,0,77,47,170,47c0,0,71,0,131,-24c0,0,60,-25,110,-74V968H520v64c0,0,51,4,93,17c0,0,42,13,105,45h56V190c0,0,0,-63,3,-77c0,0,8,-28,26,-39c0,0,18,-11,69,-11h32V0L645,-11V107c0,0,-74,-68,-139,-96c0,0,-66,-28,-131,-28Z" 
id="f1_20"
transform="scale(0.001,-0.001)" />

<path d="M244,-12c0,0,-38,0,-66,27c0,0,-27,27,-27,66c0,0,0,39,27,66c0,0,27,27,66,27c0,0,40,0,67,-27c0,0,27,-27,27,-66c0,0,0,-39,-27,-66c0,0,-28,-27,-67,-27Z" 
id="f1_i"
transform="scale(0.001,-0.001)" />

<path d="M63,0V144h49c0,0,31,0,46,8c0,0,16,8,23,22c0,0,7,14,7,48V812c0,0,0,37,-7,53c0,0,-7,17,-20,24c0,0,-13,8,-44,8H63v143H570V897H526c0,0,-37,0,-47,-4c0,0,-18,-8,-26,-23c0,0,-8,-15,-8,-49V226c0,0,0,-36,3,-44c0,0,4,-8,14,-13c0,0,10,-5,40,-5c0,0,100,0,161,26c0,0,61,27,110,84c0,0,49,58,84,158L994,385L857,0Z" 
id="f0_2x"
transform="scale(0.001,-0.001)" />

<path d="M59,0V144H98c0,0,39,0,50,4c0,0,11,4,16,14c0,0,5,9,5,38V556H59V696c0,0,59,3,113,13c0,0,54,10,96,23c0,0,28,9,68,30h71V211c0,0,0,-40,4,-49c0,0,5,-9,16,-13c0,0,12,-5,52,-5h40V0ZM286,820c0,0,-57,0,-97,40c0,0,-39,40,-39,97c0,0,0,56,41,96c0,0,41,41,95,41c0,0,57,0,97,-40c0,0,39,-40,39,-96c0,0,0,-58,-39,-98c0,0,-40,-40,-97,-40Z" 
id="f0_25"
transform="scale(0.001,-0.001)" />

<path d="M73,0V144h29c0,0,47,0,58,5c0,0,12,4,18,17c0,0,6,12,6,54V554H73V698c0,0,137,13,253,64h70V663c0,0,65,49,132,74c0,0,67,25,136,25c0,0,44,0,85,-13c0,0,41,-13,68,-34c0,0,27,-21,49,-57c0,0,73,55,139,79c0,0,66,25,135,25c0,0,60,0,108,-22c0,0,49,-22,79,-58c0,0,30,-37,39,-81c0,0,6,-26,6,-78V215c0,0,0,-38,5,-50c0,0,6,-11,19,-17c0,0,10,-4,55,-4h32V0H1049V144c0,0,48,0,61,5c0,0,12,4,18,15c0,0,6,11,6,48V483c0,0,0,47,-6,62c0,0,-7,15,-25,26c0,0,-18,11,-44,11c0,0,-29,0,-63,-13c0,0,-33,-13,-99,-57V220c0,0,0,-43,6,-55c0,0,5,-11,20,-17c0,0,9,-4,59,-4V0H574V144c0,0,51,0,62,5c0,0,11,4,17,16c0,0,6,12,6,55V475c0,0,0,58,-10,78c0,0,-17,29,-59,29c0,0,-21,0,-44,-5c0,0,-23,-6,-46,-17c0,0,-12,-6,-61,-38L421,510V220c0,0,0,-42,5,-52c0,0,4,-11,17,-18c0,0,13,-6,45,-6h20V0Z" 
id="f0_29"
transform="scale(0.001,-0.001)" />

<path d="M456,-17c0,0,-117,0,-203,58L232,0H133L41,244l141,60c0,0,53,-82,130,-130c0,0,78,-47,143,-47c0,0,40,0,68,19c0,0,21,15,21,35c0,0,0,17,-17,32c0,0,-16,16,-72,35L294,304c0,0,-133,47,-181,100c0,0,-48,54,-48,127c0,0,0,94,75,158c0,0,86,73,212,73c0,0,111,0,191,-51l20,33h97L721,537L580,480c0,0,-40,65,-101,102c0,0,-61,37,-121,37c0,0,-40,0,-59,-14c0,0,-19,-13,-19,-32c0,0,0,-15,13,-29c0,0,14,-13,58,-28L556,443c0,0,54,-20,104,-49c0,0,50,-29,75,-71c0,0,25,-42,25,-99c0,0,0,-101,-78,-166c0,0,-91,-75,-226,-75Z" 
id="f0_2f"
transform="scale(0.001,-0.001)" />

<path d="M280,0V144h30c0,0,51,0,66,6c0,0,14,6,21,22c0,0,8,17,8,67V851c0,0,0,26,-6,33c0,0,-6,7,-26,7c0,0,-38,0,-86,-29c0,0,-48,-29,-85,-82c0,0,-15,-21,-63,-118L2,711l128,365h99l10,-36H826l13,36h99L1067,711L928,662c0,0,-46,91,-66,119c0,0,-40,55,-92,86c0,0,-38,24,-77,24c0,0,-18,0,-24,-9c0,0,-7,-8,-7,-39V244c0,0,0,-53,4,-66c0,0,3,-13,12,-21c0,0,9,-8,25,-11c0,0,16,-2,84,-2V0Z" 
id="f0_1k"
transform="scale(0.001,-0.001)" />

<path d="M463,-205c0,0,67,0,120,12c0,0,52,11,69,29c0,0,11,11,11,30c0,0,0,21,-22,36c0,0,-23,14,-109,25L311,-46c0,0,-39,-31,-50,-47c0,0,-11,-16,-11,-35c0,0,0,-36,60,-57c0,0,59,-20,153,-20ZM416,368c0,0,46,0,77,34c0,0,31,34,31,88c0,0,0,59,-29,94c0,0,-30,35,-76,35c0,0,-47,0,-78,-35c0,0,-31,-35,-31,-95c0,0,0,-56,30,-88c0,0,29,-33,76,-33Zm10,-707c0,0,-141,0,-232,27c0,0,-92,27,-130,68c0,0,-39,42,-39,79c0,0,0,42,29,76c0,0,29,34,118,78c0,0,-55,19,-83,48c0,0,-37,39,-37,80c0,0,0,45,35,88c0,0,34,43,104,86c0,0,-39,24,-61,51c0,0,-22,28,-36,69c0,0,-14,40,-14,82c0,0,0,112,92,190c0,0,91,79,240,79c0,0,67,0,121,-16c0,0,55,-15,98,-46c0,0,40,57,80,80c0,0,39,24,83,24c0,0,44,0,69,-26c0,0,26,-26,26,-66c0,0,0,-37,-25,-61c0,0,-24,-24,-60,-24l-24,1H754c0,0,-20,0,-40,-14c0,0,41,-68,41,-131c0,0,0,-65,-41,-127c0,0,-40,-62,-112,-97c0,0,-72,-34,-173,-34c0,0,-29,0,-58,3c0,0,-29,4,-59,10c0,0,-20,-12,-31,-24c0,0,-10,-12,-10,-22c0,0,0,-24,47,-30L626,118c0,0,138,-19,200,-74c0,0,61,-54,61,-130c0,0,0,-67,-46,-123c0,0,-47,-57,-151,-94c0,0,-105,-36,-264,-36Z" 
id="f0_30"
transform="scale(0.001,-0.001)" />

<path d="M67,0V144H89c0,0,52,0,64,4c0,0,12,5,19,16c0,0,6,11,6,44V554H67V698c0,0,134,17,251,64h69V663c0,0,85,57,145,78c0,0,60,21,122,21c0,0,73,0,128,-31c0,0,56,-30,81,-76c0,0,26,-46,26,-130V215c0,0,0,-40,5,-51c0,0,6,-11,18,-17c0,0,9,-3,54,-3h36V0H564V144c0,0,50,0,56,2c0,0,19,5,25,17c0,0,6,12,6,51V487c0,0,0,53,-11,69c0,0,-18,26,-57,26c0,0,-32,0,-69,-14c0,0,-36,-14,-98,-58V214c0,0,0,-48,10,-59c0,0,11,-11,51,-11h24V0Z" 
id="f0_2a"
transform="scale(0.001,-0.001)" />

<path d="M461,-17c0,0,-172,0,-288,112C173,95,57,207,57,369c0,0,0,110,54,200c0,0,54,91,148,142c0,0,94,51,222,51c0,0,154,0,251,-72c0,0,97,-71,97,-150c0,0,0,-34,-15,-60c0,0,-15,-27,-47,-43c0,0,-31,-17,-66,-17c0,0,-28,0,-51,12c0,0,-22,11,-37,28c0,0,-7,7,-26,46c0,0,-24,49,-38,64c0,0,-13,16,-32,25c0,0,-19,8,-42,8c0,0,-39,0,-74,-25c0,0,-36,-25,-59,-75c0,0,-22,-51,-22,-113c0,0,0,-69,27,-123c0,0,26,-55,71,-83c0,0,46,-29,100,-29c0,0,52,0,105,29c0,0,53,28,114,98L847,186C847,186,759,79,664,31c0,0,-95,-48,-203,-48Z" 
id="f0_1z"
transform="scale(0.001,-0.001)" />

<path d="M59,0V144H92c0,0,57,0,74,14c0,0,18,15,18,59V815c0,0,0,41,-7,55c0,0,-7,13,-22,20c0,0,-16,7,-63,7H59v143H919L1037,709L902,662c0,0,-33,72,-63,109c0,0,-29,37,-70,61c0,0,-41,25,-89,33c0,0,-32,5,-114,5H438V594h66c0,0,37,0,58,12c0,0,22,11,31,29c0,0,9,18,9,60v55H736V284H602v67c0,0,0,29,-5,43c0,0,-7,18,-19,29c0,0,-12,11,-27,15c0,0,-15,5,-55,5H438V224c0,0,0,-39,7,-53c0,0,6,-14,21,-21c0,0,15,-6,58,-6h42V0Z" 
id="f0_2w"
transform="scale(0.001,-0.001)" />

<path d="M384,-17c0,0,-54,0,-99,17c0,0,-45,17,-75,47c0,0,-31,29,-46,69c0,0,-14,39,-14,101V524c0,0,0,43,-5,54c0,0,-5,11,-16,17c0,0,-12,5,-49,5H39V744l348,7V268c0,0,0,-52,7,-69c0,0,6,-17,23,-28c0,0,16,-11,42,-11c0,0,37,0,79,18c0,0,16,8,87,53V521c0,0,0,38,-6,53c0,0,-6,14,-17,20c0,0,-12,6,-44,6H514V744l350,7V218c0,0,0,-42,5,-53c0,0,5,-11,16,-15c0,0,11,-5,51,-5h40V0L648,-8V79C648,79,583,31,517,7c0,0,-66,-24,-133,-24Z" 
id="f0_2h"
transform="scale(0.001,-0.001)" />

<path d="M63,0V144h41c0,0,37,0,47,5c0,0,10,4,15,16c0,0,5,12,5,46V888H63v144c0,0,61,3,139,21c0,0,77,17,139,42h70V680c0,0,73,45,130,63c0,0,57,19,110,19c0,0,71,0,126,-30c0,0,56,-31,82,-76c0,0,26,-46,26,-122V223c0,0,0,-45,4,-55c0,0,6,-14,22,-21c0,0,10,-3,53,-3h35V0H560V144h23c0,0,32,0,43,6c0,0,12,6,17,16c0,0,4,11,4,53V476c0,0,0,51,-6,67c0,0,-6,17,-23,28c0,0,-16,11,-41,11c0,0,-35,0,-73,-14c0,0,-38,-15,-93,-53V219c0,0,0,-42,4,-53c0,0,5,-10,17,-16c0,0,13,-6,47,-6h17V0Z" 
id="f0_31"
transform="scale(0.001,-0.001)" />

<path d="M500,-17c0,0,-129,0,-230,43c0,0,-101,43,-152,109c0,0,-51,67,-51,132c0,0,0,51,36,86c0,0,36,36,87,36c0,0,49,0,86,-33c0,0,24,-22,41,-75c0,0,22,-68,40,-90c0,0,17,-22,57,-39c0,0,40,-17,81,-17c0,0,48,0,92,23c0,0,45,23,66,59c0,0,21,35,21,85c0,0,0,92,-71,136c0,0,-55,33,-170,33H384V615h49c0,0,91,0,130,13c0,0,39,14,62,46c0,0,22,31,22,68c0,0,0,50,-37,86c0,0,-47,45,-143,45c0,0,-65,0,-106,-19c0,0,-42,-20,-65,-55c0,0,-24,-36,-28,-93H113c0,0,-1,17,-1,28c0,0,0,97,44,166c0,0,44,70,137,115c0,0,93,44,212,44c0,0,114,0,204,-40c0,0,91,-40,135,-103c0,0,45,-62,45,-129c0,0,0,-52,-28,-102c0,0,-27,-51,-74,-86c0,0,-31,-23,-93,-47c0,0,56,-6,100,-27c0,0,44,-21,76,-54c0,0,33,-32,49,-73c0,0,16,-41,16,-89c0,0,0,-86,-51,-160C884,149,833,74,733,28c0,0,-100,-45,-233,-45Z" 
id="f0_2p"
transform="scale(0.001,-0.001)" />

<path d="M70,0V63h33c0,0,48,0,64,8c0,0,17,8,25,27c0,0,9,19,9,65V871c0,0,0,54,-8,73c0,0,-8,18,-24,26c0,0,-15,8,-66,8H70v62H474V978H437c0,0,-43,0,-61,-9c0,0,-18,-8,-27,-24c0,0,-8,-15,-8,-56V164c0,0,0,-50,4,-60c0,0,4,-13,19,-19c0,0,11,-5,61,-5h56c0,0,96,0,167,28c0,0,70,28,122,81c0,0,51,54,99,159l66,-22L819,0Z" 
id="f1_2y"
transform="scale(0.001,-0.001)" />

<path d="M413,-272c0,0,102,0,175,22c0,0,73,22,104,56c0,0,24,27,24,64c0,0,0,31,-20,53c0,0,-19,21,-71,37c0,0,-53,16,-99,24L285,21c0,0,-72,-60,-95,-98c0,0,-24,-38,-24,-73c0,0,0,-30,24,-58c0,0,23,-28,80,-46c0,0,57,-18,143,-18Zm-7,571c0,0,47,0,89,25c0,0,42,24,65,66c0,0,23,42,23,94c0,0,0,82,-50,133c0,0,-50,51,-128,51c0,0,-74,0,-124,-53c0,0,-51,-53,-51,-131c0,0,0,-52,23,-94c0,0,23,-42,65,-67c0,0,42,-24,88,-24ZM391,-342c0,0,-120,0,-194,25c0,0,-75,25,-116,72c0,0,-30,33,-30,69c0,0,0,46,30,90c0,0,30,44,140,124c0,0,-71,18,-101,42c0,0,-39,30,-39,69c0,0,0,20,7,36c0,0,7,17,23,34c0,0,17,17,59,47c0,0,27,18,38,27c0,0,-54,39,-82,87c0,0,-27,48,-27,105c0,0,0,95,73,166c0,0,89,86,240,86c0,0,67,0,117,-17c0,0,50,-16,103,-60c0,0,34,40,68,59c0,0,35,18,64,18c0,0,27,0,46,-16c0,0,18,-16,18,-39c0,0,0,-24,-16,-40c0,0,-17,-16,-42,-16c0,0,-11,0,-29,3c0,0,-21,6,-35,6c0,0,-19,0,-39,-18c0,0,47,-56,47,-131c0,0,0,-103,-87,-179c0,0,-87,-75,-219,-75c0,0,-74,0,-148,31c0,0,-49,-35,-56,-43c0,0,-10,-13,-10,-27c0,0,0,-22,22,-36c0,0,28,-18,112,-31L544,94c0,0,72,-11,144,-37c0,0,73,-26,106,-67c0,0,32,-42,32,-100c0,0,0,-98,-91,-157c0,0,-116,-75,-344,-75Z" 
id="f1_23"
transform="scale(0.001,-0.001)" />

<path d="M336,0L116,550c0,0,-20,53,-34,71c0,0,-13,17,-33,26c0,0,-20,10,-49,10v63H342V657H318c0,0,-44,0,-58,-7c0,0,-22,-10,-22,-32c0,0,0,-21,17,-68L409,142L560,522l-13,34c0,0,-24,61,-54,84c0,0,-20,15,-60,17v63H775V657H746c0,0,-41,0,-53,-7c0,0,-21,-12,-21,-38c0,0,0,-22,16,-62L842,142L993,556c0,0,12,34,13,38c0,0,2,9,2,18c0,0,0,20,-16,33c0,0,-17,12,-61,12H903v63h291V657c0,0,-32,-1,-53,-11c0,0,-20,-10,-32,-25c0,0,-12,-16,-34,-71L858,0H767L596,429L425,0Z" 
id="f1_2j"
transform="scale(0.001,-0.001)" />

<path d="M426,-17c0,0,-153,0,-258,108C168,91,63,200,63,362c0,0,0,108,48,194c0,0,49,86,136,134c0,0,87,47,200,47c0,0,128,0,214,-63c0,0,86,-63,86,-127c0,0,0,-34,-20,-53c0,0,-20,-19,-46,-19c0,0,-13,0,-26,7c0,0,-12,7,-26,22c0,0,-6,6,-22,41c0,0,-20,44,-31,59c0,0,-23,29,-57,47c0,0,-34,17,-76,17c0,0,-63,0,-117,-35c0,0,-54,-35,-86,-103c0,0,-32,-68,-32,-163c0,0,0,-147,79,-233c0,0,67,-74,161,-74c0,0,44,0,88,14c0,0,44,15,84,43c0,0,29,20,95,91l48,-38C763,170,622,-17,426,-17Z" 
id="f1_1z"
transform="scale(0.001,-0.001)" />

<path d="M51,0V63H74c0,0,59,0,75,7c0,0,16,8,23,24c0,0,7,17,6,77V643H51v77H178V832c0,0,0,115,76,189c0,0,77,73,200,73c0,0,82,0,128,-34c0,0,46,-34,46,-75c0,0,0,-26,-19,-45c0,0,-18,-18,-45,-18c0,0,-25,0,-43,9c0,0,-18,9,-55,45c0,0,-39,37,-75,37c0,0,-25,0,-45,-15c0,0,-19,-16,-30,-45c0,0,-11,-30,-11,-91V720H445V643H305V159c0,0,0,-50,8,-66c0,0,7,-17,22,-24c0,0,15,-6,69,-6h31V0Z" 
id="f2_22"
transform="scale(0.001,-0.001)" />

<path d="M369,-352c0,0,-73,64,-127,162c0,0,-55,98,-81,225c0,0,-27,128,-27,343c0,0,0,214,30,342c0,0,29,129,96,241c0,0,50,84,109,126l46,-46c0,0,-41,-42,-68,-104c0,0,-39,-94,-57,-219c0,0,-17,-126,-17,-355c0,0,0,-236,16,-354c0,0,17,-117,56,-209c0,0,27,-64,70,-110l-46,-42Z" 
id="f2_c"
transform="scale(0.001,-0.001)" />

<path d="M0,0V62c0,0,36,0,56,8c0,0,21,7,41,22c0,0,33,27,48,43L365,360L178,573c0,0,-35,40,-56,56c0,0,-20,16,-40,23c0,0,-19,6,-54,6v62H403V658H377c0,0,-22,0,-41,-5c0,0,-11,-3,-18,-12c0,0,-7,-8,-7,-16c0,0,0,-17,28,-52L446,439L570,573c0,0,34,37,34,56c0,0,0,14,-12,21c0,0,-12,8,-51,8H513v62H831V658c0,0,-47,-2,-81,-20c0,0,-34,-17,-80,-66L499,396L711,153l9,-11c0,0,31,-40,70,-65c0,0,21,-15,67,-15V0H491V62h31c0,0,36,0,46,4c0,0,16,8,16,26c0,0,0,16,-36,61L413,318L262,153L247,135l-9,-9c0,0,-18,-21,-18,-37c0,0,0,-14,11,-21c0,0,12,-6,52,-6h29V0Z" 
id="f2_2k"
transform="scale(0.001,-0.001)" />

<path d="M89,-352l-46,47c0,0,41,42,67,104c0,0,40,93,57,218c0,0,18,125,18,355c0,0,0,235,-17,353c0,0,-16,118,-55,210c0,0,-27,64,-70,109l46,43c0,0,73,-63,127,-161c0,0,54,-98,81,-226c0,0,27,-128,27,-343c0,0,0,-214,-30,-343c0,0,-29,-127,-96,-239c0,0,-51,-85,-109,-127Z" 
id="f2_d"
transform="scale(0.001,-0.001)" />

<path d="M69,59v92H742V59ZM742,212L69,510v76L742,884V776L206,548L742,320V212Z" 
id="f2_45"
transform="scale(0.001,-0.001)" />

<path d="M413,-272c0,0,102,0,175,22c0,0,73,22,104,56c0,0,24,27,24,64c0,0,0,31,-20,53c0,0,-19,21,-71,37c0,0,-53,16,-99,24L285,21c0,0,-72,-60,-95,-98c0,0,-24,-38,-24,-73c0,0,0,-30,24,-58c0,0,23,-28,80,-46c0,0,57,-18,143,-18Zm-7,571c0,0,47,0,89,25c0,0,42,24,65,66c0,0,23,42,23,94c0,0,0,82,-50,133c0,0,-50,51,-128,51c0,0,-74,0,-124,-53c0,0,-51,-53,-51,-131c0,0,0,-52,23,-94c0,0,23,-42,65,-67c0,0,42,-24,88,-24ZM391,-342c0,0,-120,0,-194,25c0,0,-75,25,-116,72c0,0,-30,33,-30,69c0,0,0,46,30,90c0,0,30,44,140,124c0,0,-71,18,-101,42c0,0,-39,30,-39,69c0,0,0,20,7,36c0,0,7,17,23,34c0,0,17,17,59,47c0,0,27,18,38,27c0,0,-54,39,-82,87c0,0,-27,48,-27,105c0,0,0,95,73,166c0,0,89,86,240,86c0,0,67,0,117,-17c0,0,50,-16,103,-60c0,0,34,40,68,59c0,0,35,18,64,18c0,0,27,0,46,-16c0,0,18,-16,18,-39c0,0,0,-24,-16,-40c0,0,-17,-16,-42,-16c0,0,-11,0,-29,3c0,0,-21,6,-35,6c0,0,-19,0,-39,-18c0,0,47,-56,47,-131c0,0,0,-103,-87,-179c0,0,-87,-75,-219,-75c0,0,-74,0,-148,31c0,0,-49,-35,-56,-43c0,0,-10,-13,-10,-27c0,0,0,-22,22,-36c0,0,28,-18,112,-31L544,94c0,0,72,-11,144,-37c0,0,73,-26,106,-67c0,0,32,-42,32,-100c0,0,0,-98,-91,-157c0,0,-116,-75,-344,-75Z" 
id="f2_23"
transform="scale(0.001,-0.001)" />

<path d="M369,-352c0,0,-73,64,-127,162c0,0,-55,98,-81,225c0,0,-27,128,-27,343c0,0,0,214,30,342c0,0,29,129,96,241c0,0,50,84,109,126l46,-46c0,0,-41,-42,-68,-104c0,0,-39,-94,-57,-219c0,0,-17,-126,-17,-355c0,0,0,-236,16,-354c0,0,17,-117,56,-209c0,0,27,-64,70,-110l-46,-42Z" 
id="f1_2n"
transform="scale(0.001,-0.001)" />

<path d="M89,-352l-46,47c0,0,41,42,67,104c0,0,40,93,57,218c0,0,18,125,18,355c0,0,0,235,-17,353c0,0,-16,118,-55,210c0,0,-27,64,-70,109l46,43c0,0,73,-63,127,-161c0,0,54,-98,81,-226c0,0,27,-128,27,-343c0,0,0,-214,-30,-343c0,0,-29,-127,-96,-239c0,0,-51,-85,-109,-127Z" 
id="f1_2o"
transform="scale(0.001,-0.001)" />

<path d="M166,-269l-41,49c0,0,154,125,154,208c0,0,0,10,-2,23c0,0,-13,-5,-25,-8C252,3,240,0,230,0c0,0,-36,0,-58,23c0,0,-21,23,-21,59c0,0,0,35,26,61c0,0,26,26,62,26c0,0,51,0,88,-40c0,0,36,-41,36,-105c0,0,0,-41,-17,-87c0,0,-18,-46,-50,-85c0,0,-33,-39,-130,-121Z" 
id="f1_g"
transform="scale(0.001,-0.001)" />

<path d="M81,0V63h26c0,0,47,0,66,8c0,0,18,9,27,28c0,0,8,19,8,69V875c0,0,0,47,-8,66c0,0,-8,19,-25,28c0,0,-17,9,-59,9H81v62H877L973,768L909,743c0,0,-41,95,-81,137c0,0,-39,42,-92,59c0,0,-52,18,-164,18H348V558H450c0,0,80,0,115,16c0,0,35,16,54,50c0,0,19,34,19,96v28h73V291H638v41c0,0,0,58,-18,91c0,0,-18,33,-49,47c0,0,-31,15,-110,15H348V161c0,0,0,-45,9,-62c0,0,10,-18,28,-27c0,0,18,-9,65,-9h28V0Z" 
id="f1_2v"
transform="scale(0.001,-0.001)" />

<path d="M540,477V800L230,477ZM540,0V287H49V521l490,519H777V477H974V287H777V0Z" 
id="f0_2q"
transform="scale(0.001,-0.001)" />

<path d="M313,-352c0,0,-44,38,-69,72c0,0,-58,77,-97,172c0,0,-38,95,-53,202C94,94,80,202,80,391c0,0,0,199,26,319c0,0,26,119,79,214c0,0,53,95,128,161L419,994c0,0,-53,-85,-74,-194c0,0,-31,-163,-31,-448c0,0,0,-266,30,-418c0,0,22,-109,75,-195L313,-352Z" 
id="f0_c"
transform="scale(0.001,-0.001)" />

<path d="M567,-17c0,0,-83,0,-152,21c0,0,-70,21,-145,71L237,0H126L52,404l140,33c0,0,49,-123,153,-205c0,0,104,-82,228,-82c0,0,56,0,93,14c0,0,37,14,56,39c0,0,18,25,18,52c0,0,0,45,-43,77c0,0,-44,32,-154,63L369,446c0,0,-40,11,-107,42c0,0,-68,31,-104,64c0,0,-36,34,-60,86c0,0,-24,53,-24,111c0,0,0,83,46,153c0,0,46,69,138,113c0,0,92,43,204,43c0,0,135,0,244,-70l29,52H842L932,692L792,652c0,0,-69,125,-157,183c0,0,-88,58,-187,58c0,0,-64,0,-101,-26c0,0,-37,-27,-37,-59c0,0,0,-36,34,-67c0,0,32,-32,121,-56L665,626c0,0,166,-47,237,-126c0,0,70,-80,70,-186c0,0,0,-135,-107,-229C865,85,745,-17,567,-17Z" 
id="f0_1j"
transform="scale(0.001,-0.001)" />

<path d="M379,147c0,0,24,0,57,12c0,0,32,13,72,38V328c0,0,-97,-15,-137,-29c0,0,-40,-15,-58,-37c0,0,-17,-22,-17,-45c0,0,0,-30,23,-50c0,0,22,-20,60,-20ZM287,-11c0,0,-107,0,-172,59c0,0,-66,60,-66,148c0,0,0,50,23,92c0,0,22,42,68,73c0,0,45,32,139,56c0,0,94,24,229,35v55c0,0,0,48,-8,67c0,0,-8,19,-29,31c0,0,-22,12,-54,12c0,0,-25,0,-45,-8c0,0,-20,-8,-32,-21c0,0,-11,-13,-27,-49c0,0,-20,-46,-48,-66c0,0,-28,-20,-66,-20c0,0,-48,0,-78,29c0,0,-31,30,-31,74c0,0,0,50,31,89c0,0,42,51,125,84c0,0,82,33,186,33c0,0,104,0,176,-34c0,0,73,-33,102,-80c0,0,28,-47,28,-142V239c0,0,0,-49,5,-63c0,0,6,-13,23,-24c0,0,17,-10,38,-10c0,0,20,0,55,12V8c0,0,-63,-19,-121,-19c0,0,-69,0,-117,22c0,0,-49,22,-81,67C540,78,465,29,404,9c0,0,-61,-20,-117,-20Z" 
id="f0_1x"
transform="scale(0.001,-0.001)" />

<path d="M463,160c0,0,26,0,49,9c0,0,24,9,81,44V463c0,0,0,47,-7,66c0,0,-9,28,-41,49c0,0,-32,20,-71,20c0,0,-41,0,-75,-24c0,0,-35,-24,-55,-74c0,0,-20,-50,-20,-124c0,0,0,-104,45,-166c0,0,36,-50,94,-50ZM389,-17c0,0,-86,0,-158,46c0,0,-72,47,-118,138c0,0,-46,92,-46,204c0,0,0,113,47,205c0,0,47,92,122,139c0,0,75,47,168,47c0,0,48,0,92,-12c0,0,43,-11,97,-40V888H484v144c0,0,92,9,150,22c0,0,57,14,124,41h72V227c0,0,0,-51,5,-62c0,0,4,-11,15,-16c0,0,11,-5,57,-5h35V0L618,-10V66C618,66,548,19,495,1c0,0,-53,-18,-106,-18Z" 
id="f0_20"
transform="scale(0.001,-0.001)" />

<path d="M299,0L103,533c0,0,-10,28,-25,47c0,0,-9,12,-20,16c0,0,-10,4,-46,4V744H407V600H390c0,0,-28,0,-36,-6c0,0,-11,-7,-11,-20c0,0,0,-11,7,-32L455,221l90,251l-24,70c0,0,-11,32,-26,44c0,0,-15,13,-45,14V744H825V600H794c0,0,-25,0,-35,-7c0,0,-10,-8,-10,-22c0,0,0,-13,9,-39L848,264l92,269c0,0,9,26,9,39c0,0,0,14,-11,21c0,0,-11,7,-45,7H876V744h335V600c0,0,-36,0,-47,-4c0,0,-11,-5,-20,-14c0,0,-10,-14,-23,-49L920,0H723L611,299L499,0Z" 
id="f0_2j"
transform="scale(0.001,-0.001)" />

<path d="M177,-352L70,-260c0,0,54,84,75,193c0,0,31,162,31,447c0,0,0,267,-31,420c0,0,-21,109,-75,194l107,91c0,0,43,-38,69,-71c0,0,58,-78,96,-173c0,0,39,-95,53,-203c0,0,15,-108,15,-296c0,0,0,-200,-26,-319c0,0,-27,-119,-80,-214c0,0,-53,-95,-127,-161Z" 
id="f0_d"
transform="scale(0.001,-0.001)" />

<path d="M56,0V63H79c0,0,54,0,79,13c0,0,13,7,19,26c0,0,6,19,6,107V967H56v65c0,0,72,9,112,22c0,0,40,13,84,40h58V601c0,0,84,71,160,103c0,0,75,33,144,33c0,0,100,0,166,-59c0,0,64,-60,64,-146V166c0,0,0,-54,8,-71c0,0,9,-17,29,-25c0,0,20,-7,90,-7V0H586V63h28c0,0,55,0,72,8c0,0,17,9,25,28c0,0,8,20,8,82V435c0,0,0,85,-6,110c0,0,-12,43,-47,69c0,0,-35,26,-89,26c0,0,-62,0,-128,-30c0,0,-67,-30,-139,-90V147c0,0,0,-42,7,-57c0,0,8,-14,25,-21c0,0,17,-6,68,-6h31V0Z" 
id="f2_24"
transform="scale(0.001,-0.001)" />

<path d="M427,50c0,0,63,0,113,33c0,0,49,34,80,107c0,0,30,74,30,173c0,0,0,96,-32,173c0,0,-26,61,-77,95c0,0,-51,34,-115,34c0,0,-85,0,-143,-67c0,0,-75,-84,-75,-243c0,0,0,-153,64,-234c0,0,57,-71,155,-71Zm-4,-67c0,0,-180,0,-271,112c0,0,-90,112,-90,264c0,0,0,111,47,198c0,0,46,86,131,133c0,0,85,47,192,47c0,0,109,0,190,-45c0,0,80,-46,126,-133c0,0,46,-87,46,-199c0,0,0,-112,-47,-199C747,161,699,74,618,28c0,0,-82,-45,-195,-45Z" 
id="f2_2b"
transform="scale(0.001,-0.001)" />

<path d="M54,0V63H86c0,0,45,0,60,8c0,0,19,11,28,31c0,0,10,20,10,71V613H55v62c0,0,54,4,97,18c0,0,42,13,96,44h56V596c0,0,53,65,123,103c0,0,70,38,126,38c0,0,56,0,88,-26c0,0,32,-26,32,-63c0,0,0,-27,-22,-48c0,0,-21,-20,-51,-20c0,0,-13,0,-23,4c0,0,-10,3,-28,16c0,0,-41,27,-69,27c0,0,-37,0,-82,-32c0,0,-57,-40,-89,-79V173c0,0,0,-45,5,-61c0,0,5,-16,16,-27c0,0,11,-12,28,-17c0,0,16,-5,57,-5h25V0Z" 
id="f2_2e"
transform="scale(0.001,-0.001)" />

<path d="M326,73c0,0,48,0,109,23c0,0,62,24,157,91l1,180c0,0,-173,-26,-215,-35c0,0,-81,-19,-116,-41c0,0,-36,-23,-51,-48c0,0,-14,-26,-14,-55c0,0,0,-29,16,-56c0,0,17,-27,48,-43c0,0,30,-16,65,-16ZM291,-12c0,0,-103,0,-167,55c0,0,-64,56,-64,131c0,0,0,46,23,87c0,0,24,41,72,72c0,0,48,31,151,55c0,0,104,24,287,43v82c0,0,0,83,-47,118c0,0,-46,36,-131,36c0,0,-42,0,-73,-10c0,0,-31,-10,-51,-28c0,0,-19,-18,-28,-40c0,0,-3,-8,-18,-64c0,0,-17,-67,-69,-67c0,0,-30,0,-48,19c0,0,-18,20,-18,54c0,0,0,49,36,97c0,0,37,47,112,78c0,0,75,31,177,31c0,0,95,0,163,-29c0,0,68,-30,100,-85c0,0,23,-38,23,-138V198c0,0,0,-61,3,-79c0,0,9,-32,29,-48c0,0,21,-16,54,-16c0,0,34,0,82,15V5c0,0,-62,-17,-111,-17c0,0,-53,0,-89,14c0,0,-37,15,-60,44c0,0,-23,29,-30,68c0,0,-89,-70,-162,-98c0,0,-72,-28,-146,-28Z" 
id="f2_1x"
transform="scale(0.001,-0.001)" />

<path d="M48,0V63H87c0,0,36,0,54,11c0,0,18,11,26,30c0,0,8,19,8,77V970H48v62c0,0,101,7,197,62h55V176c0,0,0,-58,8,-73c0,0,9,-21,28,-31c0,0,19,-9,71,-9h24V0Z" 
id="f2_28"
transform="scale(0.001,-0.001)" />

<path d="M49,0V63H79c0,0,50,0,68,9c0,0,17,9,24,25c0,0,7,16,7,77V613H49v62c0,0,62,7,104,20c0,0,42,14,96,42h54V140c0,0,0,-32,9,-47c0,0,9,-16,25,-23c0,0,16,-7,58,-7h35V0ZM238,903c0,0,-36,0,-61,25c0,0,-25,25,-25,61c0,0,0,36,25,61c0,0,25,25,61,25c0,0,36,0,61,-25c0,0,26,-25,26,-61c0,0,0,-36,-26,-61c0,0,-25,-25,-61,-25Z" 
id="f2_25"
transform="scale(0.001,-0.001)" />

<path d="M56,0V63H74c0,0,56,0,76,9c0,0,20,9,28,33c0,0,5,12,5,83V613H56v62c0,0,66,7,99,18c0,0,33,10,94,44h54V595c0,0,98,83,168,113c0,0,70,29,141,29c0,0,61,0,108,-20c0,0,47,-21,77,-56c0,0,29,-35,39,-80c0,0,6,-27,6,-83V170c0,0,0,-59,8,-76c0,0,9,-16,28,-24c0,0,18,-7,91,-7V0H586V63h21c0,0,54,0,73,9c0,0,19,10,28,29c0,0,9,18,9,76V451c0,0,0,85,-14,118c0,0,-14,32,-47,53c0,0,-33,20,-84,20c0,0,-61,0,-129,-31c0,0,-69,-30,-133,-91V177c0,0,0,-58,9,-78c0,0,8,-19,28,-29c0,0,13,-7,71,-7h22V0Z" 
id="f2_2a"
transform="scale(0.001,-0.001)" />

<path d="M362,-17c0,0,-57,0,-103,25c0,0,-45,25,-62,59c0,0,-17,35,-17,120V645H49v63c0,0,63,14,102,44c0,0,38,29,62,77c0,0,24,48,39,144h53V720H527V645H305V196c0,0,0,-58,10,-82c0,0,10,-25,34,-41c0,0,25,-15,55,-15c0,0,70,0,156,63V49c0,0,-98,-66,-198,-66Z" 
id="f2_2g"
transform="scale(0.001,-0.001)" />

<path d="M598,494c0,0,-11,68,-31,101c0,0,-21,33,-58,52c0,0,-38,20,-85,20c0,0,-47,0,-88,-20c0,0,-41,-19,-68,-53c0,0,-27,-35,-47,-100ZM433,-17c0,0,-110,0,-187,44c0,0,-88,52,-135,134c0,0,-46,83,-46,195c0,0,0,118,45,202c0,0,45,83,127,131c0,0,82,48,189,48c0,0,80,0,139,-25c0,0,59,-25,100,-75c0,0,41,-50,59,-115c0,0,11,-37,12,-98H210c0,0,-3,-36,-3,-54c0,0,0,-94,33,-168c0,0,33,-73,87,-108c0,0,54,-34,122,-34c0,0,58,0,113,27c0,0,54,27,131,106l48,-39C741,154,687,89,636,51c0,0,-51,-38,-97,-52c0,0,-45,-16,-106,-16Z" 
id="f2_21"
transform="scale(0.001,-0.001)" />

<path d="M426,-17c0,0,-153,0,-258,108C168,91,63,200,63,362c0,0,0,108,48,194c0,0,49,86,136,134c0,0,87,47,200,47c0,0,128,0,214,-63c0,0,86,-63,86,-127c0,0,0,-34,-20,-53c0,0,-20,-19,-46,-19c0,0,-13,0,-26,7c0,0,-12,7,-26,22c0,0,-6,6,-22,41c0,0,-20,44,-31,59c0,0,-23,29,-57,47c0,0,-34,17,-76,17c0,0,-63,0,-117,-35c0,0,-54,-35,-86,-103c0,0,-32,-68,-32,-163c0,0,0,-147,79,-233c0,0,67,-74,161,-74c0,0,44,0,88,14c0,0,44,15,84,43c0,0,29,20,95,91l48,-38C763,170,622,-17,426,-17Z" 
id="f2_1z"
transform="scale(0.001,-0.001)" />

<path d="M55,0V63H75c0,0,51,0,67,8c0,0,24,11,34,36c0,0,6,13,6,69V611H53v64c0,0,56,5,98,18c0,0,42,13,96,44h55V612c0,0,85,67,133,90c0,0,73,35,139,35c0,0,46,0,90,-16c0,0,43,-17,70,-42c0,0,26,-24,45,-67c0,0,78,70,145,97c0,0,67,28,135,28c0,0,66,0,116,-27c0,0,51,-27,73,-68c0,0,23,-41,23,-120V176c0,0,0,-54,2,-63c0,0,4,-15,16,-27c0,0,12,-13,28,-18c0,0,15,-5,58,-5h23V0H1025V63c0,0,64,0,83,9c0,0,19,8,29,28c0,0,9,19,9,76V505c0,0,0,62,-11,86c0,0,-11,24,-40,40c0,0,-29,16,-72,16c0,0,-53,0,-111,-28c0,0,-78,-39,-123,-87V176c0,0,0,-52,5,-68c0,0,5,-16,16,-26c0,0,12,-11,27,-15c0,0,15,-4,74,-4V0H545V63h21c0,0,44,0,62,10c0,0,18,10,28,32c0,0,8,17,8,71V494c0,0,0,70,-11,94c0,0,-11,25,-41,42c0,0,-31,17,-72,17c0,0,-49,0,-98,-24c0,0,-74,-35,-135,-91V149c0,0,0,-35,9,-51c0,0,10,-16,30,-26c0,0,20,-9,55,-9h27V0Z" 
id="f2_29"
transform="scale(0.001,-0.001)" />

<path d="M410,69c0,0,50,0,114,29c0,0,63,29,121,83V462c0,0,0,61,-22,99c0,0,-23,38,-75,67c0,0,-52,28,-106,28c0,0,-65,0,-120,-35c0,0,-55,-36,-86,-102c0,0,-31,-67,-31,-162c0,0,0,-89,29,-155c0,0,29,-65,77,-99c0,0,49,-34,99,-34ZM375,-17c0,0,-135,0,-224,108c0,0,-89,108,-89,261c0,0,0,109,47,199c0,0,47,91,125,139c0,0,77,47,170,47c0,0,71,0,131,-24c0,0,60,-25,110,-74V968H520v64c0,0,51,4,93,17c0,0,42,13,105,45h56V190c0,0,0,-63,3,-77c0,0,8,-28,26,-39c0,0,18,-11,69,-11h32V0L645,-11V107c0,0,-74,-68,-139,-96c0,0,-66,-28,-131,-28Z" 
id="f2_20"
transform="scale(0.001,-0.001)" />

<path d="M412,-18c0,0,-144,0,-239,85c0,0,-95,86,-108,222l133,18c0,0,24,-114,79,-164c0,0,55,-50,135,-50c0,0,96,0,161,65c0,0,65,66,65,163c0,0,0,92,-61,152c0,0,-60,60,-153,60c0,0,-38,0,-95,-15l15,119c0,0,13,-2,21,-2c0,0,86,0,155,45c0,0,69,44,69,137c0,0,0,74,-50,122c0,0,-50,49,-129,49c0,0,-79,0,-131,-50c0,0,-52,-49,-67,-147L78,815c0,0,25,135,112,209c0,0,87,74,217,74c0,0,89,0,164,-38c0,0,76,-39,116,-105c0,0,40,-66,40,-141c0,0,0,-70,-39,-129c0,0,-38,-58,-112,-92c0,0,97,-22,151,-93c0,0,53,-70,53,-176c0,0,0,-143,-104,-243c0,0,-105,-99,-264,-99Z" 
id="f3_n"
transform="scale(0.001,-0.001)" />


</defs>
</svg>