<?xml version="1.0" encoding="UTF-8" standalone="no"?>
<!DOCTYPE svg PUBLIC "-//W3C//DTD SVG 1.1//EN"
"http://www.w3.org/Graphics/SVG/1.1/DTD/svg11.dtd">
<svg viewBox="0 0 909 1286" version="1.1" xmlns="http://www.w3.org/2000/svg" xmlns:xlink="http://www.w3.org/1999/xlink">
<defs>
<style type="text/css"><![CDATA[
.g0_63{
fill: #FFFFFF;
}
.g1_63{
fill: #ED7D31;
}
.g2_63{
}
]]></style>
</defs>
<path fill-rule="evenodd" d="M52.8,102H856.9V74.5H52.8V102Z" class="g0_63" />
<g fill="#000000" >
<use xlink:href="#f0_c" transform="matrix(12,0,0,12,59.8,96.8)" />
<use xlink:href="#f0_25" transform="matrix(12,0,0,12,66,96.8)" />
<use xlink:href="#f0_d" transform="matrix(12,0,0,12,71.2,96.8)" />
<use xlink:href="#f0_1c" transform="matrix(12,0,0,12,81,96.8)" />
<use xlink:href="#f0_21" transform="matrix(12,0,0,12,92.4,96.8)" />
<use xlink:href="#f0_2g" transform="matrix(12,0,0,12,101.2,96.8)" />
<use xlink:href="#f0_1g" transform="matrix(12,0,0,12,110.7,96.8)" />
<use xlink:href="#f0_c" transform="matrix(12,0,0,12,125,96.8)" />
<use xlink:href="#f0_2k" transform="matrix(12,0,0,12,131.2,96.8)" />
<use xlink:href="#f0_g" transform="matrix(12,0,0,12,140.7,96.8)" />
<use xlink:href="#f0_2l" transform="matrix(12,0,0,12,148.8,96.8)" />
<use xlink:href="#f0_g" transform="matrix(12,0,0,12,159,96.8)" />
<use xlink:href="#f0_2m" transform="matrix(12,0,0,12,167.5,96.8)" />
<use xlink:href="#f0_d" transform="matrix(12,0,0,12,176.3,96.8)" />
<use xlink:href="#f0_1y" transform="matrix(12,0,0,12,186.1,96.8)" />
<use xlink:href="#f0_21" transform="matrix(12,0,0,12,196.4,96.8)" />
<use xlink:href="#f0_2g" transform="matrix(12,0,0,12,208.9,96.8)" />
<use xlink:href="#f0_24" transform="matrix(12,0,0,12,214.7,96.8)" />
<use xlink:href="#f0_21" transform="matrix(12,0,0,12,225.4,96.8)" />
<use xlink:href="#f0_2c" transform="matrix(12,0,0,12,237.8,96.8)" />
<use xlink:href="#f0_2b" transform="matrix(12,0,0,12,248.8,96.8)" />
<use xlink:href="#f0_25" transform="matrix(12,0,0,12,258.7,96.8)" />
<use xlink:href="#f0_2a" transform="matrix(12,0,0,12,264.2,96.8)" />
<use xlink:href="#f0_2g" transform="matrix(12,0,0,12,274.9,96.8)" />
<use xlink:href="#f0_2j" transform="matrix(12,0,0,12,284,96.8)" />
<use xlink:href="#f0_24" transform="matrix(12,0,0,12,299.4,96.8)" />
<use xlink:href="#f0_25" transform="matrix(12,0,0,12,310.1,96.8)" />
<use xlink:href="#f0_1z" transform="matrix(12,0,0,12,315.5,96.8)" />
<use xlink:href="#f0_24" transform="matrix(12,0,0,12,323.6,96.8)" />
<use xlink:href="#f0_20" transform="matrix(12,0,0,12,337.9,96.8)" />
<use xlink:href="#f0_25" transform="matrix(12,0,0,12,348.9,96.8)" />
<use xlink:href="#f0_2i" transform="matrix(12,0,0,12,354.3,96.8)" />
<use xlink:href="#f0_25" transform="matrix(12,0,0,12,364.6,96.8)" />
<use xlink:href="#f0_20" transform="matrix(12,0,0,12,370.1,96.8)" />
<use xlink:href="#f0_21" transform="matrix(12,0,0,12,381.4,96.8)" />
<use xlink:href="#f0_2f" transform="matrix(12,0,0,12,390.2,96.8)" />
<use xlink:href="#f0_28" transform="matrix(12,0,0,12,401.2,96.8)" />
<use xlink:href="#f0_25" transform="matrix(12,0,0,12,406.7,96.8)" />
<use xlink:href="#f0_2a" transform="matrix(12,0,0,12,412.7,96.8)" />
<use xlink:href="#f0_21" transform="matrix(12,0,0,12,422.9,96.8)" />
<use xlink:href="#f0_2f" transform="matrix(12,0,0,12,435.4,96.8)" />
<use xlink:href="#f0_21" transform="matrix(12,0,0,12,443.1,96.8)" />
<use xlink:href="#f0_23" transform="matrix(12,0,0,12,451.9,96.8)" />
<use xlink:href="#f0_29" transform="matrix(12,0,0,12,462.1,96.8)" />
<use xlink:href="#f0_21" transform="matrix(12,0,0,12,478.3,96.8)" />
<use xlink:href="#f0_2a" transform="matrix(12,0,0,12,487,96.8)" />
<use xlink:href="#f0_2g" transform="matrix(12,0,0,12,497.7,96.8)" />
<use xlink:href="#f0_26" transform="matrix(12,0,0,12,507.2,96.8)" />
<use xlink:href="#f0_2b" transform="matrix(12,0,0,12,511.6,96.8)" />
<use xlink:href="#f0_25" transform="matrix(12,0,0,12,521.5,96.8)" />
<use xlink:href="#f0_2a" transform="matrix(12,0,0,12,527,96.8)" />
<use xlink:href="#f0_25" transform="matrix(12,0,0,12,537.7,96.8)" />
<use xlink:href="#f0_2a" transform="matrix(12,0,0,12,543.1,96.8)" />
<use xlink:href="#f0_23" transform="matrix(12,0,0,12,553.8,96.8)" />
<use xlink:href="#f0_11" transform="matrix(12,0,0,12,567.8,96.8)" />
<use xlink:href="#f0_c" transform="matrix(12,0,0,12,585.4,96.8)" />
<use xlink:href="#f0_l" transform="matrix(12,0,0,12,591.6,96.8)" />
<use xlink:href="#f0_g" transform="matrix(12,0,0,12,600.8,96.8)" />
<use xlink:href="#f1_4z" transform="matrix(12,0,0,12,609.2,96.8)" />
<use xlink:href="#f0_m" transform="matrix(12,0,0,12,621.7,96.8)" />
<use xlink:href="#f0_g" transform="matrix(12,0,0,12,630.9,96.8)" />
<use xlink:href="#f0_n" transform="matrix(12,0,0,12,639.3,96.8)" />
<use xlink:href="#f0_d" transform="matrix(12,0,0,12,648.1,96.8)" />
<use xlink:href="#f0_1x" transform="matrix(12,0,0,12,658.1,96.8)" />
<use xlink:href="#f0_2a" transform="matrix(12,0,0,12,667.2,96.8)" />
<use xlink:href="#f0_20" transform="matrix(12,0,0,12,677.9,96.8)" />
<use xlink:href="#f0_12" transform="matrix(12,0,0,12,692.5,96.8)" />
<use xlink:href="#f0_c" transform="matrix(12,0,0,12,707.5,96.8)" />
<use xlink:href="#f0_n" transform="matrix(12,0,0,12,713.7,96.8)" />
<use xlink:href="#f0_g" transform="matrix(12,0,0,12,722.5,96.8)" />
<use xlink:href="#f0_o" transform="matrix(12,0,0,12,731,96.8)" />
<use xlink:href="#f0_g" transform="matrix(12,0,0,12,739.8,96.8)" />
<use xlink:href="#f1_4z" transform="matrix(12,0,0,12,748.3,96.8)" />
<use xlink:href="#f0_p" transform="matrix(12,0,0,12,757.5,96.8)" />
<use xlink:href="#f0_d" transform="matrix(12,0,0,12,766.6,96.8)" />
<use xlink:href="#f0_25" transform="matrix(12,0,0,12,776.1,96.8)" />
<use xlink:href="#f0_2a" transform="matrix(12,0,0,12,781.6,96.8)" />
<use xlink:href="#f0_2g" transform="matrix(12,0,0,12,792.3,96.8)" />
<use xlink:href="#f0_21" transform="matrix(12,0,0,12,798.1,96.8)" />
<use xlink:href="#f0_2e" transform="matrix(12,0,0,12,806.9,96.8)" />
<use xlink:href="#f0_2a" transform="matrix(12,0,0,12,814.2,96.8)" />
<use xlink:href="#f0_1x" transform="matrix(12,0,0,12,824.9,96.8)" />
<use xlink:href="#f0_28" transform="matrix(12,0,0,12,834.1,96.8)" />
<use xlink:href="#f0_28" transform="matrix(12,0,0,12,839.5,96.8)" />
<use xlink:href="#f0_2l" transform="matrix(12,0,0,12,845,96.8)" />
</g>
<path fill-rule="evenodd" d="M52.8,141.2H856.9V102H52.8v39.2Z" class="g0_63" />
<g fill="#000000" >
<use xlink:href="#f0_25" transform="matrix(12,0,0,12,55,124.3)" />
<use xlink:href="#f0_2a" transform="matrix(12,0,0,12,60.5,124.3)" />
<use xlink:href="#f0_2g" transform="matrix(12,0,0,12,75.9,124.3)" />
<use xlink:href="#f0_24" transform="matrix(12,0,0,12,81.8,124.3)" />
<use xlink:href="#f0_21" transform="matrix(12,0,0,12,92.4,124.3)" />
<use xlink:href="#f0_2e" transform="matrix(12,0,0,12,105.9,124.3)" />
<use xlink:href="#f0_1x" transform="matrix(12,0,0,12,113.3,124.3)" />
<use xlink:href="#f0_2g" transform="matrix(12,0,0,12,122.4,124.3)" />
<use xlink:href="#f0_25" transform="matrix(12,0,0,12,128.3,124.3)" />
<use xlink:href="#f0_2b" transform="matrix(12,0,0,12,133.8,124.3)" />
<use xlink:href="#f0_m" transform="matrix(12,0,0,12,148.2,124.3)" />
<use xlink:href="#f0_u" transform="matrix(12,0,0,12,157.4,124.3)" />
<use xlink:href="#f0_n" transform="matrix(12,0,0,12,166.5,124.3)" />
<use xlink:href="#f0_i" transform="matrix(12,0,0,12,175.7,124.3)" />
<use xlink:href="#f0_1k" transform="matrix(12,0,0,12,184.9,124.3)" />
<use xlink:href="#f0_24" transform="matrix(12,0,0,12,196.2,124.3)" />
<use xlink:href="#f0_21" transform="matrix(12,0,0,12,206.9,124.3)" />
<use xlink:href="#f0_2e" transform="matrix(12,0,0,12,215.7,124.3)" />
<use xlink:href="#f0_21" transform="matrix(12,0,0,12,223,124.3)" />
<use xlink:href="#f0_22" transform="matrix(12,0,0,12,231.4,124.3)" />
<use xlink:href="#f0_2b" transform="matrix(12,0,0,12,237.6,124.3)" />
<use xlink:href="#f0_2e" transform="matrix(12,0,0,12,247.5,124.3)" />
<use xlink:href="#f0_21" transform="matrix(12,0,0,12,254.8,124.3)" />
</g>
<path fill-rule="evenodd" d="M52.8,210.9H856.9V141.2H52.8v69.7Z" class="g0_63" />
<path fill-rule="evenodd" d="M52.8,278H856.9V210.9H52.8V278Z" class="g0_63" />
<g fill="#000000" >
<use xlink:href="#f0_1k" transform="matrix(12,0,0,12,55,261.5)" />
<use xlink:href="#f0_24" transform="matrix(12,0,0,12,66.4,261.5)" />
<use xlink:href="#f0_2h" transform="matrix(12,0,0,12,77.1,261.5)" />
<use xlink:href="#f0_2f" transform="matrix(12,0,0,12,88,261.5)" />
<use xlink:href="#f0_g" transform="matrix(12,0,0,12,95.7,261.5)" />
<use xlink:href="#f0_2g" transform="matrix(12,0,0,12,105.2,261.5)" />
<use xlink:href="#f0_24" transform="matrix(12,0,0,12,111.1,261.5)" />
<use xlink:href="#f0_21" transform="matrix(12,0,0,12,121.8,261.5)" />
<use xlink:href="#f0_2e" transform="matrix(12,0,0,12,135.3,261.5)" />
<use xlink:href="#f0_21" transform="matrix(12,0,0,12,142.7,261.5)" />
<use xlink:href="#f0_2d" transform="matrix(12,0,0,12,151.4,261.5)" />
<use xlink:href="#f0_2h" transform="matrix(12,0,0,12,161.7,261.5)" />
<use xlink:href="#f0_25" transform="matrix(12,0,0,12,172.4,261.5)" />
<use xlink:href="#f0_2e" transform="matrix(12,0,0,12,177.8,261.5)" />
<use xlink:href="#f0_21" transform="matrix(12,0,0,12,185.1,261.5)" />
<use xlink:href="#f0_20" transform="matrix(12,0,0,12,193.9,261.5)" />
<use xlink:href="#f0_2c" transform="matrix(12,0,0,12,209.7,261.5)" />
<use xlink:href="#f0_2b" transform="matrix(12,0,0,12,220.7,261.5)" />
<use xlink:href="#f0_25" transform="matrix(12,0,0,12,230.6,261.5)" />
<use xlink:href="#f0_2a" transform="matrix(12,0,0,12,236.1,261.5)" />
<use xlink:href="#f0_2g" transform="matrix(12,0,0,12,246.7,261.5)" />
<use xlink:href="#f0_25" transform="matrix(12,0,0,12,257,261.5)" />
<use xlink:href="#f0_2f" transform="matrix(12,0,0,12,262.5,261.5)" />
</g>
<path fill-rule="evenodd" d="M52.8,305.5H856.9V278H52.8v27.5Z" class="g0_63" />
<g fill="#000000" >
<use xlink:href="#f0_c" transform="matrix(12,0,0,12,55,300.4)" />
<use xlink:href="#f0_25" transform="matrix(12,0,0,12,61.3,300.4)" />
<use xlink:href="#f0_25" transform="matrix(12,0,0,12,66.7,300.4)" />
<use xlink:href="#f0_d" transform="matrix(12,0,0,12,71.9,300.4)" />
<use xlink:href="#f0_1c" transform="matrix(12,0,0,12,83.2,300.4)" />
<use xlink:href="#f0_21" transform="matrix(12,0,0,12,94.6,300.4)" />
<use xlink:href="#f0_2g" transform="matrix(12,0,0,12,103.3,300.4)" />
<use xlink:href="#f0_1g" transform="matrix(12,0,0,12,114.3,300.4)" />
<use xlink:href="#f0_c" transform="matrix(12,0,0,12,130.5,300.4)" />
<use xlink:href="#f0_2k" transform="matrix(12,0,0,12,136.7,300.4)" />
<use xlink:href="#f0_g" transform="matrix(12,0,0,12,146.2,300.4)" />
<use xlink:href="#f0_2l" transform="matrix(12,0,0,12,155.7,300.4)" />
<use xlink:href="#f0_g" transform="matrix(12,0,0,12,166,300.4)" />
<use xlink:href="#f0_2m" transform="matrix(12,0,0,12,175.8,300.4)" />
<use xlink:href="#f0_d" transform="matrix(12,0,0,12,185,300.4)" />
<use xlink:href="#f0_1y" transform="matrix(12,0,0,12,196,300.4)" />
<use xlink:href="#f0_21" transform="matrix(12,0,0,12,206.2,300.4)" />
<use xlink:href="#f0_2g" transform="matrix(12,0,0,12,220.1,300.4)" />
<use xlink:href="#f0_24" transform="matrix(12,0,0,12,226,300.4)" />
<use xlink:href="#f0_21" transform="matrix(12,0,0,12,236.7,300.4)" />
<use xlink:href="#f0_2c" transform="matrix(12,0,0,12,250.9,300.4)" />
<use xlink:href="#f0_2b" transform="matrix(12,0,0,12,261.9,300.4)" />
<use xlink:href="#f0_25" transform="matrix(12,0,0,12,271.8,300.4)" />
<use xlink:href="#f0_2a" transform="matrix(12,0,0,12,277.3,300.4)" />
<use xlink:href="#f0_2g" transform="matrix(12,0,0,12,288,300.4)" />
<use xlink:href="#f0_2j" transform="matrix(12,0,0,12,298.9,300.4)" />
<use xlink:href="#f0_24" transform="matrix(12,0,0,12,314.3,300.4)" />
<use xlink:href="#f0_25" transform="matrix(12,0,0,12,324.6,300.4)" />
<use xlink:href="#f0_1z" transform="matrix(12,0,0,12,330.1,300.4)" />
<use xlink:href="#f0_24" transform="matrix(12,0,0,12,338.1,300.4)" />
<use xlink:href="#f0_20" transform="matrix(12,0,0,12,353.9,300.4)" />
<use xlink:href="#f0_25" transform="matrix(12,0,0,12,365.2,300.4)" />
<use xlink:href="#f0_2i" transform="matrix(12,0,0,12,370.7,300.4)" />
<use xlink:href="#f0_25" transform="matrix(12,0,0,12,381,300.4)" />
<use xlink:href="#f0_20" transform="matrix(12,0,0,12,386.1,300.4)" />
<use xlink:href="#f0_21" transform="matrix(12,0,0,12,397.4,300.4)" />
<use xlink:href="#f0_2f" transform="matrix(12,0,0,12,406.2,300.4)" />
<use xlink:href="#f0_2f" transform="matrix(12,0,0,12,419.1,300.4)" />
<use xlink:href="#f0_21" transform="matrix(12,0,0,12,427.3,300.4)" />
<use xlink:href="#f0_23" transform="matrix(12,0,0,12,436.1,300.4)" />
<use xlink:href="#f0_29" transform="matrix(12,0,0,12,446.4,300.4)" />
<use xlink:href="#f0_21" transform="matrix(12,0,0,12,462.5,300.4)" />
<use xlink:href="#f0_2a" transform="matrix(12,0,0,12,471.3,300.4)" />
<use xlink:href="#f0_2g" transform="matrix(12,0,0,12,482,300.4)" />
<use xlink:href="#f0_26" transform="matrix(12,0,0,12,493.3,300.4)" />
<use xlink:href="#f0_2b" transform="matrix(12,0,0,12,497.7,300.4)" />
<use xlink:href="#f0_25" transform="matrix(12,0,0,12,507.6,300.4)" />
<use xlink:href="#f0_2a" transform="matrix(12,0,0,12,513,300.4)" />
<use xlink:href="#f0_25" transform="matrix(12,0,0,12,523.3,300.4)" />
<use xlink:href="#f0_2a" transform="matrix(12,0,0,12,528.8,300.4)" />
<use xlink:href="#f0_23" transform="matrix(12,0,0,12,539.5,300.4)" />
<use xlink:href="#f0_11" transform="matrix(12,0,0,12,554.8,300.4)" />
<use xlink:href="#f0_c" transform="matrix(12,0,0,12,574.2,300.4)" />
<use xlink:href="#f0_l" transform="matrix(12,0,0,12,580.4,300.4)" />
<use xlink:href="#f0_g" transform="matrix(12,0,0,12,589.6,300.4)" />
<use xlink:href="#f1_4z" transform="matrix(12,0,0,12,599.7,300.4)" />
<use xlink:href="#f0_m" transform="matrix(12,0,0,12,608.9,300.4)" />
<use xlink:href="#f0_g" transform="matrix(12,0,0,12,617.7,300.4)" />
<use xlink:href="#f0_n" transform="matrix(12,0,0,12,627.6,300.4)" />
<use xlink:href="#f0_d" transform="matrix(12,0,0,12,636.7,300.4)" />
<use xlink:href="#f0_1x" transform="matrix(12,0,0,12,648.1,300.4)" />
<use xlink:href="#f0_2a" transform="matrix(12,0,0,12,657.2,300.4)" />
<use xlink:href="#f0_20" transform="matrix(12,0,0,12,667.9,300.4)" />
<use xlink:href="#f0_12" transform="matrix(12,0,0,12,684.1,300.4)" />
<use xlink:href="#f0_c" transform="matrix(12,0,0,12,700.6,300.4)" />
<use xlink:href="#f0_n" transform="matrix(12,0,0,12,706.8,300.4)" />
<use xlink:href="#f0_g" transform="matrix(12,0,0,12,715.6,300.4)" />
<use xlink:href="#f0_o" transform="matrix(12,0,0,12,725.5,300.4)" />
<use xlink:href="#f0_g" transform="matrix(12,0,0,12,734.6,300.4)" />
<use xlink:href="#f1_4z" transform="matrix(12,0,0,12,744.6,300.4)" />
<use xlink:href="#f0_p" transform="matrix(12,0,0,12,753.8,300.4)" />
<use xlink:href="#f0_d" transform="matrix(12,0,0,12,763,300.4)" />
<use xlink:href="#f0_21" transform="matrix(12,0,0,12,774.3,300.4)" />
<use xlink:href="#f0_2k" transform="matrix(12,0,0,12,782.7,300.4)" />
<use xlink:href="#f0_2g" transform="matrix(12,0,0,12,792.3,300.4)" />
<use xlink:href="#f0_21" transform="matrix(12,0,0,12,798.1,300.4)" />
<use xlink:href="#f0_2e" transform="matrix(12,0,0,12,806.9,300.4)" />
<use xlink:href="#f0_2a" transform="matrix(12,0,0,12,814.2,300.4)" />
<use xlink:href="#f0_1x" transform="matrix(12,0,0,12,824.9,300.4)" />
<use xlink:href="#f0_28" transform="matrix(12,0,0,12,834.1,300.4)" />
<use xlink:href="#f0_28" transform="matrix(12,0,0,12,839.5,300.4)" />
<use xlink:href="#f0_2l" transform="matrix(12,0,0,12,845,300.4)" />
</g>
<path fill-rule="evenodd" d="M52.8,344.4H856.9V305.5H52.8v38.9Z" class="g0_63" />
<g fill="#000000" >
<use xlink:href="#f0_25" transform="matrix(12,0,0,12,55,327.9)" />
<use xlink:href="#f0_2a" transform="matrix(12,0,0,12,60.5,327.9)" />
<use xlink:href="#f0_2g" transform="matrix(12,0,0,12,75.9,327.9)" />
<use xlink:href="#f0_24" transform="matrix(12,0,0,12,81.8,327.9)" />
<use xlink:href="#f0_21" transform="matrix(12,0,0,12,92.4,327.9)" />
<use xlink:href="#f0_2e" transform="matrix(12,0,0,12,105.9,327.9)" />
<use xlink:href="#f0_1x" transform="matrix(12,0,0,12,113.3,327.9)" />
<use xlink:href="#f0_2g" transform="matrix(12,0,0,12,122.4,327.9)" />
<use xlink:href="#f0_25" transform="matrix(12,0,0,12,128.3,327.9)" />
<use xlink:href="#f0_2b" transform="matrix(12,0,0,12,133.8,327.9)" />
<use xlink:href="#f0_m" transform="matrix(12,0,0,12,148.2,327.9)" />
<use xlink:href="#f0_u" transform="matrix(12,0,0,12,157.4,327.9)" />
<use xlink:href="#f0_n" transform="matrix(12,0,0,12,166.5,327.9)" />
<use xlink:href="#f0_i" transform="matrix(12,0,0,12,175.7,327.9)" />
<use xlink:href="#f0_1k" transform="matrix(12,0,0,12,184.9,327.9)" />
<use xlink:href="#f0_24" transform="matrix(12,0,0,12,196.2,327.9)" />
<use xlink:href="#f0_21" transform="matrix(12,0,0,12,206.9,327.9)" />
<use xlink:href="#f0_2a" transform="matrix(12,0,0,12,215.7,327.9)" />
</g>
<path fill-rule="evenodd" d="M52.8,410.8H856.9V344.4H52.8v66.4Z" class="g0_63" />
<path fill-rule="evenodd" d="M52.8,449.6H856.9V410.8H52.8v38.8Z" class="g0_63" />
<g fill="#000000" >
<use xlink:href="#f0_1k" transform="matrix(12,0,0,12,55,433.1)" />
<use xlink:href="#f0_24" transform="matrix(12,0,0,12,66.4,433.1)" />
<use xlink:href="#f0_21" transform="matrix(12,0,0,12,77.1,433.1)" />
<use xlink:href="#f0_2e" transform="matrix(12,0,0,12,85.8,433.1)" />
<use xlink:href="#f0_21" transform="matrix(12,0,0,12,93.1,433.1)" />
<use xlink:href="#f0_22" transform="matrix(12,0,0,12,101.9,433.1)" />
<use xlink:href="#f0_2b" transform="matrix(12,0,0,12,108.1,433.1)" />
<use xlink:href="#f0_2e" transform="matrix(12,0,0,12,118,433.1)" />
<use xlink:href="#f0_21" transform="matrix(12,0,0,12,125.4,433.1)" />
<use xlink:href="#f0_g" transform="matrix(12,0,0,12,134.1,433.1)" />
<use xlink:href="#f0_2g" transform="matrix(12,0,0,12,143.3,433.1)" />
<use xlink:href="#f0_24" transform="matrix(12,0,0,12,149.2,433.1)" />
<use xlink:href="#f0_21" transform="matrix(12,0,0,12,159.8,433.1)" />
<use xlink:href="#f0_2e" transform="matrix(12,0,0,12,173.4,433.1)" />
<use xlink:href="#f0_21" transform="matrix(12,0,0,12,180.7,433.1)" />
<use xlink:href="#f0_2d" transform="matrix(12,0,0,12,189.5,433.1)" />
<use xlink:href="#f0_2h" transform="matrix(12,0,0,12,199.7,433.1)" />
<use xlink:href="#f0_25" transform="matrix(12,0,0,12,210.4,433.1)" />
<use xlink:href="#f0_2e" transform="matrix(12,0,0,12,215.9,433.1)" />
<use xlink:href="#f0_21" transform="matrix(12,0,0,12,223.2,433.1)" />
<use xlink:href="#f0_20" transform="matrix(12,0,0,12,231.6,433.1)" />
<use xlink:href="#f0_2c" transform="matrix(12,0,0,12,247.7,433.1)" />
<use xlink:href="#f0_2b" transform="matrix(12,0,0,12,258.7,433.1)" />
<use xlink:href="#f0_25" transform="matrix(12,0,0,12,268.6,433.1)" />
<use xlink:href="#f0_2a" transform="matrix(12,0,0,12,274.1,433.1)" />
<use xlink:href="#f0_2g" transform="matrix(12,0,0,12,284.8,433.1)" />
<use xlink:href="#f0_25" transform="matrix(12,0,0,12,295,433.1)" />
<use xlink:href="#f0_2f" transform="matrix(12,0,0,12,300.5,433.1)" />
<use xlink:href="#f0_c" transform="matrix(12,0,0,12,312.9,433.1)" />
<use xlink:href="#f1_4z" transform="matrix(12,0,0,12,319.5,433.1)" />
<use xlink:href="#f0_n" transform="matrix(12,0,0,12,328.6,433.1)" />
<use xlink:href="#f0_g" transform="matrix(12,0,0,12,337.4,433.1)" />
<use xlink:href="#f1_4z" transform="matrix(12,0,0,12,347,433.1)" />
<use xlink:href="#f0_l" transform="matrix(12,0,0,12,356.2,433.1)" />
<use xlink:href="#f0_o" transform="matrix(12,0,0,12,365.4,433.1)" />
<use xlink:href="#f0_g" transform="matrix(12,0,0,12,374.2,433.1)" />
<use xlink:href="#f0_l" transform="matrix(12,0,0,12,383.6,433.1)" />
<use xlink:href="#f0_t" transform="matrix(12,0,0,12,392.8,433.1)" />
<use xlink:href="#f0_d" transform="matrix(12,0,0,12,401.6,433.1)" />
<use xlink:href="#f0_i" transform="matrix(12,0,0,12,407.8,433.1)" />
</g>
<path fill-rule="evenodd" d="M52.8,488.9H856.9V449.6H52.8v39.3Z" class="g0_63" />
<g fill="#C00000" >
<use xlink:href="#f2_13" transform="matrix(12,0,0,12,55,472.4)" />
<use xlink:href="#f2_2b" transform="matrix(12,0,0,12,68.3,472.4)" />
<use xlink:href="#f2_2b" transform="matrix(12,0,0,12,78.5,472.4)" />
<use xlink:href="#f2_2e" transform="matrix(12,0,0,12,88.8,472.4)" />
<use xlink:href="#f2_20" transform="matrix(12,0,0,12,95.7,472.4)" />
<use xlink:href="#f2_25" transform="matrix(12,0,0,12,107.1,472.4)" />
<use xlink:href="#f2_2a" transform="matrix(12,0,0,12,113.3,472.4)" />
<use xlink:href="#f2_1x" transform="matrix(12,0,0,12,124.6,472.4)" />
<use xlink:href="#f2_2g" transform="matrix(12,0,0,12,133.8,472.4)" />
<use xlink:href="#f2_21" transform="matrix(12,0,0,12,140,472.4)" />
<use xlink:href="#f2_2f" transform="matrix(12,0,0,12,149.2,472.4)" />
<use xlink:href="#f2_2b" transform="matrix(12,0,0,12,161.6,472.4)" />
<use xlink:href="#f2_22" transform="matrix(12,0,0,12,171.9,472.4)" />
<use xlink:href="#f2_1x" transform="matrix(12,0,0,12,183.6,472.4)" />
<use xlink:href="#f2_1k" transform="matrix(12,0,0,12,197.1,472.4)" />
<use xlink:href="#f2_2e" transform="matrix(12,0,0,12,209.2,472.4)" />
<use xlink:href="#f2_25" transform="matrix(12,0,0,12,216.2,472.4)" />
<use xlink:href="#f2_1x" transform="matrix(12,0,0,12,222.4,472.4)" />
<use xlink:href="#f2_2a" transform="matrix(12,0,0,12,231.6,472.4)" />
<use xlink:href="#f2_23" transform="matrix(12,0,0,12,242.9,472.4)" />
<use xlink:href="#f2_28" transform="matrix(12,0,0,12,253.2,472.4)" />
<use xlink:href="#f2_21" transform="matrix(12,0,0,12,259.4,472.4)" />
</g>
<path fill-rule="evenodd" d="M52.8,516.4H856.9V488.9H52.8v27.5Z" class="g0_63" />
<g fill="#000000" >
<use xlink:href="#f3_2b" transform="matrix(12,0,0,12,55,511.3)" />
<use xlink:href="#f0_1c" transform="matrix(12,0,0,12,82.5,511.3)" />
<use xlink:href="#f0_21" transform="matrix(12,0,0,12,93.9,511.3)" />
<use xlink:href="#f0_2g" transform="matrix(12,0,0,12,102.7,511.3)" />
<use xlink:href="#f0_11" transform="matrix(12,0,0,12,113.3,511.3)" />
<use xlink:href="#f0_12" transform="matrix(12,0,0,12,127.6,511.3)" />
<use xlink:href="#f0_13" transform="matrix(12,0,0,12,138.9,511.3)" />
<use xlink:href="#f0_1y" transform="matrix(12,0,0,12,156.2,511.3)" />
<use xlink:href="#f0_21" transform="matrix(12,0,0,12,166.4,511.3)" />
<use xlink:href="#f0_2g" transform="matrix(12,0,0,12,180,511.3)" />
<use xlink:href="#f0_24" transform="matrix(12,0,0,12,185.8,511.3)" />
<use xlink:href="#f0_21" transform="matrix(12,0,0,12,196.5,511.3)" />
<use xlink:href="#f0_2g" transform="matrix(12,0,0,12,210,511.3)" />
<use xlink:href="#f0_2e" transform="matrix(12,0,0,12,215.9,511.3)" />
<use xlink:href="#f0_25" transform="matrix(12,0,0,12,222.9,511.3)" />
<use xlink:href="#f0_1x" transform="matrix(12,0,0,12,228.3,511.3)" />
<use xlink:href="#f0_2a" transform="matrix(12,0,0,12,237.5,511.3)" />
<use xlink:href="#f0_23" transform="matrix(12,0,0,12,248.2,511.3)" />
<use xlink:href="#f0_28" transform="matrix(12,0,0,12,258.4,511.3)" />
<use xlink:href="#f0_21" transform="matrix(12,0,0,12,263.9,511.3)" />
<use xlink:href="#f0_i" transform="matrix(12,0,0,12,272.3,511.3)" />
</g>
<path fill-rule="evenodd" d="M52.8,543.9H856.9V516.4H52.8v27.5Z" class="g0_63" />
<g fill="#000000" >
<use xlink:href="#f3_2b" transform="matrix(12,0,0,12,55,538.8)" />
<use xlink:href="#f0_1c" transform="matrix(12,0,0,12,82.5,538.8)" />
<use xlink:href="#f0_21" transform="matrix(12,0,0,12,93.9,538.8)" />
<use xlink:href="#f0_2g" transform="matrix(12,0,0,12,102.7,538.8)" />
<use xlink:href="#f0_2g" transform="matrix(12,0,0,12,113.3,538.8)" />
<use xlink:href="#f0_24" transform="matrix(12,0,0,12,119.2,538.8)" />
<use xlink:href="#f0_21" transform="matrix(12,0,0,12,129.9,538.8)" />
<use xlink:href="#f0_1z" transform="matrix(12,0,0,12,143.4,538.8)" />
<use xlink:href="#f0_2b" transform="matrix(12,0,0,12,151.5,538.8)" />
<use xlink:href="#f0_2b" transform="matrix(12,0,0,12,161.4,538.8)" />
<use xlink:href="#f0_2e" transform="matrix(12,0,0,12,171.3,538.8)" />
<use xlink:href="#f0_20" transform="matrix(12,0,0,12,178.6,538.8)" />
<use xlink:href="#f0_25" transform="matrix(12,0,0,12,189.9,538.8)" />
<use xlink:href="#f0_2a" transform="matrix(12,0,0,12,195.4,538.8)" />
<use xlink:href="#f0_1x" transform="matrix(12,0,0,12,206.1,538.8)" />
<use xlink:href="#f0_2g" transform="matrix(12,0,0,12,215.2,538.8)" />
<use xlink:href="#f0_21" transform="matrix(12,0,0,12,221.1,538.8)" />
<use xlink:href="#f0_2f" transform="matrix(12,0,0,12,229.8,538.8)" />
<use xlink:href="#f0_2b" transform="matrix(12,0,0,12,242.3,538.8)" />
<use xlink:href="#f0_22" transform="matrix(12,0,0,12,252.2,538.8)" />
<use xlink:href="#f0_2g" transform="matrix(12,0,0,12,262.8,538.8)" />
<use xlink:href="#f0_24" transform="matrix(12,0,0,12,268.7,538.8)" />
<use xlink:href="#f0_21" transform="matrix(12,0,0,12,279.4,538.8)" />
<use xlink:href="#f0_2i" transform="matrix(12,0,0,12,292.9,538.8)" />
<use xlink:href="#f0_21" transform="matrix(12,0,0,12,303.1,538.8)" />
<use xlink:href="#f0_2e" transform="matrix(12,0,0,12,311.9,538.8)" />
<use xlink:href="#f0_2g" transform="matrix(12,0,0,12,319.3,538.8)" />
<use xlink:href="#f0_25" transform="matrix(12,0,0,12,325.1,538.8)" />
<use xlink:href="#f0_1z" transform="matrix(12,0,0,12,330.6,538.8)" />
<use xlink:href="#f0_21" transform="matrix(12,0,0,12,338.7,538.8)" />
<use xlink:href="#f0_2f" transform="matrix(12,0,0,12,347.5,538.8)" />
<use xlink:href="#f0_11" transform="matrix(12,0,0,12,359.9,538.8)" />
<use xlink:href="#f0_g" transform="matrix(12,0,0,12,373.9,538.8)" />
<use xlink:href="#f0_12" transform="matrix(12,0,0,12,383,538.8)" />
<use xlink:href="#f0_g" transform="matrix(12,0,0,12,394.7,538.8)" />
<use xlink:href="#f0_13" transform="matrix(12,0,0,12,403.8,538.8)" />
<use xlink:href="#f0_1y" transform="matrix(12,0,0,12,421.5,538.8)" />
<use xlink:href="#f0_21" transform="matrix(12,0,0,12,431.7,538.8)" />
<use xlink:href="#f0_c" transform="matrix(12,0,0,12,445,538.8)" />
<use xlink:href="#f0_2k" transform="matrix(12,0,0,12,450.8,538.8)" />
<use xlink:href="#f0_l" transform="matrix(7.9,0,0,7.9,460.4,540.3)" />
<use xlink:href="#f0_g" transform="matrix(12,0,0,12,466.6,538.8)" />
<use xlink:href="#f0_2l" transform="matrix(12,0,0,12,475.7,538.8)" />
<use xlink:href="#f0_l" transform="matrix(7.9,0,0,7.9,486,540.3)" />
<use xlink:href="#f0_g" transform="matrix(12,0,0,12,491.9,538.8)" />
<use xlink:href="#f0_2m" transform="matrix(12,0,0,12,501.4,538.8)" />
<use xlink:href="#f0_l" transform="matrix(7.9,0,0,7.9,510.6,540.3)" />
<use xlink:href="#f0_d" transform="matrix(12,0,0,12,516.4,538.8)" />
<use xlink:href="#f0_g" transform="matrix(12,0,0,12,522.7,538.8)" />
<use xlink:href="#f0_c" transform="matrix(12,0,0,12,531.9,538.8)" />
<use xlink:href="#f0_2k" transform="matrix(12,0,0,12,538.1,538.8)" />
<use xlink:href="#f0_m" transform="matrix(7.9,0,0,7.9,547.3,540.3)" />
<use xlink:href="#f0_g" transform="matrix(12,0,0,12,553.5,538.8)" />
<use xlink:href="#f0_2l" transform="matrix(12,0,0,12,562.7,538.8)" />
<use xlink:href="#f0_m" transform="matrix(7.9,0,0,7.9,572.9,540.3)" />
<use xlink:href="#f0_g" transform="matrix(12,0,0,12,578.8,538.8)" />
<use xlink:href="#f0_2m" transform="matrix(12,0,0,12,588.3,538.8)" />
<use xlink:href="#f0_m" transform="matrix(7.9,0,0,7.9,597.1,540.3)" />
<use xlink:href="#f0_d" transform="matrix(12,0,0,12,603.4,538.8)" />
<use xlink:href="#f0_g" transform="matrix(12,0,0,12,609.6,538.8)" />
<use xlink:href="#f0_c" transform="matrix(12,0,0,12,618.8,538.8)" />
<use xlink:href="#f0_2k" transform="matrix(12,0,0,12,625,538.8)" />
<use xlink:href="#f0_n" transform="matrix(7.9,0,0,7.9,634.2,540.3)" />
<use xlink:href="#f0_g" transform="matrix(12,0,0,12,640.5,538.8)" />
<use xlink:href="#f0_2l" transform="matrix(12,0,0,12,649.6,538.8)" />
<use xlink:href="#f0_n" transform="matrix(7.9,0,0,7.9,659.9,540.3)" />
<use xlink:href="#f0_g" transform="matrix(12,0,0,12,665.8,538.8)" />
<use xlink:href="#f0_2m" transform="matrix(12,0,0,12,675.3,538.8)" />
<use xlink:href="#f0_n" transform="matrix(7.9,0,0,7.9,684.1,540.3)" />
<use xlink:href="#f0_d" transform="matrix(12,0,0,12,690.3,538.8)" />
<use xlink:href="#f0_g" transform="matrix(12,0,0,12,696.2,538.8)" />
<use xlink:href="#f0_2e" transform="matrix(12,0,0,12,705.7,538.8)" />
<use xlink:href="#f0_21" transform="matrix(12,0,0,12,713,538.8)" />
<use xlink:href="#f0_2f" transform="matrix(12,0,0,12,721.8,538.8)" />
<use xlink:href="#f0_2c" transform="matrix(12,0,0,12,729.5,538.8)" />
<use xlink:href="#f0_21" transform="matrix(12,0,0,12,740.6,538.8)" />
<use xlink:href="#f0_1z" transform="matrix(12,0,0,12,749.3,538.8)" />
<use xlink:href="#f0_2g" transform="matrix(12,0,0,12,757.4,538.8)" />
<use xlink:href="#f0_25" transform="matrix(12,0,0,12,763.3,538.8)" />
<use xlink:href="#f0_2i" transform="matrix(12,0,0,12,768.8,538.8)" />
<use xlink:href="#f0_21" transform="matrix(12,0,0,12,779,538.8)" />
<use xlink:href="#f0_28" transform="matrix(12,0,0,12,787.8,538.8)" />
<use xlink:href="#f0_2l" transform="matrix(12,0,0,12,793,538.8)" />
<use xlink:href="#f0_i" transform="matrix(12,0,0,12,803.2,538.8)" />
<use xlink:href="#f0_1c" transform="matrix(12,0,0,12,812.5,538.8)" />
<use xlink:href="#f0_21" transform="matrix(12,0,0,12,823.5,538.8)" />
<use xlink:href="#f0_2g" transform="matrix(12,0,0,12,832.2,538.8)" />
</g>
<path fill-rule="evenodd" d="M52.8,571.4H856.9V543.9H52.8v27.5Z" class="g0_63" />
<g fill="#000000" >
<use xlink:href="#f3_2b" transform="matrix(12,0,0,12,55,566.3)" />
<use xlink:href="#f0_14" transform="matrix(12,0,0,12,82.5,566.3)" />
<use xlink:href="#f0_1y" transform="matrix(12,0,0,12,101.6,566.3)" />
<use xlink:href="#f0_21" transform="matrix(12,0,0,12,111.8,566.3)" />
<use xlink:href="#f0_2g" transform="matrix(12,0,0,12,125,566.3)" />
<use xlink:href="#f0_24" transform="matrix(12,0,0,12,130.9,566.3)" />
<use xlink:href="#f0_21" transform="matrix(12,0,0,12,141.5,566.3)" />
<use xlink:href="#f0_29" transform="matrix(12,0,0,12,155,566.3)" />
<use xlink:href="#f0_25" transform="matrix(12,0,0,12,171.2,566.3)" />
<use xlink:href="#f0_20" transform="matrix(12,0,0,12,176.3,566.3)" />
<use xlink:href="#f0_h" transform="matrix(12,0,0,12,187.8,566.3)" />
<use xlink:href="#f0_2c" transform="matrix(12,0,0,12,194,566.3)" />
<use xlink:href="#f0_2b" transform="matrix(12,0,0,12,205.1,566.3)" />
<use xlink:href="#f0_25" transform="matrix(12,0,0,12,214.9,566.3)" />
<use xlink:href="#f0_2a" transform="matrix(12,0,0,12,220.4,566.3)" />
<use xlink:href="#f0_2g" transform="matrix(12,0,0,12,231.1,566.3)" />
<use xlink:href="#f0_2b" transform="matrix(12,0,0,12,241.7,566.3)" />
<use xlink:href="#f0_22" transform="matrix(12,0,0,12,251.6,566.3)" />
<use xlink:href="#f0_12" transform="matrix(12,0,0,12,262.2,566.3)" />
<use xlink:href="#f0_13" transform="matrix(12,0,0,12,273.5,566.3)" />
<use xlink:href="#f0_i" transform="matrix(12,0,0,12,286.4,566.3)" />
</g>
<path fill-rule="evenodd" d="M52.8,598.9H856.9V571.4H52.8v27.5Z" class="g0_63" />
<g fill="#000000" >
<use xlink:href="#f3_2b" transform="matrix(12,0,0,12,55,593.8)" />
<use xlink:href="#f0_18" transform="matrix(12,0,0,12,82.5,593.8)" />
<use xlink:href="#f0_21" transform="matrix(12,0,0,12,97.9,593.8)" />
<use xlink:href="#f0_2a" transform="matrix(12,0,0,12,106.7,593.8)" />
<use xlink:href="#f0_1z" transform="matrix(12,0,0,12,117.4,593.8)" />
<use xlink:href="#f0_21" transform="matrix(12,0,0,12,125.4,593.8)" />
<use xlink:href="#f0_1z" transform="matrix(12,0,0,12,139,593.8)" />
<use xlink:href="#f0_2b" transform="matrix(12,0,0,12,147,593.8)" />
<use xlink:href="#f0_2b" transform="matrix(12,0,0,12,156.9,593.8)" />
<use xlink:href="#f0_2e" transform="matrix(12,0,0,12,166.8,593.8)" />
<use xlink:href="#f0_20" transform="matrix(12,0,0,12,174.1,593.8)" />
<use xlink:href="#f0_25" transform="matrix(12,0,0,12,185.5,593.8)" />
<use xlink:href="#f0_2a" transform="matrix(12,0,0,12,191,593.8)" />
<use xlink:href="#f0_1x" transform="matrix(12,0,0,12,201.6,593.8)" />
<use xlink:href="#f0_2g" transform="matrix(12,0,0,12,210.8,593.8)" />
<use xlink:href="#f0_21" transform="matrix(12,0,0,12,216.6,593.8)" />
<use xlink:href="#f0_2f" transform="matrix(12,0,0,12,225.4,593.8)" />
<use xlink:href="#f0_2b" transform="matrix(12,0,0,12,237.9,593.8)" />
<use xlink:href="#f0_22" transform="matrix(12,0,0,12,247.8,593.8)" />
<use xlink:href="#f0_14" transform="matrix(12,0,0,12,258.4,593.8)" />
<use xlink:href="#f0_1x" transform="matrix(12,0,0,12,277.4,593.8)" />
<use xlink:href="#f0_2e" transform="matrix(12,0,0,12,286.2,593.8)" />
<use xlink:href="#f0_21" transform="matrix(12,0,0,12,293.6,593.8)" />
</g>
<path fill-rule="evenodd" d="M80.3,674.5H856.9V610.3H80.3v64.2Z" class="g0_63" />
<path fill-rule="evenodd" d="M52.8,713.3H856.9V690.6H52.8v22.7Z" class="g0_63" />
<g fill="#000000" >
<use xlink:href="#f3_2b" transform="matrix(12,0,0,12,55,708.2)" />
<use xlink:href="#f0_1c" transform="matrix(12,0,0,12,82.5,708.2)" />
<use xlink:href="#f0_21" transform="matrix(12,0,0,12,93.9,708.2)" />
<use xlink:href="#f0_2g" transform="matrix(12,0,0,12,102.7,708.2)" />
<use xlink:href="#f0_17" transform="matrix(12,0,0,12,113,708.2)" />
<use xlink:href="#f0_1y" transform="matrix(12,0,0,12,130.9,708.2)" />
<use xlink:href="#f0_21" transform="matrix(12,0,0,12,141.2,708.2)" />
<use xlink:href="#f0_2g" transform="matrix(12,0,0,12,154,708.2)" />
<use xlink:href="#f0_24" transform="matrix(12,0,0,12,159.9,708.2)" />
<use xlink:href="#f0_21" transform="matrix(12,0,0,12,170.5,708.2)" />
<use xlink:href="#f0_1z" transform="matrix(12,0,0,12,183.7,708.2)" />
<use xlink:href="#f0_21" transform="matrix(12,0,0,12,191.8,708.2)" />
<use xlink:href="#f0_2a" transform="matrix(12,0,0,12,200.5,708.2)" />
<use xlink:href="#f0_2g" transform="matrix(12,0,0,12,211.2,708.2)" />
<use xlink:href="#f0_2e" transform="matrix(12,0,0,12,217.1,708.2)" />
<use xlink:href="#f0_2b" transform="matrix(12,0,0,12,224.4,708.2)" />
<use xlink:href="#f0_25" transform="matrix(12,0,0,12,234.3,708.2)" />
<use xlink:href="#f0_20" transform="matrix(12,0,0,12,239.8,708.2)" />
<use xlink:href="#f0_2b" transform="matrix(12,0,0,12,255.2,708.2)" />
<use xlink:href="#f0_22" transform="matrix(12,0,0,12,265.1,708.2)" />
<use xlink:href="#f0_2g" transform="matrix(12,0,0,12,275.3,708.2)" />
<use xlink:href="#f0_24" transform="matrix(12,0,0,12,281.2,708.2)" />
<use xlink:href="#f0_21" transform="matrix(12,0,0,12,291.9,708.2)" />
<use xlink:href="#f0_2g" transform="matrix(12,0,0,12,305,708.2)" />
<use xlink:href="#f0_2e" transform="matrix(12,0,0,12,310.9,708.2)" />
<use xlink:href="#f0_25" transform="matrix(12,0,0,12,317.9,708.2)" />
<use xlink:href="#f0_1x" transform="matrix(12,0,0,12,323.3,708.2)" />
<use xlink:href="#f0_2a" transform="matrix(12,0,0,12,332.5,708.2)" />
<use xlink:href="#f0_23" transform="matrix(12,0,0,12,343.2,708.2)" />
<use xlink:href="#f0_28" transform="matrix(12,0,0,12,353.4,708.2)" />
<use xlink:href="#f0_21" transform="matrix(12,0,0,12,358.9,708.2)" />
<use xlink:href="#f0_i" transform="matrix(12,0,0,12,367.3,708.2)" />
<use xlink:href="#f0_1k" transform="matrix(12,0,0,12,376.1,708.2)" />
<use xlink:href="#f0_24" transform="matrix(12,0,0,12,387.5,708.2)" />
<use xlink:href="#f0_21" transform="matrix(12,0,0,12,398.1,708.2)" />
<use xlink:href="#f0_2e" transform="matrix(12,0,0,12,406.9,708.2)" />
<use xlink:href="#f0_21" transform="matrix(12,0,0,12,414.2,708.2)" />
<use xlink:href="#f0_22" transform="matrix(12,0,0,12,423,708.2)" />
<use xlink:href="#f0_2b" transform="matrix(12,0,0,12,429.2,708.2)" />
<use xlink:href="#f0_2e" transform="matrix(12,0,0,12,439.1,708.2)" />
<use xlink:href="#f0_21" transform="matrix(12,0,0,12,446.4,708.2)" />
<use xlink:href="#f0_g" transform="matrix(12,0,0,12,454.9,708.2)" />
<use xlink:href="#f0_25" transform="matrix(12,0,0,12,463.6,708.2)" />
<use xlink:href="#f0_2g" transform="matrix(12,0,0,12,469.1,708.2)" />
<use xlink:href="#f0_20" transform="matrix(12,0,0,12,479,708.2)" />
<use xlink:href="#f0_25" transform="matrix(12,0,0,12,490.4,708.2)" />
<use xlink:href="#f0_2i" transform="matrix(12,0,0,12,495.9,708.2)" />
<use xlink:href="#f0_25" transform="matrix(12,0,0,12,506.1,708.2)" />
<use xlink:href="#f0_20" transform="matrix(12,0,0,12,511.3,708.2)" />
<use xlink:href="#f0_21" transform="matrix(12,0,0,12,522.6,708.2)" />
<use xlink:href="#f0_2f" transform="matrix(12,0,0,12,531.4,708.2)" />
<use xlink:href="#f0_2g" transform="matrix(12,0,0,12,543.5,708.2)" />
<use xlink:href="#f0_24" transform="matrix(12,0,0,12,549.4,708.2)" />
<use xlink:href="#f0_21" transform="matrix(12,0,0,12,560,708.2)" />
<use xlink:href="#f0_29" transform="matrix(12,0,0,12,572.8,708.2)" />
<use xlink:href="#f0_21" transform="matrix(12,0,0,12,589,708.2)" />
<use xlink:href="#f0_20" transform="matrix(12,0,0,12,597.8,708.2)" />
<use xlink:href="#f0_25" transform="matrix(12,0,0,12,609.1,708.2)" />
<use xlink:href="#f0_1x" transform="matrix(12,0,0,12,614.6,708.2)" />
<use xlink:href="#f0_2a" transform="matrix(12,0,0,12,623.8,708.2)" />
<use xlink:href="#f0_11" transform="matrix(12,0,0,12,638.4,708.2)" />
<use xlink:href="#f0_14" transform="matrix(12,0,0,12,652.7,708.2)" />
<use xlink:href="#f0_25" transform="matrix(12,0,0,12,670.7,708.2)" />
<use xlink:href="#f0_2a" transform="matrix(12,0,0,12,676.2,708.2)" />
<use xlink:href="#f0_2g" transform="matrix(12,0,0,12,691.2,708.2)" />
<use xlink:href="#f0_24" transform="matrix(12,0,0,12,697.1,708.2)" />
<use xlink:href="#f0_21" transform="matrix(12,0,0,12,707.8,708.2)" />
<use xlink:href="#f0_2e" transform="matrix(12,0,0,12,720.6,708.2)" />
<use xlink:href="#f0_1x" transform="matrix(12,0,0,12,727.9,708.2)" />
<use xlink:href="#f0_2g" transform="matrix(12,0,0,12,737,708.2)" />
<use xlink:href="#f0_25" transform="matrix(12,0,0,12,742.9,708.2)" />
<use xlink:href="#f0_2b" transform="matrix(12,0,0,12,748.4,708.2)" />
<use xlink:href="#f0_m" transform="matrix(12,0,0,12,763.3,708.2)" />
<use xlink:href="#f0_u" transform="matrix(12,0,0,12,772.1,708.2)" />
<use xlink:href="#f0_l" transform="matrix(12,0,0,12,780.9,708.2)" />
<use xlink:href="#f0_i" transform="matrix(12,0,0,12,790.1,708.2)" />
<use xlink:href="#f0_18" transform="matrix(12,0,0,12,798.9,708.2)" />
<use xlink:href="#f0_21" transform="matrix(12,0,0,12,814.3,708.2)" />
<use xlink:href="#f0_2a" transform="matrix(12,0,0,12,822.7,708.2)" />
<use xlink:href="#f0_1z" transform="matrix(12,0,0,12,833.4,708.2)" />
<use xlink:href="#f0_21" transform="matrix(12,0,0,12,841.4,708.2)" />
<use xlink:href="#f0_g" transform="matrix(12,0,0,12,850.2,708.2)" />
</g>
<path fill-rule="evenodd" d="M52.8,752.2H856.9V718.1H52.8v34.1Z" class="g0_63" />
<g fill="#000000" >
<use xlink:href="#f0_2g" transform="matrix(12,0,0,12,82.5,735.7)" />
<use xlink:href="#f0_24" transform="matrix(12,0,0,12,88.4,735.7)" />
<use xlink:href="#f0_21" transform="matrix(12,0,0,12,99.1,735.7)" />
<use xlink:href="#f0_1z" transform="matrix(12,0,0,12,112.6,735.7)" />
<use xlink:href="#f0_2b" transform="matrix(12,0,0,12,120.7,735.7)" />
<use xlink:href="#f0_2b" transform="matrix(12,0,0,12,130.6,735.7)" />
<use xlink:href="#f0_2e" transform="matrix(12,0,0,12,140.5,735.7)" />
<use xlink:href="#f0_20" transform="matrix(12,0,0,12,147.8,735.7)" />
<use xlink:href="#f0_25" transform="matrix(12,0,0,12,159.1,735.7)" />
<use xlink:href="#f0_2a" transform="matrix(12,0,0,12,164.6,735.7)" />
<use xlink:href="#f0_1x" transform="matrix(12,0,0,12,175.3,735.7)" />
<use xlink:href="#f0_2g" transform="matrix(12,0,0,12,184.4,735.7)" />
<use xlink:href="#f0_21" transform="matrix(12,0,0,12,190.3,735.7)" />
<use xlink:href="#f0_2f" transform="matrix(12,0,0,12,199,735.7)" />
<use xlink:href="#f0_2b" transform="matrix(12,0,0,12,211.5,735.7)" />
<use xlink:href="#f0_22" transform="matrix(12,0,0,12,221.4,735.7)" />
<use xlink:href="#f0_17" transform="matrix(12,0,0,12,232.4,735.7)" />
<use xlink:href="#f0_1x" transform="matrix(12,0,0,12,251.1,735.7)" />
<use xlink:href="#f0_2e" transform="matrix(12,0,0,12,259.9,735.7)" />
<use xlink:href="#f0_21" transform="matrix(12,0,0,12,267.2,735.7)" />
</g>
<path fill-rule="evenodd" d="M52.8,936.7H856.9V752.3H52.8V936.7Z" class="g0_63" />
<image preserveAspectRatio="none" x="55" y="141" width="587" height="58" xlink:href="img/1.png" />
<image preserveAspectRatio="none" x="275" y="211" width="79" height="49" xlink:href="img/2.png" />
<image preserveAspectRatio="none" x="55" y="344" width="579" height="55" xlink:href="img/3.png" />
<image preserveAspectRatio="none" x="83" y="610" width="232" height="64" xlink:href="img/4.png" />
<image preserveAspectRatio="none" x="55" y="752" width="420" height="185" xlink:href="img/5.png" />
<path fill-rule="evenodd" d="M37.4,38.1h.7v-.7h-.7v.7Z" class="g1_63" />
<path fill-rule="evenodd" d="M37.4,38.1h.7v-.7h-.7v.7Z" class="g1_63" />
<path fill-rule="evenodd" d="M871.5,38.1h.8v-.7h-.8v.7Z" class="g1_63" />
<path fill-rule="evenodd" d="M871.5,38.1h.8v-.7h-.8v.7Z" class="g1_63" />
<path fill-rule="evenodd" d="M872.3,1248.5h.7V38.1h-.7V1248.5Z" class="g2_63" />
<path fill-rule="evenodd" d="M37.4,1249.2h.7v-.7h-.7v.7Z" class="g1_63" />
<path fill-rule="evenodd" d="M37.4,1249.2h.7v-.7h-.7v.7Z" class="g1_63" />
<path fill-rule="evenodd" d="M38.1,1249.9H871.5v-.7H38.1v.7Z" class="g2_63" />
<path fill-rule="evenodd" d="M872.3,1249.9h.7v-1.4h-.7v1.4Z" class="g2_63" />
<path fill-rule="evenodd" d="M871.5,1249.9H873v-.7h-1.5v.7Z" class="g2_63" />
<path fill-rule="evenodd" d="M871.5,1249.2h.8v-.7h-.8v.7Z" class="g1_63" />
<path fill-rule="evenodd" d="M871.5,1249.2h.8v-.7h-.8v.7Z" class="g1_63" />
<g fill="#000000" >
<use xlink:href="#f4_r" transform="matrix(8,0,0,8,792.5,1225.6)" />
</g>
<defs>
<path d="M443,-410c0,0,-126,125,-192,236c0,0,-66,111,-102,245c0,0,-37,134,-37,284c0,0,0,172,48,318c0,0,47,146,118,247c0,0,72,101,170,192l32,-41c0,0,-87,-103,-136,-204c0,0,-50,-100,-76,-219c0,0,-25,-120,-25,-275c0,0,0,-165,23,-291c0,0,24,-125,69,-222c0,0,44,-97,145,-233l-37,-37Z" 
id="f0_c"
transform="scale(0.001,-0.001)" />

<path d="M38,-4V38l64,7c0,0,37,3,46,14c0,0,8,11,11,72c0,0,3,95,3,262c0,0,0,116,-3,178c0,0,-2,24,-13,33c0,0,-12,10,-52,10H38v43c0,0,91,13,134,24c0,0,43,11,110,38l18,-12c0,0,-5,-55,-6,-123c0,0,-6,-217,-6,-321c0,0,0,-97,7,-165c0,0,3,-27,14,-37c0,0,11,-11,54,-16l51,-7V-4c0,0,-109,4,-199,4C215,0,128,0,38,-4ZM222,880c0,0,-35,0,-59,25c0,0,-25,24,-25,59c0,0,0,35,25,60c0,0,24,25,59,25c0,0,35,0,59,-25c0,0,25,-25,25,-60c0,0,0,-35,-25,-59c0,0,-24,-25,-59,-25Z" 
id="f0_25"
transform="scale(0.001,-0.001)" />

<path d="M61,-410l-32,41c0,0,87,103,136,203c0,0,50,101,76,219c0,0,26,120,26,275c0,0,0,165,-24,291c0,0,-25,127,-69,224c0,0,-45,97,-145,231l38,38c0,0,124,-124,191,-236c0,0,66,-111,103,-246c0,0,36,-134,36,-284c0,0,0,-172,-47,-317c0,0,-47,-145,-119,-246c0,0,-72,-101,-170,-193Z" 
id="f0_d"
transform="scale(0.001,-0.001)" />

<path d="M110,-7V31c0,0,59,26,70,56c0,0,11,30,11,237V734c0,0,0,224,-11,249c0,0,-11,26,-61,26H38v47c0,0,177,-5,235,-5c0,0,78,0,210,5v-47H391c0,0,-40,0,-50,-23c0,0,-11,-22,-11,-189V322l3,-210L330,68c0,0,74,-3,143,-3c0,0,140,0,219,7c0,0,55,6,114,22l45,175h49C900,269,881,128,870,5C870,5,803,-5,687,-5L332,0c0,0,-71,0,-222,-7Z" 
id="f0_1c"
transform="scale(0.001,-0.001)" />

<path d="M442,407c0,0,56,0,108,5v42c0,0,0,65,-26,124c0,0,-17,37,-58,61c0,0,-41,24,-95,24c0,0,-84,0,-134,-61c0,0,-50,-61,-51,-190c0,0,116,-5,256,-5ZM380,-19c0,0,-152,0,-245,95c0,0,-93,96,-93,260c0,0,0,125,52,217c0,0,35,60,127,111c0,0,93,52,180,52c0,0,132,0,210,-78c0,0,77,-77,77,-217l-2,-44c0,0,-49,-11,-94,-15c0,0,-80,-6,-222,-6H184c0,0,4,-147,75,-222c0,0,72,-76,188,-76c0,0,53,0,104,17c0,0,52,17,103,51l12,-12L642,52C642,52,580,16,515,-1c0,0,-66,-18,-135,-18Z" 
id="f0_21"
transform="scale(0.001,-0.001)" />

<path d="M315,-19c0,0,-55,0,-94,19c0,0,-38,20,-55,52c0,0,-17,31,-17,96l3,144V575c0,0,-58,0,-119,-5v32c0,0,64,24,119,51c0,0,-1,107,-6,232c0,0,87,36,125,59l19,-15c0,0,-6,-59,-12,-276c0,0,91,0,148,2l60,3l-8,-76l-31,1L304,582H278V289c0,0,0,-115,7,-147c0,0,8,-32,30,-50c0,0,23,-18,58,-18c0,0,22,0,43,9c0,0,20,8,40,26L478,83L405,-1c0,0,-24,-8,-46,-13c0,0,-23,-5,-44,-5Z" 
id="f0_2g"
transform="scale(0.001,-0.001)" />

<path d="M34,-4V42h67c0,0,47,0,60,12c0,0,14,11,18,47c0,0,3,35,8,216V715l-2,155c0,0,-2,96,-21,117c0,0,-19,22,-93,22H34v47c0,0,93,-4,237,-4c0,0,84,0,187,5c0,0,68,3,103,3c0,0,180,0,262,-66c0,0,81,-65,81,-177c0,0,0,-81,-47,-156c0,0,-47,-75,-133,-121c0,0,-86,-45,-184,-45c0,0,-44,0,-111,14l-15,56c0,0,65,-16,109,-16c0,0,103,0,164,62c0,0,60,62,60,170c0,0,0,104,-65,163c0,0,-64,58,-192,58c0,0,-72,0,-158,-27c0,0,-5,-108,-5,-229V320c0,0,0,-224,13,-251c0,0,13,-27,88,-27h51V-4c0,0,-132,4,-207,4C272,0,205,0,34,-4Z" 
id="f0_1g"
transform="scale(0.001,-0.001)" />

<path d="M600,-22c0,0,-38,26,-64,59c0,0,-17,21,-165,244c0,0,-70,-86,-108,-139c0,0,-38,-53,-96,-146c0,0,-31,4,-57,4C110,0,83,0,37,-4V41c0,0,38,0,52,7c0,0,13,6,73,73c0,0,86,96,174,207c0,0,-138,206,-179,242c0,0,-41,35,-87,35c0,0,-13,0,-33,-2v40l143,70c0,0,47,-19,77,-54c0,0,50,-55,159,-234c0,0,98,129,198,276c0,0,29,-5,49,-5c0,0,15,0,65,5V658c0,0,-40,-2,-65,-24c0,0,-40,-35,-214,-252c0,0,101,-149,169,-237c0,0,46,-61,74,-76c0,0,18,-10,57,-10V16C749,16,680,0,600,-22Z" 
id="f0_2k"
transform="scale(0.001,-0.001)" />

<path d="M33,-221l-22,23c0,0,65,100,95,182c0,0,30,80,41,175c0,0,86,21,152,47l21,-22C320,184,277,80,228,-2c0,0,-50,-84,-132,-187L33,-221Z" 
id="f0_g"
transform="scale(0.001,-0.001)" />

<path d="M128,-430c0,0,-21,0,-44,7c0,0,-23,6,-46,19l34,117H90c0,0,20,-25,40,-37c0,0,20,-12,41,-12c0,0,47,0,85,45c0,0,38,44,117,249c0,0,-33,86,-131,329L173,458L117,589c0,0,-26,69,-78,69H9v43c0,0,77,-5,137,-5c0,0,46,0,215,5V658H306c0,0,-28,0,-41,-10c0,0,-13,-9,-13,-24c0,0,0,-11,14,-51c0,0,75,-207,177,-444c0,0,99,217,172,418c0,0,22,59,22,71c0,0,0,24,-51,32l-55,8v43c0,0,88,-5,157,-5c0,0,65,0,130,5V658H792c0,0,-17,0,-35,-10c0,0,-18,-10,-29,-28c0,0,-24,-38,-138,-290c0,0,-32,-69,-160,-374c0,0,-114,-259,-128,-284c0,0,-30,-49,-75,-76c0,0,-46,-26,-99,-26Z" 
id="f0_2l"
transform="scale(0.001,-0.001)" />

<path d="M39,-4L32,31c0,0,72,78,196,230c0,0,168,207,300,384c0,0,-187,0,-281,-6c0,0,-65,-4,-75,-13c0,0,-11,-10,-19,-64L143,499H100c0,0,8,72,8,126l-1,70l6,6c0,0,228,-5,346,-5c0,0,124,0,245,5V660c0,0,-39,-42,-76,-88L511,426c0,0,-74,-91,-288,-371l95,-2c0,0,155,0,269,10c0,0,44,5,56,18c0,0,13,14,26,92l9,45h44C722,218,703,79,704,3c0,0,-51,-5,-114,-5L319,0C319,0,153,0,39,-4Z" 
id="f0_2m"
transform="scale(0.001,-0.001)" />

<path d="M450,58c0,0,109,0,168,87c0,0,60,87,60,211c0,0,0,130,-58,198c0,0,-57,68,-155,68c0,0,-65,0,-119,-37c0,0,-53,-38,-74,-87c0,0,-7,-20,-7,-90V239c0,0,0,-81,6,-93c0,0,12,-24,64,-56c0,0,53,-32,115,-32ZM403,-19c0,0,-56,0,-100,15c0,0,-45,14,-93,51L150,-8L124,1c0,0,15,115,15,242V717c0,0,0,110,-7,225c0,0,-3,53,-12,62c0,0,-10,10,-44,10H12v42c0,0,64,7,134,22c0,0,47,9,101,30c0,0,8,4,14,4c0,0,16,0,16,-29l-4,-37c0,0,-5,-43,-6,-64c0,0,-2,-96,-2,-263V561l91,91c0,0,29,29,76,46c0,0,48,18,101,18c0,0,120,0,198,-83c0,0,77,-83,77,-220c0,0,0,-75,-27,-146c0,0,-27,-71,-66,-115c0,0,-18,-21,-100,-80C615,72,534,12,510,1c0,0,-45,-20,-107,-20Z" 
id="f0_1y"
transform="scale(0.001,-0.001)" />

<path d="M23,-4V38l47,6c0,0,44,5,56,12c0,0,11,7,14,33c0,0,6,40,6,180V772c0,0,0,199,-11,223c0,0,-6,16,-60,16H23v46c0,0,116,12,185,34l62,21c0,0,12,0,12,-16l-3,-31L275,931c0,0,-4,-101,-4,-157V574l98,86c0,0,34,32,67,44c0,0,33,12,80,12c0,0,83,0,144,-33c0,0,61,-34,84,-85c0,0,24,-52,24,-177L763,201c0,0,0,-75,6,-118c0,0,2,-18,12,-27c0,0,10,-9,44,-12l56,-6V-4c0,0,-72,4,-141,4c0,0,-59,0,-117,-4c0,0,14,186,14,367c0,0,0,122,-15,165c0,0,-16,43,-55,69c0,0,-40,25,-100,25c0,0,-62,0,-113,-30c0,0,-50,-29,-70,-68c0,0,-13,-27,-13,-131V263c0,0,0,-177,8,-196c0,0,8,-18,60,-23l65,-6V-4c0,0,-117,4,-187,4C217,0,143,0,23,-4Z" 
id="f0_24"
transform="scale(0.001,-0.001)" />

<path d="M487,58c0,0,118,0,180,88c0,0,63,89,63,211c0,0,0,82,-29,140c0,0,-29,59,-84,92c0,0,-55,33,-118,33c0,0,-45,0,-87,-18c0,0,-43,-18,-75,-49c0,0,-32,-32,-41,-59c0,0,-7,-20,-7,-106V156c0,0,48,-54,96,-76c0,0,47,-22,102,-22ZM30,-410v42H85c0,0,57,0,68,25c0,0,10,25,10,262V376c0,0,0,119,-6,184c0,0,-3,31,-14,41c0,0,-12,10,-54,10H30v46c0,0,104,11,205,43l45,18c0,0,12,0,12,-21l-2,-79l-1,-53l105,93c0,0,39,35,67,44c0,0,44,14,102,14c0,0,133,0,215,-82c0,0,82,-82,82,-212c0,0,0,-65,-19,-128c0,0,-19,-63,-45,-102c0,0,-27,-40,-61,-67c0,0,-11,-9,-90,-59L615,45C615,45,558,5,524,-6c0,0,-35,-13,-80,-13c0,0,-35,0,-73,11c0,0,-39,9,-82,28V-84c0,0,0,-162,5,-228c0,0,2,-29,19,-43c0,0,16,-13,69,-13h40v-42c0,0,-141,5,-207,5c0,0,-72,0,-185,-5Z" 
id="f0_2c"
transform="scale(0.001,-0.001)" />

<path d="M439,33c0,0,90,0,146,69c0,0,55,69,55,208c0,0,0,113,-32,195c0,0,-33,83,-87,120c0,0,-54,38,-120,38c0,0,-59,0,-107,-30c0,0,-47,-30,-70,-80c0,0,-30,-68,-30,-147c0,0,0,-154,63,-263c0,0,63,-110,182,-110ZM390,-19c0,0,-149,0,-243,100c0,0,-93,100,-93,272c0,0,0,103,48,186c0,0,47,83,133,130c0,0,87,47,196,47c0,0,159,0,255,-94c0,0,95,-94,95,-250c0,0,0,-185,-124,-294c0,0,-112,-97,-267,-97Z" 
id="f0_2b"
transform="scale(0.001,-0.001)" />

<path d="M20,-4V38H73c0,0,55,0,64,26c0,0,10,26,10,310c0,0,0,127,-3,199c0,0,-2,24,-12,33c0,0,-11,9,-59,9H20v43c0,0,63,7,114,20c0,0,50,13,114,39c0,0,6,3,12,3c0,0,12,0,12,-18l-1,-28L270,573L383,673c0,0,20,18,42,26c0,0,49,17,99,17c0,0,80,0,138,-33c0,0,58,-32,84,-84c0,0,25,-52,25,-162L768,202c0,0,0,-121,10,-140c0,0,14,-24,55,-24h53V-4c0,0,-79,4,-137,4c0,0,-56,0,-121,-4c0,0,14,144,14,392c0,0,0,100,-18,141c0,0,-17,42,-59,68c0,0,-41,25,-99,25c0,0,-73,0,-123,-37c0,0,-51,-36,-63,-80c0,0,-7,-29,-7,-152c0,0,0,-137,2,-254c0,0,1,-35,10,-44c0,0,19,-17,62,-17h53V-4c0,0,-126,4,-201,4C199,0,120,0,20,-4Z" 
id="f0_2a"
transform="scale(0.001,-0.001)" />

<path d="M313,-11c0,0,-63,215,-142,469L123,607c0,0,-9,25,-28,38c0,0,-19,13,-44,13H14v43c0,0,118,-5,182,-5c0,0,62,0,183,5V658H338c0,0,-46,0,-63,-10c0,0,-13,-8,-13,-24c0,0,0,-37,127,-462L550,514c0,0,37,82,84,200h37c0,0,32,-91,66,-175L891,149l114,306c0,0,33,90,43,135c0,0,3,19,3,30c0,0,0,17,-15,28c0,0,-15,10,-47,10H939v43c0,0,98,-5,174,-5c0,0,66,0,127,5V658h-34c0,0,-26,0,-49,-26c0,0,-23,-27,-129,-274c0,0,-88,-207,-137,-369H818c0,0,-33,92,-109,282L614,511C614,511,510,290,446,138c0,0,-29,-68,-57,-149Z" 
id="f0_2j"
transform="scale(0.001,-0.001)" />

<path d="M380,-19c0,0,-110,0,-187,41c0,0,-76,42,-118,121c0,0,-42,79,-42,188c0,0,0,96,32,167c0,0,32,71,90,111c0,0,58,40,145,79c0,0,61,28,137,28c0,0,57,0,99,-10c0,0,41,-9,89,-33c0,0,-19,-99,-21,-198H557v38c0,0,0,47,-13,67c0,0,-14,20,-63,39c0,0,-50,20,-108,20c0,0,-101,0,-155,-62c0,0,-55,-61,-55,-183c0,0,0,-157,81,-251c0,0,72,-85,187,-85c0,0,44,0,88,11c0,0,43,11,86,32L625,83L594,35C594,35,543,8,490,-5c0,0,-54,-14,-110,-14Z" 
id="f0_1z"
transform="scale(0.001,-0.001)" />

<path d="M431,74c0,0,59,0,109,33c0,0,50,34,73,87c0,0,23,53,23,166V542c0,0,-51,55,-107,83c0,0,-55,27,-115,27c0,0,-98,0,-157,-71c0,0,-59,-71,-59,-208c0,0,0,-140,68,-219c0,0,68,-80,165,-80ZM363,-19c0,0,-126,0,-211,94c0,0,-85,95,-85,253c0,0,0,99,33,169c0,0,33,70,78,102c0,0,46,32,142,80c0,0,73,37,136,37c0,0,42,0,87,-11c0,0,45,-12,93,-35V941c0,0,0,47,-10,59c0,0,-11,12,-48,12H514v45c0,0,133,9,248,55l14,-9c0,0,-6,-76,-9,-184L764,721l-2,-65V211c0,0,0,-125,8,-139c0,0,11,-20,61,-27l53,-7V-4c0,0,-92,6,-162,6c0,0,-12,0,-94,-6c0,0,5,50,8,142C636,138,573,89,475,1c0,0,-64,-20,-112,-20Z" 
id="f0_20"
transform="scale(0.001,-0.001)" />

<path d="M377,-11c0,0,-98,245,-200,477c0,0,-39,85,-47,109c0,0,-16,48,-37,66c0,0,-20,17,-52,17H16v43c0,0,110,-5,183,-5c0,0,78,0,171,5V658H337c0,0,-45,0,-64,-10c0,0,-13,-7,-13,-22c0,0,0,-13,14,-52c0,0,13,-38,180,-451L588,445c0,0,45,112,56,156c0,0,3,11,3,20c0,0,0,14,-10,21c0,0,-10,6,-50,11l-48,5v43c0,0,77,-5,137,-5c0,0,70,0,150,5V658H803c0,0,-17,0,-33,-7c0,0,-12,-5,-20,-13c0,0,-7,-8,-54,-104c0,0,-84,-174,-128,-274c0,0,-45,-101,-114,-271Z" 
id="f0_2i"
transform="scale(0.001,-0.001)" />

<path d="M280,-19c0,0,-92,0,-206,28C74,9,54,14,54,25l2,10c0,0,3,11,5,40c0,0,7,73,7,113l-1,36h46V175c0,0,0,-58,11,-73c0,0,19,-24,75,-46c0,0,57,-23,116,-23c0,0,77,0,125,42c0,0,49,41,49,99c0,0,0,45,-28,73c0,0,-29,27,-108,44c0,0,-148,29,-196,52c0,0,-48,22,-72,60c0,0,-23,37,-23,90c0,0,0,99,72,161c0,0,72,62,204,62c0,0,105,0,209,-42c0,0,-7,-51,-11,-170H491c0,0,-2,65,-14,86c0,0,-17,28,-63,50c0,0,-45,23,-96,23c0,0,-68,0,-108,-35c0,0,-41,-34,-41,-87c0,0,0,-50,32,-75c0,0,32,-26,177,-55c0,0,107,-22,142,-40c0,0,34,-19,55,-57c0,0,20,-38,20,-87c0,0,0,-101,-86,-174c0,0,-86,-72,-229,-72Z" 
id="f0_2f"
transform="scale(0.001,-0.001)" />

<path d="M37,-4V38l64,5c0,0,43,4,49,22c0,0,9,29,9,265V854l-3,97c0,0,0,37,-8,45c0,0,-12,12,-50,12H37v45c0,0,156,14,248,59l13,-9c0,0,-12,-219,-12,-396V324c0,0,0,-228,9,-259c0,0,5,-16,49,-20l64,-7V-4c0,0,-82,4,-156,4C252,0,170,0,37,-4Z" 
id="f0_28"
transform="scale(0.001,-0.001)" />

<path d="M409,-377c0,0,82,0,145,30c0,0,62,31,97,84c0,0,34,54,34,111c0,0,0,48,-24,85c0,0,-24,37,-57,47c0,0,-18,5,-79,5H351c0,0,-53,0,-72,-12c0,0,-62,-40,-76,-65c0,0,-22,-39,-22,-98c0,0,0,-81,60,-134c0,0,60,-53,168,-53ZM395,280c0,0,71,0,116,47c0,0,44,48,44,133c0,0,0,93,-47,150c0,0,-48,57,-121,57c0,0,-72,0,-115,-46c0,0,-44,-47,-44,-129c0,0,0,-99,47,-156c0,0,48,-56,120,-56ZM382,-430c0,0,-154,0,-237,67c0,0,-82,66,-82,164c0,0,0,60,43,122c0,0,78,37,131,74c0,0,-62,19,-80,36c0,0,-17,17,-17,43c0,0,0,31,17,62c0,0,10,18,49,45l73,52c0,0,-89,22,-129,63c0,0,-52,55,-52,141c0,0,0,75,39,137c0,0,38,62,114,98c0,0,96,46,186,46c0,0,56,0,99,-15c0,0,43,-15,88,-51h63c0,0,97,0,151,7l8,-16c0,0,-22,-32,-39,-68H668c0,0,17,-48,17,-78c0,0,0,-67,-40,-128c0,0,-40,-62,-115,-100c0,0,-75,-37,-161,-37l-36,1c0,0,-49,-37,-62,-55c0,0,-13,-18,-13,-35c0,0,0,-28,29,-45c0,0,29,-16,119,-16c0,0,34,0,98,3c0,0,92,4,133,4c0,0,59,0,91,-19c0,0,31,-19,53,-67c0,0,23,-46,23,-106c0,0,0,-83,-51,-160c0,0,-51,-77,-148,-123c0,0,-97,-46,-223,-46Z" 
id="f0_23"
transform="scale(0.001,-0.001)" />

<path d="M34,-4V38H91c0,0,48,0,58,26c0,0,9,26,9,281c0,0,0,187,-2,220c0,0,-2,34,-12,43c0,0,-11,9,-64,9H34v41c0,0,110,15,189,41l54,21c0,0,13,0,13,-18l-1,-27c0,0,-2,-42,-2,-93l100,90c0,0,24,21,51,30c0,0,39,14,77,14c0,0,84,0,135,-31c0,0,52,-30,94,-108l96,88c0,0,25,22,61,34c0,0,47,17,91,17c0,0,67,0,122,-32c0,0,54,-31,81,-81c0,0,26,-50,26,-136l-3,-292c0,0,0,-97,12,-115c0,0,11,-17,58,-20l55,-2V-4l-37,2c0,0,-87,2,-118,2c0,0,-47,0,-110,-4c0,0,10,137,10,321c0,0,0,156,-13,205c0,0,-13,49,-51,77c0,0,-38,28,-96,28c0,0,-64,0,-110,-35c0,0,-47,-35,-58,-84c0,0,-7,-31,-7,-266c0,0,0,-138,2,-157c0,0,2,-19,12,-27c0,0,11,-8,65,-14l50,-6V-4c0,0,-132,4,-194,4c0,0,-49,0,-191,-4V38h50c0,0,45,0,58,13c0,0,14,13,16,60c0,0,6,122,6,255c0,0,0,118,-16,163c0,0,-16,46,-55,72c0,0,-38,26,-92,26c0,0,-57,0,-104,-32c0,0,-47,-32,-64,-78c0,0,-11,-31,-11,-177c0,0,0,-161,3,-236c0,0,1,-35,11,-45c0,0,9,-10,64,-15l52,-6V-4c0,0,-94,4,-176,4C239,0,145,0,34,-4Z" 
id="f0_29"
transform="scale(0.001,-0.001)" />

<path d="M-25,-429l-23,1l-16,52c0,0,25,-4,39,-4c0,0,34,0,57,16c0,0,36,26,55,79c0,0,20,53,26,239c0,0,5,184,5,396c0,0,0,224,-8,245c0,0,-8,20,-61,20H-3v43c0,0,102,11,185,39l65,23c0,0,12,0,12,-15l-1,-15c0,0,-2,-13,-6,-109c0,0,-10,-196,-10,-327L244,62c0,0,0,-196,-34,-292c0,0,-34,-95,-101,-147c0,0,-66,-52,-134,-52ZM176,881c0,0,-35,0,-60,25c0,0,-25,24,-25,59c0,0,0,35,25,60c0,0,25,25,60,25c0,0,35,0,59,-25c0,0,25,-25,25,-60c0,0,0,-35,-25,-59c0,0,-24,-25,-59,-25Z" 
id="f0_26"
transform="scale(0.001,-0.001)" />

<path d="M754,415L566,863L378,415ZM28,-4V42l23,1c0,0,52,1,67,11c0,0,16,9,33,46c0,0,53,107,108,232L464,796c0,0,82,185,112,269h51L1004,187c0,0,38,-90,51,-108c0,0,12,-18,29,-26c0,0,16,-8,74,-11V-4c0,0,-97,4,-185,4c0,0,-82,0,-219,-4V42l74,5c0,0,40,3,47,8c0,0,11,8,11,21c0,0,0,13,-22,70L782,353H351L300,233c0,0,-50,-119,-50,-146c0,0,0,-17,9,-25c0,0,10,-7,48,-12l71,-8V-4c0,0,-71,4,-161,4C217,0,110,0,28,-4Z" 
id="f0_11"
transform="scale(0.001,-0.001)" />

<path d="M127,-4V44l58,2c0,0,101,3,121,29c0,0,20,25,19,204l5,414c0,0,0,207,-4,228c0,0,-3,13,-14,13c0,0,-7,0,-34,-12c0,0,-127,-55,-174,-82c0,0,-33,-19,-39,-19c0,0,-9,0,-11,12l-5,73c0,0,235,70,401,157l21,-10l-3,-84L461,539L456,245c0,0,0,-105,9,-140c0,0,9,-34,28,-46c0,0,20,-11,95,-13l68,-2V-4c0,0,-187,4,-266,4c0,0,-90,0,-263,-4Z" 
id="f0_l"
transform="scale(0.001,-0.001)" />

<path d="M59,297L49,308c0,0,22,58,37,108c0,0,111,-5,267,-5c0,0,209,0,355,5l7,-12c0,0,-25,-55,-38,-107c0,0,-102,7,-277,7c0,0,-228,0,-341,-7Z" 
id="f1_4z"
transform="scale(0.001,-0.001)" />

<path d="M30,-4V37L289,305c0,0,147,152,197,247c0,0,49,95,49,176c0,0,0,101,-58,161c0,0,-58,60,-153,60c0,0,-63,0,-113,-22c0,0,-37,-16,-53,-41c0,0,-15,-25,-46,-139H67c0,0,23,146,25,211c0,0,56,59,121,86c0,0,65,27,147,27c0,0,144,0,230,-82c0,0,85,-82,85,-214c0,0,0,-115,-77,-225c0,0,-77,-111,-259,-278L194,123H466c0,0,174,0,260,11l8,-7c0,0,-7,-42,-7,-60c0,0,0,-14,7,-67l-8,-4c0,0,-148,4,-328,4C398,0,209,0,30,-4Z" 
id="f0_m"
transform="scale(0.001,-0.001)" />

<path d="M264,-19c0,0,-46,0,-92,10c0,0,-45,9,-91,28c0,0,-15,91,-60,224l41,17c0,0,47,-108,75,-142c0,0,29,-33,76,-53c0,0,46,-20,111,-20c0,0,112,0,175,69c0,0,63,69,63,193c0,0,0,105,-54,162c0,0,-53,58,-140,58c0,0,-67,0,-142,-38l-10,7l14,86c0,0,39,-5,59,-5c0,0,91,0,149,57c0,0,58,56,58,148c0,0,0,83,-50,134c0,0,-51,50,-133,50c0,0,-54,0,-103,-23c0,0,-50,-24,-74,-54c0,0,-10,-13,-25,-60L93,776H47L87,959c0,0,48,56,113,84c0,0,65,28,148,28c0,0,126,0,199,-65c0,0,73,-65,73,-160c0,0,0,-65,-31,-120c0,0,-32,-56,-128,-135c0,0,48,0,98,-19c0,0,70,-26,106,-79c0,0,36,-52,36,-126c0,0,0,-150,-129,-268C572,99,443,-19,264,-19Z" 
id="f0_n"
transform="scale(0.001,-0.001)" />

<path d="M296,69c0,0,56,0,107,32c0,0,51,31,97,93l-2,165l2,36c0,0,-207,-45,-263,-84c0,0,-56,-39,-56,-120c0,0,0,-55,32,-88c0,0,32,-34,83,-34ZM249,-19c0,0,-97,0,-147,47c0,0,-51,47,-51,127c0,0,0,75,36,131c0,0,36,56,103,83c0,0,67,27,310,70c0,0,-2,95,-42,142c0,0,-51,58,-145,58c0,0,-35,0,-67,-8c0,0,-31,-9,-58,-27c0,0,-21,-53,-39,-101l-42,11V615l81,46c0,0,55,32,97,44c0,0,41,12,88,12c0,0,103,0,166,-47c0,0,63,-46,76,-117c0,0,9,-54,11,-267c0,0,2,-200,9,-221c0,0,7,-21,37,-21h59V-4c0,0,-85,4,-119,4c0,0,-42,0,-112,-4l1,66c0,0,0,32,-1,65L345,9c0,0,-20,-15,-41,-21c0,0,-20,-7,-55,-7Z" 
id="f0_1x"
transform="scale(0.001,-0.001)" />

<path d="M441,59c0,0,132,0,205,70c0,0,73,71,73,192c0,0,0,81,-32,133c0,0,-32,53,-90,77c0,0,-58,24,-185,24c0,0,-38,0,-85,-2V194c0,0,3,-51,3,-78c0,0,0,-20,-3,-47c0,0,69,-10,114,-10ZM395,614c0,0,149,0,213,53c0,0,65,52,65,152c0,0,0,86,-54,131c0,0,-54,46,-172,46c0,0,-52,0,-114,-9c0,0,-6,-92,-6,-276V616c0,0,37,-2,68,-2ZM116,-4V28c0,0,47,23,55,35c0,0,9,12,11,39c0,0,5,89,5,202V769c0,0,0,186,-14,211c0,0,-16,29,-79,29H43v47h62l68,-2c0,0,54,-3,85,-3c0,0,47,0,185,4l109,3c0,0,128,0,192,-45c0,0,79,-57,79,-161c0,0,0,-85,-56,-149c0,0,-56,-64,-193,-108c0,0,161,-10,231,-74c0,0,71,-64,71,-177c0,0,0,-142,-119,-246C757,98,638,-4,455,-4l-59,2c0,0,-75,2,-126,2c0,0,-37,0,-92,-2L116,-4Z" 
id="f0_12"
transform="scale(0.001,-0.001)" />

<path d="M254,367c0,0,63,0,168,3V902C422,902,259,665,100,370c0,0,86,-3,154,-3ZM235,-4V38l80,5c0,0,67,3,80,12c0,0,14,9,18,33c0,0,9,40,9,149v39c0,0,-288,0,-407,-8L2,313c0,0,120,212,196,335c0,0,75,124,236,374c0,0,40,11,103,41l21,-9c0,0,-4,-87,-5,-302V370c0,0,96,0,166,8c0,0,-4,-35,-4,-49c0,0,0,-10,5,-61c0,0,-80,8,-167,8c0,0,0,-183,12,-206c0,0,12,-23,79,-27l77,-5V-4c0,0,-142,4,-243,4c0,0,-40,0,-243,-4Z" 
id="f0_o"
transform="scale(0.001,-0.001)" />

<path d="M256,-19c0,0,-47,0,-81,9c0,0,-34,9,-79,32C96,22,83,65,74,91L18,224l38,22L74,213c0,0,51,-91,67,-107c0,0,22,-21,66,-36c0,0,45,-15,103,-15c0,0,125,0,194,72c0,0,70,73,70,209c0,0,0,119,-64,187c0,0,-65,69,-171,69c0,0,-61,0,-110,-24c0,0,-48,-24,-85,-75l-33,11c0,0,11,130,11,331c0,0,0,126,-11,219l13,8c0,0,117,-11,241,-11c0,0,149,0,286,11l9,-8c0,0,-7,-37,-7,-58c0,0,0,-19,7,-60l-9,-8c0,0,-85,5,-163,5c0,0,-157,0,-299,-5c0,0,-7,-57,-12,-311c0,0,55,44,105,61c0,0,50,18,114,18c0,0,139,0,224,-83c0,0,84,-83,84,-215c0,0,0,-167,-133,-292C571,106,438,-19,256,-19Z" 
id="f0_p"
transform="scale(0.001,-0.001)" />

<path d="M24,-4V38l72,6c0,0,38,3,48,14c0,0,10,12,13,73c0,0,5,107,5,255c0,0,0,180,-14,212c0,0,-10,20,-61,20H24v43c0,0,73,8,129,21c0,0,57,13,101,33c0,0,11,6,17,6c0,0,9,0,12,-5c0,0,3,-4,3,-20L283,548c0,0,29,28,65,74c0,0,41,54,77,75c0,0,36,20,76,20c0,0,41,0,62,-10c0,0,11,-4,11,-14l-1,-8c0,0,-12,-60,-13,-169H526c0,0,-17,38,-40,54c0,0,-24,16,-56,16c0,0,-44,0,-82,-30c0,0,-37,-30,-50,-84c0,0,-12,-53,-12,-211c0,0,0,-103,8,-174c0,0,3,-26,15,-33c0,0,28,-16,83,-16h45V-4c0,0,-114,4,-216,4C221,0,121,0,24,-4Z" 
id="f0_2e"
transform="scale(0.001,-0.001)" />

<path d="M192,-19c0,0,-37,0,-63,25c0,0,-25,26,-25,62c0,0,0,37,25,62c0,0,26,25,63,25c0,0,36,0,61,-25c0,0,26,-25,26,-62c0,0,0,-36,-26,-62c0,0,-25,-25,-61,-25Zm0,545c0,0,-37,0,-63,26c0,0,-25,25,-25,61c0,0,0,37,25,63c0,0,26,25,63,25c0,0,36,0,61,-25c0,0,26,-26,26,-63c0,0,0,-36,-26,-61c0,0,-25,-26,-61,-26Z" 
id="f0_u"
transform="scale(0.001,-0.001)" />

<path d="M192,-19c0,0,-37,0,-63,25c0,0,-25,26,-25,62c0,0,0,37,25,62c0,0,26,25,63,25c0,0,36,0,61,-25c0,0,26,-25,26,-62c0,0,0,-36,-26,-62c0,0,-25,-25,-61,-25Z" 
id="f0_i"
transform="scale(0.001,-0.001)" />

<path d="M245,-4V42h63c0,0,49,0,64,13c0,0,15,13,19,51c0,0,7,87,7,225V757c0,0,0,126,-5,232H317c0,0,-183,0,-202,-9c0,0,-19,-9,-24,-67L80,814H33l2,88c0,0,0,54,-10,154c0,0,403,-5,473,-5l412,5c0,0,-14,-126,-16,-242H847l-8,97c0,0,-4,51,-12,60c0,0,-9,9,-37,12c0,0,-82,6,-186,6H546c0,0,-8,-112,-8,-236V328c0,0,0,-237,12,-262c0,0,12,-24,84,-24h56V-4c0,0,-131,4,-223,4c0,0,-92,0,-222,-4Z" 
id="f0_1k"
transform="scale(0.001,-0.001)" />

<path d="M17,-4V38H67c0,0,58,0,68,23c0,0,15,32,15,235V587L42,580v31c0,0,53,26,108,55v95c0,0,0,72,19,118c0,0,20,45,80,107c0,0,80,83,124,109c0,0,29,17,73,17c0,0,29,0,65,-10c0,0,-2,-38,-2,-61c0,0,0,-23,2,-63l-18,-9c0,0,-44,39,-101,39c0,0,-63,0,-90,-43c0,0,-26,-42,-26,-207V658c0,0,121,1,198,8l5,-8L467,587l-92,2c0,0,-33,0,-99,-2V296c0,0,0,-209,12,-233c0,0,12,-25,75,-25h65V-4c0,0,-122,4,-175,4L17,-4Z" 
id="f0_22"
transform="scale(0.001,-0.001)" />

<path d="M355,-19c0,0,-67,0,-116,28c0,0,-48,28,-70,73c0,0,-22,45,-22,143c0,0,0,51,2,118l3,120c0,0,0,126,-8,140c0,0,-7,14,-47,14H30v41c0,0,102,9,188,37l63,24c0,0,12,0,12,-19l-5,-76c0,0,-10,-158,-10,-294c0,0,0,-135,11,-173c0,0,11,-38,47,-63c0,0,35,-25,87,-25c0,0,69,0,127,45c0,0,57,45,75,90c0,0,10,26,10,157c0,0,0,221,-8,240c0,0,-8,16,-67,16H501v41c0,0,76,9,130,21c0,0,53,12,113,36c0,0,7,4,13,4c0,0,13,0,13,-15l-3,-69c0,0,-11,-255,-11,-449c0,0,0,-109,11,-125c0,0,17,-23,71,-23h43V-4c0,0,-93,4,-157,4c0,0,-49,0,-97,-4l8,134L591,82C591,82,540,26,486,3c0,0,-53,-22,-131,-22Z" 
id="f0_2h"
transform="scale(0.001,-0.001)" />

<path d="M399,69c0,0,49,0,96,24c0,0,46,24,95,82V317c0,0,-2,215,-5,259c0,0,-46,42,-90,59c0,0,-43,17,-96,17c0,0,-101,0,-163,-73c0,0,-62,-74,-62,-210c0,0,0,-141,66,-220c0,0,66,-80,159,-80Zm58,-479v43h40c0,0,68,0,80,27c0,0,13,26,13,263V97C590,97,501,45,415,-10c0,0,-20,-4,-38,-6c0,0,-18,-3,-33,-3c0,0,-130,0,-215,92c0,0,-85,92,-85,246c0,0,0,102,31,171c0,0,32,70,90,112c0,0,15,10,137,78c0,0,65,36,148,36c0,0,50,0,98,-13c0,0,49,-13,98,-40l78,51l28,-17c0,0,-23,-68,-28,-117c0,0,-8,-74,-8,-250V-82c0,0,0,-228,14,-256c0,0,14,-29,85,-29h34v-43l-118,4l-93,1c0,0,-35,0,-181,-5Z" 
id="f0_2d"
transform="scale(0.001,-0.001)" />

<path d="M379,489c0,0,91,0,146,60c0,0,54,61,54,183c0,0,0,133,-59,209c0,0,-59,76,-146,76c0,0,-54,0,-100,-30c0,0,-45,-29,-72,-90c0,0,-28,-60,-28,-139c0,0,0,-129,57,-199c0,0,58,-70,148,-70ZM155,-22L105,3V18c0,0,144,32,240,100c0,0,96,68,153,167c0,0,57,99,74,246L495,470c0,0,-47,-41,-85,-55c0,0,-37,-14,-87,-14c0,0,-125,0,-202,81c0,0,-77,82,-77,227c0,0,0,161,96,261c0,0,96,101,246,101c0,0,155,0,244,-107c0,0,89,-106,89,-313c0,0,0,-147,-45,-262c0,0,-45,-114,-138,-209C536,180,444,85,328,29c0,0,-73,-34,-173,-51Z" 
id="f0_t"
transform="scale(0.001,-0.001)" />

<path d="M670,-19c0,0,-195,0,-330,68c0,0,-135,69,-208,193c0,0,-72,125,-72,286c0,0,0,232,164,380c0,0,164,148,454,148c0,0,96,0,190,-17c0,0,94,-17,188,-52l5,-11c0,0,-14,-41,-19,-78c0,0,-10,-65,-15,-161H964c0,0,-4,118,-9,130c0,0,-4,11,-41,39c0,0,-36,28,-98,45c0,0,-63,18,-138,18c0,0,-179,0,-284,-110C394,859,288,748,288,551c0,0,0,-213,127,-345C415,206,532,83,737,83c0,0,79,0,148,17c0,0,69,16,152,57l19,-17c0,0,-19,-38,-34,-76C1022,64,935,18,855,0c0,0,-80,-19,-185,-19Z" 
id="f2_13"
transform="scale(0.001,-0.001)" />

<path d="M437,53c0,0,69,0,107,55c0,0,38,55,38,201c0,0,0,200,-46,277c0,0,-38,61,-119,61c0,0,-69,0,-109,-56c0,0,-40,-56,-40,-190c0,0,0,-199,51,-283c0,0,39,-65,118,-65ZM415,-20c0,0,-173,0,-263,94c0,0,-90,95,-90,276c0,0,0,177,82,265c0,0,99,106,286,106c0,0,187,0,272,-85c0,0,86,-84,86,-266c0,0,0,-188,-99,-289C689,81,591,-20,415,-20Z" 
id="f2_2b"
transform="scale(0.001,-0.001)" />

<path d="M16,-4V57c0,0,75,3,86,9c0,0,9,4,14,14c0,0,9,18,10,79c0,0,3,109,3,199c0,0,0,172,-4,204c0,0,-3,19,-14,27c0,0,-11,7,-95,10v58c0,0,150,14,215,35l76,29c0,0,11,0,11,-15l-1,-10c0,0,-2,-47,-2,-135c0,0,38,36,84,92c0,0,34,42,60,55c0,0,25,13,68,13c0,0,23,0,48,-9c0,0,-7,-74,-9,-203L533,497c0,0,-18,29,-38,41c0,0,-21,12,-53,12c0,0,-45,0,-77,-24c0,0,-32,-23,-41,-53c0,0,-6,-22,-6,-152c0,0,0,-189,5,-220c0,0,3,-21,14,-29c0,0,17,-11,113,-15V-4l-84,3c0,0,-80,1,-138,1c0,0,-55,0,-128,-1L16,-4Z" 
id="f2_2e"
transform="scale(0.001,-0.001)" />

<path d="M448,125c0,0,52,0,98,31c0,0,45,30,52,56c0,0,8,25,8,192V529c0,0,-35,50,-79,74c0,0,-45,25,-99,25c0,0,-77,0,-118,-55c0,0,-41,-55,-41,-184c0,0,0,-133,50,-198c0,0,50,-66,129,-66ZM365,-20c0,0,-124,0,-206,92c0,0,-83,92,-83,245c0,0,0,74,17,135c0,0,17,61,40,92c0,0,22,30,91,78c0,0,93,65,136,82c0,0,43,17,93,17c0,0,37,0,75,-8c0,0,38,-8,78,-25V818c0,0,0,120,-5,139c0,0,-4,14,-14,20c0,0,-11,5,-101,8v53c0,0,178,20,298,72l20,-18c0,0,-7,-120,-9,-228L790,278c0,0,0,-147,5,-179c0,0,3,-20,15,-28c0,0,11,-8,92,-14V-4c0,0,-92,4,-179,4c0,0,-63,0,-118,-4L593,4c0,0,9,76,13,122C606,126,556,88,444,-4c0,0,-42,-16,-79,-16Z" 
id="f2_20"
transform="scale(0.001,-0.001)" />

<path d="M47,-4V57c0,0,84,3,97,10c0,0,13,8,17,42c0,0,6,47,6,207c0,0,0,70,-2,129l-2,87c0,0,0,43,-10,54c0,0,-9,10,-50,11l-56,2v58c0,0,180,14,296,64l19,-15c0,0,-11,-143,-11,-416c0,0,0,-157,5,-190c0,0,4,-23,14,-30c0,0,10,-7,97,-13V-4c0,0,-134,4,-208,4C259,0,220,0,47,-4ZM254,845c0,0,-47,0,-81,34c0,0,-34,34,-34,81c0,0,0,49,34,83c0,0,34,34,82,34c0,0,48,0,82,-34c0,0,34,-34,34,-83c0,0,0,-47,-34,-81c0,0,-34,-34,-83,-34Z" 
id="f2_25"
transform="scale(0.001,-0.001)" />

<path d="M43,-4V57c0,0,81,4,91,13c0,0,10,8,13,38c0,0,5,76,5,266c0,0,0,94,-3,162c0,0,-2,42,-6,49c0,0,-4,6,-12,9c0,0,-8,3,-88,5v58c0,0,40,0,126,17c0,0,85,17,144,40l20,7c0,0,10,0,10,-18l-1,-6c0,0,-2,-21,-2,-107l115,96c0,0,22,19,45,26c0,0,33,9,80,9c0,0,78,0,129,-28c0,0,50,-27,73,-75c0,0,24,-48,24,-150c0,0,0,-45,-2,-104c0,0,-4,-121,-4,-209c0,0,0,-50,8,-69c0,0,6,-14,17,-18c0,0,11,-5,81,-11V-4l-91,3L756,0L602,-4l-8,9c0,0,19,142,19,291c0,0,0,190,-23,234c0,0,-30,57,-109,57c0,0,-50,0,-87,-26c0,0,-37,-26,-49,-55c0,0,-5,-12,-5,-76c0,0,0,-270,2,-309c0,0,3,-40,13,-49c0,0,13,-11,100,-15V-4c0,0,-130,4,-219,4C236,0,183,0,43,-4Z" 
id="f2_2a"
transform="scale(0.001,-0.001)" />

<path d="M328,113c0,0,58,0,120,67V362c0,0,-131,-29,-170,-62c0,0,-39,-33,-39,-89c0,0,0,-45,25,-71c0,0,25,-27,64,-27ZM219,-20c0,0,-79,0,-122,46C97,26,54,73,54,163c0,0,0,111,59,157c0,0,75,59,335,106c0,0,-2,89,-31,128c0,0,-40,55,-126,55c0,0,-20,0,-41,-5c0,0,-21,-5,-43,-15L174,509l-52,13l2,34l-1,33l-1,29c0,0,114,71,164,89c0,0,37,14,102,14c0,0,88,0,143,-27c0,0,55,-26,80,-72c0,0,26,-46,26,-133c0,0,0,-36,-3,-131c0,0,-3,-97,-3,-156c0,0,0,-93,5,-113c0,0,3,-12,14,-19c0,0,12,-7,79,-13V-4l-57,3c0,0,-46,1,-91,1c0,0,-71,0,-133,-4l-8,7l8,102L292,-10c0,0,-41,-10,-73,-10Z" 
id="f2_1x"
transform="scale(0.001,-0.001)" />

<path d="M294,-20c0,0,-63,0,-105,21c0,0,-42,22,-61,56c0,0,-19,34,-19,102c0,0,0,36,3,188c0,0,4,134,4,211l-38,2c0,0,-23,0,-60,-5v39l98,65c0,0,-1,132,-7,231c0,0,102,31,192,76l23,-17c0,0,-17,-108,-23,-290c0,0,34,-6,68,-6c0,0,76,0,137,10l6,-5l-6,-26c0,0,-12,-42,-17,-77c0,0,-87,6,-128,6c0,0,-31,0,-60,-3c0,0,-1,-75,-1,-132c0,0,0,-251,15,-285c0,0,14,-34,70,-34c0,0,17,0,36,3c0,0,19,4,41,11L474,92c0,0,-45,-50,-87,-103c0,0,-28,-4,-51,-6c0,0,-23,-3,-42,-3Z" 
id="f2_2g"
transform="scale(0.001,-0.001)" />

<path d="M385,423c0,0,59,0,124,6v35c0,0,0,92,-33,134c0,0,-34,42,-91,42c0,0,-40,0,-69,-19c0,0,-29,-20,-43,-56c0,0,-14,-36,-22,-136c0,0,67,-6,134,-6ZM408,-20c0,0,-162,0,-256,94c0,0,-93,94,-93,265c0,0,0,108,27,179c0,0,23,58,74,96c0,0,51,38,117,72c0,0,67,35,147,35c0,0,122,0,202,-69c0,0,79,-68,79,-219c0,0,0,-19,-3,-57L581,354c0,0,-57,-4,-164,-4H256c0,0,11,-129,77,-194c0,0,65,-65,166,-65c0,0,43,0,85,12c0,0,41,13,82,37l22,-22L654,46C654,46,601,13,539,-3c0,0,-61,-17,-131,-17Z" 
id="f2_21"
transform="scale(0.001,-0.001)" />

<path d="M290,-20c0,0,-45,0,-100,11c0,0,-54,9,-118,29L61,33c0,0,8,65,10,204h64c0,0,4,-96,10,-108c0,0,16,-30,61,-53c0,0,45,-23,105,-23c0,0,73,0,109,30c0,0,37,30,37,79c0,0,0,43,-27,68c0,0,-26,24,-112,43c0,0,-130,28,-169,50c0,0,-39,21,-62,63c0,0,-23,41,-23,100c0,0,0,68,34,121c0,0,34,53,99,83c0,0,64,31,170,31c0,0,110,0,205,-36c0,0,-10,-61,-14,-189H500c0,0,-5,80,-13,95c0,0,-11,21,-43,36c0,0,-43,20,-93,20c0,0,-62,0,-97,-28c0,0,-35,-27,-35,-70c0,0,0,-39,31,-62c0,0,32,-24,150,-45c0,0,82,-15,113,-28c0,0,52,-22,80,-65c0,0,27,-43,27,-109c0,0,0,-126,-98,-193c0,0,-97,-67,-232,-67Z" 
id="f2_2f"
transform="scale(0.001,-0.001)" />

<path d="M10,-4V57l46,3c0,0,46,3,57,15c0,0,12,12,15,62c0,0,6,104,6,250l-2,180c0,0,-74,-4,-122,-8v39l71,37l13,6l8,4l21,11v70c0,0,1,85,20,122c0,0,19,38,102,113c0,0,112,101,139,118c0,0,48,31,115,31c0,0,21,0,43,-4c0,0,23,-4,47,-13c0,0,-13,-87,-21,-185l-29,-5c0,0,-33,31,-65,46c0,0,-32,15,-64,15c0,0,-41,0,-62,-18c0,0,-21,-18,-25,-61c0,0,-5,-43,-5,-229h76c0,0,62,0,127,11l9,-12c0,0,-12,-43,-19,-92c0,0,-45,4,-83,4H318c0,0,0,-323,4,-422c0,0,2,-56,17,-68c0,0,18,-16,132,-20V-4c0,0,-109,4,-211,4C260,0,159,0,10,-4Z" 
id="f2_22"
transform="scale(0.001,-0.001)" />

<path d="M256,-4V58c0,0,43,0,89,7c0,0,21,4,30,12c0,0,9,9,14,32c0,0,5,32,9,236c0,0,2,145,2,295c0,0,0,296,-2,302c0,0,-2,5,-53,5c0,0,-103,0,-178,-5c0,0,-43,-4,-49,-8c0,0,-6,-4,-9,-13c0,0,-3,-9,-12,-131H32c0,0,2,142,-8,245l9,6c0,0,235,-10,457,-10c0,0,222,0,496,10l8,-12c0,0,-14,-102,-20,-239H912c0,0,-6,126,-13,136c0,0,-5,9,-24,12c0,0,-60,9,-238,9c0,0,-14,0,-17,-4c0,0,-3,-5,-3,-40L612,401c0,0,0,-218,4,-267c0,0,4,-50,18,-61c0,0,10,-6,118,-15V-4c0,0,-110,4,-233,4C519,0,357,0,256,-4Z" 
id="f2_1k"
transform="scale(0.001,-0.001)" />

<path d="M406,-330c0,0,79,0,134,24c0,0,56,25,84,68c0,0,27,44,27,97c0,0,0,48,-22,82c0,0,-17,23,-46,30c0,0,-28,7,-166,7H286c0,0,-63,-47,-82,-77c0,0,-19,-31,-19,-71c0,0,0,-71,56,-116c0,0,56,-44,165,-44Zm-9,634c0,0,57,0,88,40c0,0,31,40,31,125c0,0,0,93,-32,136c0,0,-33,42,-91,42c0,0,-57,0,-91,-37c0,0,-33,-37,-33,-103c0,0,0,-112,33,-157c0,0,33,-46,95,-46ZM383,-404c0,0,-172,0,-257,60c0,0,-84,60,-84,154c0,0,0,53,26,89c0,0,12,16,82,57l53,30c0,0,-60,12,-80,31c0,0,-20,20,-20,56c0,0,0,40,29,97l24,16c0,0,43,28,81,60c0,0,-85,30,-123,82c0,0,-38,53,-38,132c0,0,0,114,88,187c0,0,88,74,247,74c0,0,78,0,138,-16c0,0,44,-12,88,-43c0,0,7,0,19,0c44,0,156,0,196,5l12,-16c0,0,-20,-28,-49,-81H691c0,0,10,-36,10,-68c0,0,0,-137,-98,-204c0,0,-99,-67,-230,-67c0,0,-21,0,-62,3c0,0,-34,-20,-44,-32c0,0,-9,-12,-9,-27c0,0,0,-36,50,-43c0,0,28,-5,304,-5c0,0,93,0,128,-16c0,0,36,-16,59,-57c0,0,23,-41,23,-105c0,0,0,-150,-118,-251c0,0,-119,-102,-321,-102Z" 
id="f2_23"
transform="scale(0.001,-0.001)" />

<path d="M42,-4V57l55,3c0,0,38,1,48,14c0,0,11,12,14,93c0,0,3,113,3,321V806c0,0,-1,146,-9,165c0,0,-3,9,-11,13c0,0,-13,8,-100,11v43c0,0,106,15,167,29c0,0,61,15,131,43l20,-17c0,0,-11,-266,-11,-744c0,0,0,-96,3,-195c0,0,1,-62,7,-72c0,0,6,-10,18,-16c0,0,12,-6,88,-9V-4l-78,3c0,0,-73,1,-122,1L42,-4Z" 
id="f2_28"
transform="scale(0.001,-0.001)" />

<path d="M459,38c0,0,119,0,203,83c0,0,84,84,84,201c0,0,0,118,-84,201c0,0,-84,83,-203,83c0,0,-120,0,-204,-83c0,0,-84,-83,-84,-201c0,0,0,-116,84,-200c0,0,84,-84,204,-84Zm0,-61c0,0,-146,0,-248,100c0,0,-102,102,-102,245c0,0,0,143,102,245c0,0,102,102,248,102c0,0,145,0,247,-102c0,0,103,-101,103,-245c0,0,0,-143,-103,-245C706,77,604,-23,459,-23Z" 
id="f3_2b"
transform="scale(0.001,-0.001)" />

<path d="M672,-19c0,0,-183,0,-322,70c0,0,-139,71,-214,196c0,0,-74,125,-74,282c0,0,0,157,75,281c0,0,75,124,213,192c0,0,137,69,338,69c0,0,105,0,246,-35c0,0,70,-16,114,-25c0,0,-34,-79,-39,-225H959l-6,133c0,0,-66,44,-139,66c0,0,-72,21,-151,21c0,0,-202,0,-323,-122C340,884,219,762,219,557c0,0,0,-143,62,-256c0,0,61,-112,174,-178c0,0,114,-65,240,-65c0,0,100,0,197,23c0,0,74,17,147,72l16,-15c0,0,-16,-34,-29,-70C1026,68,939,25,850,3c0,0,-88,-22,-178,-22Z" 
id="f0_13"
transform="scale(0.001,-0.001)" />

<path d="M504,58c0,0,209,0,325,107c0,0,139,131,139,380c0,0,0,218,-116,332c0,0,-116,114,-340,114c0,0,-78,0,-185,-15c0,0,-9,-72,-9,-163V325c0,0,0,-135,9,-252c0,0,100,-15,177,-15ZM97,-7V28l69,41c0,0,12,116,12,405V690c0,0,0,133,-9,229c0,0,-5,56,-14,65c0,0,-8,9,-61,16l-60,9v47c0,0,123,-4,166,-4l200,2l163,3c0,0,2,0,5,0c20,0,107,-1,197,-19c0,0,104,-21,188,-84c0,0,84,-63,128,-159c0,0,44,-95,44,-220c0,0,0,-252,-169,-417C956,158,786,-6,513,-6l-92,3c0,0,-135,4,-171,4C250,1,190,1,97,-7Z" 
id="f0_14"
transform="scale(0.001,-0.001)" />

<path d="M42,297L32,308c0,0,23,56,38,108c0,0,109,-5,181,-5c0,0,60,0,220,5l6,-12c0,0,-25,-56,-37,-107c0,0,-102,7,-188,7c0,0,-96,0,-210,-7Z" 
id="f0_h"
transform="scale(0.001,-0.001)" />

<path d="M34,-4V42H80c0,0,78,0,93,27c0,0,14,26,14,242V761c0,0,0,195,-15,222c0,0,-14,26,-83,26H34v47c0,0,123,-5,229,-5c0,0,106,0,207,5v-47H438c0,0,-69,0,-85,-11c0,0,-17,-11,-20,-37c0,0,-6,-41,-6,-199V592c0,0,132,-5,338,-5c0,0,174,0,282,5V737c0,0,0,128,-8,215c0,0,-3,30,-21,44c0,0,-17,13,-69,13H795v47c0,0,114,-5,216,-5c0,0,110,0,229,5v-47h-57c0,0,-57,0,-73,-13c0,0,-16,-12,-19,-46c0,0,-4,-34,-4,-214V324c0,0,0,-229,13,-255c0,0,13,-27,82,-27h58V-4c0,0,-103,4,-212,4c0,0,-125,0,-233,-4V42h51c0,0,57,0,73,13c0,0,17,13,20,49c0,0,8,77,8,225V523c0,0,-105,5,-268,5c0,0,-233,0,-352,-5V314c0,0,0,-53,3,-126c0,0,5,-102,8,-113c0,0,3,-10,21,-22c0,0,19,-11,61,-11h50V-4c0,0,-96,4,-186,4C284,0,196,0,34,-4Z" 
id="f0_18"
transform="scale(0.001,-0.001)" />

<path d="M604,-19c0,0,-176,0,-309,68c0,0,-133,69,-205,192c0,0,-71,122,-71,278c0,0,0,161,76,287c0,0,77,125,214,195c0,0,137,70,348,70c0,0,85,0,158,-12c0,0,72,-11,188,-44l64,-18c0,0,-20,-79,-32,-221H989v50c0,0,0,73,-12,85c0,0,-23,24,-119,60c0,0,-96,35,-220,35c0,0,-219,0,-335,-117C303,889,176,760,176,550c0,0,0,-203,114,-341C290,209,424,45,656,45c0,0,121,0,262,53c0,0,4,63,4,134c0,0,0,92,-3,106c0,0,-3,14,-11,18c0,0,-8,4,-78,10l-88,8v46c0,0,171,-7,254,-7c0,0,72,0,124,7V383l-53,-34c0,0,-11,-63,-11,-128c0,0,0,-69,11,-155C1067,66,968,28,843,4C843,4,718,-19,604,-19Z" 
id="f0_17"
transform="scale(0.001,-0.001)" />

<path d="M225,0c0,0,2,129,51,312c0,0,48,183,139,352c0,0,91,170,193,286H72v129H780V975C780,975,676,864,573,680C573,680,470,495,414,301C414,301,374,163,363,0Z" 
id="f4_r"
transform="scale(0.001,-0.001)" />


</defs>
</svg>