<?xml version="1.0" encoding="UTF-8" standalone="no"?>
<!DOCTYPE svg PUBLIC "-//W3C//DTD SVG 1.1//EN"
"http://www.w3.org/Graphics/SVG/1.1/DTD/svg11.dtd">
<svg viewBox="0 0 909 1286" version="1.1" xmlns="http://www.w3.org/2000/svg" xmlns:xlink="http://www.w3.org/1999/xlink">
<defs>
<style type="text/css"><![CDATA[
.g0_70{
fill: #ED7D31;
}
.g1_70{
}
]]></style>
</defs>
<g fill="#2D3639" >
<use xlink:href="#f0_2b" transform="matrix(11,0,0,11,110,172)" />
<use xlink:href="#f1_2u" transform="matrix(11,0,0,11,137.5,172)" />
<use xlink:href="#f1_21" transform="matrix(11,0,0,11,151.1,172)" />
<use xlink:href="#f1_2e" transform="matrix(11,0,0,11,159.9,172)" />
<use xlink:href="#f1_25" transform="matrix(11,0,0,11,167.2,172)" />
<use xlink:href="#f1_2i" transform="matrix(11,0,0,11,172.3,172)" />
<use xlink:href="#f1_1x" transform="matrix(11,0,0,11,181.1,172)" />
<use xlink:href="#f1_2g" transform="matrix(11,0,0,11,191,172)" />
<use xlink:href="#f1_25" transform="matrix(11,0,0,11,197.3,172)" />
<use xlink:href="#f1_2i" transform="matrix(11,0,0,11,202.4,172)" />
<use xlink:href="#f1_21" transform="matrix(11,0,0,11,211.1,172)" />
<use xlink:href="#f1_2b" transform="matrix(11,0,0,11,225.1,172)" />
<use xlink:href="#f1_22" transform="matrix(11,0,0,11,234.6,172)" />
<use xlink:href="#f1_2c" transform="matrix(11,0,0,11,245.2,172)" />
<use xlink:href="#f1_2e" transform="matrix(11,0,0,11,255.8,172)" />
<use xlink:href="#f1_2b" transform="matrix(11,0,0,11,262.8,172)" />
<use xlink:href="#f1_20" transform="matrix(11,0,0,11,272.3,172)" />
<use xlink:href="#f1_2h" transform="matrix(11,0,0,11,282.9,172)" />
<use xlink:href="#f1_1z" transform="matrix(11,0,0,11,294.3,172)" />
<use xlink:href="#f1_2g" transform="matrix(11,0,0,11,303,172)" />
<use xlink:href="#f1_2b" transform="matrix(11,0,0,11,314.8,172)" />
<use xlink:href="#f1_22" transform="matrix(11,0,0,11,324.2,172)" />
<use xlink:href="#f1_2g" transform="matrix(11,0,0,11,335.2,172)" />
<use xlink:href="#f1_2j" transform="matrix(11,0,0,11,341.4,172)" />
<use xlink:href="#f1_2b" transform="matrix(11,0,0,11,354.6,172)" />
<use xlink:href="#f1_22" transform="matrix(11,0,0,11,369.3,172)" />
<use xlink:href="#f1_2h" transform="matrix(11,0,0,11,374.8,172)" />
<use xlink:href="#f1_2a" transform="matrix(11,0,0,11,386.1,172)" />
<use xlink:href="#f1_1z" transform="matrix(11,0,0,11,397.1,172)" />
<use xlink:href="#f1_2g" transform="matrix(11,0,0,11,405.9,172)" />
<use xlink:href="#f1_25" transform="matrix(11,0,0,11,412.2,172)" />
<use xlink:href="#f1_2b" transform="matrix(11,0,0,11,417.3,172)" />
<use xlink:href="#f1_2a" transform="matrix(11,0,0,11,426.8,172)" />
<use xlink:href="#f1_2f" transform="matrix(11,0,0,11,437.8,172)" />
<use xlink:href="#f1_25" transform="matrix(11,0,0,11,452.1,172)" />
<use xlink:href="#f1_2f" transform="matrix(11,0,0,11,456.8,172)" />
<use xlink:href="#f1_23" transform="matrix(11,0,0,11,471.1,172)" />
<use xlink:href="#f1_25" transform="matrix(11,0,0,11,480.3,172)" />
<use xlink:href="#f1_2i" transform="matrix(11,0,0,11,485,172)" />
<use xlink:href="#f1_21" transform="matrix(11,0,0,11,493.8,172)" />
<use xlink:href="#f1_2a" transform="matrix(11,0,0,11,502.3,172)" />
<use xlink:href="#f1_1y" transform="matrix(11,0,0,11,518.8,172)" />
<use xlink:href="#f1_2l" transform="matrix(11,0,0,11,529.4,172)" />
<use xlink:href="#f1_22" transform="matrix(11,0,0,11,544,172)" />
<use xlink:href="#f1_2b" transform="matrix(11,0,0,11,549.5,172)" />
<use xlink:href="#f1_28" transform="matrix(11,0,0,11,559,172)" />
<use xlink:href="#f1_28" transform="matrix(11,0,0,11,564.1,172)" />
<use xlink:href="#f1_2b" transform="matrix(11,0,0,11,568.9,172)" />
<use xlink:href="#f1_2j" transform="matrix(11,0,0,11,578.4,172)" />
<use xlink:href="#f1_25" transform="matrix(11,0,0,11,591.5,172)" />
<use xlink:href="#f1_2a" transform="matrix(11,0,0,11,596.7,172)" />
<use xlink:href="#f1_23" transform="matrix(11,0,0,11,607.7,172)" />
<use xlink:href="#f1_2c" transform="matrix(11,0,0,11,622,172)" />
<use xlink:href="#f1_2e" transform="matrix(11,0,0,11,632.6,172)" />
<use xlink:href="#f1_2b" transform="matrix(11,0,0,11,639.9,172)" />
<use xlink:href="#f1_20" transform="matrix(11,0,0,11,649.1,172)" />
<use xlink:href="#f1_2h" transform="matrix(11,0,0,11,659.7,172)" />
<use xlink:href="#f1_1z" transform="matrix(11,0,0,11,671.1,172)" />
<use xlink:href="#f1_2g" transform="matrix(11,0,0,11,679.8,172)" />
<use xlink:href="#f1_2e" transform="matrix(11,0,0,11,691.8,172)" />
<use xlink:href="#f1_2h" transform="matrix(11,0,0,11,699.1,172)" />
<use xlink:href="#f1_28" transform="matrix(11,0,0,11,710.5,172)" />
<use xlink:href="#f1_21" transform="matrix(11,0,0,11,715.6,172)" />
<use xlink:href="#f1_i" transform="matrix(11,0,0,11,724.4,172)" />
<use xlink:href="#f0_2b" transform="matrix(11,0,0,11,110,273.6)" />
<use xlink:href="#f1_2u" transform="matrix(11,0,0,11,137.5,273.6)" />
<use xlink:href="#f1_21" transform="matrix(11,0,0,11,151.1,273.6)" />
<use xlink:href="#f1_2e" transform="matrix(11,0,0,11,159.9,273.6)" />
<use xlink:href="#f1_25" transform="matrix(11,0,0,11,167.2,273.6)" />
<use xlink:href="#f1_2i" transform="matrix(11,0,0,11,172.3,273.6)" />
<use xlink:href="#f1_1x" transform="matrix(11,0,0,11,181.1,273.6)" />
<use xlink:href="#f1_2g" transform="matrix(11,0,0,11,191,273.6)" />
<use xlink:href="#f1_25" transform="matrix(11,0,0,11,197.3,273.6)" />
<use xlink:href="#f1_2i" transform="matrix(11,0,0,11,202.4,273.6)" />
<use xlink:href="#f1_21" transform="matrix(11,0,0,11,211.1,273.6)" />
<use xlink:href="#f1_2b" transform="matrix(11,0,0,11,236.8,273.6)" />
<use xlink:href="#f1_22" transform="matrix(11,0,0,11,246.3,273.6)" />
<use xlink:href="#f1_2d" transform="matrix(11,0,0,11,268.7,273.6)" />
<use xlink:href="#f1_2h" transform="matrix(11,0,0,11,278.6,273.6)" />
<use xlink:href="#f1_2b" transform="matrix(11,0,0,11,289.9,273.6)" />
<use xlink:href="#f1_2g" transform="matrix(11,0,0,11,299.5,273.6)" />
<use xlink:href="#f1_25" transform="matrix(11,0,0,11,305.7,273.6)" />
<use xlink:href="#f1_21" transform="matrix(11,0,0,11,310.8,273.6)" />
<use xlink:href="#f1_2a" transform="matrix(11,0,0,11,319.6,273.6)" />
<use xlink:href="#f1_2g" transform="matrix(11,0,0,11,330.6,273.6)" />
<use xlink:href="#f1_2b" transform="matrix(11,0,0,11,353.7,273.6)" />
<use xlink:href="#f1_22" transform="matrix(11,0,0,11,363.5,273.6)" />
<use xlink:href="#f1_2g" transform="matrix(11,0,0,11,386.2,273.6)" />
<use xlink:href="#f1_2j" transform="matrix(11,0,0,11,392.5,273.6)" />
<use xlink:href="#f1_2b" transform="matrix(11,0,0,11,405.6,273.6)" />
<use xlink:href="#f1_22" transform="matrix(11,0,0,11,432,273.6)" />
<use xlink:href="#f1_2h" transform="matrix(11,0,0,11,437.5,273.6)" />
<use xlink:href="#f1_2a" transform="matrix(11,0,0,11,448.9,273.6)" />
<use xlink:href="#f1_1z" transform="matrix(11,0,0,11,459.9,273.6)" />
<use xlink:href="#f1_2g" transform="matrix(11,0,0,11,468.7,273.6)" />
<use xlink:href="#f1_25" transform="matrix(11,0,0,11,474.9,273.6)" />
<use xlink:href="#f1_2b" transform="matrix(11,0,0,11,480,273.6)" />
<use xlink:href="#f1_2a" transform="matrix(11,0,0,11,489.5,273.6)" />
<use xlink:href="#f1_2f" transform="matrix(11,0,0,11,500.5,273.6)" />
<use xlink:href="#f1_25" transform="matrix(11,0,0,11,526.2,273.6)" />
<use xlink:href="#f1_2f" transform="matrix(11,0,0,11,531.3,273.6)" />
<use xlink:href="#f1_23" transform="matrix(11,0,0,11,557.3,273.6)" />
<use xlink:href="#f1_25" transform="matrix(11,0,0,11,566.1,273.6)" />
<use xlink:href="#f1_2i" transform="matrix(11,0,0,11,571.2,273.6)" />
<use xlink:href="#f1_21" transform="matrix(11,0,0,11,580,273.6)" />
<use xlink:href="#f1_2a" transform="matrix(11,0,0,11,588.8,273.6)" />
<use xlink:href="#f1_1y" transform="matrix(11,0,0,11,616.7,273.6)" />
<use xlink:href="#f1_2l" transform="matrix(11,0,0,11,627.3,273.6)" />
<use xlink:href="#f1_2g" transform="matrix(11,0,0,11,653.6,273.6)" />
<use xlink:href="#f1_24" transform="matrix(11,0,0,11,659.9,273.6)" />
<use xlink:href="#f1_21" transform="matrix(11,0,0,11,670.9,273.6)" />
<use xlink:href="#f1_22" transform="matrix(11,0,0,11,696.5,273.6)" />
<use xlink:href="#f1_2b" transform="matrix(11,0,0,11,702,273.6)" />
<use xlink:href="#f1_28" transform="matrix(11,0,0,11,711.5,273.6)" />
<use xlink:href="#f1_28" transform="matrix(11,0,0,11,716.3,273.6)" />
<use xlink:href="#f1_2b" transform="matrix(11,0,0,11,721.4,273.6)" />
<use xlink:href="#f1_2j" transform="matrix(11,0,0,11,730.9,273.6)" />
<use xlink:href="#f1_25" transform="matrix(11,0,0,11,744.1,273.6)" />
<use xlink:href="#f1_2a" transform="matrix(11,0,0,11,749.2,273.6)" />
<use xlink:href="#f1_23" transform="matrix(11,0,0,11,760.2,273.6)" />
<use xlink:href="#f1_2d" transform="matrix(11,0,0,11,786.2,273.6)" />
<use xlink:href="#f1_2h" transform="matrix(11,0,0,11,796.1,273.6)" />
<use xlink:href="#f1_2b" transform="matrix(11,0,0,11,807.5,273.6)" />
<use xlink:href="#f1_2g" transform="matrix(11,0,0,11,817,273.6)" />
<use xlink:href="#f1_25" transform="matrix(11,0,0,11,823.3,273.6)" />
<use xlink:href="#f1_21" transform="matrix(11,0,0,11,828.4,273.6)" />
<use xlink:href="#f1_2a" transform="matrix(11,0,0,11,837.1,273.6)" />
<use xlink:href="#f1_2g" transform="matrix(11,0,0,11,848.2,273.6)" />
<use xlink:href="#f1_2e" transform="matrix(11,0,0,11,137.5,294.9)" />
<use xlink:href="#f1_2h" transform="matrix(11,0,0,11,144.9,294.9)" />
<use xlink:href="#f1_28" transform="matrix(11,0,0,11,156.2,294.9)" />
<use xlink:href="#f1_21" transform="matrix(11,0,0,11,161.4,294.9)" />
<use xlink:href="#f1_2n" transform="matrix(11,0,0,11,175.6,294.9)" />
<use xlink:href="#f1_2j" transform="matrix(11,0,0,11,180.7,294.9)" />
<use xlink:href="#f1_24" transform="matrix(11,0,0,11,193.9,294.9)" />
<use xlink:href="#f1_21" transform="matrix(11,0,0,11,205,294.9)" />
<use xlink:href="#f1_2a" transform="matrix(11,0,0,11,213.7,294.9)" />
<use xlink:href="#f1_21" transform="matrix(11,0,0,11,224.8,294.9)" />
<use xlink:href="#f1_2i" transform="matrix(11,0,0,11,233.5,294.9)" />
<use xlink:href="#f1_21" transform="matrix(11,0,0,11,242.3,294.9)" />
<use xlink:href="#f1_2e" transform="matrix(11,0,0,11,251.1,294.9)" />
<use xlink:href="#f1_2g" transform="matrix(11,0,0,11,264,294.9)" />
<use xlink:href="#f1_24" transform="matrix(11,0,0,11,270.2,294.9)" />
<use xlink:href="#f1_21" transform="matrix(11,0,0,11,281.2,294.9)" />
<use xlink:href="#f1_20" transform="matrix(11,0,0,11,295.1,294.9)" />
<use xlink:href="#f1_21" transform="matrix(11,0,0,11,305.7,294.9)" />
<use xlink:href="#f1_2a" transform="matrix(11,0,0,11,314.5,294.9)" />
<use xlink:href="#f1_2b" transform="matrix(11,0,0,11,325.5,294.9)" />
<use xlink:href="#f1_29" transform="matrix(11,0,0,11,335,294.9)" />
<use xlink:href="#f1_25" transform="matrix(11,0,0,11,350.8,294.9)" />
<use xlink:href="#f1_2a" transform="matrix(11,0,0,11,355.9,294.9)" />
<use xlink:href="#f1_1x" transform="matrix(11,0,0,11,366.9,294.9)" />
<use xlink:href="#f1_2g" transform="matrix(11,0,0,11,376.8,294.9)" />
<use xlink:href="#f1_2b" transform="matrix(11,0,0,11,383,294.9)" />
<use xlink:href="#f1_2e" transform="matrix(11,0,0,11,392.6,294.9)" />
<use xlink:href="#f1_25" transform="matrix(11,0,0,11,405,294.9)" />
<use xlink:href="#f1_2f" transform="matrix(11,0,0,11,410.1,294.9)" />
<use xlink:href="#f1_2a" transform="matrix(11,0,0,11,424.4,294.9)" />
<use xlink:href="#f1_2b" transform="matrix(11,0,0,11,435.4,294.9)" />
<use xlink:href="#f1_2a" transform="matrix(11,0,0,11,444.9,294.9)" />
<use xlink:href="#f2_4z" transform="matrix(11,0,0,11,456.3,294.9)" />
<use xlink:href="#f1_2m" transform="matrix(11,0,0,11,464.7,294.9)" />
<use xlink:href="#f1_21" transform="matrix(11,0,0,11,472.8,294.9)" />
<use xlink:href="#f1_2e" transform="matrix(11,0,0,11,481.6,294.9)" />
<use xlink:href="#f1_2b" transform="matrix(11,0,0,11,488.6,294.9)" />
<use xlink:href="#f1_2o" transform="matrix(11,0,0,11,498.1,294.9)" />
<use xlink:href="#f1_i" transform="matrix(11,0,0,11,503.2,294.9)" />
<use xlink:href="#f0_2b" transform="matrix(11,0,0,11,110,449.6)" />
<use xlink:href="#f1_2y" transform="matrix(11,0,0,11,137.5,449.6)" />
<use xlink:href="#f1_21" transform="matrix(11,0,0,11,147.8,449.6)" />
<use xlink:href="#f1_2g" transform="matrix(11,0,0,11,156.6,449.6)" />
<use xlink:href="#f1_2h" transform="matrix(11,0,0,11,168.3,449.6)" />
<use xlink:href="#f1_2s" transform="matrix(11,0,0,11,185.2,449.6)" />
<use xlink:href="#f1_22" transform="matrix(11,0,0,11,195.1,449.6)" />
<use xlink:href="#f1_2n" transform="matrix(11,0,0,11,206.1,449.6)" />
<use xlink:href="#f1_2k" transform="matrix(11,0,0,11,210.9,449.6)" />
<use xlink:href="#f1_2o" transform="matrix(11,0,0,11,220.4,449.6)" />
<use xlink:href="#f1_2s" transform="matrix(11,0,0,11,230.7,449.6)" />
<use xlink:href="#f1_1x" transform="matrix(11,0,0,11,246.5,449.6)" />
<use xlink:href="#f1_2a" transform="matrix(11,0,0,11,256.4,449.6)" />
<use xlink:href="#f1_20" transform="matrix(11,0,0,11,267,449.6)" />
<use xlink:href="#f1_2i" transform="matrix(11,0,0,11,283.1,449.6)" />
<use xlink:href="#f1_2s" transform="matrix(11,0,0,11,297,449.6)" />
<use xlink:href="#f1_23" transform="matrix(11,0,0,11,312.4,449.6)" />
<use xlink:href="#f1_2n" transform="matrix(11,0,0,11,327,449.6)" />
<use xlink:href="#f1_2k" transform="matrix(11,0,0,11,331.8,449.6)" />
<use xlink:href="#f1_2o" transform="matrix(11,0,0,11,341.3,449.6)" />
<use xlink:href="#f1_i" transform="matrix(11,0,0,11,346.4,449.6)" />
<use xlink:href="#f3_3o" transform="matrix(11,0,0,11,165.1,470.9)" />
<use xlink:href="#f4_1g" transform="matrix(11,0,0,11,192.6,470.9)" />
<use xlink:href="#f4_2e" transform="matrix(11,0,0,11,203.6,470.9)" />
<use xlink:href="#f4_2b" transform="matrix(11,0,0,11,211.3,470.9)" />
<use xlink:href="#f4_20" transform="matrix(11,0,0,11,221.9,470.9)" />
<use xlink:href="#f4_2h" transform="matrix(11,0,0,11,232.5,470.9)" />
<use xlink:href="#f4_1z" transform="matrix(11,0,0,11,243.5,470.9)" />
<use xlink:href="#f4_2g" transform="matrix(11,0,0,11,253.4,470.9)" />
<use xlink:href="#f4_1i" transform="matrix(11,0,0,11,267,470.9)" />
<use xlink:href="#f4_2h" transform="matrix(11,0,0,11,280.1,470.9)" />
<use xlink:href="#f4_28" transform="matrix(11,0,0,11,291.2,470.9)" />
<use xlink:href="#f4_21" transform="matrix(11,0,0,11,297,470.9)" />
<use xlink:href="#f4_2u" transform="matrix(11,0,0,11,306.5,470.9)" />
<use xlink:href="#f5_3d" transform="matrix(11,0,0,11,220.1,493.3)" />
<use xlink:href="#f1_2n" transform="matrix(11,0,0,11,247.6,493.3)" />
<use xlink:href="#f1_2h" transform="matrix(11,0,0,11,252.7,493.3)" />
<use xlink:href="#f1_2i" transform="matrix(11,0,0,11,264.1,493.3)" />
<use xlink:href="#f1_2o" transform="matrix(11,0,0,11,272.9,493.3)" />
<use xlink:href="#f2_8s" transform="matrix(11,0,0,11,283.5,493.3)" />
<use xlink:href="#f2_x" transform="matrix(11,0,0,11,297.8,493.3)" />
<use xlink:href="#f2_2h" transform="matrix(11,0,0,11,313.5,493.3)" />
<use xlink:href="#f2_54" transform="matrix(7,0,0,7,325,489.7)" />
<use xlink:href="#f1_2i" transform="matrix(11,0,0,11,332.7,493.3)" />
<use xlink:href="#f2_f" transform="matrix(11,0,0,11,341.2,493.3)" />
<use xlink:href="#f2_2h" transform="matrix(11,0,0,11,356.9,493.3)" />
<use xlink:href="#f2_2i" transform="matrix(11,0,0,11,368.3,493.3)" />
<use xlink:href="#f2_8s" transform="matrix(11,0,0,11,377,493.3)" />
<use xlink:href="#f1_i" transform="matrix(11,0,0,11,380.8,493.3)" />
<use xlink:href="#f5_3d" transform="matrix(11,0,0,11,220.1,515.7)" />
<use xlink:href="#f1_11" transform="matrix(11,0,0,11,247.6,515.7)" />
<use xlink:href="#f1_28" transform="matrix(11,0,0,11,259,515.7)" />
<use xlink:href="#f1_2f" transform="matrix(11,0,0,11,264.1,515.7)" />
<use xlink:href="#f1_2b" transform="matrix(11,0,0,11,272.9,515.7)" />
<use xlink:href="#f1_2e" transform="matrix(11,0,0,11,287.9,515.7)" />
<use xlink:href="#f1_21" transform="matrix(11,0,0,11,295.3,515.7)" />
<use xlink:href="#f1_22" transform="matrix(11,0,0,11,304,515.7)" />
<use xlink:href="#f1_21" transform="matrix(11,0,0,11,309.6,515.7)" />
<use xlink:href="#f1_2e" transform="matrix(11,0,0,11,318.3,515.7)" />
<use xlink:href="#f1_2e" transform="matrix(11,0,0,11,325.7,515.7)" />
<use xlink:href="#f1_21" transform="matrix(11,0,0,11,333,515.7)" />
<use xlink:href="#f1_20" transform="matrix(11,0,0,11,341.5,515.7)" />
<use xlink:href="#f1_1x" transform="matrix(11,0,0,11,357.3,515.7)" />
<use xlink:href="#f1_2f" transform="matrix(11,0,0,11,367.2,515.7)" />
<use xlink:href="#f1_2y" transform="matrix(11,0,0,11,381.1,515.7)" />
<use xlink:href="#f1_21" transform="matrix(11,0,0,11,391.4,515.7)" />
<use xlink:href="#f1_25" transform="matrix(11,0,0,11,400.1,515.7)" />
<use xlink:href="#f1_1y" transform="matrix(11,0,0,11,404.9,515.7)" />
<use xlink:href="#f1_2a" transform="matrix(11,0,0,11,415.5,515.7)" />
<use xlink:href="#f1_25" transform="matrix(11,0,0,11,426.5,515.7)" />
<use xlink:href="#f1_2g" transform="matrix(11,0,0,11,431.7,515.7)" />
<use xlink:href="#f1_2m" transform="matrix(11,0,0,11,437.9,515.7)" />
<use xlink:href="#f1_2e" transform="matrix(11,0,0,11,451.4,515.7)" />
<use xlink:href="#f1_2h" transform="matrix(11,0,0,11,458.8,515.7)" />
<use xlink:href="#f1_28" transform="matrix(11,0,0,11,470.1,515.7)" />
<use xlink:href="#f1_21" transform="matrix(11,0,0,11,475.3,515.7)" />
<use xlink:href="#f1_22" transform="matrix(11,0,0,11,489.5,515.7)" />
<use xlink:href="#f1_2b" transform="matrix(11,0,0,11,494.7,515.7)" />
<use xlink:href="#f1_2e" transform="matrix(11,0,0,11,504.2,515.7)" />
<use xlink:href="#f1_20" transform="matrix(11,0,0,11,516.6,515.7)" />
<use xlink:href="#f1_25" transform="matrix(11,0,0,11,527.3,515.7)" />
<use xlink:href="#f1_22" transform="matrix(11,0,0,11,532.4,515.7)" />
<use xlink:href="#f1_22" transform="matrix(11,0,0,11,537.8,515.7)" />
<use xlink:href="#f1_21" transform="matrix(11,0,0,11,543,515.7)" />
<use xlink:href="#f1_2e" transform="matrix(11,0,0,11,551.7,515.7)" />
<use xlink:href="#f1_21" transform="matrix(11,0,0,11,559.1,515.7)" />
<use xlink:href="#f1_2a" transform="matrix(11,0,0,11,567.9,515.7)" />
<use xlink:href="#f1_2g" transform="matrix(11,0,0,11,578.9,515.7)" />
<use xlink:href="#f1_25" transform="matrix(11,0,0,11,585.2,515.7)" />
<use xlink:href="#f1_1x" transform="matrix(11,0,0,11,590.3,515.7)" />
<use xlink:href="#f1_2g" transform="matrix(11,0,0,11,600.4,515.7)" />
<use xlink:href="#f1_25" transform="matrix(11,0,0,11,606.7,515.7)" />
<use xlink:href="#f1_2a" transform="matrix(11,0,0,11,611.8,515.7)" />
<use xlink:href="#f1_23" transform="matrix(11,0,0,11,622.8,515.7)" />
<use xlink:href="#f1_2c" transform="matrix(11,0,0,11,637.4,515.7)" />
<use xlink:href="#f1_2e" transform="matrix(11,0,0,11,648,515.7)" />
<use xlink:href="#f1_2b" transform="matrix(11,0,0,11,655.4,515.7)" />
<use xlink:href="#f1_20" transform="matrix(11,0,0,11,664.5,515.7)" />
<use xlink:href="#f1_2h" transform="matrix(11,0,0,11,675.1,515.7)" />
<use xlink:href="#f1_1z" transform="matrix(11,0,0,11,686.5,515.7)" />
<use xlink:href="#f1_2g" transform="matrix(11,0,0,11,695.3,515.7)" />
<use xlink:href="#f1_2b" transform="matrix(11,0,0,11,707,515.7)" />
<use xlink:href="#f1_22" transform="matrix(11,0,0,11,716.2,515.7)" />
<use xlink:href="#f1_22" transform="matrix(11,0,0,11,727.1,515.7)" />
<use xlink:href="#f1_2h" transform="matrix(11,0,0,11,732.6,515.7)" />
<use xlink:href="#f1_2a" transform="matrix(11,0,0,11,744,515.7)" />
<use xlink:href="#f1_1z" transform="matrix(11,0,0,11,755,515.7)" />
<use xlink:href="#f1_2g" transform="matrix(11,0,0,11,763.8,515.7)" />
<use xlink:href="#f1_25" transform="matrix(11,0,0,11,770,515.7)" />
<use xlink:href="#f1_2b" transform="matrix(11,0,0,11,775.1,515.7)" />
<use xlink:href="#f1_2a" transform="matrix(11,0,0,11,784.6,515.7)" />
<use xlink:href="#f1_2f" transform="matrix(11,0,0,11,795.6,515.7)" />
<use xlink:href="#f3_3o" transform="matrix(11,0,0,11,165.1,537)" />
<use xlink:href="#f4_2z" transform="matrix(11,0,0,11,192.6,537)" />
<use xlink:href="#f4_2h" transform="matrix(11,0,0,11,206.1,537)" />
<use xlink:href="#f4_2b" transform="matrix(11,0,0,11,217.1,537)" />
<use xlink:href="#f4_2g" transform="matrix(11,0,0,11,227.7,537)" />
<use xlink:href="#f4_25" transform="matrix(11,0,0,11,235.4,537)" />
<use xlink:href="#f4_21" transform="matrix(11,0,0,11,241.3,537)" />
<use xlink:href="#f4_2a" transform="matrix(11,0,0,11,251.2,537)" />
<use xlink:href="#f4_2g" transform="matrix(11,0,0,11,262.6,537)" />
<use xlink:href="#f4_2e" transform="matrix(11,0,0,11,276.1,537)" />
<use xlink:href="#f4_2h" transform="matrix(11,0,0,11,283.8,537)" />
<use xlink:href="#f4_28" transform="matrix(11,0,0,11,294.8,537)" />
<use xlink:href="#f4_21" transform="matrix(11,0,0,11,300.7,537)" />
<use xlink:href="#f5_3d" transform="matrix(11,0,0,11,220.1,597.5)" />
<use xlink:href="#f0_2b" transform="matrix(11,0,0,11,110,636)" />
<use xlink:href="#f1_2u" transform="matrix(11,0,0,11,137.5,636)" />
<use xlink:href="#f1_21" transform="matrix(11,0,0,11,151.1,636)" />
<use xlink:href="#f1_2e" transform="matrix(11,0,0,11,159.9,636)" />
<use xlink:href="#f1_25" transform="matrix(11,0,0,11,167.3,636)" />
<use xlink:href="#f1_2i" transform="matrix(11,0,0,11,172.4,636)" />
<use xlink:href="#f1_1x" transform="matrix(11,0,0,11,181.2,636)" />
<use xlink:href="#f1_2g" transform="matrix(11,0,0,11,191.1,636)" />
<use xlink:href="#f1_25" transform="matrix(11,0,0,11,197.3,636)" />
<use xlink:href="#f1_2i" transform="matrix(11,0,0,11,202.4,636)" />
<use xlink:href="#f1_21" transform="matrix(11,0,0,11,211.2,636)" />
<use xlink:href="#f1_2b" transform="matrix(11,0,0,11,225.2,636)" />
<use xlink:href="#f1_22" transform="matrix(11,0,0,11,234.7,636)" />
<use xlink:href="#f1_2g" transform="matrix(11,0,0,11,245.3,636)" />
<use xlink:href="#f1_24" transform="matrix(11,0,0,11,251.5,636)" />
<use xlink:href="#f1_21" transform="matrix(11,0,0,11,262.5,636)" />
<use xlink:href="#f1_22" transform="matrix(11,0,0,11,276.8,636)" />
<use xlink:href="#f1_2h" transform="matrix(11,0,0,11,282.3,636)" />
<use xlink:href="#f1_2a" transform="matrix(11,0,0,11,293.6,636)" />
<use xlink:href="#f1_1z" transform="matrix(11,0,0,11,304.6,636)" />
<use xlink:href="#f1_2g" transform="matrix(11,0,0,11,313.4,636)" />
<use xlink:href="#f1_25" transform="matrix(11,0,0,11,319.7,636)" />
<use xlink:href="#f1_2b" transform="matrix(11,0,0,11,324.8,636)" />
<use xlink:href="#f1_2a" transform="matrix(11,0,0,11,334.3,636)" />
<use xlink:href="#f1_22" transform="matrix(11,0,0,11,350.8,636)" />
<use xlink:href="#f1_2n" transform="matrix(11,0,0,11,355.9,636)" />
<use xlink:href="#f1_2k" transform="matrix(11,0,0,11,361,636)" />
<use xlink:href="#f1_2o" transform="matrix(11,0,0,11,370.5,636)" />
<use xlink:href="#f1_2s" transform="matrix(11,0,0,11,380.8,636)" />
<use xlink:href="#f1_2k" transform="matrix(11,0,0,11,396.2,636)" />
<use xlink:href="#f1_25" transform="matrix(11,0,0,11,411.2,636)" />
<use xlink:href="#f1_2f" transform="matrix(11,0,0,11,416.3,636)" />
<use xlink:href="#f1_2g" transform="matrix(11,0,0,11,430.2,636)" />
<use xlink:href="#f1_24" transform="matrix(11,0,0,11,436.4,636)" />
<use xlink:href="#f1_21" transform="matrix(11,0,0,11,447.4,636)" />
<use xlink:href="#f1_1z" transform="matrix(11,0,0,11,461.7,636)" />
<use xlink:href="#f1_2b" transform="matrix(11,0,0,11,470.5,636)" />
<use xlink:href="#f1_2a" transform="matrix(11,0,0,11,480,636)" />
<use xlink:href="#f1_2f" transform="matrix(11,0,0,11,491,636)" />
<use xlink:href="#f1_2g" transform="matrix(11,0,0,11,499.8,636)" />
<use xlink:href="#f1_1x" transform="matrix(11,0,0,11,505.7,636)" />
<use xlink:href="#f1_2a" transform="matrix(11,0,0,11,515.6,636)" />
<use xlink:href="#f1_2g" transform="matrix(11,0,0,11,526.6,636)" />
<use xlink:href="#f4_1k" transform="matrix(11,0,0,11,82.5,678.5)" />
<use xlink:href="#f4_31" transform="matrix(11,0,0,11,94.3,678.5)" />
<use xlink:href="#f4_21" transform="matrix(11,0,0,11,105.6,678.5)" />
<use xlink:href="#f4_2b" transform="matrix(11,0,0,11,115.5,678.5)" />
<use xlink:href="#f4_2e" transform="matrix(11,0,0,11,126.1,678.5)" />
<use xlink:href="#f4_21" transform="matrix(11,0,0,11,133.8,678.5)" />
<use xlink:href="#f4_29" transform="matrix(11,0,0,11,143.7,678.5)" />
<use xlink:href="#f4_2s" transform="matrix(11,0,0,11,166.1,678.5)" />
<use xlink:href="#f0_2b" transform="matrix(11,0,0,11,55,700.1)" />
<use xlink:href="#f1_2u" transform="matrix(11,0,0,11,82.5,700.1)" />
<use xlink:href="#f1_21" transform="matrix(11,0,0,11,96.1,700.1)" />
<use xlink:href="#f1_2e" transform="matrix(11,0,0,11,104.9,700.1)" />
<use xlink:href="#f1_25" transform="matrix(11,0,0,11,112.2,700.1)" />
<use xlink:href="#f1_2i" transform="matrix(11,0,0,11,117.3,700.1)" />
<use xlink:href="#f1_1x" transform="matrix(11,0,0,11,126.1,700.1)" />
<use xlink:href="#f1_2g" transform="matrix(11,0,0,11,136,700.1)" />
<use xlink:href="#f1_25" transform="matrix(11,0,0,11,142.3,700.1)" />
<use xlink:href="#f1_2i" transform="matrix(11,0,0,11,147.4,700.1)" />
<use xlink:href="#f1_21" transform="matrix(11,0,0,11,156.1,700.1)" />
<use xlink:href="#f1_2b" transform="matrix(11,0,0,11,170.1,700.1)" />
<use xlink:href="#f1_22" transform="matrix(11,0,0,11,179.6,700.1)" />
<use xlink:href="#f1_22" transform="matrix(11,0,0,11,190.2,700.1)" />
<use xlink:href="#f1_2n" transform="matrix(11,0,0,11,195.7,700.1)" />
<use xlink:href="#f1_2k" transform="matrix(11,0,0,11,200.5,700.1)" />
<use xlink:href="#f1_2o" transform="matrix(11,0,0,11,210,700.1)" />
<use xlink:href="#f1_2s" transform="matrix(11,0,0,11,220.2,700.1)" />
<use xlink:href="#f1_2k" transform="matrix(11,0,0,11,236,700.1)" />
<use xlink:href="#f1_2a" transform="matrix(7,0,0,7,245.8,696.5)" />
<use xlink:href="#f1_25" transform="matrix(11,0,0,11,257.9,700.1)" />
<use xlink:href="#f1_2f" transform="matrix(11,0,0,11,263,700.1)" />
<use xlink:href="#f1_2a" transform="matrix(11,0,0,11,277.3,700.1)" />
<use xlink:href="#f1_2k" transform="matrix(11,0,0,11,288.3,700.1)" />
<use xlink:href="#f1_2a" transform="matrix(7,0,0,7,297.8,696.5)" />
<use xlink:href="#f1_h" transform="matrix(7,0,0,7,304.4,696.5)" />
<use xlink:href="#f1_l" transform="matrix(7,0,0,7,308.8,696.5)" />
<use xlink:href="#f1_22" transform="matrix(11,0,0,11,320.9,700.1)" />
<use xlink:href="#f1_2b" transform="matrix(11,0,0,11,326.4,700.1)" />
<use xlink:href="#f1_2e" transform="matrix(11,0,0,11,335.9,700.1)" />
<use xlink:href="#f1_1x" transform="matrix(11,0,0,11,348.4,700.1)" />
<use xlink:href="#f1_2a" transform="matrix(11,0,0,11,358.3,700.1)" />
<use xlink:href="#f1_2l" transform="matrix(11,0,0,11,369.3,700.1)" />
<use xlink:href="#f1_2c" transform="matrix(11,0,0,11,383.5,700.1)" />
<use xlink:href="#f1_2b" transform="matrix(11,0,0,11,394.1,700.1)" />
<use xlink:href="#f1_2f" transform="matrix(11,0,0,11,403.7,700.1)" />
<use xlink:href="#f1_25" transform="matrix(11,0,0,11,412.1,700.1)" />
<use xlink:href="#f1_2g" transform="matrix(11,0,0,11,417.2,700.1)" />
<use xlink:href="#f1_25" transform="matrix(11,0,0,11,423.4,700.1)" />
<use xlink:href="#f1_2i" transform="matrix(11,0,0,11,428.5,700.1)" />
<use xlink:href="#f1_21" transform="matrix(11,0,0,11,437.3,700.1)" />
<use xlink:href="#f1_25" transform="matrix(11,0,0,11,451.3,700.1)" />
<use xlink:href="#f1_2a" transform="matrix(11,0,0,11,456,700.1)" />
<use xlink:href="#f1_2g" transform="matrix(11,0,0,11,467,700.1)" />
<use xlink:href="#f1_21" transform="matrix(11,0,0,11,473.3,700.1)" />
<use xlink:href="#f1_23" transform="matrix(11,0,0,11,482,700.1)" />
<use xlink:href="#f1_21" transform="matrix(11,0,0,11,491.2,700.1)" />
<use xlink:href="#f1_2e" transform="matrix(11,0,0,11,500,700.1)" />
<use xlink:href="#f1_2a" transform="matrix(11,0,0,11,512.8,700.1)" />
<use xlink:href="#f1_i" transform="matrix(11,0,0,11,523.8,700.1)" />
<use xlink:href="#f0_2b" transform="matrix(11,0,0,11,55,721.4)" />
<use xlink:href="#f4_1g" transform="matrix(11,0,0,11,82.5,721.4)" />
<use xlink:href="#f4_2e" transform="matrix(11,0,0,11,93.5,721.4)" />
<use xlink:href="#f4_2b" transform="matrix(11,0,0,11,101.2,721.4)" />
<use xlink:href="#f4_2b" transform="matrix(11,0,0,11,111.9,721.4)" />
<use xlink:href="#f4_22" transform="matrix(11,0,0,11,122.5,721.4)" />
<use xlink:href="#f0_2b" transform="matrix(11,0,0,11,110,742.7)" />
<use xlink:href="#f1_2t" transform="matrix(11,0,0,11,137.5,742.7)" />
<use xlink:href="#f1_2l" transform="matrix(11,0,0,11,150,742.7)" />
<use xlink:href="#f1_20" transform="matrix(11,0,0,11,164.7,742.7)" />
<use xlink:href="#f1_21" transform="matrix(11,0,0,11,175.3,742.7)" />
<use xlink:href="#f1_22" transform="matrix(11,0,0,11,183.7,742.7)" />
<use xlink:href="#f1_25" transform="matrix(11,0,0,11,189.2,742.7)" />
<use xlink:href="#f1_2a" transform="matrix(11,0,0,11,194.3,742.7)" />
<use xlink:href="#f1_25" transform="matrix(11,0,0,11,205.3,742.7)" />
<use xlink:href="#f1_2g" transform="matrix(11,0,0,11,210.4,742.7)" />
<use xlink:href="#f1_25" transform="matrix(11,0,0,11,216.6,742.7)" />
<use xlink:href="#f1_2b" transform="matrix(11,0,0,11,221.8,742.7)" />
<use xlink:href="#f1_2a" transform="matrix(11,0,0,11,231.3,742.7)" />
<use xlink:href="#f1_2b" transform="matrix(11,0,0,11,247.4,742.7)" />
<use xlink:href="#f1_22" transform="matrix(11,0,0,11,256.9,742.7)" />
<use xlink:href="#f1_2g" transform="matrix(11,0,0,11,267.9,742.7)" />
<use xlink:href="#f1_24" transform="matrix(11,0,0,11,274.1,742.7)" />
<use xlink:href="#f1_21" transform="matrix(11,0,0,11,285.1,742.7)" />
<use xlink:href="#f1_20" transform="matrix(11,0,0,11,299,742.7)" />
<use xlink:href="#f1_21" transform="matrix(11,0,0,11,309.6,742.7)" />
<use xlink:href="#f1_2e" transform="matrix(11,0,0,11,318.4,742.7)" />
<use xlink:href="#f1_25" transform="matrix(11,0,0,11,325.8,742.7)" />
<use xlink:href="#f1_2i" transform="matrix(11,0,0,11,330.9,742.7)" />
<use xlink:href="#f1_1x" transform="matrix(11,0,0,11,339.3,742.7)" />
<use xlink:href="#f1_2g" transform="matrix(11,0,0,11,349.2,742.7)" />
<use xlink:href="#f1_25" transform="matrix(11,0,0,11,355.5,742.7)" />
<use xlink:href="#f1_2i" transform="matrix(11,0,0,11,360.6,742.7)" />
<use xlink:href="#f1_21" transform="matrix(11,0,0,11,369.3,742.7)" />
<use xlink:href="#f1_22" transform="matrix(11,0,0,11,383.3,742.7)" />
<use xlink:href="#f1_2h" transform="matrix(11,0,0,11,388.7,742.7)" />
<use xlink:href="#f1_2a" transform="matrix(11,0,0,11,400.1,742.7)" />
<use xlink:href="#f1_1z" transform="matrix(11,0,0,11,411.1,742.7)" />
<use xlink:href="#f1_2g" transform="matrix(11,0,0,11,419.9,742.7)" />
<use xlink:href="#f1_25" transform="matrix(11,0,0,11,426.1,742.7)" />
<use xlink:href="#f1_2b" transform="matrix(11,0,0,11,431.3,742.7)" />
<use xlink:href="#f1_2a" transform="matrix(11,0,0,11,440.8,742.7)" />
<use xlink:href="#f1_g" transform="matrix(11,0,0,11,451.8,742.7)" />
<use xlink:href="#f1_2j" transform="matrix(11,0,0,11,462.7,742.7)" />
<use xlink:href="#f1_21" transform="matrix(11,0,0,11,475.9,742.7)" />
<use xlink:href="#f1_24" transform="matrix(11,0,0,11,489.8,742.7)" />
<use xlink:href="#f1_1x" transform="matrix(11,0,0,11,500.8,742.7)" />
<use xlink:href="#f1_2i" transform="matrix(11,0,0,11,510.4,742.7)" />
<use xlink:href="#f1_21" transform="matrix(11,0,0,11,519.1,742.7)" />
<use xlink:href="#f0_2b" transform="matrix(11,0,0,11,110,1104)" />
<use xlink:href="#f1_1k" transform="matrix(11,0,0,11,137.5,1104)" />
<use xlink:href="#f1_24" transform="matrix(11,0,0,11,147.8,1104)" />
<use xlink:href="#f1_25" transform="matrix(11,0,0,11,158.8,1104)" />
<use xlink:href="#f1_2f" transform="matrix(11,0,0,11,163.9,1104)" />
<use xlink:href="#f1_1z" transform="matrix(11,0,0,11,178.2,1104)" />
<use xlink:href="#f1_1x" transform="matrix(11,0,0,11,187,1104)" />
<use xlink:href="#f1_2a" transform="matrix(11,0,0,11,196.9,1104)" />
<use xlink:href="#f1_1y" transform="matrix(11,0,0,11,213.4,1104)" />
<use xlink:href="#f1_21" transform="matrix(11,0,0,11,223.6,1104)" />
<use xlink:href="#f1_2c" transform="matrix(11,0,0,11,237.9,1104)" />
<use xlink:href="#f1_2e" transform="matrix(11,0,0,11,248.5,1104)" />
<use xlink:href="#f1_2b" transform="matrix(11,0,0,11,255.5,1104)" />
<use xlink:href="#f1_2i" transform="matrix(11,0,0,11,265,1104)" />
<use xlink:href="#f1_21" transform="matrix(11,0,0,11,273.8,1104)" />
<use xlink:href="#f1_20" transform="matrix(11,0,0,11,282.3,1104)" />
<use xlink:href="#f1_1x" transform="matrix(11,0,0,11,298.3,1104)" />
<use xlink:href="#f1_2f" transform="matrix(11,0,0,11,308.2,1104)" />
<use xlink:href="#f1_1y" transform="matrix(11,0,0,11,322.1,1104)" />
<use xlink:href="#f1_21" transform="matrix(11,0,0,11,332.4,1104)" />
<use xlink:href="#f1_28" transform="matrix(11,0,0,11,341.2,1104)" />
<use xlink:href="#f1_2b" transform="matrix(11,0,0,11,346.3,1104)" />
<use xlink:href="#f1_2j" transform="matrix(11,0,0,11,355.8,1104)" />
<use xlink:href="#f1_1x" transform="matrix(11,0,0,11,374.2,1104)" />
<use xlink:href="#f1_28" transform="matrix(11,0,0,11,384,1104)" />
<use xlink:href="#f1_2g" transform="matrix(11,0,0,11,389.2,1104)" />
<use xlink:href="#f1_21" transform="matrix(11,0,0,11,395.4,1104)" />
<use xlink:href="#f1_2e" transform="matrix(11,0,0,11,404.2,1104)" />
<use xlink:href="#f1_2a" transform="matrix(11,0,0,11,411.5,1104)" />
<use xlink:href="#f1_1x" transform="matrix(11,0,0,11,422.5,1104)" />
<use xlink:href="#f1_2g" transform="matrix(11,0,0,11,432.4,1104)" />
<use xlink:href="#f1_25" transform="matrix(11,0,0,11,438.7,1104)" />
<use xlink:href="#f1_2i" transform="matrix(11,0,0,11,443.8,1104)" />
<use xlink:href="#f1_21" transform="matrix(11,0,0,11,452.5,1104)" />
<use xlink:href="#f1_28" transform="matrix(11,0,0,11,461,1104)" />
<use xlink:href="#f1_2l" transform="matrix(11,0,0,11,466.1,1104)" />
</g>
<image preserveAspectRatio="none" x="138" y="95" width="314" height="59" xlink:href="img/1.png" />
<image preserveAspectRatio="none" x="143" y="199" width="409" height="56" xlink:href="img/2.png" />
<image preserveAspectRatio="none" x="138" y="322" width="391" height="89" xlink:href="img/3.png" />
<image preserveAspectRatio="none" x="248" y="542" width="125" height="55" xlink:href="img/4.png" />
<image preserveAspectRatio="none" x="138" y="748" width="460" height="76" xlink:href="img/5.png" />
<image preserveAspectRatio="none" x="138" y="825" width="665" height="261" xlink:href="img/6.png" />
<path fill-rule="evenodd" d="M37.4,38.1h.7v-.7h-.7v.7Z" class="g0_70" />
<path fill-rule="evenodd" d="M37.4,38.1h.7v-.7h-.7v.7Z" class="g0_70" />
<path fill-rule="evenodd" d="M871.5,38.1h.8v-.7h-.8v.7Z" class="g0_70" />
<path fill-rule="evenodd" d="M871.5,38.1h.8v-.7h-.8v.7Z" class="g0_70" />
<path fill-rule="evenodd" d="M872.3,1248.5h.7V38.1h-.7V1248.5Z" class="g1_70" />
<path fill-rule="evenodd" d="M37.4,1249.2h.7v-.7h-.7v.7Z" class="g0_70" />
<path fill-rule="evenodd" d="M37.4,1249.2h.7v-.7h-.7v.7Z" class="g0_70" />
<path fill-rule="evenodd" d="M38.1,1249.9H871.5v-.7H38.1v.7Z" class="g1_70" />
<path fill-rule="evenodd" d="M872.3,1249.9h.7v-1.4h-.7v1.4Z" class="g1_70" />
<path fill-rule="evenodd" d="M871.5,1249.9H873v-.7h-1.5v.7Z" class="g1_70" />
<path fill-rule="evenodd" d="M871.5,1249.2h.8v-.7h-.8v.7Z" class="g0_70" />
<path fill-rule="evenodd" d="M871.5,1249.2h.8v-.7h-.8v.7Z" class="g0_70" />
<g fill="#000000" >
<use xlink:href="#f6_r" transform="matrix(8,0,0,8,792.5,1225.6)" />
</g>
<defs>
<path d="M459,38c0,0,119,0,203,83c0,0,84,84,84,201c0,0,0,118,-84,201c0,0,-84,83,-203,83c0,0,-120,0,-204,-83c0,0,-84,-83,-84,-201c0,0,0,-116,84,-200c0,0,84,-84,204,-84Zm0,-61c0,0,-146,0,-248,100c0,0,-102,102,-102,245c0,0,0,143,102,245c0,0,102,102,248,102c0,0,145,0,247,-102c0,0,103,-101,103,-245c0,0,0,-143,-103,-245C706,77,604,-23,459,-23Z" 
id="f0_2b"
transform="scale(0.001,-0.001)" />

<path d="M569,80c0,0,33,0,111,12c0,0,78,12,112,29c0,0,49,26,95,82c0,0,46,56,71,135c0,0,25,79,25,180c0,0,0,101,-25,175c0,0,-25,74,-75,132c0,0,-50,59,-112,90c0,0,-61,31,-138,39c0,0,-41,4,-137,4H343V80ZM72,0V63h44l14,-1c0,0,28,0,45,11c0,0,18,11,25,30c0,0,5,14,5,65V864c0,0,0,60,-7,77c0,0,-11,23,-34,32c0,0,-13,5,-92,5v62H444c0,0,255,0,356,-32c0,0,148,-47,241,-175c0,0,102,-142,102,-326c0,0,0,-125,-51,-233c0,0,-50,-108,-132,-173c0,0,-68,-56,-163,-78C797,23,701,0,604,0Z" 
id="f1_2u"
transform="scale(0.001,-0.001)" />

<path d="M598,494c0,0,-11,68,-31,101c0,0,-21,33,-58,52c0,0,-38,20,-85,20c0,0,-47,0,-88,-20c0,0,-41,-19,-68,-53c0,0,-27,-35,-47,-100ZM433,-17c0,0,-110,0,-187,44c0,0,-88,52,-135,134c0,0,-46,83,-46,195c0,0,0,118,45,202c0,0,45,83,127,131c0,0,82,48,189,48c0,0,80,0,139,-25c0,0,59,-25,100,-75c0,0,41,-50,59,-115c0,0,11,-37,12,-98H210c0,0,-3,-36,-3,-54c0,0,0,-94,33,-168c0,0,33,-73,87,-108c0,0,54,-34,122,-34c0,0,58,0,113,27c0,0,54,27,131,106l48,-39C741,154,687,89,636,51c0,0,-51,-38,-97,-52c0,0,-45,-16,-106,-16Z" 
id="f1_21"
transform="scale(0.001,-0.001)" />

<path d="M54,0V63H86c0,0,45,0,60,8c0,0,19,11,28,31c0,0,10,20,10,71V613H55v62c0,0,54,4,97,18c0,0,42,13,96,44h56V596c0,0,53,65,123,103c0,0,70,38,126,38c0,0,56,0,88,-26c0,0,32,-26,32,-63c0,0,0,-27,-22,-48c0,0,-21,-20,-51,-20c0,0,-13,0,-23,4c0,0,-10,3,-28,16c0,0,-41,27,-69,27c0,0,-37,0,-82,-32c0,0,-57,-40,-89,-79V173c0,0,0,-45,5,-61c0,0,5,-16,16,-27c0,0,11,-12,28,-17c0,0,16,-5,57,-5h25V0Z" 
id="f1_2e"
transform="scale(0.001,-0.001)" />

<path d="M49,0V63H79c0,0,50,0,68,9c0,0,17,9,24,25c0,0,7,16,7,77V613H49v62c0,0,62,7,104,20c0,0,42,14,96,42h54V140c0,0,0,-32,9,-47c0,0,9,-16,25,-23c0,0,16,-7,58,-7h35V0ZM238,903c0,0,-36,0,-61,25c0,0,-25,25,-25,61c0,0,0,36,25,61c0,0,25,25,61,25c0,0,36,0,61,-25c0,0,26,-25,26,-61c0,0,0,-36,-26,-61c0,0,-25,-25,-61,-25Z" 
id="f1_25"
transform="scale(0.001,-0.001)" />

<path d="M350,0L112,569c0,0,-15,35,-33,58c0,0,-12,14,-31,22c0,0,-20,8,-46,8v63H342V657H322c0,0,-43,0,-53,-3c0,0,-15,-4,-23,-14c0,0,-7,-10,-7,-23c0,0,0,-19,16,-60L425,132L590,557c0,0,15,40,15,59c0,0,0,19,-15,30c0,0,-15,11,-53,11H501v63H795V657c0,0,-30,-1,-51,-10c0,0,-20,-9,-32,-23c0,0,-11,-14,-34,-67L441,0Z" 
id="f1_2i"
transform="scale(0.001,-0.001)" />

<path d="M326,73c0,0,48,0,109,23c0,0,62,24,157,91l1,180c0,0,-173,-26,-215,-35c0,0,-81,-19,-116,-41c0,0,-36,-23,-51,-48c0,0,-14,-26,-14,-55c0,0,0,-29,16,-56c0,0,17,-27,48,-43c0,0,30,-16,65,-16ZM291,-12c0,0,-103,0,-167,55c0,0,-64,56,-64,131c0,0,0,46,23,87c0,0,24,41,72,72c0,0,48,31,151,55c0,0,104,24,287,43v82c0,0,0,83,-47,118c0,0,-46,36,-131,36c0,0,-42,0,-73,-10c0,0,-31,-10,-51,-28c0,0,-19,-18,-28,-40c0,0,-3,-8,-18,-64c0,0,-17,-67,-69,-67c0,0,-30,0,-48,19c0,0,-18,20,-18,54c0,0,0,49,36,97c0,0,37,47,112,78c0,0,75,31,177,31c0,0,95,0,163,-29c0,0,68,-30,100,-85c0,0,23,-38,23,-138V198c0,0,0,-61,3,-79c0,0,9,-32,29,-48c0,0,21,-16,54,-16c0,0,34,0,82,15V5c0,0,-62,-17,-111,-17c0,0,-53,0,-89,14c0,0,-37,15,-60,44c0,0,-23,29,-30,68c0,0,-89,-70,-162,-98c0,0,-72,-28,-146,-28Z" 
id="f1_1x"
transform="scale(0.001,-0.001)" />

<path d="M362,-17c0,0,-57,0,-103,25c0,0,-45,25,-62,59c0,0,-17,35,-17,120V645H49v63c0,0,63,14,102,44c0,0,38,29,62,77c0,0,24,48,39,144h53V720H527V645H305V196c0,0,0,-58,10,-82c0,0,10,-25,34,-41c0,0,25,-15,55,-15c0,0,70,0,156,63V49c0,0,-98,-66,-198,-66Z" 
id="f1_2g"
transform="scale(0.001,-0.001)" />

<path d="M427,50c0,0,63,0,113,33c0,0,49,34,80,107c0,0,30,74,30,173c0,0,0,96,-32,173c0,0,-26,61,-77,95c0,0,-51,34,-115,34c0,0,-85,0,-143,-67c0,0,-75,-84,-75,-243c0,0,0,-153,64,-234c0,0,57,-71,155,-71Zm-4,-67c0,0,-180,0,-271,112c0,0,-90,112,-90,264c0,0,0,111,47,198c0,0,46,86,131,133c0,0,85,47,192,47c0,0,109,0,190,-45c0,0,80,-46,126,-133c0,0,46,-87,46,-199c0,0,0,-112,-47,-199C747,161,699,74,618,28c0,0,-82,-45,-195,-45Z" 
id="f1_2b"
transform="scale(0.001,-0.001)" />

<path d="M51,0V63H74c0,0,59,0,75,7c0,0,16,8,23,24c0,0,7,17,6,77V643H51v77H178V832c0,0,0,115,76,189c0,0,77,73,200,73c0,0,82,0,128,-34c0,0,46,-34,46,-75c0,0,0,-26,-19,-45c0,0,-18,-18,-45,-18c0,0,-25,0,-43,9c0,0,-18,9,-55,45c0,0,-39,37,-75,37c0,0,-25,0,-45,-15c0,0,-19,-16,-30,-45c0,0,-11,-30,-11,-91V720H445V643H305V159c0,0,0,-50,8,-66c0,0,7,-17,22,-24c0,0,15,-6,69,-6h31V0Z" 
id="f1_22"
transform="scale(0.001,-0.001)" />

<path d="M504,63c0,0,97,0,168,73c0,0,71,73,71,221c0,0,0,138,-59,214c0,0,-59,75,-139,75c0,0,-52,0,-114,-27c0,0,-61,-28,-131,-83V280c0,0,0,-51,6,-75c0,0,9,-38,35,-69c0,0,26,-30,70,-52c0,0,44,-21,93,-21ZM48,-331v62H81c0,0,52,0,67,8c0,0,15,8,23,24c0,0,4,13,4,78V613H48v62c0,0,56,0,99,14c0,0,43,14,94,48h59V613c0,0,93,74,155,99c0,0,62,25,124,25c0,0,128,0,218,-100c0,0,90,-99,90,-260c0,0,0,-177,-102,-290C785,87,691,-17,544,-17c0,0,-73,0,-137,27c0,0,-46,20,-107,70V-165c0,0,0,-55,3,-65c0,0,4,-14,15,-24c0,0,11,-10,28,-13c0,0,13,-2,85,-2v-62Z" 
id="f1_2c"
transform="scale(0.001,-0.001)" />

<path d="M410,69c0,0,50,0,114,29c0,0,63,29,121,83V462c0,0,0,61,-22,99c0,0,-23,38,-75,67c0,0,-52,28,-106,28c0,0,-65,0,-120,-35c0,0,-55,-36,-86,-102c0,0,-31,-67,-31,-162c0,0,0,-89,29,-155c0,0,29,-65,77,-99c0,0,49,-34,99,-34ZM375,-17c0,0,-135,0,-224,108c0,0,-89,108,-89,261c0,0,0,109,47,199c0,0,47,91,125,139c0,0,77,47,170,47c0,0,71,0,131,-24c0,0,60,-25,110,-74V968H520v64c0,0,51,4,93,17c0,0,42,13,105,45h56V190c0,0,0,-63,3,-77c0,0,8,-28,26,-39c0,0,18,-11,69,-11h32V0L645,-11V107c0,0,-74,-68,-139,-96c0,0,-66,-28,-131,-28Z" 
id="f1_20"
transform="scale(0.001,-0.001)" />

<path d="M414,-17c0,0,-58,0,-101,16c0,0,-43,15,-75,46c0,0,-33,31,-50,76c0,0,-17,44,-17,94V554c0,0,0,46,-8,64c0,0,-8,18,-27,29c0,0,-19,11,-52,11H16v63l282,10V251c0,0,0,-63,18,-100c0,0,17,-38,53,-58c0,0,37,-21,85,-21c0,0,60,0,135,32c0,0,76,32,151,96V548c0,0,0,55,-8,72c0,0,-8,17,-29,28c0,0,-21,10,-66,10H583v63l282,10V175c0,0,0,-54,9,-75c0,0,9,-20,27,-29c0,0,17,-8,70,-8h23V0L747,-12V126C747,126,645,44,569,13c0,0,-76,-30,-155,-30Z" 
id="f1_2h"
transform="scale(0.001,-0.001)" />

<path d="M426,-17c0,0,-153,0,-258,108C168,91,63,200,63,362c0,0,0,108,48,194c0,0,49,86,136,134c0,0,87,47,200,47c0,0,128,0,214,-63c0,0,86,-63,86,-127c0,0,0,-34,-20,-53c0,0,-20,-19,-46,-19c0,0,-13,0,-26,7c0,0,-12,7,-26,22c0,0,-6,6,-22,41c0,0,-20,44,-31,59c0,0,-23,29,-57,47c0,0,-34,17,-76,17c0,0,-63,0,-117,-35c0,0,-54,-35,-86,-103c0,0,-32,-68,-32,-163c0,0,0,-147,79,-233c0,0,67,-74,161,-74c0,0,44,0,88,14c0,0,44,15,84,43c0,0,29,20,95,91l48,-38C763,170,622,-17,426,-17Z" 
id="f1_1z"
transform="scale(0.001,-0.001)" />

<path d="M336,0L116,550c0,0,-20,53,-34,71c0,0,-13,17,-33,26c0,0,-20,10,-49,10v63H342V657H318c0,0,-44,0,-58,-7c0,0,-22,-10,-22,-32c0,0,0,-21,17,-68L409,142L560,522l-13,34c0,0,-24,61,-54,84c0,0,-20,15,-60,17v63H775V657H746c0,0,-41,0,-53,-7c0,0,-21,-12,-21,-38c0,0,0,-22,16,-62L842,142L993,556c0,0,12,34,13,38c0,0,2,9,2,18c0,0,0,20,-16,33c0,0,-17,12,-61,12H903v63h291V657c0,0,-32,-1,-53,-11c0,0,-20,-10,-32,-25c0,0,-12,-16,-34,-71L858,0H767L596,429L425,0Z" 
id="f1_2j"
transform="scale(0.001,-0.001)" />

<path d="M56,0V63H74c0,0,56,0,76,9c0,0,20,9,28,33c0,0,5,12,5,83V613H56v62c0,0,66,7,99,18c0,0,33,10,94,44h54V595c0,0,98,83,168,113c0,0,70,29,141,29c0,0,61,0,108,-20c0,0,47,-21,77,-56c0,0,29,-35,39,-80c0,0,6,-27,6,-83V170c0,0,0,-59,8,-76c0,0,9,-16,28,-24c0,0,18,-7,91,-7V0H586V63h21c0,0,54,0,73,9c0,0,19,10,28,29c0,0,9,18,9,76V451c0,0,0,85,-14,118c0,0,-14,32,-47,53c0,0,-33,20,-84,20c0,0,-61,0,-129,-31c0,0,-69,-30,-133,-91V177c0,0,0,-58,9,-78c0,0,8,-19,28,-29c0,0,13,-7,71,-7h22V0Z" 
id="f1_2a"
transform="scale(0.001,-0.001)" />

<path d="M450,-17c0,0,-126,0,-215,71L219,0H166L73,244l68,27c0,0,68,-107,128,-152c0,0,84,-63,182,-63c0,0,65,0,107,34c0,0,41,35,41,77c0,0,0,35,-26,64c0,0,-27,29,-103,56L298,349c0,0,-111,40,-154,88c0,0,-43,48,-43,110c0,0,0,75,70,133c0,0,71,57,180,57c0,0,56,0,101,-14c0,0,45,-15,88,-48l20,45h53L680,492L612,469c0,0,-40,92,-113,144c0,0,-73,53,-147,53c0,0,-58,0,-93,-28c0,0,-36,-28,-36,-65c0,0,0,-34,26,-58c0,0,25,-26,114,-58L509,406c0,0,123,-44,168,-94c0,0,44,-51,44,-115c0,0,0,-54,-33,-105c0,0,-33,-50,-95,-80c0,0,-63,-29,-143,-29Z" 
id="f1_2f"
transform="scale(0.001,-0.001)" />

<path d="M413,-272c0,0,102,0,175,22c0,0,73,22,104,56c0,0,24,27,24,64c0,0,0,31,-20,53c0,0,-19,21,-71,37c0,0,-53,16,-99,24L285,21c0,0,-72,-60,-95,-98c0,0,-24,-38,-24,-73c0,0,0,-30,24,-58c0,0,23,-28,80,-46c0,0,57,-18,143,-18Zm-7,571c0,0,47,0,89,25c0,0,42,24,65,66c0,0,23,42,23,94c0,0,0,82,-50,133c0,0,-50,51,-128,51c0,0,-74,0,-124,-53c0,0,-51,-53,-51,-131c0,0,0,-52,23,-94c0,0,23,-42,65,-67c0,0,42,-24,88,-24ZM391,-342c0,0,-120,0,-194,25c0,0,-75,25,-116,72c0,0,-30,33,-30,69c0,0,0,46,30,90c0,0,30,44,140,124c0,0,-71,18,-101,42c0,0,-39,30,-39,69c0,0,0,20,7,36c0,0,7,17,23,34c0,0,17,17,59,47c0,0,27,18,38,27c0,0,-54,39,-82,87c0,0,-27,48,-27,105c0,0,0,95,73,166c0,0,89,86,240,86c0,0,67,0,117,-17c0,0,50,-16,103,-60c0,0,34,40,68,59c0,0,35,18,64,18c0,0,27,0,46,-16c0,0,18,-16,18,-39c0,0,0,-24,-16,-40c0,0,-17,-16,-42,-16c0,0,-11,0,-29,3c0,0,-21,6,-35,6c0,0,-19,0,-39,-18c0,0,47,-56,47,-131c0,0,0,-103,-87,-179c0,0,-87,-75,-219,-75c0,0,-74,0,-148,31c0,0,-49,-35,-56,-43c0,0,-10,-13,-10,-27c0,0,0,-22,22,-36c0,0,28,-18,112,-31L544,94c0,0,72,-11,144,-37c0,0,73,-26,106,-67c0,0,32,-42,32,-100c0,0,0,-98,-91,-157c0,0,-116,-75,-344,-75Z" 
id="f1_23"
transform="scale(0.001,-0.001)" />

<path d="M499,66c0,0,67,0,121,34c0,0,55,35,86,104c0,0,31,68,31,164c0,0,0,135,-66,216c0,0,-53,67,-148,67c0,0,-50,0,-100,-18c0,0,-51,-18,-128,-68V278c0,0,0,-67,10,-95c0,0,10,-27,40,-55c0,0,30,-29,71,-46c0,0,40,-16,83,-16Zm37,-83c0,0,-87,0,-156,36c0,0,-51,27,-98,83L241,0H171V970H42v62c0,0,49,3,96,17c0,0,46,15,103,45h54V639c0,0,66,49,135,74c0,0,69,24,142,24c0,0,83,0,154,-44c0,0,71,-45,111,-127c0,0,41,-81,41,-192c0,0,0,-175,-102,-287C776,87,681,-17,536,-17Z" 
id="f1_1y"
transform="scale(0.001,-0.001)" />

<path d="M137,-342c0,0,-77,0,-123,35c0,0,-38,30,-38,75c0,0,0,27,17,46c0,0,16,18,39,18c0,0,18,0,33,-8c0,0,10,-3,41,-31c0,0,37,-33,52,-41c0,0,15,-7,30,-7c0,0,31,0,61,21c0,0,29,21,50,59c0,0,30,54,49,102L379,0L133,551c0,0,-26,58,-44,78c0,0,-18,21,-36,25c0,0,-10,3,-60,3v63H354V657H324c0,0,-43,0,-51,-2c0,0,-10,-3,-16,-13c0,0,-7,-9,-7,-23c0,0,0,-20,20,-68L444,145L604,533c0,0,29,69,29,91c0,0,0,17,-13,25c0,0,-13,8,-58,8H527v63H832V657H815c0,0,-45,0,-59,-6c0,0,-13,-6,-26,-24c0,0,-12,-18,-40,-83L416,-92c0,0,-30,-69,-66,-128c0,0,-36,-58,-92,-90c0,0,-55,-32,-121,-32Z" 
id="f1_2l"
transform="scale(0.001,-0.001)" />

<path d="M48,0V63H87c0,0,36,0,54,11c0,0,18,11,26,30c0,0,8,19,8,77V970H48v62c0,0,101,7,197,62h55V176c0,0,0,-58,8,-73c0,0,9,-21,28,-31c0,0,19,-9,71,-9h24V0Z" 
id="f1_28"
transform="scale(0.001,-0.001)" />

<path d="M244,-12c0,0,-38,0,-66,27c0,0,-27,27,-27,66c0,0,0,39,27,66c0,0,27,27,66,27c0,0,40,0,67,-27c0,0,27,-27,27,-66c0,0,0,-39,-27,-66c0,0,-28,-27,-67,-27Z" 
id="f1_i"
transform="scale(0.001,-0.001)" />

<path d="M414,67c0,0,47,0,101,22c0,0,54,21,123,73V443c0,0,0,77,-22,116c0,0,-21,40,-74,68c0,0,-52,29,-109,29c0,0,-63,0,-118,-35c0,0,-55,-36,-87,-103c0,0,-31,-67,-31,-160c0,0,0,-131,64,-211c0,0,65,-80,153,-80Zm97,-398v62h33c0,0,44,0,60,8c0,0,16,8,25,25c0,0,9,17,9,60V89c0,0,-32,-30,-80,-55C558,34,511,9,459,-5c0,0,-39,-12,-83,-12c0,0,-87,0,-161,45c0,0,-73,45,-118,133c0,0,-44,87,-44,195c0,0,0,150,89,259c0,0,100,122,260,122c0,0,70,0,124,-23c0,0,55,-23,126,-89l32,95h81V-159c0,0,0,-55,6,-71c0,0,10,-21,28,-30c0,0,18,-9,65,-9h33v-62Z" 
id="f1_2d"
transform="scale(0.001,-0.001)" />

<path d="M56,0V63H79c0,0,54,0,79,13c0,0,13,7,19,26c0,0,6,19,6,107V967H56v65c0,0,72,9,112,22c0,0,40,13,84,40h58V601c0,0,84,71,160,103c0,0,75,33,144,33c0,0,100,0,166,-59c0,0,64,-60,64,-146V166c0,0,0,-54,8,-71c0,0,9,-17,29,-25c0,0,20,-7,90,-7V0H586V63h28c0,0,55,0,72,8c0,0,17,9,25,28c0,0,8,20,8,82V435c0,0,0,85,-6,110c0,0,-12,43,-47,69c0,0,-35,26,-89,26c0,0,-62,0,-128,-30c0,0,-67,-30,-139,-90V147c0,0,0,-42,7,-57c0,0,8,-14,25,-21c0,0,17,-6,68,-6h31V0Z" 
id="f1_24"
transform="scale(0.001,-0.001)" />

<path d="M369,-352c0,0,-73,64,-127,162c0,0,-55,98,-81,225c0,0,-27,128,-27,343c0,0,0,214,30,342c0,0,29,129,96,241c0,0,50,84,109,126l46,-46c0,0,-41,-42,-68,-104c0,0,-39,-94,-57,-219c0,0,-17,-126,-17,-355c0,0,0,-236,16,-354c0,0,17,-117,56,-209c0,0,27,-64,70,-110l-46,-42Z" 
id="f1_2n"
transform="scale(0.001,-0.001)" />

<path d="M55,0V63H75c0,0,51,0,67,8c0,0,24,11,34,36c0,0,6,13,6,69V611H53v64c0,0,56,5,98,18c0,0,42,13,96,44h55V612c0,0,85,67,133,90c0,0,73,35,139,35c0,0,46,0,90,-16c0,0,43,-17,70,-42c0,0,26,-24,45,-67c0,0,78,70,145,97c0,0,67,28,135,28c0,0,66,0,116,-27c0,0,51,-27,73,-68c0,0,23,-41,23,-120V176c0,0,0,-54,2,-63c0,0,4,-15,16,-27c0,0,12,-13,28,-18c0,0,15,-5,58,-5h23V0H1025V63c0,0,64,0,83,9c0,0,19,8,29,28c0,0,9,19,9,76V505c0,0,0,62,-11,86c0,0,-11,24,-40,40c0,0,-29,16,-72,16c0,0,-53,0,-111,-28c0,0,-78,-39,-123,-87V176c0,0,0,-52,5,-68c0,0,5,-16,16,-26c0,0,12,-11,27,-15c0,0,15,-4,74,-4V0H545V63h21c0,0,44,0,62,10c0,0,18,10,28,32c0,0,8,17,8,71V494c0,0,0,70,-11,94c0,0,-11,25,-41,42c0,0,-31,17,-72,17c0,0,-49,0,-98,-24c0,0,-74,-35,-135,-91V149c0,0,0,-35,9,-51c0,0,10,-16,30,-26c0,0,20,-9,55,-9h27V0Z" 
id="f1_29"
transform="scale(0.001,-0.001)" />

<path d="M-9,354v87H773V354Z" 
id="f2_4z"
transform="scale(0.001,-0.001)" />

<path d="M26,0V63L529,645H382c0,0,-102,0,-159,-36c0,0,-57,-37,-106,-140L53,500l99,220H696V657L193,69H317c0,0,145,0,209,35c0,0,87,50,129,167l68,-24L631,0Z" 
id="f1_2m"
transform="scale(0.001,-0.001)" />

<path d="M89,-352l-46,47c0,0,41,42,67,104c0,0,40,93,57,218c0,0,18,125,18,355c0,0,0,235,-17,353c0,0,-16,118,-55,210c0,0,-27,64,-70,109l46,43c0,0,73,-63,127,-161c0,0,54,-98,81,-226c0,0,27,-128,27,-343c0,0,0,-214,-30,-343c0,0,-29,-127,-96,-239c0,0,-51,-85,-109,-127Z" 
id="f1_2o"
transform="scale(0.001,-0.001)" />

<path d="M70,0V63h33c0,0,48,0,64,8c0,0,17,8,25,27c0,0,9,19,9,65V871c0,0,0,54,-8,73c0,0,-8,18,-24,26c0,0,-15,8,-66,8H70v62H474V978H437c0,0,-43,0,-61,-9c0,0,-18,-8,-27,-24c0,0,-8,-15,-8,-56V164c0,0,0,-50,4,-60c0,0,4,-13,19,-19c0,0,11,-5,61,-5h56c0,0,96,0,167,28c0,0,70,28,122,81c0,0,51,54,99,159l66,-22L819,0Z" 
id="f1_2y"
transform="scale(0.001,-0.001)" />

<path d="M95,357v92H822V357Zm0,235v91H822V592Z" 
id="f1_2s"
transform="scale(0.001,-0.001)" />

<path d="M0,0V62c0,0,36,0,56,8c0,0,21,7,41,22c0,0,33,27,48,43L365,360L178,573c0,0,-35,40,-56,56c0,0,-20,16,-40,23c0,0,-19,6,-54,6v62H403V658H377c0,0,-22,0,-41,-5c0,0,-11,-3,-18,-12c0,0,-7,-8,-7,-16c0,0,0,-17,28,-52L446,439L570,573c0,0,34,37,34,56c0,0,0,14,-12,21c0,0,-12,8,-51,8H513v62H831V658c0,0,-47,-2,-81,-20c0,0,-34,-17,-80,-66L499,396L711,153l9,-11c0,0,31,-40,70,-65c0,0,21,-15,67,-15V0H491V62h31c0,0,36,0,46,4c0,0,16,8,16,26c0,0,0,16,-36,61L413,318L262,153L247,135l-9,-9c0,0,-18,-21,-18,-37c0,0,0,-14,11,-21c0,0,12,-6,52,-6h29V0Z" 
id="f1_2k"
transform="scale(0.001,-0.001)" />

<path d="M129,331V773H571V331Z" 
id="f3_3o"
transform="scale(0.001,-0.001)" />

<path d="M532,575c0,0,81,0,119,17c0,0,38,16,61,51c0,0,23,35,23,83c0,0,0,71,-55,113c0,0,-41,31,-121,31H443V575ZM61,0V144H96c0,0,46,0,61,6c0,0,15,7,22,22c0,0,7,14,7,60V804c0,0,0,48,-6,63c0,0,-6,15,-19,23c0,0,-13,7,-50,7H61v143H611c0,0,104,0,173,-21c0,0,69,-21,119,-64c0,0,49,-44,76,-103c0,0,27,-59,27,-126c0,0,0,-133,-102,-223c0,0,-103,-90,-284,-90H443V218c0,0,0,-37,5,-47c0,0,7,-14,21,-21c0,0,13,-6,46,-6h53V0Z" 
id="f4_1g"
transform="scale(0.001,-0.001)" />

<path d="M65,0V144h38c0,0,41,0,51,4c0,0,10,5,16,16c0,0,5,11,5,50V556H65L64,699c0,0,122,8,253,63h70V654c0,0,60,62,104,85c0,0,44,23,84,23c0,0,37,0,66,-17c0,0,28,-17,45,-48c0,0,17,-32,17,-67c0,0,0,-47,-31,-85c0,0,-31,-38,-87,-38c0,0,-15,0,-27,2c0,0,-11,2,-49,15c0,0,-19,6,-32,6c0,0,-19,0,-64,-25V214c0,0,0,-37,5,-49c0,0,6,-11,18,-16c0,0,13,-5,55,-5h33V0Z" 
id="f4_2e"
transform="scale(0.001,-0.001)" />

<path d="M469,144c0,0,66,0,113,55c0,0,47,56,47,172c0,0,0,114,-44,170c0,0,-43,57,-111,57c0,0,-43,0,-80,-25c0,0,-37,-25,-58,-74c0,0,-20,-49,-20,-125c0,0,0,-78,20,-130c0,0,20,-51,55,-76c0,0,36,-24,78,-24Zm5,-161c0,0,-193,0,-307,109C167,92,57,196,57,374c0,0,0,117,50,201c0,0,50,85,146,136c0,0,95,51,218,51c0,0,127,0,222,-50c0,0,95,-50,146,-136c0,0,51,-86,51,-202c0,0,0,-174,-113,-283C777,91,663,-17,474,-17Z" 
id="f4_2b"
transform="scale(0.001,-0.001)" />

<path d="M463,160c0,0,26,0,49,9c0,0,24,9,81,44V463c0,0,0,47,-7,66c0,0,-9,28,-41,49c0,0,-32,20,-71,20c0,0,-41,0,-75,-24c0,0,-35,-24,-55,-74c0,0,-20,-50,-20,-124c0,0,0,-104,45,-166c0,0,36,-50,94,-50ZM389,-17c0,0,-86,0,-158,46c0,0,-72,47,-118,138c0,0,-46,92,-46,204c0,0,0,113,47,205c0,0,47,92,122,139c0,0,75,47,168,47c0,0,48,0,92,-12c0,0,43,-11,97,-40V888H484v144c0,0,92,9,150,22c0,0,57,14,124,41h72V227c0,0,0,-51,5,-62c0,0,4,-11,15,-16c0,0,11,-5,57,-5h35V0L618,-10V66C618,66,548,19,495,1c0,0,-53,-18,-106,-18Z" 
id="f4_20"
transform="scale(0.001,-0.001)" />

<path d="M384,-17c0,0,-54,0,-99,17c0,0,-45,17,-75,47c0,0,-31,29,-46,69c0,0,-14,39,-14,101V524c0,0,0,43,-5,54c0,0,-5,11,-16,17c0,0,-12,5,-49,5H39V744l348,7V268c0,0,0,-52,7,-69c0,0,6,-17,23,-28c0,0,16,-11,42,-11c0,0,37,0,79,18c0,0,16,8,87,53V521c0,0,0,38,-6,53c0,0,-6,14,-17,20c0,0,-12,6,-44,6H514V744l350,7V218c0,0,0,-42,5,-53c0,0,5,-11,16,-15c0,0,11,-5,51,-5h40V0L648,-8V79C648,79,583,31,517,7c0,0,-66,-24,-133,-24Z" 
id="f4_2h"
transform="scale(0.001,-0.001)" />

<path d="M461,-17c0,0,-172,0,-288,112C173,95,57,207,57,369c0,0,0,110,54,200c0,0,54,91,148,142c0,0,94,51,222,51c0,0,154,0,251,-72c0,0,97,-71,97,-150c0,0,0,-34,-15,-60c0,0,-15,-27,-47,-43c0,0,-31,-17,-66,-17c0,0,-28,0,-51,12c0,0,-22,11,-37,28c0,0,-7,7,-26,46c0,0,-24,49,-38,64c0,0,-13,16,-32,25c0,0,-19,8,-42,8c0,0,-39,0,-74,-25c0,0,-36,-25,-59,-75c0,0,-22,-51,-22,-113c0,0,0,-69,27,-123c0,0,26,-55,71,-83c0,0,46,-29,100,-29c0,0,52,0,105,29c0,0,53,28,114,98L847,186C847,186,759,79,664,31c0,0,-95,-48,-203,-48Z" 
id="f4_1z"
transform="scale(0.001,-0.001)" />

<path d="M435,-11c0,0,-70,0,-123,17c0,0,-53,17,-91,50c0,0,-37,32,-52,69c0,0,-15,36,-15,105V585H43V728c0,0,60,20,102,56c0,0,42,36,68,87c0,0,26,51,35,129H392V744H633V585H392V326c0,0,0,-88,9,-113c0,0,10,-25,35,-39c0,0,34,-20,77,-20c0,0,77,0,153,49V44C666,44,601,13,548,1c0,0,-52,-12,-113,-12Z" 
id="f4_2g"
transform="scale(0.001,-0.001)" />

<path d="M593,600c0,0,92,0,137,17c0,0,45,17,68,48c0,0,22,31,22,76c0,0,0,41,-21,71c0,0,-21,29,-60,43c0,0,-40,14,-128,14H439V600ZM55,0V144h46c0,0,37,0,52,8c0,0,16,7,23,23c0,0,4,9,4,56V816c0,0,0,35,-6,49c0,0,-5,15,-18,19c0,0,-18,8,-41,8H55v148H697c0,0,62,0,135,-11c0,0,74,-11,133,-49c0,0,60,-38,92,-96c0,0,33,-59,33,-132c0,0,0,-118,-84,-192c0,0,-85,-73,-201,-96L1019,215l9,-11c0,0,21,-25,38,-38c0,0,17,-12,34,-17c0,0,18,-5,48,-5h45V0H859L526,448H439V241c0,0,0,-54,6,-69c0,0,6,-14,19,-21c0,0,13,-7,52,-7h48V0Z" 
id="f4_1i"
transform="scale(0.001,-0.001)" />

<path d="M42,0V144H70c0,0,45,0,58,5c0,0,13,6,19,18c0,0,6,13,6,55V888H42v144c0,0,133,9,276,63h72V222c0,0,0,-44,4,-52c0,0,5,-15,23,-22c0,0,11,-4,60,-4h27V0Z" 
id="f4_28"
transform="scale(0.001,-0.001)" />

<path d="M583,491c0,0,-5,45,-22,71c0,0,-16,25,-43,41c0,0,-27,15,-57,15c0,0,-32,0,-61,-16c0,0,-29,-15,-47,-42c0,0,-17,-27,-23,-69ZM457,-17c0,0,-170,0,-286,115C171,98,55,213,55,376c0,0,0,107,52,196c0,0,52,89,145,139c0,0,92,51,209,51c0,0,75,0,136,-22c0,0,61,-22,107,-62c0,0,46,-40,73,-97c0,0,28,-57,39,-118c0,0,4,-31,4,-97H319c0,0,1,-95,55,-153c0,0,54,-58,133,-58c0,0,50,0,109,30c0,0,58,30,116,91L834,173C834,173,746,73,655,27c0,0,-92,-44,-198,-44Z" 
id="f4_21"
transform="scale(0.001,-0.001)" />

<path d="M261,-11c0,0,-58,0,-99,40c0,0,-41,41,-41,98c0,0,0,58,41,98c0,0,41,41,99,41c0,0,57,0,98,-41c0,0,41,-40,41,-98c0,0,0,-57,-41,-98c0,0,-41,-40,-98,-40Zm-1,493c0,0,-57,0,-98,41c0,0,-41,41,-41,99c0,0,0,57,42,98c0,0,41,42,98,42c0,0,57,0,98,-41c0,0,41,-41,41,-99c0,0,0,-58,-41,-99c0,0,-41,-41,-99,-41Z" 
id="f4_2u"
transform="scale(0.001,-0.001)" />

<path d="M273,157c0,0,-114,0,-193,80C80,237,0,317,0,431c0,0,0,112,80,192c0,0,79,80,193,80c0,0,113,0,192,-80c0,0,80,-80,80,-192c0,0,0,-114,-80,-194c0,0,-79,-80,-192,-80Z" 
id="f5_3d"
transform="scale(0.001,-0.001)" />

<path d="M98,675l25,261c0,0,11,122,83,122c0,0,43,0,43,-45c0,0,0,-25,-19,-75L128,675Z" 
id="f2_8s"
transform="scale(0.001,-0.001)" />

<path d="M95,357v92H822V357Zm0,235v91H822V592Z" 
id="f2_x"
transform="scale(0.001,-0.001)" />

<path d="M414,-17c0,0,-58,0,-101,16c0,0,-43,15,-75,46c0,0,-33,31,-50,76c0,0,-17,44,-17,94V554c0,0,0,46,-8,64c0,0,-8,18,-27,29c0,0,-19,11,-52,11H16v63l282,10V251c0,0,0,-63,18,-100c0,0,17,-38,53,-58c0,0,37,-21,85,-21c0,0,60,0,135,32c0,0,76,32,151,96V548c0,0,0,55,-8,72c0,0,-8,17,-29,28c0,0,-21,10,-66,10H583v63l282,10V175c0,0,0,-54,9,-75c0,0,9,-20,27,-29c0,0,17,-8,70,-8h23V0L747,-12V126C747,126,645,44,569,13c0,0,-76,-30,-155,-30Z" 
id="f2_2h"
transform="scale(0.001,-0.001)" />

<path d="M165,655l-41,49c0,0,154,125,154,208c0,0,0,10,-2,24c0,0,-13,-5,-25,-8c0,0,-12,-3,-22,-3c0,0,-36,0,-58,23c0,0,-21,23,-21,59c0,0,0,35,26,61c0,0,26,26,63,26c0,0,50,0,87,-40c0,0,36,-41,36,-105c0,0,0,-42,-17,-88c0,0,-18,-46,-50,-85c0,0,-33,-39,-130,-121Z" 
id="f2_54"
transform="scale(0.001,-0.001)" />

<path d="M413,156V474H95v92H413V884h92V566H822V474H505V156Z" 
id="f2_f"
transform="scale(0.001,-0.001)" />

<path d="M350,0L112,569c0,0,-15,35,-33,58c0,0,-12,14,-31,22c0,0,-20,8,-46,8v63H342V657H322c0,0,-43,0,-53,-3c0,0,-15,-4,-23,-14c0,0,-7,-10,-7,-23c0,0,0,-19,16,-60L425,132L590,557c0,0,15,40,15,59c0,0,0,19,-15,30c0,0,-15,11,-53,11H501v63H795V657c0,0,-30,-1,-51,-10c0,0,-20,-9,-32,-23c0,0,-11,-14,-34,-67L441,0Z" 
id="f2_2i"
transform="scale(0.001,-0.001)" />

<path d="M649,459L489,906L328,459ZM2,0V63c0,0,43,0,62,8c0,0,19,9,34,28c0,0,14,19,37,80l324,861H583L905,170c0,0,24,-65,48,-86c0,0,24,-21,65,-21h17V0H665V63c0,0,18,1,35,1c0,0,36,0,47,8c0,0,21,14,21,35c0,0,0,16,-20,77L679,385H302L221,160c0,0,-13,-35,-13,-48c0,0,0,-15,8,-26c0,0,8,-12,21,-17c0,0,14,-6,43,-6c0,0,20,0,33,0V0Z" 
id="f1_11"
transform="scale(0.001,-0.001)" />

<path d="M611,148c0,0,117,0,187,88c0,0,83,105,83,281c0,0,0,124,-35,208c0,0,-36,84,-96,126c0,0,-61,42,-132,42c0,0,-118,0,-189,-89c0,0,-88,-112,-88,-289c0,0,0,-176,82,-279c0,0,71,-88,188,-88ZM827,-306c0,0,-110,0,-191,38c0,0,-81,38,-122,112c0,0,-33,60,-35,150c0,0,-169,26,-287,151C192,145,53,292,53,517c0,0,0,238,155,390c0,0,154,151,406,151c0,0,249,0,402,-151c0,0,153,-150,153,-387c0,0,0,-139,-53,-250c0,0,-54,-112,-149,-182C967,88,871,17,734,-7c0,0,3,-66,47,-100c0,0,45,-34,109,-34c0,0,48,0,100,16c0,0,52,16,92,43l73,-126c0,0,-82,-52,-161,-75c0,0,-78,-23,-167,-23Z" 
id="f4_2z"
transform="scale(0.001,-0.001)" />

<path d="M59,0V144H98c0,0,39,0,50,4c0,0,11,4,16,14c0,0,5,9,5,38V556H59V696c0,0,59,3,113,13c0,0,54,10,96,23c0,0,28,9,68,30h71V211c0,0,0,-40,4,-49c0,0,5,-9,16,-13c0,0,12,-5,52,-5h40V0ZM286,820c0,0,-57,0,-97,40c0,0,-39,40,-39,97c0,0,0,56,41,96c0,0,41,41,95,41c0,0,57,0,97,-40c0,0,39,-40,39,-96c0,0,0,-58,-39,-98c0,0,-40,-40,-97,-40Z" 
id="f4_25"
transform="scale(0.001,-0.001)" />

<path d="M67,0V144H89c0,0,52,0,64,4c0,0,12,5,19,16c0,0,6,11,6,44V554H67V698c0,0,134,17,251,64h69V663c0,0,85,57,145,78c0,0,60,21,122,21c0,0,73,0,128,-31c0,0,56,-30,81,-76c0,0,26,-46,26,-130V215c0,0,0,-40,5,-51c0,0,6,-11,18,-17c0,0,9,-3,54,-3h36V0H564V144c0,0,50,0,56,2c0,0,19,5,25,17c0,0,6,12,6,51V487c0,0,0,53,-11,69c0,0,-18,26,-57,26c0,0,-32,0,-69,-14c0,0,-36,-14,-98,-58V214c0,0,0,-48,10,-59c0,0,11,-11,51,-11h24V0Z" 
id="f4_2a"
transform="scale(0.001,-0.001)" />

<path d="M280,0V144h30c0,0,51,0,66,6c0,0,14,6,21,22c0,0,8,17,8,67V851c0,0,0,26,-6,33c0,0,-6,7,-26,7c0,0,-38,0,-86,-29c0,0,-48,-29,-85,-82c0,0,-15,-21,-63,-118L2,711l128,365h99l10,-36H826l13,36h99L1067,711L928,662c0,0,-46,91,-66,119c0,0,-40,55,-92,86c0,0,-38,24,-77,24c0,0,-18,0,-24,-9c0,0,-7,-8,-7,-39V244c0,0,0,-53,4,-66c0,0,3,-13,12,-21c0,0,9,-8,25,-11c0,0,16,-2,84,-2V0Z" 
id="f4_1k"
transform="scale(0.001,-0.001)" />

<path d="M63,0V144h41c0,0,37,0,47,5c0,0,10,4,15,16c0,0,5,12,5,46V888H63v144c0,0,61,3,139,21c0,0,77,17,139,42h70V680c0,0,73,45,130,63c0,0,57,19,110,19c0,0,71,0,126,-30c0,0,56,-31,82,-76c0,0,26,-46,26,-122V223c0,0,0,-45,4,-55c0,0,6,-14,22,-21c0,0,10,-3,53,-3h35V0H560V144h23c0,0,32,0,43,6c0,0,12,6,17,16c0,0,4,11,4,53V476c0,0,0,51,-6,67c0,0,-6,17,-23,28c0,0,-16,11,-41,11c0,0,-35,0,-73,-14c0,0,-38,-15,-93,-53V219c0,0,0,-42,4,-53c0,0,5,-10,17,-16c0,0,13,-6,47,-6h17V0Z" 
id="f4_31"
transform="scale(0.001,-0.001)" />

<path d="M73,0V144h29c0,0,47,0,58,5c0,0,12,4,18,17c0,0,6,12,6,54V554H73V698c0,0,137,13,253,64h70V663c0,0,65,49,132,74c0,0,67,25,136,25c0,0,44,0,85,-13c0,0,41,-13,68,-34c0,0,27,-21,49,-57c0,0,73,55,139,79c0,0,66,25,135,25c0,0,60,0,108,-22c0,0,49,-22,79,-58c0,0,30,-37,39,-81c0,0,6,-26,6,-78V215c0,0,0,-38,5,-50c0,0,6,-11,19,-17c0,0,10,-4,55,-4h32V0H1049V144c0,0,48,0,61,5c0,0,12,4,18,15c0,0,6,11,6,48V483c0,0,0,47,-6,62c0,0,-7,15,-25,26c0,0,-18,11,-44,11c0,0,-29,0,-63,-13c0,0,-33,-13,-99,-57V220c0,0,0,-43,6,-55c0,0,5,-11,20,-17c0,0,9,-4,59,-4V0H574V144c0,0,51,0,62,5c0,0,11,4,17,16c0,0,6,12,6,55V475c0,0,0,58,-10,78c0,0,-17,29,-59,29c0,0,-21,0,-44,-5c0,0,-23,-6,-46,-17c0,0,-12,-6,-61,-38L421,510V220c0,0,0,-42,5,-52c0,0,4,-11,17,-18c0,0,13,-6,45,-6h20V0Z" 
id="f4_29"
transform="scale(0.001,-0.001)" />

<path d="M516,146c0,0,80,0,131,54c0,0,52,54,52,141c0,0,0,88,-50,142c0,0,-50,53,-129,53c0,0,-54,0,-96,-24c0,0,-41,-25,-65,-70c0,0,-23,-45,-23,-103c0,0,0,-85,51,-139c0,0,51,-54,129,-54Zm8,-163c0,0,-207,0,-323,110C201,93,65,221,65,447c0,0,0,153,45,260c0,0,46,107,145,190c0,0,98,82,231,121c0,0,132,39,362,41V912c0,0,-143,-5,-228,-27c0,0,-85,-21,-142,-58c0,0,-57,-38,-92,-89c0,0,-35,-51,-49,-116c0,0,66,45,124,64c0,0,59,19,127,19c0,0,109,0,195,-45c0,0,86,-44,131,-121c0,0,45,-76,45,-176c0,0,0,-166,-117,-273C842,90,724,-17,524,-17Z" 
id="f4_2s"
transform="scale(0.001,-0.001)" />

<path d="M83,333v92H527V333Z" 
id="f1_h"
transform="scale(0.001,-0.001)" />

<path d="M255,0V63h81c0,0,53,0,71,9c0,0,18,9,27,30c0,0,10,20,10,75V886H255v64c0,0,155,22,258,90h56V177c0,0,0,-61,8,-79c0,0,8,-18,26,-26c0,0,18,-9,71,-9h73V0Z" 
id="f1_l"
transform="scale(0.001,-0.001)" />

<path d="M61,0V144H97c0,0,45,0,55,4c0,0,9,5,14,16c0,0,5,12,5,57V587H61V744H171v78c0,0,0,83,29,133c0,0,35,62,111,101c0,0,76,39,182,39c0,0,112,0,175,-47c0,0,63,-48,63,-105c0,0,0,-46,-28,-74c0,0,-29,-29,-76,-29c0,0,-19,0,-36,6c0,0,-18,5,-33,16c0,0,-12,8,-39,38c0,0,-25,28,-34,33c0,0,-11,7,-21,7c0,0,-26,0,-41,-24c0,0,-14,-24,-14,-94V744H530V587H409V221c0,0,0,-44,3,-53c0,0,6,-12,18,-18c0,0,11,-6,49,-6h41V0Z" 
id="f4_22"
transform="scale(0.001,-0.001)" />

<path d="M535,80c0,0,150,0,215,17c0,0,64,17,110,71c0,0,45,54,45,130c0,0,0,64,-37,113c0,0,-37,50,-102,72c0,0,-65,22,-231,22H333V164c0,0,0,-52,5,-62c0,0,6,-13,24,-18c0,0,12,-4,71,-4ZM524,576c0,0,134,0,183,13c0,0,77,20,118,68c0,0,40,49,40,125c0,0,0,64,-37,107c0,0,-37,43,-99,59c0,0,-40,9,-167,9H333V576ZM63,0V63H98c0,0,50,0,69,15c0,0,27,22,27,72V872c0,0,0,51,-9,70c0,0,-8,19,-24,27c0,0,-17,9,-63,9H63v62H557c0,0,182,0,249,-16c0,0,99,-24,157,-87c0,0,58,-62,58,-150c0,0,0,-64,-31,-114c0,0,-30,-51,-88,-86c0,0,-38,-24,-102,-40c0,0,81,-15,124,-36c0,0,63,-31,101,-89c0,0,37,-58,37,-131c0,0,0,-71,-37,-131c0,0,-36,-61,-103,-100C922,60,855,22,766,11C766,11,678,0,584,0Z" 
id="f1_2t"
transform="scale(0.001,-0.001)" />

<path d="M166,-269l-41,49c0,0,154,125,154,208c0,0,0,10,-2,23c0,0,-13,-5,-25,-8C252,3,240,0,230,0c0,0,-36,0,-58,23c0,0,-21,23,-21,59c0,0,0,35,26,61c0,0,26,26,62,26c0,0,51,0,88,-40c0,0,36,-41,36,-105c0,0,0,-41,-17,-87c0,0,-18,-46,-50,-85c0,0,-33,-39,-130,-121Z" 
id="f1_g"
transform="scale(0.001,-0.001)" />

<path d="M274,0V63c0,0,66,0,81,4c0,0,26,8,38,29c0,0,11,21,11,77V910c0,0,0,34,-4,41c0,0,-3,8,-12,12c0,0,-9,4,-39,4c0,0,-81,0,-130,-21c0,0,-48,-21,-91,-70c0,0,-44,-50,-74,-130l-67,24L94,1076h52l7,-36H792l6,36h55L962,770L895,746c0,0,-49,122,-115,172c0,0,-66,49,-170,49c0,0,-43,0,-51,-3c0,0,-9,-4,-12,-12c0,0,-3,-8,-3,-52V178c0,0,0,-51,5,-69c0,0,6,-18,16,-28c0,0,11,-9,29,-14c0,0,18,-4,82,-4V0Z" 
id="f1_1k"
transform="scale(0.001,-0.001)" />

<path d="M225,0c0,0,2,129,51,312c0,0,48,183,139,352c0,0,91,170,193,286H72v129H780V975C780,975,676,864,573,680C573,680,470,495,414,301C414,301,374,163,363,0Z" 
id="f6_r"
transform="scale(0.001,-0.001)" />


</defs>
</svg>