<?xml version="1.0" encoding="UTF-8" standalone="no"?>
<!DOCTYPE svg PUBLIC "-//W3C//DTD SVG 1.1//EN"
"http://www.w3.org/Graphics/SVG/1.1/DTD/svg11.dtd">
<svg viewBox="0 0 909 1286" version="1.1" xmlns="http://www.w3.org/2000/svg" xmlns:xlink="http://www.w3.org/1999/xlink">
<defs>
<style type="text/css"><![CDATA[
.g0_62{
fill: #FFFFFF;
}
.g1_62{
fill: #ED7D31;
}
.g2_62{
}
]]></style>
</defs>
<path fill-rule="evenodd" d="M52.8,102H856.9V74.5H52.8V102Z" class="g0_62" />
<g fill="#000000" >
<use xlink:href="#f0_2b" transform="matrix(12,0,0,12,55,96.8)" />
<use xlink:href="#f1_11" transform="matrix(12,0,0,12,82.5,96.8)" />
<use xlink:href="#f1_28" transform="matrix(12,0,0,12,96.8,96.8)" />
<use xlink:href="#f1_2f" transform="matrix(12,0,0,12,102.3,96.8)" />
<use xlink:href="#f1_2b" transform="matrix(12,0,0,12,110,96.8)" />
<use xlink:href="#f1_1h" transform="matrix(12,0,0,12,124.7,96.8)" />
<use xlink:href="#f1_2h" transform="matrix(12,0,0,12,139,96.8)" />
<use xlink:href="#f1_1x" transform="matrix(12,0,0,12,150.1,96.8)" />
<use xlink:href="#f1_20" transform="matrix(12,0,0,12,159.2,96.8)" />
<use xlink:href="#f1_2e" transform="matrix(12,0,0,12,170.5,96.8)" />
<use xlink:href="#f1_25" transform="matrix(12,0,0,12,177.8,96.8)" />
<use xlink:href="#f1_28" transform="matrix(12,0,0,12,183,96.8)" />
<use xlink:href="#f1_1x" transform="matrix(12,0,0,12,188.4,96.8)" />
<use xlink:href="#f1_2g" transform="matrix(12,0,0,12,197.6,96.8)" />
<use xlink:href="#f1_21" transform="matrix(12,0,0,12,203.5,96.8)" />
<use xlink:href="#f1_2e" transform="matrix(12,0,0,12,212.3,96.8)" />
<use xlink:href="#f1_1x" transform="matrix(12,0,0,12,219.6,96.8)" />
<use xlink:href="#f1_28" transform="matrix(12,0,0,12,228.8,96.8)" />
<use xlink:href="#f1_2f" transform="matrix(12,0,0,12,234.2,96.8)" />
<use xlink:href="#f1_1c" transform="matrix(12,0,0,12,246.3,96.8)" />
<use xlink:href="#f1_1e" transform="matrix(12,0,0,12,257.7,96.8)" />
<use xlink:href="#f1_1i" transform="matrix(12,0,0,12,273.1,96.8)" />
<use xlink:href="#f1_1j" transform="matrix(12,0,0,12,285.2,96.8)" />
<use xlink:href="#f1_1x" transform="matrix(12,0,0,12,299.4,96.8)" />
<use xlink:href="#f1_2a" transform="matrix(12,0,0,12,308.6,96.8)" />
<use xlink:href="#f1_20" transform="matrix(12,0,0,12,318.9,96.8)" />
<use xlink:href="#f1_1e" transform="matrix(12,0,0,12,334.9,96.8)" />
<use xlink:href="#f1_1d" transform="matrix(12,0,0,12,350.3,96.8)" />
<use xlink:href="#f1_1k" transform="matrix(12,0,0,12,367.5,96.8)" />
<use xlink:href="#f1_1i" transform="matrix(12,0,0,12,378.8,96.8)" />
<use xlink:href="#f1_1x" transform="matrix(12,0,0,12,395.7,96.8)" />
<use xlink:href="#f1_2e" transform="matrix(12,0,0,12,404.9,96.8)" />
<use xlink:href="#f1_21" transform="matrix(12,0,0,12,412.2,96.8)" />
<use xlink:href="#f1_2c" transform="matrix(12,0,0,12,425.3,96.8)" />
<use xlink:href="#f1_1x" transform="matrix(12,0,0,12,436.4,96.8)" />
<use xlink:href="#f1_2e" transform="matrix(12,0,0,12,445.5,96.8)" />
<use xlink:href="#f1_1x" transform="matrix(12,0,0,12,452.5,96.8)" />
<use xlink:href="#f1_28" transform="matrix(12,0,0,12,461.6,96.8)" />
<use xlink:href="#f1_28" transform="matrix(12,0,0,12,467.1,96.8)" />
<use xlink:href="#f1_21" transform="matrix(12,0,0,12,472.6,96.8)" />
<use xlink:href="#f1_28" transform="matrix(12,0,0,12,481.4,96.8)" />
<use xlink:href="#f1_2b" transform="matrix(12,0,0,12,486.9,96.8)" />
<use xlink:href="#f1_23" transform="matrix(12,0,0,12,496.8,96.8)" />
<use xlink:href="#f1_2e" transform="matrix(12,0,0,12,506.7,96.8)" />
<use xlink:href="#f1_1x" transform="matrix(12,0,0,12,514,96.8)" />
<use xlink:href="#f1_29" transform="matrix(12,0,0,12,523.2,96.8)" />
<use xlink:href="#f1_2f" transform="matrix(12,0,0,12,539.3,96.8)" />
<use xlink:href="#f1_i" transform="matrix(12,0,0,12,547,96.8)" />
</g>
<path fill-rule="evenodd" d="M52.8,129.5H856.9V102H52.8v27.5Z" class="g0_62" />
<g fill="#000000" >
<use xlink:href="#f0_2b" transform="matrix(12,0,0,12,55,124.3)" />
<use xlink:href="#f1_1k" transform="matrix(12,0,0,12,82.5,124.3)" />
<use xlink:href="#f1_24" transform="matrix(12,0,0,12,93.9,124.3)" />
<use xlink:href="#f1_21" transform="matrix(12,0,0,12,104.6,124.3)" />
<use xlink:href="#f1_2g" transform="matrix(12,0,0,12,118.1,124.3)" />
<use xlink:href="#f1_2e" transform="matrix(12,0,0,12,123.9,124.3)" />
<use xlink:href="#f1_25" transform="matrix(12,0,0,12,131.2,124.3)" />
<use xlink:href="#f1_1x" transform="matrix(12,0,0,12,136.7,124.3)" />
<use xlink:href="#f1_2a" transform="matrix(12,0,0,12,145.9,124.3)" />
<use xlink:href="#f1_23" transform="matrix(12,0,0,12,156.6,124.3)" />
<use xlink:href="#f1_28" transform="matrix(12,0,0,12,166.4,124.3)" />
<use xlink:href="#f1_21" transform="matrix(12,0,0,12,171.9,124.3)" />
<use xlink:href="#f1_2f" transform="matrix(12,0,0,12,180.7,124.3)" />
<use xlink:href="#f1_1g" transform="matrix(12,0,0,12,193.2,124.3)" />
<use xlink:href="#f1_1j" transform="matrix(12,0,0,12,204.2,124.3)" />
<use xlink:href="#f1_1i" transform="matrix(12,0,0,12,213.7,124.3)" />
<use xlink:href="#f1_1x" transform="matrix(12,0,0,12,230.5,124.3)" />
<use xlink:href="#f1_2a" transform="matrix(12,0,0,12,239.7,124.3)" />
<use xlink:href="#f1_20" transform="matrix(12,0,0,12,250.4,124.3)" />
<use xlink:href="#f1_1h" transform="matrix(12,0,0,12,266.1,124.3)" />
<use xlink:href="#f1_1k" transform="matrix(12,0,0,12,280.4,124.3)" />
<use xlink:href="#f1_1i" transform="matrix(12,0,0,12,291.7,124.3)" />
<use xlink:href="#f1_1x" transform="matrix(12,0,0,12,308.6,124.3)" />
<use xlink:href="#f1_2e" transform="matrix(12,0,0,12,317.8,124.3)" />
<use xlink:href="#f1_21" transform="matrix(12,0,0,12,325.1,124.3)" />
<use xlink:href="#f1_2f" transform="matrix(12,0,0,12,338.3,124.3)" />
<use xlink:href="#f1_25" transform="matrix(12,0,0,12,345.9,124.3)" />
<use xlink:href="#f1_29" transform="matrix(12,0,0,12,351.4,124.3)" />
<use xlink:href="#f1_25" transform="matrix(12,0,0,12,367.6,124.3)" />
<use xlink:href="#f1_28" transform="matrix(12,0,0,12,372.7,124.3)" />
<use xlink:href="#f1_1x" transform="matrix(12,0,0,12,378.2,124.3)" />
<use xlink:href="#f1_2e" transform="matrix(12,0,0,12,387.3,124.3)" />
<use xlink:href="#f1_i" transform="matrix(12,0,0,12,394.7,124.3)" />
</g>
<path fill-rule="evenodd" d="M52.8,168.7H856.9V129.5H52.8v39.2Z" class="g0_62" />
<g fill="#000000" >
<use xlink:href="#f0_2b" transform="matrix(12,0,0,12,55,151.8)" />
<use xlink:href="#f1_1k" transform="matrix(12,0,0,12,82.5,151.8)" />
<use xlink:href="#f1_24" transform="matrix(12,0,0,12,93.9,151.8)" />
<use xlink:href="#f1_21" transform="matrix(12,0,0,12,104.6,151.8)" />
<use xlink:href="#f1_2e" transform="matrix(12,0,0,12,113.3,151.8)" />
<use xlink:href="#f1_21" transform="matrix(12,0,0,12,120.6,151.8)" />
<use xlink:href="#f1_22" transform="matrix(12,0,0,12,129.4,151.8)" />
<use xlink:href="#f1_2b" transform="matrix(12,0,0,12,135.6,151.8)" />
<use xlink:href="#f1_2e" transform="matrix(12,0,0,12,145.5,151.8)" />
<use xlink:href="#f1_21" transform="matrix(12,0,0,12,152.9,151.8)" />
<use xlink:href="#f1_g" transform="matrix(12,0,0,12,161.6,151.8)" />
</g>
<path fill-rule="evenodd" d="M52.8,301.5H856.9V168.7H52.8V301.5Z" class="g0_62" />
<path fill-rule="evenodd" d="M52.8,340.4H856.9V301.5H52.8v38.9Z" class="g0_62" />
<g fill="#000000" >
<use xlink:href="#f0_2b" transform="matrix(12,0,0,12,55,323.8)" />
<use xlink:href="#f1_1j" transform="matrix(12,0,0,12,82.5,323.8)" />
<use xlink:href="#f1_25" transform="matrix(12,0,0,12,92.1,323.8)" />
<use xlink:href="#f1_29" transform="matrix(12,0,0,12,97.6,323.8)" />
<use xlink:href="#f1_25" transform="matrix(12,0,0,12,113.7,323.8)" />
<use xlink:href="#f1_28" transform="matrix(12,0,0,12,119.2,323.8)" />
<use xlink:href="#f1_1x" transform="matrix(12,0,0,12,124.6,323.8)" />
<use xlink:href="#f1_2e" transform="matrix(12,0,0,12,133.8,323.8)" />
<use xlink:href="#f1_28" transform="matrix(12,0,0,12,140.8,323.8)" />
<use xlink:href="#f1_2l" transform="matrix(12,0,0,12,146.3,323.8)" />
<use xlink:href="#f1_g" transform="matrix(12,0,0,12,156.5,323.8)" />
<use xlink:href="#f1_1y" transform="matrix(12,0,0,12,165.7,323.8)" />
<use xlink:href="#f1_2l" transform="matrix(12,0,0,12,175.9,323.8)" />
<use xlink:href="#f1_20" transform="matrix(12,0,0,12,190.6,323.8)" />
<use xlink:href="#f1_2e" transform="matrix(12,0,0,12,201.6,323.8)" />
<use xlink:href="#f1_1x" transform="matrix(12,0,0,12,208.9,323.8)" />
<use xlink:href="#f1_2j" transform="matrix(12,0,0,12,218,323.8)" />
<use xlink:href="#f1_25" transform="matrix(12,0,0,12,233.4,323.8)" />
<use xlink:href="#f1_2a" transform="matrix(12,0,0,12,238.9,323.8)" />
<use xlink:href="#f1_23" transform="matrix(12,0,0,12,249.2,323.8)" />
<use xlink:href="#f1_2c" transform="matrix(12,0,0,12,264.2,323.8)" />
<use xlink:href="#f1_21" transform="matrix(12,0,0,12,275.2,323.8)" />
<use xlink:href="#f1_2e" transform="matrix(12,0,0,12,284,323.8)" />
<use xlink:href="#f1_2c" transform="matrix(12,0,0,12,291.3,323.8)" />
<use xlink:href="#f1_21" transform="matrix(12,0,0,12,302.3,323.8)" />
<use xlink:href="#f1_2a" transform="matrix(12,0,0,12,311.1,323.8)" />
<use xlink:href="#f1_20" transform="matrix(12,0,0,12,321.3,323.8)" />
<use xlink:href="#f1_25" transform="matrix(12,0,0,12,332.7,323.8)" />
<use xlink:href="#f1_1z" transform="matrix(12,0,0,12,338.2,323.8)" />
<use xlink:href="#f1_2h" transform="matrix(12,0,0,12,346.2,323.8)" />
<use xlink:href="#f1_28" transform="matrix(12,0,0,12,357.3,323.8)" />
<use xlink:href="#f1_1x" transform="matrix(12,0,0,12,362.7,323.8)" />
<use xlink:href="#f1_2e" transform="matrix(12,0,0,12,371.9,323.8)" />
<use xlink:href="#f1_2f" transform="matrix(12,0,0,12,379.2,323.8)" />
<use xlink:href="#f1_2g" transform="matrix(12,0,0,12,391.3,323.8)" />
<use xlink:href="#f1_2b" transform="matrix(12,0,0,12,397.2,323.8)" />
<use xlink:href="#f1_2g" transform="matrix(12,0,0,12,411.8,323.8)" />
<use xlink:href="#f1_24" transform="matrix(12,0,0,12,417.7,323.8)" />
<use xlink:href="#f1_21" transform="matrix(12,0,0,12,428.3,323.8)" />
<use xlink:href="#f1_1o" transform="matrix(12,0,0,12,441.9,323.8)" />
<use xlink:href="#f1_1q" transform="matrix(12,0,0,12,454,323.8)" />
<use xlink:href="#f1_1x" transform="matrix(12,0,0,12,470.8,323.8)" />
<use xlink:href="#f1_2a" transform="matrix(12,0,0,12,480,323.8)" />
<use xlink:href="#f1_20" transform="matrix(12,0,0,12,490.6,323.8)" />
<use xlink:href="#f1_1p" transform="matrix(12,0,0,12,506.7,323.8)" />
<use xlink:href="#f1_1q" transform="matrix(12,0,0,12,518.8,323.8)" />
<use xlink:href="#f1_h" transform="matrix(12,0,0,12,531.5,323.8)" />
<use xlink:href="#f1_2c" transform="matrix(12,0,0,12,537.7,323.8)" />
<use xlink:href="#f1_28" transform="matrix(12,0,0,12,548.8,323.8)" />
<use xlink:href="#f1_1x" transform="matrix(12,0,0,12,554.2,323.8)" />
<use xlink:href="#f1_2a" transform="matrix(12,0,0,12,563.4,323.8)" />
<use xlink:href="#f1_21" transform="matrix(12,0,0,12,574.1,323.8)" />
<use xlink:href="#f1_2f" transform="matrix(12,0,0,12,582.8,323.8)" />
<use xlink:href="#f1_g" transform="matrix(12,0,0,12,590.5,323.8)" />
<use xlink:href="#f1_2j" transform="matrix(12,0,0,12,599.7,323.8)" />
<use xlink:href="#f1_21" transform="matrix(12,0,0,12,615.1,323.8)" />
<use xlink:href="#f1_23" transform="matrix(12,0,0,12,628.2,323.8)" />
<use xlink:href="#f1_21" transform="matrix(12,0,0,12,638.5,323.8)" />
<use xlink:href="#f1_2g" transform="matrix(12,0,0,12,647.3,323.8)" />
</g>
<path fill-rule="evenodd" d="M52.8,413.7H856.9V340.4H52.8v73.3Z" class="g0_62" />
<path fill-rule="evenodd" d="M52.8,441.2H856.9V413.7H52.8v27.5Z" class="g0_62" />
<g fill="#000000" >
<use xlink:href="#f0_2b" transform="matrix(12,0,0,12,55,436.1)" />
<use xlink:href="#f1_18" transform="matrix(12,0,0,12,82.5,436.1)" />
<use xlink:href="#f1_21" transform="matrix(12,0,0,12,97.9,436.1)" />
<use xlink:href="#f1_2a" transform="matrix(12,0,0,12,106.7,436.1)" />
<use xlink:href="#f1_1z" transform="matrix(12,0,0,12,117.4,436.1)" />
<use xlink:href="#f1_21" transform="matrix(12,0,0,12,125.4,436.1)" />
<use xlink:href="#f1_g" transform="matrix(12,0,0,12,134.2,436.1)" />
<use xlink:href="#f1_2g" transform="matrix(12,0,0,12,144.5,436.1)" />
<use xlink:href="#f1_24" transform="matrix(12,0,0,12,150.3,436.1)" />
<use xlink:href="#f1_21" transform="matrix(12,0,0,12,161,436.1)" />
<use xlink:href="#f1_1z" transform="matrix(12,0,0,12,175.6,436.1)" />
<use xlink:href="#f1_2b" transform="matrix(12,0,0,12,183.7,436.1)" />
<use xlink:href="#f1_2b" transform="matrix(12,0,0,12,193.6,436.1)" />
<use xlink:href="#f1_2e" transform="matrix(12,0,0,12,203.5,436.1)" />
<use xlink:href="#f1_20" transform="matrix(12,0,0,12,210.8,436.1)" />
<use xlink:href="#f1_25" transform="matrix(12,0,0,12,222.1,436.1)" />
<use xlink:href="#f1_2a" transform="matrix(12,0,0,12,227.6,436.1)" />
<use xlink:href="#f1_1x" transform="matrix(12,0,0,12,238.3,436.1)" />
<use xlink:href="#f1_2g" transform="matrix(12,0,0,12,247.5,436.1)" />
<use xlink:href="#f1_21" transform="matrix(12,0,0,12,253.3,436.1)" />
<use xlink:href="#f1_2f" transform="matrix(12,0,0,12,262.1,436.1)" />
<use xlink:href="#f1_2b" transform="matrix(12,0,0,12,275.3,436.1)" />
<use xlink:href="#f1_22" transform="matrix(12,0,0,12,285.2,436.1)" />
<use xlink:href="#f1_2g" transform="matrix(12,0,0,12,297.2,436.1)" />
<use xlink:href="#f1_24" transform="matrix(12,0,0,12,303.1,436.1)" />
<use xlink:href="#f1_21" transform="matrix(12,0,0,12,313.8,436.1)" />
<use xlink:href="#f1_2c" transform="matrix(12,0,0,12,328,436.1)" />
<use xlink:href="#f1_2b" transform="matrix(12,0,0,12,339,436.1)" />
<use xlink:href="#f1_25" transform="matrix(12,0,0,12,348.9,436.1)" />
<use xlink:href="#f1_2a" transform="matrix(12,0,0,12,354.4,436.1)" />
<use xlink:href="#f1_2g" transform="matrix(12,0,0,12,365.1,436.1)" />
<use xlink:href="#f1_1i" transform="matrix(12,0,0,12,376.7,436.1)" />
<use xlink:href="#f1_2j" transform="matrix(12,0,0,12,394.3,436.1)" />
<use xlink:href="#f1_24" transform="matrix(12,0,0,12,409.7,436.1)" />
<use xlink:href="#f1_25" transform="matrix(12,0,0,12,420.4,436.1)" />
<use xlink:href="#f1_1z" transform="matrix(12,0,0,12,425.8,436.1)" />
<use xlink:href="#f1_24" transform="matrix(12,0,0,12,433.9,436.1)" />
<use xlink:href="#f1_20" transform="matrix(12,0,0,12,449.6,436.1)" />
<use xlink:href="#f1_25" transform="matrix(12,0,0,12,461,436.1)" />
<use xlink:href="#f1_2i" transform="matrix(12,0,0,12,466.5,436.1)" />
<use xlink:href="#f1_25" transform="matrix(12,0,0,12,476.7,436.1)" />
<use xlink:href="#f1_20" transform="matrix(12,0,0,12,481.9,436.1)" />
<use xlink:href="#f1_21" transform="matrix(12,0,0,12,493.2,436.1)" />
<use xlink:href="#f1_2f" transform="matrix(12,0,0,12,502,436.1)" />
<use xlink:href="#f1_2g" transform="matrix(12,0,0,12,515.6,436.1)" />
<use xlink:href="#f1_24" transform="matrix(12,0,0,12,521.4,436.1)" />
<use xlink:href="#f1_21" transform="matrix(12,0,0,12,532.1,436.1)" />
<use xlink:href="#f1_28" transform="matrix(12,0,0,12,546.9,436.1)" />
<use xlink:href="#f1_25" transform="matrix(12,0,0,12,552,436.1)" />
<use xlink:href="#f1_2a" transform="matrix(12,0,0,12,557.5,436.1)" />
<use xlink:href="#f1_21" transform="matrix(12,0,0,12,568.2,436.1)" />
<use xlink:href="#f1_2f" transform="matrix(12,0,0,12,582.8,436.1)" />
<use xlink:href="#f1_21" transform="matrix(12,0,0,12,590.5,436.1)" />
<use xlink:href="#f1_23" transform="matrix(12,0,0,12,599.3,436.1)" />
<use xlink:href="#f1_29" transform="matrix(12,0,0,12,609.6,436.1)" />
<use xlink:href="#f1_21" transform="matrix(12,0,0,12,625.7,436.1)" />
<use xlink:href="#f1_2a" transform="matrix(12,0,0,12,634.5,436.1)" />
<use xlink:href="#f1_2g" transform="matrix(12,0,0,12,645.1,436.1)" />
<use xlink:href="#f1_26" transform="matrix(12,0,0,12,656.5,436.1)" />
<use xlink:href="#f1_2b" transform="matrix(12,0,0,12,660.9,436.1)" />
<use xlink:href="#f1_25" transform="matrix(12,0,0,12,670.8,436.1)" />
<use xlink:href="#f1_2a" transform="matrix(12,0,0,12,676.2,436.1)" />
<use xlink:href="#f1_25" transform="matrix(12,0,0,12,686.9,436.1)" />
<use xlink:href="#f1_2a" transform="matrix(12,0,0,12,692.4,436.1)" />
<use xlink:href="#f1_23" transform="matrix(12,0,0,12,702.6,436.1)" />
<use xlink:href="#f1_2g" transform="matrix(12,0,0,12,718.7,436.1)" />
<use xlink:href="#f1_2j" transform="matrix(12,0,0,12,724.6,436.1)" />
<use xlink:href="#f1_2b" transform="matrix(12,0,0,12,740,436.1)" />
<use xlink:href="#f1_2c" transform="matrix(12,0,0,12,755.3,436.1)" />
<use xlink:href="#f1_2b" transform="matrix(12,0,0,12,766.4,436.1)" />
<use xlink:href="#f1_25" transform="matrix(12,0,0,12,776.2,436.1)" />
<use xlink:href="#f1_2a" transform="matrix(12,0,0,12,781.7,436.1)" />
<use xlink:href="#f1_2g" transform="matrix(12,0,0,12,792.4,436.1)" />
<use xlink:href="#f1_2f" transform="matrix(12,0,0,12,798.2,436.1)" />
<use xlink:href="#f1_1g" transform="matrix(12,0,0,12,811.8,436.1)" />
<use xlink:href="#f1_c" transform="matrix(12,0,0,12,828.3,436.1)" />
<use xlink:href="#f1_2k" transform="matrix(12,0,0,12,834.5,436.1)" />
<use xlink:href="#f1_l" transform="matrix(7.9,0,0,7.9,844,437.5)" />
<use xlink:href="#f1_g" transform="matrix(12,0,0,12,850.3,436.1)" />
</g>
<path fill-rule="evenodd" d="M52.8,480.5H856.9V441.2H52.8v39.3Z" class="g0_62" />
<g fill="#000000" >
<use xlink:href="#f1_2l" transform="matrix(12,0,0,12,82.5,463.6)" />
<use xlink:href="#f1_l" transform="matrix(7.9,0,0,7.9,92.8,465)" />
<use xlink:href="#f1_g" transform="matrix(12,0,0,12,99,463.6)" />
<use xlink:href="#f1_2m" transform="matrix(12,0,0,12,108.2,463.6)" />
<use xlink:href="#f1_l" transform="matrix(7.9,0,0,7.9,117.4,465)" />
<use xlink:href="#f1_d" transform="matrix(12,0,0,12,123.6,463.6)" />
<use xlink:href="#f1_1x" transform="matrix(12,0,0,12,134.2,463.6)" />
<use xlink:href="#f1_2a" transform="matrix(12,0,0,12,143.4,463.6)" />
<use xlink:href="#f1_20" transform="matrix(12,0,0,12,154.1,463.6)" />
<use xlink:href="#f1_1h" transform="matrix(12,0,0,12,169.8,463.6)" />
<use xlink:href="#f1_c" transform="matrix(12,0,0,12,188.8,463.6)" />
<use xlink:href="#f1_2k" transform="matrix(12,0,0,12,195.1,463.6)" />
<use xlink:href="#f1_m" transform="matrix(7.9,0,0,7.9,204.3,465)" />
<use xlink:href="#f1_g" transform="matrix(12,0,0,12,210.5,463.6)" />
<use xlink:href="#f1_2l" transform="matrix(12,0,0,12,219.7,463.6)" />
<use xlink:href="#f1_m" transform="matrix(7.9,0,0,7.9,230,465)" />
<use xlink:href="#f1_g" transform="matrix(12,0,0,12,235.8,463.6)" />
<use xlink:href="#f1_2m" transform="matrix(12,0,0,12,245.4,463.6)" />
<use xlink:href="#f1_m" transform="matrix(7.9,0,0,7.9,254.2,465)" />
<use xlink:href="#f1_d" transform="matrix(12,0,0,12,260.4,463.6)" />
<use xlink:href="#f1_25" transform="matrix(12,0,0,12,271.1,463.6)" />
<use xlink:href="#f1_2a" transform="matrix(12,0,0,12,276.5,463.6)" />
<use xlink:href="#f1_2g" transform="matrix(12,0,0,12,287.2,463.6)" />
<use xlink:href="#f1_21" transform="matrix(12,0,0,12,293,463.6)" />
<use xlink:href="#f1_2e" transform="matrix(12,0,0,12,301.8,463.6)" />
<use xlink:href="#f1_2a" transform="matrix(12,0,0,12,309.2,463.6)" />
<use xlink:href="#f1_1x" transform="matrix(12,0,0,12,319.8,463.6)" />
<use xlink:href="#f1_28" transform="matrix(12,0,0,12,329,463.6)" />
<use xlink:href="#f1_28" transform="matrix(12,0,0,12,334.1,463.6)" />
<use xlink:href="#f1_2l" transform="matrix(12,0,0,12,339.6,463.6)" />
<use xlink:href="#f1_25" transform="matrix(12,0,0,12,354.2,463.6)" />
<use xlink:href="#f1_2a" transform="matrix(12,0,0,12,359.7,463.6)" />
<use xlink:href="#f1_2g" transform="matrix(12,0,0,12,375.1,463.6)" />
<use xlink:href="#f1_24" transform="matrix(12,0,0,12,380.9,463.6)" />
<use xlink:href="#f1_21" transform="matrix(12,0,0,12,391.6,463.6)" />
<use xlink:href="#f1_2e" transform="matrix(12,0,0,12,404.8,463.6)" />
<use xlink:href="#f1_1x" transform="matrix(12,0,0,12,412.1,463.6)" />
<use xlink:href="#f1_2g" transform="matrix(12,0,0,12,421.3,463.6)" />
<use xlink:href="#f1_25" transform="matrix(12,0,0,12,427.1,463.6)" />
<use xlink:href="#f1_2b" transform="matrix(12,0,0,12,432.6,463.6)" />
<use xlink:href="#f1_29" transform="matrix(12,0,0,12,446.9,463.6)" />
<use xlink:href="#f1_u" transform="matrix(12,0,0,12,467.8,463.6)" />
<use xlink:href="#f1_2a" transform="matrix(12,0,0,12,477.3,463.6)" />
<use xlink:href="#f1_1x" transform="matrix(12,0,0,12,492.3,463.6)" />
<use xlink:href="#f1_2e" transform="matrix(12,0,0,12,501.5,463.6)" />
<use xlink:href="#f1_21" transform="matrix(12,0,0,12,508.8,463.6)" />
</g>
<path fill-rule="evenodd" d="M52.8,563H856.9V480.5H52.8V563Z" class="g0_62" />
<path fill-rule="evenodd" d="M52.8,590.5H856.9V563H52.8v27.5Z" class="g0_62" />
<g fill="#000000" >
<use xlink:href="#f0_2b" transform="matrix(12,0,0,12,55,585.4)" />
<use xlink:href="#f1_19" transform="matrix(12,0,0,12,82.5,585.4)" />
<use xlink:href="#f1_22" transform="matrix(12,0,0,12,88.7,585.4)" />
<use xlink:href="#f1_2g" transform="matrix(12,0,0,12,102.3,585.4)" />
<use xlink:href="#f1_24" transform="matrix(12,0,0,12,108.2,585.4)" />
<use xlink:href="#f1_21" transform="matrix(12,0,0,12,118.8,585.4)" />
<use xlink:href="#f1_2c" transform="matrix(12,0,0,12,134.9,585.4)" />
<use xlink:href="#f1_2b" transform="matrix(12,0,0,12,145.9,585.4)" />
<use xlink:href="#f1_25" transform="matrix(12,0,0,12,155.8,585.4)" />
<use xlink:href="#f1_2a" transform="matrix(12,0,0,12,161.3,585.4)" />
<use xlink:href="#f1_2g" transform="matrix(12,0,0,12,172,585.4)" />
<use xlink:href="#f1_1i" transform="matrix(12,0,0,12,185.1,585.4)" />
<use xlink:href="#f1_20" transform="matrix(12,0,0,12,204.5,585.4)" />
<use xlink:href="#f1_25" transform="matrix(12,0,0,12,215.9,585.4)" />
<use xlink:href="#f1_2i" transform="matrix(12,0,0,12,221.4,585.4)" />
<use xlink:href="#f1_25" transform="matrix(12,0,0,12,231.6,585.4)" />
<use xlink:href="#f1_20" transform="matrix(12,0,0,12,236.8,585.4)" />
<use xlink:href="#f1_21" transform="matrix(12,0,0,12,248.1,585.4)" />
<use xlink:href="#f1_2f" transform="matrix(12,0,0,12,256.9,585.4)" />
<use xlink:href="#f1_1g" transform="matrix(12,0,0,12,271.9,585.4)" />
<use xlink:href="#f1_1h" transform="matrix(12,0,0,12,282.9,585.4)" />
<use xlink:href="#f1_21" transform="matrix(12,0,0,12,304.5,585.4)" />
<use xlink:href="#f1_2k" transform="matrix(12,0,0,12,313.3,585.4)" />
<use xlink:href="#f1_2g" transform="matrix(12,0,0,12,322.8,585.4)" />
<use xlink:href="#f1_21" transform="matrix(12,0,0,12,328.7,585.4)" />
<use xlink:href="#f1_2e" transform="matrix(12,0,0,12,337.5,585.4)" />
<use xlink:href="#f1_2a" transform="matrix(12,0,0,12,344.8,585.4)" />
<use xlink:href="#f1_1x" transform="matrix(12,0,0,12,355.5,585.4)" />
<use xlink:href="#f1_28" transform="matrix(12,0,0,12,364.7,585.4)" />
<use xlink:href="#f1_28" transform="matrix(12,0,0,12,370.1,585.4)" />
<use xlink:href="#f1_2l" transform="matrix(12,0,0,12,375.2,585.4)" />
<use xlink:href="#f1_25" transform="matrix(12,0,0,12,392.8,585.4)" />
<use xlink:href="#f1_2a" transform="matrix(12,0,0,12,398.3,585.4)" />
<use xlink:href="#f1_2g" transform="matrix(12,0,0,12,416.2,585.4)" />
<use xlink:href="#f1_24" transform="matrix(12,0,0,12,422.1,585.4)" />
<use xlink:href="#f1_21" transform="matrix(12,0,0,12,432.8,585.4)" />
<use xlink:href="#f1_2e" transform="matrix(12,0,0,12,448.9,585.4)" />
<use xlink:href="#f1_1x" transform="matrix(12,0,0,12,455.8,585.4)" />
<use xlink:href="#f1_2g" transform="matrix(12,0,0,12,465,585.4)" />
<use xlink:href="#f1_25" transform="matrix(12,0,0,12,470.9,585.4)" />
<use xlink:href="#f1_2b" transform="matrix(12,0,0,12,476.3,585.4)" />
<use xlink:href="#f1_29" transform="matrix(12,0,0,12,494.1,585.4)" />
<use xlink:href="#f1_u" transform="matrix(12,0,0,12,517.5,585.4)" />
<use xlink:href="#f1_2a" transform="matrix(12,0,0,12,529.6,585.4)" />
<use xlink:href="#f1_g" transform="matrix(12,0,0,12,540.3,585.4)" />
<use xlink:href="#f1_2g" transform="matrix(12,0,0,12,552.3,585.4)" />
<use xlink:href="#f1_24" transform="matrix(12,0,0,12,558.2,585.4)" />
<use xlink:href="#f1_21" transform="matrix(12,0,0,12,568.8,585.4)" />
<use xlink:href="#f1_2a" transform="matrix(12,0,0,12,577.6,585.4)" />
<use xlink:href="#f1_25" transform="matrix(12,0,0,12,595.5,585.4)" />
<use xlink:href="#f1_2g" transform="matrix(12,0,0,12,601,585.4)" />
<use xlink:href="#f1_2f" transform="matrix(12,0,0,12,606.9,585.4)" />
<use xlink:href="#f1_1z" transform="matrix(12,0,0,12,621.9,585.4)" />
<use xlink:href="#f1_2b" transform="matrix(12,0,0,12,630,585.4)" />
<use xlink:href="#f1_2b" transform="matrix(12,0,0,12,639.9,585.4)" />
<use xlink:href="#f1_2e" transform="matrix(12,0,0,12,649.8,585.4)" />
<use xlink:href="#f1_20" transform="matrix(12,0,0,12,657.1,585.4)" />
<use xlink:href="#f1_25" transform="matrix(12,0,0,12,668.4,585.4)" />
<use xlink:href="#f1_2a" transform="matrix(12,0,0,12,673.9,585.4)" />
<use xlink:href="#f1_1x" transform="matrix(12,0,0,12,684.6,585.4)" />
<use xlink:href="#f1_2g" transform="matrix(12,0,0,12,693.8,585.4)" />
<use xlink:href="#f1_21" transform="matrix(12,0,0,12,699.6,585.4)" />
<use xlink:href="#f1_2f" transform="matrix(12,0,0,12,708.4,585.4)" />
<use xlink:href="#f1_1x" transform="matrix(12,0,0,12,723.4,585.4)" />
<use xlink:href="#f1_2e" transform="matrix(12,0,0,12,732.6,585.4)" />
<use xlink:href="#f1_21" transform="matrix(12,0,0,12,739.9,585.4)" />
<use xlink:href="#f1_2b" transform="matrix(12,0,0,12,756.4,585.4)" />
<use xlink:href="#f1_1y" transform="matrix(12,0,0,12,766.3,585.4)" />
<use xlink:href="#f1_2g" transform="matrix(12,0,0,12,776.5,585.4)" />
<use xlink:href="#f1_1x" transform="matrix(12,0,0,12,782.4,585.4)" />
<use xlink:href="#f1_25" transform="matrix(12,0,0,12,791.2,585.4)" />
<use xlink:href="#f1_2a" transform="matrix(12,0,0,12,796.7,585.4)" />
<use xlink:href="#f1_21" transform="matrix(12,0,0,12,807.3,585.4)" />
<use xlink:href="#f1_20" transform="matrix(12,0,0,12,816.1,585.4)" />
<use xlink:href="#f1_1y" transform="matrix(12,0,0,12,834.4,585.4)" />
<use xlink:href="#f1_2l" transform="matrix(12,0,0,12,844.7,585.4)" />
</g>
<path fill-rule="evenodd" d="M52.8,629.7H856.9V590.5H52.8v39.2Z" class="g0_62" />
<g fill="#000000" >
<use xlink:href="#f1_2e" transform="matrix(12,0,0,12,82.5,612.9)" />
<use xlink:href="#f1_21" transform="matrix(12,0,0,12,89.9,612.9)" />
<use xlink:href="#f1_2c" transform="matrix(12,0,0,12,98.6,612.9)" />
<use xlink:href="#f1_28" transform="matrix(12,0,0,12,109.7,612.9)" />
<use xlink:href="#f1_1x" transform="matrix(12,0,0,12,115.1,612.9)" />
<use xlink:href="#f1_1z" transform="matrix(12,0,0,12,124.3,612.9)" />
<use xlink:href="#f1_25" transform="matrix(12,0,0,12,132.4,612.9)" />
<use xlink:href="#f1_2a" transform="matrix(12,0,0,12,137.8,612.9)" />
<use xlink:href="#f1_23" transform="matrix(12,0,0,12,148.5,612.9)" />
<use xlink:href="#f1_2a" transform="matrix(12,0,0,12,163.1,612.9)" />
<use xlink:href="#f1_1y" transform="matrix(12,0,0,12,178.5,612.9)" />
<use xlink:href="#f1_2l" transform="matrix(12,0,0,12,188.4,612.9)" />
<use xlink:href="#f2_4z" transform="matrix(12,0,0,12,203.6,612.9)" />
<use xlink:href="#f1_2a" transform="matrix(12,0,0,12,217.1,612.9)" />
<use xlink:href="#f1_2f" transform="matrix(12,0,0,12,232.5,612.9)" />
<use xlink:href="#f1_2b" transform="matrix(12,0,0,12,240.2,612.9)" />
<use xlink:href="#f1_2g" transform="matrix(12,0,0,12,254.9,612.9)" />
<use xlink:href="#f1_24" transform="matrix(12,0,0,12,260.7,612.9)" />
<use xlink:href="#f1_1x" transform="matrix(12,0,0,12,271.4,612.9)" />
<use xlink:href="#f1_2g" transform="matrix(12,0,0,12,280.6,612.9)" />
<use xlink:href="#f1_1z" transform="matrix(12,0,0,12,291.2,612.9)" />
<use xlink:href="#f1_2b" transform="matrix(12,0,0,12,299.2,612.9)" />
<use xlink:href="#f1_2b" transform="matrix(12,0,0,12,309.1,612.9)" />
<use xlink:href="#f1_2e" transform="matrix(12,0,0,12,319,612.9)" />
<use xlink:href="#f1_20" transform="matrix(12,0,0,12,326.3,612.9)" />
<use xlink:href="#f1_25" transform="matrix(12,0,0,12,337.7,612.9)" />
<use xlink:href="#f1_2a" transform="matrix(12,0,0,12,343.2,612.9)" />
<use xlink:href="#f1_1x" transform="matrix(12,0,0,12,353.8,612.9)" />
<use xlink:href="#f1_2g" transform="matrix(12,0,0,12,363,612.9)" />
<use xlink:href="#f1_21" transform="matrix(12,0,0,12,368.8,612.9)" />
<use xlink:href="#f1_2f" transform="matrix(12,0,0,12,377.6,612.9)" />
<use xlink:href="#f1_2b" transform="matrix(12,0,0,12,390.1,612.9)" />
<use xlink:href="#f1_22" transform="matrix(12,0,0,12,400,612.9)" />
<use xlink:href="#f1_2c" transform="matrix(12,0,0,12,410.6,612.9)" />
<use xlink:href="#f1_2b" transform="matrix(12,0,0,12,421.6,612.9)" />
<use xlink:href="#f1_25" transform="matrix(12,0,0,12,431.5,612.9)" />
<use xlink:href="#f1_2a" transform="matrix(12,0,0,12,437,612.9)" />
<use xlink:href="#f1_2g" transform="matrix(12,0,0,12,447.6,612.9)" />
<use xlink:href="#f1_1i" transform="matrix(12,0,0,12,458.2,612.9)" />
<use xlink:href="#f1_2j" transform="matrix(12,0,0,12,475.1,612.9)" />
<use xlink:href="#f1_25" transform="matrix(12,0,0,12,490.5,612.9)" />
<use xlink:href="#f1_28" transform="matrix(12,0,0,12,495.6,612.9)" />
<use xlink:href="#f1_28" transform="matrix(12,0,0,12,501.1,612.9)" />
<use xlink:href="#f1_1y" transform="matrix(12,0,0,12,511,612.9)" />
<use xlink:href="#f1_21" transform="matrix(12,0,0,12,521.2,612.9)" />
</g>
<path fill-rule="evenodd" d="M52.8,707.5H856.9V629.7H52.8v77.8Z" class="g0_62" />
<path fill-rule="evenodd" d="M52.8,746.3H856.9V707.5H52.8v38.8Z" class="g0_62" />
<g fill="#000000" >
<use xlink:href="#f3_13" transform="matrix(12,0,0,12,55,730.2)" />
<use xlink:href="#f3_1x" transform="matrix(12,0,0,12,68.3,730.2)" />
<use xlink:href="#f3_2f" transform="matrix(12,0,0,12,77.4,730.2)" />
<use xlink:href="#f3_21" transform="matrix(12,0,0,12,85.5,730.2)" />
<use xlink:href="#f3_l" transform="matrix(12,0,0,12,99.4,730.2)" />
</g>
<path fill-rule="evenodd" d="M52.8,773.9H856.9V746.3H52.8v27.6Z" class="g0_62" />
<g fill="#000000" >
<use xlink:href="#f0_2b" transform="matrix(12,0,0,12,55,768.7)" />
<use xlink:href="#f1_13" transform="matrix(12,0,0,12,82.5,768.7)" />
<use xlink:href="#f1_2b" transform="matrix(12,0,0,12,95.4,768.7)" />
<use xlink:href="#f1_2b" transform="matrix(12,0,0,12,105.3,768.7)" />
<use xlink:href="#f1_2e" transform="matrix(12,0,0,12,115.2,768.7)" />
<use xlink:href="#f1_20" transform="matrix(12,0,0,12,122.5,768.7)" />
<use xlink:href="#f1_25" transform="matrix(12,0,0,12,133.8,768.7)" />
<use xlink:href="#f1_2a" transform="matrix(12,0,0,12,139.3,768.7)" />
<use xlink:href="#f1_1x" transform="matrix(12,0,0,12,150,768.7)" />
<use xlink:href="#f1_2g" transform="matrix(12,0,0,12,159.2,768.7)" />
<use xlink:href="#f1_21" transform="matrix(12,0,0,12,165,768.7)" />
<use xlink:href="#f1_2f" transform="matrix(12,0,0,12,173.8,768.7)" />
<use xlink:href="#f1_2b" transform="matrix(12,0,0,12,189.5,768.7)" />
<use xlink:href="#f1_22" transform="matrix(12,0,0,12,199.4,768.7)" />
<use xlink:href="#f1_2g" transform="matrix(12,0,0,12,213.7,768.7)" />
<use xlink:href="#f1_24" transform="matrix(12,0,0,12,219.6,768.7)" />
<use xlink:href="#f1_21" transform="matrix(12,0,0,12,230.2,768.7)" />
<use xlink:href="#f1_29" transform="matrix(12,0,0,12,247,768.7)" />
<use xlink:href="#f1_25" transform="matrix(12,0,0,12,262.8,768.7)" />
<use xlink:href="#f1_20" transform="matrix(12,0,0,12,268.3,768.7)" />
<use xlink:href="#f1_h" transform="matrix(12,0,0,12,279.9,768.7)" />
<use xlink:href="#f1_2c" transform="matrix(12,0,0,12,286.1,768.7)" />
<use xlink:href="#f1_2b" transform="matrix(12,0,0,12,297.1,768.7)" />
<use xlink:href="#f1_25" transform="matrix(12,0,0,12,306.6,768.7)" />
<use xlink:href="#f1_2a" transform="matrix(12,0,0,12,312.1,768.7)" />
<use xlink:href="#f1_2g" transform="matrix(12,0,0,12,322.8,768.7)" />
<use xlink:href="#f1_u" transform="matrix(12,0,0,12,328.6,768.7)" />
<use xlink:href="#f1_19" transform="matrix(12,0,0,12,341.1,768.7)" />
<use xlink:href="#f1_2a" transform="matrix(12,0,0,12,347.2,768.7)" />
<use xlink:href="#f1_1z" transform="matrix(12,0,0,12,366,768.7)" />
<use xlink:href="#f1_1x" transform="matrix(12,0,0,12,374,768.7)" />
<use xlink:href="#f1_2f" transform="matrix(12,0,0,12,383.2,768.7)" />
<use xlink:href="#f1_21" transform="matrix(12,0,0,12,390.9,768.7)" />
<use xlink:href="#f1_1i" transform="matrix(12,0,0,12,407.7,768.7)" />
<use xlink:href="#f1_25" transform="matrix(12,0,0,12,427.5,768.7)" />
<use xlink:href="#f1_2f" transform="matrix(12,0,0,12,433,768.7)" />
<use xlink:href="#f1_2g" transform="matrix(12,0,0,12,448.4,768.7)" />
<use xlink:href="#f1_24" transform="matrix(12,0,0,12,454.3,768.7)" />
<use xlink:href="#f1_21" transform="matrix(12,0,0,12,464.9,768.7)" />
<use xlink:href="#f1_29" transform="matrix(12,0,0,12,481.7,768.7)" />
<use xlink:href="#f1_25" transform="matrix(12,0,0,12,497.9,768.7)" />
<use xlink:href="#f1_20" transform="matrix(12,0,0,12,503.4,768.7)" />
<use xlink:href="#f1_h" transform="matrix(12,0,0,12,514.6,768.7)" />
<use xlink:href="#f1_2c" transform="matrix(12,0,0,12,520.9,768.7)" />
<use xlink:href="#f1_2b" transform="matrix(12,0,0,12,531.9,768.7)" />
<use xlink:href="#f1_25" transform="matrix(12,0,0,12,541.8,768.7)" />
<use xlink:href="#f1_2a" transform="matrix(12,0,0,12,547.2,768.7)" />
<use xlink:href="#f1_2g" transform="matrix(12,0,0,12,557.9,768.7)" />
<use xlink:href="#f1_2b" transform="matrix(12,0,0,12,571.8,768.7)" />
<use xlink:href="#f1_22" transform="matrix(12,0,0,12,581.7,768.7)" />
<use xlink:href="#f1_1g" transform="matrix(12,0,0,12,595.6,768.7)" />
<use xlink:href="#f1_1h" transform="matrix(12,0,0,12,606.6,768.7)" />
<use xlink:href="#f1_g" transform="matrix(12,0,0,12,620.9,768.7)" />
<use xlink:href="#f1_2g" transform="matrix(12,0,0,12,633.3,768.7)" />
<use xlink:href="#f1_24" transform="matrix(12,0,0,12,639.2,768.7)" />
<use xlink:href="#f1_21" transform="matrix(12,0,0,12,649.9,768.7)" />
<use xlink:href="#f1_2a" transform="matrix(12,0,0,12,658.7,768.7)" />
<use xlink:href="#f1_29" transform="matrix(12,0,0,12,677.5,768.7)" />
<use xlink:href="#f1_u" transform="matrix(12,0,0,12,701.3,768.7)" />
<use xlink:href="#f1_2a" transform="matrix(12,0,0,12,713.8,768.7)" />
<use xlink:href="#f1_x" transform="matrix(12,0,0,12,732.4,768.7)" />
<use xlink:href="#f1_l" transform="matrix(12,0,0,12,751.5,768.7)" />
<use xlink:href="#f1_u" transform="matrix(12,0,0,12,768,768.7)" />
<use xlink:href="#f1_l" transform="matrix(12,0,0,12,780.8,768.7)" />
<use xlink:href="#f1_2f" transform="matrix(12,0,0,12,797.6,768.7)" />
<use xlink:href="#f1_2b" transform="matrix(12,0,0,12,805.3,768.7)" />
<use xlink:href="#f1_2g" transform="matrix(12,0,0,12,823.3,768.7)" />
<use xlink:href="#f1_24" transform="matrix(12,0,0,12,828.8,768.7)" />
<use xlink:href="#f1_1x" transform="matrix(12,0,0,12,839.4,768.7)" />
<use xlink:href="#f1_2g" transform="matrix(12,0,0,12,848.6,768.7)" />
</g>
<path fill-rule="evenodd" d="M52.8,825.6H856.9V773.9H52.8v51.7Z" class="g0_62" />
<path fill-rule="evenodd" d="M52.8,864.4H856.9V825.6H52.8v38.8Z" class="g0_62" />
<g fill="#000000" >
<use xlink:href="#f0_2b" transform="matrix(12,0,0,12,55,847.9)" />
<use xlink:href="#f1_1k" transform="matrix(12,0,0,12,82.5,847.9)" />
<use xlink:href="#f1_24" transform="matrix(12,0,0,12,93.9,847.9)" />
<use xlink:href="#f1_21" transform="matrix(12,0,0,12,104.6,847.9)" />
<use xlink:href="#f1_2f" transform="matrix(12,0,0,12,113.3,847.9)" />
<use xlink:href="#f1_21" transform="matrix(12,0,0,12,121,847.9)" />
<use xlink:href="#f1_1x" transform="matrix(12,0,0,12,134.6,847.9)" />
<use xlink:href="#f1_2e" transform="matrix(12,0,0,12,143.7,847.9)" />
<use xlink:href="#f1_21" transform="matrix(12,0,0,12,151,847.9)" />
<use xlink:href="#f1_2g" transform="matrix(12,0,0,12,164.2,847.9)" />
<use xlink:href="#f1_24" transform="matrix(12,0,0,12,170.1,847.9)" />
<use xlink:href="#f1_21" transform="matrix(12,0,0,12,180.8,847.9)" />
<use xlink:href="#f1_1z" transform="matrix(12,0,0,12,194.3,847.9)" />
<use xlink:href="#f1_2b" transform="matrix(12,0,0,12,202.3,847.9)" />
<use xlink:href="#f1_2b" transform="matrix(12,0,0,12,212.2,847.9)" />
<use xlink:href="#f1_2e" transform="matrix(12,0,0,12,222.1,847.9)" />
<use xlink:href="#f1_20" transform="matrix(12,0,0,12,229.5,847.9)" />
<use xlink:href="#f1_25" transform="matrix(12,0,0,12,240.8,847.9)" />
<use xlink:href="#f1_2a" transform="matrix(12,0,0,12,246.3,847.9)" />
<use xlink:href="#f1_1x" transform="matrix(12,0,0,12,257,847.9)" />
<use xlink:href="#f1_2g" transform="matrix(12,0,0,12,266.1,847.9)" />
<use xlink:href="#f1_21" transform="matrix(12,0,0,12,272,847.9)" />
<use xlink:href="#f1_2f" transform="matrix(12,0,0,12,280.7,847.9)" />
<use xlink:href="#f1_2b" transform="matrix(12,0,0,12,293.2,847.9)" />
<use xlink:href="#f1_22" transform="matrix(12,0,0,12,303.1,847.9)" />
<use xlink:href="#f1_2g" transform="matrix(12,0,0,12,313.7,847.9)" />
<use xlink:href="#f1_24" transform="matrix(12,0,0,12,319.6,847.9)" />
<use xlink:href="#f1_21" transform="matrix(12,0,0,12,330.3,847.9)" />
<use xlink:href="#f1_29" transform="matrix(12,0,0,12,344.1,847.9)" />
<use xlink:href="#f1_25" transform="matrix(12,0,0,12,360.2,847.9)" />
<use xlink:href="#f1_20" transform="matrix(12,0,0,12,365.4,847.9)" />
<use xlink:href="#f1_2c" transform="matrix(12,0,0,12,376.7,847.9)" />
<use xlink:href="#f1_2b" transform="matrix(12,0,0,12,387.7,847.9)" />
<use xlink:href="#f1_25" transform="matrix(12,0,0,12,397.6,847.9)" />
<use xlink:href="#f1_2a" transform="matrix(12,0,0,12,403.1,847.9)" />
<use xlink:href="#f1_2g" transform="matrix(12,0,0,12,413.8,847.9)" />
<use xlink:href="#f1_2b" transform="matrix(12,0,0,12,424.4,847.9)" />
<use xlink:href="#f1_22" transform="matrix(12,0,0,12,434.3,847.9)" />
<use xlink:href="#f1_2g" transform="matrix(12,0,0,12,445.2,847.9)" />
<use xlink:href="#f1_24" transform="matrix(12,0,0,12,450.7,847.9)" />
<use xlink:href="#f1_21" transform="matrix(12,0,0,12,461.4,847.9)" />
<use xlink:href="#f1_2f" transform="matrix(12,0,0,12,474.9,847.9)" />
<use xlink:href="#f1_21" transform="matrix(12,0,0,12,482.6,847.9)" />
<use xlink:href="#f1_23" transform="matrix(12,0,0,12,491.4,847.9)" />
<use xlink:href="#f1_29" transform="matrix(12,0,0,12,501.7,847.9)" />
<use xlink:href="#f1_21" transform="matrix(12,0,0,12,517.8,847.9)" />
<use xlink:href="#f1_2a" transform="matrix(12,0,0,12,526.6,847.9)" />
<use xlink:href="#f1_2g" transform="matrix(12,0,0,12,537.3,847.9)" />
<use xlink:href="#f1_26" transform="matrix(12,0,0,12,547.9,847.9)" />
<use xlink:href="#f1_2b" transform="matrix(12,0,0,12,552.2,847.9)" />
<use xlink:href="#f1_25" transform="matrix(12,0,0,12,562.1,847.9)" />
<use xlink:href="#f1_2a" transform="matrix(12,0,0,12,567.6,847.9)" />
<use xlink:href="#f1_25" transform="matrix(12,0,0,12,578.3,847.9)" />
<use xlink:href="#f1_2a" transform="matrix(12,0,0,12,583.7,847.9)" />
<use xlink:href="#f1_23" transform="matrix(12,0,0,12,594.4,847.9)" />
<use xlink:href="#f1_1g" transform="matrix(12,0,0,12,609.2,847.9)" />
<use xlink:href="#f1_c" transform="matrix(12,0,0,12,624.6,847.9)" />
<use xlink:href="#f1_2k" transform="matrix(12,0,0,12,630.9,847.9)" />
<use xlink:href="#f1_l" transform="matrix(7.9,0,0,7.9,640.5,849.4)" />
<use xlink:href="#f1_g" transform="matrix(12,0,0,12,646.3,847.9)" />
<use xlink:href="#f1_2l" transform="matrix(12,0,0,12,655.9,847.9)" />
<use xlink:href="#f1_l" transform="matrix(7.9,0,0,7.9,665.8,849.4)" />
<use xlink:href="#f1_g" transform="matrix(12,0,0,12,672,847.9)" />
<use xlink:href="#f1_2m" transform="matrix(12,0,0,12,681.1,847.9)" />
<use xlink:href="#f1_l" transform="matrix(7.9,0,0,7.9,690.3,849.4)" />
<use xlink:href="#f1_d" transform="matrix(12,0,0,12,696.6,847.9)" />
<use xlink:href="#f1_1x" transform="matrix(12,0,0,12,707.2,847.9)" />
<use xlink:href="#f1_2a" transform="matrix(12,0,0,12,716.3,847.9)" />
<use xlink:href="#f1_20" transform="matrix(12,0,0,12,727,847.9)" />
<use xlink:href="#f1_1h" transform="matrix(12,0,0,12,742.7,847.9)" />
<use xlink:href="#f1_c" transform="matrix(12,0,0,12,761.8,847.9)" />
<use xlink:href="#f1_2k" transform="matrix(12,0,0,12,767.6,847.9)" />
<use xlink:href="#f1_m" transform="matrix(7.9,0,0,7.9,777.3,849.4)" />
<use xlink:href="#f1_g" transform="matrix(12,0,0,12,783.5,847.9)" />
<use xlink:href="#f1_2l" transform="matrix(12,0,0,12,792.6,847.9)" />
<use xlink:href="#f1_m" transform="matrix(7.9,0,0,7.9,802.9,849.4)" />
<use xlink:href="#f1_g" transform="matrix(12,0,0,12,808.8,847.9)" />
<use xlink:href="#f1_2m" transform="matrix(12,0,0,12,818,847.9)" />
<use xlink:href="#f1_m" transform="matrix(7.9,0,0,7.9,827.2,849.4)" />
<use xlink:href="#f1_d" transform="matrix(12,0,0,12,833.4,847.9)" />
</g>
<path fill-rule="evenodd" d="M52.8,903.4H856.9V864.5H52.8v38.9Z" class="g0_62" />
<g fill="#000000" >
<use xlink:href="#f3_13" transform="matrix(12,0,0,12,55,887.2)" />
<use xlink:href="#f3_1x" transform="matrix(12,0,0,12,68.3,887.2)" />
<use xlink:href="#f3_2f" transform="matrix(12,0,0,12,77.4,887.2)" />
<use xlink:href="#f3_21" transform="matrix(12,0,0,12,85.5,887.2)" />
<use xlink:href="#f3_m" transform="matrix(12,0,0,12,99.4,887.2)" />
</g>
<path fill-rule="evenodd" d="M52.8,930.9H856.9V903.4H52.8v27.5Z" class="g0_62" />
<g fill="#000000" >
<use xlink:href="#f0_2b" transform="matrix(12,0,0,12,55,925.7)" />
<use xlink:href="#f1_1k" transform="matrix(12,0,0,12,82.5,925.7)" />
<use xlink:href="#f1_24" transform="matrix(12,0,0,12,93.9,925.7)" />
<use xlink:href="#f1_21" transform="matrix(12,0,0,12,104.6,925.7)" />
<use xlink:href="#f1_1z" transform="matrix(12,0,0,12,118.1,925.7)" />
<use xlink:href="#f1_2b" transform="matrix(12,0,0,12,126.1,925.7)" />
<use xlink:href="#f1_2b" transform="matrix(12,0,0,12,136,925.7)" />
<use xlink:href="#f1_2e" transform="matrix(12,0,0,12,145.9,925.7)" />
<use xlink:href="#f1_20" transform="matrix(12,0,0,12,153.2,925.7)" />
<use xlink:href="#f1_25" transform="matrix(12,0,0,12,164.6,925.7)" />
<use xlink:href="#f1_2a" transform="matrix(12,0,0,12,170.1,925.7)" />
<use xlink:href="#f1_1x" transform="matrix(12,0,0,12,180.7,925.7)" />
<use xlink:href="#f1_2g" transform="matrix(12,0,0,12,189.9,925.7)" />
<use xlink:href="#f1_21" transform="matrix(12,0,0,12,195.7,925.7)" />
<use xlink:href="#f1_2f" transform="matrix(12,0,0,12,204.5,925.7)" />
<use xlink:href="#f1_2b" transform="matrix(12,0,0,12,216.6,925.7)" />
<use xlink:href="#f1_22" transform="matrix(12,0,0,12,226.5,925.7)" />
<use xlink:href="#f1_2g" transform="matrix(12,0,0,12,237.5,925.7)" />
<use xlink:href="#f1_24" transform="matrix(12,0,0,12,243.4,925.7)" />
<use xlink:href="#f1_21" transform="matrix(12,0,0,12,254,925.7)" />
<use xlink:href="#f1_2c" transform="matrix(12,0,0,12,267.2,925.7)" />
<use xlink:href="#f1_2b" transform="matrix(12,0,0,12,278.2,925.7)" />
<use xlink:href="#f1_25" transform="matrix(12,0,0,12,288.1,925.7)" />
<use xlink:href="#f1_2a" transform="matrix(12,0,0,12,293.6,925.7)" />
<use xlink:href="#f1_2g" transform="matrix(12,0,0,12,304.2,925.7)" />
<use xlink:href="#f1_1i" transform="matrix(12,0,0,12,314.8,925.7)" />
<use xlink:href="#f1_2j" transform="matrix(12,0,0,12,331.3,925.7)" />
<use xlink:href="#f1_24" transform="matrix(12,0,0,12,346.7,925.7)" />
<use xlink:href="#f1_25" transform="matrix(12,0,0,12,357.4,925.7)" />
<use xlink:href="#f1_1z" transform="matrix(12,0,0,12,362.8,925.7)" />
<use xlink:href="#f1_24" transform="matrix(12,0,0,12,370.9,925.7)" />
<use xlink:href="#f1_20" transform="matrix(12,0,0,12,385.9,925.7)" />
<use xlink:href="#f1_25" transform="matrix(12,0,0,12,397.2,925.7)" />
<use xlink:href="#f1_2i" transform="matrix(12,0,0,12,402.7,925.7)" />
<use xlink:href="#f1_25" transform="matrix(12,0,0,12,413,925.7)" />
<use xlink:href="#f1_20" transform="matrix(12,0,0,12,418.1,925.7)" />
<use xlink:href="#f1_21" transform="matrix(12,0,0,12,429.5,925.7)" />
<use xlink:href="#f1_2f" transform="matrix(12,0,0,12,438.3,925.7)" />
<use xlink:href="#f1_1g" transform="matrix(12,0,0,12,450.4,925.7)" />
<use xlink:href="#f1_1h" transform="matrix(12,0,0,12,461.4,925.7)" />
<use xlink:href="#f1_25" transform="matrix(12,0,0,12,480.4,925.7)" />
<use xlink:href="#f1_2a" transform="matrix(12,0,0,12,485.9,925.7)" />
<use xlink:href="#f1_2g" transform="matrix(12,0,0,12,501.3,925.7)" />
<use xlink:href="#f1_24" transform="matrix(12,0,0,12,507.2,925.7)" />
<use xlink:href="#f1_21" transform="matrix(12,0,0,12,517.8,925.7)" />
<use xlink:href="#f1_2e" transform="matrix(12,0,0,12,531,925.7)" />
<use xlink:href="#f1_1x" transform="matrix(12,0,0,12,538.3,925.7)" />
<use xlink:href="#f1_2g" transform="matrix(12,0,0,12,547.5,925.7)" />
<use xlink:href="#f1_25" transform="matrix(12,0,0,12,553.3,925.7)" />
<use xlink:href="#f1_2b" transform="matrix(12,0,0,12,558.8,925.7)" />
<use xlink:href="#f1_27" transform="matrix(12,0,0,12,573.4,925.7)" />
<use xlink:href="#f1_u" transform="matrix(12,0,0,12,587.7,925.7)" />
<use xlink:href="#f1_l" transform="matrix(12,0,0,12,597.2,925.7)" />
<use xlink:href="#f1_1x" transform="matrix(12,0,0,12,610.8,925.7)" />
<use xlink:href="#f1_2e" transform="matrix(12,0,0,12,620,925.7)" />
<use xlink:href="#f1_21" transform="matrix(12,0,0,12,627.3,925.7)" />
<use xlink:href="#f1_2b" transform="matrix(12,0,0,12,640.5,925.7)" />
<use xlink:href="#f1_1y" transform="matrix(12,0,0,12,650.4,925.7)" />
<use xlink:href="#f1_2g" transform="matrix(12,0,0,12,660.6,925.7)" />
<use xlink:href="#f1_1x" transform="matrix(12,0,0,12,666.5,925.7)" />
<use xlink:href="#f1_25" transform="matrix(12,0,0,12,675.6,925.7)" />
<use xlink:href="#f1_2a" transform="matrix(12,0,0,12,681.1,925.7)" />
<use xlink:href="#f1_21" transform="matrix(12,0,0,12,691.8,925.7)" />
<use xlink:href="#f1_20" transform="matrix(12,0,0,12,700.2,925.7)" />
<use xlink:href="#f1_1y" transform="matrix(12,0,0,12,716.7,925.7)" />
<use xlink:href="#f1_2l" transform="matrix(12,0,0,12,727,925.7)" />
<use xlink:href="#f1_2g" transform="matrix(12,0,0,12,742,925.7)" />
<use xlink:href="#f1_1x" transform="matrix(12,0,0,12,747.8,925.7)" />
<use xlink:href="#f1_27" transform="matrix(12,0,0,12,757,925.7)" />
<use xlink:href="#f1_25" transform="matrix(12,0,0,12,766.9,925.7)" />
<use xlink:href="#f1_2a" transform="matrix(12,0,0,12,772.4,925.7)" />
<use xlink:href="#f1_23" transform="matrix(12,0,0,12,783.1,925.7)" />
<use xlink:href="#f1_27" transform="matrix(12,0,0,12,797.7,925.7)" />
<use xlink:href="#f1_29" transform="matrix(12,0,0,12,812.3,925.7)" />
<use xlink:href="#f1_2a" transform="matrix(12,0,0,12,828.4,925.7)" />
<use xlink:href="#f1_x" transform="matrix(12,0,0,12,843.8,925.7)" />
</g>
<path fill-rule="evenodd" d="M52.8,969.7H856.9V930.9H52.8v38.8Z" class="g0_62" />
<g fill="#000000" >
<use xlink:href="#f1_2j" transform="matrix(12,0,0,12,82.5,953.2)" />
<use xlink:href="#f1_24" transform="matrix(12,0,0,12,97.9,953.2)" />
<use xlink:href="#f1_25" transform="matrix(12,0,0,12,108.6,953.2)" />
<use xlink:href="#f1_1z" transform="matrix(12,0,0,12,114,953.2)" />
<use xlink:href="#f1_24" transform="matrix(12,0,0,12,122.1,953.2)" />
<use xlink:href="#f1_1x" transform="matrix(12,0,0,12,137.5,953.2)" />
<use xlink:href="#f1_2e" transform="matrix(12,0,0,12,146.6,953.2)" />
<use xlink:href="#f1_21" transform="matrix(12,0,0,12,154,953.2)" />
<use xlink:href="#f1_1x" transform="matrix(12,0,0,12,167.1,953.2)" />
<use xlink:href="#f1_2f" transform="matrix(12,0,0,12,176.3,953.2)" />
<use xlink:href="#f1_23" transform="matrix(12,0,0,12,188.8,953.2)" />
<use xlink:href="#f1_25" transform="matrix(12,0,0,12,198.7,953.2)" />
<use xlink:href="#f1_2i" transform="matrix(12,0,0,12,204.1,953.2)" />
<use xlink:href="#f1_21" transform="matrix(12,0,0,12,214.4,953.2)" />
<use xlink:href="#f1_2a" transform="matrix(12,0,0,12,223.2,953.2)" />
<use xlink:href="#f1_1y" transform="matrix(12,0,0,12,238.6,953.2)" />
<use xlink:href="#f1_21" transform="matrix(12,0,0,12,248.8,953.2)" />
<use xlink:href="#f1_28" transform="matrix(12,0,0,12,257.3,953.2)" />
<use xlink:href="#f1_2b" transform="matrix(12,0,0,12,262.8,953.2)" />
<use xlink:href="#f1_2j" transform="matrix(12,0,0,12,272.7,953.2)" />
<use xlink:href="#f1_u" transform="matrix(12,0,0,12,288,953.2)" />
</g>
<path fill-rule="evenodd" d="M52.8,1050.4H856.9V969.7H52.8v80.7Z" class="g0_62" />
<path fill-rule="evenodd" d="M52.8,1089.3H856.9v-38.9H52.8v38.9Z" class="g0_62" />
<g fill="#C00000" >
<use xlink:href="#f3_15" transform="matrix(12,0,0,12,55,1073.2)" />
<use xlink:href="#f3_2k" transform="matrix(12,0,0,12,66.4,1073.2)" />
<use xlink:href="#f3_1x" transform="matrix(12,0,0,12,75.6,1073.2)" />
<use xlink:href="#f3_29" transform="matrix(12,0,0,12,84.7,1073.2)" />
<use xlink:href="#f3_2c" transform="matrix(12,0,0,12,100.9,1073.2)" />
<use xlink:href="#f3_28" transform="matrix(12,0,0,12,112.2,1073.2)" />
<use xlink:href="#f3_21" transform="matrix(12,0,0,12,118.4,1073.2)" />
<use xlink:href="#f3_u" transform="matrix(12,0,0,12,127.6,1073.2)" />
</g>
<path fill-rule="evenodd" d="M52.8,1116.8H856.9v-27.5H52.8v27.5Z" class="g0_62" />
<g fill="#000000" >
<use xlink:href="#f1_16" transform="matrix(12,0,0,12,55,1111.7)" />
<use xlink:href="#f1_25" transform="matrix(12,0,0,12,65.3,1111.7)" />
<use xlink:href="#f1_2a" transform="matrix(12,0,0,12,70.8,1111.7)" />
<use xlink:href="#f1_20" transform="matrix(12,0,0,12,81.4,1111.7)" />
<use xlink:href="#f1_2g" transform="matrix(12,0,0,12,97.1,1111.7)" />
<use xlink:href="#f1_24" transform="matrix(12,0,0,12,103,1111.7)" />
<use xlink:href="#f1_21" transform="matrix(12,0,0,12,113.7,1111.7)" />
<use xlink:href="#f1_1z" transform="matrix(12,0,0,12,127.2,1111.7)" />
<use xlink:href="#f1_2b" transform="matrix(12,0,0,12,135.3,1111.7)" />
<use xlink:href="#f1_2b" transform="matrix(12,0,0,12,145.2,1111.7)" />
<use xlink:href="#f1_2e" transform="matrix(12,0,0,12,155.1,1111.7)" />
<use xlink:href="#f1_20" transform="matrix(12,0,0,12,162.4,1111.7)" />
<use xlink:href="#f1_25" transform="matrix(12,0,0,12,173.7,1111.7)" />
<use xlink:href="#f1_2a" transform="matrix(12,0,0,12,179.2,1111.7)" />
<use xlink:href="#f1_1x" transform="matrix(12,0,0,12,189.9,1111.7)" />
<use xlink:href="#f1_2g" transform="matrix(12,0,0,12,199,1111.7)" />
<use xlink:href="#f1_21" transform="matrix(12,0,0,12,204.9,1111.7)" />
<use xlink:href="#f1_2f" transform="matrix(12,0,0,12,213.7,1111.7)" />
<use xlink:href="#f1_2b" transform="matrix(12,0,0,12,226.1,1111.7)" />
<use xlink:href="#f1_22" transform="matrix(12,0,0,12,236,1111.7)" />
<use xlink:href="#f1_2g" transform="matrix(12,0,0,12,246.6,1111.7)" />
<use xlink:href="#f1_24" transform="matrix(12,0,0,12,252.5,1111.7)" />
<use xlink:href="#f1_21" transform="matrix(12,0,0,12,263.2,1111.7)" />
<use xlink:href="#f1_2c" transform="matrix(12,0,0,12,276.7,1111.7)" />
<use xlink:href="#f1_2b" transform="matrix(12,0,0,12,287.7,1111.7)" />
<use xlink:href="#f1_25" transform="matrix(12,0,0,12,297.6,1111.7)" />
<use xlink:href="#f1_2a" transform="matrix(12,0,0,12,303.1,1111.7)" />
<use xlink:href="#f1_2g" transform="matrix(12,0,0,12,313.7,1111.7)" />
<use xlink:href="#f1_2j" transform="matrix(12,0,0,12,324,1111.7)" />
<use xlink:href="#f1_24" transform="matrix(12,0,0,12,339.4,1111.7)" />
<use xlink:href="#f1_25" transform="matrix(12,0,0,12,350,1111.7)" />
<use xlink:href="#f1_1z" transform="matrix(12,0,0,12,355.5,1111.7)" />
<use xlink:href="#f1_24" transform="matrix(12,0,0,12,363.5,1111.7)" />
<use xlink:href="#f1_20" transform="matrix(12,0,0,12,378.6,1111.7)" />
<use xlink:href="#f1_25" transform="matrix(12,0,0,12,390.3,1111.7)" />
<use xlink:href="#f1_2i" transform="matrix(12,0,0,12,395.8,1111.7)" />
<use xlink:href="#f1_25" transform="matrix(12,0,0,12,406,1111.7)" />
<use xlink:href="#f1_20" transform="matrix(12,0,0,12,411.2,1111.7)" />
<use xlink:href="#f1_21" transform="matrix(12,0,0,12,422.2,1111.7)" />
<use xlink:href="#f1_2f" transform="matrix(12,0,0,12,430.9,1111.7)" />
<use xlink:href="#f1_2g" transform="matrix(12,0,0,12,443.4,1111.7)" />
<use xlink:href="#f1_24" transform="matrix(12,0,0,12,449.3,1111.7)" />
<use xlink:href="#f1_21" transform="matrix(12,0,0,12,460,1111.7)" />
<use xlink:href="#f1_28" transform="matrix(12,0,0,12,473.5,1111.7)" />
<use xlink:href="#f1_25" transform="matrix(12,0,0,12,478.6,1111.7)" />
<use xlink:href="#f1_2a" transform="matrix(12,0,0,12,484.1,1111.7)" />
<use xlink:href="#f1_21" transform="matrix(12,0,0,12,494.7,1111.7)" />
<use xlink:href="#f1_2f" transform="matrix(12,0,0,12,508.3,1111.7)" />
<use xlink:href="#f1_21" transform="matrix(12,0,0,12,516,1111.7)" />
<use xlink:href="#f1_23" transform="matrix(12,0,0,12,524.7,1111.7)" />
<use xlink:href="#f1_29" transform="matrix(12,0,0,12,535,1111.7)" />
<use xlink:href="#f1_21" transform="matrix(12,0,0,12,551.1,1111.7)" />
<use xlink:href="#f1_2a" transform="matrix(12,0,0,12,559.9,1111.7)" />
<use xlink:href="#f1_2g" transform="matrix(12,0,0,12,570.6,1111.7)" />
<use xlink:href="#f1_26" transform="matrix(12,0,0,12,581.2,1111.7)" />
<use xlink:href="#f1_2b" transform="matrix(12,0,0,12,585.6,1111.7)" />
<use xlink:href="#f1_25" transform="matrix(12,0,0,12,595.1,1111.7)" />
<use xlink:href="#f1_2a" transform="matrix(12,0,0,12,600.6,1111.7)" />
<use xlink:href="#f1_25" transform="matrix(12,0,0,12,611.3,1111.7)" />
<use xlink:href="#f1_2a" transform="matrix(12,0,0,12,616.7,1111.7)" />
<use xlink:href="#f1_23" transform="matrix(12,0,0,12,627.4,1111.7)" />
<use xlink:href="#f1_2g" transform="matrix(12,0,0,12,642.3,1111.7)" />
<use xlink:href="#f1_24" transform="matrix(12,0,0,12,648.2,1111.7)" />
<use xlink:href="#f1_21" transform="matrix(12,0,0,12,658.8,1111.7)" />
<use xlink:href="#f1_2c" transform="matrix(12,0,0,12,672.3,1111.7)" />
<use xlink:href="#f1_2b" transform="matrix(12,0,0,12,683.4,1111.7)" />
<use xlink:href="#f1_25" transform="matrix(12,0,0,12,693.2,1111.7)" />
<use xlink:href="#f1_2a" transform="matrix(12,0,0,12,698.7,1111.7)" />
<use xlink:href="#f1_2g" transform="matrix(12,0,0,12,709.4,1111.7)" />
<use xlink:href="#f1_2f" transform="matrix(12,0,0,12,715.2,1111.7)" />
<use xlink:href="#f1_c" transform="matrix(12,0,0,12,727.7,1111.7)" />
<use xlink:href="#f1_l" transform="matrix(12,0,0,12,733.9,1111.7)" />
<use xlink:href="#f1_g" transform="matrix(12,0,0,12,742.7,1111.7)" />
<use xlink:href="#f2_4z" transform="matrix(12,0,0,12,752.3,1111.7)" />
<use xlink:href="#f1_m" transform="matrix(12,0,0,12,761.5,1111.7)" />
<use xlink:href="#f1_g" transform="matrix(12,0,0,12,770.3,1111.7)" />
<use xlink:href="#f1_n" transform="matrix(12,0,0,12,779.8,1111.7)" />
<use xlink:href="#f1_d" transform="matrix(12,0,0,12,788.6,1111.7)" />
<use xlink:href="#f1_1x" transform="matrix(12,0,0,12,799.2,1111.7)" />
<use xlink:href="#f1_2a" transform="matrix(12,0,0,12,808.4,1111.7)" />
<use xlink:href="#f1_20" transform="matrix(12,0,0,12,819,1111.7)" />
<use xlink:href="#f1_c" transform="matrix(12,0,0,12,834.8,1111.7)" />
<use xlink:href="#f1_n" transform="matrix(12,0,0,12,841,1111.7)" />
<use xlink:href="#f1_g" transform="matrix(12,0,0,12,850.1,1111.7)" />
</g>
<path fill-rule="evenodd" d="M52.8,1155.7H856.9v-38.9H52.8v38.9Z" class="g0_62" />
<g fill="#000000" >
<use xlink:href="#f1_o" transform="matrix(12,0,0,12,55,1139.2)" />
<use xlink:href="#f1_g" transform="matrix(12,0,0,12,64.2,1139.2)" />
<use xlink:href="#f2_4z" transform="matrix(12,0,0,12,73.7,1139.2)" />
<use xlink:href="#f1_p" transform="matrix(12,0,0,12,82.9,1139.2)" />
<use xlink:href="#f1_d" transform="matrix(12,0,0,12,92.1,1139.2)" />
<use xlink:href="#f1_25" transform="matrix(12,0,0,12,102.7,1139.2)" />
<use xlink:href="#f1_2a" transform="matrix(12,0,0,12,108.2,1139.2)" />
<use xlink:href="#f1_2g" transform="matrix(12,0,0,12,123.2,1139.2)" />
<use xlink:href="#f1_24" transform="matrix(12,0,0,12,129,1139.2)" />
<use xlink:href="#f1_21" transform="matrix(12,0,0,12,139.7,1139.2)" />
<use xlink:href="#f1_2e" transform="matrix(12,0,0,12,153.2,1139.2)" />
<use xlink:href="#f1_1x" transform="matrix(12,0,0,12,160.5,1139.2)" />
<use xlink:href="#f1_2g" transform="matrix(12,0,0,12,169.7,1139.2)" />
<use xlink:href="#f1_25" transform="matrix(12,0,0,12,175.6,1139.2)" />
<use xlink:href="#f1_2b" transform="matrix(12,0,0,12,181.1,1139.2)" />
<use xlink:href="#f1_m" transform="matrix(12,0,0,12,195.9,1139.2)" />
<use xlink:href="#f1_u" transform="matrix(12,0,0,12,204.7,1139.2)" />
<use xlink:href="#f1_n" transform="matrix(12,0,0,12,213.8,1139.2)" />
<use xlink:href="#f1_c" transform="matrix(12,0,0,12,227.8,1139.2)" />
<use xlink:href="#f1_25" transform="matrix(12,0,0,12,233.6,1139.2)" />
<use xlink:href="#f1_d" transform="matrix(12,0,0,12,239.1,1139.2)" />
<use xlink:href="#f1_25" transform="matrix(12,0,0,12,249.7,1139.2)" />
<use xlink:href="#f1_2a" transform="matrix(12,0,0,12,255.2,1139.2)" />
<use xlink:href="#f1_2g" transform="matrix(12,0,0,12,265.9,1139.2)" />
<use xlink:href="#f1_21" transform="matrix(12,0,0,12,271.7,1139.2)" />
<use xlink:href="#f1_2e" transform="matrix(12,0,0,12,280.5,1139.2)" />
<use xlink:href="#f1_2a" transform="matrix(12,0,0,12,287.8,1139.2)" />
<use xlink:href="#f1_1x" transform="matrix(12,0,0,12,298.5,1139.2)" />
<use xlink:href="#f1_28" transform="matrix(12,0,0,12,307.7,1139.2)" />
<use xlink:href="#f1_28" transform="matrix(12,0,0,12,312.8,1139.2)" />
<use xlink:href="#f1_2l" transform="matrix(12,0,0,12,318.2,1139.2)" />
<use xlink:href="#f1_g" transform="matrix(12,0,0,12,328.1,1139.2)" />
<use xlink:href="#f1_1x" transform="matrix(12,0,0,12,337.6,1139.2)" />
<use xlink:href="#f1_2a" transform="matrix(12,0,0,12,346.8,1139.2)" />
<use xlink:href="#f1_20" transform="matrix(12,0,0,12,357.5,1139.2)" />
<use xlink:href="#f1_c" transform="matrix(12,0,0,12,373.2,1139.2)" />
<use xlink:href="#f1_25" transform="matrix(12,0,0,12,379,1139.2)" />
<use xlink:href="#f1_25" transform="matrix(12,0,0,12,384.5,1139.2)" />
<use xlink:href="#f1_d" transform="matrix(12,0,0,12,389.7,1139.2)" />
<use xlink:href="#f1_21" transform="matrix(12,0,0,12,400.6,1139.2)" />
<use xlink:href="#f1_2k" transform="matrix(12,0,0,12,409.4,1139.2)" />
<use xlink:href="#f1_2g" transform="matrix(12,0,0,12,418.9,1139.2)" />
<use xlink:href="#f1_21" transform="matrix(12,0,0,12,424.4,1139.2)" />
<use xlink:href="#f1_2e" transform="matrix(12,0,0,12,433.2,1139.2)" />
<use xlink:href="#f1_2a" transform="matrix(12,0,0,12,440.6,1139.2)" />
<use xlink:href="#f1_1x" transform="matrix(12,0,0,12,451.2,1139.2)" />
<use xlink:href="#f1_28" transform="matrix(12,0,0,12,460.4,1139.2)" />
<use xlink:href="#f1_28" transform="matrix(12,0,0,12,465.8,1139.2)" />
<use xlink:href="#f1_2l" transform="matrix(12,0,0,12,471.3,1139.2)" />
<use xlink:href="#f1_i" transform="matrix(12,0,0,12,481.2,1139.2)" />
</g>
<path fill-rule="evenodd" d="M52.8,1194.9H856.9v-39.2H52.8v39.2Z" class="g0_62" />
<g fill="#000000" >
<use xlink:href="#f3_1j" transform="matrix(12,0,0,12,55,1178.4)" />
<use xlink:href="#f3_2b" transform="matrix(12,0,0,12,66.4,1178.4)" />
<use xlink:href="#f3_28" transform="matrix(12,0,0,12,76.6,1178.4)" />
<use xlink:href="#f3_2h" transform="matrix(12,0,0,12,82.8,1178.4)" />
<use xlink:href="#f3_2g" transform="matrix(12,0,0,12,93.8,1178.4)" />
<use xlink:href="#f3_25" transform="matrix(12,0,0,12,100.1,1178.4)" />
<use xlink:href="#f3_2b" transform="matrix(12,0,0,12,106.3,1178.4)" />
<use xlink:href="#f3_2a" transform="matrix(12,0,0,12,116.2,1178.4)" />
</g>
<image preserveAspectRatio="none" x="55" y="169" width="403" height="121" xlink:href="img/1.png" />
<image preserveAspectRatio="none" x="55" y="340" width="332" height="62" xlink:href="img/2.png" />
<image preserveAspectRatio="none" x="55" y="480" width="330" height="71" xlink:href="img/3.png" />
<image preserveAspectRatio="none" x="55" y="629" width="290" height="66" xlink:href="img/4.png" />
<image preserveAspectRatio="none" x="83" y="774" width="336" height="51" xlink:href="img/5.png" />
<image preserveAspectRatio="none" x="55" y="970" width="228" height="69" xlink:href="img/6.png" />
<path fill-rule="evenodd" d="M37.4,38.1h.7v-.7h-.7v.7Z" class="g1_62" />
<path fill-rule="evenodd" d="M37.4,38.1h.7v-.7h-.7v.7Z" class="g1_62" />
<path fill-rule="evenodd" d="M871.5,38.1h.8v-.7h-.8v.7Z" class="g1_62" />
<path fill-rule="evenodd" d="M871.5,38.1h.8v-.7h-.8v.7Z" class="g1_62" />
<path fill-rule="evenodd" d="M872.3,1248.5h.7V38.1h-.7V1248.5Z" class="g2_62" />
<path fill-rule="evenodd" d="M37.4,1249.2h.7v-.7h-.7v.7Z" class="g1_62" />
<path fill-rule="evenodd" d="M37.4,1249.2h.7v-.7h-.7v.7Z" class="g1_62" />
<path fill-rule="evenodd" d="M38.1,1249.9H871.5v-.7H38.1v.7Z" class="g2_62" />
<path fill-rule="evenodd" d="M872.3,1249.9h.7v-1.4h-.7v1.4Z" class="g2_62" />
<path fill-rule="evenodd" d="M871.5,1249.9H873v-.7h-1.5v.7Z" class="g2_62" />
<path fill-rule="evenodd" d="M871.5,1249.2h.8v-.7h-.8v.7Z" class="g1_62" />
<path fill-rule="evenodd" d="M871.5,1249.2h.8v-.7h-.8v.7Z" class="g1_62" />
<g fill="#000000" >
<use xlink:href="#f4_q" transform="matrix(8,0,0,8,792.5,1225.6)" />
</g>
<defs>
<path d="M459,38c0,0,119,0,203,83c0,0,84,84,84,201c0,0,0,118,-84,201c0,0,-84,83,-203,83c0,0,-120,0,-204,-83c0,0,-84,-83,-84,-201c0,0,0,-116,84,-200c0,0,84,-84,204,-84Zm0,-61c0,0,-146,0,-248,100c0,0,-102,102,-102,245c0,0,0,143,102,245c0,0,102,102,248,102c0,0,145,0,247,-102c0,0,103,-101,103,-245c0,0,0,-143,-103,-245C706,77,604,-23,459,-23Z" 
id="f0_2b"
transform="scale(0.001,-0.001)" />

<path d="M754,415L566,863L378,415ZM28,-4V42l23,1c0,0,52,1,67,11c0,0,16,9,33,46c0,0,53,107,108,232L464,796c0,0,82,185,112,269h51L1004,187c0,0,38,-90,51,-108c0,0,12,-18,29,-26c0,0,16,-8,74,-11V-4c0,0,-97,4,-185,4c0,0,-82,0,-219,-4V42l74,5c0,0,40,3,47,8c0,0,11,8,11,21c0,0,0,13,-22,70L782,353H351L300,233c0,0,-50,-119,-50,-146c0,0,0,-17,9,-25c0,0,10,-7,48,-12l71,-8V-4c0,0,-71,4,-161,4C217,0,110,0,28,-4Z" 
id="f1_11"
transform="scale(0.001,-0.001)" />

<path d="M37,-4V38l64,5c0,0,43,4,49,22c0,0,9,29,9,265V854l-3,97c0,0,0,37,-8,45c0,0,-12,12,-50,12H37v45c0,0,156,14,248,59l13,-9c0,0,-12,-219,-12,-396V324c0,0,0,-228,9,-259c0,0,5,-16,49,-20l64,-7V-4c0,0,-82,4,-156,4C252,0,170,0,37,-4Z" 
id="f1_28"
transform="scale(0.001,-0.001)" />

<path d="M280,-19c0,0,-92,0,-206,28C74,9,54,14,54,25l2,10c0,0,3,11,5,40c0,0,7,73,7,113l-1,36h46V175c0,0,0,-58,11,-73c0,0,19,-24,75,-46c0,0,57,-23,116,-23c0,0,77,0,125,42c0,0,49,41,49,99c0,0,0,45,-28,73c0,0,-29,27,-108,44c0,0,-148,29,-196,52c0,0,-48,22,-72,60c0,0,-23,37,-23,90c0,0,0,99,72,161c0,0,72,62,204,62c0,0,105,0,209,-42c0,0,-7,-51,-11,-170H491c0,0,-2,65,-14,86c0,0,-17,28,-63,50c0,0,-45,23,-96,23c0,0,-68,0,-108,-35c0,0,-41,-34,-41,-87c0,0,0,-50,32,-75c0,0,32,-26,177,-55c0,0,107,-22,142,-40c0,0,34,-19,55,-57c0,0,20,-38,20,-87c0,0,0,-101,-86,-174c0,0,-86,-72,-229,-72Z" 
id="f1_2f"
transform="scale(0.001,-0.001)" />

<path d="M439,33c0,0,90,0,146,69c0,0,55,69,55,208c0,0,0,113,-32,195c0,0,-33,83,-87,120c0,0,-54,38,-120,38c0,0,-59,0,-107,-30c0,0,-47,-30,-70,-80c0,0,-30,-68,-30,-147c0,0,0,-154,63,-263c0,0,63,-110,182,-110ZM390,-19c0,0,-149,0,-243,100c0,0,-93,100,-93,272c0,0,0,103,48,186c0,0,47,83,133,130c0,0,87,47,196,47c0,0,159,0,255,-94c0,0,95,-94,95,-250c0,0,0,-185,-124,-294c0,0,-112,-97,-267,-97Z" 
id="f1_2b"
transform="scale(0.001,-0.001)" />

<path d="M623,47c0,0,115,0,201,53c0,0,86,53,135,157c0,0,49,104,49,255c0,0,0,158,-54,270c0,0,-55,112,-150,168c0,0,-94,56,-224,56c0,0,-119,0,-205,-50c0,0,-86,-50,-134,-146c0,0,-49,-96,-49,-222c0,0,0,-168,57,-292c0,0,58,-125,154,-187c0,0,96,-62,220,-62Zm414,-311c0,0,-65,8,-117,22c0,0,-53,14,-159,53c0,0,-176,64,-237,64c0,0,-17,0,-36,-7c0,0,-19,-8,-95,-50v49c0,0,128,86,183,114c0,0,-169,0,-288,66c0,0,-119,67,-187,191c0,0,-67,124,-67,290c0,0,0,243,158,393c0,0,159,150,422,150c0,0,258,0,405,-139c0,0,147,-139,147,-371c0,0,0,-177,-87,-311c0,0,-86,-134,-225,-205C854,45,754,-6,616,-19c0,0,85,-22,178,-60c0,0,193,-78,279,-78c0,0,29,0,88,14v-39c0,0,-84,-43,-124,-82Z" 
id="f1_1h"
transform="scale(0.001,-0.001)" />

<path d="M355,-19c0,0,-67,0,-116,28c0,0,-48,28,-70,73c0,0,-22,45,-22,143c0,0,0,51,2,118l3,120c0,0,0,126,-8,140c0,0,-7,14,-47,14H30v41c0,0,102,9,188,37l63,24c0,0,12,0,12,-19l-5,-76c0,0,-10,-158,-10,-294c0,0,0,-135,11,-173c0,0,11,-38,47,-63c0,0,35,-25,87,-25c0,0,69,0,127,45c0,0,57,45,75,90c0,0,10,26,10,157c0,0,0,221,-8,240c0,0,-8,16,-67,16H501v41c0,0,76,9,130,21c0,0,53,12,113,36c0,0,7,4,13,4c0,0,13,0,13,-15l-3,-69c0,0,-11,-255,-11,-449c0,0,0,-109,11,-125c0,0,17,-23,71,-23h43V-4c0,0,-93,4,-157,4c0,0,-49,0,-97,-4l8,134L591,82C591,82,540,26,486,3c0,0,-53,-22,-131,-22Z" 
id="f1_2h"
transform="scale(0.001,-0.001)" />

<path d="M296,69c0,0,56,0,107,32c0,0,51,31,97,93l-2,165l2,36c0,0,-207,-45,-263,-84c0,0,-56,-39,-56,-120c0,0,0,-55,32,-88c0,0,32,-34,83,-34ZM249,-19c0,0,-97,0,-147,47c0,0,-51,47,-51,127c0,0,0,75,36,131c0,0,36,56,103,83c0,0,67,27,310,70c0,0,-2,95,-42,142c0,0,-51,58,-145,58c0,0,-35,0,-67,-8c0,0,-31,-9,-58,-27c0,0,-21,-53,-39,-101l-42,11V615l81,46c0,0,55,32,97,44c0,0,41,12,88,12c0,0,103,0,166,-47c0,0,63,-46,76,-117c0,0,9,-54,11,-267c0,0,2,-200,9,-221c0,0,7,-21,37,-21h59V-4c0,0,-85,4,-119,4c0,0,-42,0,-112,-4l1,66c0,0,0,32,-1,65L345,9c0,0,-20,-15,-41,-21c0,0,-20,-7,-55,-7Z" 
id="f1_1x"
transform="scale(0.001,-0.001)" />

<path d="M431,74c0,0,59,0,109,33c0,0,50,34,73,87c0,0,23,53,23,166V542c0,0,-51,55,-107,83c0,0,-55,27,-115,27c0,0,-98,0,-157,-71c0,0,-59,-71,-59,-208c0,0,0,-140,68,-219c0,0,68,-80,165,-80ZM363,-19c0,0,-126,0,-211,94c0,0,-85,95,-85,253c0,0,0,99,33,169c0,0,33,70,78,102c0,0,46,32,142,80c0,0,73,37,136,37c0,0,42,0,87,-11c0,0,45,-12,93,-35V941c0,0,0,47,-10,59c0,0,-11,12,-48,12H514v45c0,0,133,9,248,55l14,-9c0,0,-6,-76,-9,-184L764,721l-2,-65V211c0,0,0,-125,8,-139c0,0,11,-20,61,-27l53,-7V-4c0,0,-92,6,-162,6c0,0,-12,0,-94,-6c0,0,5,50,8,142C636,138,573,89,475,1c0,0,-64,-20,-112,-20Z" 
id="f1_20"
transform="scale(0.001,-0.001)" />

<path d="M24,-4V38l72,6c0,0,38,3,48,14c0,0,10,12,13,73c0,0,5,107,5,255c0,0,0,180,-14,212c0,0,-10,20,-61,20H24v43c0,0,73,8,129,21c0,0,57,13,101,33c0,0,11,6,17,6c0,0,9,0,12,-5c0,0,3,-4,3,-20L283,548c0,0,29,28,65,74c0,0,41,54,77,75c0,0,36,20,76,20c0,0,41,0,62,-10c0,0,11,-4,11,-14l-1,-8c0,0,-12,-60,-13,-169H526c0,0,-17,38,-40,54c0,0,-24,16,-56,16c0,0,-44,0,-82,-30c0,0,-37,-30,-50,-84c0,0,-12,-53,-12,-211c0,0,0,-103,8,-174c0,0,3,-26,15,-33c0,0,28,-16,83,-16h45V-4c0,0,-114,4,-216,4C221,0,121,0,24,-4Z" 
id="f1_2e"
transform="scale(0.001,-0.001)" />

<path d="M38,-4V38l64,7c0,0,37,3,46,14c0,0,8,11,11,72c0,0,3,95,3,262c0,0,0,116,-3,178c0,0,-2,24,-13,33c0,0,-12,10,-52,10H38v43c0,0,91,13,134,24c0,0,43,11,110,38l18,-12c0,0,-5,-55,-6,-123c0,0,-6,-217,-6,-321c0,0,0,-97,7,-165c0,0,3,-27,14,-37c0,0,11,-11,54,-16l51,-7V-4c0,0,-109,4,-199,4C215,0,128,0,38,-4ZM222,880c0,0,-35,0,-59,25c0,0,-25,24,-25,59c0,0,0,35,25,60c0,0,24,25,59,25c0,0,35,0,59,-25c0,0,25,-25,25,-60c0,0,0,-35,-25,-59c0,0,-24,-25,-59,-25Z" 
id="f1_25"
transform="scale(0.001,-0.001)" />

<path d="M315,-19c0,0,-55,0,-94,19c0,0,-38,20,-55,52c0,0,-17,31,-17,96l3,144V575c0,0,-58,0,-119,-5v32c0,0,64,24,119,51c0,0,-1,107,-6,232c0,0,87,36,125,59l19,-15c0,0,-6,-59,-12,-276c0,0,91,0,148,2l60,3l-8,-76l-31,1L304,582H278V289c0,0,0,-115,7,-147c0,0,8,-32,30,-50c0,0,23,-18,58,-18c0,0,22,0,43,9c0,0,20,8,40,26L478,83L405,-1c0,0,-24,-8,-46,-13c0,0,-23,-5,-44,-5Z" 
id="f1_2g"
transform="scale(0.001,-0.001)" />

<path d="M442,407c0,0,56,0,108,5v42c0,0,0,65,-26,124c0,0,-17,37,-58,61c0,0,-41,24,-95,24c0,0,-84,0,-134,-61c0,0,-50,-61,-51,-190c0,0,116,-5,256,-5ZM380,-19c0,0,-152,0,-245,95c0,0,-93,96,-93,260c0,0,0,125,52,217c0,0,35,60,127,111c0,0,93,52,180,52c0,0,132,0,210,-78c0,0,77,-77,77,-217l-2,-44c0,0,-49,-11,-94,-15c0,0,-80,-6,-222,-6H184c0,0,4,-147,75,-222c0,0,72,-76,188,-76c0,0,53,0,104,17c0,0,52,17,103,51l12,-12L642,52C642,52,580,16,515,-1c0,0,-66,-18,-135,-18Z" 
id="f1_21"
transform="scale(0.001,-0.001)" />

<path d="M110,-7V31c0,0,59,26,70,56c0,0,11,30,11,237V734c0,0,0,224,-11,249c0,0,-11,26,-61,26H38v47c0,0,177,-5,235,-5c0,0,78,0,210,5v-47H391c0,0,-40,0,-50,-23c0,0,-11,-22,-11,-189V322l3,-210L330,68c0,0,74,-3,143,-3c0,0,140,0,219,7c0,0,55,6,114,22l45,175h49C900,269,881,128,870,5C870,5,803,-5,687,-5L332,0c0,0,-71,0,-222,-7Z" 
id="f1_1c"
transform="scale(0.001,-0.001)" />

<path d="M1106,-23c0,0,-101,15,-118,22c0,0,-16,6,-31,23c0,0,-83,91,-174,203L246,888V372c0,0,0,-176,7,-245c0,0,5,-53,18,-64c0,0,12,-12,71,-17l48,-4V-4c0,0,-81,4,-147,4C243,0,198,0,34,-4V42H88c0,0,48,0,63,13c0,0,15,14,19,53c0,0,8,82,8,223V702c0,0,0,104,-2,206c0,0,-2,44,-12,60c0,0,-10,16,-29,28c0,0,-20,13,-55,13H34v47c0,0,95,-5,145,-5c0,0,53,0,117,5c0,0,74,-90,140,-176c0,0,65,-85,135,-172L826,395c0,0,139,-168,200,-234V640c0,0,0,300,-11,328c0,0,-11,28,-86,36l-56,5v47c0,0,120,-5,186,-5c0,0,69,0,179,5v-47h-57c0,0,-70,0,-80,-46c0,0,-7,-31,-7,-327V300c0,0,0,-136,12,-323Z" 
id="f1_1e"
transform="scale(0.001,-0.001)" />

<path d="M44,-4V42h56c0,0,64,0,76,28c0,0,12,28,12,294V723c0,0,0,232,-14,259c0,0,-14,28,-90,28H44v47c0,0,139,-5,212,-5c0,0,49,0,142,4c0,0,108,4,155,4c0,0,129,0,196,-27c0,0,66,-28,101,-79c0,0,35,-52,35,-124c0,0,0,-105,-76,-186c0,0,-76,-81,-221,-111c0,0,73,-105,182,-244L914,103c0,0,38,-48,50,-54c0,0,13,-7,27,-7h19V-4c0,0,-62,4,-108,4c0,0,-43,0,-90,-4L547,351c0,0,-74,99,-159,193l8,25c0,0,43,-4,64,-4c0,0,126,0,197,64c0,0,71,65,71,172c0,0,0,97,-60,151c0,0,-60,54,-173,54c0,0,-79,0,-158,-29c0,0,-9,-119,-9,-254V363c0,0,0,-263,12,-292c0,0,13,-29,82,-29h58V-4c0,0,-123,4,-205,4C275,0,211,0,44,-4Z" 
id="f1_1i"
transform="scale(0.001,-0.001)" />

<path d="M322,-19c0,0,-72,0,-144,15c0,0,-73,14,-147,42c0,0,14,90,13,230H95V231c0,0,0,-73,7,-90c0,0,8,-17,35,-36c0,0,41,-29,98,-45c0,0,56,-15,122,-15c0,0,141,0,218,66c0,0,76,67,76,169c0,0,0,59,-26,101c0,0,-26,41,-73,61c0,0,-47,20,-174,31c0,0,-168,13,-228,40c0,0,-61,27,-95,84c0,0,-34,58,-34,144c0,0,0,145,105,237c0,0,105,93,291,93c0,0,74,0,149,-16c0,0,75,-17,151,-50c0,0,-21,-77,-23,-205H642v59c0,0,0,59,-15,79c0,0,-16,21,-82,45c0,0,-66,23,-139,23c0,0,-119,0,-187,-60c0,0,-68,-60,-68,-155c0,0,0,-59,28,-102c0,0,27,-43,75,-62c0,0,47,-19,201,-33c0,0,153,-15,207,-40c0,0,54,-24,87,-79c0,0,32,-54,32,-129c0,0,0,-149,-125,-257C656,89,531,-19,322,-19Z" 
id="f1_1j"
transform="scale(0.001,-0.001)" />

<path d="M20,-4V38H73c0,0,55,0,64,26c0,0,10,26,10,310c0,0,0,127,-3,199c0,0,-2,24,-12,33c0,0,-11,9,-59,9H20v43c0,0,63,7,114,20c0,0,50,13,114,39c0,0,6,3,12,3c0,0,12,0,12,-18l-1,-28L270,573L383,673c0,0,20,18,42,26c0,0,49,17,99,17c0,0,80,0,138,-33c0,0,58,-32,84,-84c0,0,25,-52,25,-162L768,202c0,0,0,-121,10,-140c0,0,14,-24,55,-24h53V-4c0,0,-79,4,-137,4c0,0,-56,0,-121,-4c0,0,14,144,14,392c0,0,0,100,-18,141c0,0,-17,42,-59,68c0,0,-41,25,-99,25c0,0,-73,0,-123,-37c0,0,-51,-36,-63,-80c0,0,-7,-29,-7,-152c0,0,0,-137,2,-254c0,0,1,-35,10,-44c0,0,19,-17,62,-17h53V-4c0,0,-126,4,-201,4C199,0,120,0,20,-4Z" 
id="f1_2a"
transform="scale(0.001,-0.001)" />

<path d="M674,-19c0,0,-28,66,-159,341L247,875V298c0,0,0,-201,16,-229c0,0,17,-27,100,-27h28V-4c0,0,-104,4,-169,4C222,0,175,0,35,-4V42H84c0,0,49,0,65,14c0,0,16,14,20,52c0,0,10,104,10,225V755c0,0,0,153,-7,202c0,0,-3,25,-22,39c0,0,-19,13,-75,13H35v47c0,0,130,-5,163,-5c0,0,43,0,121,5c0,0,91,-201,209,-442L725,210L906,584c0,0,96,196,218,472c0,0,93,-5,131,-5c0,0,44,0,159,5v-47h-49c0,0,-66,0,-80,-23c0,0,-15,-22,-15,-163V278c0,0,0,-182,15,-209c0,0,16,-27,86,-27h43V-4c0,0,-104,4,-198,4c0,0,-105,0,-219,-4V42h50c0,0,59,0,71,26c0,0,12,26,12,221V895L909,434C909,434,784,174,704,-19Z" 
id="f1_1d"
transform="scale(0.001,-0.001)" />

<path d="M245,-4V42h63c0,0,49,0,64,13c0,0,15,13,19,51c0,0,7,87,7,225V757c0,0,0,126,-5,232H317c0,0,-183,0,-202,-9c0,0,-19,-9,-24,-67L80,814H33l2,88c0,0,0,54,-10,154c0,0,403,-5,473,-5l412,5c0,0,-14,-126,-16,-242H847l-8,97c0,0,-4,51,-12,60c0,0,-9,9,-37,12c0,0,-82,6,-186,6H546c0,0,-8,-112,-8,-236V328c0,0,0,-237,12,-262c0,0,12,-24,84,-24h56V-4c0,0,-131,4,-223,4c0,0,-92,0,-222,-4Z" 
id="f1_1k"
transform="scale(0.001,-0.001)" />

<path d="M487,58c0,0,118,0,180,88c0,0,63,89,63,211c0,0,0,82,-29,140c0,0,-29,59,-84,92c0,0,-55,33,-118,33c0,0,-45,0,-87,-18c0,0,-43,-18,-75,-49c0,0,-32,-32,-41,-59c0,0,-7,-20,-7,-106V156c0,0,48,-54,96,-76c0,0,47,-22,102,-22ZM30,-410v42H85c0,0,57,0,68,25c0,0,10,25,10,262V376c0,0,0,119,-6,184c0,0,-3,31,-14,41c0,0,-12,10,-54,10H30v46c0,0,104,11,205,43l45,18c0,0,12,0,12,-21l-2,-79l-1,-53l105,93c0,0,39,35,67,44c0,0,44,14,102,14c0,0,133,0,215,-82c0,0,82,-82,82,-212c0,0,0,-65,-19,-128c0,0,-19,-63,-45,-102c0,0,-27,-40,-61,-67c0,0,-11,-9,-90,-59L615,45C615,45,558,5,524,-6c0,0,-35,-13,-80,-13c0,0,-35,0,-73,11c0,0,-39,9,-82,28V-84c0,0,0,-162,5,-228c0,0,2,-29,19,-43c0,0,16,-13,69,-13h40v-42c0,0,-141,5,-207,5c0,0,-72,0,-185,-5Z" 
id="f1_2c"
transform="scale(0.001,-0.001)" />

<path d="M409,-377c0,0,82,0,145,30c0,0,62,31,97,84c0,0,34,54,34,111c0,0,0,48,-24,85c0,0,-24,37,-57,47c0,0,-18,5,-79,5H351c0,0,-53,0,-72,-12c0,0,-62,-40,-76,-65c0,0,-22,-39,-22,-98c0,0,0,-81,60,-134c0,0,60,-53,168,-53ZM395,280c0,0,71,0,116,47c0,0,44,48,44,133c0,0,0,93,-47,150c0,0,-48,57,-121,57c0,0,-72,0,-115,-46c0,0,-44,-47,-44,-129c0,0,0,-99,47,-156c0,0,48,-56,120,-56ZM382,-430c0,0,-154,0,-237,67c0,0,-82,66,-82,164c0,0,0,60,43,122c0,0,78,37,131,74c0,0,-62,19,-80,36c0,0,-17,17,-17,43c0,0,0,31,17,62c0,0,10,18,49,45l73,52c0,0,-89,22,-129,63c0,0,-52,55,-52,141c0,0,0,75,39,137c0,0,38,62,114,98c0,0,96,46,186,46c0,0,56,0,99,-15c0,0,43,-15,88,-51h63c0,0,97,0,151,7l8,-16c0,0,-22,-32,-39,-68H668c0,0,17,-48,17,-78c0,0,0,-67,-40,-128c0,0,-40,-62,-115,-100c0,0,-75,-37,-161,-37l-36,1c0,0,-49,-37,-62,-55c0,0,-13,-18,-13,-35c0,0,0,-28,29,-45c0,0,29,-16,119,-16c0,0,34,0,98,3c0,0,92,4,133,4c0,0,59,0,91,-19c0,0,31,-19,53,-67c0,0,23,-46,23,-106c0,0,0,-83,-51,-160c0,0,-51,-77,-148,-123c0,0,-97,-46,-223,-46Z" 
id="f1_23"
transform="scale(0.001,-0.001)" />

<path d="M34,-4V38H91c0,0,48,0,58,26c0,0,9,26,9,281c0,0,0,187,-2,220c0,0,-2,34,-12,43c0,0,-11,9,-64,9H34v41c0,0,110,15,189,41l54,21c0,0,13,0,13,-18l-1,-27c0,0,-2,-42,-2,-93l100,90c0,0,24,21,51,30c0,0,39,14,77,14c0,0,84,0,135,-31c0,0,52,-30,94,-108l96,88c0,0,25,22,61,34c0,0,47,17,91,17c0,0,67,0,122,-32c0,0,54,-31,81,-81c0,0,26,-50,26,-136l-3,-292c0,0,0,-97,12,-115c0,0,11,-17,58,-20l55,-2V-4l-37,2c0,0,-87,2,-118,2c0,0,-47,0,-110,-4c0,0,10,137,10,321c0,0,0,156,-13,205c0,0,-13,49,-51,77c0,0,-38,28,-96,28c0,0,-64,0,-110,-35c0,0,-47,-35,-58,-84c0,0,-7,-31,-7,-266c0,0,0,-138,2,-157c0,0,2,-19,12,-27c0,0,11,-8,65,-14l50,-6V-4c0,0,-132,4,-194,4c0,0,-49,0,-191,-4V38h50c0,0,45,0,58,13c0,0,14,13,16,60c0,0,6,122,6,255c0,0,0,118,-16,163c0,0,-16,46,-55,72c0,0,-38,26,-92,26c0,0,-57,0,-104,-32c0,0,-47,-32,-64,-78c0,0,-11,-31,-11,-177c0,0,0,-161,3,-236c0,0,1,-35,11,-45c0,0,9,-10,64,-15l52,-6V-4c0,0,-94,4,-176,4C239,0,145,0,34,-4Z" 
id="f1_29"
transform="scale(0.001,-0.001)" />

<path d="M192,-19c0,0,-37,0,-63,25c0,0,-25,26,-25,62c0,0,0,37,25,62c0,0,26,25,63,25c0,0,36,0,61,-25c0,0,26,-25,26,-62c0,0,0,-36,-26,-62c0,0,-25,-25,-61,-25Z" 
id="f1_i"
transform="scale(0.001,-0.001)" />

<path d="M23,-4V38l47,6c0,0,44,5,56,12c0,0,11,7,14,33c0,0,6,40,6,180V772c0,0,0,199,-11,223c0,0,-6,16,-60,16H23v46c0,0,116,12,185,34l62,21c0,0,12,0,12,-16l-3,-31L275,931c0,0,-4,-101,-4,-157V574l98,86c0,0,34,32,67,44c0,0,33,12,80,12c0,0,83,0,144,-33c0,0,61,-34,84,-85c0,0,24,-52,24,-177L763,201c0,0,0,-75,6,-118c0,0,2,-18,12,-27c0,0,10,-9,44,-12l56,-6V-4c0,0,-72,4,-141,4c0,0,-59,0,-117,-4c0,0,14,186,14,367c0,0,0,122,-15,165c0,0,-16,43,-55,69c0,0,-40,25,-100,25c0,0,-62,0,-113,-30c0,0,-50,-29,-70,-68c0,0,-13,-27,-13,-131V263c0,0,0,-177,8,-196c0,0,8,-18,60,-23l65,-6V-4c0,0,-117,4,-187,4C217,0,143,0,23,-4Z" 
id="f1_24"
transform="scale(0.001,-0.001)" />

<path d="M34,-4V42h67c0,0,47,0,60,12c0,0,14,11,18,47c0,0,3,35,8,216V715l-2,155c0,0,-2,96,-21,117c0,0,-19,22,-93,22H34v47c0,0,93,-4,237,-4c0,0,84,0,187,5c0,0,68,3,103,3c0,0,180,0,262,-66c0,0,81,-65,81,-177c0,0,0,-81,-47,-156c0,0,-47,-75,-133,-121c0,0,-86,-45,-184,-45c0,0,-44,0,-111,14l-15,56c0,0,65,-16,109,-16c0,0,103,0,164,62c0,0,60,62,60,170c0,0,0,104,-65,163c0,0,-64,58,-192,58c0,0,-72,0,-158,-27c0,0,-5,-108,-5,-229V320c0,0,0,-224,13,-251c0,0,13,-27,88,-27h51V-4c0,0,-132,4,-207,4C272,0,205,0,34,-4Z" 
id="f1_1g"
transform="scale(0.001,-0.001)" />

<path d="M17,-4V38H67c0,0,58,0,68,23c0,0,15,32,15,235V587L42,580v31c0,0,53,26,108,55v95c0,0,0,72,19,118c0,0,20,45,80,107c0,0,80,83,124,109c0,0,29,17,73,17c0,0,29,0,65,-10c0,0,-2,-38,-2,-61c0,0,0,-23,2,-63l-18,-9c0,0,-44,39,-101,39c0,0,-63,0,-90,-43c0,0,-26,-42,-26,-207V658c0,0,121,1,198,8l5,-8L467,587l-92,2c0,0,-33,0,-99,-2V296c0,0,0,-209,12,-233c0,0,12,-25,75,-25h65V-4c0,0,-122,4,-175,4L17,-4Z" 
id="f1_22"
transform="scale(0.001,-0.001)" />

<path d="M33,-221l-22,23c0,0,65,100,95,182c0,0,30,80,41,175c0,0,86,21,152,47l21,-22C320,184,277,80,228,-2c0,0,-50,-84,-132,-187L33,-221Z" 
id="f1_g"
transform="scale(0.001,-0.001)" />

<path d="M128,-430c0,0,-21,0,-44,7c0,0,-23,6,-46,19l34,117H90c0,0,20,-25,40,-37c0,0,20,-12,41,-12c0,0,47,0,85,45c0,0,38,44,117,249c0,0,-33,86,-131,329L173,458L117,589c0,0,-26,69,-78,69H9v43c0,0,77,-5,137,-5c0,0,46,0,215,5V658H306c0,0,-28,0,-41,-10c0,0,-13,-9,-13,-24c0,0,0,-11,14,-51c0,0,75,-207,177,-444c0,0,99,217,172,418c0,0,22,59,22,71c0,0,0,24,-51,32l-55,8v43c0,0,88,-5,157,-5c0,0,65,0,130,5V658H792c0,0,-17,0,-35,-10c0,0,-18,-10,-29,-28c0,0,-24,-38,-138,-290c0,0,-32,-69,-160,-374c0,0,-114,-259,-128,-284c0,0,-30,-49,-75,-76c0,0,-46,-26,-99,-26Z" 
id="f1_2l"
transform="scale(0.001,-0.001)" />

<path d="M450,58c0,0,109,0,168,87c0,0,60,87,60,211c0,0,0,130,-58,198c0,0,-57,68,-155,68c0,0,-65,0,-119,-37c0,0,-53,-38,-74,-87c0,0,-7,-20,-7,-90V239c0,0,0,-81,6,-93c0,0,12,-24,64,-56c0,0,53,-32,115,-32ZM403,-19c0,0,-56,0,-100,15c0,0,-45,14,-93,51L150,-8L124,1c0,0,15,115,15,242V717c0,0,0,110,-7,225c0,0,-3,53,-12,62c0,0,-10,10,-44,10H12v42c0,0,64,7,134,22c0,0,47,9,101,30c0,0,8,4,14,4c0,0,16,0,16,-29l-4,-37c0,0,-5,-43,-6,-64c0,0,-2,-96,-2,-263V561l91,91c0,0,29,29,76,46c0,0,48,18,101,18c0,0,120,0,198,-83c0,0,77,-83,77,-220c0,0,0,-75,-27,-146c0,0,-27,-71,-66,-115c0,0,-18,-21,-100,-80C615,72,534,12,510,1c0,0,-45,-20,-107,-20Z" 
id="f1_1y"
transform="scale(0.001,-0.001)" />

<path d="M313,-11c0,0,-63,215,-142,469L123,607c0,0,-9,25,-28,38c0,0,-19,13,-44,13H14v43c0,0,118,-5,182,-5c0,0,62,0,183,5V658H338c0,0,-46,0,-63,-10c0,0,-13,-8,-13,-24c0,0,0,-37,127,-462L550,514c0,0,37,82,84,200h37c0,0,32,-91,66,-175L891,149l114,306c0,0,33,90,43,135c0,0,3,19,3,30c0,0,0,17,-15,28c0,0,-15,10,-47,10H939v43c0,0,98,-5,174,-5c0,0,66,0,127,5V658h-34c0,0,-26,0,-49,-26c0,0,-23,-27,-129,-274c0,0,-88,-207,-137,-369H818c0,0,-33,92,-109,282L614,511C614,511,510,290,446,138c0,0,-29,-68,-57,-149Z" 
id="f1_2j"
transform="scale(0.001,-0.001)" />

<path d="M380,-19c0,0,-110,0,-187,41c0,0,-76,42,-118,121c0,0,-42,79,-42,188c0,0,0,96,32,167c0,0,32,71,90,111c0,0,58,40,145,79c0,0,61,28,137,28c0,0,57,0,99,-10c0,0,41,-9,89,-33c0,0,-19,-99,-21,-198H557v38c0,0,0,47,-13,67c0,0,-14,20,-63,39c0,0,-50,20,-108,20c0,0,-101,0,-155,-62c0,0,-55,-61,-55,-183c0,0,0,-157,81,-251c0,0,72,-85,187,-85c0,0,44,0,88,11c0,0,43,11,86,32L625,83L594,35C594,35,543,8,490,-5c0,0,-54,-14,-110,-14Z" 
id="f1_1z"
transform="scale(0.001,-0.001)" />

<path d="M24,-4V42H58c0,0,31,0,50,18c0,0,19,18,164,218L451,527L339,713c0,0,-106,178,-172,241c0,0,-37,35,-77,35c0,0,-14,0,-47,-4v47l219,35c0,0,37,-30,63,-63c0,0,26,-33,90,-143L543,646l278,410H977v-46H948c0,0,-31,0,-48,-10c0,0,-16,-10,-101,-118C799,882,639,677,576,588L821,193c0,0,75,-120,93,-136c0,0,17,-15,50,-15h31V-4c0,0,-86,4,-132,4c0,0,-45,0,-92,-4L486,468c0,0,-56,-81,-161,-244C325,224,219,61,184,-4c0,0,-36,4,-70,4C114,0,73,0,24,-4Z" 
id="f1_1o"
transform="scale(0.001,-0.001)" />

<path d="M33,-4V39c0,0,80,89,190,235L561,722c0,0,137,182,195,264c0,0,-108,5,-187,5c0,0,-134,0,-288,-11c0,0,-67,-5,-79,-16c0,0,-12,-11,-17,-67l-7,-88H129c0,0,5,81,5,125c0,0,0,44,-5,123l93,1l584,-6c0,0,95,0,158,5v-46c0,0,-75,-84,-119,-140L607,557L235,65H560c0,0,202,0,265,5c0,0,36,4,52,21c0,0,16,18,23,87l9,85h55c0,0,-15,-117,-15,-227V-4H811c0,0,-42,0,-180,3c0,0,-147,1,-274,1C357,0,147,0,33,-4Z" 
id="f1_1q"
transform="scale(0.001,-0.001)" />

<path d="M306,-4V42h64c0,0,63,0,76,26c0,0,13,26,13,235c0,0,0,61,-4,134c0,0,-97,176,-178,305c0,0,-81,129,-137,188c0,0,-31,33,-53,43c0,0,-23,11,-77,11v47c0,0,31,6,120,24l59,12c0,0,34,-13,55,-32c0,0,38,-35,115,-161c0,0,59,-96,195,-354c0,0,46,69,144,239l171,297H985v-19c0,0,-91,-102,-224,-308C761,729,629,523,603,453c0,0,-9,-25,-9,-126c0,0,0,-135,7,-213c0,0,5,-43,16,-51c0,0,10,-9,76,-15l57,-6V-4c0,0,-130,4,-203,4L306,-4Z" 
id="f1_1p"
transform="scale(0.001,-0.001)" />

<path d="M42,297L32,308c0,0,23,56,38,108c0,0,109,-5,181,-5c0,0,60,0,220,5l6,-12c0,0,-25,-56,-37,-107c0,0,-102,7,-188,7c0,0,-96,0,-210,-7Z" 
id="f1_h"
transform="scale(0.001,-0.001)" />

<path d="M34,-4V42H80c0,0,78,0,93,27c0,0,14,26,14,242V761c0,0,0,195,-15,222c0,0,-14,26,-83,26H34v47c0,0,123,-5,229,-5c0,0,106,0,207,5v-47H438c0,0,-69,0,-85,-11c0,0,-17,-11,-20,-37c0,0,-6,-41,-6,-199V592c0,0,132,-5,338,-5c0,0,174,0,282,5V737c0,0,0,128,-8,215c0,0,-3,30,-21,44c0,0,-17,13,-69,13H795v47c0,0,114,-5,216,-5c0,0,110,0,229,5v-47h-57c0,0,-57,0,-73,-13c0,0,-16,-12,-19,-46c0,0,-4,-34,-4,-214V324c0,0,0,-229,13,-255c0,0,13,-27,82,-27h58V-4c0,0,-103,4,-212,4c0,0,-125,0,-233,-4V42h51c0,0,57,0,73,13c0,0,17,13,20,49c0,0,8,77,8,225V523c0,0,-105,5,-268,5c0,0,-233,0,-352,-5V314c0,0,0,-53,3,-126c0,0,5,-102,8,-113c0,0,3,-10,21,-22c0,0,19,-11,61,-11h50V-4c0,0,-96,4,-186,4C284,0,196,0,34,-4Z" 
id="f1_18"
transform="scale(0.001,-0.001)" />

<path d="M377,-11c0,0,-98,245,-200,477c0,0,-39,85,-47,109c0,0,-16,48,-37,66c0,0,-20,17,-52,17H16v43c0,0,110,-5,183,-5c0,0,78,0,171,5V658H337c0,0,-45,0,-64,-10c0,0,-13,-7,-13,-22c0,0,0,-13,14,-52c0,0,13,-38,180,-451L588,445c0,0,45,112,56,156c0,0,3,11,3,20c0,0,0,14,-10,21c0,0,-10,6,-50,11l-48,5v43c0,0,77,-5,137,-5c0,0,70,0,150,5V658H803c0,0,-17,0,-33,-7c0,0,-12,-5,-20,-13c0,0,-7,-8,-54,-104c0,0,-84,-174,-128,-274c0,0,-45,-101,-114,-271Z" 
id="f1_2i"
transform="scale(0.001,-0.001)" />

<path d="M-25,-429l-23,1l-16,52c0,0,25,-4,39,-4c0,0,34,0,57,16c0,0,36,26,55,79c0,0,20,53,26,239c0,0,5,184,5,396c0,0,0,224,-8,245c0,0,-8,20,-61,20H-3v43c0,0,102,11,185,39l65,23c0,0,12,0,12,-15l-1,-15c0,0,-2,-13,-6,-109c0,0,-10,-196,-10,-327L244,62c0,0,0,-196,-34,-292c0,0,-34,-95,-101,-147c0,0,-66,-52,-134,-52ZM176,881c0,0,-35,0,-60,25c0,0,-25,24,-25,59c0,0,0,35,25,60c0,0,25,25,60,25c0,0,35,0,59,-25c0,0,25,-25,25,-60c0,0,0,-35,-25,-59c0,0,-24,-25,-59,-25Z" 
id="f1_26"
transform="scale(0.001,-0.001)" />

<path d="M443,-410c0,0,-126,125,-192,236c0,0,-66,111,-102,245c0,0,-37,134,-37,284c0,0,0,172,48,318c0,0,47,146,118,247c0,0,72,101,170,192l32,-41c0,0,-87,-103,-136,-204c0,0,-50,-100,-76,-219c0,0,-25,-120,-25,-275c0,0,0,-165,23,-291c0,0,24,-125,69,-222c0,0,44,-97,145,-233l-37,-37Z" 
id="f1_c"
transform="scale(0.001,-0.001)" />

<path d="M600,-22c0,0,-38,26,-64,59c0,0,-17,21,-165,244c0,0,-70,-86,-108,-139c0,0,-38,-53,-96,-146c0,0,-31,4,-57,4C110,0,83,0,37,-4V41c0,0,38,0,52,7c0,0,13,6,73,73c0,0,86,96,174,207c0,0,-138,206,-179,242c0,0,-41,35,-87,35c0,0,-13,0,-33,-2v40l143,70c0,0,47,-19,77,-54c0,0,50,-55,159,-234c0,0,98,129,198,276c0,0,29,-5,49,-5c0,0,15,0,65,5V658c0,0,-40,-2,-65,-24c0,0,-40,-35,-214,-252c0,0,101,-149,169,-237c0,0,46,-61,74,-76c0,0,18,-10,57,-10V16C749,16,680,0,600,-22Z" 
id="f1_2k"
transform="scale(0.001,-0.001)" />

<path d="M127,-4V44l58,2c0,0,101,3,121,29c0,0,20,25,19,204l5,414c0,0,0,207,-4,228c0,0,-3,13,-14,13c0,0,-7,0,-34,-12c0,0,-127,-55,-174,-82c0,0,-33,-19,-39,-19c0,0,-9,0,-11,12l-5,73c0,0,235,70,401,157l21,-10l-3,-84L461,539L456,245c0,0,0,-105,9,-140c0,0,9,-34,28,-46c0,0,20,-11,95,-13l68,-2V-4c0,0,-187,4,-266,4c0,0,-90,0,-263,-4Z" 
id="f1_l"
transform="scale(0.001,-0.001)" />

<path d="M39,-4L32,31c0,0,72,78,196,230c0,0,168,207,300,384c0,0,-187,0,-281,-6c0,0,-65,-4,-75,-13c0,0,-11,-10,-19,-64L143,499H100c0,0,8,72,8,126l-1,70l6,6c0,0,228,-5,346,-5c0,0,124,0,245,5V660c0,0,-39,-42,-76,-88L511,426c0,0,-74,-91,-288,-371l95,-2c0,0,155,0,269,10c0,0,44,5,56,18c0,0,13,14,26,92l9,45h44C722,218,703,79,704,3c0,0,-51,-5,-114,-5L319,0C319,0,153,0,39,-4Z" 
id="f1_2m"
transform="scale(0.001,-0.001)" />

<path d="M61,-410l-32,41c0,0,87,103,136,203c0,0,50,101,76,219c0,0,26,120,26,275c0,0,0,165,-24,291c0,0,-25,127,-69,224c0,0,-45,97,-145,231l38,38c0,0,124,-124,191,-236c0,0,66,-111,103,-246c0,0,36,-134,36,-284c0,0,0,-172,-47,-317c0,0,-47,-145,-119,-246c0,0,-72,-101,-170,-193Z" 
id="f1_d"
transform="scale(0.001,-0.001)" />

<path d="M30,-4V37L289,305c0,0,147,152,197,247c0,0,49,95,49,176c0,0,0,101,-58,161c0,0,-58,60,-153,60c0,0,-63,0,-113,-22c0,0,-37,-16,-53,-41c0,0,-15,-25,-46,-139H67c0,0,23,146,25,211c0,0,56,59,121,86c0,0,65,27,147,27c0,0,144,0,230,-82c0,0,85,-82,85,-214c0,0,0,-115,-77,-225c0,0,-77,-111,-259,-278L194,123H466c0,0,174,0,260,11l8,-7c0,0,-7,-42,-7,-60c0,0,0,-14,7,-67l-8,-4c0,0,-148,4,-328,4C398,0,209,0,30,-4Z" 
id="f1_m"
transform="scale(0.001,-0.001)" />

<path d="M192,-19c0,0,-37,0,-63,25c0,0,-25,26,-25,62c0,0,0,37,25,62c0,0,26,25,63,25c0,0,36,0,61,-25c0,0,26,-25,26,-62c0,0,0,-36,-26,-62c0,0,-25,-25,-61,-25Zm0,545c0,0,-37,0,-63,26c0,0,-25,25,-25,61c0,0,0,37,25,63c0,0,26,25,63,25c0,0,36,0,61,-25c0,0,26,-26,26,-63c0,0,0,-36,-26,-61c0,0,-25,-26,-61,-26Z" 
id="f1_u"
transform="scale(0.001,-0.001)" />

<path d="M46,-4V42H93c0,0,69,0,83,34c0,0,14,33,14,321V650c0,0,0,298,-12,329c0,0,-12,30,-72,30H46v47c0,0,124,-5,245,-5c0,0,100,0,182,5v-47H416c0,0,-54,0,-67,-13c0,0,-13,-12,-16,-64c0,0,-3,-79,-3,-284V391c0,0,0,-290,12,-319c0,0,13,-30,82,-30h49V-4c0,0,-91,4,-200,4C273,0,147,0,46,-4Z" 
id="f1_19"
transform="scale(0.001,-0.001)" />

<path d="M59,297L49,308c0,0,22,58,37,108c0,0,111,-5,267,-5c0,0,209,0,355,5l7,-12c0,0,-25,-55,-38,-107c0,0,-102,7,-277,7c0,0,-228,0,-341,-7Z" 
id="f2_4z"
transform="scale(0.001,-0.001)" />

<path d="M670,-19c0,0,-195,0,-330,68c0,0,-135,69,-208,193c0,0,-72,125,-72,286c0,0,0,232,164,380c0,0,164,148,454,148c0,0,96,0,190,-17c0,0,94,-17,188,-52l5,-11c0,0,-14,-41,-19,-78c0,0,-10,-65,-15,-161H964c0,0,-4,118,-9,130c0,0,-4,11,-41,39c0,0,-36,28,-98,45c0,0,-63,18,-138,18c0,0,-179,0,-284,-110C394,859,288,748,288,551c0,0,0,-213,127,-345C415,206,532,83,737,83c0,0,79,0,148,17c0,0,69,16,152,57l19,-17c0,0,-19,-38,-34,-76C1022,64,935,18,855,0c0,0,-80,-19,-185,-19Z" 
id="f3_13"
transform="scale(0.001,-0.001)" />

<path d="M328,113c0,0,58,0,120,67V362c0,0,-131,-29,-170,-62c0,0,-39,-33,-39,-89c0,0,0,-45,25,-71c0,0,25,-27,64,-27ZM219,-20c0,0,-79,0,-122,46C97,26,54,73,54,163c0,0,0,111,59,157c0,0,75,59,335,106c0,0,-2,89,-31,128c0,0,-40,55,-126,55c0,0,-20,0,-41,-5c0,0,-21,-5,-43,-15L174,509l-52,13l2,34l-1,33l-1,29c0,0,114,71,164,89c0,0,37,14,102,14c0,0,88,0,143,-27c0,0,55,-26,80,-72c0,0,26,-46,26,-133c0,0,0,-36,-3,-131c0,0,-3,-97,-3,-156c0,0,0,-93,5,-113c0,0,3,-12,14,-19c0,0,12,-7,79,-13V-4l-57,3c0,0,-46,1,-91,1c0,0,-71,0,-133,-4l-8,7l8,102L292,-10c0,0,-41,-10,-73,-10Z" 
id="f3_1x"
transform="scale(0.001,-0.001)" />

<path d="M290,-20c0,0,-45,0,-100,11c0,0,-54,9,-118,29L61,33c0,0,8,65,10,204h64c0,0,4,-96,10,-108c0,0,16,-30,61,-53c0,0,45,-23,105,-23c0,0,73,0,109,30c0,0,37,30,37,79c0,0,0,43,-27,68c0,0,-26,24,-112,43c0,0,-130,28,-169,50c0,0,-39,21,-62,63c0,0,-23,41,-23,100c0,0,0,68,34,121c0,0,34,53,99,83c0,0,64,31,170,31c0,0,110,0,205,-36c0,0,-10,-61,-14,-189H500c0,0,-5,80,-13,95c0,0,-11,21,-43,36c0,0,-43,20,-93,20c0,0,-62,0,-97,-28c0,0,-35,-27,-35,-70c0,0,0,-39,31,-62c0,0,32,-24,150,-45c0,0,82,-15,113,-28c0,0,52,-22,80,-65c0,0,27,-43,27,-109c0,0,0,-126,-98,-193c0,0,-97,-67,-232,-67Z" 
id="f3_2f"
transform="scale(0.001,-0.001)" />

<path d="M385,423c0,0,59,0,124,6v35c0,0,0,92,-33,134c0,0,-34,42,-91,42c0,0,-40,0,-69,-19c0,0,-29,-20,-43,-56c0,0,-14,-36,-22,-136c0,0,67,-6,134,-6ZM408,-20c0,0,-162,0,-256,94c0,0,-93,94,-93,265c0,0,0,108,27,179c0,0,23,58,74,96c0,0,51,38,117,72c0,0,67,35,147,35c0,0,122,0,202,-69c0,0,79,-68,79,-219c0,0,0,-19,-3,-57L581,354c0,0,-57,-4,-164,-4H256c0,0,11,-129,77,-194c0,0,65,-65,166,-65c0,0,43,0,85,12c0,0,41,13,82,37l22,-22L654,46C654,46,601,13,539,-3c0,0,-61,-17,-131,-17Z" 
id="f3_21"
transform="scale(0.001,-0.001)" />

<path d="M91,-5L83,3V48l8,9c0,0,143,12,161,20c0,0,14,6,20,19c0,0,10,20,13,147c0,0,6,216,6,382c0,0,0,219,-4,244c0,0,-3,13,-14,13c0,0,-7,0,-21,-6L47,781l-10,6c0,0,-6,55,-15,92l5,11c0,0,281,81,466,156l19,-11c0,0,-9,-104,-14,-283c0,0,-5,-179,-5,-434c0,0,0,-174,10,-216c0,0,4,-20,17,-27c0,0,18,-10,152,-18l9,-9V3l-9,-8l-93,2c0,0,-140,3,-190,3C389,0,252,0,91,-5Z" 
id="f3_l"
transform="scale(0.001,-0.001)" />

<path d="M672,-19c0,0,-183,0,-322,70c0,0,-139,71,-214,196c0,0,-74,125,-74,282c0,0,0,157,75,281c0,0,75,124,213,192c0,0,137,69,338,69c0,0,105,0,246,-35c0,0,70,-16,114,-25c0,0,-34,-79,-39,-225H959l-6,133c0,0,-66,44,-139,66c0,0,-72,21,-151,21c0,0,-202,0,-323,-122C340,884,219,762,219,557c0,0,0,-143,62,-256c0,0,61,-112,174,-178c0,0,114,-65,240,-65c0,0,100,0,197,23c0,0,74,17,147,72l16,-15c0,0,-16,-34,-29,-70C1026,68,939,25,850,3c0,0,-88,-22,-178,-22Z" 
id="f1_13"
transform="scale(0.001,-0.001)" />

<path d="M87,346V450H839V346Zm0,255V705H839V601Z" 
id="f1_x"
transform="scale(0.001,-0.001)" />

<path d="M27,-7V76L181,226c0,0,190,185,245,282c0,0,55,98,55,189c0,0,0,91,-45,139c0,0,-45,49,-122,49c0,0,-58,0,-102,-25c0,0,-43,-26,-54,-51c0,0,-4,-11,-32,-127H64c0,0,24,151,30,264c0,0,58,58,124,84c0,0,66,26,150,26c0,0,148,0,234,-80c0,0,85,-81,85,-207c0,0,0,-103,-67,-206c0,0,-67,-103,-372,-378l5,-10H428c0,0,194,0,300,10l8,-10c0,0,-8,-64,-8,-96c0,0,0,-33,8,-79l-8,-7c0,0,-145,7,-333,7C395,0,256,0,27,-7Z" 
id="f3_m"
transform="scale(0.001,-0.001)" />

<path d="M697,-17c0,0,-44,35,-208,200c0,0,-119,120,-194,186h-9V274c0,0,0,-188,12,-212c0,0,12,-24,75,-24h45V-4l-40,2c0,0,-108,2,-142,2L37,-4V38H81c0,0,58,0,68,22c0,0,10,22,10,213V719c0,0,0,247,-11,277c0,0,-7,18,-58,18H26v43c0,0,63,0,180,31l75,24c0,0,12,0,12,-15l-3,-75c0,0,-2,-28,-4,-312V410l9,-5c0,0,68,51,115,91c0,0,25,21,112,104L629,701H779V658H753c0,0,-26,0,-67,-25c0,0,-82,-48,-268,-203c0,0,140,-146,172,-175c0,0,148,-137,179,-162c0,0,19,-15,32,-21c0,0,13,-5,38,-8V30C839,30,774,1,697,-17Z" 
id="f1_27"
transform="scale(0.001,-0.001)" />

<path d="M104,-4V35c0,0,39,18,72,42c0,0,15,116,15,489c0,0,0,255,-6,337c0,0,-2,44,-15,56c0,0,-13,12,-110,20v62c0,0,175,-6,277,-6l410,6c0,0,65,0,117,-5l5,-8c0,0,-16,-82,-23,-218H787c0,0,-4,108,-8,116c0,0,-5,7,-34,14c0,0,-62,13,-190,13c0,0,-63,0,-146,-5c0,0,-10,-230,-11,-367c0,0,80,-5,150,-5c0,0,103,0,124,7c0,0,12,4,18,21c0,0,4,14,10,94h65c0,0,-4,-126,-4,-164l4,-168H700c0,0,-5,98,-13,113c0,0,-5,9,-20,12c0,0,-38,9,-168,9c0,0,-41,0,-96,-5c0,0,-2,-40,-2,-81c0,0,0,-212,8,-327L556,85c0,0,127,0,231,14c0,0,19,69,36,156h62C885,255,867,122,864,0c0,0,-67,-4,-130,-4c0,0,-41,0,-161,3c0,0,-113,1,-207,1C366,0,241,0,104,-4Z" 
id="f3_15"
transform="scale(0.001,-0.001)" />

<path d="M549,-28c0,0,-36,23,-60,51c0,0,-30,39,-143,223C346,246,236,100,173,-4c0,0,-59,4,-83,4C90,0,62,0,21,-4V57c0,0,56,6,78,21c0,0,33,24,121,137l79,101c0,0,-112,171,-179,231c0,0,-35,31,-79,31L21,577v48c0,0,53,27,129,82c0,0,21,14,33,14c0,0,33,0,82,-37c0,0,32,-24,88,-107L424,471c0,0,82,104,163,233c0,0,32,-5,62,-5c0,0,40,0,84,5V643c0,0,-41,-4,-61,-14c0,0,-19,-10,-50,-46L469,404L549,285c0,0,98,-147,125,-171c0,0,27,-24,70,-27V40c0,0,-80,-28,-172,-68Z" 
id="f3_2k"
transform="scale(0.001,-0.001)" />

<path d="M46,-4V57c0,0,77,3,88,10c0,0,11,7,14,26c0,0,6,36,6,173c0,0,0,287,-8,311c0,0,-6,20,-52,21l-48,1v58c0,0,92,10,156,24c0,0,65,15,117,36c0,0,11,4,16,4c0,0,10,0,10,-19c0,0,0,-14,-2,-38c0,0,-1,-11,-1,-37V600l122,92c0,0,39,29,118,29c0,0,80,0,126,-31c0,0,47,-31,72,-99L907,692c0,0,36,29,102,29c0,0,117,0,173,-58c0,0,55,-57,55,-187l-2,-62c0,0,-3,-103,-3,-183c0,0,0,-107,7,-138c0,0,4,-18,15,-25c0,0,11,-7,85,-11V-4c0,0,-93,4,-162,4c0,0,-67,0,-139,-4l-9,13c0,0,19,161,19,314c0,0,0,181,-28,226c0,0,-28,46,-99,46c0,0,-47,0,-82,-24c0,0,-35,-23,-46,-53c0,0,-8,-21,-8,-130c0,0,0,-198,5,-273c0,0,3,-34,14,-43c0,0,12,-9,96,-15V-4c0,0,-98,4,-192,4C708,0,591,0,498,-4V57c0,0,73,0,86,21c0,0,12,21,12,187c0,0,0,189,-7,235c0,0,-7,47,-36,71c0,0,-29,24,-80,24c0,0,-37,0,-67,-18c0,0,-31,-17,-52,-48c0,0,-12,-17,-12,-53l1,-29c0,0,2,-21,2,-117l-1,-88c0,0,0,-127,5,-150c0,0,2,-15,12,-22c0,0,10,-7,82,-13V-4c0,0,-89,4,-196,4C247,0,210,0,46,-4Z" 
id="f3_29"
transform="scale(0.001,-0.001)" />

<path d="M500,72c0,0,77,0,126,66c0,0,49,66,49,212c0,0,0,118,-50,179c0,0,-50,61,-128,61c0,0,-39,0,-78,-19c0,0,-39,-19,-78,-56V158c0,0,34,-42,73,-64c0,0,40,-22,86,-22ZM39,-384v61c0,0,79,3,91,9c0,0,7,5,11,14c0,0,7,18,10,153c0,0,4,188,4,281l-1,296c0,0,-1,130,-8,149c0,0,-4,9,-11,14c0,0,-14,6,-96,6v58c0,0,131,11,217,35l80,25c0,0,10,0,10,-18c0,0,0,-14,-3,-40l-2,-69l121,96c0,0,38,31,127,31c0,0,126,0,202,-78c0,0,76,-78,76,-210c0,0,0,-67,-19,-131c0,0,-19,-64,-45,-102c0,0,-26,-38,-92,-89C711,107,599,17,577,4c0,0,-42,-24,-102,-24c0,0,-34,0,-67,9c0,0,-34,8,-67,23l3,-225c0,0,3,-82,17,-96c0,0,15,-14,111,-14v-61c0,0,-115,5,-201,5c0,0,-165,0,-232,-5Z" 
id="f3_2c"
transform="scale(0.001,-0.001)" />

<path d="M42,-4V57l55,3c0,0,38,1,48,14c0,0,11,12,14,93c0,0,3,113,3,321V806c0,0,-1,146,-9,165c0,0,-3,9,-11,13c0,0,-13,8,-100,11v43c0,0,106,15,167,29c0,0,61,15,131,43l20,-17c0,0,-11,-266,-11,-744c0,0,0,-96,3,-195c0,0,1,-62,7,-72c0,0,6,-10,18,-16c0,0,12,-6,88,-9V-4l-78,3c0,0,-73,1,-122,1L42,-4Z" 
id="f3_28"
transform="scale(0.001,-0.001)" />

<path d="M191,-20c0,0,-49,0,-84,34c0,0,-36,36,-36,85c0,0,0,49,35,84c0,0,35,35,85,35c0,0,49,0,84,-35c0,0,35,-34,35,-84c0,0,0,-49,-35,-84c0,0,-35,-35,-84,-35Zm0,502c0,0,-49,0,-84,35c0,0,-36,35,-36,85c0,0,0,49,35,84c0,0,35,35,85,35c0,0,49,0,84,-35c0,0,35,-35,35,-84c0,0,0,-50,-35,-85c0,0,-35,-35,-84,-35Z" 
id="f3_u"
transform="scale(0.001,-0.001)" />

<path d="M28,-4V42H88c0,0,64,0,78,25c0,0,15,24,15,179V809c0,0,0,151,-16,176c0,0,-16,24,-83,24H28v47c0,0,124,-5,223,-5l429,8c0,0,67,0,127,-7c0,0,-24,-79,-27,-225H732c0,0,-4,77,-18,139c0,0,-102,26,-206,26c0,0,-91,0,-178,-9c0,0,-9,-97,-9,-176V569c0,0,45,-2,88,-2c0,0,112,0,196,6c0,0,29,2,39,12c0,0,10,11,16,58l8,57h47c0,0,-6,-136,-6,-175l1,-176H661v57c0,0,0,69,-26,84c0,0,-26,15,-201,15c0,0,-47,0,-113,-2V246c0,0,0,-153,16,-178c0,0,16,-26,83,-26h53V-4c0,0,-141,4,-225,4C248,0,163,0,28,-4Z" 
id="f1_16"
transform="scale(0.001,-0.001)" />

<path d="M264,-19c0,0,-46,0,-92,10c0,0,-45,9,-91,28c0,0,-15,91,-60,224l41,17c0,0,47,-108,75,-142c0,0,29,-33,76,-53c0,0,46,-20,111,-20c0,0,112,0,175,69c0,0,63,69,63,193c0,0,0,105,-54,162c0,0,-53,58,-140,58c0,0,-67,0,-142,-38l-10,7l14,86c0,0,39,-5,59,-5c0,0,91,0,149,57c0,0,58,56,58,148c0,0,0,83,-50,134c0,0,-51,50,-133,50c0,0,-54,0,-103,-23c0,0,-50,-24,-74,-54c0,0,-10,-13,-25,-60L93,776H47L87,959c0,0,48,56,113,84c0,0,65,28,148,28c0,0,126,0,199,-65c0,0,73,-65,73,-160c0,0,0,-65,-31,-120c0,0,-32,-56,-128,-135c0,0,48,0,98,-19c0,0,70,-26,106,-79c0,0,36,-52,36,-126c0,0,0,-150,-129,-268C572,99,443,-19,264,-19Z" 
id="f1_n"
transform="scale(0.001,-0.001)" />

<path d="M254,367c0,0,63,0,168,3V902C422,902,259,665,100,370c0,0,86,-3,154,-3ZM235,-4V38l80,5c0,0,67,3,80,12c0,0,14,9,18,33c0,0,9,40,9,149v39c0,0,-288,0,-407,-8L2,313c0,0,120,212,196,335c0,0,75,124,236,374c0,0,40,11,103,41l21,-9c0,0,-4,-87,-5,-302V370c0,0,96,0,166,8c0,0,-4,-35,-4,-49c0,0,0,-10,5,-61c0,0,-80,8,-167,8c0,0,0,-183,12,-206c0,0,12,-23,79,-27l77,-5V-4c0,0,-142,4,-243,4c0,0,-40,0,-243,-4Z" 
id="f1_o"
transform="scale(0.001,-0.001)" />

<path d="M256,-19c0,0,-47,0,-81,9c0,0,-34,9,-79,32C96,22,83,65,74,91L18,224l38,22L74,213c0,0,51,-91,67,-107c0,0,22,-21,66,-36c0,0,45,-15,103,-15c0,0,125,0,194,72c0,0,70,73,70,209c0,0,0,119,-64,187c0,0,-65,69,-171,69c0,0,-61,0,-110,-24c0,0,-48,-24,-85,-75l-33,11c0,0,11,130,11,331c0,0,0,126,-11,219l13,8c0,0,117,-11,241,-11c0,0,149,0,286,11l9,-8c0,0,-7,-37,-7,-58c0,0,0,-19,7,-60l-9,-8c0,0,-85,5,-163,5c0,0,-157,0,-299,-5c0,0,-7,-57,-12,-311c0,0,55,44,105,61c0,0,50,18,114,18c0,0,139,0,224,-83c0,0,84,-83,84,-215c0,0,0,-167,-133,-292C571,106,438,-19,256,-19Z" 
id="f1_p"
transform="scale(0.001,-0.001)" />

<path d="M409,-19c0,0,-94,0,-170,18c0,0,-76,17,-157,58c0,0,13,52,18,95c0,0,6,59,7,159h65c0,0,1,-111,7,-130c0,0,7,-19,43,-50c0,0,37,-31,95,-50c0,0,58,-19,119,-19c0,0,105,0,168,56c0,0,63,55,63,139c0,0,0,77,-42,118c0,0,-42,41,-161,58c0,0,-176,25,-237,55c0,0,-61,30,-97,90c0,0,-35,59,-35,143c0,0,0,140,98,238c0,0,99,97,316,97c0,0,84,0,150,-13c0,0,66,-12,132,-42l8,-17c0,0,-12,-47,-17,-86c0,0,-5,-38,-9,-131H709c0,0,-4,115,-11,129c0,0,-14,24,-72,52c0,0,-58,27,-132,27c0,0,-102,0,-158,-50c0,0,-56,-49,-56,-128c0,0,0,-47,23,-83c0,0,23,-35,64,-52c0,0,42,-17,178,-38c0,0,124,-19,168,-37c0,0,72,-29,109,-89c0,0,37,-59,37,-150c0,0,0,-158,-120,-263C739,85,618,-19,409,-19Z" 
id="f3_1j"
transform="scale(0.001,-0.001)" />

<path d="M437,53c0,0,69,0,107,55c0,0,38,55,38,201c0,0,0,200,-46,277c0,0,-38,61,-119,61c0,0,-69,0,-109,-56c0,0,-40,-56,-40,-190c0,0,0,-199,51,-283c0,0,39,-65,118,-65ZM415,-20c0,0,-173,0,-263,94c0,0,-90,95,-90,276c0,0,0,177,82,265c0,0,99,106,286,106c0,0,187,0,272,-85c0,0,86,-84,86,-266c0,0,0,-188,-99,-289C689,81,591,-20,415,-20Z" 
id="f3_2b"
transform="scale(0.001,-0.001)" />

<path d="M357,-20c0,0,-68,0,-119,27c0,0,-51,28,-75,72c0,0,-24,44,-24,125l1,81c0,0,3,76,3,123c0,0,0,132,-6,159c0,0,-3,17,-15,24c0,0,-12,7,-93,8v58c0,0,120,11,223,42l74,27c0,0,13,0,13,-18l-3,-44c0,0,-12,-171,-12,-331c0,0,0,-103,10,-137c0,0,10,-34,38,-52c0,0,27,-19,72,-19c0,0,53,0,93,29c0,0,40,29,49,64c0,0,9,35,9,200c0,0,0,132,-4,155c0,0,-3,11,-10,16c0,0,-12,6,-102,10v58c0,0,153,17,224,40l79,29c0,0,13,0,13,-16l-2,-20c0,0,-12,-130,-12,-471c0,0,0,-105,6,-132c0,0,4,-12,12,-18c0,0,12,-6,94,-12V-4c0,0,-86,4,-170,4c0,0,-68,0,-127,-4L590,9c0,0,3,37,5,117C595,126,526,70,461,3c0,0,-52,-23,-104,-23Z" 
id="f3_2h"
transform="scale(0.001,-0.001)" />

<path d="M294,-20c0,0,-63,0,-105,21c0,0,-42,22,-61,56c0,0,-19,34,-19,102c0,0,0,36,3,188c0,0,4,134,4,211l-38,2c0,0,-23,0,-60,-5v39l98,65c0,0,-1,132,-7,231c0,0,102,31,192,76l23,-17c0,0,-17,-108,-23,-290c0,0,34,-6,68,-6c0,0,76,0,137,10l6,-5l-6,-26c0,0,-12,-42,-17,-77c0,0,-87,6,-128,6c0,0,-31,0,-60,-3c0,0,-1,-75,-1,-132c0,0,0,-251,15,-285c0,0,14,-34,70,-34c0,0,17,0,36,3c0,0,19,4,41,11L474,92c0,0,-45,-50,-87,-103c0,0,-28,-4,-51,-6c0,0,-23,-3,-42,-3Z" 
id="f3_2g"
transform="scale(0.001,-0.001)" />

<path d="M47,-4V57c0,0,84,3,97,10c0,0,13,8,17,42c0,0,6,47,6,207c0,0,0,70,-2,129l-2,87c0,0,0,43,-10,54c0,0,-9,10,-50,11l-56,2v58c0,0,180,14,296,64l19,-15c0,0,-11,-143,-11,-416c0,0,0,-157,5,-190c0,0,4,-23,14,-30c0,0,10,-7,97,-13V-4c0,0,-134,4,-208,4C259,0,220,0,47,-4ZM254,845c0,0,-47,0,-81,34c0,0,-34,34,-34,81c0,0,0,49,34,83c0,0,34,34,82,34c0,0,48,0,82,-34c0,0,34,-34,34,-83c0,0,0,-47,-34,-81c0,0,-34,-34,-83,-34Z" 
id="f3_25"
transform="scale(0.001,-0.001)" />

<path d="M43,-4V57c0,0,81,4,91,13c0,0,10,8,13,38c0,0,5,76,5,266c0,0,0,94,-3,162c0,0,-2,42,-6,49c0,0,-4,6,-12,9c0,0,-8,3,-88,5v58c0,0,40,0,126,17c0,0,85,17,144,40l20,7c0,0,10,0,10,-18l-1,-6c0,0,-2,-21,-2,-107l115,96c0,0,22,19,45,26c0,0,33,9,80,9c0,0,78,0,129,-28c0,0,50,-27,73,-75c0,0,24,-48,24,-150c0,0,0,-45,-2,-104c0,0,-4,-121,-4,-209c0,0,0,-50,8,-69c0,0,6,-14,17,-18c0,0,11,-5,81,-11V-4l-91,3L756,0L602,-4l-8,9c0,0,19,142,19,291c0,0,0,190,-23,234c0,0,-30,57,-109,57c0,0,-50,0,-87,-26c0,0,-37,-26,-49,-55c0,0,-5,-12,-5,-76c0,0,0,-270,2,-309c0,0,3,-40,13,-49c0,0,13,-11,100,-15V-4c0,0,-130,4,-219,4C236,0,183,0,43,-4Z" 
id="f3_2a"
transform="scale(0.001,-0.001)" />

<path d="M435,92c0,0,86,0,147,69c0,0,60,68,60,186c0,0,0,114,-60,179c0,0,-60,66,-152,66c0,0,-91,0,-154,-66c0,0,-64,-65,-64,-171c0,0,0,-70,30,-133c0,0,29,-64,82,-97c0,0,52,-33,111,-33Zm3,-110c0,0,-168,0,-274,123C164,105,58,228,58,512c0,0,0,317,117,461c0,0,102,125,275,125c0,0,129,0,212,-72c0,0,82,-72,99,-200L627,815c0,0,-18,79,-51,115c0,0,-54,58,-134,58c0,0,-64,0,-113,-36c0,0,-63,-46,-99,-135c0,0,-37,-89,-38,-253c0,0,48,74,118,110c0,0,70,36,147,36c0,0,135,0,229,-99c0,0,94,-99,94,-256c0,0,0,-103,-44,-191C736,164,691,75,614,28c0,0,-78,-46,-176,-46Z" 
id="f4_q"
transform="scale(0.001,-0.001)" />


</defs>
</svg>