<?xml version="1.0" encoding="UTF-8" standalone="no"?>
<!DOCTYPE svg PUBLIC "-//W3C//DTD SVG 1.1//EN"
"http://www.w3.org/Graphics/SVG/1.1/DTD/svg11.dtd">
<svg viewBox="0 0 909 1286" version="1.1" xmlns="http://www.w3.org/2000/svg" xmlns:xlink="http://www.w3.org/1999/xlink">
<defs>
<style type="text/css"><![CDATA[
.g0_61{
fill: #FFFFFF;
}
.g1_61{
fill: #ED7D31;
}
.g2_61{
}
]]></style>
</defs>
<path fill-rule="evenodd" d="M52.8,113.7H856.9V74.5H52.8v39.2Z" class="g0_61" />
<g fill="#000000" >
<use xlink:href="#f0_16" transform="matrix(12,0,0,12,55,96.8)" />
<use xlink:href="#f0_25" transform="matrix(12,0,0,12,65.3,96.8)" />
<use xlink:href="#f0_2a" transform="matrix(12,0,0,12,70.8,96.8)" />
<use xlink:href="#f0_20" transform="matrix(12,0,0,12,81.4,96.8)" />
<use xlink:href="#f0_2g" transform="matrix(12,0,0,12,97.1,96.8)" />
<use xlink:href="#f0_24" transform="matrix(12,0,0,12,103,96.8)" />
<use xlink:href="#f0_21" transform="matrix(12,0,0,12,113.7,96.8)" />
<use xlink:href="#f0_20" transform="matrix(12,0,0,12,127.2,96.8)" />
<use xlink:href="#f0_25" transform="matrix(12,0,0,12,138.2,96.8)" />
<use xlink:href="#f0_2f" transform="matrix(12,0,0,12,143.7,96.8)" />
<use xlink:href="#f0_2g" transform="matrix(12,0,0,12,151.4,96.8)" />
<use xlink:href="#f0_1x" transform="matrix(12,0,0,12,157.2,96.8)" />
<use xlink:href="#f0_2a" transform="matrix(12,0,0,12,166.4,96.8)" />
<use xlink:href="#f0_1z" transform="matrix(12,0,0,12,177.1,96.8)" />
<use xlink:href="#f0_21" transform="matrix(12,0,0,12,185.1,96.8)" />
<use xlink:href="#f0_1y" transform="matrix(12,0,0,12,198.7,96.8)" />
<use xlink:href="#f0_21" transform="matrix(12,0,0,12,208.9,96.8)" />
<use xlink:href="#f0_2g" transform="matrix(12,0,0,12,217.7,96.8)" />
<use xlink:href="#f0_2j" transform="matrix(12,0,0,12,223.6,96.8)" />
<use xlink:href="#f0_21" transform="matrix(12,0,0,12,239,96.8)" />
<use xlink:href="#f0_21" transform="matrix(12,0,0,12,247.7,96.8)" />
<use xlink:href="#f0_2a" transform="matrix(12,0,0,12,256.5,96.8)" />
<use xlink:href="#f0_2g" transform="matrix(12,0,0,12,271.9,96.8)" />
<use xlink:href="#f0_24" transform="matrix(12,0,0,12,277.8,96.8)" />
<use xlink:href="#f0_21" transform="matrix(12,0,0,12,288.5,96.8)" />
<use xlink:href="#f0_2c" transform="matrix(12,0,0,12,302,96.8)" />
<use xlink:href="#f0_2b" transform="matrix(12,0,0,12,313,96.8)" />
<use xlink:href="#f0_25" transform="matrix(12,0,0,12,322.5,96.8)" />
<use xlink:href="#f0_2a" transform="matrix(12,0,0,12,328,96.8)" />
<use xlink:href="#f0_2g" transform="matrix(12,0,0,12,338.7,96.8)" />
<use xlink:href="#f0_2f" transform="matrix(12,0,0,12,344.5,96.8)" />
<use xlink:href="#f0_1g" transform="matrix(12,0,0,12,357.3,96.8)" />
<use xlink:href="#f0_c" transform="matrix(12,0,0,12,373,96.8)" />
<use xlink:href="#f0_l" transform="matrix(12,0,0,12,379.3,96.8)" />
<use xlink:href="#f0_g" transform="matrix(12,0,0,12,388.1,96.8)" />
<use xlink:href="#f1_4z" transform="matrix(12,0,0,12,397.6,96.8)" />
<use xlink:href="#f0_n" transform="matrix(12,0,0,12,406.8,96.8)" />
<use xlink:href="#f0_g" transform="matrix(12,0,0,12,415.6,96.8)" />
<use xlink:href="#f0_o" transform="matrix(12,0,0,12,424.7,96.8)" />
<use xlink:href="#f0_d" transform="matrix(12,0,0,12,433.9,96.8)" />
<use xlink:href="#f0_1x" transform="matrix(12,0,0,12,444.9,96.8)" />
<use xlink:href="#f0_2a" transform="matrix(12,0,0,12,454,96.8)" />
<use xlink:href="#f0_20" transform="matrix(12,0,0,12,464.7,96.8)" />
<use xlink:href="#f0_1h" transform="matrix(12,0,0,12,480.4,96.8)" />
<use xlink:href="#f0_c" transform="matrix(12,0,0,12,499.5,96.8)" />
<use xlink:href="#f1_4z" transform="matrix(12,0,0,12,505.8,96.8)" />
<use xlink:href="#f0_o" transform="matrix(12,0,0,12,519.4,96.8)" />
<use xlink:href="#f0_g" transform="matrix(12,0,0,12,528.6,96.8)" />
<use xlink:href="#f0_l" transform="matrix(12,0,0,12,537.7,96.8)" />
<use xlink:href="#f0_g" transform="matrix(12,0,0,12,546.9,96.8)" />
<use xlink:href="#f0_m" transform="matrix(12,0,0,12,556,96.8)" />
<use xlink:href="#f0_d" transform="matrix(12,0,0,12,565.2,96.8)" />
<use xlink:href="#f0_i" transform="matrix(12,0,0,12,571,96.8)" />
</g>
<path fill-rule="evenodd" d="M52.8,152.6H856.9V113.7H52.8v38.9Z" class="g0_61" />
<g fill="#000000" >
<use xlink:href="#f2_1j" transform="matrix(12,0,0,12,55,136.4)" />
<use xlink:href="#f2_2b" transform="matrix(12,0,0,12,66.4,136.4)" />
<use xlink:href="#f2_28" transform="matrix(12,0,0,12,76.6,136.4)" />
<use xlink:href="#f2_2h" transform="matrix(12,0,0,12,82.8,136.4)" />
<use xlink:href="#f2_2g" transform="matrix(12,0,0,12,93.8,136.4)" />
<use xlink:href="#f2_25" transform="matrix(12,0,0,12,100.1,136.4)" />
<use xlink:href="#f2_2b" transform="matrix(12,0,0,12,106.3,136.4)" />
<use xlink:href="#f2_2a" transform="matrix(12,0,0,12,116.2,136.4)" />
<use xlink:href="#f2_u" transform="matrix(12,0,0,12,127.5,136.4)" />
</g>
<path fill-rule="evenodd" d="M52.8,191.4H856.9V152.6H52.8v38.8Z" class="g0_61" />
<g fill="#000000" >
<use xlink:href="#f0_1k" transform="matrix(12,0,0,12,55,174.9)" />
<use xlink:href="#f0_24" transform="matrix(12,0,0,12,66.4,174.9)" />
<use xlink:href="#f0_21" transform="matrix(12,0,0,12,77.1,174.9)" />
<use xlink:href="#f0_20" transform="matrix(12,0,0,12,90.6,174.9)" />
<use xlink:href="#f0_25" transform="matrix(12,0,0,12,101.6,174.9)" />
<use xlink:href="#f0_2f" transform="matrix(12,0,0,12,107,174.9)" />
<use xlink:href="#f0_2g" transform="matrix(12,0,0,12,114.7,174.9)" />
<use xlink:href="#f0_1x" transform="matrix(12,0,0,12,120.6,174.9)" />
<use xlink:href="#f0_2a" transform="matrix(12,0,0,12,129.8,174.9)" />
<use xlink:href="#f0_1z" transform="matrix(12,0,0,12,140.5,174.9)" />
<use xlink:href="#f0_21" transform="matrix(12,0,0,12,148.5,174.9)" />
<use xlink:href="#f0_1g" transform="matrix(12,0,0,12,162,174.9)" />
<use xlink:href="#f0_1h" transform="matrix(12,0,0,12,173,174.9)" />
<use xlink:href="#f0_1y" transform="matrix(12,0,0,12,192.1,174.9)" />
<use xlink:href="#f0_21" transform="matrix(12,0,0,12,202.3,174.9)" />
<use xlink:href="#f0_2g" transform="matrix(12,0,0,12,211.1,174.9)" />
<use xlink:href="#f0_2j" transform="matrix(12,0,0,12,217,174.9)" />
<use xlink:href="#f0_21" transform="matrix(12,0,0,12,232.4,174.9)" />
<use xlink:href="#f0_21" transform="matrix(12,0,0,12,241.2,174.9)" />
<use xlink:href="#f0_2a" transform="matrix(12,0,0,12,249.9,174.9)" />
<use xlink:href="#f0_2g" transform="matrix(12,0,0,12,265.4,174.9)" />
<use xlink:href="#f0_24" transform="matrix(12,0,0,12,271.2,174.9)" />
<use xlink:href="#f0_21" transform="matrix(12,0,0,12,281.9,174.9)" />
<use xlink:href="#f0_2c" transform="matrix(12,0,0,12,295,174.9)" />
<use xlink:href="#f0_2b" transform="matrix(12,0,0,12,306.1,174.9)" />
<use xlink:href="#f0_25" transform="matrix(12,0,0,12,315.9,174.9)" />
<use xlink:href="#f0_2a" transform="matrix(12,0,0,12,321.4,174.9)" />
<use xlink:href="#f0_2g" transform="matrix(12,0,0,12,332.1,174.9)" />
<use xlink:href="#f0_2f" transform="matrix(12,0,0,12,337.9,174.9)" />
<use xlink:href="#f0_1g" transform="matrix(12,0,0,12,350.4,174.9)" />
<use xlink:href="#f0_c" transform="matrix(12,0,0,12,366.1,174.9)" />
<use xlink:href="#f0_l" transform="matrix(12,0,0,12,372.3,174.9)" />
<use xlink:href="#f0_g" transform="matrix(12,0,0,12,381.1,174.9)" />
<use xlink:href="#f1_4z" transform="matrix(12,0,0,12,386.3,174.9)" />
<use xlink:href="#f0_n" transform="matrix(12,0,0,12,395.4,174.9)" />
<use xlink:href="#f0_g" transform="matrix(12,0,0,12,404.6,174.9)" />
<use xlink:href="#f0_o" transform="matrix(12,0,0,12,413.7,174.9)" />
<use xlink:href="#f0_d" transform="matrix(12,0,0,12,422.9,174.9)" />
<use xlink:href="#f0_1x" transform="matrix(12,0,0,12,433.5,174.9)" />
<use xlink:href="#f0_2a" transform="matrix(12,0,0,12,442.7,174.9)" />
<use xlink:href="#f0_20" transform="matrix(12,0,0,12,453.4,174.9)" />
<use xlink:href="#f0_1h" transform="matrix(12,0,0,12,469.4,174.9)" />
<use xlink:href="#f0_c" transform="matrix(12,0,0,12,488.1,174.9)" />
<use xlink:href="#f1_4z" transform="matrix(12,0,0,12,494.5,174.9)" />
<use xlink:href="#f0_o" transform="matrix(12,0,0,12,508.4,174.9)" />
<use xlink:href="#f0_g" transform="matrix(12,0,0,12,517.2,174.9)" />
<use xlink:href="#f0_l" transform="matrix(12,0,0,12,526.7,174.9)" />
<use xlink:href="#f0_g" transform="matrix(12,0,0,12,535.5,174.9)" />
<use xlink:href="#f0_m" transform="matrix(12,0,0,12,545,174.9)" />
<use xlink:href="#f0_d" transform="matrix(12,0,0,12,553.8,174.9)" />
<use xlink:href="#f0_25" transform="matrix(12,0,0,12,564.4,174.9)" />
<use xlink:href="#f0_2f" transform="matrix(12,0,0,12,569.9,174.9)" />
</g>
<path fill-rule="evenodd" d="M52.8,322.4H856.9v-131H52.8v131Z" class="g0_61" />
<path fill-rule="evenodd" d="M52.8,361.3H856.9V322.4H52.8v38.9Z" class="g0_61" />
<g fill="#000000" >
<use xlink:href="#f2_1e" transform="matrix(12,0,0,12,55,345.1)" />
<use xlink:href="#f2_2b" transform="matrix(12,0,0,12,70.4,345.1)" />
<use xlink:href="#f2_2g" transform="matrix(12,0,0,12,80.7,345.1)" />
<use xlink:href="#f2_21" transform="matrix(12,0,0,12,86.9,345.1)" />
<use xlink:href="#f2_u" transform="matrix(12,0,0,12,96,345.1)" />
</g>
<path fill-rule="evenodd" d="M52.8,388.8H856.9V361.3H52.8v27.5Z" class="g0_61" />
<g fill="#000000" >
<use xlink:href="#f3_2b" transform="matrix(12,0,0,12,55,383.6)" />
<use xlink:href="#f0_19" transform="matrix(12,0,0,12,82.5,383.6)" />
<use xlink:href="#f0_22" transform="matrix(12,0,0,12,88.7,383.6)" />
<use xlink:href="#f0_2g" transform="matrix(12,0,0,12,99.7,383.6)" />
<use xlink:href="#f0_24" transform="matrix(12,0,0,12,105.6,383.6)" />
<use xlink:href="#f0_2e" transform="matrix(12,0,0,12,116.3,383.6)" />
<use xlink:href="#f0_21" transform="matrix(12,0,0,12,123.5,383.6)" />
<use xlink:href="#f0_21" transform="matrix(12,0,0,12,132.3,383.6)" />
<use xlink:href="#f0_2c" transform="matrix(12,0,0,12,145.9,383.6)" />
<use xlink:href="#f0_2b" transform="matrix(12,0,0,12,156.9,383.6)" />
<use xlink:href="#f0_25" transform="matrix(12,0,0,12,166.4,383.6)" />
<use xlink:href="#f0_2a" transform="matrix(12,0,0,12,171.9,383.6)" />
<use xlink:href="#f0_2g" transform="matrix(12,0,0,12,182.6,383.6)" />
<use xlink:href="#f0_2f" transform="matrix(12,0,0,12,188.4,383.6)" />
<use xlink:href="#f0_1g" transform="matrix(12,0,0,12,200.9,383.6)" />
<use xlink:href="#f0_g" transform="matrix(12,0,0,12,211.9,383.6)" />
<use xlink:href="#f0_1h" transform="matrix(12,0,0,12,216.6,383.6)" />
<use xlink:href="#f0_g" transform="matrix(12,0,0,12,230.9,383.6)" />
<use xlink:href="#f0_1i" transform="matrix(12,0,0,12,235.7,383.6)" />
<use xlink:href="#f0_1x" transform="matrix(12,0,0,12,252.5,383.6)" />
<use xlink:href="#f0_2e" transform="matrix(12,0,0,12,261.7,383.6)" />
<use xlink:href="#f0_21" transform="matrix(12,0,0,12,269,383.6)" />
<use xlink:href="#f0_1z" transform="matrix(12,0,0,12,282.2,383.6)" />
<use xlink:href="#f0_2b" transform="matrix(12,0,0,12,290.2,383.6)" />
<use xlink:href="#f0_28" transform="matrix(12,0,0,12,300.1,383.6)" />
<use xlink:href="#f0_28" transform="matrix(12,0,0,12,305.6,383.6)" />
<use xlink:href="#f0_25" transform="matrix(12,0,0,12,310.8,383.6)" />
<use xlink:href="#f0_2a" transform="matrix(12,0,0,12,316.2,383.6)" />
<use xlink:href="#f0_21" transform="matrix(12,0,0,12,326.9,383.6)" />
<use xlink:href="#f0_1x" transform="matrix(12,0,0,12,335.7,383.6)" />
<use xlink:href="#f0_2e" transform="matrix(12,0,0,12,344.8,383.6)" />
<use xlink:href="#f0_g" transform="matrix(12,0,0,12,351.8,383.6)" />
<use xlink:href="#f0_2g" transform="matrix(12,0,0,12,361.3,383.6)" />
<use xlink:href="#f0_24" transform="matrix(12,0,0,12,367.2,383.6)" />
<use xlink:href="#f0_21" transform="matrix(12,0,0,12,377.8,383.6)" />
<use xlink:href="#f0_2a" transform="matrix(12,0,0,12,386.6,383.6)" />
<use xlink:href="#f0_2f" transform="matrix(12,0,0,12,402,383.6)" />
<use xlink:href="#f0_2h" transform="matrix(12,0,0,12,409.7,383.6)" />
<use xlink:href="#f0_29" transform="matrix(12,0,0,12,420.7,383.6)" />
<use xlink:href="#f0_2b" transform="matrix(12,0,0,12,441.6,383.6)" />
<use xlink:href="#f0_22" transform="matrix(12,0,0,12,451.5,383.6)" />
<use xlink:href="#f0_2g" transform="matrix(12,0,0,12,462.5,383.6)" />
<use xlink:href="#f0_2j" transform="matrix(12,0,0,12,468.4,383.6)" />
<use xlink:href="#f0_2b" transform="matrix(12,0,0,12,483.8,383.6)" />
<use xlink:href="#f0_2c" transform="matrix(12,0,0,12,498.4,383.6)" />
<use xlink:href="#f0_2b" transform="matrix(12,0,0,12,509.5,383.6)" />
<use xlink:href="#f0_25" transform="matrix(12,0,0,12,519.3,383.6)" />
<use xlink:href="#f0_2a" transform="matrix(12,0,0,12,524.8,383.6)" />
<use xlink:href="#f0_2g" transform="matrix(12,0,0,12,535.5,383.6)" />
<use xlink:href="#f0_2f" transform="matrix(12,0,0,12,541.3,383.6)" />
<use xlink:href="#f0_25" transform="matrix(12,0,0,12,553.8,383.6)" />
<use xlink:href="#f0_2f" transform="matrix(12,0,0,12,559.3,383.6)" />
<use xlink:href="#f0_21" transform="matrix(12,0,0,12,571.3,383.6)" />
<use xlink:href="#f0_2d" transform="matrix(12,0,0,12,580.1,383.6)" />
<use xlink:href="#f0_2h" transform="matrix(12,0,0,12,590.4,383.6)" />
<use xlink:href="#f0_1x" transform="matrix(12,0,0,12,601.4,383.6)" />
<use xlink:href="#f0_28" transform="matrix(12,0,0,12,610.6,383.6)" />
<use xlink:href="#f0_2g" transform="matrix(12,0,0,12,620.8,383.6)" />
<use xlink:href="#f0_2b" transform="matrix(12,0,0,12,626.7,383.6)" />
<use xlink:href="#f0_2g" transform="matrix(12,0,0,12,641.3,383.6)" />
<use xlink:href="#f0_24" transform="matrix(12,0,0,12,647.2,383.6)" />
<use xlink:href="#f0_21" transform="matrix(12,0,0,12,657.9,383.6)" />
<use xlink:href="#f0_2g" transform="matrix(12,0,0,12,671.4,383.6)" />
<use xlink:href="#f0_24" transform="matrix(12,0,0,12,677.2,383.6)" />
<use xlink:href="#f0_25" transform="matrix(12,0,0,12,687.9,383.6)" />
<use xlink:href="#f0_2e" transform="matrix(12,0,0,12,693,383.6)" />
<use xlink:href="#f0_20" transform="matrix(12,0,0,12,700.3,383.6)" />
<use xlink:href="#f0_2c" transform="matrix(12,0,0,12,716.1,383.6)" />
<use xlink:href="#f0_2b" transform="matrix(12,0,0,12,727.1,383.6)" />
<use xlink:href="#f0_25" transform="matrix(12,0,0,12,737,383.6)" />
<use xlink:href="#f0_2a" transform="matrix(12,0,0,12,742.4,383.6)" />
<use xlink:href="#f0_2g" transform="matrix(12,0,0,12,753.1,383.6)" />
</g>
<path fill-rule="evenodd" d="M52.8,416.3H856.9V388.8H52.8v27.5Z" class="g0_61" />
<g fill="#000000" >
<use xlink:href="#f3_2b" transform="matrix(12,0,0,12,55,411.5)" />
<use xlink:href="#f2_15" transform="matrix(12,0,0,12,82.5,411.5)" />
<use xlink:href="#f2_2k" transform="matrix(12,0,0,12,93.9,411.5)" />
<use xlink:href="#f2_1x" transform="matrix(12,0,0,12,103.1,411.5)" />
<use xlink:href="#f2_29" transform="matrix(12,0,0,12,112.2,411.5)" />
<use xlink:href="#f2_2c" transform="matrix(12,0,0,12,128.4,411.5)" />
<use xlink:href="#f2_28" transform="matrix(12,0,0,12,139.7,411.5)" />
<use xlink:href="#f2_21" transform="matrix(12,0,0,12,145.9,411.5)" />
</g>
<path fill-rule="evenodd" d="M107.8,443.8H856.9V421H107.8v22.8Z" class="g0_61" />
<g fill="#000000" >
<use xlink:href="#f3_2b" transform="matrix(12,0,0,12,110,438.6)" />
<use xlink:href="#f0_1j" transform="matrix(12,0,0,12,137.5,438.6)" />
<use xlink:href="#f0_24" transform="matrix(12,0,0,12,147.1,438.6)" />
<use xlink:href="#f0_2b" transform="matrix(12,0,0,12,157.7,438.6)" />
<use xlink:href="#f0_2j" transform="matrix(12,0,0,12,167.6,438.6)" />
<use xlink:href="#f0_2g" transform="matrix(12,0,0,12,187.7,438.6)" />
<use xlink:href="#f0_24" transform="matrix(12,0,0,12,193.6,438.6)" />
<use xlink:href="#f0_1x" transform="matrix(12,0,0,12,204.3,438.6)" />
<use xlink:href="#f0_2g" transform="matrix(12,0,0,12,213.4,438.6)" />
<use xlink:href="#f0_2g" transform="matrix(12,0,0,12,224,438.6)" />
<use xlink:href="#f0_24" transform="matrix(12,0,0,12,229.9,438.6)" />
<use xlink:href="#f0_21" transform="matrix(12,0,0,12,240.6,438.6)" />
<use xlink:href="#f0_2c" transform="matrix(12,0,0,12,254.1,438.6)" />
<use xlink:href="#f0_2b" transform="matrix(12,0,0,12,265.1,438.6)" />
<use xlink:href="#f0_25" transform="matrix(12,0,0,12,275,438.6)" />
<use xlink:href="#f0_2a" transform="matrix(12,0,0,12,280.4,438.6)" />
<use xlink:href="#f0_2g" transform="matrix(12,0,0,12,291.1,438.6)" />
<use xlink:href="#f0_2f" transform="matrix(12,0,0,12,296.9,438.6)" />
<use xlink:href="#f0_1g" transform="matrix(12,0,0,12,309.4,438.6)" />
<use xlink:href="#f0_c" transform="matrix(12,0,0,12,325.1,438.6)" />
<use xlink:href="#f1_4z" transform="matrix(12,0,0,12,331.6,438.6)" />
<use xlink:href="#f0_m" transform="matrix(12,0,0,12,340.8,438.6)" />
<use xlink:href="#f0_g" transform="matrix(12,0,0,12,350,438.6)" />
<use xlink:href="#f0_n" transform="matrix(12,0,0,12,359.1,438.6)" />
<use xlink:href="#f0_g" transform="matrix(12,0,0,12,368.3,438.6)" />
<use xlink:href="#f0_p" transform="matrix(12,0,0,12,377.4,438.6)" />
<use xlink:href="#f0_d" transform="matrix(12,0,0,12,386.6,438.6)" />
<use xlink:href="#f0_g" transform="matrix(12,0,0,12,392.4,438.6)" />
<use xlink:href="#f0_1h" transform="matrix(12,0,0,12,401.9,438.6)" />
<use xlink:href="#f0_c" transform="matrix(12,0,0,12,420.6,438.6)" />
<use xlink:href="#f0_l" transform="matrix(12,0,0,12,426.9,438.6)" />
<use xlink:href="#f0_g" transform="matrix(12,0,0,12,436,438.6)" />
<use xlink:href="#f0_m" transform="matrix(12,0,0,12,445.2,438.6)" />
<use xlink:href="#f0_g" transform="matrix(12,0,0,12,454.3,438.6)" />
<use xlink:href="#f0_n" transform="matrix(12,0,0,12,463.5,438.6)" />
<use xlink:href="#f0_d" transform="matrix(12,0,0,12,472.7,438.6)" />
<use xlink:href="#f0_1x" transform="matrix(12,0,0,12,483.3,438.6)" />
<use xlink:href="#f0_2a" transform="matrix(12,0,0,12,492.4,438.6)" />
<use xlink:href="#f0_20" transform="matrix(12,0,0,12,502.7,438.6)" />
<use xlink:href="#f0_1i" transform="matrix(12,0,0,12,518.8,438.6)" />
<use xlink:href="#f0_c" transform="matrix(12,0,0,12,535.7,438.6)" />
<use xlink:href="#f0_r" transform="matrix(12,0,0,12,541.9,438.6)" />
<use xlink:href="#f0_g" transform="matrix(12,0,0,12,550.7,438.6)" />
<use xlink:href="#f0_k" transform="matrix(12,0,0,12,560.2,438.6)" />
<use xlink:href="#f0_g" transform="matrix(12,0,0,12,569,438.6)" />
<use xlink:href="#f1_4z" transform="matrix(12,0,0,12,578.8,438.6)" />
<use xlink:href="#f0_l" transform="matrix(12,0,0,12,588,438.6)" />
<use xlink:href="#f0_d" transform="matrix(12,0,0,12,596.8,438.6)" />
<use xlink:href="#f0_1x" transform="matrix(12,0,0,12,607.7,438.6)" />
<use xlink:href="#f0_2e" transform="matrix(12,0,0,12,616.5,438.6)" />
<use xlink:href="#f0_21" transform="matrix(12,0,0,12,623.9,438.6)" />
<use xlink:href="#f0_1z" transform="matrix(12,0,0,12,637.4,438.6)" />
<use xlink:href="#f0_2b" transform="matrix(12,0,0,12,645.5,438.6)" />
<use xlink:href="#f0_28" transform="matrix(12,0,0,12,655.4,438.6)" />
<use xlink:href="#f0_28" transform="matrix(12,0,0,12,660.5,438.6)" />
<use xlink:href="#f0_25" transform="matrix(12,0,0,12,666,438.6)" />
<use xlink:href="#f0_2a" transform="matrix(12,0,0,12,671.5,438.6)" />
<use xlink:href="#f0_21" transform="matrix(12,0,0,12,682.1,438.6)" />
<use xlink:href="#f0_1x" transform="matrix(12,0,0,12,690.9,438.6)" />
<use xlink:href="#f0_2e" transform="matrix(12,0,0,12,700.1,438.6)" />
<use xlink:href="#f0_i" transform="matrix(12,0,0,12,707,438.6)" />
</g>
<path fill-rule="evenodd" d="M162.9,471.3h694V448.5h-694v22.8Z" class="g0_61" />
<g fill="#000000" >
<use xlink:href="#f4_3o" transform="matrix(12,0,0,12,165.1,466.1)" />
<use xlink:href="#f0_1j" transform="matrix(12,0,0,12,192.6,466.1)" />
<use xlink:href="#f0_2b" transform="matrix(12,0,0,12,202.1,466.1)" />
<use xlink:href="#f0_28" transform="matrix(12,0,0,12,212,466.1)" />
<use xlink:href="#f0_2h" transform="matrix(12,0,0,12,217.5,466.1)" />
<use xlink:href="#f0_2g" transform="matrix(12,0,0,12,228.5,466.1)" />
<use xlink:href="#f0_25" transform="matrix(12,0,0,12,234.4,466.1)" />
<use xlink:href="#f0_2b" transform="matrix(12,0,0,12,239.8,466.1)" />
<use xlink:href="#f0_2a" transform="matrix(12,0,0,12,249.7,466.1)" />
</g>
<path fill-rule="evenodd" d="M162.9,498.8h694V471.3h-694v27.5Z" class="g0_61" />
<g fill="#000000" >
<use xlink:href="#f4_3o" transform="matrix(12,0,0,12,165.1,493.7)" />
<use xlink:href="#f0_1n" transform="matrix(12,0,0,12,192.6,493.7)" />
<use xlink:href="#f0_21" transform="matrix(12,0,0,12,210.9,493.7)" />
<use xlink:href="#f0_27" transform="matrix(12,0,0,12,224.5,493.7)" />
<use xlink:href="#f0_2a" transform="matrix(12,0,0,12,234.7,493.7)" />
<use xlink:href="#f0_2b" transform="matrix(12,0,0,12,245.4,493.7)" />
<use xlink:href="#f0_2j" transform="matrix(12,0,0,12,255.2,493.7)" />
<use xlink:href="#f0_2g" transform="matrix(12,0,0,12,275.4,493.7)" />
<use xlink:href="#f0_24" transform="matrix(12,0,0,12,281.2,493.7)" />
<use xlink:href="#f0_1x" transform="matrix(12,0,0,12,291.9,493.7)" />
<use xlink:href="#f0_2g" transform="matrix(12,0,0,12,301.1,493.7)" />
<use xlink:href="#f0_2c" transform="matrix(12,0,0,12,311.7,493.7)" />
<use xlink:href="#f0_2b" transform="matrix(12,0,0,12,322.7,493.7)" />
<use xlink:href="#f0_25" transform="matrix(12,0,0,12,332.6,493.7)" />
<use xlink:href="#f0_2a" transform="matrix(12,0,0,12,338,493.7)" />
<use xlink:href="#f0_2g" transform="matrix(12,0,0,12,348.7,493.7)" />
<use xlink:href="#f0_2f" transform="matrix(12,0,0,12,354.5,493.7)" />
<use xlink:href="#f0_1x" transform="matrix(12,0,0,12,367,493.7)" />
<use xlink:href="#f0_2e" transform="matrix(12,0,0,12,376.1,493.7)" />
<use xlink:href="#f0_21" transform="matrix(12,0,0,12,383.5,493.7)" />
<use xlink:href="#f0_2f" transform="matrix(12,0,0,12,396.6,493.7)" />
<use xlink:href="#f0_1x" transform="matrix(12,0,0,12,404.3,493.7)" />
<use xlink:href="#f0_25" transform="matrix(12,0,0,12,413.5,493.7)" />
<use xlink:href="#f0_20" transform="matrix(12,0,0,12,418.6,493.7)" />
<use xlink:href="#f0_2g" transform="matrix(12,0,0,12,434.7,493.7)" />
<use xlink:href="#f0_2b" transform="matrix(12,0,0,12,440.6,493.7)" />
<use xlink:href="#f0_1y" transform="matrix(12,0,0,12,455.3,493.7)" />
<use xlink:href="#f0_21" transform="matrix(12,0,0,12,465.5,493.7)" />
<use xlink:href="#f0_1z" transform="matrix(12,0,0,12,478.7,493.7)" />
<use xlink:href="#f0_2b" transform="matrix(12,0,0,12,486.8,493.7)" />
<use xlink:href="#f0_28" transform="matrix(12,0,0,12,496.7,493.7)" />
<use xlink:href="#f0_28" transform="matrix(12,0,0,12,502.1,493.7)" />
<use xlink:href="#f0_25" transform="matrix(12,0,0,12,507.3,493.7)" />
<use xlink:href="#f0_2a" transform="matrix(12,0,0,12,512.7,493.7)" />
<use xlink:href="#f0_21" transform="matrix(12,0,0,12,523.4,493.7)" />
<use xlink:href="#f0_1x" transform="matrix(12,0,0,12,532.2,493.7)" />
<use xlink:href="#f0_2e" transform="matrix(12,0,0,12,541.4,493.7)" />
<use xlink:href="#f0_25" transform="matrix(12,0,0,12,553.1,493.7)" />
<use xlink:href="#f0_22" transform="matrix(12,0,0,12,558.5,493.7)" />
<use xlink:href="#f0_2g" transform="matrix(12,0,0,12,569.2,493.7)" />
<use xlink:href="#f0_24" transform="matrix(12,0,0,12,575,493.7)" />
<use xlink:href="#f0_21" transform="matrix(12,0,0,12,585.7,493.7)" />
<use xlink:href="#f0_2l" transform="matrix(12,0,0,12,594.5,493.7)" />
<use xlink:href="#f0_28" transform="matrix(12,0,0,12,609.5,493.7)" />
<use xlink:href="#f0_25" transform="matrix(12,0,0,12,614.6,493.7)" />
<use xlink:href="#f0_21" transform="matrix(12,0,0,12,620.1,493.7)" />
<use xlink:href="#f0_2b" transform="matrix(12,0,0,12,633.6,493.7)" />
<use xlink:href="#f0_2a" transform="matrix(12,0,0,12,643.5,493.7)" />
<use xlink:href="#f0_1x" transform="matrix(12,0,0,12,658.9,493.7)" />
<use xlink:href="#f0_28" transform="matrix(12,0,0,12,672.5,493.7)" />
<use xlink:href="#f0_25" transform="matrix(12,0,0,12,677.6,493.7)" />
<use xlink:href="#f0_2a" transform="matrix(12,0,0,12,683.1,493.7)" />
<use xlink:href="#f0_21" transform="matrix(12,0,0,12,693.8,493.7)" />
<use xlink:href="#f0_i" transform="matrix(12,0,0,12,702.5,493.7)" />
</g>
<path fill-rule="evenodd" d="M190.4,643.3H856.9V498.8H190.4V643.3Z" class="g0_61" />
<path fill-rule="evenodd" d="M190.4,670.8H856.9V643.3H190.4v27.5Z" class="g0_61" />
<g fill="#000000" >
<use xlink:href="#f0_1g" transform="matrix(12,0,0,12,192.6,665.7)" />
<use xlink:href="#f0_1h" transform="matrix(12,0,0,12,203.6,665.7)" />
<use xlink:href="#f0_f" transform="matrix(12,0,0,12,222.6,665.7)" />
<use xlink:href="#f0_1h" transform="matrix(12,0,0,12,238.4,665.7)" />
<use xlink:href="#f0_1i" transform="matrix(12,0,0,12,252.7,665.7)" />
<use xlink:href="#f0_x" transform="matrix(12,0,0,12,269.5,665.7)" />
<use xlink:href="#f0_1g" transform="matrix(12,0,0,12,285.3,665.7)" />
<use xlink:href="#f0_1i" transform="matrix(12,0,0,12,296.3,665.7)" />
<use xlink:href="#f0_i" transform="matrix(12,0,0,12,308.4,665.7)" />
<use xlink:href="#f0_18" transform="matrix(12,0,0,12,317.9,665.7)" />
<use xlink:href="#f0_21" transform="matrix(12,0,0,12,333.2,665.7)" />
<use xlink:href="#f0_2a" transform="matrix(12,0,0,12,342,665.7)" />
<use xlink:href="#f0_1z" transform="matrix(12,0,0,12,352.7,665.7)" />
<use xlink:href="#f0_21" transform="matrix(12,0,0,12,360.7,665.7)" />
<use xlink:href="#f0_g" transform="matrix(12,0,0,12,369.5,665.7)" />
<use xlink:href="#f0_1g" transform="matrix(12,0,0,12,378.7,665.7)" />
<use xlink:href="#f0_g" transform="matrix(12,0,0,12,389.7,665.7)" />
<use xlink:href="#f0_1h" transform="matrix(12,0,0,12,398.8,665.7)" />
<use xlink:href="#f0_1x" transform="matrix(12,0,0,12,417.9,665.7)" />
<use xlink:href="#f0_2a" transform="matrix(12,0,0,12,427.1,665.7)" />
<use xlink:href="#f0_20" transform="matrix(12,0,0,12,437.7,665.7)" />
<use xlink:href="#f0_1i" transform="matrix(12,0,0,12,453.8,665.7)" />
<use xlink:href="#f0_1x" transform="matrix(12,0,0,12,465.9,665.7)" />
<use xlink:href="#f0_2e" transform="matrix(12,0,0,12,475,665.7)" />
<use xlink:href="#f0_21" transform="matrix(12,0,0,12,482.3,665.7)" />
<use xlink:href="#f0_1z" transform="matrix(12,0,0,12,495.9,665.7)" />
<use xlink:href="#f0_2b" transform="matrix(12,0,0,12,504,665.7)" />
<use xlink:href="#f0_28" transform="matrix(12,0,0,12,513.9,665.7)" />
<use xlink:href="#f0_28" transform="matrix(12,0,0,12,519,665.7)" />
<use xlink:href="#f0_25" transform="matrix(12,0,0,12,524.5,665.7)" />
<use xlink:href="#f0_2a" transform="matrix(12,0,0,12,530,665.7)" />
<use xlink:href="#f0_21" transform="matrix(12,0,0,12,540.7,665.7)" />
<use xlink:href="#f0_1x" transform="matrix(12,0,0,12,549.4,665.7)" />
<use xlink:href="#f0_2e" transform="matrix(12,0,0,12,558.6,665.7)" />
<use xlink:href="#f0_i" transform="matrix(12,0,0,12,565.5,665.7)" />
</g>
<path fill-rule="evenodd" d="M52.8,721H856.9V687.7H52.8V721Z" class="g0_61" />
<g fill="#C00000" >
<use xlink:href="#f2_1j" transform="matrix(12,0,0,12,55,704.9)" />
<use xlink:href="#f2_21" transform="matrix(12,0,0,12,66.4,704.9)" />
<use xlink:href="#f2_1z" transform="matrix(12,0,0,12,75.6,704.9)" />
<use xlink:href="#f2_2g" transform="matrix(12,0,0,12,83.6,704.9)" />
<use xlink:href="#f2_25" transform="matrix(12,0,0,12,89.8,704.9)" />
<use xlink:href="#f2_2b" transform="matrix(12,0,0,12,96,704.9)" />
<use xlink:href="#f2_2a" transform="matrix(12,0,0,12,105.9,704.9)" />
<use xlink:href="#f2_16" transform="matrix(12,0,0,12,122,704.9)" />
<use xlink:href="#f2_2b" transform="matrix(12,0,0,12,131.9,704.9)" />
<use xlink:href="#f2_2e" transform="matrix(12,0,0,12,142.2,704.9)" />
<use xlink:href="#f2_29" transform="matrix(12,0,0,12,149.2,704.9)" />
<use xlink:href="#f2_2h" transform="matrix(12,0,0,12,165.3,704.9)" />
<use xlink:href="#f2_28" transform="matrix(12,0,0,12,176.6,704.9)" />
<use xlink:href="#f2_1x" transform="matrix(12,0,0,12,182.9,704.9)" />
</g>
<path fill-rule="evenodd" d="M52.8,748.5H856.9V721H52.8v27.5Z" class="g0_61" />
<g fill="#000000" >
<use xlink:href="#f3_2b" transform="matrix(12,0,0,12,55,743.4)" />
<use xlink:href="#f0_1c" transform="matrix(12,0,0,12,82.5,743.4)" />
<use xlink:href="#f0_21" transform="matrix(12,0,0,12,93.9,743.4)" />
<use xlink:href="#f0_2g" transform="matrix(12,0,0,12,102.7,743.4)" />
<use xlink:href="#f0_2g" transform="matrix(12,0,0,12,113.3,743.4)" />
<use xlink:href="#f0_24" transform="matrix(12,0,0,12,119.2,743.4)" />
<use xlink:href="#f0_21" transform="matrix(12,0,0,12,129.8,743.4)" />
<use xlink:href="#f0_2g" transform="matrix(12,0,0,12,143.3,743.4)" />
<use xlink:href="#f0_2j" transform="matrix(12,0,0,12,149.2,743.4)" />
<use xlink:href="#f0_2b" transform="matrix(12,0,0,12,164.6,743.4)" />
<use xlink:href="#f0_23" transform="matrix(12,0,0,12,179.2,743.4)" />
<use xlink:href="#f0_25" transform="matrix(12,0,0,12,189.5,743.4)" />
<use xlink:href="#f0_2i" transform="matrix(12,0,0,12,195,743.4)" />
<use xlink:href="#f0_21" transform="matrix(12,0,0,12,205.2,743.4)" />
<use xlink:href="#f0_2a" transform="matrix(12,0,0,12,214,743.4)" />
<use xlink:href="#f0_2c" transform="matrix(12,0,0,12,229.4,743.4)" />
<use xlink:href="#f0_2b" transform="matrix(12,0,0,12,240.4,743.4)" />
<use xlink:href="#f0_25" transform="matrix(12,0,0,12,250.3,743.4)" />
<use xlink:href="#f0_2a" transform="matrix(12,0,0,12,255.8,743.4)" />
<use xlink:href="#f0_2g" transform="matrix(12,0,0,12,266.5,743.4)" />
<use xlink:href="#f0_2f" transform="matrix(12,0,0,12,272.3,743.4)" />
<use xlink:href="#f0_1y" transform="matrix(12,0,0,12,284.8,743.4)" />
<use xlink:href="#f0_21" transform="matrix(12,0,0,12,295,743.4)" />
<use xlink:href="#f0_1g" transform="matrix(12,0,0,12,308.2,743.4)" />
<use xlink:href="#f0_c" transform="matrix(12,0,0,12,319.2,743.4)" />
<use xlink:href="#f0_2k" transform="matrix(12,0,0,12,325.4,743.4)" />
<use xlink:href="#f0_l" transform="matrix(12,0,0,12,334.9,743.4)" />
<use xlink:href="#f0_g" transform="matrix(12,0,0,12,344.1,743.4)" />
<use xlink:href="#f0_2l" transform="matrix(12,0,0,12,353.2,743.4)" />
<use xlink:href="#f0_l" transform="matrix(12,0,0,12,363.5,743.4)" />
<use xlink:href="#f0_g" transform="matrix(12,0,0,12,372.6,743.4)" />
<use xlink:href="#f0_2m" transform="matrix(12,0,0,12,381.8,743.4)" />
<use xlink:href="#f0_l" transform="matrix(12,0,0,12,391,743.4)" />
<use xlink:href="#f0_d" transform="matrix(12,0,0,12,400.1,743.4)" />
<use xlink:href="#f0_1x" transform="matrix(12,0,0,12,411.1,743.4)" />
<use xlink:href="#f0_2a" transform="matrix(12,0,0,12,420.3,743.4)" />
<use xlink:href="#f0_20" transform="matrix(12,0,0,12,430.5,743.4)" />
<use xlink:href="#f0_1h" transform="matrix(12,0,0,12,446.3,743.4)" />
<use xlink:href="#f0_c" transform="matrix(12,0,0,12,465.3,743.4)" />
<use xlink:href="#f0_2k" transform="matrix(12,0,0,12,471.5,743.4)" />
<use xlink:href="#f0_m" transform="matrix(12,0,0,12,481,743.4)" />
<use xlink:href="#f0_g" transform="matrix(12,0,0,12,490.2,743.4)" />
<use xlink:href="#f0_2l" transform="matrix(12,0,0,12,499.4,743.4)" />
<use xlink:href="#f0_m" transform="matrix(12,0,0,12,509.6,743.4)" />
<use xlink:href="#f0_g" transform="matrix(12,0,0,12,518.8,743.4)" />
<use xlink:href="#f0_2m" transform="matrix(12,0,0,12,528.3,743.4)" />
<use xlink:href="#f0_m" transform="matrix(12,0,0,12,537.4,743.4)" />
<use xlink:href="#f0_d" transform="matrix(12,0,0,12,546.2,743.4)" />
<use xlink:href="#f0_i" transform="matrix(12,0,0,12,552.5,743.4)" />
<use xlink:href="#f0_1c" transform="matrix(12,0,0,12,561.6,743.4)" />
<use xlink:href="#f0_21" transform="matrix(12,0,0,12,573,743.4)" />
<use xlink:href="#f0_2g" transform="matrix(12,0,0,12,581.7,743.4)" />
<use xlink:href="#f0_2g" transform="matrix(12,0,0,12,592.4,743.4)" />
<use xlink:href="#f0_24" transform="matrix(12,0,0,12,598.2,743.4)" />
<use xlink:href="#f0_21" transform="matrix(12,0,0,12,608.9,743.4)" />
<use xlink:href="#f0_2c" transform="matrix(12,0,0,12,622.4,743.4)" />
<use xlink:href="#f0_2b" transform="matrix(12,0,0,12,633.4,743.4)" />
<use xlink:href="#f0_25" transform="matrix(12,0,0,12,643.3,743.4)" />
<use xlink:href="#f0_2a" transform="matrix(12,0,0,12,648.8,743.4)" />
<use xlink:href="#f0_2g" transform="matrix(12,0,0,12,659.5,743.4)" />
<use xlink:href="#f0_1i" transform="matrix(12,0,0,12,670,743.4)" />
<use xlink:href="#f0_c" transform="matrix(12,0,0,12,686.9,743.4)" />
<use xlink:href="#f0_2k" transform="matrix(12,0,0,12,693.1,743.4)" />
<use xlink:href="#f0_g" transform="matrix(12,0,0,12,702.3,743.4)" />
<use xlink:href="#f0_2l" transform="matrix(12,0,0,12,711.8,743.4)" />
<use xlink:href="#f0_g" transform="matrix(12,0,0,12,721.7,743.4)" />
<use xlink:href="#f0_2m" transform="matrix(12,0,0,12,731.2,743.4)" />
<use xlink:href="#f0_d" transform="matrix(12,0,0,12,740,743.4)" />
<use xlink:href="#f0_20" transform="matrix(12,0,0,12,752,743.4)" />
<use xlink:href="#f0_25" transform="matrix(12,0,0,12,763,743.4)" />
<use xlink:href="#f0_2i" transform="matrix(12,0,0,12,768.4,743.4)" />
<use xlink:href="#f0_25" transform="matrix(12,0,0,12,778.7,743.4)" />
<use xlink:href="#f0_20" transform="matrix(12,0,0,12,784.2,743.4)" />
<use xlink:href="#f0_21" transform="matrix(12,0,0,12,795.5,743.4)" />
<use xlink:href="#f0_1g" transform="matrix(12,0,0,12,808.7,743.4)" />
<use xlink:href="#f0_1h" transform="matrix(12,0,0,12,819.4,743.4)" />
<use xlink:href="#f0_25" transform="matrix(12,0,0,12,838.4,743.4)" />
<use xlink:href="#f0_2a" transform="matrix(12,0,0,12,843.9,743.4)" />
</g>
<path fill-rule="evenodd" d="M52.8,776.1H856.9V748.5H52.8v27.6Z" class="g0_61" />
<g fill="#000000" >
<use xlink:href="#f0_2g" transform="matrix(12,0,0,12,82.5,770.9)" />
<use xlink:href="#f0_24" transform="matrix(12,0,0,12,88.4,770.9)" />
<use xlink:href="#f0_21" transform="matrix(12,0,0,12,99.1,770.9)" />
<use xlink:href="#f0_23" transform="matrix(12,0,0,12,112.6,770.9)" />
<use xlink:href="#f0_25" transform="matrix(12,0,0,12,122.8,770.9)" />
<use xlink:href="#f0_2i" transform="matrix(12,0,0,12,128.3,770.9)" />
<use xlink:href="#f0_21" transform="matrix(12,0,0,12,138.6,770.9)" />
<use xlink:href="#f0_2a" transform="matrix(12,0,0,12,147.4,770.9)" />
<use xlink:href="#f0_2e" transform="matrix(12,0,0,12,162.8,770.9)" />
<use xlink:href="#f0_1x" transform="matrix(12,0,0,12,170.1,770.9)" />
<use xlink:href="#f0_2g" transform="matrix(12,0,0,12,179.2,770.9)" />
<use xlink:href="#f0_25" transform="matrix(12,0,0,12,185.1,770.9)" />
<use xlink:href="#f0_2b" transform="matrix(12,0,0,12,190.6,770.9)" />
<use xlink:href="#f0_29" transform="matrix(12,0,0,12,205,770.9)" />
<use xlink:href="#f0_u" transform="matrix(12,0,0,12,221.2,770.9)" />
<use xlink:href="#f0_2a" transform="matrix(12,0,0,12,230.7,770.9)" />
<use xlink:href="#f0_25" transform="matrix(12,0,0,12,245.7,770.9)" />
<use xlink:href="#f0_2a" transform="matrix(12,0,0,12,251.2,770.9)" />
<use xlink:href="#f0_2g" transform="matrix(12,0,0,12,261.9,770.9)" />
<use xlink:href="#f0_21" transform="matrix(12,0,0,12,267.7,770.9)" />
<use xlink:href="#f0_2e" transform="matrix(12,0,0,12,276.5,770.9)" />
<use xlink:href="#f0_2a" transform="matrix(12,0,0,12,283.8,770.9)" />
<use xlink:href="#f0_1x" transform="matrix(12,0,0,12,294.5,770.9)" />
<use xlink:href="#f0_28" transform="matrix(12,0,0,12,303.3,770.9)" />
<use xlink:href="#f0_28" transform="matrix(12,0,0,12,308.7,770.9)" />
<use xlink:href="#f0_2l" transform="matrix(12,0,0,12,314.2,770.9)" />
<use xlink:href="#f0_i" transform="matrix(12,0,0,12,324.1,770.9)" />
</g>
<path fill-rule="evenodd" d="M52.8,814.9H856.9V776.1H52.8v38.8Z" class="g0_61" />
<g fill="#000000" >
<use xlink:href="#f3_2b" transform="matrix(12,0,0,12,55,798.4)" />
<use xlink:href="#f0_14" transform="matrix(12,0,0,12,82.5,798.4)" />
<use xlink:href="#f0_2e" transform="matrix(12,0,0,12,96.8,798.4)" />
<use xlink:href="#f0_1x" transform="matrix(12,0,0,12,104.1,798.4)" />
<use xlink:href="#f0_2j" transform="matrix(12,0,0,12,113.3,798.4)" />
<use xlink:href="#f0_1g" transform="matrix(12,0,0,12,133.5,798.4)" />
<use xlink:href="#f0_1c" transform="matrix(12,0,0,12,144.1,798.4)" />
<use xlink:href="#f0_g" transform="matrix(12,0,0,12,155.5,798.4)" />
<use xlink:href="#f0_1h" transform="matrix(12,0,0,12,164.6,798.4)" />
<use xlink:href="#f0_1d" transform="matrix(12,0,0,12,178.9,798.4)" />
<use xlink:href="#f0_1x" transform="matrix(12,0,0,12,200.9,798.4)" />
<use xlink:href="#f0_2a" transform="matrix(12,0,0,12,210.1,798.4)" />
<use xlink:href="#f0_20" transform="matrix(12,0,0,12,220.8,798.4)" />
<use xlink:href="#f0_1i" transform="matrix(12,0,0,12,236.8,798.4)" />
<use xlink:href="#f0_1e" transform="matrix(12,0,0,12,248.9,798.4)" />
<use xlink:href="#f0_2c" transform="matrix(12,0,0,12,268.7,798.4)" />
<use xlink:href="#f0_21" transform="matrix(12,0,0,12,279.7,798.4)" />
<use xlink:href="#f0_2e" transform="matrix(12,0,0,12,288.5,798.4)" />
<use xlink:href="#f0_2c" transform="matrix(12,0,0,12,295.8,798.4)" />
<use xlink:href="#f0_21" transform="matrix(12,0,0,12,306.8,798.4)" />
<use xlink:href="#f0_2a" transform="matrix(12,0,0,12,315.6,798.4)" />
<use xlink:href="#f0_20" transform="matrix(12,0,0,12,325.9,798.4)" />
<use xlink:href="#f0_25" transform="matrix(12,0,0,12,337.2,798.4)" />
<use xlink:href="#f0_1z" transform="matrix(12,0,0,12,342.7,798.4)" />
<use xlink:href="#f0_2h" transform="matrix(12,0,0,12,350.8,798.4)" />
<use xlink:href="#f0_28" transform="matrix(12,0,0,12,361.8,798.4)" />
<use xlink:href="#f0_1x" transform="matrix(12,0,0,12,367.3,798.4)" />
<use xlink:href="#f0_2e" transform="matrix(12,0,0,12,376.4,798.4)" />
<use xlink:href="#f0_2g" transform="matrix(12,0,0,12,388.1,798.4)" />
<use xlink:href="#f0_2b" transform="matrix(12,0,0,12,394,798.4)" />
<use xlink:href="#f0_2g" transform="matrix(12,0,0,12,408.7,798.4)" />
<use xlink:href="#f0_24" transform="matrix(12,0,0,12,414.5,798.4)" />
<use xlink:href="#f0_21" transform="matrix(12,0,0,12,425.2,798.4)" />
<use xlink:href="#f0_1o" transform="matrix(12,0,0,12,438.7,798.4)" />
<use xlink:href="#f0_1p" transform="matrix(12,0,0,12,450.4,798.4)" />
<use xlink:href="#f0_h" transform="matrix(12,0,0,12,462.9,798.4)" />
<use xlink:href="#f0_2c" transform="matrix(12,0,0,12,469.2,798.4)" />
<use xlink:href="#f0_28" transform="matrix(12,0,0,12,480.2,798.4)" />
<use xlink:href="#f0_1x" transform="matrix(12,0,0,12,485.6,798.4)" />
<use xlink:href="#f0_2a" transform="matrix(12,0,0,12,494.8,798.4)" />
<use xlink:href="#f0_21" transform="matrix(12,0,0,12,505.5,798.4)" />
<use xlink:href="#f0_i" transform="matrix(12,0,0,12,514.2,798.4)" />
</g>
<path fill-rule="evenodd" d="M52.8,1055.9H856.9v-241H52.8v241Z" class="g0_61" />
<path fill-rule="evenodd" d="M52.8,1083.4H856.9v-27.5H52.8v27.5Z" class="g0_61" />
<g fill="#000000" >
<use xlink:href="#f3_2b" transform="matrix(12,0,0,12,55,1078.3)" />
<use xlink:href="#f0_1g" transform="matrix(12,0,0,12,82.5,1078.3)" />
<use xlink:href="#f0_1c" transform="matrix(12,0,0,12,93.5,1078.3)" />
<use xlink:href="#f0_2o" transform="matrix(12,0,0,12,109.6,1078.3)" />
<use xlink:href="#f0_2o" transform="matrix(12,0,0,12,120.6,1078.3)" />
<use xlink:href="#f0_1i" transform="matrix(12,0,0,12,136.4,1078.3)" />
<use xlink:href="#f0_1e" transform="matrix(12,0,0,12,148.5,1078.3)" />
<use xlink:href="#f0_2o" transform="matrix(12,0,0,12,168.6,1078.3)" />
<use xlink:href="#f0_2o" transform="matrix(12,0,0,12,179.6,1078.3)" />
<use xlink:href="#f0_1h" transform="matrix(12,0,0,12,195.4,1078.3)" />
<use xlink:href="#f0_1d" transform="matrix(12,0,0,12,209.7,1078.3)" />
<use xlink:href="#f0_1x" transform="matrix(12,0,0,12,231.6,1078.3)" />
<use xlink:href="#f0_2a" transform="matrix(12,0,0,12,240.8,1078.3)" />
<use xlink:href="#f0_20" transform="matrix(12,0,0,12,251.5,1078.3)" />
<use xlink:href="#f0_22" transform="matrix(12,0,0,12,267.2,1078.3)" />
<use xlink:href="#f0_21" transform="matrix(12,0,0,12,273.4,1078.3)" />
<use xlink:href="#f0_21" transform="matrix(12,0,0,12,282.2,1078.3)" />
<use xlink:href="#f0_2g" transform="matrix(12,0,0,12,291,1078.3)" />
<use xlink:href="#f0_2b" transform="matrix(12,0,0,12,301.3,1078.3)" />
<use xlink:href="#f0_22" transform="matrix(12,0,0,12,311.2,1078.3)" />
<use xlink:href="#f0_2g" transform="matrix(12,0,0,12,322.1,1078.3)" />
<use xlink:href="#f0_24" transform="matrix(12,0,0,12,328,1078.3)" />
<use xlink:href="#f0_21" transform="matrix(12,0,0,12,338.7,1078.3)" />
<use xlink:href="#f0_2f" transform="matrix(12,0,0,12,347.4,1078.3)" />
<use xlink:href="#f0_21" transform="matrix(12,0,0,12,355.1,1078.3)" />
<use xlink:href="#f0_2c" transform="matrix(12,0,0,12,369,1078.3)" />
<use xlink:href="#f0_21" transform="matrix(12,0,0,12,380,1078.3)" />
<use xlink:href="#f0_2e" transform="matrix(12,0,0,12,388.8,1078.3)" />
<use xlink:href="#f0_2c" transform="matrix(12,0,0,12,396.1,1078.3)" />
<use xlink:href="#f0_21" transform="matrix(12,0,0,12,407.2,1078.3)" />
<use xlink:href="#f0_2a" transform="matrix(12,0,0,12,415.9,1078.3)" />
<use xlink:href="#f0_20" transform="matrix(12,0,0,12,426.2,1078.3)" />
<use xlink:href="#f0_25" transform="matrix(12,0,0,12,437.5,1078.3)" />
<use xlink:href="#f0_1z" transform="matrix(12,0,0,12,443,1078.3)" />
<use xlink:href="#f0_2h" transform="matrix(12,0,0,12,450.7,1078.3)" />
<use xlink:href="#f0_28" transform="matrix(12,0,0,12,461.8,1078.3)" />
<use xlink:href="#f0_1x" transform="matrix(12,0,0,12,467.2,1078.3)" />
<use xlink:href="#f0_2e" transform="matrix(12,0,0,12,476.4,1078.3)" />
<use xlink:href="#f0_2f" transform="matrix(12,0,0,12,483.7,1078.3)" />
<use xlink:href="#f0_28" transform="matrix(12,0,0,12,496.1,1078.3)" />
<use xlink:href="#f0_25" transform="matrix(12,0,0,12,501.3,1078.3)" />
<use xlink:href="#f0_21" transform="matrix(12,0,0,12,506.8,1078.3)" />
<use xlink:href="#f0_25" transform="matrix(12,0,0,12,520,1078.3)" />
<use xlink:href="#f0_2a" transform="matrix(12,0,0,12,525.4,1078.3)" />
<use xlink:href="#f0_1x" transform="matrix(12,0,0,12,540.8,1078.3)" />
<use xlink:href="#f0_1o" transform="matrix(12,0,0,12,554.4,1078.3)" />
<use xlink:href="#f0_1p" transform="matrix(12,0,0,12,566.5,1078.3)" />
<use xlink:href="#f0_h" transform="matrix(12,0,0,12,578.8,1078.3)" />
<use xlink:href="#f0_2c" transform="matrix(12,0,0,12,585,1078.3)" />
<use xlink:href="#f0_28" transform="matrix(12,0,0,12,596.1,1078.3)" />
<use xlink:href="#f0_1x" transform="matrix(12,0,0,12,601.5,1078.3)" />
<use xlink:href="#f0_2a" transform="matrix(12,0,0,12,610.7,1078.3)" />
<use xlink:href="#f0_21" transform="matrix(12,0,0,12,621.4,1078.3)" />
<use xlink:href="#f0_i" transform="matrix(12,0,0,12,630.1,1078.3)" />
</g>
<path fill-rule="evenodd" d="M52.8,1110.9H856.9v-27.5H52.8v27.5Z" class="g0_61" />
<g fill="#000000" >
<use xlink:href="#f3_2b" transform="matrix(12,0,0,12,55,1105.8)" />
<use xlink:href="#f0_1k" transform="matrix(12,0,0,12,82.5,1105.8)" />
<use xlink:href="#f0_24" transform="matrix(12,0,0,12,93.9,1105.8)" />
<use xlink:href="#f0_21" transform="matrix(12,0,0,12,104.6,1105.8)" />
<use xlink:href="#f0_2c" transform="matrix(12,0,0,12,117.7,1105.8)" />
<use xlink:href="#f0_2b" transform="matrix(12,0,0,12,128.7,1105.8)" />
<use xlink:href="#f0_25" transform="matrix(12,0,0,12,138.6,1105.8)" />
<use xlink:href="#f0_2a" transform="matrix(12,0,0,12,144.1,1105.8)" />
<use xlink:href="#f0_2g" transform="matrix(12,0,0,12,154.8,1105.8)" />
<use xlink:href="#f0_2f" transform="matrix(12,0,0,12,160.6,1105.8)" />
<use xlink:href="#f0_1c" transform="matrix(12,0,0,12,172.7,1105.8)" />
<use xlink:href="#f0_g" transform="matrix(12,0,0,12,183.7,1105.8)" />
<use xlink:href="#f0_1d" transform="matrix(12,0,0,12,192.8,1105.8)" />
<use xlink:href="#f0_g" transform="matrix(12,0,0,12,210.2,1105.8)" />
<use xlink:href="#f0_1e" transform="matrix(12,0,0,12,219,1105.8)" />
<use xlink:href="#f0_2j" transform="matrix(12,0,0,12,238.4,1105.8)" />
<use xlink:href="#f0_25" transform="matrix(12,0,0,12,253.8,1105.8)" />
<use xlink:href="#f0_28" transform="matrix(12,0,0,12,259.3,1105.8)" />
<use xlink:href="#f0_28" transform="matrix(12,0,0,12,264.4,1105.8)" />
<use xlink:href="#f0_28" transform="matrix(12,0,0,12,273.9,1105.8)" />
<use xlink:href="#f0_25" transform="matrix(12,0,0,12,279.4,1105.8)" />
<use xlink:href="#f0_21" transform="matrix(12,0,0,12,284.9,1105.8)" />
<use xlink:href="#f0_2b" transform="matrix(12,0,0,12,297.7,1105.8)" />
<use xlink:href="#f0_2a" transform="matrix(12,0,0,12,307.6,1105.8)" />
<use xlink:href="#f0_1x" transform="matrix(12,0,0,12,322.6,1105.8)" />
<use xlink:href="#f0_28" transform="matrix(12,0,0,12,336.2,1105.8)" />
<use xlink:href="#f0_25" transform="matrix(12,0,0,12,341.3,1105.8)" />
<use xlink:href="#f0_2a" transform="matrix(12,0,0,12,346.8,1105.8)" />
<use xlink:href="#f0_21" transform="matrix(12,0,0,12,357.5,1105.8)" />
<use xlink:href="#f0_2j" transform="matrix(12,0,0,12,370.6,1105.8)" />
<use xlink:href="#f0_24" transform="matrix(12,0,0,12,386,1105.8)" />
<use xlink:href="#f0_25" transform="matrix(12,0,0,12,396.3,1105.8)" />
<use xlink:href="#f0_1z" transform="matrix(12,0,0,12,401.8,1105.8)" />
<use xlink:href="#f0_24" transform="matrix(12,0,0,12,409.8,1105.8)" />
<use xlink:href="#f0_25" transform="matrix(12,0,0,12,424.9,1105.8)" />
<use xlink:href="#f0_2f" transform="matrix(12,0,0,12,430.4,1105.8)" />
<use xlink:href="#f0_2g" transform="matrix(12,0,0,12,442.5,1105.8)" />
<use xlink:href="#f0_24" transform="matrix(12,0,0,12,448,1105.8)" />
<use xlink:href="#f0_21" transform="matrix(12,0,0,12,458.6,1105.8)" />
<use xlink:href="#f0_25" transform="matrix(12,0,0,12,471.8,1105.8)" />
<use xlink:href="#f0_2a" transform="matrix(12,0,0,12,477.3,1105.8)" />
<use xlink:href="#f0_2g" transform="matrix(12,0,0,12,487.9,1105.8)" />
<use xlink:href="#f0_21" transform="matrix(12,0,0,12,493.8,1105.8)" />
<use xlink:href="#f0_2e" transform="matrix(12,0,0,12,502.6,1105.8)" />
<use xlink:href="#f0_2f" transform="matrix(12,0,0,12,509.9,1105.8)" />
<use xlink:href="#f0_21" transform="matrix(12,0,0,12,517.6,1105.8)" />
<use xlink:href="#f0_1z" transform="matrix(12,0,0,12,526.4,1105.8)" />
<use xlink:href="#f0_2g" transform="matrix(12,0,0,12,534.5,1105.8)" />
<use xlink:href="#f0_25" transform="matrix(12,0,0,12,540.3,1105.8)" />
<use xlink:href="#f0_2b" transform="matrix(12,0,0,12,545.8,1105.8)" />
<use xlink:href="#f0_2a" transform="matrix(12,0,0,12,555.7,1105.8)" />
<use xlink:href="#f0_2b" transform="matrix(12,0,0,12,570.7,1105.8)" />
<use xlink:href="#f0_22" transform="matrix(12,0,0,12,580.6,1105.8)" />
<use xlink:href="#f0_2g" transform="matrix(12,0,0,12,591.6,1105.8)" />
<use xlink:href="#f0_24" transform="matrix(12,0,0,12,597.5,1105.8)" />
<use xlink:href="#f0_21" transform="matrix(12,0,0,12,608.2,1105.8)" />
<use xlink:href="#f0_2c" transform="matrix(12,0,0,12,621.3,1105.8)" />
<use xlink:href="#f0_28" transform="matrix(12,0,0,12,632.4,1105.8)" />
<use xlink:href="#f0_1x" transform="matrix(12,0,0,12,637.8,1105.8)" />
<use xlink:href="#f0_2a" transform="matrix(12,0,0,12,647,1105.8)" />
<use xlink:href="#f0_21" transform="matrix(12,0,0,12,657.7,1105.8)" />
<use xlink:href="#f0_1z" transform="matrix(12,0,0,12,670.5,1105.8)" />
<use xlink:href="#f0_2b" transform="matrix(12,0,0,12,678.5,1105.8)" />
<use xlink:href="#f0_2a" transform="matrix(12,0,0,12,688.4,1105.8)" />
<use xlink:href="#f0_2g" transform="matrix(12,0,0,12,699.1,1105.8)" />
<use xlink:href="#f0_1x" transform="matrix(12,0,0,12,704.9,1105.8)" />
<use xlink:href="#f0_25" transform="matrix(12,0,0,12,714.1,1105.8)" />
<use xlink:href="#f0_2a" transform="matrix(12,0,0,12,719.6,1105.8)" />
<use xlink:href="#f0_25" transform="matrix(12,0,0,12,730.2,1105.8)" />
<use xlink:href="#f0_2a" transform="matrix(12,0,0,12,735.7,1105.8)" />
<use xlink:href="#f0_23" transform="matrix(12,0,0,12,746.4,1105.8)" />
<use xlink:href="#f0_1g" transform="matrix(12,0,0,12,761,1105.8)" />
<use xlink:href="#f0_1c" transform="matrix(12,0,0,12,772,1105.8)" />
<use xlink:href="#f0_g" transform="matrix(12,0,0,12,783,1105.8)" />
<use xlink:href="#f0_1i" transform="matrix(12,0,0,12,792.1,1105.8)" />
<use xlink:href="#f0_1e" transform="matrix(12,0,0,12,804.2,1105.8)" />
<use xlink:href="#f0_1x" transform="matrix(12,0,0,12,823.7,1105.8)" />
<use xlink:href="#f0_2a" transform="matrix(12,0,0,12,832.8,1105.8)" />
<use xlink:href="#f0_20" transform="matrix(12,0,0,12,843.5,1105.8)" />
</g>
<path fill-rule="evenodd" d="M52.8,1138.4H856.9v-27.5H52.8v27.5Z" class="g0_61" />
<g fill="#000000" >
<use xlink:href="#f0_1h" transform="matrix(12,0,0,12,82.5,1133.3)" />
<use xlink:href="#f0_1d" transform="matrix(12,0,0,12,96.8,1133.3)" />
<use xlink:href="#f0_2j" transform="matrix(12,0,0,12,118.8,1133.3)" />
<use xlink:href="#f0_25" transform="matrix(12,0,0,12,134.2,1133.3)" />
<use xlink:href="#f0_2g" transform="matrix(12,0,0,12,139.7,1133.3)" />
<use xlink:href="#f0_24" transform="matrix(12,0,0,12,145.5,1133.3)" />
<use xlink:href="#f0_2g" transform="matrix(12,0,0,12,160.9,1133.3)" />
<use xlink:href="#f0_24" transform="matrix(12,0,0,12,166.8,1133.3)" />
<use xlink:href="#f0_21" transform="matrix(12,0,0,12,177.5,1133.3)" />
<use xlink:href="#f0_1o" transform="matrix(12,0,0,12,191.1,1133.3)" />
<use xlink:href="#f0_1p" transform="matrix(12,0,0,12,203.2,1133.3)" />
<use xlink:href="#f0_h" transform="matrix(12,0,0,12,215.3,1133.3)" />
<use xlink:href="#f0_2c" transform="matrix(12,0,0,12,221.5,1133.3)" />
<use xlink:href="#f0_28" transform="matrix(12,0,0,12,232.6,1133.3)" />
<use xlink:href="#f0_1x" transform="matrix(12,0,0,12,238,1133.3)" />
<use xlink:href="#f0_2a" transform="matrix(12,0,0,12,247.2,1133.3)" />
<use xlink:href="#f0_21" transform="matrix(12,0,0,12,257.9,1133.3)" />
<use xlink:href="#f0_i" transform="matrix(12,0,0,12,266.6,1133.3)" />
</g>
<path fill-rule="evenodd" d="M52.8,1166H856.9v-27.6H52.8V1166Z" class="g0_61" />
<g fill="#000000" >
<use xlink:href="#f3_2b" transform="matrix(12,0,0,12,55,1160.8)" />
<use xlink:href="#f0_1k" transform="matrix(12,0,0,12,82.5,1160.8)" />
<use xlink:href="#f0_24" transform="matrix(12,0,0,12,93.9,1160.8)" />
<use xlink:href="#f0_2e" transform="matrix(12,0,0,12,104.6,1160.8)" />
<use xlink:href="#f0_2b" transform="matrix(12,0,0,12,111.8,1160.8)" />
<use xlink:href="#f0_2h" transform="matrix(12,0,0,12,121.7,1160.8)" />
<use xlink:href="#f0_23" transform="matrix(12,0,0,12,132.8,1160.8)" />
<use xlink:href="#f0_24" transform="matrix(12,0,0,12,143,1160.8)" />
<use xlink:href="#f0_2g" transform="matrix(12,0,0,12,158.4,1160.8)" />
<use xlink:href="#f0_24" transform="matrix(12,0,0,12,164.2,1160.8)" />
<use xlink:href="#f0_21" transform="matrix(12,0,0,12,174.9,1160.8)" />
<use xlink:href="#f0_2c" transform="matrix(12,0,0,12,188.4,1160.8)" />
<use xlink:href="#f0_2b" transform="matrix(12,0,0,12,199.4,1160.8)" />
<use xlink:href="#f0_25" transform="matrix(12,0,0,12,209.3,1160.8)" />
<use xlink:href="#f0_2a" transform="matrix(12,0,0,12,214.8,1160.8)" />
<use xlink:href="#f0_2g" transform="matrix(12,0,0,12,225.5,1160.8)" />
<use xlink:href="#f0_1i" transform="matrix(12,0,0,12,236.1,1160.8)" />
<use xlink:href="#f0_20" transform="matrix(12,0,0,12,252.6,1160.8)" />
<use xlink:href="#f0_2e" transform="matrix(12,0,0,12,263.9,1160.8)" />
<use xlink:href="#f0_1x" transform="matrix(12,0,0,12,271.2,1160.8)" />
<use xlink:href="#f0_2j" transform="matrix(12,0,0,12,280.4,1160.8)" />
<use xlink:href="#f0_1x" transform="matrix(12,0,0,12,300.2,1160.8)" />
<use xlink:href="#f0_28" transform="matrix(12,0,0,12,313.7,1160.8)" />
<use xlink:href="#f0_25" transform="matrix(12,0,0,12,319.2,1160.8)" />
<use xlink:href="#f0_2a" transform="matrix(12,0,0,12,324.7,1160.8)" />
<use xlink:href="#f0_21" transform="matrix(12,0,0,12,335.4,1160.8)" />
<use xlink:href="#f0_1j" transform="matrix(12,0,0,12,348.5,1160.8)" />
<use xlink:href="#f0_1k" transform="matrix(12,0,0,12,358.1,1160.8)" />
<use xlink:href="#f0_2c" transform="matrix(12,0,0,12,374.5,1160.8)" />
<use xlink:href="#f0_1x" transform="matrix(12,0,0,12,385.5,1160.8)" />
<use xlink:href="#f0_2e" transform="matrix(12,0,0,12,394.7,1160.8)" />
<use xlink:href="#f0_1x" transform="matrix(12,0,0,12,402,1160.8)" />
<use xlink:href="#f0_28" transform="matrix(12,0,0,12,410.8,1160.8)" />
<use xlink:href="#f0_28" transform="matrix(12,0,0,12,416.3,1160.8)" />
<use xlink:href="#f0_21" transform="matrix(12,0,0,12,421.8,1160.8)" />
<use xlink:href="#f0_28" transform="matrix(12,0,0,12,430.2,1160.8)" />
<use xlink:href="#f0_2g" transform="matrix(12,0,0,12,440.4,1160.8)" />
<use xlink:href="#f0_2b" transform="matrix(12,0,0,12,446.3,1160.8)" />
<use xlink:href="#f0_2g" transform="matrix(12,0,0,12,460.6,1160.8)" />
<use xlink:href="#f0_24" transform="matrix(12,0,0,12,466.4,1160.8)" />
<use xlink:href="#f0_21" transform="matrix(12,0,0,12,477.1,1160.8)" />
<use xlink:href="#f0_28" transform="matrix(12,0,0,12,490.6,1160.8)" />
<use xlink:href="#f0_25" transform="matrix(12,0,0,12,495.8,1160.8)" />
<use xlink:href="#f0_2a" transform="matrix(12,0,0,12,501.2,1160.8)" />
<use xlink:href="#f0_21" transform="matrix(12,0,0,12,511.9,1160.8)" />
<use xlink:href="#f0_1c" transform="matrix(12,0,0,12,525.4,1160.8)" />
<use xlink:href="#f0_1d" transform="matrix(12,0,0,12,536.8,1160.8)" />
<use xlink:href="#f0_i" transform="matrix(12,0,0,12,553.6,1160.8)" />
</g>
<path fill-rule="evenodd" d="M52.8,1193.5H856.9V1166H52.8v27.5Z" class="g0_61" />
<g fill="#000000" >
<use xlink:href="#f3_2b" transform="matrix(12,0,0,12,55,1188.3)" />
<use xlink:href="#f0_1c" transform="matrix(12,0,0,12,82.5,1188.3)" />
<use xlink:href="#f0_25" transform="matrix(12,0,0,12,93.9,1188.3)" />
<use xlink:href="#f0_2a" transform="matrix(12,0,0,12,99.4,1188.3)" />
<use xlink:href="#f0_21" transform="matrix(12,0,0,12,110,1188.3)" />
<use xlink:href="#f0_1j" transform="matrix(12,0,0,12,123.5,1188.3)" />
<use xlink:href="#f0_1k" transform="matrix(12,0,0,12,133.1,1188.3)" />
<use xlink:href="#f0_2j" transform="matrix(12,0,0,12,148.8,1188.3)" />
<use xlink:href="#f0_25" transform="matrix(12,0,0,12,163.9,1188.3)" />
<use xlink:href="#f0_28" transform="matrix(12,0,0,12,169.3,1188.3)" />
<use xlink:href="#f0_28" transform="matrix(12,0,0,12,174.5,1188.3)" />
<use xlink:href="#f0_25" transform="matrix(12,0,0,12,184.4,1188.3)" />
<use xlink:href="#f0_2a" transform="matrix(12,0,0,12,189.8,1188.3)" />
<use xlink:href="#f0_2g" transform="matrix(12,0,0,12,200.5,1188.3)" />
<use xlink:href="#f0_21" transform="matrix(12,0,0,12,206.3,1188.3)" />
<use xlink:href="#f0_2e" transform="matrix(12,0,0,12,215.1,1188.3)" />
<use xlink:href="#f0_2f" transform="matrix(12,0,0,12,222.5,1188.3)" />
<use xlink:href="#f0_21" transform="matrix(12,0,0,12,230.2,1188.3)" />
<use xlink:href="#f0_1z" transform="matrix(12,0,0,12,238.9,1188.3)" />
<use xlink:href="#f0_2g" transform="matrix(12,0,0,12,247,1188.3)" />
<use xlink:href="#f0_2g" transform="matrix(12,0,0,12,257.6,1188.3)" />
<use xlink:href="#f0_24" transform="matrix(12,0,0,12,263.5,1188.3)" />
<use xlink:href="#f0_21" transform="matrix(12,0,0,12,274.2,1188.3)" />
<use xlink:href="#f0_28" transform="matrix(12,0,0,12,287.9,1188.3)" />
<use xlink:href="#f0_25" transform="matrix(12,0,0,12,293.4,1188.3)" />
<use xlink:href="#f0_2a" transform="matrix(12,0,0,12,298.9,1188.3)" />
<use xlink:href="#f0_21" transform="matrix(12,0,0,12,309.6,1188.3)" />
<use xlink:href="#f0_1c" transform="matrix(12,0,0,12,322.7,1188.3)" />
<use xlink:href="#f0_1g" transform="matrix(12,0,0,12,334.1,1188.3)" />
<use xlink:href="#f0_21" transform="matrix(12,0,0,12,349.4,1188.3)" />
<use xlink:href="#f0_2k" transform="matrix(12,0,0,12,358.2,1188.3)" />
<use xlink:href="#f0_2g" transform="matrix(12,0,0,12,367.8,1188.3)" />
<use xlink:href="#f0_21" transform="matrix(12,0,0,12,373.8,1188.3)" />
<use xlink:href="#f0_2e" transform="matrix(12,0,0,12,382.6,1188.3)" />
<use xlink:href="#f0_2a" transform="matrix(12,0,0,12,389.9,1188.3)" />
<use xlink:href="#f0_1x" transform="matrix(12,0,0,12,400.6,1188.3)" />
<use xlink:href="#f0_28" transform="matrix(12,0,0,12,409.7,1188.3)" />
<use xlink:href="#f0_28" transform="matrix(12,0,0,12,414.8,1188.3)" />
<use xlink:href="#f0_2l" transform="matrix(12,0,0,12,420.3,1188.3)" />
<use xlink:href="#f0_1x" transform="matrix(12,0,0,12,435.3,1188.3)" />
<use xlink:href="#f0_2g" transform="matrix(12,0,0,12,444.5,1188.3)" />
<use xlink:href="#f0_2g" transform="matrix(12,0,0,12,454.4,1188.3)" />
<use xlink:href="#f0_24" transform="matrix(12,0,0,12,460.2,1188.3)" />
<use xlink:href="#f0_21" transform="matrix(12,0,0,12,470.9,1188.3)" />
<use xlink:href="#f0_2c" transform="matrix(12,0,0,12,484.4,1188.3)" />
<use xlink:href="#f0_2b" transform="matrix(12,0,0,12,495.4,1188.3)" />
<use xlink:href="#f0_25" transform="matrix(12,0,0,12,505.3,1188.3)" />
<use xlink:href="#f0_2a" transform="matrix(12,0,0,12,510.8,1188.3)" />
<use xlink:href="#f0_2g" transform="matrix(12,0,0,12,521.5,1188.3)" />
<use xlink:href="#f0_1j" transform="matrix(12,0,0,12,532.1,1188.3)" />
<use xlink:href="#f0_1x" transform="matrix(12,0,0,12,546.3,1188.3)" />
<use xlink:href="#f0_2a" transform="matrix(12,0,0,12,555.5,1188.3)" />
<use xlink:href="#f0_20" transform="matrix(12,0,0,12,566.2,1188.3)" />
<use xlink:href="#f0_2g" transform="matrix(12,0,0,12,582.2,1188.3)" />
<use xlink:href="#f0_24" transform="matrix(12,0,0,12,588.1,1188.3)" />
<use xlink:href="#f0_21" transform="matrix(12,0,0,12,598.8,1188.3)" />
<use xlink:href="#f0_28" transform="matrix(12,0,0,12,611.9,1188.3)" />
<use xlink:href="#f0_25" transform="matrix(12,0,0,12,617.1,1188.3)" />
<use xlink:href="#f0_2a" transform="matrix(12,0,0,12,622.5,1188.3)" />
<use xlink:href="#f0_21" transform="matrix(12,0,0,12,633.2,1188.3)" />
<use xlink:href="#f0_1d" transform="matrix(12,0,0,12,646.7,1188.3)" />
<use xlink:href="#f0_1h" transform="matrix(12,0,0,12,663.9,1188.3)" />
<use xlink:href="#f0_1x" transform="matrix(12,0,0,12,683.4,1188.3)" />
<use xlink:href="#f0_2g" transform="matrix(12,0,0,12,692.5,1188.3)" />
<use xlink:href="#f0_1k" transform="matrix(12,0,0,12,703.1,1188.3)" />
</g>
<image preserveAspectRatio="none" x="55" y="191" width="286" height="120" xlink:href="img/1.png" />
<image preserveAspectRatio="none" x="193" y="499" width="536" height="132" xlink:href="img/2.png" />
<image preserveAspectRatio="none" x="55" y="815" width="212" height="228" xlink:href="img/3.png" />
<path fill-rule="evenodd" d="M37.4,38.1h.7v-.7h-.7v.7Z" class="g1_61" />
<path fill-rule="evenodd" d="M37.4,38.1h.7v-.7h-.7v.7Z" class="g1_61" />
<path fill-rule="evenodd" d="M871.5,38.1h.8v-.7h-.8v.7Z" class="g1_61" />
<path fill-rule="evenodd" d="M871.5,38.1h.8v-.7h-.8v.7Z" class="g1_61" />
<path fill-rule="evenodd" d="M872.3,1248.5h.7V38.1h-.7V1248.5Z" class="g2_61" />
<path fill-rule="evenodd" d="M37.4,1249.2h.7v-.7h-.7v.7Z" class="g1_61" />
<path fill-rule="evenodd" d="M37.4,1249.2h.7v-.7h-.7v.7Z" class="g1_61" />
<path fill-rule="evenodd" d="M38.1,1249.9H871.5v-.7H38.1v.7Z" class="g2_61" />
<path fill-rule="evenodd" d="M872.3,1249.9h.7v-1.4h-.7v1.4Z" class="g2_61" />
<path fill-rule="evenodd" d="M871.5,1249.9H873v-.7h-1.5v.7Z" class="g2_61" />
<path fill-rule="evenodd" d="M871.5,1249.2h.8v-.7h-.8v.7Z" class="g1_61" />
<path fill-rule="evenodd" d="M871.5,1249.2h.8v-.7h-.8v.7Z" class="g1_61" />
<g fill="#000000" >
<use xlink:href="#f5_p" transform="matrix(8,0,0,8,792.5,1225.6)" />
</g>
<defs>
<path d="M28,-4V42H88c0,0,64,0,78,25c0,0,15,24,15,179V809c0,0,0,151,-16,176c0,0,-16,24,-83,24H28v47c0,0,124,-5,223,-5l429,8c0,0,67,0,127,-7c0,0,-24,-79,-27,-225H732c0,0,-4,77,-18,139c0,0,-102,26,-206,26c0,0,-91,0,-178,-9c0,0,-9,-97,-9,-176V569c0,0,45,-2,88,-2c0,0,112,0,196,6c0,0,29,2,39,12c0,0,10,11,16,58l8,57h47c0,0,-6,-136,-6,-175l1,-176H661v57c0,0,0,69,-26,84c0,0,-26,15,-201,15c0,0,-47,0,-113,-2V246c0,0,0,-153,16,-178c0,0,16,-26,83,-26h53V-4c0,0,-141,4,-225,4C248,0,163,0,28,-4Z" 
id="f0_16"
transform="scale(0.001,-0.001)" />

<path d="M38,-4V38l64,7c0,0,37,3,46,14c0,0,8,11,11,72c0,0,3,95,3,262c0,0,0,116,-3,178c0,0,-2,24,-13,33c0,0,-12,10,-52,10H38v43c0,0,91,13,134,24c0,0,43,11,110,38l18,-12c0,0,-5,-55,-6,-123c0,0,-6,-217,-6,-321c0,0,0,-97,7,-165c0,0,3,-27,14,-37c0,0,11,-11,54,-16l51,-7V-4c0,0,-109,4,-199,4C215,0,128,0,38,-4ZM222,880c0,0,-35,0,-59,25c0,0,-25,24,-25,59c0,0,0,35,25,60c0,0,24,25,59,25c0,0,35,0,59,-25c0,0,25,-25,25,-60c0,0,0,-35,-25,-59c0,0,-24,-25,-59,-25Z" 
id="f0_25"
transform="scale(0.001,-0.001)" />

<path d="M20,-4V38H73c0,0,55,0,64,26c0,0,10,26,10,310c0,0,0,127,-3,199c0,0,-2,24,-12,33c0,0,-11,9,-59,9H20v43c0,0,63,7,114,20c0,0,50,13,114,39c0,0,6,3,12,3c0,0,12,0,12,-18l-1,-28L270,573L383,673c0,0,20,18,42,26c0,0,49,17,99,17c0,0,80,0,138,-33c0,0,58,-32,84,-84c0,0,25,-52,25,-162L768,202c0,0,0,-121,10,-140c0,0,14,-24,55,-24h53V-4c0,0,-79,4,-137,4c0,0,-56,0,-121,-4c0,0,14,144,14,392c0,0,0,100,-18,141c0,0,-17,42,-59,68c0,0,-41,25,-99,25c0,0,-73,0,-123,-37c0,0,-51,-36,-63,-80c0,0,-7,-29,-7,-152c0,0,0,-137,2,-254c0,0,1,-35,10,-44c0,0,19,-17,62,-17h53V-4c0,0,-126,4,-201,4C199,0,120,0,20,-4Z" 
id="f0_2a"
transform="scale(0.001,-0.001)" />

<path d="M431,74c0,0,59,0,109,33c0,0,50,34,73,87c0,0,23,53,23,166V542c0,0,-51,55,-107,83c0,0,-55,27,-115,27c0,0,-98,0,-157,-71c0,0,-59,-71,-59,-208c0,0,0,-140,68,-219c0,0,68,-80,165,-80ZM363,-19c0,0,-126,0,-211,94c0,0,-85,95,-85,253c0,0,0,99,33,169c0,0,33,70,78,102c0,0,46,32,142,80c0,0,73,37,136,37c0,0,42,0,87,-11c0,0,45,-12,93,-35V941c0,0,0,47,-10,59c0,0,-11,12,-48,12H514v45c0,0,133,9,248,55l14,-9c0,0,-6,-76,-9,-184L764,721l-2,-65V211c0,0,0,-125,8,-139c0,0,11,-20,61,-27l53,-7V-4c0,0,-92,6,-162,6c0,0,-12,0,-94,-6c0,0,5,50,8,142C636,138,573,89,475,1c0,0,-64,-20,-112,-20Z" 
id="f0_20"
transform="scale(0.001,-0.001)" />

<path d="M315,-19c0,0,-55,0,-94,19c0,0,-38,20,-55,52c0,0,-17,31,-17,96l3,144V575c0,0,-58,0,-119,-5v32c0,0,64,24,119,51c0,0,-1,107,-6,232c0,0,87,36,125,59l19,-15c0,0,-6,-59,-12,-276c0,0,91,0,148,2l60,3l-8,-76l-31,1L304,582H278V289c0,0,0,-115,7,-147c0,0,8,-32,30,-50c0,0,23,-18,58,-18c0,0,22,0,43,9c0,0,20,8,40,26L478,83L405,-1c0,0,-24,-8,-46,-13c0,0,-23,-5,-44,-5Z" 
id="f0_2g"
transform="scale(0.001,-0.001)" />

<path d="M23,-4V38l47,6c0,0,44,5,56,12c0,0,11,7,14,33c0,0,6,40,6,180V772c0,0,0,199,-11,223c0,0,-6,16,-60,16H23v46c0,0,116,12,185,34l62,21c0,0,12,0,12,-16l-3,-31L275,931c0,0,-4,-101,-4,-157V574l98,86c0,0,34,32,67,44c0,0,33,12,80,12c0,0,83,0,144,-33c0,0,61,-34,84,-85c0,0,24,-52,24,-177L763,201c0,0,0,-75,6,-118c0,0,2,-18,12,-27c0,0,10,-9,44,-12l56,-6V-4c0,0,-72,4,-141,4c0,0,-59,0,-117,-4c0,0,14,186,14,367c0,0,0,122,-15,165c0,0,-16,43,-55,69c0,0,-40,25,-100,25c0,0,-62,0,-113,-30c0,0,-50,-29,-70,-68c0,0,-13,-27,-13,-131V263c0,0,0,-177,8,-196c0,0,8,-18,60,-23l65,-6V-4c0,0,-117,4,-187,4C217,0,143,0,23,-4Z" 
id="f0_24"
transform="scale(0.001,-0.001)" />

<path d="M442,407c0,0,56,0,108,5v42c0,0,0,65,-26,124c0,0,-17,37,-58,61c0,0,-41,24,-95,24c0,0,-84,0,-134,-61c0,0,-50,-61,-51,-190c0,0,116,-5,256,-5ZM380,-19c0,0,-152,0,-245,95c0,0,-93,96,-93,260c0,0,0,125,52,217c0,0,35,60,127,111c0,0,93,52,180,52c0,0,132,0,210,-78c0,0,77,-77,77,-217l-2,-44c0,0,-49,-11,-94,-15c0,0,-80,-6,-222,-6H184c0,0,4,-147,75,-222c0,0,72,-76,188,-76c0,0,53,0,104,17c0,0,52,17,103,51l12,-12L642,52C642,52,580,16,515,-1c0,0,-66,-18,-135,-18Z" 
id="f0_21"
transform="scale(0.001,-0.001)" />

<path d="M280,-19c0,0,-92,0,-206,28C74,9,54,14,54,25l2,10c0,0,3,11,5,40c0,0,7,73,7,113l-1,36h46V175c0,0,0,-58,11,-73c0,0,19,-24,75,-46c0,0,57,-23,116,-23c0,0,77,0,125,42c0,0,49,41,49,99c0,0,0,45,-28,73c0,0,-29,27,-108,44c0,0,-148,29,-196,52c0,0,-48,22,-72,60c0,0,-23,37,-23,90c0,0,0,99,72,161c0,0,72,62,204,62c0,0,105,0,209,-42c0,0,-7,-51,-11,-170H491c0,0,-2,65,-14,86c0,0,-17,28,-63,50c0,0,-45,23,-96,23c0,0,-68,0,-108,-35c0,0,-41,-34,-41,-87c0,0,0,-50,32,-75c0,0,32,-26,177,-55c0,0,107,-22,142,-40c0,0,34,-19,55,-57c0,0,20,-38,20,-87c0,0,0,-101,-86,-174c0,0,-86,-72,-229,-72Z" 
id="f0_2f"
transform="scale(0.001,-0.001)" />

<path d="M296,69c0,0,56,0,107,32c0,0,51,31,97,93l-2,165l2,36c0,0,-207,-45,-263,-84c0,0,-56,-39,-56,-120c0,0,0,-55,32,-88c0,0,32,-34,83,-34ZM249,-19c0,0,-97,0,-147,47c0,0,-51,47,-51,127c0,0,0,75,36,131c0,0,36,56,103,83c0,0,67,27,310,70c0,0,-2,95,-42,142c0,0,-51,58,-145,58c0,0,-35,0,-67,-8c0,0,-31,-9,-58,-27c0,0,-21,-53,-39,-101l-42,11V615l81,46c0,0,55,32,97,44c0,0,41,12,88,12c0,0,103,0,166,-47c0,0,63,-46,76,-117c0,0,9,-54,11,-267c0,0,2,-200,9,-221c0,0,7,-21,37,-21h59V-4c0,0,-85,4,-119,4c0,0,-42,0,-112,-4l1,66c0,0,0,32,-1,65L345,9c0,0,-20,-15,-41,-21c0,0,-20,-7,-55,-7Z" 
id="f0_1x"
transform="scale(0.001,-0.001)" />

<path d="M380,-19c0,0,-110,0,-187,41c0,0,-76,42,-118,121c0,0,-42,79,-42,188c0,0,0,96,32,167c0,0,32,71,90,111c0,0,58,40,145,79c0,0,61,28,137,28c0,0,57,0,99,-10c0,0,41,-9,89,-33c0,0,-19,-99,-21,-198H557v38c0,0,0,47,-13,67c0,0,-14,20,-63,39c0,0,-50,20,-108,20c0,0,-101,0,-155,-62c0,0,-55,-61,-55,-183c0,0,0,-157,81,-251c0,0,72,-85,187,-85c0,0,44,0,88,11c0,0,43,11,86,32L625,83L594,35C594,35,543,8,490,-5c0,0,-54,-14,-110,-14Z" 
id="f0_1z"
transform="scale(0.001,-0.001)" />

<path d="M450,58c0,0,109,0,168,87c0,0,60,87,60,211c0,0,0,130,-58,198c0,0,-57,68,-155,68c0,0,-65,0,-119,-37c0,0,-53,-38,-74,-87c0,0,-7,-20,-7,-90V239c0,0,0,-81,6,-93c0,0,12,-24,64,-56c0,0,53,-32,115,-32ZM403,-19c0,0,-56,0,-100,15c0,0,-45,14,-93,51L150,-8L124,1c0,0,15,115,15,242V717c0,0,0,110,-7,225c0,0,-3,53,-12,62c0,0,-10,10,-44,10H12v42c0,0,64,7,134,22c0,0,47,9,101,30c0,0,8,4,14,4c0,0,16,0,16,-29l-4,-37c0,0,-5,-43,-6,-64c0,0,-2,-96,-2,-263V561l91,91c0,0,29,29,76,46c0,0,48,18,101,18c0,0,120,0,198,-83c0,0,77,-83,77,-220c0,0,0,-75,-27,-146c0,0,-27,-71,-66,-115c0,0,-18,-21,-100,-80C615,72,534,12,510,1c0,0,-45,-20,-107,-20Z" 
id="f0_1y"
transform="scale(0.001,-0.001)" />

<path d="M313,-11c0,0,-63,215,-142,469L123,607c0,0,-9,25,-28,38c0,0,-19,13,-44,13H14v43c0,0,118,-5,182,-5c0,0,62,0,183,5V658H338c0,0,-46,0,-63,-10c0,0,-13,-8,-13,-24c0,0,0,-37,127,-462L550,514c0,0,37,82,84,200h37c0,0,32,-91,66,-175L891,149l114,306c0,0,33,90,43,135c0,0,3,19,3,30c0,0,0,17,-15,28c0,0,-15,10,-47,10H939v43c0,0,98,-5,174,-5c0,0,66,0,127,5V658h-34c0,0,-26,0,-49,-26c0,0,-23,-27,-129,-274c0,0,-88,-207,-137,-369H818c0,0,-33,92,-109,282L614,511C614,511,510,290,446,138c0,0,-29,-68,-57,-149Z" 
id="f0_2j"
transform="scale(0.001,-0.001)" />

<path d="M487,58c0,0,118,0,180,88c0,0,63,89,63,211c0,0,0,82,-29,140c0,0,-29,59,-84,92c0,0,-55,33,-118,33c0,0,-45,0,-87,-18c0,0,-43,-18,-75,-49c0,0,-32,-32,-41,-59c0,0,-7,-20,-7,-106V156c0,0,48,-54,96,-76c0,0,47,-22,102,-22ZM30,-410v42H85c0,0,57,0,68,25c0,0,10,25,10,262V376c0,0,0,119,-6,184c0,0,-3,31,-14,41c0,0,-12,10,-54,10H30v46c0,0,104,11,205,43l45,18c0,0,12,0,12,-21l-2,-79l-1,-53l105,93c0,0,39,35,67,44c0,0,44,14,102,14c0,0,133,0,215,-82c0,0,82,-82,82,-212c0,0,0,-65,-19,-128c0,0,-19,-63,-45,-102c0,0,-27,-40,-61,-67c0,0,-11,-9,-90,-59L615,45C615,45,558,5,524,-6c0,0,-35,-13,-80,-13c0,0,-35,0,-73,11c0,0,-39,9,-82,28V-84c0,0,0,-162,5,-228c0,0,2,-29,19,-43c0,0,16,-13,69,-13h40v-42c0,0,-141,5,-207,5c0,0,-72,0,-185,-5Z" 
id="f0_2c"
transform="scale(0.001,-0.001)" />

<path d="M439,33c0,0,90,0,146,69c0,0,55,69,55,208c0,0,0,113,-32,195c0,0,-33,83,-87,120c0,0,-54,38,-120,38c0,0,-59,0,-107,-30c0,0,-47,-30,-70,-80c0,0,-30,-68,-30,-147c0,0,0,-154,63,-263c0,0,63,-110,182,-110ZM390,-19c0,0,-149,0,-243,100c0,0,-93,100,-93,272c0,0,0,103,48,186c0,0,47,83,133,130c0,0,87,47,196,47c0,0,159,0,255,-94c0,0,95,-94,95,-250c0,0,0,-185,-124,-294c0,0,-112,-97,-267,-97Z" 
id="f0_2b"
transform="scale(0.001,-0.001)" />

<path d="M34,-4V42h67c0,0,47,0,60,12c0,0,14,11,18,47c0,0,3,35,8,216V715l-2,155c0,0,-2,96,-21,117c0,0,-19,22,-93,22H34v47c0,0,93,-4,237,-4c0,0,84,0,187,5c0,0,68,3,103,3c0,0,180,0,262,-66c0,0,81,-65,81,-177c0,0,0,-81,-47,-156c0,0,-47,-75,-133,-121c0,0,-86,-45,-184,-45c0,0,-44,0,-111,14l-15,56c0,0,65,-16,109,-16c0,0,103,0,164,62c0,0,60,62,60,170c0,0,0,104,-65,163c0,0,-64,58,-192,58c0,0,-72,0,-158,-27c0,0,-5,-108,-5,-229V320c0,0,0,-224,13,-251c0,0,13,-27,88,-27h51V-4c0,0,-132,4,-207,4C272,0,205,0,34,-4Z" 
id="f0_1g"
transform="scale(0.001,-0.001)" />

<path d="M443,-410c0,0,-126,125,-192,236c0,0,-66,111,-102,245c0,0,-37,134,-37,284c0,0,0,172,48,318c0,0,47,146,118,247c0,0,72,101,170,192l32,-41c0,0,-87,-103,-136,-204c0,0,-50,-100,-76,-219c0,0,-25,-120,-25,-275c0,0,0,-165,23,-291c0,0,24,-125,69,-222c0,0,44,-97,145,-233l-37,-37Z" 
id="f0_c"
transform="scale(0.001,-0.001)" />

<path d="M127,-4V44l58,2c0,0,101,3,121,29c0,0,20,25,19,204l5,414c0,0,0,207,-4,228c0,0,-3,13,-14,13c0,0,-7,0,-34,-12c0,0,-127,-55,-174,-82c0,0,-33,-19,-39,-19c0,0,-9,0,-11,12l-5,73c0,0,235,70,401,157l21,-10l-3,-84L461,539L456,245c0,0,0,-105,9,-140c0,0,9,-34,28,-46c0,0,20,-11,95,-13l68,-2V-4c0,0,-187,4,-266,4c0,0,-90,0,-263,-4Z" 
id="f0_l"
transform="scale(0.001,-0.001)" />

<path d="M33,-221l-22,23c0,0,65,100,95,182c0,0,30,80,41,175c0,0,86,21,152,47l21,-22C320,184,277,80,228,-2c0,0,-50,-84,-132,-187L33,-221Z" 
id="f0_g"
transform="scale(0.001,-0.001)" />

<path d="M59,297L49,308c0,0,22,58,37,108c0,0,111,-5,267,-5c0,0,209,0,355,5l7,-12c0,0,-25,-55,-38,-107c0,0,-102,7,-277,7c0,0,-228,0,-341,-7Z" 
id="f1_4z"
transform="scale(0.001,-0.001)" />

<path d="M264,-19c0,0,-46,0,-92,10c0,0,-45,9,-91,28c0,0,-15,91,-60,224l41,17c0,0,47,-108,75,-142c0,0,29,-33,76,-53c0,0,46,-20,111,-20c0,0,112,0,175,69c0,0,63,69,63,193c0,0,0,105,-54,162c0,0,-53,58,-140,58c0,0,-67,0,-142,-38l-10,7l14,86c0,0,39,-5,59,-5c0,0,91,0,149,57c0,0,58,56,58,148c0,0,0,83,-50,134c0,0,-51,50,-133,50c0,0,-54,0,-103,-23c0,0,-50,-24,-74,-54c0,0,-10,-13,-25,-60L93,776H47L87,959c0,0,48,56,113,84c0,0,65,28,148,28c0,0,126,0,199,-65c0,0,73,-65,73,-160c0,0,0,-65,-31,-120c0,0,-32,-56,-128,-135c0,0,48,0,98,-19c0,0,70,-26,106,-79c0,0,36,-52,36,-126c0,0,0,-150,-129,-268C572,99,443,-19,264,-19Z" 
id="f0_n"
transform="scale(0.001,-0.001)" />

<path d="M254,367c0,0,63,0,168,3V902C422,902,259,665,100,370c0,0,86,-3,154,-3ZM235,-4V38l80,5c0,0,67,3,80,12c0,0,14,9,18,33c0,0,9,40,9,149v39c0,0,-288,0,-407,-8L2,313c0,0,120,212,196,335c0,0,75,124,236,374c0,0,40,11,103,41l21,-9c0,0,-4,-87,-5,-302V370c0,0,96,0,166,8c0,0,-4,-35,-4,-49c0,0,0,-10,5,-61c0,0,-80,8,-167,8c0,0,0,-183,12,-206c0,0,12,-23,79,-27l77,-5V-4c0,0,-142,4,-243,4c0,0,-40,0,-243,-4Z" 
id="f0_o"
transform="scale(0.001,-0.001)" />

<path d="M61,-410l-32,41c0,0,87,103,136,203c0,0,50,101,76,219c0,0,26,120,26,275c0,0,0,165,-24,291c0,0,-25,127,-69,224c0,0,-45,97,-145,231l38,38c0,0,124,-124,191,-236c0,0,66,-111,103,-246c0,0,36,-134,36,-284c0,0,0,-172,-47,-317c0,0,-47,-145,-119,-246c0,0,-72,-101,-170,-193Z" 
id="f0_d"
transform="scale(0.001,-0.001)" />

<path d="M623,47c0,0,115,0,201,53c0,0,86,53,135,157c0,0,49,104,49,255c0,0,0,158,-54,270c0,0,-55,112,-150,168c0,0,-94,56,-224,56c0,0,-119,0,-205,-50c0,0,-86,-50,-134,-146c0,0,-49,-96,-49,-222c0,0,0,-168,57,-292c0,0,58,-125,154,-187c0,0,96,-62,220,-62Zm414,-311c0,0,-65,8,-117,22c0,0,-53,14,-159,53c0,0,-176,64,-237,64c0,0,-17,0,-36,-7c0,0,-19,-8,-95,-50v49c0,0,128,86,183,114c0,0,-169,0,-288,66c0,0,-119,67,-187,191c0,0,-67,124,-67,290c0,0,0,243,158,393c0,0,159,150,422,150c0,0,258,0,405,-139c0,0,147,-139,147,-371c0,0,0,-177,-87,-311c0,0,-86,-134,-225,-205C854,45,754,-6,616,-19c0,0,85,-22,178,-60c0,0,193,-78,279,-78c0,0,29,0,88,14v-39c0,0,-84,-43,-124,-82Z" 
id="f0_1h"
transform="scale(0.001,-0.001)" />

<path d="M30,-4V37L289,305c0,0,147,152,197,247c0,0,49,95,49,176c0,0,0,101,-58,161c0,0,-58,60,-153,60c0,0,-63,0,-113,-22c0,0,-37,-16,-53,-41c0,0,-15,-25,-46,-139H67c0,0,23,146,25,211c0,0,56,59,121,86c0,0,65,27,147,27c0,0,144,0,230,-82c0,0,85,-82,85,-214c0,0,0,-115,-77,-225c0,0,-77,-111,-259,-278L194,123H466c0,0,174,0,260,11l8,-7c0,0,-7,-42,-7,-60c0,0,0,-14,7,-67l-8,-4c0,0,-148,4,-328,4C398,0,209,0,30,-4Z" 
id="f0_m"
transform="scale(0.001,-0.001)" />

<path d="M192,-19c0,0,-37,0,-63,25c0,0,-25,26,-25,62c0,0,0,37,25,62c0,0,26,25,63,25c0,0,36,0,61,-25c0,0,26,-25,26,-62c0,0,0,-36,-26,-62c0,0,-25,-25,-61,-25Z" 
id="f0_i"
transform="scale(0.001,-0.001)" />

<path d="M409,-19c0,0,-94,0,-170,18c0,0,-76,17,-157,58c0,0,13,52,18,95c0,0,6,59,7,159h65c0,0,1,-111,7,-130c0,0,7,-19,43,-50c0,0,37,-31,95,-50c0,0,58,-19,119,-19c0,0,105,0,168,56c0,0,63,55,63,139c0,0,0,77,-42,118c0,0,-42,41,-161,58c0,0,-176,25,-237,55c0,0,-61,30,-97,90c0,0,-35,59,-35,143c0,0,0,140,98,238c0,0,99,97,316,97c0,0,84,0,150,-13c0,0,66,-12,132,-42l8,-17c0,0,-12,-47,-17,-86c0,0,-5,-38,-9,-131H709c0,0,-4,115,-11,129c0,0,-14,24,-72,52c0,0,-58,27,-132,27c0,0,-102,0,-158,-50c0,0,-56,-49,-56,-128c0,0,0,-47,23,-83c0,0,23,-35,64,-52c0,0,42,-17,178,-38c0,0,124,-19,168,-37c0,0,72,-29,109,-89c0,0,37,-59,37,-150c0,0,0,-158,-120,-263C739,85,618,-19,409,-19Z" 
id="f2_1j"
transform="scale(0.001,-0.001)" />

<path d="M437,53c0,0,69,0,107,55c0,0,38,55,38,201c0,0,0,200,-46,277c0,0,-38,61,-119,61c0,0,-69,0,-109,-56c0,0,-40,-56,-40,-190c0,0,0,-199,51,-283c0,0,39,-65,118,-65ZM415,-20c0,0,-173,0,-263,94c0,0,-90,95,-90,276c0,0,0,177,82,265c0,0,99,106,286,106c0,0,187,0,272,-85c0,0,86,-84,86,-266c0,0,0,-188,-99,-289C689,81,591,-20,415,-20Z" 
id="f2_2b"
transform="scale(0.001,-0.001)" />

<path d="M42,-4V57l55,3c0,0,38,1,48,14c0,0,11,12,14,93c0,0,3,113,3,321V806c0,0,-1,146,-9,165c0,0,-3,9,-11,13c0,0,-13,8,-100,11v43c0,0,106,15,167,29c0,0,61,15,131,43l20,-17c0,0,-11,-266,-11,-744c0,0,0,-96,3,-195c0,0,1,-62,7,-72c0,0,6,-10,18,-16c0,0,12,-6,88,-9V-4l-78,3c0,0,-73,1,-122,1L42,-4Z" 
id="f2_28"
transform="scale(0.001,-0.001)" />

<path d="M357,-20c0,0,-68,0,-119,27c0,0,-51,28,-75,72c0,0,-24,44,-24,125l1,81c0,0,3,76,3,123c0,0,0,132,-6,159c0,0,-3,17,-15,24c0,0,-12,7,-93,8v58c0,0,120,11,223,42l74,27c0,0,13,0,13,-18l-3,-44c0,0,-12,-171,-12,-331c0,0,0,-103,10,-137c0,0,10,-34,38,-52c0,0,27,-19,72,-19c0,0,53,0,93,29c0,0,40,29,49,64c0,0,9,35,9,200c0,0,0,132,-4,155c0,0,-3,11,-10,16c0,0,-12,6,-102,10v58c0,0,153,17,224,40l79,29c0,0,13,0,13,-16l-2,-20c0,0,-12,-130,-12,-471c0,0,0,-105,6,-132c0,0,4,-12,12,-18c0,0,12,-6,94,-12V-4c0,0,-86,4,-170,4c0,0,-68,0,-127,-4L590,9c0,0,3,37,5,117C595,126,526,70,461,3c0,0,-52,-23,-104,-23Z" 
id="f2_2h"
transform="scale(0.001,-0.001)" />

<path d="M294,-20c0,0,-63,0,-105,21c0,0,-42,22,-61,56c0,0,-19,34,-19,102c0,0,0,36,3,188c0,0,4,134,4,211l-38,2c0,0,-23,0,-60,-5v39l98,65c0,0,-1,132,-7,231c0,0,102,31,192,76l23,-17c0,0,-17,-108,-23,-290c0,0,34,-6,68,-6c0,0,76,0,137,10l6,-5l-6,-26c0,0,-12,-42,-17,-77c0,0,-87,6,-128,6c0,0,-31,0,-60,-3c0,0,-1,-75,-1,-132c0,0,0,-251,15,-285c0,0,14,-34,70,-34c0,0,17,0,36,3c0,0,19,4,41,11L474,92c0,0,-45,-50,-87,-103c0,0,-28,-4,-51,-6c0,0,-23,-3,-42,-3Z" 
id="f2_2g"
transform="scale(0.001,-0.001)" />

<path d="M47,-4V57c0,0,84,3,97,10c0,0,13,8,17,42c0,0,6,47,6,207c0,0,0,70,-2,129l-2,87c0,0,0,43,-10,54c0,0,-9,10,-50,11l-56,2v58c0,0,180,14,296,64l19,-15c0,0,-11,-143,-11,-416c0,0,0,-157,5,-190c0,0,4,-23,14,-30c0,0,10,-7,97,-13V-4c0,0,-134,4,-208,4C259,0,220,0,47,-4ZM254,845c0,0,-47,0,-81,34c0,0,-34,34,-34,81c0,0,0,49,34,83c0,0,34,34,82,34c0,0,48,0,82,-34c0,0,34,-34,34,-83c0,0,0,-47,-34,-81c0,0,-34,-34,-83,-34Z" 
id="f2_25"
transform="scale(0.001,-0.001)" />

<path d="M43,-4V57c0,0,81,4,91,13c0,0,10,8,13,38c0,0,5,76,5,266c0,0,0,94,-3,162c0,0,-2,42,-6,49c0,0,-4,6,-12,9c0,0,-8,3,-88,5v58c0,0,40,0,126,17c0,0,85,17,144,40l20,7c0,0,10,0,10,-18l-1,-6c0,0,-2,-21,-2,-107l115,96c0,0,22,19,45,26c0,0,33,9,80,9c0,0,78,0,129,-28c0,0,50,-27,73,-75c0,0,24,-48,24,-150c0,0,0,-45,-2,-104c0,0,-4,-121,-4,-209c0,0,0,-50,8,-69c0,0,6,-14,17,-18c0,0,11,-5,81,-11V-4l-91,3L756,0L602,-4l-8,9c0,0,19,142,19,291c0,0,0,190,-23,234c0,0,-30,57,-109,57c0,0,-50,0,-87,-26c0,0,-37,-26,-49,-55c0,0,-5,-12,-5,-76c0,0,0,-270,2,-309c0,0,3,-40,13,-49c0,0,13,-11,100,-15V-4c0,0,-130,4,-219,4C236,0,183,0,43,-4Z" 
id="f2_2a"
transform="scale(0.001,-0.001)" />

<path d="M191,-20c0,0,-49,0,-84,34c0,0,-36,36,-36,85c0,0,0,49,35,84c0,0,35,35,85,35c0,0,49,0,84,-35c0,0,35,-34,35,-84c0,0,0,-49,-35,-84c0,0,-35,-35,-84,-35Zm0,502c0,0,-49,0,-84,35c0,0,-36,35,-36,85c0,0,0,49,35,84c0,0,35,35,85,35c0,0,49,0,84,-35c0,0,35,-35,35,-84c0,0,0,-50,-35,-85c0,0,-35,-35,-84,-35Z" 
id="f2_u"
transform="scale(0.001,-0.001)" />

<path d="M245,-4V42h63c0,0,49,0,64,13c0,0,15,13,19,51c0,0,7,87,7,225V757c0,0,0,126,-5,232H317c0,0,-183,0,-202,-9c0,0,-19,-9,-24,-67L80,814H33l2,88c0,0,0,54,-10,154c0,0,403,-5,473,-5l412,5c0,0,-14,-126,-16,-242H847l-8,97c0,0,-4,51,-12,60c0,0,-9,9,-37,12c0,0,-82,6,-186,6H546c0,0,-8,-112,-8,-236V328c0,0,0,-237,12,-262c0,0,12,-24,84,-24h56V-4c0,0,-131,4,-223,4c0,0,-92,0,-222,-4Z" 
id="f0_1k"
transform="scale(0.001,-0.001)" />

<path d="M1089,-26c0,0,-90,16,-128,22c0,0,-192,211,-463,532c0,0,-138,163,-222,274V512c0,0,0,-118,4,-285c0,0,2,-123,10,-142c0,0,3,-8,11,-12c0,0,14,-9,108,-15V-4c0,0,-121,4,-173,4C236,0,193,0,51,-4V58c0,0,91,3,107,12c0,0,10,6,16,19c0,0,8,18,10,126c0,0,4,179,4,270l-2,316c0,0,0,125,-8,144c0,0,-4,11,-14,17c0,0,-15,9,-113,17v62c0,0,117,-4,173,-4c0,0,63,0,142,4c0,0,172,-219,389,-476c0,0,144,-172,249,-284V577c0,0,0,168,-4,290c0,0,-3,72,-12,89c0,0,-4,9,-16,12c0,0,-12,4,-105,11v62c0,0,82,-4,162,-4c0,0,111,0,200,4V979c0,0,-83,-5,-100,-12c0,0,-10,-4,-16,-11c0,0,-6,-6,-9,-17c0,0,-5,-18,-6,-115l-3,-298l-1,-301c0,0,0,-121,5,-241l-10,-10Z" 
id="f2_1e"
transform="scale(0.001,-0.001)" />

<path d="M385,423c0,0,59,0,124,6v35c0,0,0,92,-33,134c0,0,-34,42,-91,42c0,0,-40,0,-69,-19c0,0,-29,-20,-43,-56c0,0,-14,-36,-22,-136c0,0,67,-6,134,-6ZM408,-20c0,0,-162,0,-256,94c0,0,-93,94,-93,265c0,0,0,108,27,179c0,0,23,58,74,96c0,0,51,38,117,72c0,0,67,35,147,35c0,0,122,0,202,-69c0,0,79,-68,79,-219c0,0,0,-19,-3,-57L581,354c0,0,-57,-4,-164,-4H256c0,0,11,-129,77,-194c0,0,65,-65,166,-65c0,0,43,0,85,12c0,0,41,13,82,37l22,-22L654,46C654,46,601,13,539,-3c0,0,-61,-17,-131,-17Z" 
id="f2_21"
transform="scale(0.001,-0.001)" />

<path d="M459,38c0,0,119,0,203,83c0,0,84,84,84,201c0,0,0,118,-84,201c0,0,-84,83,-203,83c0,0,-120,0,-204,-83c0,0,-84,-83,-84,-201c0,0,0,-116,84,-200c0,0,84,-84,204,-84Zm0,-61c0,0,-146,0,-248,100c0,0,-102,102,-102,245c0,0,0,143,102,245c0,0,102,102,248,102c0,0,145,0,247,-102c0,0,103,-101,103,-245c0,0,0,-143,-103,-245C706,77,604,-23,459,-23Z" 
id="f3_2b"
transform="scale(0.001,-0.001)" />

<path d="M46,-4V42H93c0,0,69,0,83,34c0,0,14,33,14,321V650c0,0,0,298,-12,329c0,0,-12,30,-72,30H46v47c0,0,124,-5,245,-5c0,0,100,0,182,5v-47H416c0,0,-54,0,-67,-13c0,0,-13,-12,-16,-64c0,0,-3,-79,-3,-284V391c0,0,0,-290,12,-319c0,0,13,-30,82,-30h49V-4c0,0,-91,4,-200,4C273,0,147,0,46,-4Z" 
id="f0_19"
transform="scale(0.001,-0.001)" />

<path d="M17,-4V38H67c0,0,58,0,68,23c0,0,15,32,15,235V587L42,580v31c0,0,53,26,108,55v95c0,0,0,72,19,118c0,0,20,45,80,107c0,0,80,83,124,109c0,0,29,17,73,17c0,0,29,0,65,-10c0,0,-2,-38,-2,-61c0,0,0,-23,2,-63l-18,-9c0,0,-44,39,-101,39c0,0,-63,0,-90,-43c0,0,-26,-42,-26,-207V658c0,0,121,1,198,8l5,-8L467,587l-92,2c0,0,-33,0,-99,-2V296c0,0,0,-209,12,-233c0,0,12,-25,75,-25h65V-4c0,0,-122,4,-175,4L17,-4Z" 
id="f0_22"
transform="scale(0.001,-0.001)" />

<path d="M24,-4V38l72,6c0,0,38,3,48,14c0,0,10,12,13,73c0,0,5,107,5,255c0,0,0,180,-14,212c0,0,-10,20,-61,20H24v43c0,0,73,8,129,21c0,0,57,13,101,33c0,0,11,6,17,6c0,0,9,0,12,-5c0,0,3,-4,3,-20L283,548c0,0,29,28,65,74c0,0,41,54,77,75c0,0,36,20,76,20c0,0,41,0,62,-10c0,0,11,-4,11,-14l-1,-8c0,0,-12,-60,-13,-169H526c0,0,-17,38,-40,54c0,0,-24,16,-56,16c0,0,-44,0,-82,-30c0,0,-37,-30,-50,-84c0,0,-12,-53,-12,-211c0,0,0,-103,8,-174c0,0,3,-26,15,-33c0,0,28,-16,83,-16h45V-4c0,0,-114,4,-216,4C221,0,121,0,24,-4Z" 
id="f0_2e"
transform="scale(0.001,-0.001)" />

<path d="M44,-4V42h56c0,0,64,0,76,28c0,0,12,28,12,294V723c0,0,0,232,-14,259c0,0,-14,28,-90,28H44v47c0,0,139,-5,212,-5c0,0,49,0,142,4c0,0,108,4,155,4c0,0,129,0,196,-27c0,0,66,-28,101,-79c0,0,35,-52,35,-124c0,0,0,-105,-76,-186c0,0,-76,-81,-221,-111c0,0,73,-105,182,-244L914,103c0,0,38,-48,50,-54c0,0,13,-7,27,-7h19V-4c0,0,-62,4,-108,4c0,0,-43,0,-90,-4L547,351c0,0,-74,99,-159,193l8,25c0,0,43,-4,64,-4c0,0,126,0,197,64c0,0,71,65,71,172c0,0,0,97,-60,151c0,0,-60,54,-173,54c0,0,-79,0,-158,-29c0,0,-9,-119,-9,-254V363c0,0,0,-263,12,-292c0,0,13,-29,82,-29h58V-4c0,0,-123,4,-205,4C275,0,211,0,44,-4Z" 
id="f0_1i"
transform="scale(0.001,-0.001)" />

<path d="M37,-4V38l64,5c0,0,43,4,49,22c0,0,9,29,9,265V854l-3,97c0,0,0,37,-8,45c0,0,-12,12,-50,12H37v45c0,0,156,14,248,59l13,-9c0,0,-12,-219,-12,-396V324c0,0,0,-228,9,-259c0,0,5,-16,49,-20l64,-7V-4c0,0,-82,4,-156,4C252,0,170,0,37,-4Z" 
id="f0_28"
transform="scale(0.001,-0.001)" />

<path d="M355,-19c0,0,-67,0,-116,28c0,0,-48,28,-70,73c0,0,-22,45,-22,143c0,0,0,51,2,118l3,120c0,0,0,126,-8,140c0,0,-7,14,-47,14H30v41c0,0,102,9,188,37l63,24c0,0,12,0,12,-19l-5,-76c0,0,-10,-158,-10,-294c0,0,0,-135,11,-173c0,0,11,-38,47,-63c0,0,35,-25,87,-25c0,0,69,0,127,45c0,0,57,45,75,90c0,0,10,26,10,157c0,0,0,221,-8,240c0,0,-8,16,-67,16H501v41c0,0,76,9,130,21c0,0,53,12,113,36c0,0,7,4,13,4c0,0,13,0,13,-15l-3,-69c0,0,-11,-255,-11,-449c0,0,0,-109,11,-125c0,0,17,-23,71,-23h43V-4c0,0,-93,4,-157,4c0,0,-49,0,-97,-4l8,134L591,82C591,82,540,26,486,3c0,0,-53,-22,-131,-22Z" 
id="f0_2h"
transform="scale(0.001,-0.001)" />

<path d="M34,-4V38H91c0,0,48,0,58,26c0,0,9,26,9,281c0,0,0,187,-2,220c0,0,-2,34,-12,43c0,0,-11,9,-64,9H34v41c0,0,110,15,189,41l54,21c0,0,13,0,13,-18l-1,-27c0,0,-2,-42,-2,-93l100,90c0,0,24,21,51,30c0,0,39,14,77,14c0,0,84,0,135,-31c0,0,52,-30,94,-108l96,88c0,0,25,22,61,34c0,0,47,17,91,17c0,0,67,0,122,-32c0,0,54,-31,81,-81c0,0,26,-50,26,-136l-3,-292c0,0,0,-97,12,-115c0,0,11,-17,58,-20l55,-2V-4l-37,2c0,0,-87,2,-118,2c0,0,-47,0,-110,-4c0,0,10,137,10,321c0,0,0,156,-13,205c0,0,-13,49,-51,77c0,0,-38,28,-96,28c0,0,-64,0,-110,-35c0,0,-47,-35,-58,-84c0,0,-7,-31,-7,-266c0,0,0,-138,2,-157c0,0,2,-19,12,-27c0,0,11,-8,65,-14l50,-6V-4c0,0,-132,4,-194,4c0,0,-49,0,-191,-4V38h50c0,0,45,0,58,13c0,0,14,13,16,60c0,0,6,122,6,255c0,0,0,118,-16,163c0,0,-16,46,-55,72c0,0,-38,26,-92,26c0,0,-57,0,-104,-32c0,0,-47,-32,-64,-78c0,0,-11,-31,-11,-177c0,0,0,-161,3,-236c0,0,1,-35,11,-45c0,0,9,-10,64,-15l52,-6V-4c0,0,-94,4,-176,4C239,0,145,0,34,-4Z" 
id="f0_29"
transform="scale(0.001,-0.001)" />

<path d="M399,69c0,0,49,0,96,24c0,0,46,24,95,82V317c0,0,-2,215,-5,259c0,0,-46,42,-90,59c0,0,-43,17,-96,17c0,0,-101,0,-163,-73c0,0,-62,-74,-62,-210c0,0,0,-141,66,-220c0,0,66,-80,159,-80Zm58,-479v43h40c0,0,68,0,80,27c0,0,13,26,13,263V97C590,97,501,45,415,-10c0,0,-20,-4,-38,-6c0,0,-18,-3,-33,-3c0,0,-130,0,-215,92c0,0,-85,92,-85,246c0,0,0,102,31,171c0,0,32,70,90,112c0,0,15,10,137,78c0,0,65,36,148,36c0,0,50,0,98,-13c0,0,49,-13,98,-40l78,51l28,-17c0,0,-23,-68,-28,-117c0,0,-8,-74,-8,-250V-82c0,0,0,-228,14,-256c0,0,14,-29,85,-29h34v-43l-118,4l-93,1c0,0,-35,0,-181,-5Z" 
id="f0_2d"
transform="scale(0.001,-0.001)" />

<path d="M104,-4V35c0,0,39,18,72,42c0,0,15,116,15,489c0,0,0,255,-6,337c0,0,-2,44,-15,56c0,0,-13,12,-110,20v62c0,0,175,-6,277,-6l410,6c0,0,65,0,117,-5l5,-8c0,0,-16,-82,-23,-218H787c0,0,-4,108,-8,116c0,0,-5,7,-34,14c0,0,-62,13,-190,13c0,0,-63,0,-146,-5c0,0,-10,-230,-11,-367c0,0,80,-5,150,-5c0,0,103,0,124,7c0,0,12,4,18,21c0,0,4,14,10,94h65c0,0,-4,-126,-4,-164l4,-168H700c0,0,-5,98,-13,113c0,0,-5,9,-20,12c0,0,-38,9,-168,9c0,0,-41,0,-96,-5c0,0,-2,-40,-2,-81c0,0,0,-212,8,-327L556,85c0,0,127,0,231,14c0,0,19,69,36,156h62C885,255,867,122,864,0c0,0,-67,-4,-130,-4c0,0,-41,0,-161,3c0,0,-113,1,-207,1C366,0,241,0,104,-4Z" 
id="f2_15"
transform="scale(0.001,-0.001)" />

<path d="M549,-28c0,0,-36,23,-60,51c0,0,-30,39,-143,223C346,246,236,100,173,-4c0,0,-59,4,-83,4C90,0,62,0,21,-4V57c0,0,56,6,78,21c0,0,33,24,121,137l79,101c0,0,-112,171,-179,231c0,0,-35,31,-79,31L21,577v48c0,0,53,27,129,82c0,0,21,14,33,14c0,0,33,0,82,-37c0,0,32,-24,88,-107L424,471c0,0,82,104,163,233c0,0,32,-5,62,-5c0,0,40,0,84,5V643c0,0,-41,-4,-61,-14c0,0,-19,-10,-50,-46L469,404L549,285c0,0,98,-147,125,-171c0,0,27,-24,70,-27V40c0,0,-80,-28,-172,-68Z" 
id="f2_2k"
transform="scale(0.001,-0.001)" />

<path d="M328,113c0,0,58,0,120,67V362c0,0,-131,-29,-170,-62c0,0,-39,-33,-39,-89c0,0,0,-45,25,-71c0,0,25,-27,64,-27ZM219,-20c0,0,-79,0,-122,46C97,26,54,73,54,163c0,0,0,111,59,157c0,0,75,59,335,106c0,0,-2,89,-31,128c0,0,-40,55,-126,55c0,0,-20,0,-41,-5c0,0,-21,-5,-43,-15L174,509l-52,13l2,34l-1,33l-1,29c0,0,114,71,164,89c0,0,37,14,102,14c0,0,88,0,143,-27c0,0,55,-26,80,-72c0,0,26,-46,26,-133c0,0,0,-36,-3,-131c0,0,-3,-97,-3,-156c0,0,0,-93,5,-113c0,0,3,-12,14,-19c0,0,12,-7,79,-13V-4l-57,3c0,0,-46,1,-91,1c0,0,-71,0,-133,-4l-8,7l8,102L292,-10c0,0,-41,-10,-73,-10Z" 
id="f2_1x"
transform="scale(0.001,-0.001)" />

<path d="M46,-4V57c0,0,77,3,88,10c0,0,11,7,14,26c0,0,6,36,6,173c0,0,0,287,-8,311c0,0,-6,20,-52,21l-48,1v58c0,0,92,10,156,24c0,0,65,15,117,36c0,0,11,4,16,4c0,0,10,0,10,-19c0,0,0,-14,-2,-38c0,0,-1,-11,-1,-37V600l122,92c0,0,39,29,118,29c0,0,80,0,126,-31c0,0,47,-31,72,-99L907,692c0,0,36,29,102,29c0,0,117,0,173,-58c0,0,55,-57,55,-187l-2,-62c0,0,-3,-103,-3,-183c0,0,0,-107,7,-138c0,0,4,-18,15,-25c0,0,11,-7,85,-11V-4c0,0,-93,4,-162,4c0,0,-67,0,-139,-4l-9,13c0,0,19,161,19,314c0,0,0,181,-28,226c0,0,-28,46,-99,46c0,0,-47,0,-82,-24c0,0,-35,-23,-46,-53c0,0,-8,-21,-8,-130c0,0,0,-198,5,-273c0,0,3,-34,14,-43c0,0,12,-9,96,-15V-4c0,0,-98,4,-192,4C708,0,591,0,498,-4V57c0,0,73,0,86,21c0,0,12,21,12,187c0,0,0,189,-7,235c0,0,-7,47,-36,71c0,0,-29,24,-80,24c0,0,-37,0,-67,-18c0,0,-31,-17,-52,-48c0,0,-12,-17,-12,-53l1,-29c0,0,2,-21,2,-117l-1,-88c0,0,0,-127,5,-150c0,0,2,-15,12,-22c0,0,10,-7,82,-13V-4c0,0,-89,4,-196,4C247,0,210,0,46,-4Z" 
id="f2_29"
transform="scale(0.001,-0.001)" />

<path d="M500,72c0,0,77,0,126,66c0,0,49,66,49,212c0,0,0,118,-50,179c0,0,-50,61,-128,61c0,0,-39,0,-78,-19c0,0,-39,-19,-78,-56V158c0,0,34,-42,73,-64c0,0,40,-22,86,-22ZM39,-384v61c0,0,79,3,91,9c0,0,7,5,11,14c0,0,7,18,10,153c0,0,4,188,4,281l-1,296c0,0,-1,130,-8,149c0,0,-4,9,-11,14c0,0,-14,6,-96,6v58c0,0,131,11,217,35l80,25c0,0,10,0,10,-18c0,0,0,-14,-3,-40l-2,-69l121,96c0,0,38,31,127,31c0,0,126,0,202,-78c0,0,76,-78,76,-210c0,0,0,-67,-19,-131c0,0,-19,-64,-45,-102c0,0,-26,-38,-92,-89C711,107,599,17,577,4c0,0,-42,-24,-102,-24c0,0,-34,0,-67,9c0,0,-34,8,-67,23l3,-225c0,0,3,-82,17,-96c0,0,15,-14,111,-14v-61c0,0,-115,5,-201,5c0,0,-165,0,-232,-5Z" 
id="f2_2c"
transform="scale(0.001,-0.001)" />

<path d="M322,-19c0,0,-72,0,-144,15c0,0,-73,14,-147,42c0,0,14,90,13,230H95V231c0,0,0,-73,7,-90c0,0,8,-17,35,-36c0,0,41,-29,98,-45c0,0,56,-15,122,-15c0,0,141,0,218,66c0,0,76,67,76,169c0,0,0,59,-26,101c0,0,-26,41,-73,61c0,0,-47,20,-174,31c0,0,-168,13,-228,40c0,0,-61,27,-95,84c0,0,-34,58,-34,144c0,0,0,145,105,237c0,0,105,93,291,93c0,0,74,0,149,-16c0,0,75,-17,151,-50c0,0,-21,-77,-23,-205H642v59c0,0,0,59,-15,79c0,0,-16,21,-82,45c0,0,-66,23,-139,23c0,0,-119,0,-187,-60c0,0,-68,-60,-68,-155c0,0,0,-59,28,-102c0,0,27,-43,75,-62c0,0,47,-19,201,-33c0,0,153,-15,207,-40c0,0,54,-24,87,-79c0,0,32,-54,32,-129c0,0,0,-149,-125,-257C656,89,531,-19,322,-19Z" 
id="f0_1j"
transform="scale(0.001,-0.001)" />

<path d="M256,-19c0,0,-47,0,-81,9c0,0,-34,9,-79,32C96,22,83,65,74,91L18,224l38,22L74,213c0,0,51,-91,67,-107c0,0,22,-21,66,-36c0,0,45,-15,103,-15c0,0,125,0,194,72c0,0,70,73,70,209c0,0,0,119,-64,187c0,0,-65,69,-171,69c0,0,-61,0,-110,-24c0,0,-48,-24,-85,-75l-33,11c0,0,11,130,11,331c0,0,0,126,-11,219l13,8c0,0,117,-11,241,-11c0,0,149,0,286,11l9,-8c0,0,-7,-37,-7,-58c0,0,0,-19,7,-60l-9,-8c0,0,-85,5,-163,5c0,0,-157,0,-299,-5c0,0,-7,-57,-12,-311c0,0,55,44,105,61c0,0,50,18,114,18c0,0,139,0,224,-83c0,0,84,-83,84,-215c0,0,0,-167,-133,-292C571,106,438,-19,256,-19Z" 
id="f0_p"
transform="scale(0.001,-0.001)" />

<path d="M109,-4L96,15c0,0,103,163,349,578c0,0,115,193,189,333l-8,7l-47,1c0,0,-81,0,-314,-6c0,0,-96,-3,-109,-11c0,0,-13,-7,-20,-27c0,0,-6,-20,-16,-117l-5,-43H68c0,0,5,99,5,181c0,0,0,73,-7,136l13,14c0,0,110,-8,277,-8c0,0,268,0,405,8v-44C761,1017,384,344,253,-2c0,0,-49,2,-71,2c0,0,-32,0,-73,-4Z" 
id="f0_r"
transform="scale(0.001,-0.001)" />

<path d="M388,34c0,0,91,0,138,85c0,0,59,107,59,391c0,0,0,303,-63,413c0,0,-52,94,-149,94c0,0,-90,0,-142,-93c0,0,-52,-93,-52,-379c0,0,0,-305,63,-418c0,0,51,-93,146,-93ZM365,-19c0,0,-109,0,-183,64c0,0,-73,64,-107,182c0,0,-26,90,-26,297c0,0,0,287,96,417c0,0,96,130,256,130c0,0,98,0,168,-49c0,0,69,-49,108,-148c0,0,38,-100,38,-290c0,0,0,-331,-95,-467c0,0,-96,-136,-255,-136Z" 
id="f0_k"
transform="scale(0.001,-0.001)" />

<path d="M129,331V773H571V331Z" 
id="f4_3o"
transform="scale(0.001,-0.001)" />

<path d="M350,-17L310,166c0,0,-16,81,-38,173L143,897c0,0,-19,82,-34,97c0,0,-15,15,-62,15H16v47c0,0,106,-5,184,-5c0,0,75,0,204,5v-47H357c0,0,-51,0,-66,-9c0,0,-16,-9,-16,-29c0,0,0,-12,4,-28L331,696L437,221L609,648c0,0,44,110,160,418h46c0,0,44,-138,119,-349L1114,211l137,472c0,0,19,68,67,261c0,0,4,17,4,28c0,0,0,14,-11,21c0,0,-11,6,-55,11l-68,5v47c0,0,105,-5,165,-5c0,0,64,0,159,5v-47h-39c0,0,-26,0,-38,-12c0,0,-24,-24,-114,-313c0,0,-118,-385,-196,-701h-78c0,0,-13,49,-22,74c0,0,-33,96,-152,424L750,817L611,479C611,479,486,176,425,-17Z" 
id="f0_1n"
transform="scale(0.001,-0.001)" />

<path d="M697,-17c0,0,-44,35,-208,200c0,0,-119,120,-194,186h-9V274c0,0,0,-188,12,-212c0,0,12,-24,75,-24h45V-4l-40,2c0,0,-108,2,-142,2L37,-4V38H81c0,0,58,0,68,22c0,0,10,22,10,213V719c0,0,0,247,-11,277c0,0,-7,18,-58,18H26v43c0,0,63,0,180,31l75,24c0,0,12,0,12,-15l-3,-75c0,0,-2,-28,-4,-312V410l9,-5c0,0,68,51,115,91c0,0,25,21,112,104L629,701H779V658H753c0,0,-26,0,-67,-25c0,0,-82,-48,-268,-203c0,0,140,-146,172,-175c0,0,148,-137,179,-162c0,0,19,-15,32,-21c0,0,13,-5,38,-8V30C839,30,774,1,697,-17Z" 
id="f0_27"
transform="scale(0.001,-0.001)" />

<path d="M128,-430c0,0,-21,0,-44,7c0,0,-23,6,-46,19l34,117H90c0,0,20,-25,40,-37c0,0,20,-12,41,-12c0,0,47,0,85,45c0,0,38,44,117,249c0,0,-33,86,-131,329L173,458L117,589c0,0,-26,69,-78,69H9v43c0,0,77,-5,137,-5c0,0,46,0,215,5V658H306c0,0,-28,0,-41,-10c0,0,-13,-9,-13,-24c0,0,0,-11,14,-51c0,0,75,-207,177,-444c0,0,99,217,172,418c0,0,22,59,22,71c0,0,0,24,-51,32l-55,8v43c0,0,88,-5,157,-5c0,0,65,0,130,5V658H792c0,0,-17,0,-35,-10c0,0,-18,-10,-29,-28c0,0,-24,-38,-138,-290c0,0,-32,-69,-160,-374c0,0,-114,-259,-128,-284c0,0,-30,-49,-75,-76c0,0,-46,-26,-99,-26Z" 
id="f0_2l"
transform="scale(0.001,-0.001)" />

<path d="M411,150V473H87V577H411V901H514V577H838V473H514V150Z" 
id="f0_f"
transform="scale(0.001,-0.001)" />

<path d="M87,346V450H839V346Zm0,255V705H839V601Z" 
id="f0_x"
transform="scale(0.001,-0.001)" />

<path d="M34,-4V42H80c0,0,78,0,93,27c0,0,14,26,14,242V761c0,0,0,195,-15,222c0,0,-14,26,-83,26H34v47c0,0,123,-5,229,-5c0,0,106,0,207,5v-47H438c0,0,-69,0,-85,-11c0,0,-17,-11,-20,-37c0,0,-6,-41,-6,-199V592c0,0,132,-5,338,-5c0,0,174,0,282,5V737c0,0,0,128,-8,215c0,0,-3,30,-21,44c0,0,-17,13,-69,13H795v47c0,0,114,-5,216,-5c0,0,110,0,229,5v-47h-57c0,0,-57,0,-73,-13c0,0,-16,-12,-19,-46c0,0,-4,-34,-4,-214V324c0,0,0,-229,13,-255c0,0,13,-27,82,-27h58V-4c0,0,-103,4,-212,4c0,0,-125,0,-233,-4V42h51c0,0,57,0,73,13c0,0,17,13,20,49c0,0,8,77,8,225V523c0,0,-105,5,-268,5c0,0,-233,0,-352,-5V314c0,0,0,-53,3,-126c0,0,5,-102,8,-113c0,0,3,-10,21,-22c0,0,19,-11,61,-11h50V-4c0,0,-96,4,-186,4C284,0,196,0,34,-4Z" 
id="f0_18"
transform="scale(0.001,-0.001)" />

<path d="M383,-20c0,0,-162,0,-253,89c0,0,-91,90,-91,256c0,0,0,61,12,111c0,0,12,49,32,84c0,0,21,35,46,57c0,0,15,12,128,82c0,0,66,42,97,52c0,0,30,10,81,10c0,0,44,0,87,-7c0,0,42,-7,83,-20l12,-14c0,0,-26,-124,-30,-228H526c0,0,-6,89,-13,102c0,0,-10,21,-44,38c0,0,-34,17,-85,17c0,0,-80,0,-116,-45c0,0,-36,-45,-36,-162c0,0,0,-149,68,-230c0,0,68,-81,174,-81c0,0,39,0,72,7c0,0,32,6,59,19l12,-16c0,0,-16,-36,-30,-72C587,29,538,4,487,-7c0,0,-51,-13,-104,-13Z" 
id="f2_1z"
transform="scale(0.001,-0.001)" />

<path d="M55,-4V58c0,0,95,0,111,14c0,0,11,9,14,53c0,0,9,145,9,336c0,0,0,141,-4,302c0,0,-4,162,-13,187c0,0,-4,11,-12,15c0,0,-13,9,-105,14v62c0,0,130,-4,225,-4c0,0,137,0,288,3c0,0,99,1,167,1c0,0,49,0,93,-3l7,-15c0,0,-16,-93,-20,-219H753l-6,79c0,0,-2,38,-10,47c0,0,-8,8,-55,17c0,0,-48,9,-136,9c0,0,-65,0,-137,-7c0,0,-9,-126,-9,-178l2,-161l-1,-34c0,0,45,-2,108,-2c0,0,114,0,137,5c0,0,12,3,17,12c0,0,8,16,14,94h64c0,0,-2,-65,-2,-131c0,0,0,-61,2,-195H677c0,0,-6,97,-15,113c0,0,-4,9,-18,13c0,0,-36,10,-146,10l-97,-2l3,-286c0,0,3,-104,10,-120c0,0,5,-11,16,-16c0,0,15,-7,124,-13V-4c0,0,-119,4,-223,4C331,0,238,0,55,-4Z" 
id="f2_16"
transform="scale(0.001,-0.001)" />

<path d="M16,-4V57c0,0,75,3,86,9c0,0,9,4,14,14c0,0,9,18,10,79c0,0,3,109,3,199c0,0,0,172,-4,204c0,0,-3,19,-14,27c0,0,-11,7,-95,10v58c0,0,150,14,215,35l76,29c0,0,11,0,11,-15l-1,-10c0,0,-2,-47,-2,-135c0,0,38,36,84,92c0,0,34,42,60,55c0,0,25,13,68,13c0,0,23,0,48,-9c0,0,-7,-74,-9,-203L533,497c0,0,-18,29,-38,41c0,0,-21,12,-53,12c0,0,-45,0,-77,-24c0,0,-32,-23,-41,-53c0,0,-6,-22,-6,-152c0,0,0,-189,5,-220c0,0,3,-21,14,-29c0,0,17,-11,113,-15V-4l-84,3c0,0,-80,1,-138,1c0,0,-55,0,-128,-1L16,-4Z" 
id="f2_2e"
transform="scale(0.001,-0.001)" />

<path d="M110,-7V31c0,0,59,26,70,56c0,0,11,30,11,237V734c0,0,0,224,-11,249c0,0,-11,26,-61,26H38v47c0,0,177,-5,235,-5c0,0,78,0,210,5v-47H391c0,0,-40,0,-50,-23c0,0,-11,-22,-11,-189V322l3,-210L330,68c0,0,74,-3,143,-3c0,0,140,0,219,7c0,0,55,6,114,22l45,175h49C900,269,881,128,870,5C870,5,803,-5,687,-5L332,0c0,0,-71,0,-222,-7Z" 
id="f0_1c"
transform="scale(0.001,-0.001)" />

<path d="M409,-377c0,0,82,0,145,30c0,0,62,31,97,84c0,0,34,54,34,111c0,0,0,48,-24,85c0,0,-24,37,-57,47c0,0,-18,5,-79,5H351c0,0,-53,0,-72,-12c0,0,-62,-40,-76,-65c0,0,-22,-39,-22,-98c0,0,0,-81,60,-134c0,0,60,-53,168,-53ZM395,280c0,0,71,0,116,47c0,0,44,48,44,133c0,0,0,93,-47,150c0,0,-48,57,-121,57c0,0,-72,0,-115,-46c0,0,-44,-47,-44,-129c0,0,0,-99,47,-156c0,0,48,-56,120,-56ZM382,-430c0,0,-154,0,-237,67c0,0,-82,66,-82,164c0,0,0,60,43,122c0,0,78,37,131,74c0,0,-62,19,-80,36c0,0,-17,17,-17,43c0,0,0,31,17,62c0,0,10,18,49,45l73,52c0,0,-89,22,-129,63c0,0,-52,55,-52,141c0,0,0,75,39,137c0,0,38,62,114,98c0,0,96,46,186,46c0,0,56,0,99,-15c0,0,43,-15,88,-51h63c0,0,97,0,151,7l8,-16c0,0,-22,-32,-39,-68H668c0,0,17,-48,17,-78c0,0,0,-67,-40,-128c0,0,-40,-62,-115,-100c0,0,-75,-37,-161,-37l-36,1c0,0,-49,-37,-62,-55c0,0,-13,-18,-13,-35c0,0,0,-28,29,-45c0,0,29,-16,119,-16c0,0,34,0,98,3c0,0,92,4,133,4c0,0,59,0,91,-19c0,0,31,-19,53,-67c0,0,23,-46,23,-106c0,0,0,-83,-51,-160c0,0,-51,-77,-148,-123c0,0,-97,-46,-223,-46Z" 
id="f0_23"
transform="scale(0.001,-0.001)" />

<path d="M377,-11c0,0,-98,245,-200,477c0,0,-39,85,-47,109c0,0,-16,48,-37,66c0,0,-20,17,-52,17H16v43c0,0,110,-5,183,-5c0,0,78,0,171,5V658H337c0,0,-45,0,-64,-10c0,0,-13,-7,-13,-22c0,0,0,-13,14,-52c0,0,13,-38,180,-451L588,445c0,0,45,112,56,156c0,0,3,11,3,20c0,0,0,14,-10,21c0,0,-10,6,-50,11l-48,5v43c0,0,77,-5,137,-5c0,0,70,0,150,5V658H803c0,0,-17,0,-33,-7c0,0,-12,-5,-20,-13c0,0,-7,-8,-54,-104c0,0,-84,-174,-128,-274c0,0,-45,-101,-114,-271Z" 
id="f0_2i"
transform="scale(0.001,-0.001)" />

<path d="M600,-22c0,0,-38,26,-64,59c0,0,-17,21,-165,244c0,0,-70,-86,-108,-139c0,0,-38,-53,-96,-146c0,0,-31,4,-57,4C110,0,83,0,37,-4V41c0,0,38,0,52,7c0,0,13,6,73,73c0,0,86,96,174,207c0,0,-138,206,-179,242c0,0,-41,35,-87,35c0,0,-13,0,-33,-2v40l143,70c0,0,47,-19,77,-54c0,0,50,-55,159,-234c0,0,98,129,198,276c0,0,29,-5,49,-5c0,0,15,0,65,5V658c0,0,-40,-2,-65,-24c0,0,-40,-35,-214,-252c0,0,101,-149,169,-237c0,0,46,-61,74,-76c0,0,18,-10,57,-10V16C749,16,680,0,600,-22Z" 
id="f0_2k"
transform="scale(0.001,-0.001)" />

<path d="M39,-4L32,31c0,0,72,78,196,230c0,0,168,207,300,384c0,0,-187,0,-281,-6c0,0,-65,-4,-75,-13c0,0,-11,-10,-19,-64L143,499H100c0,0,8,72,8,126l-1,70l6,6c0,0,228,-5,346,-5c0,0,124,0,245,5V660c0,0,-39,-42,-76,-88L511,426c0,0,-74,-91,-288,-371l95,-2c0,0,155,0,269,10c0,0,44,5,56,18c0,0,13,14,26,92l9,45h44C722,218,703,79,704,3c0,0,-51,-5,-114,-5L319,0C319,0,153,0,39,-4Z" 
id="f0_2m"
transform="scale(0.001,-0.001)" />

<path d="M192,-19c0,0,-37,0,-63,25c0,0,-25,26,-25,62c0,0,0,37,25,62c0,0,26,25,63,25c0,0,36,0,61,-25c0,0,26,-25,26,-62c0,0,0,-36,-26,-62c0,0,-25,-25,-61,-25Zm0,545c0,0,-37,0,-63,26c0,0,-25,25,-25,61c0,0,0,37,25,63c0,0,26,25,63,25c0,0,36,0,61,-25c0,0,26,-26,26,-63c0,0,0,-36,-26,-61c0,0,-25,-26,-61,-26Z" 
id="f0_u"
transform="scale(0.001,-0.001)" />

<path d="M504,58c0,0,209,0,325,107c0,0,139,131,139,380c0,0,0,218,-116,332c0,0,-116,114,-340,114c0,0,-78,0,-185,-15c0,0,-9,-72,-9,-163V325c0,0,0,-135,9,-252c0,0,100,-15,177,-15ZM97,-7V28l69,41c0,0,12,116,12,405V690c0,0,0,133,-9,229c0,0,-5,56,-14,65c0,0,-8,9,-61,16l-60,9v47c0,0,123,-4,166,-4l200,2l163,3c0,0,2,0,5,0c20,0,107,-1,197,-19c0,0,104,-21,188,-84c0,0,84,-63,128,-159c0,0,44,-95,44,-220c0,0,0,-252,-169,-417C956,158,786,-6,513,-6l-92,3c0,0,-135,4,-171,4C250,1,190,1,97,-7Z" 
id="f0_14"
transform="scale(0.001,-0.001)" />

<path d="M674,-19c0,0,-28,66,-159,341L247,875V298c0,0,0,-201,16,-229c0,0,17,-27,100,-27h28V-4c0,0,-104,4,-169,4C222,0,175,0,35,-4V42H84c0,0,49,0,65,14c0,0,16,14,20,52c0,0,10,104,10,225V755c0,0,0,153,-7,202c0,0,-3,25,-22,39c0,0,-19,13,-75,13H35v47c0,0,130,-5,163,-5c0,0,43,0,121,5c0,0,91,-201,209,-442L725,210L906,584c0,0,96,196,218,472c0,0,93,-5,131,-5c0,0,44,0,159,5v-47h-49c0,0,-66,0,-80,-23c0,0,-15,-22,-15,-163V278c0,0,0,-182,15,-209c0,0,16,-27,86,-27h43V-4c0,0,-104,4,-198,4c0,0,-105,0,-219,-4V42h50c0,0,59,0,71,26c0,0,12,26,12,221V895L909,434C909,434,784,174,704,-19Z" 
id="f0_1d"
transform="scale(0.001,-0.001)" />

<path d="M1106,-23c0,0,-101,15,-118,22c0,0,-16,6,-31,23c0,0,-83,91,-174,203L246,888V372c0,0,0,-176,7,-245c0,0,5,-53,18,-64c0,0,12,-12,71,-17l48,-4V-4c0,0,-81,4,-147,4C243,0,198,0,34,-4V42H88c0,0,48,0,63,13c0,0,15,14,19,53c0,0,8,82,8,223V702c0,0,0,104,-2,206c0,0,-2,44,-12,60c0,0,-10,16,-29,28c0,0,-20,13,-55,13H34v47c0,0,95,-5,145,-5c0,0,53,0,117,5c0,0,74,-90,140,-176c0,0,65,-85,135,-172L826,395c0,0,139,-168,200,-234V640c0,0,0,300,-11,328c0,0,-11,28,-86,36l-56,5v47c0,0,120,-5,186,-5c0,0,69,0,179,5v-47h-57c0,0,-70,0,-80,-46c0,0,-7,-31,-7,-327V300c0,0,0,-136,12,-323Z" 
id="f0_1e"
transform="scale(0.001,-0.001)" />

<path d="M24,-4V42H58c0,0,31,0,50,18c0,0,19,18,164,218L451,527L339,713c0,0,-106,178,-172,241c0,0,-37,35,-77,35c0,0,-14,0,-47,-4v47l219,35c0,0,37,-30,63,-63c0,0,26,-33,90,-143L543,646l278,410H977v-46H948c0,0,-31,0,-48,-10c0,0,-16,-10,-101,-118C799,882,639,677,576,588L821,193c0,0,75,-120,93,-136c0,0,17,-15,50,-15h31V-4c0,0,-86,4,-132,4c0,0,-45,0,-92,-4L486,468c0,0,-56,-81,-161,-244C325,224,219,61,184,-4c0,0,-36,4,-70,4C114,0,73,0,24,-4Z" 
id="f0_1o"
transform="scale(0.001,-0.001)" />

<path d="M306,-4V42h64c0,0,63,0,76,26c0,0,13,26,13,235c0,0,0,61,-4,134c0,0,-97,176,-178,305c0,0,-81,129,-137,188c0,0,-31,33,-53,43c0,0,-23,11,-77,11v47c0,0,31,6,120,24l59,12c0,0,34,-13,55,-32c0,0,38,-35,115,-161c0,0,59,-96,195,-354c0,0,46,69,144,239l171,297H985v-19c0,0,-91,-102,-224,-308C761,729,629,523,603,453c0,0,-9,-25,-9,-126c0,0,0,-135,7,-213c0,0,5,-43,16,-51c0,0,10,-9,76,-15l57,-6V-4c0,0,-130,4,-203,4L306,-4Z" 
id="f0_1p"
transform="scale(0.001,-0.001)" />

<path d="M42,297L32,308c0,0,23,56,38,108c0,0,109,-5,181,-5c0,0,60,0,220,5l6,-12c0,0,-25,-56,-37,-107c0,0,-102,7,-188,7c0,0,-96,0,-210,-7Z" 
id="f0_h"
transform="scale(0.001,-0.001)" />

<path d="M424,-349V1112h98V-349Z" 
id="f0_2o"
transform="scale(0.001,-0.001)" />

<path d="M415,-18c0,0,-149,0,-244,83c0,0,-94,84,-107,222l140,11c0,0,16,-103,73,-154c0,0,56,-52,137,-52c0,0,98,0,165,73c0,0,66,73,66,194c0,0,0,115,-64,182c0,0,-64,66,-169,66c0,0,-65,0,-117,-29c0,0,-52,-30,-82,-77L87,517l106,562H736V951H300L241,657c0,0,99,69,207,69c0,0,143,0,242,-100c0,0,98,-99,98,-255c0,0,0,-149,-86,-257C702,114,597,-18,415,-18Z" 
id="f5_p"
transform="scale(0.001,-0.001)" />


</defs>
</svg>