<?xml version="1.0" encoding="UTF-8" standalone="no"?>
<!DOCTYPE svg PUBLIC "-//W3C//DTD SVG 1.1//EN"
"http://www.w3.org/Graphics/SVG/1.1/DTD/svg11.dtd">
<svg viewBox="0 0 935 1210" version="1.1" xmlns="http://www.w3.org/2000/svg" xmlns:xlink="http://www.w3.org/1999/xlink">
<defs>
<style type="text/css"><![CDATA[
.g0_84{
fill: #ED7D31;
}
.g1_84{
}
]]></style>
</defs>
<g fill="#000000" >
<use xlink:href="#f0_5" transform="matrix(12,0,0,12,55,93.2)" />
<use xlink:href="#f0_7v" transform="matrix(12,0,0,12,69.7,93.2)" />
<use xlink:href="#f0_9q" transform="matrix(12,0,0,12,79.2,93.2)" />
<use xlink:href="#f0_b5" transform="matrix(12,0,0,12,83.3,93.2)" />
<use xlink:href="#f0_bf" transform="matrix(12,0,0,12,90.6,93.2)" />
<use xlink:href="#f0_b1" transform="matrix(12,0,0,12,96.8,93.2)" />
<use xlink:href="#f0_9q" transform="matrix(12,0,0,12,103,93.2)" />
<use xlink:href="#f0_7k" transform="matrix(12,0,0,12,107.1,93.2)" />
<use xlink:href="#f0_c6" transform="matrix(12,0,0,12,116.9,93.2)" />
<use xlink:href="#f0_bf" transform="matrix(12,0,0,12,126.5,93.2)" />
<use xlink:href="#f0_9q" transform="matrix(12,0,0,12,132.7,93.2)" />
<use xlink:href="#f0_am" transform="matrix(12,0,0,12,136.7,93.2)" />
<use xlink:href="#f0_af" transform="matrix(12,0,0,12,146.6,93.2)" />
<use xlink:href="#f0_9q" transform="matrix(12,0,0,12,160.2,93.2)" />
<use xlink:href="#f0_b5" transform="matrix(12,0,0,12,164.2,93.2)" />
<use xlink:href="#f0_b5" transform="matrix(12,0,0,12,175.6,93.2)" />
<use xlink:href="#f0_co" transform="matrix(12,0,0,12,182.9,93.2)" />
<use xlink:href="#f0_ae" transform="matrix(12,0,0,12,191.3,93.2)" />
<use xlink:href="#f0_ae" transform="matrix(12,0,0,12,205.9,93.2)" />
<use xlink:href="#f0_7z" transform="matrix(12,0,0,12,220.6,93.2)" />
<use xlink:href="#f0_bf" transform="matrix(12,0,0,12,229.8,93.2)" />
<use xlink:href="#f0_b1" transform="matrix(12,0,0,12,236,93.2)" />
<use xlink:href="#f0_9q" transform="matrix(12,0,0,12,242.2,93.2)" />
<use xlink:href="#f0_7l" transform="matrix(12,0,0,12,246.3,93.2)" />
<use xlink:href="#f0_nq" transform="matrix(12,0,0,12,258.3,93.2)" />
<use xlink:href="#f0_9q" transform="matrix(12,0,0,12,266.8,93.2)" />
<use xlink:href="#f0_89" transform="matrix(12,0,0,12,271.1,93.2)" />
<use xlink:href="#f0_bf" transform="matrix(12,0,0,12,280.7,93.2)" />
<use xlink:href="#f0_9n" transform="matrix(12,0,0,12,286.9,93.2)" />
<use xlink:href="#f0_7z" transform="matrix(12,0,0,12,296.4,93.2)" />
<use xlink:href="#f0_b5" transform="matrix(12,0,0,12,309.6,93.2)" />
<use xlink:href="#f0_77" transform="matrix(12,0,0,12,316.9,93.2)" />
<use xlink:href="#f0_ae" transform="matrix(12,0,0,12,325.7,93.2)" />
<use xlink:href="#f0_7z" transform="matrix(12,0,0,12,340.4,93.2)" />
<use xlink:href="#f0_af" transform="matrix(12,0,0,12,353.6,93.2)" />
<use xlink:href="#f0_c6" transform="matrix(12,0,0,12,363.1,93.2)" />
<use xlink:href="#f0_ae" transform="matrix(12,0,0,12,372.7,93.2)" />
<use xlink:href="#f0_7k" transform="matrix(12,0,0,12,387.7,93.2)" />
<use xlink:href="#f0_7z" transform="matrix(12,0,0,12,397.2,93.2)" />
<use xlink:href="#f0_b1" transform="matrix(12,0,0,12,406.3,93.2)" />
<use xlink:href="#f0_am" transform="matrix(12,0,0,12,416.6,93.2)" />
<use xlink:href="#f0_89" transform="matrix(12,0,0,12,426.5,93.2)" />
<use xlink:href="#f0_89" transform="matrix(12,0,0,12,436.1,93.2)" />
<use xlink:href="#f0_b1" transform="matrix(12,0,0,12,441.6,93.2)" />
<use xlink:href="#f0_7z" transform="matrix(12,0,0,12,447.8,93.2)" />
<use xlink:href="#f0_b0" transform="matrix(12,0,0,12,456.9,93.2)" />
<use xlink:href="#f0_c6" transform="matrix(12,0,0,12,466.8,93.2)" />
<use xlink:href="#f0_7z" transform="matrix(12,0,0,12,476.4,93.2)" />
<use xlink:href="#f0_af" transform="matrix(12,0,0,12,485.5,93.2)" />
<use xlink:href="#f0_7l" transform="matrix(12,0,0,12,495.1,93.2)" />
<use xlink:href="#f0_9q" transform="matrix(12,0,0,12,502.8,93.2)" />
<use xlink:href="#f0_7z" transform="matrix(12,0,0,12,506.8,93.2)" />
<use xlink:href="#f0_b5" transform="matrix(12,0,0,12,515.9,93.2)" />
<use xlink:href="#f0_9q" transform="matrix(12,0,0,12,527.7,93.2)" />
<use xlink:href="#f0_b5" transform="matrix(12,0,0,12,531.7,93.2)" />
<use xlink:href="#f0_89" transform="matrix(12,0,0,12,543.1,93.2)" />
<use xlink:href="#f0_am" transform="matrix(12,0,0,12,548.6,93.2)" />
<use xlink:href="#f0_c6" transform="matrix(12,0,0,12,558.1,93.2)" />
<use xlink:href="#f0_af" transform="matrix(12,0,0,12,568,93.2)" />
<use xlink:href="#f0_7v" transform="matrix(12,0,0,12,577.5,93.2)" />
<use xlink:href="#f0_bf" transform="matrix(12,0,0,12,591.1,93.2)" />
<use xlink:href="#f0_am" transform="matrix(12,0,0,12,597.3,93.2)" />
<use xlink:href="#f0_7k" transform="matrix(12,0,0,12,611.2,93.2)" />
<use xlink:href="#f0_7z" transform="matrix(12,0,0,12,620.7,93.2)" />
<use xlink:href="#f0_7v" transform="matrix(12,0,0,12,633.9,93.2)" />
<use xlink:href="#f0_9q" transform="matrix(12,0,0,12,643.8,93.2)" />
<use xlink:href="#f0_b5" transform="matrix(12,0,0,12,647.8,93.2)" />
<use xlink:href="#f0_bf" transform="matrix(12,0,0,12,655.2,93.2)" />
<use xlink:href="#f0_b1" transform="matrix(12,0,0,12,661.4,93.2)" />
<use xlink:href="#f0_9q" transform="matrix(12,0,0,12,667.6,93.2)" />
<use xlink:href="#f0_7k" transform="matrix(12,0,0,12,671.6,93.2)" />
<use xlink:href="#f0_c6" transform="matrix(12,0,0,12,681.2,93.2)" />
<use xlink:href="#f0_bf" transform="matrix(12,0,0,12,690.7,93.2)" />
<use xlink:href="#f0_7z" transform="matrix(12,0,0,12,696.9,93.2)" />
<use xlink:href="#f0_7v" transform="matrix(12,0,0,12,706.1,93.2)" />
<use xlink:href="#f0_77" transform="matrix(12,0,0,12,720,93.2)" />
<use xlink:href="#f0_bf" transform="matrix(12,0,0,12,728.8,93.2)" />
<use xlink:href="#f0_bf" transform="matrix(12,0,0,12,739.1,93.2)" />
<use xlink:href="#f0_9n" transform="matrix(12,0,0,12,745.3,93.2)" />
<use xlink:href="#f0_7z" transform="matrix(12,0,0,12,754.8,93.2)" />
<use xlink:href="#f0_b5" transform="matrix(12,0,0,12,768,93.2)" />
<use xlink:href="#f0_77" transform="matrix(12,0,0,12,775.3,93.2)" />
<use xlink:href="#f0_ae" transform="matrix(12,0,0,12,784.1,93.2)" />
<use xlink:href="#f0_7z" transform="matrix(12,0,0,12,798.7,93.2)" />
<use xlink:href="#f0_a8" transform="matrix(12,0,0,12,812,93.2)" />
<use xlink:href="#f0_9q" transform="matrix(12,0,0,12,816,93.2)" />
<use xlink:href="#f0_af" transform="matrix(12,0,0,12,820,93.2)" />
<use xlink:href="#f0_7z" transform="matrix(12,0,0,12,829.6,93.2)" />
<use xlink:href="#f0_77" transform="matrix(12,0,0,12,838.7,93.2)" />
<use xlink:href="#f0_b1" transform="matrix(12,0,0,12,847.9,93.2)" />
<use xlink:href="#f0_bf" transform="matrix(12,0,0,12,55,117.4)" />
<use xlink:href="#f0_7z" transform="matrix(12,0,0,12,61.3,117.4)" />
<use xlink:href="#f0_af" transform="matrix(12,0,0,12,70.4,117.4)" />
<use xlink:href="#f0_b5" transform="matrix(12,0,0,12,80,117.4)" />
<use xlink:href="#f0_7z" transform="matrix(12,0,0,12,87.3,117.4)" />
<use xlink:href="#f0_am" transform="matrix(12,0,0,12,100.5,117.4)" />
<use xlink:href="#f0_af" transform="matrix(12,0,0,12,110,117.4)" />
<use xlink:href="#f0_7z" transform="matrix(12,0,0,12,123.6,117.4)" />
<use xlink:href="#f0_9q" transform="matrix(12,0,0,12,132.7,117.4)" />
<use xlink:href="#f0_bf" transform="matrix(12,0,0,12,136.8,117.4)" />
<use xlink:href="#f0_9n" transform="matrix(12,0,0,12,143,117.4)" />
<use xlink:href="#f0_7z" transform="matrix(12,0,0,12,152.6,117.4)" />
<use xlink:href="#f0_b1" transform="matrix(12,0,0,12,161.7,117.4)" />
<use xlink:href="#f0_b5" transform="matrix(12,0,0,12,172.4,117.4)" />
<use xlink:href="#f0_9q" transform="matrix(12,0,0,12,179.7,117.4)" />
<use xlink:href="#f0_7v" transform="matrix(12,0,0,12,183.7,117.4)" />
<use xlink:href="#f0_7z" transform="matrix(12,0,0,12,193.2,117.4)" />
<use xlink:href="#f0_am" transform="matrix(12,0,0,12,206.4,117.4)" />
<use xlink:href="#f0_89" transform="matrix(12,0,0,12,216.3,117.4)" />
<use xlink:href="#f0_bf" transform="matrix(12,0,0,12,225.8,117.4)" />
<use xlink:href="#f0_9n" transform="matrix(12,0,0,12,232.1,117.4)" />
<use xlink:href="#f0_7z" transform="matrix(12,0,0,12,241.6,117.4)" />
<use xlink:href="#f0_ae" transform="matrix(12,0,0,12,254.8,117.4)" />
<use xlink:href="#f0_am" transform="matrix(12,0,0,12,269.4,117.4)" />
<use xlink:href="#f0_7v" transform="matrix(12,0,0,12,279.3,117.4)" />
<use xlink:href="#f0_7z" transform="matrix(12,0,0,12,288.9,117.4)" />
<use xlink:href="#f0_nt" transform="matrix(12,0,0,12,298,117.4)" />
<use xlink:href="#f0_2t" transform="matrix(12,0,0,12,306.8,117.4)" />
<use xlink:href="#f0_9n" transform="matrix(12,0,0,12,315.6,117.4)" />
<use xlink:href="#f0_7z" transform="matrix(12,0,0,12,325.2,117.4)" />
<use xlink:href="#f0_89" transform="matrix(12,0,0,12,338.7,117.4)" />
<use xlink:href="#f0_b1" transform="matrix(12,0,0,12,344.2,117.4)" />
<use xlink:href="#f0_7z" transform="matrix(12,0,0,12,350.4,117.4)" />
<use xlink:href="#f0_b0" transform="matrix(12,0,0,12,359.6,117.4)" />
<use xlink:href="#f0_c6" transform="matrix(12,0,0,12,369.1,117.4)" />
<use xlink:href="#f0_7z" transform="matrix(12,0,0,12,378.7,117.4)" />
<use xlink:href="#f0_af" transform="matrix(12,0,0,12,387.8,117.4)" />
<use xlink:href="#f0_7l" transform="matrix(12,0,0,12,397.7,117.4)" />
<use xlink:href="#f0_co" transform="matrix(12,0,0,12,405.4,117.4)" />
<use xlink:href="#f0_7l" transform="matrix(12,0,0,12,417.9,117.4)" />
<use xlink:href="#f0_c6" transform="matrix(12,0,0,12,425.9,117.4)" />
<use xlink:href="#f0_b1" transform="matrix(12,0,0,12,435.5,117.4)" />
<use xlink:href="#f0_ch" transform="matrix(12,0,0,12,441.7,117.4)" />
<use xlink:href="#f0_7z" transform="matrix(12,0,0,12,450.1,117.4)" />
<use xlink:href="#f0_9q" transform="matrix(12,0,0,12,463.3,117.4)" />
<use xlink:href="#f0_b5" transform="matrix(12,0,0,12,467.3,117.4)" />
<use xlink:href="#f0_7k" transform="matrix(12,0,0,12,478.7,117.4)" />
<use xlink:href="#f0_7z" transform="matrix(12,0,0,12,488.2,117.4)" />
<use xlink:href="#f0_a8" transform="matrix(12,0,0,12,497.3,117.4)" />
<use xlink:href="#f0_a8" transform="matrix(12,0,0,12,501.8,117.4)" />
<use xlink:href="#f0_b5" transform="matrix(12,0,0,12,509.8,117.4)" />
<use xlink:href="#f0_9n" transform="matrix(12,0,0,12,517.1,117.4)" />
<use xlink:href="#f0_77" transform="matrix(12,0,0,12,526.7,117.4)" />
<use xlink:href="#f0_ay" transform="matrix(12,0,0,12,535.5,117.4)" />
<use xlink:href="#f0_7z" transform="matrix(12,0,0,12,545,117.4)" />
<use xlink:href="#f0_7v" transform="matrix(12,0,0,12,554.1,117.4)" />
<use xlink:href="#f0_77" transform="matrix(12,0,0,12,568.1,117.4)" />
<use xlink:href="#f0_af" transform="matrix(12,0,0,12,576.9,117.4)" />
<use xlink:href="#f0_7v" transform="matrix(12,0,0,12,586.4,117.4)" />
<use xlink:href="#f1_1es" transform="matrix(12,0,0,12,600.8,117.4)" />
<use xlink:href="#f1_2ml" transform="matrix(12,0,0,12,617.7,117.4)" />
<use xlink:href="#f1_1f4" transform="matrix(12,0,0,12,636.7,117.4)" />
<use xlink:href="#f1_2c8" transform="matrix(8.4,0,0,8.4,651.5,121)" />
<use xlink:href="#f1_2ml" transform="matrix(12,0,0,12,665.8,117.4)" />
<use xlink:href="#f1_1f4" transform="matrix(12,0,0,12,684.5,117.4)" />
<use xlink:href="#f1_2bt" transform="matrix(8.4,0,0,8.4,699.1,121)" />
<use xlink:href="#f0_1c" transform="matrix(12,0,0,12,55,396.8)" />
<use xlink:href="#f0_af" transform="matrix(12,0,0,12,59.8,396.8)" />
<use xlink:href="#f0_77" transform="matrix(12,0,0,12,73.4,396.8)" />
<use xlink:href="#f0_af" transform="matrix(12,0,0,12,82.1,396.8)" />
<use xlink:href="#f0_bf" transform="matrix(12,0,0,12,91.7,396.8)" />
<use xlink:href="#f0_9q" transform="matrix(12,0,0,12,97.9,396.8)" />
<use xlink:href="#f0_uf" transform="matrix(12,0,0,12,102,396.8)" />
<use xlink:href="#f0_b5" transform="matrix(12,0,0,12,107.5,396.8)" />
<use xlink:href="#f0_co" transform="matrix(12,0,0,12,114.8,396.8)" />
<use xlink:href="#f0_ae" transform="matrix(12,0,0,12,123.2,396.8)" />
<use xlink:href="#f0_ae" transform="matrix(12,0,0,12,137.8,396.8)" />
<use xlink:href="#f0_7z" transform="matrix(12,0,0,12,152.5,396.8)" />
<use xlink:href="#f0_bf" transform="matrix(12,0,0,12,161.7,396.8)" />
<use xlink:href="#f0_b1" transform="matrix(12,0,0,12,167.9,396.8)" />
<use xlink:href="#f0_9q" transform="matrix(12,0,0,12,174.1,396.8)" />
<use xlink:href="#f0_7l" transform="matrix(12,0,0,12,178.2,396.8)" />
<use xlink:href="#f0_am" transform="matrix(12,0,0,12,189.9,396.8)" />
<use xlink:href="#f0_b1" transform="matrix(12,0,0,12,199.8,396.8)" />
<use xlink:href="#f0_b5" transform="matrix(12,0,0,12,210,396.8)" />
<use xlink:href="#f0_a5" transform="matrix(12,0,0,12,217.4,396.8)" />
<use xlink:href="#f0_7z" transform="matrix(12,0,0,12,225.8,396.8)" />
<use xlink:href="#f0_ci" transform="matrix(12,0,0,12,234.9,396.8)" />
<use xlink:href="#f0_7v" transform="matrix(12,0,0,12,252.2,396.8)" />
<use xlink:href="#f0_9q" transform="matrix(12,0,0,12,261.7,396.8)" />
<use xlink:href="#f0_b5" transform="matrix(12,0,0,12,265.7,396.8)" />
<use xlink:href="#f0_bf" transform="matrix(12,0,0,12,273,396.8)" />
<use xlink:href="#f0_b1" transform="matrix(12,0,0,12,279.3,396.8)" />
<use xlink:href="#f0_9q" transform="matrix(12,0,0,12,285.5,396.8)" />
<use xlink:href="#f0_7k" transform="matrix(12,0,0,12,289.5,396.8)" />
<use xlink:href="#f0_c6" transform="matrix(12,0,0,12,299.4,396.8)" />
<use xlink:href="#f0_bf" transform="matrix(12,0,0,12,308.9,396.8)" />
<use xlink:href="#f0_9q" transform="matrix(12,0,0,12,315.1,396.8)" />
<use xlink:href="#f0_am" transform="matrix(12,0,0,12,319.2,396.8)" />
<use xlink:href="#f0_af" transform="matrix(12,0,0,12,329.1,396.8)" />
<use xlink:href="#f0_nq" transform="matrix(12,0,0,12,338.6,396.8)" />
<use xlink:href="#f0_bf" transform="matrix(12,0,0,12,347.4,396.8)" />
<use xlink:href="#f0_9n" transform="matrix(12,0,0,12,353.6,396.8)" />
<use xlink:href="#f0_7z" transform="matrix(12,0,0,12,363.1,396.8)" />
<use xlink:href="#f0_ch" transform="matrix(12,0,0,12,376.3,396.8)" />
<use xlink:href="#f0_77" transform="matrix(12,0,0,12,384.7,396.8)" />
<use xlink:href="#f0_b1" transform="matrix(12,0,0,12,393.5,396.8)" />
<use xlink:href="#f0_9q" transform="matrix(12,0,0,12,400.1,396.8)" />
<use xlink:href="#f0_77" transform="matrix(12,0,0,12,404.2,396.8)" />
<use xlink:href="#f0_bf" transform="matrix(12,0,0,12,412.9,396.8)" />
<use xlink:href="#f0_9q" transform="matrix(12,0,0,12,419.2,396.8)" />
<use xlink:href="#f0_am" transform="matrix(12,0,0,12,423.6,396.8)" />
<use xlink:href="#f0_af" transform="matrix(12,0,0,12,433.1,396.8)" />
<use xlink:href="#f0_7v" transform="matrix(12,0,0,12,446.7,396.8)" />
<use xlink:href="#f0_am" transform="matrix(12,0,0,12,456.5,396.8)" />
<use xlink:href="#f0_7z" transform="matrix(12,0,0,12,466.1,396.8)" />
<use xlink:href="#f0_b5" transform="matrix(12,0,0,12,475.2,396.8)" />
<use xlink:href="#f0_af" transform="matrix(12,0,0,12,486.6,396.8)" />
<use xlink:href="#f0_am" transform="matrix(12,0,0,12,496.1,396.8)" />
<use xlink:href="#f0_bf" transform="matrix(12,0,0,12,505.7,396.8)" />
<use xlink:href="#f0_9n" transform="matrix(12,0,0,12,515.9,396.8)" />
<use xlink:href="#f0_77" transform="matrix(12,0,0,12,525.4,396.8)" />
<use xlink:href="#f0_ch" transform="matrix(12,0,0,12,534.2,396.8)" />
<use xlink:href="#f0_7z" transform="matrix(12,0,0,12,542.7,396.8)" />
<use xlink:href="#f0_b5" transform="matrix(12,0,0,12,555.9,396.8)" />
<use xlink:href="#f0_co" transform="matrix(12,0,0,12,563.2,396.8)" />
<use xlink:href="#f0_ae" transform="matrix(12,0,0,12,571.6,396.8)" />
<use xlink:href="#f0_ae" transform="matrix(12,0,0,12,586.2,396.8)" />
<use xlink:href="#f0_7z" transform="matrix(12,0,0,12,600.9,396.8)" />
<use xlink:href="#f0_bf" transform="matrix(12,0,0,12,610.1,396.8)" />
<use xlink:href="#f0_b1" transform="matrix(12,0,0,12,616.3,396.8)" />
<use xlink:href="#f0_co" transform="matrix(12,0,0,12,622.5,396.8)" />
<use xlink:href="#f0_nt" transform="matrix(12,0,0,12,630.9,396.8)" />
<use xlink:href="#f0_ov" transform="matrix(12,0,0,12,82.5,433.1)" />
<use xlink:href="#f0_9q" transform="matrix(12,0,0,12,88.1,433.1)" />
<use xlink:href="#f0_ow" transform="matrix(12,0,0,12,92.1,433.1)" />
<use xlink:href="#f0_1c" transform="matrix(12,0,0,12,137.5,433.1)" />
<use xlink:href="#f0_89" transform="matrix(12,0,0,12,142.3,433.1)" />
<use xlink:href="#f0_bf" transform="matrix(12,0,0,12,151.8,433.1)" />
<use xlink:href="#f0_9n" transform="matrix(12,0,0,12,158,433.1)" />
<use xlink:href="#f0_7z" transform="matrix(12,0,0,12,167.6,433.1)" />
<use xlink:href="#f0_89" transform="matrix(12,0,0,12,180.8,433.1)" />
<use xlink:href="#f0_b1" transform="matrix(12,0,0,12,186.3,433.1)" />
<use xlink:href="#f0_7z" transform="matrix(12,0,0,12,192.5,433.1)" />
<use xlink:href="#f0_b0" transform="matrix(12,0,0,12,201.6,433.1)" />
<use xlink:href="#f0_c6" transform="matrix(12,0,0,12,211.2,433.1)" />
<use xlink:href="#f0_7z" transform="matrix(12,0,0,12,220.7,433.1)" />
<use xlink:href="#f0_af" transform="matrix(12,0,0,12,230.2,433.1)" />
<use xlink:href="#f0_7l" transform="matrix(12,0,0,12,239.8,433.1)" />
<use xlink:href="#f0_9q" transform="matrix(12,0,0,12,247.5,433.1)" />
<use xlink:href="#f0_7z" transform="matrix(12,0,0,12,251.5,433.1)" />
<use xlink:href="#f0_b5" transform="matrix(12,0,0,12,260.6,433.1)" />
<use xlink:href="#f0_9q" transform="matrix(12,0,0,12,272,433.1)" />
<use xlink:href="#f0_af" transform="matrix(12,0,0,12,276.4,433.1)" />
<use xlink:href="#f0_7l" transform="matrix(12,0,0,12,285.9,433.1)" />
<use xlink:href="#f0_b1" transform="matrix(12,0,0,12,293.6,433.1)" />
<use xlink:href="#f0_7z" transform="matrix(12,0,0,12,299.9,433.1)" />
<use xlink:href="#f0_77" transform="matrix(12,0,0,12,309,433.1)" />
<use xlink:href="#f0_b5" transform="matrix(12,0,0,12,317.8,433.1)" />
<use xlink:href="#f0_7z" transform="matrix(12,0,0,12,325.1,433.1)" />
<use xlink:href="#f0_b5" transform="matrix(12,0,0,12,334.3,433.1)" />
<use xlink:href="#f0_b5" transform="matrix(12,0,0,12,345.9,433.1)" />
<use xlink:href="#f0_9n" transform="matrix(12,0,0,12,353.2,433.1)" />
<use xlink:href="#f0_77" transform="matrix(12,0,0,12,362.7,433.1)" />
<use xlink:href="#f0_b1" transform="matrix(12,0,0,12,371.5,433.1)" />
<use xlink:href="#f0_ay" transform="matrix(12,0,0,12,377.8,433.1)" />
<use xlink:href="#f0_a8" transform="matrix(12,0,0,12,387.4,433.1)" />
<use xlink:href="#f0_co" transform="matrix(12,0,0,12,391.4,433.1)" />
<use xlink:href="#f0_77" transform="matrix(12,0,0,12,403.8,433.1)" />
<use xlink:href="#f0_bf" transform="matrix(12,0,0,12,412.6,433.1)" />
<use xlink:href="#f0_7k" transform="matrix(12,0,0,12,422.9,433.1)" />
<use xlink:href="#f0_7z" transform="matrix(12,0,0,12,432.4,433.1)" />
<use xlink:href="#f0_9d" transform="matrix(12,0,0,12,441.5,433.1)" />
<use xlink:href="#f0_9q" transform="matrix(12,0,0,12,450.4,433.1)" />
<use xlink:href="#f0_af" transform="matrix(12,0,0,12,454.7,433.1)" />
<use xlink:href="#f0_af" transform="matrix(12,0,0,12,464.3,433.1)" />
<use xlink:href="#f0_9q" transform="matrix(12,0,0,12,473.8,433.1)" />
<use xlink:href="#f0_af" transform="matrix(12,0,0,12,478.2,433.1)" />
<use xlink:href="#f0_9d" transform="matrix(12,0,0,12,487.7,433.1)" />
<use xlink:href="#f0_77" transform="matrix(12,0,0,12,500.5,433.1)" />
<use xlink:href="#f0_af" transform="matrix(12,0,0,12,509.3,433.1)" />
<use xlink:href="#f0_7v" transform="matrix(12,0,0,12,518.9,433.1)" />
<use xlink:href="#f0_7v" transform="matrix(12,0,0,12,532.4,433.1)" />
<use xlink:href="#f0_7z" transform="matrix(12,0,0,12,542,433.1)" />
<use xlink:href="#f0_7l" transform="matrix(12,0,0,12,551.1,433.1)" />
<use xlink:href="#f0_b1" transform="matrix(12,0,0,12,559.2,433.1)" />
<use xlink:href="#f0_7z" transform="matrix(12,0,0,12,565.4,433.1)" />
<use xlink:href="#f0_77" transform="matrix(12,0,0,12,574.6,433.1)" />
<use xlink:href="#f0_b5" transform="matrix(12,0,0,12,583.4,433.1)" />
<use xlink:href="#f0_7z" transform="matrix(12,0,0,12,590.7,433.1)" />
<use xlink:href="#f0_b5" transform="matrix(12,0,0,12,599.8,433.1)" />
<use xlink:href="#f0_b5" transform="matrix(12,0,0,12,611.2,433.1)" />
<use xlink:href="#f0_a8" transform="matrix(12,0,0,12,618.8,433.1)" />
<use xlink:href="#f0_am" transform="matrix(12,0,0,12,622.8,433.1)" />
<use xlink:href="#f0_ci" transform="matrix(12,0,0,12,632.3,433.1)" />
<use xlink:href="#f0_a8" transform="matrix(12,0,0,12,645.5,433.1)" />
<use xlink:href="#f0_co" transform="matrix(12,0,0,12,649.6,433.1)" />
<use xlink:href="#f0_77" transform="matrix(12,0,0,12,662,433.1)" />
<use xlink:href="#f0_89" transform="matrix(12,0,0,12,670.8,433.1)" />
<use xlink:href="#f0_bf" transform="matrix(12,0,0,12,676.3,433.1)" />
<use xlink:href="#f0_7z" transform="matrix(12,0,0,12,682.5,433.1)" />
<use xlink:href="#f0_b1" transform="matrix(12,0,0,12,691.7,433.1)" />
<use xlink:href="#f0_ae" transform="matrix(12,0,0,12,702,433.1)" />
<use xlink:href="#f0_am" transform="matrix(12,0,0,12,716.6,433.1)" />
<use xlink:href="#f0_7v" transform="matrix(12,0,0,12,726.2,433.1)" />
<use xlink:href="#f0_77" transform="matrix(12,0,0,12,735.7,433.1)" />
<use xlink:href="#f0_a8" transform="matrix(12,0,0,12,744.8,433.1)" />
<use xlink:href="#f0_ch" transform="matrix(12,0,0,12,752.9,433.1)" />
<use xlink:href="#f0_77" transform="matrix(12,0,0,12,761.3,433.1)" />
<use xlink:href="#f0_a8" transform="matrix(12,0,0,12,770.1,433.1)" />
<use xlink:href="#f0_c6" transform="matrix(12,0,0,12,774.2,433.1)" />
<use xlink:href="#f0_7z" transform="matrix(12,0,0,12,783.7,433.1)" />
<use xlink:href="#f0_nq" transform="matrix(12,0,0,12,793.2,433.1)" />
<use xlink:href="#f0_bf" transform="matrix(12,0,0,12,801.6,433.1)" />
<use xlink:href="#f0_9n" transform="matrix(12,0,0,12,807.9,433.1)" />
<use xlink:href="#f0_7z" transform="matrix(12,0,0,12,817.4,433.1)" />
<use xlink:href="#f0_af" transform="matrix(12,0,0,12,826.5,433.1)" />
<use xlink:href="#f0_9q" transform="matrix(12,0,0,12,840.5,433.1)" />
<use xlink:href="#f0_bf" transform="matrix(12,0,0,12,844.5,433.1)" />
<use xlink:href="#f0_9q" transform="matrix(12,0,0,12,854.7,433.1)" />
<use xlink:href="#f0_b5" transform="matrix(12,0,0,12,858.8,433.1)" />
<use xlink:href="#f0_7l" transform="matrix(12,0,0,12,137.5,457.4)" />
<use xlink:href="#f0_77" transform="matrix(12,0,0,12,145.2,457.4)" />
<use xlink:href="#f0_a8" transform="matrix(12,0,0,12,154,457.4)" />
<use xlink:href="#f0_a8" transform="matrix(12,0,0,12,158.1,457.4)" />
<use xlink:href="#f0_7z" transform="matrix(12,0,0,12,162.1,457.4)" />
<use xlink:href="#f0_7v" transform="matrix(12,0,0,12,171.2,457.4)" />
<use xlink:href="#f0_ay" transform="matrix(12,0,0,12,185.2,457.4)" />
<use xlink:href="#f0_am" transform="matrix(12,0,0,12,194.7,457.4)" />
<use xlink:href="#f0_b5" transform="matrix(12,0,0,12,204.3,457.4)" />
<use xlink:href="#f0_9q" transform="matrix(12,0,0,12,211.6,457.4)" />
<use xlink:href="#f0_bf" transform="matrix(12,0,0,12,215.6,457.4)" />
<use xlink:href="#f0_9q" transform="matrix(12,0,0,12,221.8,457.4)" />
<use xlink:href="#f0_ch" transform="matrix(12,0,0,12,225.8,457.4)" />
<use xlink:href="#f0_7z" transform="matrix(12,0,0,12,234.3,457.4)" />
<use xlink:href="#f0_b5" transform="matrix(12,0,0,12,247.5,457.4)" />
<use xlink:href="#f0_a5" transform="matrix(12,0,0,12,254.8,457.4)" />
<use xlink:href="#f0_7z" transform="matrix(12,0,0,12,263.2,457.4)" />
<use xlink:href="#f0_ci" transform="matrix(12,0,0,12,272.3,457.4)" />
<use xlink:href="#f0_af" transform="matrix(12,0,0,12,285.5,457.4)" />
<use xlink:href="#f0_7z" transform="matrix(12,0,0,12,295.1,457.4)" />
<use xlink:href="#f0_b5" transform="matrix(12,0,0,12,304.2,457.4)" />
<use xlink:href="#f0_b5" transform="matrix(12,0,0,12,311.6,457.4)" />
<use xlink:href="#f0_77" transform="matrix(12,0,0,12,322.9,457.4)" />
<use xlink:href="#f0_af" transform="matrix(12,0,0,12,331.7,457.4)" />
<use xlink:href="#f0_7v" transform="matrix(12,0,0,12,341.2,457.4)" />
<use xlink:href="#f1_1es" transform="matrix(12,0,0,12,355.1,457.4)" />
<use xlink:href="#f1_2mp" transform="matrix(12,0,0,12,372,457.4)" />
<use xlink:href="#f1_1f4" transform="matrix(12,0,0,12,391,457.4)" />
<use xlink:href="#f1_2c8" transform="matrix(8.4,0,0,8.4,405.7,461.1)" />
<use xlink:href="#f1_2mp" transform="matrix(12,0,0,12,420,457.4)" />
<use xlink:href="#f1_1f4" transform="matrix(12,0,0,12,438.7,457.4)" />
<use xlink:href="#f1_2bt" transform="matrix(8.4,0,0,8.4,453.4,461.1)" />
<use xlink:href="#f0_nt" transform="matrix(12,0,0,12,463.3,457.4)" />
<use xlink:href="#f0_ov" transform="matrix(12,0,0,12,82.5,710.1)" />
<use xlink:href="#f0_9q" transform="matrix(12,0,0,12,88.1,710.1)" />
<use xlink:href="#f0_9q" transform="matrix(12,0,0,12,92.1,710.1)" />
<use xlink:href="#f0_ow" transform="matrix(12,0,0,12,96.1,710.1)" />
<use xlink:href="#f0_1c" transform="matrix(12,0,0,12,137.5,710.1)" />
<use xlink:href="#f0_89" transform="matrix(12,0,0,12,142.3,710.1)" />
<use xlink:href="#f0_bf" transform="matrix(12,0,0,12,151.8,710.1)" />
<use xlink:href="#f0_9n" transform="matrix(12,0,0,12,158,710.1)" />
<use xlink:href="#f0_7z" transform="matrix(12,0,0,12,167.6,710.1)" />
<use xlink:href="#f0_89" transform="matrix(12,0,0,12,180.8,710.1)" />
<use xlink:href="#f0_b1" transform="matrix(12,0,0,12,186.3,710.1)" />
<use xlink:href="#f0_7z" transform="matrix(12,0,0,12,192.5,710.1)" />
<use xlink:href="#f0_b0" transform="matrix(12,0,0,12,201.6,710.1)" />
<use xlink:href="#f0_c6" transform="matrix(12,0,0,12,211.2,710.1)" />
<use xlink:href="#f0_7z" transform="matrix(12,0,0,12,220.7,710.1)" />
<use xlink:href="#f0_af" transform="matrix(12,0,0,12,230.2,710.1)" />
<use xlink:href="#f0_7l" transform="matrix(12,0,0,12,239.8,710.1)" />
<use xlink:href="#f0_9q" transform="matrix(12,0,0,12,247.5,710.1)" />
<use xlink:href="#f0_7z" transform="matrix(12,0,0,12,251.5,710.1)" />
<use xlink:href="#f0_b5" transform="matrix(12,0,0,12,260.6,710.1)" />
<use xlink:href="#f0_9q" transform="matrix(12,0,0,12,272,710.1)" />
<use xlink:href="#f0_af" transform="matrix(12,0,0,12,276.4,710.1)" />
<use xlink:href="#f0_7l" transform="matrix(12,0,0,12,285.9,710.1)" />
<use xlink:href="#f0_b1" transform="matrix(12,0,0,12,293.6,710.1)" />
<use xlink:href="#f0_7z" transform="matrix(12,0,0,12,299.9,710.1)" />
<use xlink:href="#f0_77" transform="matrix(12,0,0,12,309,710.1)" />
<use xlink:href="#f0_b5" transform="matrix(12,0,0,12,317.8,710.1)" />
<use xlink:href="#f0_7z" transform="matrix(12,0,0,12,325.1,710.1)" />
<use xlink:href="#f0_b5" transform="matrix(12,0,0,12,334.3,710.1)" />
<use xlink:href="#f0_b5" transform="matrix(12,0,0,12,345.7,710.1)" />
<use xlink:href="#f0_a8" transform="matrix(12,0,0,12,353,710.1)" />
<use xlink:href="#f0_am" transform="matrix(12,0,0,12,357,710.1)" />
<use xlink:href="#f0_ci" transform="matrix(12,0,0,12,366.5,710.1)" />
<use xlink:href="#f0_a8" transform="matrix(12,0,0,12,379.7,710.1)" />
<use xlink:href="#f0_co" transform="matrix(12,0,0,12,383.8,710.1)" />
<use xlink:href="#f0_77" transform="matrix(12,0,0,12,396.2,710.1)" />
<use xlink:href="#f0_af" transform="matrix(12,0,0,12,405,710.1)" />
<use xlink:href="#f0_7v" transform="matrix(12,0,0,12,414.5,710.1)" />
<use xlink:href="#f0_7v" transform="matrix(12,0,0,12,428.4,710.1)" />
<use xlink:href="#f0_7z" transform="matrix(12,0,0,12,438,710.1)" />
<use xlink:href="#f0_7l" transform="matrix(12,0,0,12,447.1,710.1)" />
<use xlink:href="#f0_b1" transform="matrix(12,0,0,12,454.9,710.1)" />
<use xlink:href="#f0_7z" transform="matrix(12,0,0,12,461.1,710.1)" />
<use xlink:href="#f0_77" transform="matrix(12,0,0,12,470.2,710.1)" />
<use xlink:href="#f0_b5" transform="matrix(12,0,0,12,479,710.1)" />
<use xlink:href="#f0_7z" transform="matrix(12,0,0,12,486.3,710.1)" />
<use xlink:href="#f0_b5" transform="matrix(12,0,0,12,495.5,710.1)" />
<use xlink:href="#f0_b5" transform="matrix(12,0,0,12,506.9,710.1)" />
<use xlink:href="#f0_9n" transform="matrix(12,0,0,12,514.2,710.1)" />
<use xlink:href="#f0_77" transform="matrix(12,0,0,12,523.7,710.1)" />
<use xlink:href="#f0_b1" transform="matrix(12,0,0,12,532.5,710.1)" />
<use xlink:href="#f0_ay" transform="matrix(12,0,0,12,538.7,710.1)" />
<use xlink:href="#f0_a8" transform="matrix(12,0,0,12,548.3,710.1)" />
<use xlink:href="#f0_co" transform="matrix(12,0,0,12,552.3,710.1)" />
<use xlink:href="#f0_77" transform="matrix(12,0,0,12,564.8,710.1)" />
<use xlink:href="#f0_89" transform="matrix(12,0,0,12,573.5,710.1)" />
<use xlink:href="#f0_bf" transform="matrix(12,0,0,12,579.1,710.1)" />
<use xlink:href="#f0_7z" transform="matrix(12,0,0,12,585.3,710.1)" />
<use xlink:href="#f0_b1" transform="matrix(12,0,0,12,594.4,710.1)" />
<use xlink:href="#f0_ae" transform="matrix(12,0,0,12,604.7,710.1)" />
<use xlink:href="#f0_am" transform="matrix(12,0,0,12,619.7,710.1)" />
<use xlink:href="#f0_7v" transform="matrix(12,0,0,12,629.3,710.1)" />
<use xlink:href="#f0_77" transform="matrix(12,0,0,12,638.8,710.1)" />
<use xlink:href="#f0_a8" transform="matrix(12,0,0,12,647.6,710.1)" />
<use xlink:href="#f0_ch" transform="matrix(12,0,0,12,656,710.1)" />
<use xlink:href="#f0_77" transform="matrix(12,0,0,12,664.4,710.1)" />
<use xlink:href="#f0_a8" transform="matrix(12,0,0,12,673.8,710.1)" />
<use xlink:href="#f0_c6" transform="matrix(12,0,0,12,677.9,710.1)" />
<use xlink:href="#f0_7z" transform="matrix(12,0,0,12,687.4,710.1)" />
<use xlink:href="#f0_nq" transform="matrix(12,0,0,12,696.5,710.1)" />
<use xlink:href="#f0_bf" transform="matrix(12,0,0,12,705.3,710.1)" />
<use xlink:href="#f0_9n" transform="matrix(12,0,0,12,711.6,710.1)" />
<use xlink:href="#f0_7z" transform="matrix(12,0,0,12,721.1,710.1)" />
<use xlink:href="#f0_b5" transform="matrix(12,0,0,12,734.3,710.1)" />
<use xlink:href="#f0_a5" transform="matrix(12,0,0,12,741.6,710.1)" />
<use xlink:href="#f0_7z" transform="matrix(12,0,0,12,750,710.1)" />
<use xlink:href="#f0_ci" transform="matrix(12,0,0,12,759.1,710.1)" />
<use xlink:href="#f0_af" transform="matrix(12,0,0,12,772.4,710.1)" />
<use xlink:href="#f0_7z" transform="matrix(12,0,0,12,781.9,710.1)" />
<use xlink:href="#f0_b5" transform="matrix(12,0,0,12,791,710.1)" />
<use xlink:href="#f0_b5" transform="matrix(12,0,0,12,798.4,710.1)" />
<use xlink:href="#f0_9q" transform="matrix(12,0,0,12,809.7,710.1)" />
<use xlink:href="#f0_b5" transform="matrix(12,0,0,12,813.8,710.1)" />
<use xlink:href="#f0_b5" transform="matrix(12,0,0,12,825.1,710.1)" />
<use xlink:href="#f0_77" transform="matrix(12,0,0,12,832.4,710.1)" />
<use xlink:href="#f0_9q" transform="matrix(12,0,0,12,841.2,710.1)" />
<use xlink:href="#f0_7v" transform="matrix(12,0,0,12,845.3,710.1)" />
<use xlink:href="#f0_bf" transform="matrix(12,0,0,12,858.8,710.1)" />
<use xlink:href="#f0_am" transform="matrix(12,0,0,12,865,710.1)" />
<use xlink:href="#f0_7k" transform="matrix(12,0,0,12,137.5,734.3)" />
<use xlink:href="#f0_7z" transform="matrix(12,0,0,12,147.1,734.3)" />
<use xlink:href="#f0_af" transform="matrix(12,0,0,12,160.3,734.3)" />
<use xlink:href="#f0_7z" transform="matrix(12,0,0,12,169.8,734.3)" />
<use xlink:href="#f0_9d" transform="matrix(12,0,0,12,178.9,734.3)" />
<use xlink:href="#f0_77" transform="matrix(12,0,0,12,187.8,734.3)" />
<use xlink:href="#f0_bf" transform="matrix(12,0,0,12,196.5,734.3)" />
<use xlink:href="#f0_9q" transform="matrix(12,0,0,12,202.8,734.3)" />
<use xlink:href="#f0_ch" transform="matrix(12,0,0,12,206.8,734.3)" />
<use xlink:href="#f0_7z" transform="matrix(12,0,0,12,215.2,734.3)" />
<use xlink:href="#f0_77" transform="matrix(12,0,0,12,228.4,734.3)" />
<use xlink:href="#f0_af" transform="matrix(12,0,0,12,237.2,734.3)" />
<use xlink:href="#f0_7v" transform="matrix(12,0,0,12,246.7,734.3)" />
<use xlink:href="#f1_1es" transform="matrix(12,0,0,12,260.8,734.3)" />
<use xlink:href="#f1_2mo" transform="matrix(12,0,0,12,277.7,734.3)" />
<use xlink:href="#f1_1f4" transform="matrix(12,0,0,12,296.4,734.3)" />
<use xlink:href="#f1_2c8" transform="matrix(8.4,0,0,8.4,311,737.9)" />
<use xlink:href="#f1_2mo" transform="matrix(12,0,0,12,325.7,734.3)" />
<use xlink:href="#f1_1f4" transform="matrix(12,0,0,12,344.4,734.3)" />
<use xlink:href="#f1_2bt" transform="matrix(8.4,0,0,8.4,359.1,737.9)" />
<use xlink:href="#f2_1x" transform="matrix(12,0,0,12,55,960.2)" />
<use xlink:href="#f2_7z" transform="matrix(12,0,0,12,71.2,960.2)" />
<use xlink:href="#f2_77" transform="matrix(12,0,0,12,80.3,960.2)" />
<use xlink:href="#f2_b5" transform="matrix(12,0,0,12,89.5,960.2)" />
<use xlink:href="#f2_c6" transform="matrix(12,0,0,12,96.8,960.2)" />
<use xlink:href="#f2_b1" transform="matrix(12,0,0,12,106.7,960.2)" />
<use xlink:href="#f2_7z" transform="matrix(12,0,0,12,113.3,960.2)" />
<use xlink:href="#f2_am" transform="matrix(12,0,0,12,126.5,960.2)" />
<use xlink:href="#f2_89" transform="matrix(12,0,0,12,136.3,960.2)" />
<use xlink:href="#f2_p" transform="matrix(12,0,0,12,146.2,960.2)" />
<use xlink:href="#f2_9q" transform="matrix(12,0,0,12,158,960.2)" />
<use xlink:href="#f2_b5" transform="matrix(12,0,0,12,162.4,960.2)" />
<use xlink:href="#f2_ay" transform="matrix(12,0,0,12,169.7,960.2)" />
<use xlink:href="#f2_7z" transform="matrix(12,0,0,12,179.6,960.2)" />
<use xlink:href="#f2_b1" transform="matrix(12,0,0,12,188.7,960.2)" />
<use xlink:href="#f2_b5" transform="matrix(12,0,0,12,195.3,960.2)" />
<use xlink:href="#f2_9q" transform="matrix(12,0,0,12,202.6,960.2)" />
<use xlink:href="#f2_am" transform="matrix(12,0,0,12,207.1,960.2)" />
<use xlink:href="#f2_af" transform="matrix(12,0,0,12,216.9,960.2)" />
<use xlink:href="#f0_2t" transform="matrix(12,0,0,12,55,996.5)" />
<use xlink:href="#f0_9n" transform="matrix(12,0,0,12,63.8,996.5)" />
<use xlink:href="#f0_7z" transform="matrix(12,0,0,12,73.4,996.5)" />
<use xlink:href="#f0_7v" transform="matrix(12,0,0,12,86.6,996.5)" />
<use xlink:href="#f0_7z" transform="matrix(12,0,0,12,96.1,996.5)" />
<use xlink:href="#f0_9d" transform="matrix(12,0,0,12,105.2,996.5)" />
<use xlink:href="#f0_b1" transform="matrix(12,0,0,12,114.1,996.5)" />
<use xlink:href="#f0_7z" transform="matrix(12,0,0,12,120.3,996.5)" />
<use xlink:href="#f0_7z" transform="matrix(12,0,0,12,129.4,996.5)" />
<use xlink:href="#f0_bf" transform="matrix(12,0,0,12,142.6,996.5)" />
<use xlink:href="#f0_am" transform="matrix(12,0,0,12,148.8,996.5)" />
<use xlink:href="#f0_ci" transform="matrix(12,0,0,12,162.4,996.5)" />
<use xlink:href="#f0_9n" transform="matrix(12,0,0,12,175.6,996.5)" />
<use xlink:href="#f0_9q" transform="matrix(12,0,0,12,185.5,996.5)" />
<use xlink:href="#f0_7l" transform="matrix(12,0,0,12,189.5,996.5)" />
<use xlink:href="#f0_9n" transform="matrix(12,0,0,12,197.2,996.5)" />
<use xlink:href="#f0_af" transform="matrix(12,0,0,12,211.1,996.5)" />
<use xlink:href="#f0_c6" transform="matrix(12,0,0,12,220.7,996.5)" />
<use xlink:href="#f0_ae" transform="matrix(12,0,0,12,230.2,996.5)" />
<use xlink:href="#f0_7z" transform="matrix(12,0,0,12,244.8,996.5)" />
<use xlink:href="#f0_b1" transform="matrix(12,0,0,12,254,996.5)" />
<use xlink:href="#f0_9q" transform="matrix(12,0,0,12,260.6,996.5)" />
<use xlink:href="#f0_7l" transform="matrix(12,0,0,12,264.6,996.5)" />
<use xlink:href="#f0_77" transform="matrix(12,0,0,12,272.3,996.5)" />
<use xlink:href="#f0_a8" transform="matrix(12,0,0,12,281.1,996.5)" />
<use xlink:href="#f0_7v" transform="matrix(12,0,0,12,289.6,996.5)" />
<use xlink:href="#f0_77" transform="matrix(12,0,0,12,299.1,996.5)" />
<use xlink:href="#f0_bf" transform="matrix(12,0,0,12,307.9,996.5)" />
<use xlink:href="#f0_77" transform="matrix(12,0,0,12,314.1,996.5)" />
<use xlink:href="#f0_bf" transform="matrix(12,0,0,12,326.9,996.5)" />
<use xlink:href="#f0_7z" transform="matrix(12,0,0,12,333.2,996.5)" />
<use xlink:href="#f0_af" transform="matrix(12,0,0,12,342.3,996.5)" />
<use xlink:href="#f0_7v" transform="matrix(12,0,0,12,351.9,996.5)" />
<use xlink:href="#f0_bf" transform="matrix(12,0,0,12,365.4,996.5)" />
<use xlink:href="#f0_am" transform="matrix(12,0,0,12,371.6,996.5)" />
<use xlink:href="#f0_b5" transform="matrix(12,0,0,12,385.5,996.5)" />
<use xlink:href="#f0_ay" transform="matrix(12,0,0,12,392.9,996.5)" />
<use xlink:href="#f0_b1" transform="matrix(12,0,0,12,402.4,996.5)" />
<use xlink:href="#f0_7z" transform="matrix(12,0,0,12,408.6,996.5)" />
<use xlink:href="#f0_77" transform="matrix(12,0,0,12,417.8,996.5)" />
<use xlink:href="#f0_7v" transform="matrix(12,0,0,12,426.9,996.5)" />
<use xlink:href="#f0_77" transform="matrix(12,0,0,12,440.5,996.5)" />
<use xlink:href="#f0_7k" transform="matrix(12,0,0,12,449.3,996.5)" />
<use xlink:href="#f0_am" transform="matrix(12,0,0,12,458.8,996.5)" />
<use xlink:href="#f0_c6" transform="matrix(12,0,0,12,468.4,996.5)" />
<use xlink:href="#f0_bf" transform="matrix(12,0,0,12,477.9,996.5)" />
<use xlink:href="#f0_77" transform="matrix(12,0,0,12,488.2,996.5)" />
<use xlink:href="#f0_af" transform="matrix(12,0,0,12,497.3,996.5)" />
<use xlink:href="#f0_77" transform="matrix(12,0,0,12,510.9,996.5)" />
<use xlink:href="#f0_ch" transform="matrix(12,0,0,12,519.7,996.5)" />
<use xlink:href="#f0_7z" transform="matrix(12,0,0,12,528.1,996.5)" />
<use xlink:href="#f0_b1" transform="matrix(12,0,0,12,537.2,996.5)" />
<use xlink:href="#f0_77" transform="matrix(12,0,0,12,543.5,996.5)" />
<use xlink:href="#f0_9d" transform="matrix(12,0,0,12,552.3,996.5)" />
<use xlink:href="#f0_7z" transform="matrix(12,0,0,12,561.1,996.5)" />
<use xlink:href="#f0_ch" transform="matrix(12,0,0,12,574.3,996.5)" />
<use xlink:href="#f0_77" transform="matrix(12,0,0,12,582.7,996.5)" />
<use xlink:href="#f0_a8" transform="matrix(12,0,0,12,591.5,996.5)" />
<use xlink:href="#f0_c6" transform="matrix(12,0,0,12,595.5,996.5)" />
<use xlink:href="#f0_7z" transform="matrix(12,0,0,12,605.1,996.5)" />
<use xlink:href="#f0_9q" transform="matrix(12,0,0,12,618.3,996.5)" />
<use xlink:href="#f0_b5" transform="matrix(12,0,0,12,622.3,996.5)" />
<use xlink:href="#f0_7l" transform="matrix(12,0,0,12,633.6,996.5)" />
<use xlink:href="#f0_77" transform="matrix(12,0,0,12,641.3,996.5)" />
<use xlink:href="#f0_a8" transform="matrix(12,0,0,12,650.5,996.5)" />
<use xlink:href="#f0_a8" transform="matrix(12,0,0,12,654.5,996.5)" />
<use xlink:href="#f0_7z" transform="matrix(12,0,0,12,658.6,996.5)" />
<use xlink:href="#f0_7v" transform="matrix(12,0,0,12,667.7,996.5)" />
<use xlink:href="#f0_bf" transform="matrix(12,0,0,12,681.6,996.5)" />
<use xlink:href="#f0_9n" transform="matrix(12,0,0,12,687.8,996.5)" />
<use xlink:href="#f0_7z" transform="matrix(12,0,0,12,697.4,996.5)" />
<use xlink:href="#f0_7v" transform="matrix(12,0,0,12,710.6,996.5)" />
<use xlink:href="#f0_9q" transform="matrix(12,0,0,12,720.5,996.5)" />
<use xlink:href="#f0_b5" transform="matrix(12,0,0,12,724.5,996.5)" />
<use xlink:href="#f0_ay" transform="matrix(12,0,0,12,731.8,996.5)" />
<use xlink:href="#f0_7z" transform="matrix(12,0,0,12,741.3,996.5)" />
<use xlink:href="#f0_b1" transform="matrix(12,0,0,12,750.5,996.5)" />
<use xlink:href="#f0_b5" transform="matrix(12,0,0,12,756.7,996.5)" />
<use xlink:href="#f0_9q" transform="matrix(12,0,0,12,764.1,996.5)" />
<use xlink:href="#f0_am" transform="matrix(12,0,0,12,768.1,996.5)" />
<use xlink:href="#f0_af" transform="matrix(12,0,0,12,777.6,996.5)" />
<use xlink:href="#f0_am" transform="matrix(12,0,0,12,791.5,996.5)" />
<use xlink:href="#f0_89" transform="matrix(12,0,0,12,801.4,996.5)" />
<use xlink:href="#f0_bf" transform="matrix(12,0,0,12,811,996.5)" />
<use xlink:href="#f0_9n" transform="matrix(12,0,0,12,817.2,996.5)" />
<use xlink:href="#f0_7z" transform="matrix(12,0,0,12,826.7,996.5)" />
<use xlink:href="#f0_7v" transform="matrix(12,0,0,12,839.9,996.5)" />
<use xlink:href="#f0_77" transform="matrix(12,0,0,12,849.4,996.5)" />
<use xlink:href="#f0_bf" transform="matrix(12,0,0,12,858.2,996.5)" />
<use xlink:href="#f0_77" transform="matrix(12,0,0,12,864.5,996.5)" />
<use xlink:href="#f0_nt" transform="matrix(12,0,0,12,873.2,996.5)" />
<use xlink:href="#f0_2t" transform="matrix(12,0,0,12,55,1020.7)" />
<use xlink:href="#f0_9n" transform="matrix(12,0,0,12,63.8,1020.7)" />
<use xlink:href="#f0_7z" transform="matrix(12,0,0,12,73.4,1020.7)" />
<use xlink:href="#f0_89" transform="matrix(12,0,0,12,86.6,1020.7)" />
<use xlink:href="#f0_am" transform="matrix(12,0,0,12,92.1,1020.7)" />
<use xlink:href="#f0_c6" transform="matrix(12,0,0,12,102,1020.7)" />
<use xlink:href="#f0_b1" transform="matrix(12,0,0,12,111.5,1020.7)" />
<use xlink:href="#f0_7v" transform="matrix(12,0,0,12,122.1,1020.7)" />
<use xlink:href="#f0_9q" transform="matrix(12,0,0,12,131.6,1020.7)" />
<use xlink:href="#f0_b5" transform="matrix(12,0,0,12,135.7,1020.7)" />
<use xlink:href="#f0_ay" transform="matrix(12,0,0,12,143,1020.7)" />
<use xlink:href="#f0_7z" transform="matrix(12,0,0,12,152.5,1020.7)" />
<use xlink:href="#f0_b1" transform="matrix(12,0,0,12,161.6,1020.7)" />
<use xlink:href="#f0_b5" transform="matrix(12,0,0,12,167.9,1020.7)" />
<use xlink:href="#f0_9q" transform="matrix(12,0,0,12,175.2,1020.7)" />
<use xlink:href="#f0_am" transform="matrix(12,0,0,12,179.6,1020.7)" />
<use xlink:href="#f0_af" transform="matrix(12,0,0,12,189.1,1020.7)" />
<use xlink:href="#f0_77" transform="matrix(12,0,0,12,202.7,1020.7)" />
<use xlink:href="#f0_b1" transform="matrix(12,0,0,12,211.9,1020.7)" />
<use xlink:href="#f0_7z" transform="matrix(12,0,0,12,218.1,1020.7)" />
<use xlink:href="#f0_ry" transform="matrix(12,0,0,12,82.5,1057)" />
<use xlink:href="#f0_nt" transform="matrix(12,0,0,12,91.7,1057)" />
<use xlink:href="#f2_s8" transform="matrix(12,0,0,12,110,1057)" />
<use xlink:href="#f2_77" transform="matrix(12,0,0,12,120.3,1057)" />
<use xlink:href="#f2_af" transform="matrix(12,0,0,12,129.5,1057)" />
<use xlink:href="#f2_sa" transform="matrix(12,0,0,12,139.3,1057)" />
<use xlink:href="#f2_7z" transform="matrix(12,0,0,12,148.1,1057)" />
<use xlink:href="#f2_ns" transform="matrix(12,0,0,12,157.3,1057)" />
<use xlink:href="#f0_2t" transform="matrix(12,0,0,12,110,1081.2)" />
<use xlink:href="#f0_9n" transform="matrix(12,0,0,12,118.8,1081.2)" />
<use xlink:href="#f0_7z" transform="matrix(12,0,0,12,128.4,1081.2)" />
<use xlink:href="#f0_7v" transform="matrix(12,0,0,12,141.6,1081.2)" />
<use xlink:href="#f0_9q" transform="matrix(12,0,0,12,151.5,1081.2)" />
<use xlink:href="#f0_89" transform="matrix(12,0,0,12,155.5,1081.2)" />
<use xlink:href="#f0_89" transform="matrix(12,0,0,12,161,1081.2)" />
<use xlink:href="#f0_7z" transform="matrix(12,0,0,12,166.5,1081.2)" />
<use xlink:href="#f0_b1" transform="matrix(12,0,0,12,175.6,1081.2)" />
<use xlink:href="#f0_7z" transform="matrix(12,0,0,12,181.9,1081.2)" />
<use xlink:href="#f0_af" transform="matrix(12,0,0,12,191,1081.2)" />
<use xlink:href="#f0_7l" transform="matrix(12,0,0,12,200.9,1081.2)" />
<use xlink:href="#f0_7z" transform="matrix(12,0,0,12,208.6,1081.2)" />
<use xlink:href="#f0_7k" transform="matrix(12,0,0,12,221.8,1081.2)" />
<use xlink:href="#f0_7z" transform="matrix(12,0,0,12,231.4,1081.2)" />
<use xlink:href="#f0_bf" transform="matrix(12,0,0,12,240.5,1081.2)" />
<use xlink:href="#f0_ci" transform="matrix(12,0,0,12,246.7,1081.2)" />
<use xlink:href="#f0_7z" transform="matrix(12,0,0,12,259.9,1081.2)" />
<use xlink:href="#f0_7z" transform="matrix(12,0,0,12,269.1,1081.2)" />
<use xlink:href="#f0_af" transform="matrix(12,0,0,12,278.2,1081.2)" />
<use xlink:href="#f0_bf" transform="matrix(12,0,0,12,291.8,1081.2)" />
<use xlink:href="#f0_9n" transform="matrix(12,0,0,12,298,1081.2)" />
<use xlink:href="#f0_7z" transform="matrix(12,0,0,12,307.6,1081.2)" />
<use xlink:href="#f0_9n" transform="matrix(12,0,0,12,320.8,1081.2)" />
<use xlink:href="#f0_9q" transform="matrix(12,0,0,12,330.6,1081.2)" />
<use xlink:href="#f0_9d" transform="matrix(12,0,0,12,334.7,1081.2)" />
<use xlink:href="#f0_9n" transform="matrix(12,0,0,12,343.5,1081.2)" />
<use xlink:href="#f0_7z" transform="matrix(12,0,0,12,353,1081.2)" />
<use xlink:href="#f0_b5" transform="matrix(12,0,0,12,362.1,1081.2)" />
<use xlink:href="#f0_bf" transform="matrix(12,0,0,12,369.5,1081.2)" />
<use xlink:href="#f0_77" transform="matrix(12,0,0,12,379.7,1081.2)" />
<use xlink:href="#f0_af" transform="matrix(12,0,0,12,388.5,1081.2)" />
<use xlink:href="#f0_7v" transform="matrix(12,0,0,12,398.1,1081.2)" />
<use xlink:href="#f0_bf" transform="matrix(12,0,0,12,411.6,1081.2)" />
<use xlink:href="#f0_9n" transform="matrix(12,0,0,12,417.8,1081.2)" />
<use xlink:href="#f0_7z" transform="matrix(12,0,0,12,427.4,1081.2)" />
<use xlink:href="#f0_a8" transform="matrix(12,0,0,12,440.6,1081.2)" />
<use xlink:href="#f0_am" transform="matrix(12,0,0,12,444.9,1081.2)" />
<use xlink:href="#f0_ci" transform="matrix(12,0,0,12,454.5,1081.2)" />
<use xlink:href="#f0_7z" transform="matrix(12,0,0,12,467.7,1081.2)" />
<use xlink:href="#f0_b5" transform="matrix(12,0,0,12,476.8,1081.2)" />
<use xlink:href="#f0_bf" transform="matrix(12,0,0,12,484.1,1081.2)" />
<use xlink:href="#f0_7z" transform="matrix(12,0,0,12,494.4,1081.2)" />
<use xlink:href="#f0_a8" transform="matrix(12,0,0,12,503.5,1081.2)" />
<use xlink:href="#f0_7z" transform="matrix(12,0,0,12,507.6,1081.2)" />
<use xlink:href="#f0_ae" transform="matrix(12,0,0,12,516.7,1081.2)" />
<use xlink:href="#f0_7z" transform="matrix(12,0,0,12,531.4,1081.2)" />
<use xlink:href="#f0_af" transform="matrix(12,0,0,12,540.6,1081.2)" />
<use xlink:href="#f0_bf" transform="matrix(12,0,0,12,550.1,1081.2)" />
<use xlink:href="#f0_am" transform="matrix(12,0,0,12,560.4,1081.2)" />
<use xlink:href="#f0_89" transform="matrix(12,0,0,12,569.9,1081.2)" />
<use xlink:href="#f0_77" transform="matrix(12,0,0,12,579.4,1081.2)" />
<use xlink:href="#f0_7v" transform="matrix(12,0,0,12,592.6,1081.2)" />
<use xlink:href="#f0_77" transform="matrix(12,0,0,12,602.1,1081.2)" />
<use xlink:href="#f0_bf" transform="matrix(12,0,0,12,610.9,1081.2)" />
<use xlink:href="#f0_77" transform="matrix(12,0,0,12,617.2,1081.2)" />
<use xlink:href="#f0_7l" transform="matrix(12,0,0,12,630,1081.2)" />
<use xlink:href="#f0_77" transform="matrix(12,0,0,12,637.7,1081.2)" />
<use xlink:href="#f0_a8" transform="matrix(12,0,0,12,646.5,1081.2)" />
<use xlink:href="#f0_a8" transform="matrix(12,0,0,12,650.9,1081.2)" />
<use xlink:href="#f0_7z" transform="matrix(12,0,0,12,654.9,1081.2)" />
<use xlink:href="#f0_7v" transform="matrix(12,0,0,12,664,1081.2)" />
<use xlink:href="#f0_9q" transform="matrix(12,0,0,12,678,1081.2)" />
<use xlink:href="#f0_bf" transform="matrix(12,0,0,12,682,1081.2)" />
<use xlink:href="#f0_b5" transform="matrix(12,0,0,12,688.2,1081.2)" />
<use xlink:href="#f0_b1" transform="matrix(12,0,0,12,699.6,1081.2)" />
<use xlink:href="#f0_77" transform="matrix(12,0,0,12,705.8,1081.2)" />
<use xlink:href="#f0_af" transform="matrix(12,0,0,12,714.6,1081.2)" />
<use xlink:href="#f0_9d" transform="matrix(12,0,0,12,724.1,1081.2)" />
<use xlink:href="#f0_7z" transform="matrix(12,0,0,12,732.9,1081.2)" />
<use xlink:href="#f0_nt" transform="matrix(12,0,0,12,742.1,1081.2)" />
<use xlink:href="#f1_1fz" transform="matrix(12,0,0,12,110,1105.5)" />
<use xlink:href="#f1_1fi" transform="matrix(12,0,0,12,118.8,1105.5)" />
<use xlink:href="#f1_1fv" transform="matrix(12,0,0,12,129.1,1105.5)" />
<use xlink:href="#f1_1fo" transform="matrix(12,0,0,12,139.7,1105.5)" />
<use xlink:href="#f1_1fm" transform="matrix(12,0,0,12,151,1105.5)" />
<use xlink:href="#f1_2ml" transform="matrix(12,0,0,12,165.4,1105.5)" />
<use xlink:href="#f1_1g5" transform="matrix(12,0,0,12,184.1,1105.5)" />
<use xlink:href="#f1_2ch" transform="matrix(8.4,0,0,8.4,194,1109.1)" />
<use xlink:href="#f1_2c5" transform="matrix(8.4,0,0,8.4,206.1,1109.1)" />
<use xlink:href="#f1_2cs" transform="matrix(8.4,0,0,8.4,214.2,1109.1)" />
<use xlink:href="#f1_2mf" transform="matrix(12,0,0,12,226.7,1105.5)" />
<use xlink:href="#f1_1g5" transform="matrix(12,0,0,12,244.6,1105.5)" />
<use xlink:href="#f1_2ch" transform="matrix(8.4,0,0,8.4,254.6,1109.1)" />
<use xlink:href="#f1_2cd" transform="matrix(8.4,0,0,8.4,266.7,1109.1)" />
<use xlink:href="#f1_2ci" transform="matrix(8.4,0,0,8.4,271.1,1109.1)" />
</g>
<image preserveAspectRatio="none" x="316" y="136" width="302" height="229" xlink:href="img/1.png" />
<image preserveAspectRatio="none" x="361" y="464" width="296" height="227" xlink:href="img/2.png" />
<image preserveAspectRatio="none" x="382" y="741" width="253" height="187" xlink:href="img/3.png" />
<path fill-rule="evenodd" d="M37.4,38.1h.7v-.7h-.7v.7Z" class="g0_84" />
<path fill-rule="evenodd" d="M37.4,38.1h.7v-.7h-.7v.7Z" class="g0_84" />
<path fill-rule="evenodd" d="M897.2,38.1h.7v-.7h-.7v.7Z" class="g0_84" />
<path fill-rule="evenodd" d="M897.2,38.1h.7v-.7h-.7v.7Z" class="g0_84" />
<path fill-rule="evenodd" d="M897.9,1172.2h.8V38.1h-.8V1172.2Z" class="g1_84" />
<path fill-rule="evenodd" d="M37.4,1172.9h.7v-.7h-.7v.7Z" class="g0_84" />
<path fill-rule="evenodd" d="M37.4,1172.9h.7v-.7h-.7v.7Z" class="g0_84" />
<path fill-rule="evenodd" d="M38.1,1173.7H897.2v-.8H38.1v.8Z" class="g1_84" />
<path fill-rule="evenodd" d="M897.9,1173.7h.8v-1.5h-.8v1.5Z" class="g1_84" />
<path fill-rule="evenodd" d="M897.2,1173.7h1.5v-.8h-1.5v.8Z" class="g1_84" />
<path fill-rule="evenodd" d="M897.2,1172.9h.7v-.7h-.7v.7Z" class="g0_84" />
<path fill-rule="evenodd" d="M897.2,1172.9h.7v-.7h-.7v.7Z" class="g0_84" />
<g fill="#000000" >
<use xlink:href="#f3_s" transform="matrix(8,0,0,8,818.2,1149.4)" />
</g>
<defs>
<path d="M604,356L436,837h-1L269,356ZM87,-4c0,0,-22,0,-36,2C51,-2,37,0,32,4c0,0,-6,5,-6,15c0,0,1,10,7,27L357,943c0,0,3,8,7,13c0,0,5,6,15,9c0,0,9,3,23,4c0,0,15,1,37,1c0,0,24,0,40,-1c0,0,16,-1,25,-4c0,0,10,-3,15,-9c0,0,5,-5,8,-14L851,45c0,0,6,-16,7,-26c0,0,0,-10,-6,-16c0,0,-6,-4,-20,-5c0,0,-14,-2,-37,-2c0,0,-23,0,-37,1c0,0,-14,1,-21,3c0,0,-7,3,-10,7c0,0,-3,5,-6,11L638,253H236L157,21c0,0,-2,-6,-6,-11c0,0,-3,-5,-10,-9c0,0,-7,-2,-21,-3c0,0,-13,-2,-33,-2Z" 
id="f0_5"
transform="scale(0.001,-0.001)" />

<path d="M366,92c0,0,25,0,48,7c0,0,22,6,46,22c0,0,24,16,50,41c0,0,26,24,56,61V492c0,0,-51,62,-97,94c0,0,-47,33,-98,33c0,0,-47,0,-79,-22c0,0,-33,-23,-54,-59c0,0,-20,-37,-30,-83c0,0,-9,-47,-9,-94c0,0,0,-51,8,-100c0,0,8,-48,27,-86c0,0,19,-38,52,-60c0,0,32,-23,80,-23ZM345,-13c0,0,-74,0,-127,28c0,0,-52,29,-84,78c0,0,-33,49,-48,115c0,0,-15,66,-15,139c0,0,0,86,19,156c0,0,19,70,55,119c0,0,37,50,91,76c0,0,54,27,125,27c0,0,59,0,108,-26c0,0,49,-26,97,-76v390c0,0,0,5,2,10c0,0,3,4,10,7c0,0,8,3,19,5c0,0,12,1,30,1c0,0,18,0,30,-1c0,0,12,-2,19,-5c0,0,7,-3,10,-7c0,0,3,-5,3,-10V18c0,0,0,-6,-2,-10c0,0,-3,-5,-9,-7c0,0,-7,-2,-17,-3c0,0,-10,-2,-25,-2c0,0,-16,0,-26,2c0,0,-11,1,-18,3c0,0,-6,2,-9,7c0,0,-3,4,-3,10v90c0,0,-53,-58,-110,-90c0,0,-58,-31,-125,-31Z" 
id="f0_7v"
transform="scale(0.001,-0.001)" />

<path d="M176,-4c0,0,-18,0,-30,2c0,0,-12,1,-19,3c0,0,-7,3,-10,7c0,0,-3,4,-3,10V690c0,0,0,5,3,9c0,0,3,5,10,8c0,0,7,3,19,4c0,0,12,2,30,2c0,0,18,0,30,-2c0,0,12,-1,19,-4c0,0,7,-3,9,-8c0,0,3,-4,3,-9V18c0,0,0,-6,-3,-10c0,0,-2,-4,-9,-7c0,0,-7,-2,-19,-3c0,0,-12,-2,-30,-2Zm-1,846c0,0,-43,0,-59,15c0,0,-16,15,-16,58c0,0,0,43,16,59c0,0,17,16,61,16c0,0,43,0,59,-16c0,0,16,-15,16,-58c0,0,0,-43,-16,-58c0,0,-17,-16,-61,-16Z" 
id="f0_9q"
transform="scale(0.001,-0.001)" />

<path d="M272,-13c0,0,-35,0,-68,6c0,0,-32,6,-58,13c0,0,-26,9,-44,18c0,0,-17,10,-26,17c0,0,-8,8,-12,21c0,0,-3,14,-3,37c0,0,0,14,1,24c0,0,2,9,4,15c0,0,2,6,6,9c0,0,4,3,10,3c0,0,8,0,24,-11c0,0,16,-10,39,-22c0,0,24,-12,56,-22c0,0,32,-10,74,-10c0,0,31,0,56,7c0,0,26,6,44,19c0,0,19,14,29,34c0,0,10,20,10,47c0,0,0,29,-14,48c0,0,-15,19,-39,34c0,0,-24,15,-53,27c0,0,-30,11,-62,24c0,0,-32,13,-62,29c0,0,-30,16,-54,39c0,0,-24,23,-38,55c0,0,-15,32,-15,77c0,0,0,40,16,76c0,0,15,36,45,63c0,0,31,28,77,44c0,0,46,17,107,17c0,0,27,0,54,-5c0,0,26,-5,48,-11c0,0,22,-7,37,-15c0,0,15,-8,23,-14c0,0,8,-6,11,-11c0,0,2,-4,3,-10c0,0,1,-5,2,-14c0,0,2,-8,2,-20c0,0,0,-12,-2,-22c0,0,-1,-9,-3,-15c0,0,-3,-6,-7,-8c0,0,-3,-3,-8,-3c0,0,-7,0,-19,8c0,0,-13,8,-33,18c0,0,-20,9,-47,17c0,0,-28,9,-63,9c0,0,-31,0,-55,-7c0,0,-24,-7,-39,-20c0,0,-15,-13,-23,-31c0,0,-8,-18,-8,-39c0,0,0,-29,15,-49c0,0,15,-20,39,-35c0,0,24,-15,54,-27c0,0,31,-11,62,-24c0,0,32,-13,63,-29c0,0,31,-15,55,-38c0,0,24,-22,38,-53c0,0,15,-32,15,-75c0,0,0,-51,-19,-92c0,0,-19,-40,-54,-68C463,42,428,15,379,1c0,0,-48,-14,-107,-14Z" 
id="f0_b5"
transform="scale(0.001,-0.001)" />

<path d="M339,-13c0,0,-52,0,-90,13c0,0,-37,14,-61,42c0,0,-24,28,-34,71c0,0,-11,43,-11,101V607H49c0,0,-11,0,-18,12c0,0,-7,12,-7,39c0,0,0,14,2,24c0,0,2,10,5,16c0,0,3,7,8,9c0,0,5,3,11,3h93V870c0,0,0,5,2,9c0,0,3,5,10,8c0,0,7,4,19,5c0,0,12,2,30,2c0,0,19,0,31,-2c0,0,11,-1,18,-5c0,0,7,-3,10,-8c0,0,3,-4,3,-9V710H438c0,0,6,0,10,-3c0,0,5,-2,8,-9c0,0,4,-6,5,-16c0,0,1,-10,1,-24c0,0,0,-27,-6,-39c0,0,-7,-12,-18,-12H266V232c0,0,0,-69,20,-105c0,0,21,-35,74,-35c0,0,17,0,30,3c0,0,14,4,24,7c0,0,10,4,18,7c0,0,7,4,13,4c0,0,4,0,7,-2c0,0,4,-2,6,-7c0,0,2,-5,3,-14c0,0,1,-9,1,-23c0,0,0,-22,-2,-34c0,0,-3,-13,-9,-19c0,0,-6,-6,-18,-11c0,0,-12,-4,-28,-8c0,0,-15,-3,-32,-5c0,0,-17,-3,-34,-3Z" 
id="f0_bf"
transform="scale(0.001,-0.001)" />

<path d="M176,-4c0,0,-18,0,-30,2c0,0,-12,1,-19,3c0,0,-7,3,-10,7c0,0,-3,4,-3,10V690c0,0,0,6,3,10c0,0,2,4,9,7c0,0,6,4,17,5c0,0,10,1,27,1c0,0,17,0,28,-1c0,0,10,-1,16,-5c0,0,6,-3,9,-7c0,0,3,-4,3,-10V592c0,0,27,41,51,66c0,0,25,26,46,41c0,0,22,14,43,20c0,0,21,6,43,6c0,0,10,0,22,-2c0,0,12,-1,26,-4c0,0,13,-3,24,-6c0,0,11,-4,15,-8c0,0,5,-4,6,-7c0,0,2,-3,3,-9c0,0,1,-5,1,-15c0,0,0,-10,0,-27c0,0,0,-16,0,-28c0,0,-1,-11,-3,-17c0,0,-2,-6,-6,-10c0,0,-3,-3,-9,-3c0,0,-6,0,-15,3c0,0,-8,4,-19,7c0,0,-11,3,-24,6c0,0,-14,3,-29,3c0,0,-19,0,-37,-7c0,0,-18,-8,-37,-25c0,0,-20,-18,-42,-46c0,0,-21,-29,-48,-70V18c0,0,0,-6,-3,-10c0,0,-2,-4,-9,-7c0,0,-7,-2,-19,-3c0,0,-12,-2,-30,-2Z" 
id="f0_b1"
transform="scale(0.001,-0.001)" />

<path d="M431,92c0,0,46,0,79,22c0,0,33,23,53,60c0,0,21,37,30,83c0,0,10,46,10,93c0,0,0,51,-8,100c0,0,-8,49,-28,86c0,0,-19,37,-51,60c0,0,-32,23,-80,23c0,0,-24,0,-47,-7c0,0,-23,-7,-47,-22c0,0,-24,-16,-50,-41c0,0,-25,-24,-55,-62V219c0,0,51,-62,98,-95c0,0,46,-32,96,-32ZM443,-13c0,0,-32,0,-59,7c0,0,-27,6,-53,19c0,0,-26,14,-52,36c0,0,-27,22,-56,52V18c0,0,0,-6,-3,-10c0,0,-3,-5,-9,-7c0,0,-7,-2,-17,-3c0,0,-10,-2,-26,-2c0,0,-15,0,-25,2c0,0,-11,1,-17,3c0,0,-7,2,-9,7c0,0,-3,4,-3,10v997c0,0,0,6,3,11c0,0,3,4,10,7c0,0,7,3,19,5c0,0,12,1,30,1c0,0,18,0,30,-1c0,0,12,-2,19,-5c0,0,7,-3,9,-7c0,0,3,-5,3,-10V614c0,0,30,31,58,52c0,0,28,20,55,34c0,0,27,13,54,19c0,0,27,6,57,6c0,0,73,0,125,-30c0,0,52,-29,84,-78c0,0,32,-48,47,-114c0,0,15,-66,15,-139c0,0,0,-87,-19,-157c0,0,-19,-70,-56,-119c0,0,-37,-49,-90,-76c0,0,-54,-25,-124,-25Z" 
id="f0_7k"
transform="scale(0.001,-0.001)" />

<path d="M351,-13c0,0,-67,0,-113,22c0,0,-46,22,-75,60c0,0,-28,39,-40,90c0,0,-13,51,-13,124V690c0,0,0,6,3,10c0,0,3,4,10,7c0,0,8,4,20,5c0,0,11,1,29,1c0,0,18,0,30,-1c0,0,12,-1,19,-5c0,0,7,-3,10,-7c0,0,3,-4,3,-10V299c0,0,0,-59,9,-94c0,0,8,-36,26,-61c0,0,18,-24,44,-38c0,0,27,-14,63,-14c0,0,46,0,92,33c0,0,46,32,98,95V690c0,0,0,6,2,10c0,0,3,4,10,7c0,0,8,4,19,5c0,0,12,1,30,1c0,0,18,0,30,-1c0,0,12,-1,19,-5c0,0,7,-3,10,-7c0,0,3,-4,3,-10V18c0,0,0,-6,-2,-10c0,0,-3,-4,-10,-7c0,0,-6,-2,-17,-3c0,0,-11,-2,-27,-2c0,0,-17,0,-28,2c0,0,-10,1,-17,3c0,0,-6,3,-8,7c0,0,-3,4,-3,10v89c0,0,-57,-63,-113,-92c0,0,-56,-28,-113,-28Z" 
id="f0_c6"
transform="scale(0.001,-0.001)" />

<path d="M401,90c0,0,54,0,93,19c0,0,40,20,65,55c0,0,26,35,37,84c0,0,12,48,12,106c0,0,0,55,-10,104c0,0,-10,48,-33,85c0,0,-23,36,-62,58c0,0,-40,21,-99,21c0,0,-54,0,-93,-20c0,0,-39,-19,-65,-54c0,0,-25,-36,-37,-85c0,0,-12,-48,-12,-106c0,0,0,-55,10,-103c0,0,10,-49,33,-85c0,0,24,-36,63,-58c0,0,39,-21,98,-21ZM395,-13c0,0,-82,0,-144,24c0,0,-61,25,-102,72c0,0,-41,47,-61,114c0,0,-21,67,-21,152c0,0,0,82,22,151c0,0,21,69,64,119c0,0,43,50,107,78c0,0,64,28,150,28c0,0,82,0,144,-25c0,0,61,-25,102,-72c0,0,41,-47,62,-114c0,0,20,-67,20,-151c0,0,0,-83,-21,-152c0,0,-22,-69,-65,-119C652,92,609,42,545,14c0,0,-65,-27,-150,-27Z" 
id="f0_am"
transform="scale(0.001,-0.001)" />

<path d="M176,-4c0,0,-18,0,-30,2c0,0,-12,1,-19,3c0,0,-7,3,-10,7c0,0,-3,4,-3,10V690c0,0,0,6,3,10c0,0,2,4,9,7c0,0,6,4,17,5c0,0,10,1,27,1c0,0,17,0,28,-1c0,0,10,-1,16,-5c0,0,6,-3,9,-7c0,0,3,-4,3,-10V601c0,0,56,64,112,94c0,0,57,30,114,30c0,0,67,0,113,-23c0,0,46,-23,74,-61c0,0,29,-38,41,-89c0,0,12,-52,12,-123V18c0,0,0,-6,-3,-10c0,0,-3,-4,-9,-7c0,0,-7,-2,-19,-3c0,0,-12,-2,-30,-2c0,0,-19,0,-30,2c0,0,-12,1,-19,3c0,0,-7,3,-10,7c0,0,-3,4,-3,10V412c0,0,0,58,-9,93c0,0,-9,35,-26,61c0,0,-17,25,-44,38c0,0,-27,14,-63,14c0,0,-46,0,-93,-33c0,0,-46,-33,-97,-96V18c0,0,0,-6,-3,-10c0,0,-2,-4,-9,-7c0,0,-7,-2,-19,-3c0,0,-12,-2,-30,-2Z" 
id="f0_af"
transform="scale(0.001,-0.001)" />

<path d="M252,-271c0,0,-19,0,-31,2c0,0,-12,2,-18,6c0,0,-7,5,-8,12c0,0,0,8,4,18L292,0c0,0,-7,3,-13,10c0,0,-6,6,-8,14L31,665c0,0,-6,16,-6,25c0,0,0,9,6,14c0,0,6,5,20,7c0,0,13,2,36,2c0,0,22,0,35,-1c0,0,12,-1,20,-4c0,0,7,-3,11,-9c0,0,3,-6,7,-15L351,145h3L539,687c0,0,4,14,10,18c0,0,7,4,19,6c0,0,13,2,37,2c0,0,21,0,34,-2c0,0,14,-2,20,-7c0,0,6,-5,6,-14c0,0,0,-9,-4,-23L420,0L330,-246c0,0,-4,-12,-22,-18c0,0,-19,-7,-56,-7Z" 
id="f0_co"
transform="scale(0.001,-0.001)" />

<path d="M176,-4c0,0,-18,0,-30,2c0,0,-12,1,-19,3c0,0,-7,3,-10,7c0,0,-3,4,-3,10V690c0,0,0,6,3,10c0,0,2,4,9,7c0,0,6,4,17,5c0,0,10,1,27,1c0,0,17,0,28,-1c0,0,10,-1,16,-5c0,0,6,-3,9,-7c0,0,3,-4,3,-10V601c0,0,56,64,110,94c0,0,53,30,108,30c0,0,42,0,75,-10c0,0,33,-10,58,-28c0,0,26,-17,44,-42c0,0,18,-24,30,-55c0,0,33,37,63,63c0,0,31,26,59,41c0,0,28,16,54,23c0,0,27,8,53,8c0,0,65,0,109,-23c0,0,44,-23,71,-61c0,0,28,-38,39,-89c0,0,12,-52,12,-108V18c0,0,0,-6,-3,-10c0,0,-3,-4,-10,-7c0,0,-7,-2,-19,-3c0,0,-12,-2,-29,-2c0,0,-19,0,-31,2c0,0,-12,1,-19,3c0,0,-7,3,-10,7c0,0,-3,4,-3,10V427c0,0,0,43,-8,78c0,0,-7,35,-23,61c0,0,-17,25,-42,38c0,0,-25,14,-60,14c0,0,-42,0,-85,-33c0,0,-43,-33,-94,-96V18c0,0,0,-6,-3,-10c0,0,-3,-4,-11,-7c0,0,-7,-2,-19,-3c0,0,-11,-2,-29,-2c0,0,-18,0,-30,2c0,0,-12,1,-19,3c0,0,-7,3,-10,7c0,0,-3,4,-3,10V427c0,0,0,43,-8,78c0,0,-8,35,-24,61c0,0,-17,25,-42,38c0,0,-25,14,-59,14c0,0,-43,0,-86,-33c0,0,-44,-33,-95,-96V18c0,0,0,-6,-3,-10c0,0,-2,-4,-9,-7c0,0,-7,-2,-19,-3c0,0,-12,-2,-30,-2Z" 
id="f0_ae"
transform="scale(0.001,-0.001)" />

<path d="M564,420c0,0,2,98,-43,153c0,0,-46,56,-134,56c0,0,-46,0,-80,-18c0,0,-35,-17,-58,-45c0,0,-23,-29,-36,-67c0,0,-12,-37,-14,-79ZM405,-13c0,0,-83,0,-145,22c0,0,-62,24,-105,69c0,0,-42,46,-64,114c0,0,-22,69,-22,160c0,0,0,87,23,156c0,0,22,69,64,117c0,0,43,48,102,74c0,0,60,26,134,26c0,0,79,0,135,-26c0,0,55,-25,91,-68c0,0,36,-43,53,-101c0,0,16,-58,16,-123V384c0,0,0,-29,-14,-41c0,0,-15,-13,-33,-13H199c0,0,0,-56,11,-100c0,0,12,-45,38,-77c0,0,26,-33,68,-50c0,0,41,-17,102,-17c0,0,48,0,85,8c0,0,37,8,65,17c0,0,27,10,44,18c0,0,18,8,27,8c0,0,5,0,9,-3c0,0,4,-2,7,-8c0,0,2,-5,3,-14c0,0,1,-9,1,-23c0,0,0,-9,-1,-16c0,0,0,-8,-2,-13c0,0,-1,-6,-3,-10c0,0,-3,-5,-7,-9c0,0,-4,-4,-24,-13c0,0,-20,-10,-53,-18c0,0,-32,-9,-74,-16c0,0,-42,-7,-90,-7Z" 
id="f0_7z"
transform="scale(0.001,-0.001)" />

<path d="M367,-13c0,0,-73,0,-129,23c0,0,-56,24,-93,70c0,0,-38,46,-58,112c0,0,-20,67,-20,154c0,0,0,99,25,171c0,0,24,71,66,116c0,0,42,46,99,68c0,0,58,22,124,22c0,0,32,0,62,-6c0,0,31,-6,56,-16c0,0,25,-10,45,-22c0,0,20,-13,29,-22c0,0,9,-9,12,-14c0,0,3,-5,6,-13c0,0,2,-7,3,-16c0,0,0,-9,0,-22c0,0,0,-29,-6,-41c0,0,-7,-11,-17,-11c0,0,-11,0,-25,12c0,0,-15,12,-37,27c0,0,-23,15,-55,28c0,0,-31,12,-75,12c0,0,-88,0,-136,-68c0,0,-47,-68,-47,-198c0,0,0,-65,12,-114c0,0,12,-49,36,-81c0,0,24,-33,59,-49c0,0,35,-16,79,-16c0,0,43,0,75,13c0,0,32,14,56,30c0,0,23,16,39,29c0,0,16,13,25,13c0,0,5,0,9,-3c0,0,4,-3,7,-10c0,0,2,-7,3,-18c0,0,1,-11,1,-26c0,0,0,-12,0,-22c0,0,-1,-9,-3,-15c0,0,-2,-7,-4,-12c0,0,-3,-4,-12,-14c0,0,-10,-9,-32,-23c0,0,-22,-14,-50,-24C496,11,468,0,435,-6c0,0,-33,-7,-68,-7Z" 
id="f0_7l"
transform="scale(0.001,-0.001)" />

<path d="M69,-215c0,0,-12,0,-21,1c0,0,-8,1,-12,4c0,0,-4,2,-4,7c0,0,-1,4,2,10L134,11v96c0,0,0,20,4,32c0,0,4,12,13,18c0,0,9,6,22,8c0,0,13,2,33,2c0,0,19,0,32,-2c0,0,13,-2,22,-8c0,0,9,-6,13,-18c0,0,4,-12,4,-32c0,0,0,-23,-2,-43c0,0,-3,-19,-8,-36c0,0,-5,-17,-14,-33c0,0,-8,-17,-21,-36L130,-194c0,0,-4,-5,-9,-9c0,0,-5,-4,-12,-7c0,0,-7,-3,-16,-4c0,0,-9,-1,-24,-1Z" 
id="f0_nq"
transform="scale(0.001,-0.001)" />

<path d="M209,-4c0,0,-18,0,-30,2c0,0,-12,1,-19,3c0,0,-7,3,-10,7c0,0,-3,4,-3,10V607H52c0,0,-12,0,-18,12c0,0,-6,12,-6,39c0,0,0,14,2,24c0,0,1,10,4,16c0,0,3,7,8,9c0,0,4,3,10,3h95v69c0,0,0,71,13,121c0,0,13,50,40,82c0,0,27,33,67,48c0,0,41,15,96,15c0,0,26,0,51,-5c0,0,25,-4,38,-10c0,0,13,-6,18,-10c0,0,4,-5,7,-12c0,0,3,-7,5,-17c0,0,1,-10,1,-24c0,0,0,-15,-2,-23c0,0,-1,-9,-3,-14c0,0,-2,-5,-5,-7c0,0,-3,-2,-8,-2c0,0,-5,0,-13,3c0,0,-7,4,-19,8c0,0,-11,4,-26,7c0,0,-15,4,-36,4c0,0,-27,0,-47,-9c0,0,-19,-9,-31,-28c0,0,-12,-19,-17,-50c0,0,-5,-30,-5,-73V710H421c0,0,6,0,10,-3c0,0,4,-2,7,-9c0,0,4,-6,6,-16c0,0,2,-10,2,-24c0,0,0,-27,-7,-39c0,0,-7,-12,-18,-12H271V18c0,0,0,-6,-3,-10c0,0,-3,-4,-11,-7c0,0,-7,-2,-19,-3c0,0,-12,-2,-29,-2Z" 
id="f0_89"
transform="scale(0.001,-0.001)" />

<path d="M176,-4c0,0,-18,0,-30,2c0,0,-12,1,-19,3c0,0,-7,3,-10,7c0,0,-3,4,-3,10v997c0,0,0,6,3,11c0,0,3,4,10,7c0,0,7,3,19,5c0,0,12,1,30,1c0,0,18,0,30,-1c0,0,12,-2,19,-5c0,0,7,-3,9,-7c0,0,3,-5,3,-10V614c0,0,53,56,107,83c0,0,54,28,108,28c0,0,67,0,113,-23c0,0,46,-23,74,-61c0,0,29,-38,41,-89c0,0,12,-52,12,-124V18c0,0,0,-6,-3,-10c0,0,-3,-4,-9,-7c0,0,-7,-2,-19,-3c0,0,-12,-2,-30,-2c0,0,-19,0,-30,2c0,0,-12,1,-19,3c0,0,-7,3,-10,7c0,0,-3,4,-3,10V412c0,0,0,58,-9,93c0,0,-9,35,-26,61c0,0,-17,25,-44,38c0,0,-27,14,-63,14c0,0,-46,0,-93,-33c0,0,-46,-33,-97,-96V18c0,0,0,-6,-3,-10c0,0,-2,-4,-9,-7c0,0,-7,-2,-19,-3c0,0,-12,-2,-30,-2Z" 
id="f0_9n"
transform="scale(0.001,-0.001)" />

<path d="M321,82c0,0,48,0,90,25c0,0,41,24,87,75V325H392c0,0,-50,0,-88,-9c0,0,-37,-9,-62,-25c0,0,-24,-17,-36,-41c0,0,-11,-23,-11,-54c0,0,0,-52,33,-83c0,0,33,-31,93,-31ZM301,-13c0,0,-53,0,-96,13c0,0,-43,14,-73,40c0,0,-30,26,-47,64c0,0,-17,38,-17,87c0,0,0,56,24,98c0,0,23,42,66,69c0,0,43,28,106,42c0,0,63,14,141,14h93v52c0,0,0,39,-9,69c0,0,-8,30,-26,50c0,0,-18,20,-47,30c0,0,-30,10,-72,10c0,0,-46,0,-82,-11c0,0,-36,-11,-63,-24c0,0,-27,-13,-46,-24c0,0,-18,-11,-27,-11c0,0,-6,0,-10,3c0,0,-5,3,-8,9c0,0,-3,6,-5,16c0,0,-1,9,-1,20c0,0,0,19,2,30c0,0,3,11,13,20c0,0,10,10,35,23c0,0,24,13,56,24c0,0,32,10,70,17c0,0,38,8,77,8c0,0,73,0,123,-17c0,0,51,-16,82,-48c0,0,32,-32,46,-79c0,0,14,-47,14,-110V18c0,0,0,-9,-6,-14c0,0,-6,-4,-16,-6c0,0,-11,-2,-31,-2c0,0,-19,0,-31,2c0,0,-12,2,-17,6c0,0,-5,5,-5,13V85c0,0,-44,-47,-98,-73c0,0,-54,-25,-115,-25Z" 
id="f0_77"
transform="scale(0.001,-0.001)" />

<path d="M366,92c0,0,25,0,48,7c0,0,22,6,46,22c0,0,24,16,50,41c0,0,26,24,56,61V492c0,0,-51,62,-97,94c0,0,-47,33,-98,33c0,0,-47,0,-79,-22c0,0,-33,-23,-54,-59c0,0,-20,-37,-30,-83c0,0,-9,-47,-9,-94c0,0,0,-52,8,-100c0,0,8,-49,27,-86c0,0,19,-38,52,-60c0,0,32,-23,80,-23ZM627,-271c0,0,-18,0,-30,2c0,0,-11,1,-19,4c0,0,-7,3,-10,8c0,0,-2,4,-2,10V97c0,0,-31,-31,-59,-52c0,0,-27,-21,-54,-34c0,0,-27,-12,-54,-18c0,0,-28,-6,-57,-6c0,0,-73,0,-124,28c0,0,-52,29,-84,78c0,0,-33,49,-48,115c0,0,-15,66,-15,139c0,0,0,86,19,156c0,0,19,70,56,119c0,0,37,50,91,76c0,0,54,27,125,27c0,0,30,0,56,-7c0,0,26,-6,52,-20c0,0,25,-14,52,-36c0,0,26,-22,58,-52v80c0,0,0,7,3,11c0,0,3,4,9,7c0,0,7,3,18,4c0,0,10,1,26,1c0,0,15,0,25,-1c0,0,10,-1,17,-4c0,0,6,-3,9,-8c0,0,2,-4,2,-10V-247c0,0,0,-6,-3,-10c0,0,-3,-5,-10,-8c0,0,-7,-3,-19,-4c0,0,-12,-2,-30,-2Z" 
id="f0_b0"
transform="scale(0.001,-0.001)" />

<path d="M176,-4c0,0,-18,0,-30,2c0,0,-12,1,-19,3c0,0,-7,3,-10,7c0,0,-3,4,-3,10v997c0,0,0,6,3,11c0,0,3,4,10,7c0,0,7,3,19,5c0,0,12,1,30,1c0,0,18,0,30,-1c0,0,12,-2,19,-5c0,0,7,-3,9,-7c0,0,3,-5,3,-11V18c0,0,0,-6,-3,-10c0,0,-2,-4,-9,-7c0,0,-7,-2,-19,-3c0,0,-12,-2,-30,-2Z" 
id="f0_a8"
transform="scale(0.001,-0.001)" />

<path d="M192,-6c0,0,-45,0,-62,16c0,0,-18,18,-18,69c0,0,0,53,18,71c0,0,18,17,64,17c0,0,45,0,62,-17c0,0,17,-17,17,-69c0,0,0,-53,-18,-70c0,0,-17,-17,-63,-17Z" 
id="f0_nt"
transform="scale(0.001,-0.001)" />

<path d="M372,-4c0,0,-18,0,-30,2c0,0,-13,2,-21,3c0,0,-7,3,-10,8c0,0,-3,4,-3,10V857H36c0,0,-6,0,-11,3c0,0,-5,2,-8,9c0,0,-2,6,-4,17c0,0,-2,10,-2,24c0,0,0,14,2,25c0,0,2,11,4,17c0,0,3,7,8,10c0,0,5,3,11,3H708c0,0,6,0,11,-3c0,0,5,-3,8,-10c0,0,4,-6,5,-17c0,0,2,-11,2,-25c0,0,0,-14,-2,-24c0,0,-1,-11,-5,-17c0,0,-3,-7,-8,-9c0,0,-5,-3,-11,-3H436V19c0,0,0,-6,-3,-10c0,0,-3,-5,-10,-8c0,0,-8,-1,-20,-3c0,0,-12,-2,-31,-2Z" 
id="f0_2t"
transform="scale(0.001,-0.001)" />

<path d="M346,-4c0,0,-23,0,-38,2c0,0,-15,1,-24,3c0,0,-9,3,-15,8c0,0,-5,6,-8,13L33,660c0,0,-3,9,-5,15c0,0,-2,7,-2,11c0,0,0,3,0,5c0,0,0,6,3,11c0,0,3,4,10,7c0,0,7,2,18,3c0,0,12,1,29,1c0,0,22,0,35,-1c0,0,13,-1,20,-4c0,0,7,-3,10,-8c0,0,4,-4,7,-11L347,135l3,-9l2,9L540,689c0,0,1,7,5,11c0,0,3,5,11,8c0,0,7,3,19,4c0,0,12,1,32,1c0,0,18,0,29,-1c0,0,11,-1,17,-4c0,0,7,-3,9,-7c0,0,3,-4,3,-10c0,0,0,-3,-1,-6c0,0,0,-4,-1,-7c0,0,0,-4,-2,-8c0,0,-1,-5,-2,-10L430,22c0,0,-3,-8,-8,-13c0,0,-5,-6,-15,-9c0,0,-9,-2,-24,-3c0,0,-15,-1,-37,-1Z" 
id="f0_ch"
transform="scale(0.001,-0.001)" />

<path d="M429,92c0,0,47,0,80,22c0,0,33,23,54,60c0,0,20,38,30,84c0,0,10,46,10,93c0,0,0,52,-8,100c0,0,-8,48,-27,86c0,0,-19,37,-51,60c0,0,-32,22,-80,22c0,0,-24,0,-47,-7c0,0,-23,-7,-47,-23c0,0,-24,-15,-50,-40c0,0,-26,-25,-56,-62V220c0,0,51,-62,97,-95c0,0,45,-33,95,-33ZM176,-271c0,0,-18,0,-30,2c0,0,-12,1,-19,4c0,0,-7,3,-10,8c0,0,-3,4,-3,10V690c0,0,0,6,3,10c0,0,2,5,9,8c0,0,6,3,17,4c0,0,10,1,25,1c0,0,16,0,26,-1c0,0,10,-1,17,-4c0,0,6,-3,9,-7c0,0,3,-4,3,-11V601c0,0,30,31,59,54c0,0,28,23,57,39c0,0,28,15,59,23c0,0,30,8,63,8c0,0,74,0,125,-29c0,0,52,-28,84,-77c0,0,32,-50,47,-115c0,0,15,-65,15,-139c0,0,0,-88,-19,-158c0,0,-19,-70,-56,-119c0,0,-37,-49,-91,-75c0,0,-55,-26,-125,-26c0,0,-30,0,-55,6c0,0,-25,6,-50,18c0,0,-24,13,-48,32c0,0,-24,19,-51,46V-247c0,0,0,-6,-3,-10c0,0,-2,-5,-9,-8c0,0,-7,-3,-19,-4c0,0,-12,-2,-30,-2Z" 
id="f0_ay"
transform="scale(0.001,-0.001)" />

<path d="M650,403L638,643c0,0,-2,49,-4,123c0,0,-1,74,-1,107h-9L359,403ZM-9,0L0,37c0,0,22,3,42,18c0,0,21,15,44,46c0,0,23,31,65,103l478,826H742L795,198c0,0,4,-58,14,-92c0,0,9,-33,26,-49c0,0,17,-16,49,-20L876,0H565l9,37c0,0,44,3,65,34c0,0,22,30,22,107c0,0,0,29,-2,64l-6,96H325L284,265c0,0,-29,-52,-42,-89c0,0,-14,-36,-14,-65c0,0,0,-63,76,-74L295,0Z" 
id="f1_1es"
transform="scale(0.001,-0.001)" />

<path d="M111,232v99h919V232Zm0,310v99h919V542Z" 
id="f1_2ml"
transform="scale(0.001,-0.001)" />

<path d="M41,0l8,37c0,0,29,4,43,14c0,0,14,10,24,28c0,0,9,18,18,44c0,0,8,25,24,99L285,797c0,0,7,32,12,61c0,0,4,29,4,59c0,0,0,35,-17,49c0,0,-18,13,-56,16l8,36H503L588,295l435,723h235l-8,-36c0,0,-29,-6,-41,-14c0,0,-12,-7,-23,-22c0,0,-10,-15,-20,-47c0,0,-10,-31,-25,-103L1013,217c0,0,-10,-44,-13,-70c0,0,-3,-25,-3,-46c0,0,0,-34,17,-48c0,0,17,-13,56,-16L1062,0H764l8,37c0,0,28,4,43,14c0,0,14,10,23,28c0,0,10,18,18,44c0,0,9,25,25,99l99,450c0,0,21,93,48,186h-10c0,0,-24,-44,-105,-179L574,119H492L430,598c0,0,-13,102,-29,273H386c0,0,-26,-167,-57,-309L253,217c0,0,-16,-71,-16,-116c0,0,0,-34,17,-48c0,0,17,-13,56,-16L302,0Z" 
id="f1_1f4"
transform="scale(0.001,-0.001)" />

<path d="M340,85c0,0,34,0,76,23c0,0,42,23,81,67c0,0,39,44,72,106c0,0,33,63,49,141c0,0,9,41,15,81c0,0,7,40,7,74c0,0,0,60,-27,85c0,0,-27,26,-87,26c0,0,-44,0,-82,-19c0,0,-37,-19,-69,-52c0,0,-31,-34,-56,-77c0,0,-24,-44,-41,-94c0,0,-17,-49,-25,-101c0,0,-9,-52,-9,-101c0,0,0,-81,23,-120c0,0,22,-39,73,-39ZM281,-12c0,0,-89,0,-137,62c0,0,-49,64,-49,186c0,0,0,72,16,139c0,0,15,67,43,125c0,0,28,59,67,107c0,0,39,48,85,82c0,0,46,35,98,54c0,0,53,19,108,19c0,0,50,0,91,-10c0,0,41,-10,78,-39c0,0,13,47,20,80c0,0,8,34,13,62c0,0,4,28,4,46c0,0,0,16,-4,26c0,0,-4,11,-14,17c0,0,-11,7,-30,10c0,0,-19,3,-48,5l10,50l222,9h38L719,257c0,0,-10,-44,-14,-70c0,0,-3,-26,-3,-47c0,0,0,-28,12,-41c0,0,11,-12,33,-12c0,0,13,0,26,5c0,0,13,5,29,16c0,0,15,11,33,29c0,0,18,17,42,42c0,0,11,-13,24,-25c0,0,13,-12,25,-24c0,0,-38,-38,-68,-65c0,0,-31,-28,-59,-45C799,20,770,2,742,-5c0,0,-27,-7,-57,-7c0,0,-54,0,-84,33c0,0,-30,35,-30,95c0,0,0,34,11,65l-11,4c0,0,-38,-53,-73,-90c0,0,-36,-38,-71,-62C427,33,392,9,356,-1c0,0,-36,-11,-75,-11Z" 
id="f1_2c8"
transform="scale(0.001,-0.001)" />

<path d="M432,62c0,0,63,0,115,29c0,0,52,30,94,79c0,0,42,50,73,115c0,0,31,64,52,134c0,0,21,70,32,140c0,0,11,70,11,130c0,0,0,105,-44,161c0,0,-43,56,-130,56c0,0,-67,0,-121,-32c0,0,-54,-31,-96,-83c0,0,-42,-52,-72,-119c0,0,-30,-67,-50,-137c0,0,-20,-70,-29,-137c0,0,-9,-67,-9,-121c0,0,0,-108,43,-162c0,0,43,-53,131,-53Zm-5,-77c0,0,-76,0,-135,20c0,0,-60,22,-102,64c0,0,-42,41,-64,103c0,0,-22,61,-22,138c0,0,0,65,12,140c0,0,13,74,40,149c0,0,27,75,69,144c0,0,43,69,102,122c0,0,60,53,138,85c0,0,77,32,174,32c0,0,79,0,140,-24c0,0,60,-23,101,-66c0,0,40,-42,60,-102c0,0,21,-60,21,-135c0,0,0,-60,-12,-132c0,0,-12,-73,-38,-148c0,0,-26,-74,-68,-145c0,0,-42,-70,-101,-125c0,0,-59,-55,-137,-88c0,0,-78,-32,-178,-32Z" 
id="f1_2bt"
transform="scale(0.001,-0.001)" />

<path d="M192,-4c0,0,-18,0,-30,2c0,0,-13,2,-20,3c0,0,-8,3,-11,8c0,0,-3,4,-3,10V946c0,0,0,6,3,11c0,0,4,4,12,7c0,0,7,2,20,4c0,0,12,2,29,2c0,0,19,0,31,-2c0,0,13,-2,20,-4c0,0,7,-3,10,-7c0,0,3,-5,3,-11V19c0,0,0,-6,-3,-10c0,0,-3,-5,-10,-8c0,0,-7,-1,-20,-3c0,0,-12,-2,-31,-2Z" 
id="f0_1c"
transform="scale(0.001,-0.001)" />

<path d="M79,326c0,0,-14,0,-20,11c0,0,-7,12,-7,40c0,0,0,29,7,40c0,0,6,11,20,11H390c0,0,6,0,11,-2c0,0,5,-2,8,-9c0,0,4,-6,6,-16c0,0,2,-9,2,-24c0,0,0,-29,-7,-40c0,0,-7,-11,-20,-11Z" 
id="f0_uf"
transform="scale(0.001,-0.001)" />

<path d="M176,-4c0,0,-18,0,-30,2c0,0,-12,1,-19,3c0,0,-7,3,-10,7c0,0,-3,4,-3,10v997c0,0,0,6,3,11c0,0,3,4,10,7c0,0,7,3,19,5c0,0,12,1,30,1c0,0,18,0,30,-1c0,0,12,-2,19,-5c0,0,7,-3,9,-7c0,0,3,-5,3,-11V408L492,687c0,0,6,7,12,12c0,0,7,5,16,8c0,0,10,4,22,5c0,0,13,1,31,1c0,0,19,0,31,-1c0,0,13,-1,21,-4c0,0,8,-3,11,-7c0,0,3,-4,3,-11c0,0,0,-9,-4,-18c0,0,-5,-8,-16,-20L375,408L648,54c0,0,10,-13,14,-20c0,0,4,-8,4,-15c0,0,0,-6,-3,-10c0,0,-3,-5,-10,-8c0,0,-7,-2,-20,-3c0,0,-13,-2,-32,-2c0,0,-20,0,-33,1c0,0,-13,1,-22,3c0,0,-9,3,-15,7c0,0,-5,5,-10,12L237,391V18c0,0,0,-6,-3,-10c0,0,-2,-4,-9,-7c0,0,-7,-2,-19,-3c0,0,-12,-2,-30,-2Z" 
id="f0_a5"
transform="scale(0.001,-0.001)" />

<path d="M324,-4c0,0,-23,0,-37,2c0,0,-15,1,-24,3c0,0,-9,3,-14,8c0,0,-4,6,-7,13L46,660c0,0,-4,11,-5,18c0,0,-2,8,-2,13c0,0,0,7,3,11c0,0,3,4,10,7c0,0,8,2,19,3c0,0,12,1,30,1c0,0,20,0,33,-1c0,0,13,-1,20,-4c0,0,6,-3,9,-8c0,0,3,-4,5,-11L330,136l2,-7l1,7L482,689c0,0,1,7,5,11c0,0,3,5,10,8c0,0,6,3,18,4c0,0,12,1,31,1c0,0,18,0,29,-1c0,0,12,-1,18,-4c0,0,7,-3,10,-7c0,0,3,-5,5,-11L768,136l1,-7l1,7L930,689c0,0,1,7,5,11c0,0,3,5,10,8c0,0,7,3,20,4c0,0,12,1,31,1c0,0,18,0,29,-1c0,0,11,-1,17,-4c0,0,6,-3,9,-6c0,0,3,-4,3,-11c0,0,0,-5,-2,-13c0,0,-1,-7,-5,-18L849,22c0,0,-2,-8,-7,-13c0,0,-5,-6,-13,-9c0,0,-9,-2,-24,-3c0,0,-15,-1,-37,-1c0,0,-23,0,-39,2c0,0,-15,1,-25,3c0,0,-9,3,-14,8c0,0,-4,6,-6,13L543,510l-2,6l-2,-6L409,22c0,0,-3,-8,-7,-13c0,0,-5,-6,-15,-9c0,0,-10,-2,-25,-3c0,0,-15,-1,-38,-1Z" 
id="f0_ci"
transform="scale(0.001,-0.001)" />

<path d="M321,-256c0,0,-13,0,-23,1c0,0,-10,0,-17,3c0,0,-7,2,-11,5c0,0,-5,3,-7,7c0,0,-40,76,-71,154c0,0,-31,78,-51,157c0,0,-21,81,-32,163c0,0,-10,83,-10,167c0,0,0,84,11,166c0,0,12,82,33,163c0,0,21,81,52,160c0,0,31,78,69,155c0,0,0,3,4,5c0,0,3,2,9,4c0,0,6,3,16,4c0,0,11,1,27,1c0,0,17,0,28,-2c0,0,10,-3,16,-6c0,0,6,-4,7,-10c0,0,1,-6,-2,-13c0,0,-71,-150,-106,-307c0,0,-34,-158,-34,-318c0,0,0,-160,35,-318c0,0,35,-156,103,-308c0,0,4,-9,4,-15c0,0,1,-6,-4,-10c0,0,-6,-4,-16,-6c0,0,-11,-2,-30,-2Z" 
id="f0_ov"
transform="scale(0.001,-0.001)" />

<path d="M142,-256c0,0,-19,0,-30,2c0,0,-11,2,-16,6c0,0,-5,4,-4,10c0,0,0,6,4,15c0,0,69,151,104,308c0,0,35,158,35,318c0,0,0,160,-35,318c0,0,-35,157,-106,307c0,0,-3,7,-2,13c0,0,1,6,7,10c0,0,6,3,16,6c0,0,11,2,28,2c0,0,16,0,26,-1c0,0,10,-1,17,-4c0,0,6,-2,9,-4c0,0,3,-2,5,-5c0,0,76,-153,120,-315c0,0,44,-161,44,-329c0,0,0,-84,-11,-167c0,0,-10,-82,-31,-163c0,0,-21,-79,-51,-157c0,0,-30,-78,-71,-154c0,0,-2,-4,-6,-7c0,0,-5,-3,-12,-5c0,0,-7,-3,-17,-3c0,0,-9,-1,-23,-1Z" 
id="f0_ow"
transform="scale(0.001,-0.001)" />

<path d="M346,-177c0,0,56,0,94,11c0,0,37,11,60,28c0,0,24,18,34,41c0,0,10,23,10,49c0,0,0,43,-36,65c0,0,-35,23,-95,25L239,48c0,0,-24,-19,-39,-35c0,0,-15,-16,-24,-31c0,0,-9,-16,-12,-30c0,0,-4,-15,-4,-31c0,0,0,-48,49,-73c0,0,50,-25,137,-25Zm-6,512c0,0,36,0,63,12c0,0,27,12,44,32c0,0,18,21,26,48c0,0,9,27,9,56c0,0,0,69,-38,107c0,0,-37,39,-107,39c0,0,-35,0,-62,-12c0,0,-26,-12,-44,-33c0,0,-17,-21,-26,-48c0,0,-8,-28,-8,-58c0,0,0,-66,37,-104c0,0,38,-39,106,-39Zm0,-606c0,0,-81,0,-138,14c0,0,-57,14,-94,38c0,0,-36,24,-52,57c0,0,-17,33,-17,72c0,0,0,24,6,47c0,0,6,24,18,43c0,0,13,21,31,40c0,0,18,19,42,38c0,0,-36,19,-54,47c0,0,-17,28,-17,61c0,0,0,45,18,81c0,0,19,36,46,64c0,0,-23,28,-36,62c0,0,-14,35,-14,84c0,0,0,58,20,104c0,0,19,45,53,77c0,0,35,31,83,48c0,0,48,17,105,17c0,0,30,0,57,-4c0,0,26,-3,49,-9H649c0,0,13,0,19,-12c0,0,7,-13,7,-38c0,0,0,-26,-7,-37c0,0,-7,-12,-19,-12H553c0,0,26,-27,37,-60c0,0,10,-32,10,-68c0,0,0,-58,-18,-103c0,0,-19,-45,-54,-76c0,0,-34,-31,-82,-47c0,0,-48,-16,-106,-16c0,0,-41,0,-78,10c0,0,-37,11,-57,28c0,0,-14,-14,-22,-31c0,0,-9,-17,-9,-39c0,0,0,-27,24,-44c0,0,25,-17,65,-18l175,-8c0,0,50,-1,92,-14c0,0,41,-12,72,-35c0,0,31,-22,48,-55c0,0,17,-34,17,-76c0,0,0,-47,-20,-88c0,0,-19,-42,-59,-74c0,0,-40,-31,-102,-50c0,0,-61,-18,-146,-18Z" 
id="f0_9d"
transform="scale(0.001,-0.001)" />

<path d="M111,-26V85L921,436L111,788V900L1033,489V384L111,-26Z" 
id="f1_2mp"
transform="scale(0.001,-0.001)" />

<path d="M1033,-26L111,384V489l922,411V788L223,436L1033,85V-26Z" 
id="f1_2mo"
transform="scale(0.001,-0.001)" />

<path d="M198,-4c0,0,-27,0,-45,2c0,0,-18,2,-28,5c0,0,-11,4,-15,10c0,0,-4,6,-4,13V887c0,0,0,38,20,58c0,0,20,20,53,20H308c0,0,34,0,59,-6c0,0,24,-5,42,-18c0,0,18,-13,30,-35c0,0,12,-21,21,-52L669,279h3L889,852c0,0,9,32,21,53c0,0,11,22,27,35c0,0,15,14,36,19c0,0,21,6,48,6h132c0,0,21,0,35,-5c0,0,15,-5,24,-15c0,0,9,-11,14,-25c0,0,5,-15,5,-33V26c0,0,0,-7,-4,-13c0,0,-4,-6,-15,-10c0,0,-11,-3,-29,-5c0,0,-18,-2,-45,-2c0,0,-27,0,-45,2c0,0,-18,2,-28,5c0,0,-11,4,-15,10c0,0,-5,6,-5,13V813h-1L764,27c0,0,-3,-10,-10,-16c0,0,-6,-6,-18,-10c0,0,-12,-3,-29,-4c0,0,-18,-1,-44,-1c0,0,-25,0,-43,2c0,0,-18,2,-29,5c0,0,-12,4,-19,10c0,0,-6,6,-9,14L293,813h-2V26c0,0,0,-7,-4,-13c0,0,-4,-6,-15,-10c0,0,-11,-3,-29,-5c0,0,-17,-2,-45,-2Z" 
id="f2_1x"
transform="scale(0.001,-0.001)" />

<path d="M526,431c0,0,2,79,-32,124c0,0,-34,45,-105,45c0,0,-35,0,-62,-13c0,0,-26,-13,-44,-36c0,0,-17,-23,-27,-54c0,0,-9,-31,-11,-66ZM410,-17c0,0,-88,0,-155,22c0,0,-67,22,-112,68c0,0,-44,45,-66,115c0,0,-22,69,-22,162c0,0,0,89,23,161c0,0,23,71,67,120c0,0,44,50,107,76c0,0,63,26,142,26c0,0,84,0,143,-24c0,0,59,-25,97,-69c0,0,38,-43,56,-103c0,0,18,-60,18,-130V377c0,0,0,-34,-15,-51c0,0,-16,-16,-43,-16H245c0,0,0,-43,10,-77c0,0,11,-35,33,-59c0,0,22,-24,56,-37c0,0,35,-13,83,-13c0,0,50,0,87,7c0,0,37,8,65,16c0,0,27,9,45,16c0,0,18,7,29,7c0,0,6,0,11,-2c0,0,4,-3,7,-10c0,0,3,-7,4,-19c0,0,2,-12,2,-31c0,0,0,-16,-1,-28c0,0,-1,-12,-2,-20c0,0,-2,-8,-5,-14c0,0,-3,-5,-8,-10c0,0,-5,-6,-26,-15c0,0,-22,-9,-55,-17c0,0,-34,-8,-77,-14c0,0,-43,-7,-93,-7Z" 
id="f2_7z"
transform="scale(0.001,-0.001)" />

<path d="M337,115c0,0,39,0,73,21c0,0,33,20,67,59V308H405c0,0,-45,0,-77,-7c0,0,-32,-6,-53,-20c0,0,-20,-13,-29,-32c0,0,-9,-19,-9,-44c0,0,0,-42,26,-66c0,0,27,-24,74,-24ZM296,-17c0,0,-53,0,-98,14c0,0,-44,13,-77,40c0,0,-32,28,-50,68c0,0,-18,40,-18,94c0,0,0,58,23,101c0,0,22,43,68,71c0,0,45,28,112,42c0,0,67,13,156,13h65v40c0,0,0,32,-6,55c0,0,-7,24,-21,39c0,0,-15,16,-39,23c0,0,-24,8,-60,8c0,0,-47,0,-84,-11c0,0,-37,-10,-66,-23c0,0,-28,-13,-47,-23c0,0,-19,-11,-31,-11c0,0,-9,0,-15,5c0,0,-6,6,-10,15c0,0,-5,10,-7,24c0,0,-2,14,-2,31c0,0,0,23,4,37c0,0,3,13,14,24c0,0,10,11,36,24c0,0,27,13,62,25c0,0,35,11,76,18c0,0,42,7,86,7c0,0,78,0,134,-15c0,0,55,-15,91,-47c0,0,36,-32,53,-82c0,0,16,-50,16,-118V23c0,0,0,-11,-7,-17c0,0,-8,-6,-24,-7c0,0,-16,-3,-47,-3c0,0,-34,0,-49,3c0,0,-15,1,-21,7c0,0,-7,6,-7,17V76C506,76,465,32,412,7c0,0,-52,-24,-116,-24Z" 
id="f2_77"
transform="scale(0.001,-0.001)" />

<path d="M275,-17c0,0,-37,0,-71,6c0,0,-34,6,-61,13c0,0,-27,9,-45,18c0,0,-18,9,-26,17c0,0,-8,8,-13,25c0,0,-4,17,-4,49c0,0,0,22,1,35c0,0,2,13,5,21c0,0,3,8,7,10c0,0,5,3,11,3c0,0,9,0,25,-9c0,0,16,-10,40,-21c0,0,24,-11,55,-21c0,0,32,-10,72,-10c0,0,26,0,46,5c0,0,19,6,34,15c0,0,14,10,22,25c0,0,7,15,7,34c0,0,0,23,-13,39c0,0,-14,16,-37,28c0,0,-23,11,-52,22c0,0,-28,10,-58,23c0,0,-31,13,-59,29c0,0,-29,17,-52,41c0,0,-23,23,-37,57c0,0,-13,34,-13,81c0,0,0,47,18,87c0,0,19,40,54,69c0,0,35,28,86,44c0,0,50,15,113,15c0,0,31,0,61,-4c0,0,29,-5,53,-11c0,0,24,-7,40,-15c0,0,17,-7,24,-13c0,0,7,-6,10,-11c0,0,3,-6,4,-14c0,0,2,-7,3,-19c0,0,1,-12,1,-29c0,0,0,-20,-1,-33c0,0,-1,-12,-4,-20c0,0,-2,-7,-7,-10c0,0,-4,-3,-10,-3c0,0,-7,0,-21,8c0,0,-14,8,-36,17c0,0,-21,9,-49,17c0,0,-28,7,-64,7c0,0,-25,0,-44,-5c0,0,-19,-5,-30,-15c0,0,-12,-9,-18,-22c0,0,-6,-14,-6,-28c0,0,0,-24,14,-39c0,0,14,-16,37,-28c0,0,23,-12,53,-22c0,0,29,-11,59,-23c0,0,31,-12,60,-29c0,0,30,-16,53,-40c0,0,23,-24,37,-57c0,0,14,-33,14,-79c0,0,0,-57,-21,-100c0,0,-21,-43,-60,-72c0,0,-39,-29,-92,-43c0,0,-53,-15,-115,-15Z" 
id="f2_b5"
transform="scale(0.001,-0.001)" />

<path d="M334,-17c0,0,-69,0,-115,22c0,0,-47,22,-76,61c0,0,-28,39,-41,90c0,0,-12,51,-12,127V691c0,0,0,7,4,13c0,0,4,5,15,9c0,0,11,4,29,6c0,0,19,2,45,2c0,0,28,0,46,-2c0,0,18,-2,29,-6c0,0,11,-4,15,-9c0,0,5,-6,5,-13V314c0,0,0,-52,6,-79c0,0,7,-28,21,-48c0,0,14,-20,35,-30c0,0,21,-11,49,-11c0,0,36,0,72,26c0,0,36,26,77,76V691c0,0,0,7,4,13c0,0,4,5,15,9c0,0,11,4,29,6c0,0,18,2,45,2c0,0,28,0,46,-2c0,0,18,-2,28,-6c0,0,11,-4,15,-9c0,0,5,-6,5,-13V25c0,0,0,-8,-4,-13c0,0,-4,-6,-13,-9c0,0,-10,-3,-25,-5c0,0,-15,-2,-38,-2c0,0,-25,0,-40,2c0,0,-16,2,-25,5c0,0,-9,3,-12,9c0,0,-4,5,-4,13v77c0,0,-55,-60,-112,-90c0,0,-57,-29,-118,-29Z" 
id="f2_c6"
transform="scale(0.001,-0.001)" />

<path d="M188,-4c0,0,-28,0,-46,2c0,0,-18,2,-28,5c0,0,-11,3,-16,9c0,0,-4,5,-4,13V691c0,0,0,7,4,13c0,0,3,5,13,9c0,0,10,4,25,6c0,0,15,2,38,2c0,0,24,0,40,-2c0,0,15,-2,24,-6c0,0,9,-4,12,-9c0,0,4,-6,4,-13V608c0,0,26,37,49,61c0,0,23,25,44,39c0,0,21,14,42,20c0,0,21,5,42,5c0,0,10,0,21,-1c0,0,11,-1,23,-4c0,0,12,-2,21,-5c0,0,9,-4,13,-8c0,0,4,-3,6,-8c0,0,2,-4,3,-12c0,0,2,-8,2,-24c0,0,1,-15,1,-42c0,0,0,-27,-1,-44c0,0,-2,-17,-5,-27c0,0,-3,-10,-8,-13c0,0,-5,-4,-12,-4c0,0,-6,0,-13,3c0,0,-8,2,-17,5c0,0,-10,3,-21,6c0,0,-11,2,-24,2c0,0,-16,0,-32,-6c0,0,-15,-6,-32,-20c0,0,-17,-13,-35,-36c0,0,-19,-22,-39,-55V25c0,0,0,-8,-5,-13c0,0,-4,-6,-15,-9c0,0,-11,-3,-29,-5c0,0,-18,-2,-45,-2Z" 
id="f2_b1"
transform="scale(0.001,-0.001)" />

<path d="M409,132c0,0,42,0,73,15c0,0,32,16,52,45c0,0,20,29,29,70c0,0,10,42,10,95c0,0,0,49,-8,91c0,0,-8,41,-26,72c0,0,-19,30,-50,48c0,0,-30,17,-77,17c0,0,-42,0,-73,-16c0,0,-31,-15,-51,-44c0,0,-21,-30,-31,-71c0,0,-10,-42,-10,-95c0,0,0,-49,9,-91c0,0,8,-41,26,-72c0,0,18,-30,49,-47c0,0,32,-17,78,-17ZM402,-17c0,0,-89,0,-154,24c0,0,-66,25,-109,72c0,0,-43,47,-64,115c0,0,-21,69,-21,157c0,0,0,85,23,156c0,0,22,70,68,121c0,0,45,50,113,78c0,0,69,27,160,27c0,0,90,0,155,-24c0,0,66,-24,109,-71c0,0,43,-47,64,-116c0,0,21,-69,21,-157c0,0,0,-86,-23,-156c0,0,-22,-70,-68,-121C676,88,631,38,562,10c0,0,-68,-27,-160,-27Z" 
id="f2_am"
transform="scale(0.001,-0.001)" />

<path d="M224,-4c0,0,-26,0,-45,2c0,0,-18,2,-29,5c0,0,-11,3,-15,9c0,0,-4,5,-4,13V563H48c0,0,-14,0,-21,18c0,0,-7,17,-7,58c0,0,0,22,1,37c0,0,2,15,6,24c0,0,3,8,9,12c0,0,5,4,13,4h82v56c0,0,0,68,13,119c0,0,14,51,43,85c0,0,29,34,73,51c0,0,45,17,105,17c0,0,29,0,55,-5c0,0,27,-4,42,-10c0,0,15,-6,20,-10c0,0,5,-5,8,-15c0,0,4,-9,5,-23c0,0,2,-15,2,-37c0,0,0,-21,-2,-34c0,0,-1,-13,-4,-20c0,0,-3,-7,-7,-10c0,0,-4,-3,-8,-3c0,0,-5,0,-12,3c0,0,-6,3,-16,6c0,0,-9,2,-22,5c0,0,-12,3,-29,3c0,0,-21,0,-35,-7c0,0,-15,-6,-25,-20c0,0,-9,-14,-14,-36c0,0,-4,-22,-4,-54V716H440c0,0,7,0,13,-4c0,0,5,-4,9,-12c0,0,4,-9,5,-24c0,0,2,-15,2,-37c0,0,0,-41,-7,-58c0,0,-8,-18,-22,-18H319V25c0,0,0,-8,-5,-13c0,0,-4,-6,-15,-9c0,0,-10,-3,-29,-5c0,0,-19,-2,-46,-2Z" 
id="f2_89"
transform="scale(0.001,-0.001)" />

<path d="M403,155c0,0,81,0,136,21c0,0,55,21,92,63c0,0,37,42,55,105c0,0,18,63,18,146c0,0,0,69,-16,128c0,0,-16,59,-51,102c0,0,-36,43,-91,67c0,0,-56,25,-146,25H301V155ZM164,0c0,0,-25,0,-42,15c0,0,-16,14,-16,47V903c0,0,0,33,16,48c0,0,17,14,42,14H411c0,0,129,0,219,-30c0,0,90,-30,152,-90c0,0,61,-59,93,-146c0,0,32,-87,32,-202c0,0,0,-133,-34,-227c0,0,-35,-95,-100,-154c0,0,-65,-60,-158,-88C615,28,523,0,394,0Z" 
id="f2_p"
transform="scale(0.001,-0.001)" />

<path d="M188,-4c0,0,-28,0,-46,2c0,0,-18,2,-28,5c0,0,-11,3,-16,9c0,0,-4,5,-4,13V689c0,0,0,8,4,13c0,0,5,6,16,10c0,0,10,4,28,6c0,0,18,3,46,3c0,0,27,0,45,-3c0,0,18,-2,29,-6c0,0,11,-4,15,-10c0,0,5,-5,5,-13V25c0,0,0,-8,-5,-13c0,0,-4,-6,-15,-9c0,0,-11,-3,-29,-5c0,0,-18,-2,-45,-2Zm-1,820c0,0,-63,0,-85,21c0,0,-22,21,-22,75c0,0,0,57,23,79c0,0,23,22,86,22c0,0,63,0,85,-21c0,0,22,-21,22,-76c0,0,0,-56,-23,-78c0,0,-23,-22,-86,-22Z" 
id="f2_9q"
transform="scale(0.001,-0.001)" />

<path d="M432,142c0,0,36,0,62,18c0,0,26,19,42,49c0,0,16,31,24,69c0,0,8,38,8,76c0,0,0,43,-6,82c0,0,-7,39,-22,70c0,0,-15,30,-40,49c0,0,-25,18,-62,18c0,0,-19,0,-37,-6c0,0,-19,-5,-38,-18c0,0,-19,-13,-39,-33c0,0,-20,-20,-42,-50V247c0,0,39,-51,75,-78c0,0,36,-27,75,-27ZM188,-270c0,0,-28,0,-46,2c0,0,-18,3,-28,7c0,0,-11,4,-16,10c0,0,-4,6,-4,13V691c0,0,0,7,4,13c0,0,3,5,13,9c0,0,9,4,24,6c0,0,15,2,39,2c0,0,22,0,37,-2c0,0,15,-2,25,-6c0,0,9,-4,13,-9c0,0,4,-6,4,-13V612c0,0,29,30,57,53c0,0,28,23,57,38c0,0,29,15,60,23c0,0,31,7,66,7c0,0,73,0,124,-28c0,0,52,-29,84,-79c0,0,33,-50,48,-117c0,0,15,-66,15,-141c0,0,0,-89,-19,-161c0,0,-19,-71,-56,-121C689,86,652,36,598,9c0,0,-54,-26,-125,-26c0,0,-29,0,-53,6c0,0,-24,6,-47,16c0,0,-23,12,-45,29c0,0,-23,17,-46,40V-238c0,0,0,-7,-5,-13c0,0,-4,-6,-15,-10c0,0,-11,-4,-29,-7c0,0,-18,-2,-45,-2Z" 
id="f2_ay"
transform="scale(0.001,-0.001)" />

<path d="M188,-4c0,0,-28,0,-46,2c0,0,-18,2,-28,5c0,0,-11,3,-16,9c0,0,-4,5,-4,13V691c0,0,0,7,4,13c0,0,3,5,13,9c0,0,10,4,25,6c0,0,15,2,38,2c0,0,24,0,40,-2c0,0,15,-2,24,-6c0,0,9,-4,12,-9c0,0,4,-6,4,-13V614c0,0,55,60,112,89c0,0,57,30,119,30c0,0,68,0,115,-22c0,0,47,-22,75,-61c0,0,29,-38,42,-90c0,0,12,-51,12,-124V25c0,0,0,-8,-4,-13c0,0,-5,-6,-15,-9c0,0,-10,-3,-29,-5c0,0,-18,-2,-45,-2c0,0,-28,0,-46,2c0,0,-18,2,-29,5c0,0,-10,3,-15,9c0,0,-4,6,-4,13V405c0,0,0,49,-7,76c0,0,-7,28,-21,48c0,0,-13,19,-35,30c0,0,-21,11,-49,11c0,0,-36,0,-72,-26c0,0,-37,-26,-76,-76V25c0,0,0,-7,-5,-13c0,0,-4,-6,-15,-9c0,0,-11,-3,-29,-5c0,0,-18,-2,-45,-2Z" 
id="f2_af"
transform="scale(0.001,-0.001)" />

<path d="M161,0c0,0,-5,0,-10,3c0,0,-4,2,-8,8c0,0,-5,6,-7,16c0,0,-2,9,-2,24c0,0,0,13,2,23c0,0,2,9,6,16c0,0,3,6,8,9c0,0,5,4,11,4H362V837L176,726c0,0,-15,-8,-23,-9c0,0,-1,-1,-3,-1c-3,0,-8,1,-11,4c0,0,-5,5,-7,16c0,0,-2,11,-2,28c0,0,0,13,1,22c0,0,1,9,4,15c0,0,2,6,6,10c0,0,4,5,11,9L374,963c0,0,3,2,7,4c0,0,5,1,11,3c0,0,7,1,16,2c0,0,9,0,22,0c0,0,18,0,30,-2c0,0,12,-1,19,-4c0,0,7,-2,9,-6c0,0,2,-5,2,-9V103H665c0,0,6,0,11,-4c0,0,5,-3,8,-9c0,0,4,-7,6,-16c0,0,2,-10,2,-23c0,0,0,-15,-3,-24c0,0,-2,-10,-6,-16c0,0,-3,-6,-8,-8c0,0,-5,-3,-10,-3Z" 
id="f0_ry"
transform="scale(0.001,-0.001)" />

<path d="M402,542c0,0,41,0,72,10c0,0,32,10,52,28c0,0,21,18,32,44c0,0,10,25,10,56c0,0,0,48,-21,81c0,0,-22,33,-71,46c0,0,-15,4,-34,6c0,0,-19,2,-52,2H302V542ZM203,-4c0,0,-28,0,-47,2c0,0,-19,2,-30,5c0,0,-11,4,-16,10c0,0,-4,6,-4,13V903c0,0,0,33,16,48c0,0,17,14,42,14H414c0,0,38,0,62,-1c0,0,25,-2,45,-4c0,0,58,-8,105,-28c0,0,46,-21,79,-53c0,0,32,-32,49,-77c0,0,17,-44,17,-101c0,0,0,-49,-12,-89c0,0,-12,-40,-36,-71c0,0,-24,-31,-59,-54c0,0,-35,-23,-80,-38c0,0,22,-10,41,-25c0,0,19,-15,36,-36c0,0,17,-22,31,-49c0,0,15,-27,30,-61L803,87c0,0,11,-28,15,-41c0,0,3,-14,3,-21c0,0,0,-8,-3,-14c0,0,-3,-5,-14,-9c0,0,-11,-3,-33,-4c0,0,-21,-2,-59,-2c0,0,-31,0,-50,2c0,0,-18,1,-29,4c0,0,-11,4,-15,11c0,0,-5,6,-8,15L524,244c0,0,-16,37,-31,65c0,0,-14,28,-33,48c0,0,-18,19,-42,28c0,0,-24,10,-55,10H302V27c0,0,0,-8,-5,-14c0,0,-5,-6,-16,-10c0,0,-11,-3,-30,-5c0,0,-18,-2,-48,-2Z" 
id="f2_s8"
transform="scale(0.001,-0.001)" />

<path d="M345,-143c0,0,43,0,72,9c0,0,29,8,47,23c0,0,18,14,25,31c0,0,8,18,8,37c0,0,0,33,-27,50c0,0,-27,18,-74,20L263,30C263,30,243,16,232,3c0,0,-12,-12,-19,-24c0,0,-7,-12,-9,-23c0,0,-3,-11,-3,-23c0,0,0,-37,38,-56c0,0,38,-20,106,-20Zm-4,517c0,0,28,0,49,9c0,0,21,9,35,25c0,0,14,16,21,36c0,0,7,21,7,43c0,0,0,54,-30,84c0,0,-30,29,-84,29c0,0,-28,0,-49,-9c0,0,-21,-9,-34,-25c0,0,-14,-16,-21,-38c0,0,-7,-21,-7,-44c0,0,0,-51,30,-80c0,0,30,-30,83,-30Zm-4,-645c0,0,-85,0,-145,14c0,0,-60,13,-98,37c0,0,-39,24,-56,57c0,0,-18,33,-18,73c0,0,0,24,6,47c0,0,7,22,19,42c0,0,12,20,30,39c0,0,18,18,41,35c0,0,-32,18,-49,47c0,0,-18,29,-18,64c0,0,0,44,20,80c0,0,21,36,53,65c0,0,-27,26,-42,63c0,0,-16,37,-16,91c0,0,0,58,21,104c0,0,20,46,57,78c0,0,36,32,87,49c0,0,51,16,112,16c0,0,31,0,60,-3c0,0,29,-4,53,-11H665c0,0,13,0,21,-17c0,0,8,-16,8,-55c0,0,0,-36,-8,-53c0,0,-9,-17,-21,-17H587c0,0,17,-18,24,-41c0,0,7,-22,7,-47c0,0,0,-58,-20,-103c0,0,-19,-45,-55,-76c0,0,-36,-31,-88,-47c0,0,-51,-17,-113,-17c0,0,-32,0,-61,8c0,0,-30,8,-45,19c0,0,-9,-10,-16,-23c0,0,-7,-14,-7,-30c0,0,0,-22,19,-36c0,0,19,-13,53,-15l162,-6c0,0,57,-2,101,-16c0,0,44,-14,75,-39c0,0,30,-24,46,-59c0,0,16,-35,16,-79c0,0,0,-49,-22,-93c0,0,-21,-44,-65,-76c0,0,-43,-32,-108,-50c0,0,-66,-19,-153,-19Z" 
id="f2_sa"
transform="scale(0.001,-0.001)" />

<path d="M224,-9c0,0,-31,0,-51,6c0,0,-20,4,-32,18c0,0,-13,13,-17,34c0,0,-5,22,-5,53c0,0,0,31,5,53c0,0,4,22,17,36c0,0,12,13,32,19c0,0,20,5,51,5c0,0,30,0,50,-5c0,0,20,-6,33,-19c0,0,12,-14,17,-36c0,0,6,-22,6,-53c0,0,0,-31,-6,-53c0,0,-5,-21,-17,-34C307,15,294,1,274,-3c0,0,-20,-6,-50,-6Zm0,487c0,0,-31,0,-51,6c0,0,-20,5,-32,19c0,0,-13,13,-17,34c0,0,-5,21,-5,52c0,0,0,32,5,54c0,0,4,21,17,35c0,0,12,13,32,19c0,0,20,6,51,6c0,0,30,0,50,-6c0,0,20,-6,33,-19c0,0,12,-14,17,-35c0,0,6,-22,6,-54c0,0,0,-31,-6,-52c0,0,-5,-21,-17,-34c0,0,-13,-14,-33,-19c0,0,-20,-6,-50,-6Z" 
id="f2_ns"
transform="scale(0.001,-0.001)" />

<path d="M95,0L203,473c0,0,10,45,13,69c0,0,3,25,3,41c0,0,0,30,-9,44c0,0,-10,13,-31,13c0,0,-23,0,-49,-19c0,0,-26,-19,-70,-69L17,594c0,0,69,71,115,102c0,0,46,30,102,30c0,0,47,0,74,-31c0,0,28,-31,28,-81c0,0,0,-37,-14,-77l9,-4c0,0,73,100,141,146c0,0,67,46,137,46c0,0,54,0,91,-8L664,550H587c0,0,-4,31,-13,48c0,0,-8,17,-19,24c0,0,-11,7,-28,7c0,0,-27,0,-59,-23c0,0,-32,-23,-71,-73c0,0,-40,-49,-63,-94c0,0,-24,-46,-39,-116L224,0Z" 
id="f1_1fz"
transform="scale(0.001,-0.001)" />

<path d="M303,77c0,0,49,0,96,42c0,0,48,43,98,122c0,0,51,78,71,181l7,32c0,0,7,31,9,53c0,0,2,23,2,49c0,0,0,57,-24,84c0,0,-25,27,-84,27c0,0,-77,0,-138,-62c0,0,-61,-62,-95,-166c0,0,-35,-104,-35,-208c0,0,0,-77,22,-116c0,0,21,-38,71,-38ZM616,-11c0,0,-46,0,-74,30c0,0,-27,30,-27,81c0,0,0,41,17,87l-10,3C522,190,451,86,386,37c0,0,-64,-47,-135,-47c0,0,-82,0,-128,61c0,0,-45,62,-45,174c0,0,0,128,51,246c0,0,50,118,138,187c0,0,88,68,196,68c0,0,49,0,91,-11c0,0,42,-11,87,-38l68,49l48,-12L648,241c0,0,-17,-71,-17,-110c0,0,0,-30,10,-44c0,0,9,-13,30,-13c0,0,23,0,48,18c0,0,25,18,72,70l42,-42C833,120,766,48,719,18c0,0,-48,-29,-103,-29Z" 
id="f1_1fi"
transform="scale(0.001,-0.001)" />

<path d="M638,-11c0,0,-49,0,-78,34c0,0,-29,34,-29,88c0,0,0,49,25,143l33,129c0,0,17,70,23,103c0,0,6,34,6,55c0,0,0,51,-17,74c0,0,-18,23,-56,23c0,0,-32,0,-68,-25c0,0,-36,-25,-77,-76c0,0,-40,-50,-65,-97c0,0,-25,-48,-40,-117L224,0H95L204,473c0,0,16,72,16,110c0,0,0,30,-10,44c0,0,-9,13,-30,13c0,0,-23,0,-49,-19c0,0,-26,-19,-71,-69L18,594c0,0,69,71,114,102c0,0,46,30,103,30c0,0,47,0,74,-31c0,0,27,-31,27,-81c0,0,0,-40,-17,-88l8,-3c0,0,74,103,140,152c0,0,66,50,136,50c0,0,69,0,106,-40c0,0,38,-40,38,-111c0,0,0,-47,-22,-133L677,245c0,0,-21,-81,-21,-114c0,0,0,-30,10,-44c0,0,10,-13,31,-13c0,0,22,0,47,18c0,0,26,18,72,70l43,-42C859,120,794,51,747,20c0,0,-48,-31,-109,-31Z" 
id="f1_1fv"
transform="scale(0.001,-0.001)" />

<path d="M397,77c0,0,38,0,76,26c0,0,37,26,80,83c0,0,43,56,67,108c0,0,24,51,41,128c0,0,16,77,16,134c0,0,0,58,-24,84c0,0,-25,27,-82,27c0,0,-76,0,-137,-62c0,0,-60,-61,-95,-166c0,0,-35,-104,-35,-208c0,0,0,-77,23,-116c0,0,22,-38,70,-38ZM304,-332c0,0,-282,0,-282,164c0,0,0,41,26,76c0,0,25,34,81,72l54,-43c0,0,-14,-17,-24,-34c0,0,-10,-17,-14,-33c0,0,-4,-15,-4,-37c0,0,0,-56,40,-82c0,0,41,-25,122,-25c0,0,92,0,147,41c0,0,56,42,95,133c0,0,40,92,77,277l-10,2C612,179,539,80,477,34c0,0,-61,-44,-133,-44c0,0,-81,0,-127,60c0,0,-45,61,-45,175c0,0,0,127,50,245c0,0,50,117,139,186c0,0,89,70,198,70c0,0,47,0,89,-11c0,0,41,-12,84,-38l68,49l48,-12L771,366c0,0,-8,-36,-37,-184c0,0,-31,-157,-50,-221c0,0,-19,-64,-47,-118c0,0,-28,-53,-73,-93c0,0,-45,-39,-109,-61c0,0,-63,-21,-151,-21Z" 
id="f1_1fo"
transform="scale(0.001,-0.001)" />

<path d="M228,385c0,0,105,1,180,19c0,0,75,18,116,58c0,0,40,40,40,108c0,0,0,45,-21,71c0,0,-22,26,-63,26c0,0,-76,0,-145,-76c0,0,-70,-76,-107,-206ZM305,-11c0,0,-108,0,-167,65c0,0,-60,66,-60,184c0,0,0,80,29,171c0,0,29,92,87,164c0,0,58,73,139,113c0,0,82,40,174,40c0,0,90,0,135,-37c0,0,45,-36,45,-114c0,0,0,-127,-119,-190c0,0,-119,-63,-353,-63c0,0,-9,-45,-9,-97c0,0,0,-79,30,-114c0,0,31,-36,100,-36c0,0,69,0,125,30c0,0,55,30,117,92l46,-49C624,148,552,69,478,28c0,0,-74,-39,-173,-39Z" 
id="f1_1fm"
transform="scale(0.001,-0.001)" />

<path d="M530,-11c0,0,-32,0,-55,11c0,0,-22,11,-39,37c0,0,-16,25,-29,79c0,0,-23,95,-28,146h-8c0,0,-79,-111,-117,-160c0,0,-38,-48,-63,-71C191,31,166,7,142,-1c0,0,-23,-9,-62,-9c0,0,-35,0,-58,9L52,133h52c0,0,5,-32,27,-32c0,0,10,0,22,6c0,0,11,6,33,27c0,0,21,21,59,67c0,0,38,45,111,136c0,0,-11,59,-23,114c0,0,-12,54,-25,101c0,0,-13,47,-21,62c0,0,-8,14,-17,20c0,0,-10,5,-24,5c0,0,-15,0,-28,-7c0,0,-13,-7,-28,-24c0,0,-15,-18,-39,-55l-49,32c0,0,47,71,90,106c0,0,44,35,103,35c0,0,23,0,40,-5c0,0,18,-6,31,-16c0,0,14,-11,24,-28c0,0,11,-18,20,-47c0,0,10,-29,19,-73c0,0,8,-44,15,-91h7c0,0,72,101,109,148c0,0,37,46,62,69c0,0,26,23,49,32c0,0,24,9,62,9c0,0,35,0,58,-9L761,580H709c0,0,-5,32,-26,32c0,0,-7,0,-15,-3c0,0,-7,-2,-18,-9c0,0,-11,-8,-32,-29c0,0,-20,-22,-47,-53c0,0,-26,-32,-53,-66L467,389c0,0,13,-72,25,-124c0,0,12,-52,22,-87c0,0,9,-35,16,-55c0,0,7,-20,15,-30c0,0,9,-10,17,-14c0,0,9,-4,20,-4c0,0,20,0,39,15c0,0,19,16,55,71l48,-32c0,0,-52,-78,-94,-109c0,0,-42,-31,-100,-31Z" 
id="f1_1g5"
transform="scale(0.001,-0.001)" />

<path d="M1159,-12c0,0,-29,0,-52,10c0,0,-23,9,-39,28c0,0,-16,18,-25,43c0,0,-9,25,-9,55c0,0,0,61,26,157c0,0,14,49,26,93c0,0,11,45,20,82c0,0,8,38,13,67c0,0,4,30,4,49c0,0,0,46,-17,68c0,0,-18,22,-55,22c0,0,-23,0,-49,-12c0,0,-26,-12,-53,-33c0,0,-26,-22,-52,-51c0,0,-25,-29,-47,-63c0,0,-21,-34,-38,-71c0,0,-17,-37,-26,-75L712,0H567c0,0,10,48,23,103c0,0,14,54,27,110c0,0,13,56,26,111c0,0,12,54,22,102c0,0,9,47,15,85c0,0,6,37,6,60c0,0,0,47,-18,69c0,0,-18,22,-59,22c0,0,-35,0,-76,-27c0,0,-41,-27,-78,-71c0,0,-37,-43,-66,-98c0,0,-29,-55,-41,-111L272,0H125L237,486c0,0,10,41,14,71c0,0,5,29,5,49c0,0,0,54,-44,54c0,0,-14,0,-27,-5c0,0,-14,-6,-29,-17c0,0,-16,-11,-34,-29c0,0,-18,-17,-40,-40L31,618c0,0,36,37,67,64c0,0,31,27,60,45c0,0,28,17,56,26c0,0,28,9,58,9c0,0,55,0,85,-37c0,0,30,-36,30,-95c0,0,0,-16,-2,-32c0,0,-2,-15,-8,-30l9,-4c0,0,71,99,141,148c0,0,71,50,146,50c0,0,79,0,118,-41c0,0,39,-41,39,-120c0,0,0,-6,0,-13c0,0,0,-6,-1,-13h3c0,0,69,95,138,141c0,0,68,46,143,46c0,0,79,0,118,-43c0,0,39,-42,39,-119c0,0,0,-23,-7,-63c0,0,-8,-39,-18,-86c0,0,-11,-47,-24,-97c0,0,-12,-50,-24,-95c0,0,-6,-29,-10,-48c0,0,-5,-18,-7,-30c0,0,-2,-12,-3,-21c0,0,-1,-9,-1,-20c0,0,0,-28,11,-41c0,0,10,-12,33,-12c0,0,14,0,27,5c0,0,14,5,29,16c0,0,15,11,34,29c0,0,18,17,40,42l52,-49c0,0,-36,-37,-67,-64c0,0,-31,-27,-60,-45c0,0,-28,-17,-57,-25c0,0,-28,-8,-59,-8Z" 
id="f1_2ch"
transform="scale(0.001,-0.001)" />

<path d="M340,85c0,0,26,0,49,9c0,0,24,9,50,28c0,0,65,52,112,126c0,0,46,74,69,174c0,0,10,46,16,84c0,0,6,37,6,71c0,0,0,59,-28,85c0,0,-28,26,-88,26c0,0,-44,0,-82,-20c0,0,-38,-19,-70,-53c0,0,-31,-33,-55,-77c0,0,-24,-44,-41,-93c0,0,-17,-50,-25,-101c0,0,-9,-52,-9,-100c0,0,0,-81,23,-120c0,0,22,-39,73,-39ZM281,-12c0,0,-89,0,-137,62c0,0,-49,64,-49,186c0,0,0,72,16,139c0,0,15,67,43,125c0,0,28,59,67,107c0,0,39,48,85,82c0,0,46,35,98,54c0,0,53,19,108,19c0,0,59,0,105,-14c0,0,45,-14,82,-38l72,52l61,-16L719,257c0,0,-10,-41,-13,-69c0,0,-4,-27,-4,-48c0,0,0,-28,12,-41c0,0,11,-12,33,-12c0,0,13,0,26,5c0,0,13,5,29,16c0,0,15,11,33,29c0,0,18,17,42,42c0,0,11,-13,24,-25c0,0,13,-12,25,-24c0,0,-38,-38,-68,-65c0,0,-31,-28,-59,-45C799,20,770,2,742,-5c0,0,-27,-7,-57,-7c0,0,-54,0,-84,33c0,0,-30,35,-30,95c0,0,0,34,11,65l-11,4c0,0,-38,-53,-73,-90c0,0,-36,-38,-71,-62C427,33,392,9,356,-1c0,0,-36,-11,-75,-11Z" 
id="f1_2c5"
transform="scale(0.001,-0.001)" />

<path d="M91,-12c0,0,-39,0,-66,12L59,145h63c0,0,3,-32,25,-32c0,0,8,0,16,3c0,0,8,2,18,9c0,0,11,7,27,22c0,0,16,16,40,43c0,0,25,27,61,68c0,0,36,41,86,102c0,0,-14,62,-24,108c0,0,-10,47,-19,80c0,0,-8,33,-16,54c0,0,-9,21,-17,33c0,0,-9,13,-19,18c0,0,-10,5,-23,6c0,0,-13,0,-24,-4c0,0,-11,-5,-22,-15c0,0,-12,-10,-25,-29c0,0,-14,-19,-32,-49l-58,38c0,0,31,45,56,77c0,0,24,31,48,50c0,0,24,18,50,26c0,0,27,9,61,9c0,0,41,0,67,-18c0,0,26,-18,44,-52c0,0,17,-35,28,-85c0,0,11,-50,24,-115h10c0,0,44,59,77,102c0,0,33,43,59,73c0,0,25,30,46,48c0,0,20,19,40,29c0,0,19,10,40,14c0,0,20,4,46,4c0,0,37,0,68,-14L842,601H780c0,0,-2,32,-24,32c0,0,-8,0,-17,-3c0,0,-10,-3,-24,-12c0,0,-13,-9,-31,-25c0,0,-17,-16,-41,-41c0,0,-24,-26,-54,-63c0,0,-31,-38,-71,-88c0,0,21,-103,35,-165c0,0,15,-62,28,-95c0,0,14,-33,27,-43c0,0,13,-10,31,-10c0,0,12,0,23,3c0,0,11,3,22,13c0,0,12,10,26,29c0,0,14,19,34,51l56,-37c0,0,-33,-49,-58,-81c0,0,-26,-31,-50,-49C692,17,668,0,643,-6c0,0,-25,-6,-58,-6c0,0,-28,0,-51,7c0,0,-22,7,-39,28c0,0,-11,13,-21,34c0,0,-9,21,-17,46c0,0,-9,25,-15,51c0,0,-7,27,-12,50c0,0,-4,23,-7,41c0,0,-2,18,-3,27h-8c0,0,-45,-59,-78,-104c0,0,-33,-44,-60,-76c0,0,-27,-32,-49,-52C225,40,204,19,183,7C183,7,162,-3,140,-8c0,0,-22,-4,-49,-4Z" 
id="f1_2cs"
transform="scale(0.001,-0.001)" />

<path d="M111,387v99h919V387Z" 
id="f1_2mf"
transform="scale(0.001,-0.001)" />

<path d="M248,-12c0,0,-28,0,-51,10c0,0,-22,9,-39,28c0,0,-16,18,-25,43c0,0,-9,26,-9,56c0,0,0,25,6,61c0,0,6,37,15,80c0,0,9,43,21,90c0,0,11,47,22,93c0,0,10,46,19,89c0,0,9,43,12,78c0,0,2,6,2,12c0,0,0,5,0,10c0,0,-2,29,-21,42c0,0,-19,14,-67,15l9,51l216,8h37L284,257c0,0,-10,-44,-14,-70c0,0,-4,-26,-4,-47c0,0,0,-28,11,-41c0,0,12,-12,35,-12c0,0,13,0,27,5c0,0,13,5,28,16c0,0,16,11,34,29c0,0,18,17,41,42l50,-49c0,0,-38,-40,-70,-67c0,0,-32,-27,-60,-44C362,19,333,1,306,-5c0,0,-27,-7,-58,-7Zm32,906l35,161H464L427,894Z" 
id="f1_2cd"
transform="scale(0.001,-0.001)" />

<path d="M721,-12c0,0,-27,0,-50,10c0,0,-23,9,-39,28c0,0,-17,18,-26,43c0,0,-8,25,-8,55c0,0,0,30,6,70c0,0,6,39,19,87c0,0,13,49,25,93c0,0,11,45,20,82c0,0,9,38,13,67c0,0,5,30,5,49c0,0,0,46,-17,68c0,0,-18,22,-57,22c0,0,-22,0,-48,-12c0,0,-25,-11,-52,-32c0,0,-26,-20,-51,-48c0,0,-25,-28,-45,-60c0,0,-21,-32,-37,-67c0,0,-16,-34,-24,-69L272,0H125L237,486c0,0,10,39,14,70c0,0,5,30,5,50c0,0,0,54,-44,54c0,0,-14,0,-27,-5c0,0,-14,-6,-29,-17c0,0,-16,-11,-34,-29c0,0,-18,-17,-40,-40L31,618c0,0,37,38,68,65c0,0,31,27,59,45c0,0,28,17,55,25c0,0,28,9,59,9c0,0,55,0,85,-37c0,0,30,-36,30,-95c0,0,0,-15,-2,-31c0,0,-3,-16,-10,-31l11,-4c0,0,72,99,143,148c0,0,70,50,145,50c0,0,79,0,119,-43c0,0,39,-42,39,-119c0,0,0,-23,-7,-64c0,0,-7,-41,-17,-90c0,0,-11,-48,-22,-99c0,0,-12,-52,-23,-95c0,0,-10,-43,-17,-74c0,0,-7,-30,-7,-38c0,0,0,-28,11,-41c0,0,10,-12,33,-12c0,0,14,0,28,5c0,0,14,5,29,16c0,0,15,11,33,29c0,0,18,17,40,42l52,-49c0,0,-37,-37,-68,-64c0,0,-30,-27,-59,-45C838,21,809,4,781,-4c0,0,-28,-8,-60,-8Z" 
id="f1_2ci"
transform="scale(0.001,-0.001)" />

<path d="M423,92c0,0,97,0,159,62c0,0,62,62,62,157c0,0,0,97,-64,160c0,0,-64,64,-161,64c0,0,-96,0,-158,-63c0,0,-62,-62,-62,-156c0,0,0,-58,27,-111c0,0,27,-54,81,-84c0,0,54,-29,116,-29Zm0,552c0,0,78,0,127,49c0,0,49,49,49,120c0,0,0,74,-50,124c0,0,-51,51,-128,51c0,0,-77,0,-127,-50c0,0,-51,-49,-51,-118c0,0,0,-77,50,-126c0,0,50,-50,130,-50ZM422,-18c0,0,-162,0,-261,95c0,0,-99,96,-99,239c0,0,0,107,54,179c0,0,54,72,154,98c0,0,-84,31,-124,87c0,0,-40,57,-40,136c0,0,0,119,85,201c0,0,86,81,229,81c0,0,143,0,230,-83c0,0,87,-83,87,-203c0,0,0,-76,-40,-132c0,0,-39,-56,-121,-87c0,0,101,-33,154,-106c0,0,52,-73,52,-174c0,0,0,-141,-99,-236c0,0,-99,-95,-261,-95Z" 
id="f3_s"
transform="scale(0.001,-0.001)" />


</defs>
</svg>